<svg xmlns="http://www.w3.org/2000/svg" width="128" height="128" viewBox="0 0 128 128">
  <g id="Grupo_1183486" data-name="Grupo 1183486" transform="translate(-72.746 -7992)">
    <g id="Elipse_13628" data-name="Elipse 13628" transform="translate(72.746 7992)" fill="#fdf3e6" stroke="#ff984a" stroke-width="6">
      <circle cx="64" cy="64" r="64" stroke="none"/>
      <circle cx="64" cy="64" r="61" fill="none"/>
    </g>
    <g id="Grupo_1184438" data-name="Grupo 1184438" transform="translate(105.152 8023.572)">
      <path id="Trazado_1011378" data-name="Trazado 1011378" d="M22,58V4a2,2,0,0,1,2-2H60a2,2,0,0,1,2,2V56a2,2,0,0,1-2,2Z" fill="#c8cded"/>
      <path id="Trazado_1011379" data-name="Trazado 1011379" d="M60,2H26V41.089A13.911,13.911,0,0,0,39.911,55H62V4A2,2,0,0,0,60,2Z" fill="#e2e7f6"/>
      <path id="Trazado_1011380" data-name="Trazado 1011380" d="M28,6v6H43a2,2,0,0,1,2,2H56V6Z" fill="#fff"/>
      <rect id="Rectángulo_459222" data-name="Rectángulo 459222" width="40" height="50" rx="2" transform="translate(5 12)" fill="#78a0d4"/>
      <path id="Trazado_1011381" data-name="Trazado 1011381" d="M43,12H9V53a6,6,0,0,0,6,6H45V14A2,2,0,0,0,43,12Z" fill="#93bee5"/>
      <path id="Trazado_1011382" data-name="Trazado 1011382" d="M37,12h4V62H37Z" fill="#c8cded"/>
      <path id="Trazado_1011383" data-name="Trazado 1011383" d="M38,59a2,2,0,0,0,2,2h1V12H38Z" fill="#e2e7f6"/>
      <rect id="Rectángulo_459223" data-name="Rectángulo 459223" width="6" height="4" rx="2" transform="translate(2 17)" fill="#f6b940"/>
      <path id="Trazado_1011384" data-name="Trazado 1011384" d="M6,17H4a1.974,1.974,0,0,0-.82.18A1.992,1.992,0,0,0,5,20H7a1.99,1.99,0,0,0,.82-.18A1.992,1.992,0,0,0,6,17Z" fill="#f9d266"/>
      <g id="Grupo_1184437" data-name="Grupo 1184437">
        <rect id="Rectángulo_459224" data-name="Rectángulo 459224" width="6" height="4" rx="2" transform="translate(2 26)" fill="#f6b940"/>
        <rect id="Rectángulo_459225" data-name="Rectángulo 459225" width="6" height="4" rx="2" transform="translate(2 53)" fill="#f6b940"/>
        <rect id="Rectángulo_459226" data-name="Rectángulo 459226" width="6" height="4" rx="2" transform="translate(2 44)" fill="#f6b940"/>
        <rect id="Rectángulo_459227" data-name="Rectángulo 459227" width="6" height="4" rx="2" transform="translate(2 35)" fill="#f6b940"/>
      </g>
      <path id="Trazado_1011385" data-name="Trazado 1011385" d="M13,18H32V30H13Z" fill="#c8cded"/>
      <path id="Trazado_1011386" data-name="Trazado 1011386" d="M15,24a4,4,0,0,0,4,4H32V18H15Z" fill="#e2e7f6"/>
      <path id="Trazado_1011387" data-name="Trazado 1011387" d="M6,26H4a1.974,1.974,0,0,0-.82.18A1.992,1.992,0,0,0,5,29H7a1.99,1.99,0,0,0,.82-.18A1.992,1.992,0,0,0,6,26Z" fill="#f9d266"/>
      <path id="Trazado_1011388" data-name="Trazado 1011388" d="M6,35H4a1.974,1.974,0,0,0-.82.18A1.992,1.992,0,0,0,5,38H7a1.99,1.99,0,0,0,.82-.18A1.992,1.992,0,0,0,6,35Z" fill="#f9d266"/>
      <path id="Trazado_1011389" data-name="Trazado 1011389" d="M6,44H4a1.974,1.974,0,0,0-.82.18A1.992,1.992,0,0,0,5,47H7a1.99,1.99,0,0,0,.82-.18A1.992,1.992,0,0,0,6,44Z" fill="#f9d266"/>
      <path id="Trazado_1011390" data-name="Trazado 1011390" d="M6,53H4a1.974,1.974,0,0,0-.82.18A1.992,1.992,0,0,0,5,56H7a1.99,1.99,0,0,0,.82-.18A1.992,1.992,0,0,0,6,53Z" fill="#f9d266"/>
      <path id="Trazado_1011391" data-name="Trazado 1011391" d="M60,1H24a3,3,0,0,0-3,3v7H7a3,3,0,0,0-3,3v2a3,3,0,0,0,0,6v3a3,3,0,0,0,0,6v3a3,3,0,0,0,0,6v3a3,3,0,0,0,0,6v3a3,3,0,0,0,0,6v2a3,3,0,0,0,3,3H43a3,3,0,0,0,3-3V59H60a3,3,0,0,0,3-3V4A3,3,0,0,0,60,1ZM3,19a1,1,0,0,1,1-1H6a1,1,0,0,1,0,2H4A1,1,0,0,1,3,19Zm0,9a1,1,0,0,1,1-1H6a1,1,0,0,1,0,2H4A1,1,0,0,1,3,28Zm0,9a1,1,0,0,1,1-1H6a1,1,0,0,1,0,2H4A1,1,0,0,1,3,37Zm0,9a1,1,0,0,1,1-1H6a1,1,0,0,1,0,2H4A1,1,0,0,1,3,46Zm0,9a1,1,0,0,1,1-1H6a1,1,0,0,1,0,2H4A1,1,0,0,1,3,55Zm3,5V58a3,3,0,0,0,0-6V49a3,3,0,0,0,0-6V40a3,3,0,0,0,0-6V31a3,3,0,1,0,0-6V22a3,3,0,0,0,0-6V14a1,1,0,0,1,1-1H36V61H7A1,1,0,0,1,6,60ZM45.816,13A3,3,0,0,0,43,11H29V7H55v6ZM40,13V61H38V13Zm4,47a1,1,0,0,1-1,1H42V13h1a1,1,0,0,1,1,1Zm17-4a1,1,0,0,1-1,1H46V55h7V53H46V51H57V49H46V47h7V45H46V43H57V41H46V39h7V37H46V35H57V33H46V31h7V29H46V27H57V25H46V23h7V21H46V19H57V17H46V15H56a1,1,0,0,0,1-1V6a1,1,0,0,0-1-1H28a1,1,0,0,0-1,1v5H23V4a1,1,0,0,1,1-1H60a1,1,0,0,1,1,1Z"/>
      <path id="Trazado_1011392" data-name="Trazado 1011392" d="M32,17H13a1,1,0,0,0-1,1V30a1,1,0,0,0,1,1H32a1,1,0,0,0,1-1V18A1,1,0,0,0,32,17ZM31,29H14V19H31Z"/>
      <path id="Trazado_1011393" data-name="Trazado 1011393" d="M16,21H29v2H16Z"/>
      <path id="Trazado_1011394" data-name="Trazado 1011394" d="M16,25h9v2H16Z"/>
      <path id="Trazado_1011395" data-name="Trazado 1011395" d="M27,25h2v2H27Z"/>
      <path id="Trazado_1011396" data-name="Trazado 1011396" d="M12,39H33v2H12Z"/>
      <path id="Trazado_1011397" data-name="Trazado 1011397" d="M12,43H29v2H12Z"/>
      <path id="Trazado_1011398" data-name="Trazado 1011398" d="M12,47H33v2H12Z"/>
      <path id="Trazado_1011399" data-name="Trazado 1011399" d="M12,51H29v2H12Z"/>
      <path id="Trazado_1011400" data-name="Trazado 1011400" d="M31,43h2v2H31Z"/>
      <path id="Trazado_1011401" data-name="Trazado 1011401" d="M31,51h2v2H31Z"/>
      <path id="Trazado_1011402" data-name="Trazado 1011402" d="M55,21h2v2H55Z"/>
      <path id="Trazado_1011403" data-name="Trazado 1011403" d="M55,29h2v2H55Z"/>
      <path id="Trazado_1011404" data-name="Trazado 1011404" d="M55,37h2v2H55Z"/>
      <path id="Trazado_1011405" data-name="Trazado 1011405" d="M55,45h2v2H55Z"/>
      <path id="Trazado_1011406" data-name="Trazado 1011406" d="M55,53h2v2H55Z"/>
    </g>
  </g>
</svg>
