<svg xmlns="http://www.w3.org/2000/svg" width="150" height="150" viewBox="0 0 150 150">
  <g id="Grupo_1183489" data-name="Grupo 1183489" transform="translate(-383.605 -8400.428)">
    <circle id="Elipse_13609" data-name="Elipse 13609" cx="75" cy="75" r="75" transform="translate(383.605 8400.428)" fill="#cfa9e6"/>
    <g id="Grupo_1184444" data-name="Grupo 1184444" transform="translate(419.605 8418.449)">
      <g id="Grupo_1184443" data-name="Grupo 1184443" transform="translate(0 20.979)">
        <path id="Trazado_1011411" data-name="Trazado 1011411" d="M387.128,96.179l3.5,3.064a1.149,1.149,0,0,0,1.515-1.728l-3.105-2.721V88.607a1.149,1.149,0,1,0-2.3,0v6.708A1.149,1.149,0,0,0,387.128,96.179Z" transform="translate(-327.486 -77.273)" fill="#53435c"/>
        <path id="Trazado_1011412" data-name="Trazado 1011412" d="M221.6,155.936a1.149,1.149,0,0,0,1.149-1.149v-1.532a1.149,1.149,0,0,0-2.3,0v1.532A1.149,1.149,0,0,0,221.6,155.936Z" transform="translate(-186.676 -132.017)" fill="#53435c"/>
        <path id="Trazado_1011413" data-name="Trazado 1011413" d="M273.982,155.936a1.149,1.149,0,0,0,1.149-1.149v-1.532a1.149,1.149,0,1,0-2.3,0v1.532A1.149,1.149,0,0,0,273.982,155.936Z" transform="translate(-231.034 -132.017)" fill="#53435c"/>
        <path id="Trazado_1011414" data-name="Trazado 1011414" d="M228.786,193.028a1.149,1.149,0,0,0-1.149,1.149,3.049,3.049,0,0,1-6.1,0,1.149,1.149,0,1,0-2.3,0,5.347,5.347,0,0,0,10.694,0A1.149,1.149,0,0,0,228.786,193.028Z" transform="translate(-185.652 -166.669)" fill="#53435c"/>
        <path id="Trazado_1011415" data-name="Trazado 1011415" d="M246.642,330.381v.306a1.149,1.149,0,1,0,2.3,0v-.306a1.149,1.149,0,1,0-2.3,0Z" transform="translate(-208.855 -282.006)" fill="#53435c"/>
        <path id="Trazado_1011416" data-name="Trazado 1011416" d="M62.837,297.062a6.157,6.157,0,0,0-1.466.178,1.149,1.149,0,1,0,.548,2.232,3.831,3.831,0,1,1-2.842,2.989,1.149,1.149,0,1,0-2.256-.435,6.128,6.128,0,1,0,6.016-4.963Z" transform="translate(-48.021 -254.765)" fill="#53435c"/>
        <path id="Trazado_1011417" data-name="Trazado 1011417" d="M60.4,20.979a17.868,17.868,0,0,0-10.111,3.1,13.412,13.412,0,0,0-8.59-3.1H36.173A13.488,13.488,0,0,0,22.7,34.452v6.534a5.344,5.344,0,0,0,3.354,9.508h.916v.642a7.666,7.666,0,0,0,4.011,6.733L29.749,59.4H25.765L24.515,58.15A2.414,2.414,0,0,0,21.7,57.7L20.4,58.37a.112.112,0,0,1-.094.008,12.263,12.263,0,0,0-1.563-.648.133.133,0,0,1-.074-.086l-.45-1.384a2.414,2.414,0,0,0-2.3-1.672h-2.2a2.413,2.413,0,0,0-2.3,1.672l-.45,1.384a.133.133,0,0,1-.074.086,12.3,12.3,0,0,0-1.563.649.112.112,0,0,1-.094-.008L7.927,57.7a2.415,2.415,0,0,0-2.809.445L3.561,59.706a2.414,2.414,0,0,0-.445,2.81l.666,1.307a.112.112,0,0,1,.008.094,12.307,12.307,0,0,0-.649,1.563.132.132,0,0,1-.086.074L1.672,66A2.415,2.415,0,0,0,0,68.3v2.2a2.414,2.414,0,0,0,1.672,2.3l1.384.45a.133.133,0,0,1,.086.074,12.284,12.284,0,0,0,.649,1.563.113.113,0,0,1-.008.094l-.666,1.307a2.414,2.414,0,0,0,.445,2.81l1.556,1.556a2.413,2.413,0,0,0,2.81.445l1.307-.666a.112.112,0,0,1,.094-.008,12.271,12.271,0,0,0,1.563.649.132.132,0,0,1,.074.086l.45,1.384a2.413,2.413,0,0,0,2.13,1.665v3.8a4.985,4.985,0,0,0,4.979,4.979H46.716a1.149,1.149,0,1,0,0-2.3H18.523a2.684,2.684,0,0,1-2.681-2.681V84.221h.074a2.414,2.414,0,0,0,2.3-1.672l.45-1.383a.132.132,0,0,1,.074-.086A12.312,12.312,0,0,0,20.3,80.43a.111.111,0,0,1,.094.008L21.7,81.1a2.413,2.413,0,0,0,2.81-.445L26.071,79.1a2.414,2.414,0,0,0,.445-2.81l-.666-1.306a.113.113,0,0,1-.008-.094,12.314,12.314,0,0,0,.649-1.563.132.132,0,0,1,.086-.074l1.384-.45a2.414,2.414,0,0,0,1.672-2.3V68.3A2.414,2.414,0,0,0,27.96,66l-1.384-.45a.132.132,0,0,1-.086-.074,12.285,12.285,0,0,0-.649-1.563.112.112,0,0,1,.008-.094l.666-1.307a2.42,2.42,0,0,0,.247-.817h2.767l7.635,18.623a1.915,1.915,0,0,0,3.544,0L48.342,61.7h7.176a6.519,6.519,0,0,1,6.511,6.511v19.8a2.684,2.684,0,0,1-2.681,2.681h-7.27a1.149,1.149,0,1,0,0,2.3h7.27a4.985,4.985,0,0,0,4.979-4.979V68.21A8.819,8.819,0,0,0,55.518,59.4h-7.4l-1.231-1.531A7.706,7.706,0,0,0,50.345,54,18.084,18.084,0,0,0,60.4,57.063a17.886,17.886,0,0,0,10.838-3.618,1.149,1.149,0,1,0-1.382-1.836A15.605,15.605,0,0,1,60.4,54.765a15.774,15.774,0,0,1-9.51-3.2c.008-.143.013-.286.013-.431v-.642h.916a5.317,5.317,0,0,0,2.324-.532,12.607,12.607,0,1,0-.436-21.618,13.516,13.516,0,0,0-1.748-2.615A15.592,15.592,0,0,1,60.4,23.278,15.744,15.744,0,0,1,73.326,48.009a1.149,1.149,0,1,0,1.885,1.314A18.042,18.042,0,0,0,60.4,20.979ZM25.866,67.739l1.384.45a.121.121,0,0,1,.084.116v2.2a.122.122,0,0,1-.084.116l-1.383.45A2.434,2.434,0,0,0,24.312,72.6a9.984,9.984,0,0,1-.527,1.27A2.413,2.413,0,0,0,23.8,76.03l.666,1.306a.121.121,0,0,1-.022.141L22.89,79.034a.121.121,0,0,1-.141.022l-1.307-.666a2.411,2.411,0,0,0-2.163-.017,9.976,9.976,0,0,1-1.269.527,2.434,2.434,0,0,0-1.528,1.554l-.45,1.384a.122.122,0,0,1-.116.084h-2.2a.122.122,0,0,1-.116-.084l-.45-1.384A2.435,2.435,0,0,0,11.623,78.9a9.961,9.961,0,0,1-1.27-.527,2.377,2.377,0,0,0-1.06-.247,2.429,2.429,0,0,0-1.1.265l-1.307.666a.121.121,0,0,1-.141-.022L5.186,77.478a.121.121,0,0,1-.022-.141L5.83,76.03a2.412,2.412,0,0,0,.017-2.163A9.977,9.977,0,0,1,5.32,72.6,2.434,2.434,0,0,0,3.766,71.07l-1.383-.45A.122.122,0,0,1,2.3,70.5V68.3a.121.121,0,0,1,.084-.116l1.384-.45A2.433,2.433,0,0,0,5.32,66.211a10.006,10.006,0,0,1,.527-1.27,2.412,2.412,0,0,0-.017-2.162l-.666-1.306a.122.122,0,0,1,.022-.142l1.556-1.556a.122.122,0,0,1,.141-.022l1.307.666a2.411,2.411,0,0,0,2.163.017,10,10,0,0,1,1.27-.527,2.435,2.435,0,0,0,1.528-1.554l.45-1.384a.121.121,0,0,1,.116-.084h2.2a.122.122,0,0,1,.116.084l.45,1.384a2.434,2.434,0,0,0,1.528,1.554,9.969,9.969,0,0,1,1.269.527,2.412,2.412,0,0,0,2.163-.017l1.307-.666a.121.121,0,0,1,.141.022l1.556,1.556a.121.121,0,0,1,.022.141L23.8,62.779a2.412,2.412,0,0,0-.017,2.162,9.984,9.984,0,0,1,.527,1.27,2.434,2.434,0,0,0,1.555,1.528ZM26.97,48.2h-.916a3.049,3.049,0,0,1,0-6.1h.916Zm4.65,12.545,1.662-2.067a7.814,7.814,0,0,0,.8.1l3.329,4.833-3.4,2.974ZM36.886,58.8h4.1l-2.05,2.976Zm2.05,19.79-4-9.758,4-3.5,4,3.5ZM43.858,66.58l-3.4-2.974,3.329-4.833a7.812,7.812,0,0,0,.8-.1l1.662,2.067ZM48.6,51.136A5.367,5.367,0,0,1,43.243,56.5H34.629a5.367,5.367,0,0,1-5.361-5.361V38.008a1.15,1.15,0,0,1,1.149-1.149H47.454A1.15,1.15,0,0,1,48.6,38.008ZM60.4,28.713a10.308,10.308,0,1,1-4.325,19.666,5.336,5.336,0,0,0-.9-7.392V34.452a13.429,13.429,0,0,0-.588-3.94,10.178,10.178,0,0,1,5.816-1.8ZM54.867,45.147A3.052,3.052,0,0,1,51.818,48.2H50.9V42.1h.916A3.053,3.053,0,0,1,54.867,45.147ZM52.873,34.452V39.9a5.35,5.35,0,0,0-1.056-.105H50.9V38.008a3.451,3.451,0,0,0-3.447-3.447H30.417a3.451,3.451,0,0,0-3.447,3.447V39.8h-.916A5.352,5.352,0,0,0,25,39.9V34.452A11.188,11.188,0,0,1,36.173,23.277H41.7A11.187,11.187,0,0,1,52.873,34.452Z" transform="translate(0 -20.979)" fill="#53435c"/>
      </g>
    </g>
  </g>
</svg>
