<svg xmlns="http://www.w3.org/2000/svg" width="84" height="84" viewBox="0 0 84 84">
  <g id="Grupo_1183479" data-name="Grupo 1183479" transform="translate(-72.746 -7992)">
    <g id="Elipse_13628" data-name="Elipse 13628" transform="translate(72.746 7992)" fill="#fdf3e6" stroke="#ff984a" stroke-width="6">
      <circle cx="42" cy="42" r="42" stroke="none"/>
      <circle cx="42" cy="42" r="39" fill="none"/>
    </g>
    <g id="Grupo_1183339" data-name="Grupo 1183339" transform="translate(90.78 8010.034)">
      <g id="Grupo_1183338" data-name="Grupo 1183338" transform="translate(0.758 0.758)">
        <path id="Trazado_1008936" data-name="Trazado 1008936" d="M178.263,17.065V48.332H149.222V15.752a4.745,4.745,0,0,0-4.731-4.731h27.728A6.062,6.062,0,0,1,178.263,17.065Z" transform="translate(-131.847 -11.021)" fill="#dee2e6" fill-rule="evenodd"/>
        <path id="Trazado_1008937" data-name="Trazado 1008937" d="M177.126,48.332h-27.9V15.752a4.745,4.745,0,0,0-4.731-4.731h26.591a6.062,6.062,0,0,1,6.044,6.044Z" transform="translate(-131.847 -11.021)" fill="#eceff1" fill-rule="evenodd"/>
        <path id="Trazado_1008938" data-name="Trazado 1008938" d="M99.282,11.021a4.745,4.745,0,0,0-4.731,4.731v1.415h9.462V15.752A4.745,4.745,0,0,0,99.282,11.021Z" transform="translate(-86.638 -11.021)" fill="#c3cad2" fill-rule="evenodd"/>
        <path id="Trazado_1008939" data-name="Trazado 1008939" d="M98.856,11.227a4.747,4.747,0,0,0-4.3,4.712v1.415h8.609V15.939A4.747,4.747,0,0,0,98.856,11.227Z" transform="translate(-86.638 -11.207)" fill="#d1d6dc" fill-rule="evenodd"/>
        <path id="Trazado_1008940" data-name="Trazado 1008940" d="M152.377,318.108l4.816-1.9v-3.086c-.036-3.011-.275-5.3-1.625-6.325l-3.4,1.94a6.406,6.406,0,0,1-4.751.375,5.44,5.44,0,0,0-4.465.632q-.191.107-.379.224l-4.582,2.857a1.064,1.064,0,0,0-.028,1.8c2.16,1.789,3.883-.929,6.447-.944a5.85,5.85,0,0,1,3.018,1.083l4.285,2.474a1.6,1.6,0,0,1,.662.866Z" transform="translate(-125.501 -278.781)" fill="#d9c5bf" fill-rule="evenodd"/>
        <path id="Trazado_1008941" data-name="Trazado 1008941" d="M54.181,314.629a1.064,1.064,0,0,1,.028-1.8l4.582-2.857q.188-.117.379-.224a5.44,5.44,0,0,0-4.465-.632,6.407,6.407,0,0,1-4.751-.375l-3.4-1.94c-1.35,1.02-1.59,3.314-1.625,6.325v3.086a43.935,43.935,0,0,1,6.55,4.283,46.67,46.67,0,0,0,6.492,3.728l1.465.694c1.838,1.061,2.948-1.2,1.507-2.032l1.141.659a1.339,1.339,0,0,0,1.345-2.316h0l.8.463a1.426,1.426,0,0,0,1.433-2.466l.839.484a1.424,1.424,0,0,0,2.088-1.6,1.6,1.6,0,0,0-.662-.866l-4.285-2.474a5.85,5.85,0,0,0-3.018-1.083c-2.565.015-4.288,2.733-6.447.944Z" transform="translate(-41.718 -278.782)" fill="#f0e3df" fill-rule="evenodd"/>
        <path id="Trazado_1008942" data-name="Trazado 1008942" d="M238.625,411.018l-4.646-2.682a.713.713,0,1,0-.713,1.235l3.412,1.97a1.43,1.43,0,0,0,1.947-.522Z" transform="translate(-211.89 -370.61)" fill="#e6d6d1" fill-rule="evenodd"/>
        <path id="Trazado_1008943" data-name="Trazado 1008943" d="M211.35,430.032a.713.713,0,1,0-.713,1.235l3.285,1.9a1.43,1.43,0,0,0,1.946-.523Z" transform="translate(-191.404 -390.251)" fill="#e6d6d1" fill-rule="evenodd"/>
        <path id="Trazado_1008944" data-name="Trazado 1008944" d="M194.651,454.177l-4.308-2.487a.647.647,0,0,0-.648,1.121l3.149,1.818a1.343,1.343,0,0,0,1.806-.452Z" transform="translate(-172.476 -409.866)" fill="#e6d6d1" fill-rule="evenodd"/>
        <path id="Trazado_1008945" data-name="Trazado 1008945" d="M303.775,297.928l3.488,8.513a1.1,1.1,0,0,0,1.438.6l1.633-.669a1.1,1.1,0,0,0,.6-1.438l-3.488-8.513a1.1,1.1,0,0,0-1.438-.6l-1.633.669a1.1,1.1,0,0,0-.6,1.438Z" transform="translate(-275.966 -268.766)" fill="#75808f" fill-rule="evenodd"/>
        <path id="Trazado_1008946" data-name="Trazado 1008946" d="M18.263,297.928l-3.488,8.513a1.1,1.1,0,0,1-1.438.6l-1.633-.669a1.1,1.1,0,0,1-.6-1.438l3.488-8.513a1.1,1.1,0,0,1,1.438-.6l1.633.669a1.1,1.1,0,0,1,.6,1.438Z" transform="translate(-11.02 -268.766)" fill="#6cbfff" fill-rule="evenodd"/>
        <path id="Trazado_1008947" data-name="Trazado 1008947" d="M12.521,306.708l-.817-.335a1.1,1.1,0,0,1-.6-1.438l3.488-8.513a1.1,1.1,0,0,1,1.438-.6l.816.334a1.1,1.1,0,0,1,.6,1.438l-3.488,8.513a1.1,1.1,0,0,1-1.438.6Z" transform="translate(-11.02 -268.765)" fill="#85caff" fill-rule="evenodd"/>
        <path id="Trazado_1008948" data-name="Trazado 1008948" d="M308.7,310.24l.817-.335a1.1,1.1,0,0,0,.6-1.438l-3.488-8.513a1.1,1.1,0,0,0-1.438-.6l-.816.334a1.1,1.1,0,0,0-.6,1.439l3.488,8.513a1.1,1.1,0,0,0,1.438.6Z" transform="translate(-275.967 -271.962)" fill="#838e9c" fill-rule="evenodd"/>
      </g>
      <circle id="Elipse_16100" data-name="Elipse 16100" cx="5.945" cy="5.945" r="5.945" transform="matrix(0.987, -0.161, 0.161, 0.987, 25.832, 4.753)" fill="#fdc72e"/>
      <path id="Trazado_1008949" data-name="Trazado 1008949" d="M290.711,54.29a5.945,5.945,0,1,1,5.759-5.942A5.945,5.945,0,0,1,290.711,54.29Z" transform="translate(-258.243 -38.675)" fill="#ffe259" fill-rule="evenodd"/>
      <circle id="Elipse_16101" data-name="Elipse 16101" cx="4.769" cy="4.769" r="4.769" transform="matrix(0.983, -0.183, 0.183, 0.983, 27.088, 5.864)" fill="#f99500"/>
      <path id="Trazado_1008950" data-name="Trazado 1008950" d="M307.542,54.864a4.769,4.769,0,1,1-4.5,4.762A4.769,4.769,0,0,1,307.542,54.864Z" transform="translate(-274.619 -49.953)" fill="#f9ac00" fill-rule="evenodd"/>
      <path id="Trazado_1008951" data-name="Trazado 1008951" d="M38.042,40.5a.334.334,0,0,1-.187.185l-1.631.67a.348.348,0,0,1-.452-.189l-3.485-8.513a.342.342,0,0,1,.187-.45l1.631-.669a.346.346,0,0,1,.265,0,.339.339,0,0,1,.187.187l3.485,8.513a.321.321,0,0,1,0,.264ZM31,42.153l3.047-1.2-2.791-6.812-.434.247a7.129,7.129,0,0,1-5.367.437,4.849,4.849,0,0,0-4.207.781l-4.586,2.858c-.146.093-.151.164-.155.191a.535.535,0,0,0,.21.383c.886.733,1.562.454,2.891-.2a7.025,7.025,0,0,1,3.069-.924h.027a6.294,6.294,0,0,1,3.27,1.124l4.394,2.537a.475.475,0,0,1,.064.041,2.557,2.557,0,0,1,.566.532Zm-1.142,1.654a.658.658,0,0,1-.407.311.666.666,0,0,1-.507-.065L25.2,41.888a.758.758,0,1,0-.758,1.313l2.9,1.674h0a.666.666,0,0,1,.306.407.635.635,0,0,1-.064.507.672.672,0,0,1-.914.245l-3.791-2.191a.758.758,0,1,0-.758,1.313l2.983,1.723a.593.593,0,0,1,.215.8.581.581,0,0,1-.795.213l-1.146-.66h0l-2.635-1.522a.758.758,0,1,0-.758,1.312l2.64,1.523a.47.47,0,0,1,.215.667c-.169.287-.53.307-.968.054a.218.218,0,0,0-.055-.029l-1.466-.694a46.457,46.457,0,0,1-6.385-3.666c-.671-.473-1.233-.886-1.731-1.25a32.489,32.489,0,0,0-3.759-2.475l2.841-6.938.315.179A7.125,7.125,0,0,0,17,34.827a4.117,4.117,0,0,1,2.6.021L15.862,37.18A1.736,1.736,0,0,0,15,38.555a2,2,0,0,0,.754,1.651c1.681,1.39,3.257.618,4.526,0a5.751,5.751,0,0,1,2.412-.77,4.955,4.955,0,0,1,2.53.921l4.362,2.517a.826.826,0,0,1,.352.459.685.685,0,0,1-.073.475ZM6.832,41.164l3.485-8.513a.342.342,0,0,0-.187-.45l-1.635-.669a.32.32,0,0,0-.128-.026.343.343,0,0,0-.132.027.339.339,0,0,0-.187.187l-3.49,8.513a.35.35,0,0,0,.192.449l1.631.67a.348.348,0,0,0,.452-.189ZM35.96,31.146a1.863,1.863,0,0,0-2.425-1.016L31.9,30.8a1.861,1.861,0,0,0-1.146,1.888l-.676.386a5.672,5.672,0,0,1-4.143.314,6.012,6.012,0,0,0-4.7.5,6.012,6.012,0,0,0-4.7-.5,5.674,5.674,0,0,1-4.143-.314l-.539-.308A1.865,1.865,0,0,0,10.706,30.8L9.07,30.13a1.862,1.862,0,0,0-2.425,1.016l-3.49,8.513a1.867,1.867,0,0,0,1.018,2.427l1.631.669a1.852,1.852,0,0,0,1.425-.006,1.817,1.817,0,0,0,.48-.291,30.539,30.539,0,0,1,3.631,2.389c.5.369,1.073.786,1.758,1.267a47.938,47.938,0,0,0,6.6,3.8l1.443.682a2.575,2.575,0,0,0,1.274.361,1.966,1.966,0,0,0,1.941-1.52,2.1,2.1,0,0,0,.448.049A2.093,2.093,0,0,0,26.9,47.636c.036,0,.068,0,.105,0a2.146,2.146,0,0,0,.571-.076,2.161,2.161,0,0,0,1.608-1.91l.1,0A2.182,2.182,0,0,0,31.461,43.6l3.284-1.293a1.833,1.833,0,0,0,.63.437,1.853,1.853,0,0,0,1.425.006l1.631-.669a1.867,1.867,0,0,0,1.018-2.427l-3.49-8.512Zm10.6.006a.76.76,0,0,0-.758-.758H38.673a.758.758,0,1,0,0,1.516H45.8A.761.761,0,0,0,46.556,31.152ZM25.546,20.828H45.8a.758.758,0,1,1,0,1.516H25.546a.758.758,0,1,1,0-1.516ZM40.71,36.692a.758.758,0,1,1,0-1.515H45.8a.758.758,0,1,1,0,1.515ZM24.787,26.369a.76.76,0,0,1,.758-.758H45.8a.758.758,0,1,1,0,1.516H25.545a.76.76,0,0,1-.758-.758Zm10.884-9.242a.757.757,0,0,1-.758-.758v-.41a2.55,2.55,0,0,1-1.727-1.15.758.758,0,0,1,1.329-.728,1.864,1.864,0,0,0,1.978.311.4.4,0,0,0,.237-.309c.009-.087.023-.195-.256-.357a3.673,3.673,0,0,0-1.009-.339c-.16-.038-.329-.078-.5-.125A2.543,2.543,0,0,1,33.4,12.237a1.756,1.756,0,0,1,.251-2.167,2.431,2.431,0,0,1,1.261-.66V9.02a.758.758,0,0,1,1.517,0v.4a2.359,2.359,0,0,1,1.617,1.1.758.758,0,0,1-1.334.719,1.066,1.066,0,0,0-.772-.369,1.548,1.548,0,0,0-1.2.25c-.151.16-.082.276-.055.314.091.15.3.261.685.369.146.04.288.074.439.11a4.905,4.905,0,0,1,1.43.507,1.812,1.812,0,0,1,.991,1.848,1.919,1.919,0,0,1-1.064,1.482,2.844,2.844,0,0,1-.74.242v.378a.757.757,0,0,1-.758.758Zm-5.006-4.432a5.008,5.008,0,1,0,5.006-5.008A5.013,5.013,0,0,0,30.666,12.695Zm11.528,0a6.522,6.522,0,1,0-6.522,6.523,6.529,6.529,0,0,0,6.522-6.523ZM20.393,8.51v.657H12.446V8.51a3.974,3.974,0,0,1,7.947,0ZM44.149,3.021H16.42a5.5,5.5,0,0,0-5.49,5.489V9.925a.76.76,0,0,0,.758.758h8.706V31.515a.758.758,0,1,0,1.516,0v-23a5.488,5.488,0,0,0-1.7-3.973H44.149a5.291,5.291,0,0,1,5.285,5.286V40.332H41.112a.758.758,0,1,0,0,1.516h9.08a.757.757,0,0,0,.758-.758V9.823a6.81,6.81,0,0,0-6.8-6.8Z" transform="translate(-3.018 -3.021)" fill-rule="evenodd"/>
    </g>
  </g>
</svg>
