<svg xmlns="http://www.w3.org/2000/svg" width="128" height="128" viewBox="0 0 128 128">
  <g id="Grupo_1182455" data-name="Grupo 1182455" transform="translate(-72.746 -7992)">
    <g id="Elipse_13628" data-name="Elipse 13628" transform="translate(72.746 7992)" fill="#fdf3e6" stroke="#ff984a" stroke-width="6">
      <circle cx="64" cy="64" r="64" stroke="none"/>
      <circle cx="64" cy="64" r="61" fill="none"/>
    </g>
    <g id="Grupo_1183340" data-name="Grupo 1183340" transform="translate(100.394 8019.647)">
      <path id="Trazado_1008952" data-name="Trazado 1008952" d="M279.04,262A17.04,17.04,0,1,1,262,279.04,17.059,17.059,0,0,1,279.04,262Zm0,0" transform="translate(-224.796 -224.796)" fill="#76e2f8"/>
      <path id="Trazado_1008953" data-name="Trazado 1008953" d="M27.04,10A17.04,17.04,0,1,1,10,27.04,17.059,17.059,0,0,1,27.04,10Zm0,0" transform="translate(-8.58 -8.58)" fill="#ffda2d"/>
      <path id="Trazado_1008954" data-name="Trazado 1008954" d="M324.72,313.36A11.36,11.36,0,1,1,313.36,302,11.36,11.36,0,0,1,324.72,313.36Zm0,0" transform="translate(-259.116 -259.116)" fill="#e6ffff"/>
      <path id="Trazado_1008955" data-name="Trazado 1008955" d="M57.264,336.2l-8.52,7.1v-4.26H38.52A8.519,8.519,0,0,1,30,330.52V322a11.361,11.361,0,0,0,11.36,11.36h7.384V329.1Zm0,0" transform="translate(-25.74 -276.275)" fill="#766e6e"/>
      <path id="Trazado_1008956" data-name="Trazado 1008956" d="M322.412,62.78V71.3a11.361,11.361,0,0,0-11.36-11.36H304.52V64.2L296,57.1l8.52-7.1v4.26h9.372A8.519,8.519,0,0,1,322.412,62.78Zm0,0" transform="translate(-253.968 -42.9)" fill="#766e6e"/>
      <path id="Trazado_1008957" data-name="Trazado 1008957" d="M72.72,61.36A11.36,11.36,0,1,1,61.36,50,11.36,11.36,0,0,1,72.72,61.36Zm0,0" transform="translate(-42.9 -42.9)" fill="#ff9100"/>
      <path id="Trazado_1008958" data-name="Trazado 1008958" d="M270.46,252a18.46,18.46,0,1,0,18.46,18.46A18.481,18.481,0,0,0,270.46,252Zm0,34.08a15.62,15.62,0,1,1,15.62-15.62A15.638,15.638,0,0,1,270.46,286.08Zm0,0" transform="translate(-216.216 -216.216)"/>
      <path id="Trazado_1008959" data-name="Trazado 1008959" d="M304.78,292a12.78,12.78,0,1,0,12.78,12.78A12.795,12.795,0,0,0,304.78,292Zm0,22.72a9.94,9.94,0,1,1,9.94-9.94A9.951,9.951,0,0,1,304.78,314.72Zm0,0" transform="translate(-250.536 -250.536)"/>
      <path id="Trazado_1008960" data-name="Trazado 1008960" d="M379.1,337.68h-4.26v-4.26a1.42,1.42,0,0,0-2.84,0v5.68a1.42,1.42,0,0,0,1.42,1.42h5.68a1.42,1.42,0,0,0,0-2.84Zm0,0" transform="translate(-319.175 -284.855)"/>
      <path id="Trazado_1008961" data-name="Trazado 1008961" d="M65.56,52.78A12.78,12.78,0,1,0,52.78,65.56,12.795,12.795,0,0,0,65.56,52.78Zm-22.72,0a9.954,9.954,0,0,1,8.52-9.837v2.981a4.267,4.267,0,0,0,1.1,8.276c.014,0,1.741-.145,1.741,1.42a1.42,1.42,0,0,1-2.649.711A1.42,1.42,0,0,0,49.09,57.75a4.265,4.265,0,0,0,2.27,1.884v2.983a9.954,9.954,0,0,1-8.52-9.837ZM54.2,62.617V59.636a4.27,4.27,0,0,0-1.049-8.276c-.014,0-1.791.173-1.791-1.42a1.42,1.42,0,0,1,2.649-.711,1.42,1.42,0,0,0,2.461-1.419,4.265,4.265,0,0,0-2.27-1.884V42.943a9.939,9.939,0,0,1,0,19.674Zm0,0" transform="translate(-34.32 -34.32)"/>
      <path id="Trazado_1008962" data-name="Trazado 1008962" d="M39.562,336.006a1.419,1.419,0,0,0,1.512-.195l8.52-7.1a1.421,1.421,0,0,0,0-2.182l-8.52-7.1a1.42,1.42,0,0,0-2.329,1.091v2.84H32.78a9.951,9.951,0,0,1-9.94-9.94,1.42,1.42,0,0,0-2.84,0v8.52a9.951,9.951,0,0,0,9.94,9.94h8.8v2.84A1.42,1.42,0,0,0,39.562,336.006ZM29.94,329.04a7.108,7.108,0,0,1-7.1-7.1v-.5a12.761,12.761,0,0,0,9.94,4.756h7.384a1.42,1.42,0,0,0,1.42-1.42v-1.228l4.882,4.068-4.882,4.068v-1.228a1.42,1.42,0,0,0-1.42-1.42Zm0,0" transform="translate(-17.16 -267.696)"/>
      <path id="Trazado_1008963" data-name="Trazado 1008963" d="M296.542,40.134a1.42,1.42,0,0,0-1.512.195l-8.52,7.1a1.421,1.421,0,0,0,0,2.182l8.52,7.1a1.42,1.42,0,0,0,2.329-1.091V52.78h5.112a9.951,9.951,0,0,1,9.94,9.94,1.42,1.42,0,0,0,2.84,0V54.2a9.951,9.951,0,0,0-9.94-9.94H297.36V41.42a1.419,1.419,0,0,0-.818-1.286Zm8.77,6.966a7.108,7.108,0,0,1,7.1,7.1v.5a12.761,12.761,0,0,0-9.94-4.756H295.94a1.42,1.42,0,0,0-1.42,1.42v1.228l-4.882-4.068,4.882-4.068V45.68a1.42,1.42,0,0,0,1.42,1.42Zm0,0" transform="translate(-245.387 -34.32)"/>
      <path id="Trazado_1008964" data-name="Trazado 1008964" d="M122.84,241.42a1.42,1.42,0,1,1-1.42-1.42A1.42,1.42,0,0,1,122.84,241.42Zm0,0" transform="translate(-102.96 -205.92)"/>
      <path id="Trazado_1008965" data-name="Trazado 1008965" d="M0,18.46A18.48,18.48,0,0,0,11.658,35.622a1.42,1.42,0,1,0,1.049-2.639,15.62,15.62,0,1,1,11.505,0,1.42,1.42,0,1,0,1.049,2.639A18.46,18.46,0,1,0,0,18.46Zm0,0"/>
    </g>
  </g>
</svg>
