<svg xmlns="http://www.w3.org/2000/svg" width="128" height="128" viewBox="0 0 128 128">
  <g id="Grupo_1184383" data-name="Grupo 1184383" transform="translate(-383.746 -8400)">
    <circle id="Elipse_13609" data-name="Elipse 13609" cx="64" cy="64" r="64" transform="translate(383.746 8400)" fill="#cfa9e6"/>
    <g id="Grupo_1184371" data-name="Grupo 1184371" transform="translate(412.836 8429.123)">
      <path id="Trazado_1011188" data-name="Trazado 1011188" d="M41.626,26.877a3.412,3.412,0,0,0,2.962-5.151L35.472,6.384a2.844,2.844,0,0,0-4.879,0L21.477,21.726a3.412,3.412,0,0,0,2.962,5.151ZM23.188,23.462a1.213,1.213,0,0,1,.171-.619L32.475,7.5a.656.656,0,0,1,1.116,0l9.116,15.341a1.213,1.213,0,0,1,.171.619,1.24,1.24,0,0,1-1.251,1.227H24.439a1.24,1.24,0,0,1-1.251-1.227Z" transform="translate(1.877 0.382)" fill="#53435c"/>
      <path id="Trazado_1011189" data-name="Trazado 1011189" d="M67.725,22.884H51.835a17.5,17.5,0,1,0-33.851,0H2.094A1.094,1.094,0,0,0,1,23.978V67.732a1.094,1.094,0,0,0,1.094,1.094H58.975a1.094,1.094,0,0,0,.773-.32L68.5,59.755a1.094,1.094,0,0,0,.321-.773v-35A1.094,1.094,0,0,0,67.725,22.884ZM34.91,3.195A15.314,15.314,0,1,1,19.6,18.509,15.314,15.314,0,0,1,34.91,3.195ZM3.188,25.072H18.7a17.485,17.485,0,0,0,32.426,0H66.632V57.888H58.975a1.094,1.094,0,0,0-1.094,1.094v7.657H3.188Zm61.9,35-5.016,5.016V60.075Z" fill="#53435c"/>
      <path id="Trazado_1011190" data-name="Trazado 1011190" d="M11.375,39.375a2.188,2.188,0,0,1,2.188,2.188h2.188a4.375,4.375,0,0,0-3.282-4.22V35H10.282v2.343a4.367,4.367,0,0,0,1.094,8.6,2.188,2.188,0,1,1-2.188,2.188H7a4.375,4.375,0,0,0,3.282,4.22v2.343h2.188V52.346a4.367,4.367,0,0,0-1.094-8.6,2.188,2.188,0,0,1,0-4.375Z" transform="translate(0.563 3.198)" fill="#53435c"/>
      <path id="Trazado_1011191" data-name="Trazado 1011191" d="M19,35H54v2.188H19Z" transform="translate(1.689 3.198)" fill="#53435c"/>
      <path id="Trazado_1011192" data-name="Trazado 1011192" d="M19,39H54v2.188H19Z" transform="translate(1.689 3.574)" fill="#53435c"/>
      <path id="Trazado_1011193" data-name="Trazado 1011193" d="M19,43H54v2.188H19Z" transform="translate(1.689 3.949)" fill="#53435c"/>
      <path id="Trazado_1011194" data-name="Trazado 1011194" d="M19,47H54v2.188H19Z" transform="translate(1.689 4.324)" fill="#53435c"/>
      <path id="Trazado_1011195" data-name="Trazado 1011195" d="M19,51H54v2.188H19Z" transform="translate(1.689 4.7)" fill="#53435c"/>
      <path id="Trazado_1011196" data-name="Trazado 1011196" d="M49,25h8.751v2.188H49Z" transform="translate(4.505 2.259)" fill="#53435c"/>
      <path id="Trazado_1011197" data-name="Trazado 1011197" d="M49,29h8.751v2.188H49Z" transform="translate(4.505 2.635)" fill="#53435c"/>
      <path id="Trazado_1011198" data-name="Trazado 1011198" d="M31,19h2.188v2.188H31Z" transform="translate(2.816 1.696)" fill="#53435c"/>
      <path id="Trazado_1011199" data-name="Trazado 1011199" d="M31,11h2.188v6.563H31Z" transform="translate(2.816 0.945)" fill="#53435c"/>
    </g>
  </g>
</svg>
