<svg id="Grupo_1182407" data-name="Grupo 1182407" xmlns="http://www.w3.org/2000/svg" width="50" height="50" viewBox="0 0 50 50">
  <path id="Trazado_997861" data-name="Trazado 997861" d="M25,0A25,25,0,1,1,0,25,25,25,0,0,1,25,0Z" fill="#ff984a"/>
  <g id="Grupo_1182406" data-name="Grupo 1182406" transform="translate(10 10)">
    <path id="Trazado_1005375" data-name="Trazado 1005375" d="M2,56.52v.52H31.135v-.52a.52.52,0,0,0-.52-.52H2.52A.52.52,0,0,0,2,56.52Z" transform="translate(-2 -27.906)" fill="#59351a"/>
    <path id="Trazado_1005376" data-name="Trazado 1005376" d="M49,22h2.081V34.486H49Z" transform="translate(-24.548 -11.595)" fill="#59351a"/>
    <path id="Trazado_1005377" data-name="Trazado 1005377" d="M6,48H9.122v1.041H6Z" transform="translate(-3.919 -24.068)" fill="#59351a"/>
    <path id="Trazado_1005378" data-name="Trazado 1005378" d="M31.135,7.952,16.925,2.07a.952.952,0,0,0-.719,0L2,7.953l0,1.33H31.133Z" transform="translate(-2 -2)" fill="#59351a"/>
    <path id="Trazado_1005379" data-name="Trazado 1005379" d="M7,22H9.081V34.486H7Z" transform="translate(-4.399 -11.595)" fill="#59351a"/>
    <path id="Trazado_1005380" data-name="Trazado 1005380" d="M48,48h3.122v1.041H48Z" transform="translate(-24.068 -24.068)" fill="#59351a"/>
    <path id="Trazado_1005381" data-name="Trazado 1005381" d="M6,18H9.122v1.041H6Z" transform="translate(-3.919 -9.676)" fill="#59351a"/>
    <path id="Trazado_1005382" data-name="Trazado 1005382" d="M48,18h3.122v1.041H48Z" transform="translate(-24.068 -9.676)" fill="#59351a"/>
    <path id="Trazado_1005383" data-name="Trazado 1005383" d="M31.054,52.52a.52.52,0,0,0-.52-.52H4.52a.52.52,0,0,0-.52.52v.52H31.054Z" transform="translate(-2.959 -25.987)" fill="#59351a"/>
    <path id="Trazado_1005384" data-name="Trazado 1005384" d="M24.723,34.561c.833-.277,5.723-2.192,5.723-8.9a5.494,5.494,0,0,0-.311-2.027,6.342,6.342,0,0,1-5.412-1.45,6.335,6.335,0,0,1-5.412,1.45A5.5,5.5,0,0,0,19,25.656C19,32.367,23.887,34.283,24.723,34.561ZM22.274,29a.52.52,0,0,1,.736,0l.617.617,2.762-3.682a.52.52,0,0,1,.832.624L24.1,30.722a.518.518,0,0,1-.379.207l-.037,0a.518.518,0,0,1-.368-.152l-1.041-1.041a.52.52,0,0,1,0-.736Z" transform="translate(-10.156 -11.681)" fill="#59351a"/>
  </g>
</svg>
