<svg xmlns="http://www.w3.org/2000/svg" xmlns:xlink="http://www.w3.org/1999/xlink" width="292" height="271" viewBox="0 0 292 271">
  <defs>
    <clipPath id="clip-path">
      <rect id="Rectángulo_458842" data-name="Rectángulo 458842" width="219.252" height="217.933" fill="none"/>
    </clipPath>
  </defs>
  <g id="Grupo_1182630" data-name="Grupo 1182630" transform="translate(-1121.711 -10987)">
    <rect id="Rectángulo_458056" data-name="Rectángulo 458056" width="292" height="271" rx="10" transform="translate(1121.711 10987)" fill="#ff984a"/>
    <g id="Grupo_1183527" data-name="Grupo 1183527" transform="translate(1158.085 11013.533)">
      <g id="Grupo_1183526" data-name="Grupo 1183526" clip-path="url(#clip-path)">
        <path id="Trazado_1009762" data-name="Trazado 1009762" d="M291.952,155.412l-14.569-25.059c2.116-1.031,3.288-2.164,3.288-3.357V114.077a.425.425,0,0,0,0-.073c0-4.742-18.576-8.587-41.488-8.587-3.025,0-5.973.068-8.814.195V279q31.619,1.171,65.9-10.213a13.767,13.767,0,0,0,9.446-13.043V206.487a101.529,101.529,0,0,0-13.769-51.075" transform="translate(-134.64 -61.611)" fill="#2e186b"/>
        <path id="Trazado_1009763" data-name="Trazado 1009763" d="M235.616,278.934q-2.944,0-5.858-.108a.427.427,0,0,1-.412-.427V105.01a.428.428,0,0,1,.408-.427c2.894-.129,5.866-.2,8.832-.2,20.6,0,41.916,3.372,41.916,9.015a.882.882,0,0,1,0,.1v12.891c0,1.262-1.048,2.449-3.118,3.534l14.341,24.667a102.065,102.065,0,0,1,13.827,51.291v49.258a14.188,14.188,0,0,1-9.738,13.448c-20.684,6.871-40.9,10.342-60.195,10.343m-5.414-.948c20.817.715,42.8-2.718,65.338-10.206a13.334,13.334,0,0,0,9.153-12.637V205.885a101.206,101.206,0,0,0-13.711-50.86l-14.569-25.059a.428.428,0,0,1,.182-.6c1.994-.971,3.048-2,3.048-2.972V113.475a.417.417,0,0,1,.006-.072c0-3.941-16.5-8.159-41.062-8.159-2.815,0-5.633.059-8.386.177Z" transform="translate(-134.04 -61.009)" fill="#2e186b"/>
        <path id="Trazado_1009764" data-name="Trazado 1009764" d="M202.933,235.1v49.26a13.765,13.765,0,0,1-9.447,13.041Q131.772,317.9,78.7,297.7a13.72,13.72,0,0,1-8.837-12.821V235.1a101.551,101.551,0,0,1,13.767-51.075l17.24-29.649h71.057l17.236,29.649A101.559,101.559,0,0,1,202.933,235.1" transform="translate(-40.83 -90.222)" fill="#fff"/>
        <path id="Trazado_1009765" data-name="Trazado 1009765" d="M136.1,307.7a152.915,152.915,0,0,1-57.4-10,13.719,13.719,0,0,1-8.837-12.821V235.093a101.549,101.549,0,0,1,13.767-51.075l17.24-29.648h5.158l-17.24,29.648A101.545,101.545,0,0,0,75.02,235.093v49.786A13.719,13.719,0,0,0,83.857,297.7a152.454,152.454,0,0,0,52.244,10" transform="translate(-40.83 -90.22)" fill="#9654ff"/>
        <path id="Trazado_1009766" data-name="Trazado 1009766" d="M132.9,307.553A153.864,153.864,0,0,1,77.945,297.5a14.22,14.22,0,0,1-9.112-13.221V234.5a102.082,102.082,0,0,1,13.825-51.291L99.9,153.557a.427.427,0,0,1,.369-.213h71.058a.427.427,0,0,1,.369.213l17.236,29.649A102.086,102.086,0,0,1,202.76,234.5v49.259a14.183,14.183,0,0,1-9.74,13.447c-20.521,6.817-40.6,10.3-59.687,10.352h-.43M100.513,154.2,83.4,183.635A101.231,101.231,0,0,0,69.688,234.5v49.784A13.36,13.36,0,0,0,78.25,296.7,152.509,152.509,0,0,0,132.9,306.65c19.266,0,39.258-3.419,59.848-10.26a13.328,13.328,0,0,0,9.155-12.635V234.5a101.235,101.235,0,0,0-13.713-50.86L171.079,154.2Z" transform="translate(-40.229 -89.621)" fill="#2e186b"/>
        <path id="Trazado_1009767" data-name="Trazado 1009767" d="M134.076,138.7h79.034V126.088H130.137v8.529h3.939Z" transform="translate(-76.058 -73.691)" fill="#fff"/>
        <path id="Trazado_1009768" data-name="Trazado 1009768" d="M213.114,133.61v9.864c0,4.741-18.572,8.587-41.486,8.587s-41.486-3.847-41.486-8.587V133.61c0,4.741,18.577,8.583,41.486,8.583s41.486-3.842,41.486-8.583" transform="translate(-76.061 -78.087)" fill="#9654ff"/>
        <path id="Trazado_1009769" data-name="Trazado 1009769" d="M171.022,147.492c-20.6,0-41.914-3.373-41.914-9.017v-12.99a.428.428,0,0,1,.428-.428h82.973a.428.428,0,0,1,.428.428v12.99c0,5.644-21.311,9.017-41.914,9.017m-41.059-21.579v12.562c0,3.942,16.5,8.162,41.059,8.162s41.059-4.22,41.059-8.162V125.913Z" transform="translate(-75.456 -73.089)" fill="#2e186b"/>
        <path id="Trazado_1009770" data-name="Trazado 1009770" d="M213.117,114c0,4.742-18.574,8.586-41.486,8.586s-41.486-3.844-41.486-8.586,18.574-8.586,41.486-8.586,41.486,3.844,41.486,8.586" transform="translate(-76.062 -61.611)" fill="#9654ff"/>
        <path id="Trazado_1009771" data-name="Trazado 1009771" d="M213.114,114a2.071,2.071,0,0,1-.34,1.1c-2.613-4.217-20.038-7.479-41.146-7.479s-38.533,3.262-41.146,7.479a2.071,2.071,0,0,1-.34-1.1c0-4.741,18.577-8.588,41.486-8.588s41.486,3.847,41.486,8.588" transform="translate(-76.061 -61.608)" fill="#fff"/>
        <path id="Trazado_1009772" data-name="Trazado 1009772" d="M222.885,124.809h-34.9l3.2-6.256h28.509Z" transform="translate(-109.865 -69.287)" fill="#2e186b"/>
        <path id="Trazado_1009773" data-name="Trazado 1009773" d="M171.029,122.417c-20.6,0-41.914-3.371-41.914-9.014s21.311-9.013,41.914-9.013,41.914,3.371,41.914,9.013-21.311,9.014-41.914,9.014m0-17.172c-24.56,0-41.059,4.218-41.059,8.158s16.5,8.159,41.059,8.159,41.059-4.219,41.059-8.159-16.5-8.158-41.059-8.158" transform="translate(-75.46 -61.01)" fill="#2e186b"/>
        <path id="Trazado_1009774" data-name="Trazado 1009774" d="M222.284,124.635h-34.9a.428.428,0,0,1-.381-.622l3.2-6.257a.428.428,0,0,1,.381-.233h28.509a.428.428,0,0,1,.381.233l3.2,6.257a.428.428,0,0,1-.381.622m-34.2-.855h33.5l-2.759-5.4H190.84Z" transform="translate(-109.264 -68.686)" fill="#2e186b"/>
        <path id="Trazado_1009775" data-name="Trazado 1009775" d="M227.146,27.5a26.47,26.47,0,1,1-26.47-26.47,26.47,26.47,0,0,1,26.47,26.47" transform="translate(-101.813 -0.601)" fill="#fff"/>
        <path id="Trazado_1009776" data-name="Trazado 1009776" d="M233.641,1.1c.587-.039,1.174-.061,1.773-.061a26.437,26.437,0,0,1,21.872,11.559l-2.858,1.051A26.467,26.467,0,0,0,233.641,1.1" transform="translate(-136.55 -0.604)" fill="#ff7af1"/>
        <path id="Trazado_1009777" data-name="Trazado 1009777" d="M289.57,43.9a25.976,25.976,0,0,0-1.924-6.5l3.02-1.107a25.969,25.969,0,0,1,2.22,6.387Z" transform="translate(-168.113 -21.21)" fill="#ff7af1"/>
        <path id="Trazado_1009778" data-name="Trazado 1009778" d="M261.882,62.131A26.468,26.468,0,0,1,235.414,88.6c-.6,0-1.186-.022-1.773-.062a26.47,26.47,0,0,0,24.7-26.407c0-.19,0-.386-.006-.576l3.479-1.269q.067.914.067,1.845" transform="translate(-136.55 -35.234)" fill="#ff7af1"/>
        <path id="Trazado_1009779" data-name="Trazado 1009779" d="M200.075,53.8a26.9,26.9,0,1,1,26.9-26.9,26.928,26.928,0,0,1-26.9,26.9m0-52.941A26.043,26.043,0,1,0,226.117,26.9,26.072,26.072,0,0,0,200.075.855" transform="translate(-101.212)" fill="#2e186b"/>
        <path id="Trazado_1009780" data-name="Trazado 1009780" d="M211.293,27.5a26.47,26.47,0,1,1-26.47-26.47,26.47,26.47,0,0,1,26.47,26.47" transform="translate(-92.548 -0.601)" fill="#fff"/>
        <path id="Trazado_1009781" data-name="Trazado 1009781" d="M214.721,39.362a18.035,18.035,0,1,1-18.035-18.035,18.035,18.035,0,0,1,18.035,18.035" transform="translate(-104.411 -12.464)" fill="#fff"/>
        <path id="Trazado_1009782" data-name="Trazado 1009782" d="M183.312,40.2a18.037,18.037,0,0,0,12.521,17.174,18.034,18.034,0,1,1,6.37-35.187c-.285-.017-.57-.022-.856-.022A18.036,18.036,0,0,0,183.312,40.2" transform="translate(-104.413 -12.464)" fill="#ff7af1"/>
        <path id="Trazado_1009783" data-name="Trazado 1009783" d="M196.084,57.224a18.463,18.463,0,1,1,18.463-18.463,18.484,18.484,0,0,1-18.463,18.463m0-36.07a17.608,17.608,0,1,0,17.608,17.608,17.628,17.628,0,0,0-17.608-17.608" transform="translate(-103.809 -11.863)" fill="#2e186b"/>
        <path id="Trazado_1009784" data-name="Trazado 1009784" d="M184.221,67.9a26.928,26.928,0,0,1-26.9-26.9,26.616,26.616,0,0,1,5.815-16.7.428.428,0,1,1,.67.531,25.77,25.77,0,0,0-5.63,16.173A26.043,26.043,0,0,0,200.59,61.261a.428.428,0,1,1,.538.665A26.961,26.961,0,0,1,184.221,67.9" transform="translate(-91.946 -14.108)" fill="#2e186b"/>
        <path id="Trazado_1009785" data-name="Trazado 1009785" d="M218.984,43.789a.428.428,0,0,1-.335-.694A25.765,25.765,0,0,0,224.3,26.9,26.072,26.072,0,0,0,198.255.855a25.764,25.764,0,0,0-16.225,5.67.428.428,0,0,1-.533-.669A26.61,26.61,0,0,1,198.255,0a26.928,26.928,0,0,1,26.9,26.9,26.615,26.615,0,0,1-5.834,16.73.428.428,0,0,1-.335.161" transform="translate(-105.981)" fill="#2e186b"/>
        <path id="Trazado_1009786" data-name="Trazado 1009786" d="M210.681,43.932a4.374,4.374,0,0,1,3.351-1.33V41.176h1.019v1.4a5.047,5.047,0,0,1,3.277,1.26,4.081,4.081,0,0,1,1.2,2.933h-1.877a3.2,3.2,0,0,0-.44-1.4,2.466,2.466,0,0,0-2.156-1.137v5.212a12.69,12.69,0,0,1,3.378,1.309,3.4,3.4,0,0,1,1.448,2.982,4.458,4.458,0,0,1-1.855,4.054,6.942,6.942,0,0,1-2.971.879v2.081h-1.019V58.668q-3.12-.2-4.236-2.21a5.962,5.962,0,0,1-.611-2.928h1.9a5.269,5.269,0,0,0,.461,2.145,2.851,2.851,0,0,0,2.467,1.362V51.193a6.83,6.83,0,0,1-3.421-1.469,3.71,3.71,0,0,1-1.1-2.853,4.247,4.247,0,0,1,1.2-2.938m1.437,4.472a4.076,4.076,0,0,0,1.893.837V44.2a2.451,2.451,0,0,0-2,.858,2.789,2.789,0,0,0-.6,1.684,2.069,2.069,0,0,0,.7,1.662m5.464,7.347a2.971,2.971,0,0,0,.365-1.491,2.337,2.337,0,0,0-.987-2.038,6.294,6.294,0,0,0-1.909-.772v5.641a2.8,2.8,0,0,0,2.531-1.341" transform="translate(-122.257 -24.065)" fill="#2e186b"/>
        <path id="Trazado_1009787" data-name="Trazado 1009787" d="M153.486,411.63l-4.314,7.754c-3.345,6.012-15.686,5.531-27.565-1.078-.462-.257-.914-.517-1.358-.79q-1.917-1.144-3.633-2.4a41.9,41.9,0,0,1-4.274-3.579c-.6-.574-1.163-1.157-1.691-1.745-4.654-5.148-6.582-10.568-4.486-14.336l4.314-7.754c-3.345,6.012,3.57,16.246,15.443,22.851s24.22,7.089,27.565,1.077" transform="translate(-61.554 -226.59)" fill="#ff7af1"/>
        <path id="Trazado_1009788" data-name="Trazado 1009788" d="M157.35,411.63l-1.568,2.818c-3.345,6.012-15.686,5.532-27.565-1.077s-18.787-16.839-15.443-22.851l1.568-2.818c-3.345,6.012,3.57,16.246,15.443,22.851s24.22,7.089,27.565,1.077" transform="translate(-65.418 -226.59)" fill="#fff"/>
        <path id="Trazado_1009789" data-name="Trazado 1009789" d="M123.465,427.776l-3.627,6.52q-.9-.861-1.691-1.745l3.286-5.906Z" transform="translate(-69.05 -249.35)" fill="#fff"/>
        <path id="Trazado_1009790" data-name="Trazado 1009790" d="M139.79,440.662l-3.657,6.573c-1.278-.763-2.49-1.567-3.633-2.4l3.5-6.283Z" transform="translate(-77.439 -256.308)" fill="#fff"/>
        <path id="Trazado_1009791" data-name="Trazado 1009791" d="M138.9,423.422q-.463,0-.94-.019a39.857,39.857,0,0,1-17.175-5.325A39.823,39.823,0,0,1,107.217,406.3c-3.012-4.456-3.733-8.594-2.033-11.65l4.314-7.754a.428.428,0,0,1,.582-.166l43.005,23.927a.427.427,0,0,1,.166.582l-4.314,7.754c-1.6,2.875-5.143,4.433-10.032,4.433m-28.867-35.74-4.106,7.38c-1.535,2.76-.827,6.58,1.994,10.755a38.963,38.963,0,0,0,13.28,11.513A38.984,38.984,0,0,0,138,422.548c5.034.2,8.656-1.215,10.192-3.975l4.106-7.38Z" transform="translate(-60.948 -225.988)" fill="#2e186b"/>
        <path id="Trazado_1009792" data-name="Trazado 1009792" d="M159.553,405.7c-3.346,6.014-15.685,5.533-27.561-1.075s-18.79-16.839-15.444-22.852,15.685-5.533,27.561,1.075,18.79,16.839,15.444,22.852" transform="translate(-67.623 -220.664)" fill="#fff"/>
        <path id="Trazado_1009793" data-name="Trazado 1009793" d="M162.824,413.66c-2.306,3.289-10.111,2.593-17.773-1.67-6.52-3.628-10.907-8.713-11.081-12.423,2.305-3.289,10.111-2.593,17.773,1.67,6.52,3.627,10.907,8.713,11.081,12.422" transform="translate(-78.298 -232.317)" fill="#ff7af1"/>
        <path id="Trazado_1009794" data-name="Trazado 1009794" d="M163.014,409.911a2.909,2.909,0,0,1-.2.312c-.174-3.71-4.561-8.795-11.081-12.422-7.662-4.263-15.467-4.959-17.773-1.67a3.884,3.884,0,0,1,.459-2.129c2.027-3.643,10.073-3.038,17.965,1.353s12.656,10.913,10.629,14.556" transform="translate(-78.288 -228.88)" fill="#fff"/>
        <path id="Trazado_1009795" data-name="Trazado 1009795" d="M149.245,409.755c-5.237,0-11.73-1.786-18.069-5.312A39.843,39.843,0,0,1,117.6,392.659c-3.012-4.456-3.734-8.594-2.034-11.651,3.455-6.21,16.08-5.8,28.143.909a45.82,45.82,0,0,1,8.472,6.013.428.428,0,0,1-.573.635,44.96,44.96,0,0,0-8.314-5.9c-11.651-6.482-23.754-7.039-26.98-1.24-1.536,2.761-.827,6.58,1.995,10.756a38.986,38.986,0,0,0,13.284,11.514c11.651,6.482,23.753,7.039,26.979,1.241,1.678-3.016.64-7.369-2.847-11.942a.428.428,0,1,1,.68-.519c3.7,4.856,4.766,9.549,2.915,12.877-1.639,2.946-5.345,4.4-10.074,4.4" transform="translate(-67.015 -220.104)" fill="#2e186b"/>
        <path id="Trazado_1009796" data-name="Trazado 1009796" d="M156.75,412.134c-3.5,0-8-1.291-12.529-3.81-8.227-4.577-12.968-11.226-10.793-15.136,1.067-1.917,3.62-2.824,7.19-2.555a.428.428,0,1,1-.064.853c-3.218-.243-5.483.509-6.378,2.118-1.91,3.433,2.783,9.7,10.461,13.973s15.479,4.955,17.388,1.522c.9-1.608.34-3.93-1.563-6.536a27.952,27.952,0,0,0-8.9-7.436,32.919,32.919,0,0,0-5.779-2.545.427.427,0,0,1,.265-.813,33.741,33.741,0,0,1,5.93,2.611,28.816,28.816,0,0,1,9.172,7.68c2.111,2.891,2.687,5.539,1.62,7.456-.978,1.758-3.164,2.62-6.022,2.62" transform="translate(-77.673 -228.276)" fill="#2e186b"/>
        <path id="Trazado_1009797" data-name="Trazado 1009797" d="M251.211,434.52l-1.715,8.706c-1.33,6.75-13.219,10.1-26.556,7.468-.519-.1-1.029-.21-1.535-.333q-2.176-.5-4.2-1.166a41.9,41.9,0,0,1-5.169-2.088c-.744-.362-1.462-.742-2.146-1.139-6.014-3.463-9.518-8.025-8.685-12.256l1.715-8.706c-1.33,6.75,8.4,14.355,21.732,16.981s25.226-.718,26.556-7.468" transform="translate(-117.523 -248.392)" fill="#ff7af1"/>
        <path id="Trazado_1009798" data-name="Trazado 1009798" d="M252.747,434.52l-.623,3.164c-1.33,6.75-13.219,10.1-26.556,7.468s-23.061-10.232-21.732-16.982l.623-3.164c-1.33,6.75,8.4,14.355,21.732,16.981s25.226-.718,26.556-7.468" transform="translate(-119.059 -248.392)" fill="#fff"/>
        <path id="Trazado_1009799" data-name="Trazado 1009799" d="M225.867,459.942l-1.442,7.32c-.744-.362-1.462-.742-2.146-1.139l1.307-6.631Z" transform="translate(-129.909 -268.547)" fill="#fff"/>
        <path id="Trazado_1009800" data-name="Trazado 1009800" d="M245.532,467.08l-1.454,7.38c-1.451-.332-2.852-.723-4.2-1.165l1.39-7.054Z" transform="translate(-140.197 -272.491)" fill="#fff"/>
        <path id="Trazado_1009801" data-name="Trazado 1009801" d="M231.176,451.407a46.344,46.344,0,0,1-8.92-.9c-13.541-2.667-23.44-10.511-22.066-17.483l1.715-8.706a.427.427,0,0,1,.5-.337l48.286,9.513a.428.428,0,0,1,.337.5l-1.715,8.706c-1.061,5.386-8.545,8.7-18.139,8.7m-28.514-26.5-1.633,8.287c-1.282,6.51,8.314,13.9,21.393,16.479s24.771-.622,26.054-7.132l1.632-8.286Z" transform="translate(-116.925 -247.791)" fill="#2e186b"/>
        <path id="Trazado_1009802" data-name="Trazado 1009802" d="M253.621,422.754c-1.33,6.752-13.218,10.1-26.551,7.47s-23.064-10.23-21.734-16.982,13.218-10.1,26.551-7.47,23.064,10.23,21.734,16.982" transform="translate(-119.936 -236.627)" fill="#fff"/>
        <path id="Trazado_1009803" data-name="Trazado 1009803" d="M257.3,432.2c-1.18,3.839-8.82,5.582-17.422,3.888-7.321-1.442-13.061-4.928-14.37-8.4,1.18-3.839,8.82-5.582,17.423-3.888,7.32,1.442,13.061,4.929,14.37,8.4" transform="translate(-131.795 -247.303)" fill="#ff7af1"/>
        <path id="Trazado_1009804" data-name="Trazado 1009804" d="M256.988,428.282a2.992,2.992,0,0,1-.094.359c-1.309-3.476-7.049-6.962-14.37-8.4-8.6-1.7-16.242.048-17.422,3.887a3.887,3.887,0,0,1-.22-2.167c.806-4.09,8.647-5.994,17.509-4.248s15.4,6.483,14.6,10.573" transform="translate(-131.391 -243.749)" fill="#fff"/>
        <path id="Trazado_1009805" data-name="Trazado 1009805" d="M235.305,430.932a46.316,46.316,0,0,1-8.916-.9c-13.544-2.668-23.444-10.511-22.071-17.484.676-3.432,3.9-6.124,9.078-7.581a39.856,39.856,0,0,1,17.976-.226,45.818,45.818,0,0,1,9.913,3.111.428.428,0,0,1-.35.78,44.953,44.953,0,0,0-9.728-3.052,38.987,38.987,0,0,0-17.578.21c-4.852,1.365-7.86,3.824-8.471,6.923-1.282,6.51,8.317,13.9,21.4,16.48s24.766-.623,26.049-7.133c.667-3.386-1.661-7.207-6.388-10.483a.428.428,0,1,1,.487-.7c5.02,3.479,7.476,7.616,6.74,11.352-1.061,5.386-8.545,8.7-18.137,8.7" transform="translate(-119.338 -236.021)" fill="#2e186b"/>
        <path id="Trazado_1009806" data-name="Trazado 1009806" d="M245.355,433.016a34.205,34.205,0,0,1-6.57-.669c-9.237-1.82-15.8-6.684-14.931-11.074.424-2.153,2.573-3.8,6.053-4.646a.428.428,0,1,1,.2.831c-3.136.76-5.059,2.174-5.416,3.98-.759,3.854,5.637,8.371,14.258,10.07s16.252-.056,17.012-3.91c.355-1.806-.888-3.844-3.5-5.736a27.934,27.934,0,0,0-10.756-4.333,32.883,32.883,0,0,0-6.282-.641.428.428,0,0,1,0-.855h0a33.716,33.716,0,0,1,6.445.657,28.8,28.8,0,0,1,11.092,4.48c2.9,2.1,4.263,4.442,3.838,6.594-.649,3.3-5.273,5.253-11.446,5.253" transform="translate(-130.785 -243.147)" fill="#2e186b"/>
        <path id="Trazado_1009807" data-name="Trazado 1009807" d="M292.069,390.468l-1.715,8.706c-1.33,6.75-13.219,10.1-26.556,7.468-.519-.1-1.029-.21-1.535-.333-1.451-.332-2.852-.723-4.2-1.165a41.837,41.837,0,0,1-5.169-2.089c-.744-.362-1.462-.742-2.146-1.138-6.014-3.463-9.518-8.026-8.685-12.256l1.715-8.706c-1.33,6.75,8.4,14.355,21.732,16.981s25.226-.719,26.556-7.468" transform="translate(-141.403 -222.646)" fill="#ff7af1"/>
        <path id="Trazado_1009808" data-name="Trazado 1009808" d="M293.605,390.468l-.623,3.164c-1.33,6.75-13.219,10.1-26.556,7.468s-23.061-10.231-21.732-16.982l.623-3.164c-1.33,6.75,8.4,14.355,21.732,16.981s25.226-.719,26.556-7.468" transform="translate(-142.939 -222.646)" fill="#fff"/>
        <path id="Trazado_1009809" data-name="Trazado 1009809" d="M266.725,415.89l-1.442,7.32c-.745-.362-1.463-.742-2.147-1.138l1.307-6.632Z" transform="translate(-153.788 -242.801)" fill="#fff"/>
        <path id="Trazado_1009810" data-name="Trazado 1009810" d="M286.39,423.028l-1.454,7.38c-1.451-.332-2.852-.723-4.2-1.165l1.39-7.054Z" transform="translate(-164.077 -246.745)" fill="#fff"/>
        <path id="Trazado_1009811" data-name="Trazado 1009811" d="M272.03,407.354a46.348,46.348,0,0,1-8.92-.9,39.822,39.822,0,0,1-16.543-7.026c-4.238-3.312-6.2-7.025-5.524-10.457l1.715-8.706a.426.426,0,0,1,.5-.337l48.285,9.513a.427.427,0,0,1,.337.5l-1.715,8.706c-1.061,5.386-8.545,8.7-18.138,8.7m-28.515-26.5-1.633,8.287c-.61,3.1,1.24,6.514,5.212,9.617a38.966,38.966,0,0,0,16.181,6.861c13.084,2.577,24.771-.622,26.054-7.131l1.632-8.287Z" transform="translate(-140.8 -222.044)" fill="#2e186b"/>
        <path id="Trazado_1009812" data-name="Trazado 1009812" d="M294.479,378.7c-1.33,6.752-13.218,10.1-26.551,7.47s-23.064-10.23-21.734-16.982,13.218-10.1,26.551-7.47,23.064,10.23,21.734,16.982" transform="translate(-143.815 -210.881)" fill="#fff"/>
        <path id="Trazado_1009813" data-name="Trazado 1009813" d="M298.155,388.144c-1.18,3.839-8.82,5.582-17.422,3.888-7.321-1.442-13.061-4.929-14.37-8.4,1.18-3.839,8.821-5.582,17.423-3.888,7.32,1.442,13.061,4.928,14.37,8.4" transform="translate(-155.674 -221.558)" fill="#ff7af1"/>
        <path id="Trazado_1009814" data-name="Trazado 1009814" d="M297.846,384.23a2.992,2.992,0,0,1-.094.359c-1.309-3.476-7.049-6.962-14.37-8.4-8.6-1.7-16.242.048-17.422,3.887a3.887,3.887,0,0,1-.22-2.167c.806-4.09,8.647-5.994,17.509-4.248s15.4,6.483,14.6,10.573" transform="translate(-155.271 -218.003)" fill="#fff"/>
        <path id="Trazado_1009815" data-name="Trazado 1009815" d="M276.16,386.88a46.287,46.287,0,0,1-8.917-.9,39.844,39.844,0,0,1-16.547-7.026c-4.238-3.312-6.2-7.026-5.524-10.458s3.9-6.124,9.078-7.581a39.849,39.849,0,0,1,17.975-.225,45.825,45.825,0,0,1,9.913,3.11.428.428,0,1,1-.35.78,44.958,44.958,0,0,0-9.728-3.051,38.994,38.994,0,0,0-17.578.209c-4.852,1.365-7.86,3.824-8.47,6.923s1.24,6.516,5.212,9.618a38.98,38.98,0,0,0,16.185,6.861c13.082,2.578,24.766-.622,26.049-7.132.667-3.386-1.661-7.207-6.389-10.484a.428.428,0,0,1,.487-.7c5.02,3.479,7.476,7.616,6.74,11.352-1.061,5.386-8.545,8.7-18.137,8.7" transform="translate(-143.213 -210.275)" fill="#2e186b"/>
        <path id="Trazado_1009816" data-name="Trazado 1009816" d="M286.147,388.953a33.876,33.876,0,0,1-6.5-.659,28.808,28.808,0,0,1-11.092-4.479c-2.9-2.1-4.263-4.443-3.839-6.595s2.574-3.8,6.053-4.646a.428.428,0,0,1,.2.831c-3.136.76-5.059,2.174-5.416,3.98s.888,3.843,3.5,5.737a30.949,30.949,0,0,0,22.352,4.4c3.136-.76,5.06-2.174,5.416-3.98.759-3.854-5.637-8.372-14.257-10.07a32.953,32.953,0,0,0-6.282-.641.428.428,0,0,1,0-.855h0a33.785,33.785,0,0,1,6.446.657c9.237,1.82,15.8,6.684,14.931,11.075-.424,2.152-2.574,3.8-6.053,4.646a23.384,23.384,0,0,1-5.46.6" transform="translate(-154.665 -217.401)" fill="#2e186b"/>
        <path id="Trazado_1009817" data-name="Trazado 1009817" d="M220.046,358.465l-1.715,8.706c-1.329,6.75-13.219,10.1-26.556,7.468-.519-.1-1.028-.21-1.535-.333q-2.177-.5-4.2-1.166a41.764,41.764,0,0,1-5.169-2.088c-.744-.362-1.462-.742-2.146-1.138-6.014-3.463-9.518-8.026-8.685-12.256l1.715-8.706c-1.33,6.75,8.4,14.355,21.732,16.981s25.226-.718,26.556-7.468" transform="translate(-99.309 -203.943)" fill="#ff7af1"/>
        <path id="Trazado_1009818" data-name="Trazado 1009818" d="M221.582,358.465l-.623,3.164c-1.33,6.75-13.219,10.1-26.556,7.468s-23.061-10.231-21.732-16.982l.623-3.164c-1.33,6.75,8.4,14.355,21.732,16.981s25.226-.718,26.556-7.468" transform="translate(-100.845 -203.943)" fill="#fff"/>
        <path id="Trazado_1009819" data-name="Trazado 1009819" d="M194.7,383.887l-1.442,7.32c-.745-.362-1.463-.742-2.147-1.138l1.307-6.632Z" transform="translate(-111.695 -224.097)" fill="#fff"/>
        <path id="Trazado_1009820" data-name="Trazado 1009820" d="M214.367,391.025l-1.454,7.38c-1.45-.332-2.852-.723-4.2-1.165l1.39-7.054Z" transform="translate(-121.983 -228.041)" fill="#fff"/>
        <path id="Trazado_1009821" data-name="Trazado 1009821" d="M200.007,375.353a46.344,46.344,0,0,1-8.92-.9,39.822,39.822,0,0,1-16.543-7.027c-4.238-3.312-6.2-7.025-5.524-10.457l1.715-8.706a.427.427,0,0,1,.5-.337l48.286,9.513a.427.427,0,0,1,.337.5l-1.715,8.706c-1.061,5.386-8.545,8.7-18.138,8.7m-28.514-26.5-1.633,8.287c-.61,3.1,1.24,6.514,5.212,9.618a38.964,38.964,0,0,0,16.181,6.861c13.083,2.577,24.771-.622,26.053-7.132l1.633-8.286Z" transform="translate(-98.707 -203.341)" fill="#2e186b"/>
        <path id="Trazado_1009822" data-name="Trazado 1009822" d="M222.456,346.7c-1.33,6.752-13.218,10.1-26.551,7.469s-23.064-10.23-21.734-16.982,13.218-10.1,26.551-7.47,23.064,10.23,21.734,16.982" transform="translate(-101.722 -192.177)" fill="#fff"/>
        <path id="Trazado_1009823" data-name="Trazado 1009823" d="M226.132,356.141c-1.18,3.839-8.82,5.582-17.422,3.888-7.321-1.442-13.061-4.928-14.37-8.4,1.18-3.839,8.82-5.582,17.423-3.888,7.32,1.442,13.061,4.929,14.37,8.4" transform="translate(-113.581 -202.854)" fill="#ff7af1"/>
        <path id="Trazado_1009824" data-name="Trazado 1009824" d="M225.823,352.228a2.987,2.987,0,0,1-.094.359c-1.309-3.476-7.049-6.962-14.37-8.4-8.6-1.7-16.243.048-17.422,3.887a3.888,3.888,0,0,1-.22-2.168c.806-4.09,8.647-5.994,17.509-4.247s15.4,6.483,14.6,10.573" transform="translate(-113.177 -199.299)" fill="#fff"/>
        <path id="Trazado_1009825" data-name="Trazado 1009825" d="M204.229,354.907a46.87,46.87,0,0,1-9.01-.908,39.839,39.839,0,0,1-16.547-7.026c-4.239-3.312-6.2-7.026-5.524-10.458,1.373-6.973,13.509-10.475,27.054-7.806a45.839,45.839,0,0,1,9.913,3.11.428.428,0,0,1-.35.78,44.992,44.992,0,0,0-9.728-3.052c-13.08-2.576-24.766.622-26.049,7.133-.61,3.1,1.24,6.515,5.212,9.618a42.884,42.884,0,0,0,33.764,6.652c4.852-1.365,7.86-3.824,8.471-6.923.667-3.386-1.662-7.207-6.389-10.483a.427.427,0,1,1,.487-.7c5.02,3.478,7.477,7.616,6.741,11.351-.676,3.432-3.9,6.124-9.078,7.581a33.372,33.372,0,0,1-8.966,1.133" transform="translate(-101.119 -191.589)" fill="#2e186b"/>
        <path id="Trazado_1009826" data-name="Trazado 1009826" d="M214.124,356.951a33.876,33.876,0,0,1-6.5-.659,28.8,28.8,0,0,1-11.092-4.48c-2.9-2.1-4.263-4.442-3.839-6.594s2.573-3.8,6.053-4.646a.428.428,0,0,1,.2.831c-3.137.76-5.06,2.174-5.416,3.98s.888,3.843,3.5,5.736a30.947,30.947,0,0,0,22.352,4.4c3.137-.76,5.06-2.174,5.416-3.98.759-3.854-5.637-8.371-14.257-10.07a32.9,32.9,0,0,0-6.282-.641.428.428,0,0,1,0-.855h0a33.769,33.769,0,0,1,6.446.657c9.237,1.82,15.8,6.684,14.931,11.074-.424,2.153-2.574,3.8-6.053,4.646a23.362,23.362,0,0,1-5.46.6" transform="translate(-112.573 -198.697)" fill="#2e186b"/>
        <path id="Trazado_1009827" data-name="Trazado 1009827" d="M213.979,238.582l-6.754,5.755c-5.237,4.461-16.631-.306-25.446-10.654-.343-.4-.675-.8-1-1.215-.93-1.162-1.784-2.339-2.563-3.521a41.893,41.893,0,0,1-2.752-4.848c-.358-.746-.684-1.49-.974-2.226-2.559-6.451-2.469-12.2.813-15l6.754-5.754c-5.237,4.461-2.34,16.468,6.471,26.81s20.209,15.115,25.446,10.654" transform="translate(-100.932 -117.543)" fill="#ff7af1"/>
        <path id="Trazado_1009828" data-name="Trazado 1009828" d="M220.03,238.582l-2.455,2.091c-5.237,4.462-16.631-.306-25.446-10.654s-11.708-22.348-6.471-26.81l2.455-2.091c-5.237,4.461-2.34,16.468,6.471,26.81s20.209,15.115,25.446,10.654" transform="translate(-106.982 -117.543)" fill="#fff"/>
        <path id="Trazado_1009829" data-name="Trazado 1009829" d="M183.675,242.283,178,247.121c-.359-.746-.684-1.491-.974-2.226l5.145-4.383Z" transform="translate(-103.459 -140.566)" fill="#fff"/>
        <path id="Trazado_1009830" data-name="Trazado 1009830" d="M194.276,260.17l-5.726,4.878c-.93-1.162-1.784-2.339-2.563-3.521l5.472-4.663Z" transform="translate(-108.699 -150.123)" fill="#fff"/>
        <path id="Trazado_1009831" data-name="Trazado 1009831" d="M201.614,245.839a17.086,17.086,0,0,1-6.495-1.485,39.858,39.858,0,0,1-14.226-11c-8.95-10.506-11.831-22.8-6.421-27.411l6.754-5.755a.428.428,0,0,1,.6.048L213.745,237.7a.428.428,0,0,1-.048.6l-6.754,5.754a8,8,0,0,1-5.328,1.781m-20.158-44.72-6.429,5.477c-5.05,4.3-2.126,16.058,6.518,26.205a39,39,0,0,0,13.9,10.764c4.65,1.946,8.534,1.89,10.938-.158l6.429-5.477Z" transform="translate(-100.373 -116.94)" fill="#2e186b"/>
        <path id="Trazado_1009832" data-name="Trazado 1009832" d="M223.479,236.227c-5.239,4.463-16.63-.305-25.443-10.65s-11.711-22.349-6.473-26.812,16.63.305,25.443,10.65,11.711,22.349,6.473,26.812" transform="translate(-110.433 -115.188)" fill="#fff"/>
        <path id="Trazado_1009833" data-name="Trazado 1009833" d="M226.977,242.942c-3.31,2.275-10.379-1.108-16.065-7.783-4.839-5.679-7.169-11.978-6.034-15.514,3.31-2.275,10.379,1.108,16.065,7.783,4.839,5.679,7.169,11.978,6.035,15.514" transform="translate(-119.574 -127.957)" fill="#ff7af1"/>
        <path id="Trazado_1009834" data-name="Trazado 1009834" d="M227.672,239.823a2.925,2.925,0,0,1-.3.223c1.135-3.536-1.2-9.835-6.034-15.514-5.686-6.674-12.755-10.057-16.065-7.783a3.889,3.889,0,0,1,1.175-1.834c3.173-2.7,10.5.679,16.356,7.554s8.038,14.651,4.865,17.354" transform="translate(-119.972 -125.061)" fill="#fff"/>
        <path id="Trazado_1009835" data-name="Trazado 1009835" d="M217.864,237.736c-5.971,0-14.117-4.653-20.76-12.45a39.842,39.842,0,0,1-8.6-15.789c-1.262-5.229-.491-9.358,2.171-11.626,5.409-4.608,17.094.19,26.046,10.7a45.816,45.816,0,0,1,5.833,8.6.428.428,0,0,1-.76.394,44.972,44.972,0,0,0-5.724-8.437c-8.646-10.148-19.789-14.9-24.84-10.6-2.4,2.048-3.078,5.875-1.895,10.774a38.981,38.981,0,0,0,8.416,15.435c8.646,10.149,19.789,14.905,24.84,10.6,2.627-2.239,3.178-6.679,1.511-12.183a.428.428,0,0,1,.819-.248c1.77,5.845,1.123,10.613-1.775,13.083a7.943,7.943,0,0,1-5.286,1.752" transform="translate(-109.826 -114.621)" fill="#2e186b"/>
        <path id="Trazado_1009836" data-name="Trazado 1009836" d="M223.807,240.585c-3.825,0-9.21-3.231-13.826-8.65a28.812,28.812,0,0,1-5.906-10.4c-.966-3.447-.578-6.129,1.091-7.552s4.379-1.379,7.63.123a.428.428,0,0,1-.359.776c-2.93-1.353-5.315-1.442-6.716-.248s-1.693,3.563-.822,6.67a27.947,27.947,0,0,0,5.733,10.08c5.7,6.688,12.766,10.057,15.757,7.51s.787-10.062-4.911-16.75a32.938,32.938,0,0,0-4.523-4.406.428.428,0,1,1,.533-.669,33.77,33.77,0,0,1,4.641,4.521c6.106,7.167,8.221,15.054,4.815,17.955a4.706,4.706,0,0,1-3.136,1.044" transform="translate(-118.966 -124.453)" fill="#2e186b"/>
        <path id="Trazado_1009837" data-name="Trazado 1009837" d="M481.334,430.24a8.154,8.154,0,0,0-1.361-1.822,7.775,7.775,0,0,0-3.838-2.1v-.3a14.005,14.005,0,0,0-3.513-9.309,6.335,6.335,0,0,1-1.633-4.854,20.831,20.831,0,0,0,.136-2.356c0-9.032-5.685-16.855-13.974-20.659a3.23,3.23,0,0,0,.1-.438,5.393,5.393,0,0,0-.841-3.916c3.634-2.264,8.386-10.684,6.127-13.478-1.555-1.923-6.694,1.018-9.285.766-6.338,11.488-2.906,37.216,0,62.177h25.872a2.522,2.522,0,0,0,2.206-3.717" transform="translate(-262.811 -216.453)" fill="#2e186b"/>
        <path id="Trazado_1009838" data-name="Trazado 1009838" d="M478.551,433.785H452.679a.427.427,0,0,1-.425-.378l-.448-3.826c-2.745-23.394-5.583-47.585.5-58.607a.427.427,0,0,1,.416-.219,12.173,12.173,0,0,0,3.686-.674c2.343-.651,4.766-1.324,5.889.065a4.219,4.219,0,0,1,.575,3.44,19.17,19.17,0,0,1-6.457,10.436,5.8,5.8,0,0,1,.684,3.863c-.007.041-.014.082-.022.124,8.584,4.075,13.9,12.051,13.9,20.9a21.283,21.283,0,0,1-.139,2.4,5.942,5.942,0,0,0,1.528,4.523,14.484,14.484,0,0,1,3.62,9.552,8.2,8.2,0,0,1,3.713,2.133,8.5,8.5,0,0,1,1.435,1.922v0a2.949,2.949,0,0,1-.076,2.925,2.9,2.9,0,0,1-2.507,1.42m-25.491-.855h25.491a2.055,2.055,0,0,0,1.774-1.006,2.1,2.1,0,0,0,.055-2.082,7.65,7.65,0,0,0-1.29-1.726,7.351,7.351,0,0,0-3.624-1.98.427.427,0,0,1-.336-.417v-.3a13.63,13.63,0,0,0-3.406-9.026,6.8,6.8,0,0,1-1.737-5.182,20.44,20.44,0,0,0,.134-2.311c0-8.618-5.259-16.385-13.724-20.27a.427.427,0,0,1-.23-.515,2.784,2.784,0,0,0,.089-.379,4.937,4.937,0,0,0-.777-3.615.427.427,0,0,1,.132-.6c2.66-1.657,5.839-6.653,6.417-10.086a3.488,3.488,0,0,0-.4-2.76c-.771-.952-2.919-.356-5,.221a14.331,14.331,0,0,1-3.71.718c-5.781,10.892-2.979,34.765-.27,57.858Z" transform="translate(-262.234 -215.853)" fill="#2e186b"/>
        <path id="Trazado_1009839" data-name="Trazado 1009839" d="M436.572,380.747c-2.326.81-7.81-.224-9.681-1.825-2.956-2.529-4.824-13.567-1.444-15.494,2.213-1.262,6.092,3.676,8.6,4.148s7.914-2.715,9.516-.735c2.446,3.025-3.312,12.626-6.986,13.905" transform="translate(-247.592 -212.283)" fill="#9654ff"/>
        <path id="Trazado_1009840" data-name="Trazado 1009840" d="M443.9,371.076a3.492,3.492,0,0,0-.549-2.614c-1.6-1.982-7.011,1.205-9.513.733s-6.384-5.408-8.595-4.149a3.355,3.355,0,0,0-1.4,2.031c.184-1.71.729-3.081,1.725-3.649,2.216-1.263,6.093,3.678,8.595,4.149s7.915-2.716,9.518-.733c.753.933.729,2.488.224,4.232" transform="translate(-247.707 -212.283)" fill="#fff"/>
        <path id="Trazado_1009841" data-name="Trazado 1009841" d="M433.856,380.85c-2.733,0-6.347-.924-7.845-2.206-2.092-1.79-3.747-7.75-3.34-12.032.2-2.1.878-3.541,1.961-4.158,1.552-.884,3.561.624,5.5,2.083a5.72,5.72,0,0,0,7.266,1.369c2.342-.651,4.763-1.324,5.885.064.784.97.893,2.556.313,4.587-1.18,4.136-4.891,9.085-7.491,9.991a7.112,7.112,0,0,1-2.254.3m-8.2-17.8a1.2,1.2,0,0,0-.6.15c-1.05.6-1.414,2.232-1.534,3.5-.378,3.984,1.158,9.688,3.045,11.3,1.737,1.486,7.1,2.5,9.262,1.746,2.345-.817,5.852-5.569,6.95-9.418.348-1.221.6-2.874-.156-3.814s-2.916-.355-4.991.222a6.473,6.473,0,0,1-8.008-1.509c-1.429-1.072-2.9-2.174-3.964-2.174" transform="translate(-246.99 -211.68)" fill="#2e186b"/>
        <path id="Trazado_1009842" data-name="Trazado 1009842" d="M439.6,403.683c-.579,3.226-4.095,5.294-7.853,4.619s-6.335-3.836-5.756-7.062,4.095-5.294,7.853-4.619,6.335,3.836,5.756,7.062" transform="translate(-248.917 -231.728)" fill="#fff"/>
        <path id="Trazado_1009843" data-name="Trazado 1009843" d="M439.6,403.685a5.133,5.133,0,0,1-.233.86c.136-2.988-2.337-5.772-5.835-6.4-3.411-.613-6.622,1.035-7.618,3.76a6.322,6.322,0,0,1,.078-.666c.578-3.226,4.1-5.291,7.851-4.616s6.336,3.833,5.758,7.059" transform="translate(-248.923 -231.73)" fill="#9654ff"/>
        <path id="Trazado_1009844" data-name="Trazado 1009844" d="M432.558,408.256a8.446,8.446,0,0,1-1.491-.134c-3.984-.715-6.721-4.106-6.1-7.559s4.364-5.68,8.349-4.965,6.721,4.106,6.1,7.559c-.541,3.017-3.47,5.1-6.858,5.1m-.737-11.936c-2.981,0-5.546,1.791-6.013,4.395-.536,2.988,1.89,5.934,5.411,6.565s6.82-1.286,7.356-4.274-1.891-5.934-5.411-6.565a7.629,7.629,0,0,0-1.343-.12" transform="translate(-248.317 -231.127)" fill="#2e186b"/>
        <path id="Trazado_1009845" data-name="Trazado 1009845" d="M409.6,456.478H339.654a2.521,2.521,0,0,1-2.2-3.718,8.274,8.274,0,0,1,1.36-1.824,7.806,7.806,0,0,1,3.838-2.1v-.293a14.091,14.091,0,0,1,5.473-11.151,6.718,6.718,0,0,0,2.667-5.336v-.035c0-12.77,11.376-23.132,25.4-23.132s25.4,10.361,25.4,23.132a21.2,21.2,0,0,1-.138,2.358,6.331,6.331,0,0,0,1.635,4.853,14.013,14.013,0,0,1,3.511,9.311v.293a7.806,7.806,0,0,1,3.838,2.1,8.261,8.261,0,0,1,1.36,1.824,2.521,2.521,0,0,1-2.2,3.718" transform="translate(-197.045 -238.973)" fill="#9654ff"/>
        <path id="Trazado_1009846" data-name="Trazado 1009846" d="M377.735,408.939c-13.312.719-23.865,10.786-23.865,23.088v.034A6.731,6.731,0,0,1,351.2,437.4a14.084,14.084,0,0,0-5.475,11.15v.3a7.781,7.781,0,0,0-3.839,2.1,8.291,8.291,0,0,0-1.36,1.822,2.522,2.522,0,0,0,2.206,3.717h-3.081a2.521,2.521,0,0,1-2.2-3.717,8.128,8.128,0,0,1,1.361-1.822,7.757,7.757,0,0,1,3.838-2.1v-.3a14.094,14.094,0,0,1,5.471-11.15,6.718,6.718,0,0,0,2.667-5.335v-.034c0-12.773,11.379-23.132,25.405-23.132.515,0,1.03.015,1.54.044" transform="translate(-197.046 -238.976)" fill="#fff"/>
        <path id="Trazado_1009847" data-name="Trazado 1009847" d="M409,456.305H339.052a2.9,2.9,0,0,1-2.505-1.419,2.95,2.95,0,0,1-.075-2.926,8.633,8.633,0,0,1,1.43-1.922,8.223,8.223,0,0,1,3.718-2.138,14.466,14.466,0,0,1,5.639-11.447,6.3,6.3,0,0,0,2.5-5c0-13.025,11.588-23.593,25.831-23.593s25.831,10.568,25.831,23.559a21.59,21.59,0,0,1-.14,2.4,5.937,5.937,0,0,0,1.53,4.523,14.492,14.492,0,0,1,3.618,9.551,8.209,8.209,0,0,1,3.713,2.133,8.666,8.666,0,0,1,1.434,1.924,2.952,2.952,0,0,1-.074,2.929,2.9,2.9,0,0,1-2.5,1.419m-33.407-47.588c-13.772,0-24.976,10.185-24.976,22.7a7.165,7.165,0,0,1-2.833,5.708,13.614,13.614,0,0,0-5.307,10.814v.293a.427.427,0,0,1-.335.418,7.364,7.364,0,0,0-3.628,1.984,7.793,7.793,0,0,0-1.286,1.725,2.1,2.1,0,0,0,.054,2.082,2.053,2.053,0,0,0,1.772,1.005H409a2.053,2.053,0,0,0,1.772-1.005,2.1,2.1,0,0,0,.053-2.084,7.8,7.8,0,0,0-1.289-1.727,7.361,7.361,0,0,0-3.623-1.979.428.428,0,0,1-.335-.418v-.293a13.634,13.634,0,0,0-3.4-9.028,6.792,6.792,0,0,1-1.739-5.182,20.85,20.85,0,0,0,.135-2.312c0-12.519-11.2-22.7-24.975-22.7" transform="translate(-196.443 -238.372)" fill="#2e186b"/>
        <path id="Trazado_1009848" data-name="Trazado 1009848" d="M428.454,461.925a13,13,0,1,1-13-13,13,13,0,0,1,13,13" transform="translate(-235.216 -262.373)" fill="#2e186b"/>
        <path id="Trazado_1009849" data-name="Trazado 1009849" d="M414.856,474.747a13.424,13.424,0,1,1,13.424-13.425,13.439,13.439,0,0,1-13.424,13.425m0-25.993a12.569,12.569,0,1,0,12.569,12.569,12.583,12.583,0,0,0-12.569-12.569" transform="translate(-234.614 -261.771)" fill="#2e186b"/>
        <path id="Trazado_1009850" data-name="Trazado 1009850" d="M423.777,457.914a13,13,0,1,1-13-13,13,13,0,0,1,13,13" transform="translate(-232.482 -260.029)" fill="#fff"/>
        <path id="Trazado_1009851" data-name="Trazado 1009851" d="M399.538,458.666a12.985,12.985,0,0,0,7.016,11.539,13,13,0,0,1,4.227-25.289,12.835,12.835,0,0,1,5.981,1.463,12.819,12.819,0,0,0-4.227-.709,13,13,0,0,0-13,13" transform="translate(-232.482 -260.028)" fill="#9654ff"/>
        <path id="Trazado_1009852" data-name="Trazado 1009852" d="M410.18,470.736A13.424,13.424,0,1,1,423.6,457.312a13.439,13.439,0,0,1-13.425,13.424m0-25.993a12.569,12.569,0,1,0,12.569,12.569,12.583,12.583,0,0,0-12.569-12.569" transform="translate(-231.881 -259.427)" fill="#2e186b"/>
        <path id="Trazado_1009853" data-name="Trazado 1009853" d="M418.915,457.638a3.9,3.9,0,0,1,2.99-1.186v-1.273h.909v1.254a4.5,4.5,0,0,1,2.923,1.124,3.642,3.642,0,0,1,1.067,2.617H425.13a2.844,2.844,0,0,0-.392-1.254,2.2,2.2,0,0,0-1.924-1.014v4.651a11.323,11.323,0,0,1,3.014,1.167,3.032,3.032,0,0,1,1.292,2.66A3.978,3.978,0,0,1,425.465,470a6.188,6.188,0,0,1-2.651.785v1.856h-.909v-1.856q-2.785-.182-3.78-1.971a5.323,5.323,0,0,1-.546-2.613h1.694a4.7,4.7,0,0,0,.411,1.914,2.545,2.545,0,0,0,2.2,1.215v-5.215a6.092,6.092,0,0,1-3.053-1.311,3.308,3.308,0,0,1-.986-2.545,3.79,3.79,0,0,1,1.067-2.622m1.282,3.991a3.643,3.643,0,0,0,1.689.746v-4.5a2.188,2.188,0,0,0-1.785.765,2.491,2.491,0,0,0-.531,1.5,1.848,1.848,0,0,0,.627,1.483m4.876,6.555a2.651,2.651,0,0,0,.325-1.33,2.085,2.085,0,0,0-.881-1.818,5.607,5.607,0,0,0-1.7-.689v5.033a2.5,2.5,0,0,0,2.259-1.2" transform="translate(-244.052 -266.026)" fill="#2e186b"/>
        <rect id="Rectángulo_458819" data-name="Rectángulo 458819" width="17.83" height="11.504" transform="translate(37.842 205.995)" fill="#2e186b"/>
        <path id="Trazado_1009854" data-name="Trazado 1009854" d="M108.291,507.037H90.462a.428.428,0,0,1-.428-.428v-11.5a.428.428,0,0,1,.428-.428h17.83a.428.428,0,0,1,.428.428v11.5a.428.428,0,0,1-.428.428m-17.4-.855h16.975V495.533H90.889Z" transform="translate(-52.62 -289.111)" fill="#2e186b"/>
        <rect id="Rectángulo_458820" data-name="Rectángulo 458820" width="11.131" height="11.504" transform="translate(37.842 194.498)" fill="#2e186b"/>
        <path id="Trazado_1009855" data-name="Trazado 1009855" d="M101.592,479.371H90.462a.428.428,0,0,1-.428-.428v-11.5a.428.428,0,0,1,.428-.428h11.131a.428.428,0,0,1,.428.428v11.5a.428.428,0,0,1-.428.428m-10.7-.855h10.275V467.867H90.889Z" transform="translate(-52.62 -272.942)" fill="#2e186b"/>
        <rect id="Rectángulo_458821" data-name="Rectángulo 458821" width="14.831" height="11.504" transform="translate(37.842 183.001)" fill="#2e186b"/>
        <path id="Trazado_1009856" data-name="Trazado 1009856" d="M105.293,451.706H90.462a.428.428,0,0,1-.428-.428v-11.5a.428.428,0,0,1,.428-.428h14.831a.428.428,0,0,1,.428.428v11.5a.428.428,0,0,1-.428.428m-14.4-.855h13.976V440.2H90.889Z" transform="translate(-52.62 -256.773)" fill="#2e186b"/>
        <rect id="Rectángulo_458822" data-name="Rectángulo 458822" width="45.195" height="11.504" transform="translate(7.127 205.995)" fill="#9654ff"/>
        <rect id="Rectángulo_458823" data-name="Rectángulo 458823" width="3.779" height="11.504" transform="translate(12.972 205.995)" fill="#fff"/>
        <rect id="Rectángulo_458824" data-name="Rectángulo 458824" width="7.156" height="11.504" transform="translate(20.301 205.995)" fill="#fff"/>
        <rect id="Rectángulo_458825" data-name="Rectángulo 458825" width="45.195" height="1.829" transform="translate(7.127 205.995)" fill="#fff"/>
        <path id="Trazado_1009857" data-name="Trazado 1009857" d="M61.744,507.037h-45.2a.428.428,0,0,1-.428-.428v-11.5a.428.428,0,0,1,.428-.428h45.2a.428.428,0,0,1,.428.428v11.5a.428.428,0,0,1-.428.428m-44.768-.855h44.34V495.533H16.977Z" transform="translate(-9.422 -289.111)" fill="#2e186b"/>
        <rect id="Rectángulo_458826" data-name="Rectángulo 458826" width="45.195" height="11.504" transform="translate(0.428 194.498)" fill="#9654ff"/>
        <rect id="Rectángulo_458827" data-name="Rectángulo 458827" width="45.195" height="1.829" transform="translate(0.428 194.498)" fill="#fff"/>
        <rect id="Rectángulo_458828" data-name="Rectángulo 458828" width="3.779" height="11.504" transform="translate(6.273 194.498)" fill="#fff"/>
        <rect id="Rectángulo_458829" data-name="Rectángulo 458829" width="7.156" height="11.504" transform="translate(13.602 194.498)" fill="#fff"/>
        <path id="Trazado_1009858" data-name="Trazado 1009858" d="M45.623,479.371H.428A.428.428,0,0,1,0,478.944v-11.5a.428.428,0,0,1,.428-.428h45.2a.428.428,0,0,1,.428.428v11.5a.428.428,0,0,1-.428.428M.855,478.516H45.2V467.867H.855Z" transform="translate(0 -272.942)" fill="#2e186b"/>
        <rect id="Rectángulo_458830" data-name="Rectángulo 458830" width="45.195" height="11.504" transform="translate(4.128 183.001)" fill="#9654ff"/>
        <rect id="Rectángulo_458831" data-name="Rectángulo 458831" width="3.779" height="11.504" transform="translate(9.974 183.001)" fill="#fff"/>
        <rect id="Rectángulo_458832" data-name="Rectángulo 458832" width="7.156" height="11.504" transform="translate(17.302 183.001)" fill="#fff"/>
        <rect id="Rectángulo_458833" data-name="Rectángulo 458833" width="45.195" height="1.829" transform="translate(4.128 183.001)" fill="#fff"/>
        <path id="Trazado_1009859" data-name="Trazado 1009859" d="M54.528,451.706H9.333a.428.428,0,0,1-.428-.428v-11.5a.428.428,0,0,1,.428-.428h45.2a.428.428,0,0,1,.428.428v11.5a.428.428,0,0,1-.428.428M9.76,450.85H54.1V440.2H9.76Z" transform="translate(-5.204 -256.773)" fill="#2e186b"/>
        <rect id="Rectángulo_458834" data-name="Rectángulo 458834" width="8.009" height="18.777" transform="translate(194.594 60.97)" fill="#9654ff"/>
        <rect id="Rectángulo_458835" data-name="Rectángulo 458835" width="8.009" height="26.765" transform="translate(179.31 52.982)" fill="#9654ff"/>
        <rect id="Rectángulo_458836" data-name="Rectángulo 458836" width="8.014" height="12.345" transform="translate(164.027 67.401)" fill="#9654ff"/>
        <rect id="Rectángulo_458837" data-name="Rectángulo 458837" width="8.014" height="41.856" transform="translate(209.873 37.891)" fill="#9654ff"/>
        <rect id="Rectángulo_458838" data-name="Rectángulo 458838" width="8.009" height="12.007" transform="translate(194.594 67.74)" fill="#ff7af1"/>
        <rect id="Rectángulo_458839" data-name="Rectángulo 458839" width="8.009" height="17.115" transform="translate(179.31 62.631)" fill="#ff7af1"/>
        <rect id="Rectángulo_458840" data-name="Rectángulo 458840" width="8.014" height="7.894" transform="translate(164.027 71.852)" fill="#ff7af1"/>
        <rect id="Rectángulo_458841" data-name="Rectángulo 458841" width="8.014" height="34.744" transform="translate(209.873 45.002)" fill="#ff7af1"/>
        <path id="Trazado_1009860" data-name="Trazado 1009860" d="M44.607,51.433v18.7a6.216,6.216,0,0,1-1.82,4.395l-12.5,12.5a6.214,6.214,0,0,1-8.78,0l-12.5-12.5a6.215,6.215,0,0,1-1.82-4.395v-18.7a6.211,6.211,0,0,1,4.3-5.909l12.5-4.046a6.22,6.22,0,0,1,3.821,0l12.5,4.046a6.205,6.205,0,0,1,4.3,5.909" transform="translate(-4.201 -24.065)" fill="#fff"/>
        <path id="Trazado_1009861" data-name="Trazado 1009861" d="M29.585,87.664a6.214,6.214,0,0,1-8.079-.608L9.008,74.562a6.223,6.223,0,0,1-1.824-4.4v-18.7a6.216,6.216,0,0,1,4.3-5.91l12.5-4.048a6.015,6.015,0,0,1,1.49-.279l-9.7,3.139a6.207,6.207,0,0,0-4.3,5.91v18.7A6.215,6.215,0,0,0,13.3,73.374l12.5,12.5a6.216,6.216,0,0,0,3.79,1.791" transform="translate(-4.199 -24.096)" fill="#ff7af1"/>
        <path id="Trazado_1009862" data-name="Trazado 1009862" d="M25.3,88.665a6.615,6.615,0,0,1-4.692-1.941L8.1,74.228a6.6,6.6,0,0,1-1.945-4.7v-18.7a6.618,6.618,0,0,1,4.6-6.316l12.5-4.046a6.606,6.606,0,0,1,4.085,0L34.83,42.89a.428.428,0,0,1-.263.814l-7.488-2.424a5.757,5.757,0,0,0-3.559,0l-12.5,4.046a5.764,5.764,0,0,0-4,5.5v18.7a5.751,5.751,0,0,0,1.695,4.092l12.5,12.5a5.788,5.788,0,0,0,8.176,0l12.5-12.5a5.749,5.749,0,0,0,1.7-4.092v-18.7a5.762,5.762,0,0,0-4-5.5.428.428,0,1,1,.262-.814,6.614,6.614,0,0,1,4.6,6.316v18.7a6.6,6.6,0,0,1-1.945,4.7l-12.5,12.5A6.617,6.617,0,0,1,25.3,88.665" transform="translate(-3.6 -23.461)" fill="#2e186b"/>
        <path id="Trazado_1009863" data-name="Trazado 1009863" d="M36.157,95.6A2.2,2.2,0,0,1,34.6,94.95l-4.365-4.365a2.205,2.205,0,0,1,3.119-3.118l2.805,2.805L44.626,81.8a2.205,2.205,0,0,1,3.118,3.119L37.716,94.95a2.2,2.2,0,0,1-1.559.646" transform="translate(-17.292 -47.432)" fill="#2e186b"/>
        <path id="Trazado_1009864" data-name="Trazado 1009864" d="M380.415,27.492a.428.428,0,0,1-.307-.726l9.146-9.422a.428.428,0,0,1,.614.6l-9.145,9.422a.427.427,0,0,1-.307.13" transform="translate(-222.081 -10.061)" fill="#2e186b"/>
        <path id="Trazado_1009865" data-name="Trazado 1009865" d="M356.864,31.089a.428.428,0,0,1-.307-.726l9.146-9.422a.428.428,0,0,1,.614.6l-9.145,9.422a.427.427,0,0,1-.307.13" transform="translate(-208.317 -12.163)" fill="#2e186b"/>
        <path id="Trazado_1009866" data-name="Trazado 1009866" d="M19.607,267.605a.428.428,0,0,1-.305-.727l11.578-11.824a.428.428,0,1,1,.611.6L19.912,267.477a.427.427,0,0,1-.305.128" transform="translate(-11.209 -148.99)" fill="#2e186b"/>
        <path id="Trazado_1009867" data-name="Trazado 1009867" d="M21.978,288.441a.428.428,0,0,1-.3-.733l6.4-6.282a.428.428,0,1,1,.6.61l-6.4,6.282a.428.428,0,0,1-.3.122" transform="translate(-12.595 -164.406)" fill="#2e186b"/>
        <path id="Trazado_1009868" data-name="Trazado 1009868" d="M453.411,287.2a.428.428,0,0,1-.3-.73l8.376-8.375a.428.428,0,0,1,.6.6l-8.375,8.376a.426.426,0,0,1-.3.125" transform="translate(-264.743 -162.456)" fill="#2e186b"/>
        <path id="Trazado_1009869" data-name="Trazado 1009869" d="M455.19,290.218a.428.428,0,0,1-.3-.734l15.027-14.657a.428.428,0,1,1,.6.612L455.489,290.1a.429.429,0,0,1-.3.121" transform="translate(-265.783 -160.55)" fill="#2e186b"/>
        <path id="Trazado_1009870" data-name="Trazado 1009870" d="M297.513,146.875c-1.919,2.689-3.922,4.55-4.472,4.157s.56-2.891,2.479-5.58,3.922-4.55,4.472-4.157-.56,2.891-2.479,5.58" transform="translate(-171.183 -82.549)" fill="#fff"/>
        <path id="Trazado_1009871" data-name="Trazado 1009871" d="M129.88,272.786c-1.919,2.689-3.922,4.55-4.472,4.157s.56-2.891,2.479-5.58,3.922-4.55,4.472-4.157-.56,2.891-2.479,5.58" transform="translate(-73.211 -156.136)" fill="#9654ff"/>
        <path id="Trazado_1009872" data-name="Trazado 1009872" d="M310.978,221.2c-1.919,2.689-3.922,4.55-4.472,4.157s.56-2.891,2.479-5.58,3.922-4.55,4.472-4.157-.56,2.891-2.479,5.58" transform="translate(-179.053 -125.988)" fill="#9654ff"/>
        <path id="Trazado_1009873" data-name="Trazado 1009873" d="M338.779,320.036c-1.919,2.689-3.922,4.55-4.472,4.157s.56-2.891,2.479-5.58,3.922-4.55,4.472-4.157-.56,2.891-2.479,5.58" transform="translate(-195.301 -183.751)" fill="#9654ff"/>
        <path id="Trazado_1009874" data-name="Trazado 1009874" d="M221.186,224.571c-1.919,2.689-3.922,4.55-4.472,4.157s.56-2.891,2.479-5.58,3.922-4.55,4.472-4.157-.56,2.891-2.479,5.58" transform="translate(-126.575 -127.957)" fill="#fff"/>
      </g>
    </g>
  </g>
</svg>
