<svg xmlns="http://www.w3.org/2000/svg" width="53" height="53" viewBox="0 0 53 53">
  <g id="Grupo_1184374" data-name="Grupo 1184374" transform="translate(-1 -1)">
    <path id="Trazado_1011223" data-name="Trazado 1011223" d="M53.75,11.509,43.491,1.25a.855.855,0,0,0-.6-.25H13.823a.855.855,0,0,0-.855.855V23.226h-9.4A2.565,2.565,0,0,0,1,25.79V48.016a2.565,2.565,0,0,0,2.565,2.565h9.4v2.565a.855.855,0,0,0,.855.855H53.145A.855.855,0,0,0,54,53.145V12.113a.855.855,0,0,0-.25-.6ZM43.742,3.918l7.34,7.34h-7.34ZM2.71,48.016V25.79a.855.855,0,0,1,.855-.855h17.1a.855.855,0,0,1,.855.855V48.016a.855.855,0,0,1-.855.855H3.565A.855.855,0,0,1,2.71,48.016ZM14.677,52.29v-1.71h5.984a2.565,2.565,0,0,0,2.565-2.565V25.79a2.565,2.565,0,0,0-2.565-2.565H14.677V2.71H42.032v9.4a.855.855,0,0,0,.855.855h9.4V52.29Z" fill="#53435c"/>
    <path id="Trazado_1011224" data-name="Trazado 1011224" d="M38.1,15.548A8.548,8.548,0,1,0,29.548,24.1,8.548,8.548,0,0,0,38.1,15.548Zm-15.387,0a6.839,6.839,0,1,1,6.839,6.839,6.839,6.839,0,0,1-6.839-6.839Z" transform="translate(-2.903 -0.871)" fill="#53435c"/>
    <path id="Trazado_1011225" data-name="Trazado 1011225" d="M31.274,21.968v-.855a2.565,2.565,0,0,0,2.565-2.565v-.855a2.565,2.565,0,0,0-2.565-2.565V12.565a.855.855,0,0,1,.855.855v.855h1.71v-.855a2.565,2.565,0,0,0-2.565-2.565V10h-1.71v.855A2.565,2.565,0,0,0,27,13.419v.855a2.565,2.565,0,0,0,2.565,2.565V19.4a.855.855,0,0,1-.855-.855v-.855H27v.855a2.565,2.565,0,0,0,2.565,2.565v.855ZM28.71,14.274v-.855a.855.855,0,0,1,.855-.855v2.565A.855.855,0,0,1,28.71,14.274Zm2.565,2.565a.855.855,0,0,1,.855.855v.855a.855.855,0,0,1-.855.855Z" transform="translate(-3.774 -1.306)" fill="#53435c"/>
    <path id="Trazado_1011226" data-name="Trazado 1011226" d="M43,23H56.677v1.71H43Z" transform="translate(-6.097 -3.194)" fill="#53435c"/>
    <path id="Trazado_1011227" data-name="Trazado 1011227" d="M43,19H56.677v1.71H43Z" transform="translate(-6.097 -2.613)" fill="#53435c"/>
    <path id="Trazado_1011228" data-name="Trazado 1011228" d="M29,30H54.645v1.71H29Z" transform="translate(-4.065 -4.21)" fill="#53435c"/>
    <path id="Trazado_1011229" data-name="Trazado 1011229" d="M29,34H54.645v1.71H29Z" transform="translate(-4.065 -4.79)" fill="#53435c"/>
    <path id="Trazado_1011230" data-name="Trazado 1011230" d="M29,38H54.645v1.71H29Z" transform="translate(-4.065 -5.371)" fill="#53435c"/>
    <path id="Trazado_1011231" data-name="Trazado 1011231" d="M29,42H54.645v1.71H29Z" transform="translate(-4.065 -5.952)" fill="#53435c"/>
    <path id="Trazado_1011232" data-name="Trazado 1011232" d="M19.532,31H5.855A.855.855,0,0,0,5,31.855v5.129a.855.855,0,0,0,.855.855H19.532a.855.855,0,0,0,.855-.855V31.855A.855.855,0,0,0,19.532,31Zm-.855,5.129H6.71V32.71H18.677Z" transform="translate(-0.581 -4.355)" fill="#53435c"/>
    <path id="Trazado_1011233" data-name="Trazado 1011233" d="M21.129,41H16.855a.855.855,0,0,0-.855.855V52.113a.855.855,0,0,0,.855.855h4.274a.855.855,0,0,0,.855-.855V41.855A.855.855,0,0,0,21.129,41Zm-.855,10.258H17.71V42.71h2.565Z" transform="translate(-2.177 -5.806)" fill="#53435c"/>
    <path id="Trazado_1011234" data-name="Trazado 1011234" d="M12.694,41H5.855A.855.855,0,0,0,5,41.855V52.113a.855.855,0,0,0,.855.855h6.839a.855.855,0,0,0,.855-.855V41.855A.855.855,0,0,0,12.694,41ZM6.71,46.129h1.71v1.71H6.71Zm3.419,0h1.71v1.71h-1.71Zm1.71-1.71h-1.71V42.71h1.71ZM6.71,42.71h1.71v1.71H6.71Zm0,6.839h1.71v1.71H6.71Zm5.129,1.71h-1.71v-1.71h1.71Z" transform="translate(-0.581 -5.806)" fill="#53435c"/>
    <path id="Trazado_1011235" data-name="Trazado 1011235" d="M39,55H56.1v1.71H39Z" transform="translate(-5.516 -7.839)" fill="#53435c"/>
    <path id="Trazado_1011236" data-name="Trazado 1011236" d="M45,51H56.968v1.71H45Z" transform="translate(-6.387 -7.258)" fill="#53435c"/>
  </g>
</svg>
