<svg id="Grupo_1183452" data-name="Grupo 1183452" xmlns="http://www.w3.org/2000/svg" width="53.422" height="53.422" viewBox="0 0 53.422 53.422">
  <g id="Grupo_1183255" data-name="Grupo 1183255">
    <g id="Grupo_1183254" data-name="Grupo 1183254">
      <path id="Trazado_1008718" data-name="Trazado 1008718" d="M50.292,0H3.13A3.134,3.134,0,0,0,0,3.13V39.023a3.134,3.134,0,0,0,3.13,3.13H21.077v9.182H17.112a1.043,1.043,0,1,0,0,2.087h19.2a1.043,1.043,0,0,0,0-2.087H32.345V42.153H50.292a3.134,3.134,0,0,0,3.13-3.13V3.13A3.134,3.134,0,0,0,50.292,0ZM30.258,51.335h-7.1V42.153h7.1ZM51.335,39.023a1.045,1.045,0,0,1-1.043,1.043H3.13a1.045,1.045,0,0,1-1.043-1.043V34.849H51.335Zm0-34.849H40.076a1.043,1.043,0,0,0,0,2.087H51.335v26.5H2.087V30.676H12.824a1.043,1.043,0,0,0,0-2.087H2.087V3.13A1.045,1.045,0,0,1,3.13,2.087H50.292A1.045,1.045,0,0,1,51.335,3.13Z" fill="#53435c"/>
    </g>
  </g>
  <g id="Grupo_1183257" data-name="Grupo 1183257" transform="translate(25.766 36.415)">
    <g id="Grupo_1183256" data-name="Grupo 1183256">
      <path id="Trazado_1008719" data-name="Trazado 1008719" d="M247.99,349a1.043,1.043,0,0,0,0,2.087H248a1.043,1.043,0,0,0-.01-2.087Z" transform="translate(-246.947 -349)" fill="#53435c"/>
    </g>
  </g>
  <g id="Grupo_1183259" data-name="Grupo 1183259" transform="translate(3.443 10.602)">
    <g id="Grupo_1183258" data-name="Grupo 1183258">
      <path id="Trazado_1008720" data-name="Trazado 1008720" d="M47.4,113.132h-.313v-4.8H47.4a1.043,1.043,0,0,0,.595-1.9L41.315,101.8a1.043,1.043,0,0,0-1.189,0l-6.678,4.631a1.043,1.043,0,0,0,.595,1.9h.1v4.8h-.1a1.043,1.043,0,1,0,0,2.087H47.4a1.043,1.043,0,1,0,0-2.087Zm-6.678-9.2,3.342,2.318H37.378Zm-2.922,9.2H36.234v-4.8H37.8Zm3.549,0H39.886v-4.8h1.462Zm3.65,0H43.435v-4.8H45Z" transform="translate(-32.999 -101.614)" fill="#53435c"/>
    </g>
  </g>
  <g id="Grupo_1183261" data-name="Grupo 1183261" transform="translate(42.429 16.871)">
    <g id="Grupo_1183260" data-name="Grupo 1183260">
      <path id="Trazado_1008721" data-name="Trazado 1008721" d="M409.126,161.693h-1.44a1.043,1.043,0,0,0,0,2.087h1.44a1.043,1.043,0,0,0,0-2.087Z" transform="translate(-406.642 -161.693)" fill="#53435c"/>
    </g>
  </g>
  <g id="Grupo_1183263" data-name="Grupo 1183263" transform="translate(28.334 16.871)">
    <g id="Grupo_1183262" data-name="Grupo 1183262">
      <path id="Trazado_1008722" data-name="Trazado 1008722" d="M274.039,161.693H272.6a1.043,1.043,0,1,0,0,2.087h1.44a1.043,1.043,0,0,0,0-2.087Z" transform="translate(-271.555 -161.693)" fill="#53435c"/>
    </g>
  </g>
  <g id="Grupo_1183265" data-name="Grupo 1183265" transform="translate(24.415 10.609)">
    <g id="Grupo_1183264" data-name="Grupo 1183264">
      <path id="Trazado_1008723" data-name="Trazado 1008723" d="M258.415,101.675H235.043A1.044,1.044,0,0,0,234,102.718v12.525a1.044,1.044,0,0,0,1.043,1.043h23.372a1.044,1.044,0,0,0,1.043-1.043V102.718A1.044,1.044,0,0,0,258.415,101.675Zm-22.329,2.087h1.566a2.825,2.825,0,0,1-1.566,1.566Zm0,10.438v-1.566a2.826,2.826,0,0,1,1.566,1.566Zm17.544,0h-13.8a4.911,4.911,0,0,0-3.741-3.741V107.5a4.911,4.911,0,0,0,3.741-3.741h13.8a4.911,4.911,0,0,0,3.741,3.741v2.956A4.911,4.911,0,0,0,253.631,114.2Zm3.741,0h-1.566a2.825,2.825,0,0,1,1.566-1.566Zm0-8.872a2.825,2.825,0,0,1-1.566-1.566h1.566Z" transform="translate(-234 -101.675)" fill="#53435c"/>
    </g>
  </g>
  <g id="Grupo_1183267" data-name="Grupo 1183267" transform="translate(33.18 13.949)">
    <g id="Grupo_1183266" data-name="Grupo 1183266">
      <path id="Trazado_1008724" data-name="Trazado 1008724" d="M321.965,133.693a3.965,3.965,0,1,0,3.965,3.965A3.969,3.969,0,0,0,321.965,133.693Zm0,5.843a1.878,1.878,0,1,1,1.878-1.878A1.88,1.88,0,0,1,321.965,139.536Z" transform="translate(-318 -133.693)" fill="#53435c"/>
    </g>
  </g>
  <g id="Grupo_1183269" data-name="Grupo 1183269" transform="translate(18.181 16.784)">
    <g id="Grupo_1183268" data-name="Grupo 1183268">
      <path id="Trazado_1008725" data-name="Trazado 1008725" d="M179.311,162.561l-1.4-1.4a1.043,1.043,0,0,0-1.718,1.092h-.9a1.043,1.043,0,0,0,0,2.087h.9a1.043,1.043,0,0,0,1.718,1.092l1.4-1.4A1.044,1.044,0,0,0,179.311,162.561Z" transform="translate(-174.25 -160.858)" fill="#53435c"/>
    </g>
  </g>
  <g id="Grupo_1183271" data-name="Grupo 1183271" transform="translate(15.686 28.589)">
    <g id="Grupo_1183270" data-name="Grupo 1183270">
      <path id="Trazado_1008726" data-name="Trazado 1008726" d="M152.121,274.306a1.043,1.043,0,1,0,.306.738A1.051,1.051,0,0,0,152.121,274.306Z" transform="translate(-150.34 -274)" fill="#53435c"/>
    </g>
  </g>
  <g id="Grupo_1183273" data-name="Grupo 1183273" transform="translate(35.127 4.174)">
    <g id="Grupo_1183272" data-name="Grupo 1183272">
      <path id="Trazado_1008727" data-name="Trazado 1008727" d="M338.441,40.306a1.043,1.043,0,1,0,.306.738A1.051,1.051,0,0,0,338.441,40.306Z" transform="translate(-336.66 -40)" fill="#53435c"/>
    </g>
  </g>
</svg>
