<svg xmlns="http://www.w3.org/2000/svg" width="52.996" height="53" viewBox="0 0 52.996 53">
  <g id="Grupo_1184376" data-name="Grupo 1184376" transform="translate(-1 -0.995)">
    <rect id="Rectángulo_459219" data-name="Rectángulo 459219" width="1.71" height="1.71" transform="translate(29.207 5.273)" fill="#53435c"/>
    <path id="Trazado_1011240" data-name="Trazado 1011240" d="M32.419,35a3.419,3.419,0,1,0,3.419,3.419A3.419,3.419,0,0,0,32.419,35Zm0,5.129a1.71,1.71,0,1,1,1.71-1.71A1.71,1.71,0,0,1,32.419,40.129Z" transform="translate(-4.067 -4.939)" fill="#53435c"/>
    <path id="Trazado_1011241" data-name="Trazado 1011241" d="M51.328,26.642a2.65,2.65,0,0,0-1.886.781l-2.284,2.284V10.4a2.564,2.564,0,0,0-2.564-2.564H40.319a2.564,2.564,0,0,0-2.564-2.564H35.12A5.129,5.129,0,0,0,25,5.273H22.369A2.564,2.564,0,0,0,19.8,7.837H15.531A2.564,2.564,0,0,0,12.967,10.4v7.693h-9.4A2.564,2.564,0,0,0,1,20.659v17.1a2.564,2.564,0,0,0,2.564,2.564h9.4V51.43a2.564,2.564,0,0,0,2.564,2.564H44.593a2.564,2.564,0,0,0,2.564-2.564V37.253L53.214,31.2a2.668,2.668,0,0,0-1.886-4.554ZM21.514,7.837a.855.855,0,0,1,.855-.855h3.419a.855.855,0,0,0,.855-.855,3.419,3.419,0,1,1,6.838,0,.855.855,0,0,0,.855.855h3.419a.855.855,0,0,1,.855.855v3.419h-17.1ZM14.676,10.4a.855.855,0,0,1,.855-.855H19.8v2.564a.855.855,0,0,0,.855.855h18.8a.855.855,0,0,0,.855-.855V9.547h4.274a.855.855,0,0,1,.855.855V31.417l-1.71,1.71V15.53a.855.855,0,0,0-.855-.855H17.241a.855.855,0,0,0-.855.855v2.564h-1.71ZM35.96,43.32l.085-.085L37.4,44.592l-.085.085-1.807.452Zm-1.376-1.042a.855.855,0,0,0-.225.4L33.5,46.095a.856.856,0,0,0,1.039,1.036l3.419-.855a.855.855,0,0,0,.4-.225l3.669-3.669v6.484H18.1V40.318H32.626a2.564,2.564,0,0,0,2.564-2.564v-17.1a2.564,2.564,0,0,0-2.564-2.564H18.1v-1.71H42.029V34.836Zm-1.1-15.636H2.71v-1.71H33.481ZM3.564,19.8H32.626a.855.855,0,0,1,.855.855v2.564H2.71V20.659A.855.855,0,0,1,3.564,19.8ZM2.71,37.754v-9.4H33.481v9.4a.855.855,0,0,1-.855.855H3.564A.855.855,0,0,1,2.71,37.754ZM45.448,51.43a.855.855,0,0,1-.855.855H15.531a.855.855,0,0,1-.855-.855V40.318h1.71v9.4a.855.855,0,0,0,.855.855H42.883a.855.855,0,0,0,.855-.855V40.672l1.71-1.71Zm6.558-21.443-13.4,13.4-1.356-1.356,13.4-13.4a.958.958,0,0,1,1.636.678.968.968,0,0,1-.28.678Z" fill="#53435c"/>
  </g>
</svg>
