<svg xmlns="http://www.w3.org/2000/svg" width="84" height="84" viewBox="0 0 84 84">
  <g id="Grupo_1183455" data-name="Grupo 1183455" transform="translate(-383.457 -8400)">
    <circle id="Elipse_13609" data-name="Elipse 13609" cx="42" cy="42" r="42" transform="translate(383.457 8400)" fill="#cfa9e6"/>
    <g id="Grupo_1184377" data-name="Grupo 1184377" transform="translate(401.508 8417)">
      <path id="Trazado_1011242" data-name="Trazado 1011242" d="M12.2,44.825a.759.759,0,0,0,1.186,0l3.037-3.8a.759.759,0,0,0-.593-1.234h-.759V36.759A.759.759,0,0,0,14.314,36H11.277a.759.759,0,0,0-.759.759V39.8H9.759a.759.759,0,0,0-.593,1.234Zm-.166-4.27V37.518h1.518v3.037a.759.759,0,0,0,.7.759L12.8,43.136l-1.459-1.822a.759.759,0,0,0,.7-.759Z" transform="translate(-1.939 -8.431)" fill="#53435c"/>
      <path id="Trazado_1011243" data-name="Trazado 1011243" d="M15.591,49.518H9.518V48H8v2.277a.759.759,0,0,0,.759.759H16.35a.759.759,0,0,0,.759-.759V48H15.591Z" transform="translate(-1.698 -11.321)" fill="#53435c"/>
      <path id="Trazado_1011244" data-name="Trazado 1011244" d="M47.295,1h-33.4a.759.759,0,0,0-.759.759v22.29a9.869,9.869,0,1,0,0,19.186v4.071a.759.759,0,0,0,.759.759h33.4a.759.759,0,0,0,.759-.759V1.759A.759.759,0,0,0,47.295,1Zm-.759,1.518V7.073H14.652V2.518ZM14.652,8.591H46.535V40.475H17.961A9.918,9.918,0,0,0,19.6,38.2H32.871V36.679H20.242a9.785,9.785,0,0,0,.444-2.277H32.871V32.883H20.686a9.785,9.785,0,0,0-.444-2.277H32.871V29.088H19.6a9.92,9.92,0,0,0-4.95-4.555ZM2.506,33.642a8.35,8.35,0,1,1,8.35,8.35A8.35,8.35,0,0,1,2.506,33.642ZM14.652,46.548v-3.8a9.836,9.836,0,0,0,1.442-.759H46.535v4.555Z" transform="translate(0)" fill="#53435c"/>
      <path id="Trazado_1011245" data-name="Trazado 1011245" d="M54.869,37h-9.11a.759.759,0,0,0-.759.759v9.11a.759.759,0,0,0,.759.759h9.11a.759.759,0,0,0,.759-.759v-9.11A.759.759,0,0,0,54.869,37Zm-.759,9.11H46.518V38.518H54.11Z" transform="translate(-10.611 -8.671)" fill="#53435c"/>
      <path id="Trazado_1011246" data-name="Trazado 1011246" d="M23.277,26.664H24.8V25.038a3.03,3.03,0,0,0-.759-5.965,1.518,1.518,0,1,1,1.518-1.518h1.518A3.037,3.037,0,0,0,24.8,14.626V13H23.277v1.626a3.03,3.03,0,0,0,.759,5.965,1.518,1.518,0,1,1-1.518,1.518H21a3.037,3.037,0,0,0,2.277,2.929Z" transform="translate(-4.83 -2.89)" fill="#53435c"/>
      <path id="Trazado_1011247" data-name="Trazado 1011247" d="M54.037,23.628a1.518,1.518,0,0,1-1.518-1.518H51a3.037,3.037,0,0,0,2.277,2.929v1.626H54.8V25.038a3.03,3.03,0,0,0-.759-5.965,1.518,1.518,0,1,1,1.518-1.518h1.518A3.037,3.037,0,0,0,54.8,14.626V13H53.277v1.626a3.03,3.03,0,0,0,.759,5.965,1.518,1.518,0,0,1,0,3.037Z" transform="translate(-12.056 -2.89)" fill="#53435c"/>
      <path id="Trazado_1011248" data-name="Trazado 1011248" d="M40.573,23.366l1.073,1.073L44.683,21.4a.759.759,0,0,0,0-1.073l-3.037-3.037-1.073,1.073,1.741,1.741H32v1.518H42.314Z" transform="translate(-7.479 -3.925)" fill="#53435c"/>
    </g>
  </g>
</svg>
