<svg xmlns="http://www.w3.org/2000/svg" width="128" height="128" viewBox="0 0 128 128">
  <g id="Grupo_1183456" data-name="Grupo 1183456" transform="translate(-383.457 -8399.839)">
    <path id="Trazado_997401" data-name="Trazado 997401" d="M64,0A64,64,0,1,1,0,64,64,64,0,0,1,64,0Z" transform="translate(383.457 8399.839)" fill="#7be888"/>
    <path id="Trazado_1011249" data-name="Trazado 1011249" d="M66.585,61.209H65.51V10.676a1.075,1.075,0,0,0-1.835-.76L30.029,43.561,22.188,35.72a1.075,1.075,0,0,0-1.52,0l-7.841,7.841L7.451,38.186V28.324l4.616,4.616a1.075,1.075,0,0,0,1.52,0L21.428,25.1l7.841,7.841a1.075,1.075,0,0,0,1.52,0L54.758,8.971v3.856h2.15V6.376A1.075,1.075,0,0,0,55.833,5.3H49.382v2.15h3.856L30.029,30.659l-7.841-7.841a1.075,1.075,0,0,0-1.52,0l-7.841,7.841L7.451,25.284V2.075A1.075,1.075,0,0,0,6.376,1h-4.3A1.075,1.075,0,0,0,1,2.075v64.51A1.075,1.075,0,0,0,2.075,67.66h64.51a1.075,1.075,0,0,0,1.075-1.075v-4.3A1.075,1.075,0,0,0,66.585,61.209Zm-3.225,0H56.909V19.723l6.451-6.451ZM13.9,45.527l6.451-6.451V61.209H13.9Zm8.6-6.451,6.451,6.451V61.209H22.5Zm8.6,6.451,6.451-6.451V61.209H31.1Zm8.6,15.682V36.927l6.451-6.451V61.209Zm8.6-32.885,6.451-6.451V61.209H48.307Zm-36.556,17.2V61.209h-4.3V41.226ZM65.51,65.51H3.15V3.15H5.3V62.284A1.075,1.075,0,0,0,6.376,63.36H65.51Z" transform="translate(413.127 8429.509)" fill="#53435c"/>
  </g>
</svg>
