<svg xmlns="http://www.w3.org/2000/svg" width="128" height="128" viewBox="0 0 128 128">
  <g id="Grupo_1183457" data-name="Grupo 1183457" transform="translate(-383.746 -8400)">
    <circle id="Elipse_13609" data-name="Elipse 13609" cx="64" cy="64" r="64" transform="translate(383.746 8400)" fill="#7be888"/>
    <g id="Grupo_1184386" data-name="Grupo 1184386" transform="translate(412.709 8428.964)">
      <path id="Trazado_1011250" data-name="Trazado 1011250" d="M65.429,32H61.037a1.1,1.1,0,0,0-1.1,1.1V59.449h-2.2V44.078a1.1,1.1,0,0,0-1.1-1.1H50.057a1.1,1.1,0,0,0-1.1,1.1V59.449h-2.2V51.763a1.1,1.1,0,0,0-1.1-1.1H39.078a1.1,1.1,0,0,0-1.1,1.1v7.686h-2.2v-5.49a1.1,1.1,0,0,0-1.1-1.1H28.1a1.1,1.1,0,0,0-1.1,1.1v10.98a1.1,1.1,0,0,0,1.1,1.1H65.429a1.1,1.1,0,0,0,1.1-1.1V33.1A1.1,1.1,0,0,0,65.429,32ZM51.155,45.176h4.392V59.449H51.155Zm-10.98,7.686h4.392v6.588H40.176Zm-6.588,2.2v4.392H29.2V55.057Zm30.743,8.784H29.2v-2.2H61.037a1.1,1.1,0,0,0,1.1-1.1V34.2h2.2Z" transform="translate(2.547 3.037)" fill="#53435c"/>
      <path id="Trazado_1011251" data-name="Trazado 1011251" d="M51.253,27.1a1.1,1.1,0,0,0-1.1-1.1H27.1A1.1,1.1,0,0,0,26,27.1V50.155a1.1,1.1,0,0,0,1.1,1.1A24.183,24.183,0,0,0,51.253,27.1ZM28.2,28.2H49.031A21.991,21.991,0,0,1,28.2,49.03Z" transform="translate(2.449 2.449)" fill="#53435c"/>
      <path id="Trazado_1011252" data-name="Trazado 1011252" d="M67.976,1H52.6a1.1,1.1,0,0,0-1.1,1.1v8.784a1.1,1.1,0,0,0,1.1,1.1h6.588v2.2H46.66A24.148,24.148,0,1,0,13.078,46.061V55.9H2.1A1.1,1.1,0,0,0,1,57v10.98a1.1,1.1,0,0,0,1.1,1.1H26.253a1.1,1.1,0,0,0,1.1-1.1V57a1.1,1.1,0,0,0-1.1-1.1H15.274v-8.71a24.007,24.007,0,0,0,9.882,2.122,1.1,1.1,0,0,0,1.1-1.1V26.253H48.213a1.1,1.1,0,0,0,1.1-1.1,24.026,24.026,0,0,0-1.66-8.784H60.29a1.1,1.1,0,0,0,1.1-1.1V11.98h6.588a1.1,1.1,0,0,0,1.1-1.1V2.1A1.1,1.1,0,0,0,67.976,1ZM25.155,66.878H3.2V58.095H25.155ZM15.274,44.739v-13h3.294v-2.2H14.176a1.1,1.1,0,0,0-1.1,1.1V43.46A21.865,21.865,0,0,1,8.9,10.448L24.057,25.61V47.087a21.767,21.767,0,0,1-8.784-2.349ZM47.088,24.058H25.61L10.448,8.9a21.895,21.895,0,0,1,33.714,5.28H29.547a1.1,1.1,0,0,0-1.1,1.1v3.294h2.2v-2.2H45.261A21.784,21.784,0,0,1,47.088,24.058ZM66.878,9.784H53.7V3.2H66.878Z" transform="translate(0 0)" fill="#53435c"/>
      <path id="Trazado_1011253" data-name="Trazado 1011253" d="M5,56h8.784v2.2H5Z" transform="translate(0.392 5.388)" fill="#53435c"/>
      <path id="Trazado_1011254" data-name="Trazado 1011254" d="M15,56h6.588v2.2H15Z" transform="translate(1.372 5.388)" fill="#53435c"/>
      <path id="Trazado_1011255" data-name="Trazado 1011255" d="M51,5h8.784V7.2H51Z" transform="translate(4.898 0.392)" fill="#53435c"/>
    </g>
  </g>
</svg>
