<svg xmlns="http://www.w3.org/2000/svg" width="84" height="84" viewBox="0 0 84 84">
  <g id="Grupo_1183358" data-name="Grupo 1183358" transform="translate(-383.746 -8400)">
    <circle id="Elipse_13609" data-name="Elipse 13609" cx="42" cy="42" r="42" transform="translate(383.746 8400)" fill="#cfa9e6"/>
    <g id="Grupo_1184337" data-name="Grupo 1184337" transform="translate(399.05 8415.304)">
      <path id="Trazado_1011080" data-name="Trazado 1011080" d="M48.248,7.631H40.3L33.914,1.243A.829.829,0,0,0,33.328,1H13.434a.829.829,0,0,0-.829.829v5.8H5.145A4.15,4.15,0,0,0,1,11.776V38.3a4.15,4.15,0,0,0,4.145,4.145h14.6l-1.126,3.378a4.14,4.14,0,0,0-3.527,4.082,2.487,2.487,0,0,0,2.487,2.487H35.814A2.487,2.487,0,0,0,38.3,49.906a4.14,4.14,0,0,0-3.527-4.082l-1.126-3.378h14.6A4.15,4.15,0,0,0,52.393,38.3V11.776a4.15,4.15,0,0,0-4.145-4.145ZM34.157,3.83l3.8,3.8h-3.8ZM14.263,2.658H32.5v5.8a.829.829,0,0,0,.829.829h5.8V32.5H14.263Zm25.7,31.5a.829.829,0,0,0,.829-.829V12.6h6.631V37.472H5.973V12.6H12.6V33.328a.829.829,0,0,0,.829.829ZM36.643,49.906a.829.829,0,0,1-.829.829H17.578a.829.829,0,0,1-.829-.829,2.487,2.487,0,0,1,2.487-2.487h14.92A2.487,2.487,0,0,1,36.643,49.906Zm-3.636-4.145H20.386l1.1-3.316H31.9ZM50.735,38.3a2.487,2.487,0,0,1-2.487,2.487H5.145A2.487,2.487,0,0,1,2.658,38.3V11.776A2.487,2.487,0,0,1,5.145,9.289H12.6v1.658H5.145a.829.829,0,0,0-.829.829V38.3a.829.829,0,0,0,.829.829h43.1a.829.829,0,0,0,.829-.829V11.776a.829.829,0,0,0-.829-.829h-7.46V9.289h7.46a2.487,2.487,0,0,1,2.487,2.487Z" fill="#53435c"/>
      <path id="Trazado_1011081" data-name="Trazado 1011081" d="M22.487,16.6v1.658h1.658V16.6a2.487,2.487,0,0,0,2.487-2.487v-.829A2.487,2.487,0,0,0,24.145,10.8V8.316a.829.829,0,0,1,.829.829v.829h1.658V9.145a2.487,2.487,0,0,0-2.487-2.487V5H22.487V6.658A2.487,2.487,0,0,0,20,9.145v.829a2.487,2.487,0,0,0,2.487,2.487v2.487a.829.829,0,0,1-.829-.829v-.829H20v.829A2.487,2.487,0,0,0,22.487,16.6Zm-.829-6.631V9.145a.829.829,0,0,1,.829-.829V10.8A.829.829,0,0,1,21.658,9.973Zm2.487,2.487a.829.829,0,0,1,.829.829v.829a.829.829,0,0,1-.829.829Z" transform="translate(-3.251 -0.684)" fill="#53435c"/>
      <path id="Trazado_1011082" data-name="Trazado 1011082" d="M32,14h5.8v1.658H32Z" transform="translate(-5.304 -2.224)" fill="#53435c"/>
      <path id="Trazado_1011083" data-name="Trazado 1011083" d="M41,14h3.316v1.658H41Z" transform="translate(-6.843 -2.224)" fill="#53435c"/>
      <path id="Trazado_1011084" data-name="Trazado 1011084" d="M30,18H42.434v1.658H30Z" transform="translate(-4.962 -2.908)" fill="#53435c"/>
      <path id="Trazado_1011085" data-name="Trazado 1011085" d="M19,22H40.552v1.658H19Z" transform="translate(-3.08 -3.593)" fill="#53435c"/>
      <path id="Trazado_1011086" data-name="Trazado 1011086" d="M19,26H40.552v1.658H19Z" transform="translate(-3.08 -4.277)" fill="#53435c"/>
      <path id="Trazado_1011087" data-name="Trazado 1011087" d="M19,30H40.552v1.658H19Z" transform="translate(-3.08 -4.962)" fill="#53435c"/>
      <path id="Trazado_1011088" data-name="Trazado 1011088" d="M19,34H40.552v1.658H19Z" transform="translate(-3.08 -5.646)" fill="#53435c"/>
    </g>
  </g>
</svg>
