<svg xmlns="http://www.w3.org/2000/svg" width="98" height="98" viewBox="0 0 98 98">
  <g id="Grupo_1177473" data-name="Grupo 1177473" transform="translate(-289.609 -11611.898)">
    <g id="Grupo_1177473-2" data-name="Grupo 1177473" transform="translate(289.609 11611.898)">
      <ellipse id="Elipse_13609" data-name="Elipse 13609" cx="49" cy="49" rx="49" ry="49" transform="translate(0)" fill="#fff"/>
      <g id="Grupo_1184104" data-name="Grupo 1184104" transform="translate(22.267 22.266)">
        <path id="Trazado_1010799" data-name="Trazado 1010799" d="M17.49,16.622h16.6a2.49,2.49,0,0,0,2.49-2.49V7.49A2.49,2.49,0,0,0,34.093,5H17.49A2.49,2.49,0,0,0,15,7.49v6.641A2.49,2.49,0,0,0,17.49,16.622ZM16.66,7.49a.83.83,0,0,1,.83-.83h16.6a.83.83,0,0,1,.83.83v6.641a.83.83,0,0,1-.83.83H17.49a.83.83,0,0,1-.83-.83Z" transform="translate(-2.378 -0.68)" fill="#53435c"/>
        <path id="Trazado_1010800" data-name="Trazado 1010800" d="M52.467,5.839a3.178,3.178,0,0,0-5.425-2.247L42.505,8.127h0V3.49A2.49,2.49,0,0,0,40.015,1H3.49A2.49,2.49,0,0,0,1,3.49V49.976a2.49,2.49,0,0,0,2.49,2.49H40.015a2.49,2.49,0,0,0,2.49-2.49V17.116l.83-.83.243.243a.83.83,0,0,0,1.174,0l2.49-2.49a.83.83,0,0,0,0-1.174L47,12.622l4.537-4.537a3.154,3.154,0,0,0,.931-2.246ZM40.845,49.976a.83.83,0,0,1-.83.83H3.49a.83.83,0,0,1-.83-.83V3.49a.83.83,0,0,1,.83-.83H40.015a.83.83,0,0,1,.83.83V8.127L38.6,10.374a.83.83,0,0,0,0,1.174l.243.243L31.37,19.262H5.151a.83.83,0,0,0-.83.83V46.656a.83.83,0,0,0,.83.83h33.2a.83.83,0,0,0,.83-.83V20.436l1.66-1.66ZM17.6,32.544H12.622V27.563H17.6Zm1.66-4.981h4.981v4.981H19.262ZM17.6,34.2v4.981H12.622V34.2Zm1.66,0h4.981v4.981H19.262Zm6.641,0h4.981v4.981H25.9Zm0-1.66V27.563h4.981v4.981Zm0-6.641V20.923h4.077L27.846,25.9Zm-1.66,0H19.262V20.923h4.981Zm-6.641,0H12.622V20.923H17.6Zm-6.641,0H5.981V20.923h4.981Zm-4.981,1.66h4.981v4.981H5.981Zm0,6.641h4.981v4.981H5.981Zm0,6.641h4.981v4.981H5.981Zm6.641,0H17.6v4.981H12.622Zm6.641,0h4.981v4.981H19.262Zm6.641,0h4.981v4.981H25.9Zm6.641,0h4.981v4.981H32.544Zm4.981-1.66H32.544V34.2h4.981Zm0-6.641H32.544V27.563h4.981Zm0-6.641H32.544v-.046l1.987-.852a.83.83,0,0,0,.26-.176L37.525,22.1Zm-7.554-.747,1.19-2.777,1.586,1.587ZM34.2,23.073l-2.147-2.15,7.957-7.957,2.147,2.147Zm9.961-8.3-3.807-3.81,1.317-1.317,3.807,3.807ZM43.679,9.3l2.147-2.147L47.973,9.3l-2.147,2.147Zm6.683-2.389L49.146,8.127,47,5.981l1.216-1.216a1.518,1.518,0,0,1,2.147,2.147Z" fill="#53435c"/>
        <path id="Trazado_1010801" data-name="Trazado 1010801" d="M7.49,15.791v.83h1.66v-.83a2.49,2.49,0,0,0,2.49-2.49v-.83a2.49,2.49,0,0,0-2.49-2.49V7.49a.83.83,0,0,1,.83.83v.83h1.66V8.32a2.49,2.49,0,0,0-2.49-2.49V5H7.49v.83A2.49,2.49,0,0,0,5,8.32v.83a2.49,2.49,0,0,0,2.49,2.49v2.49a.83.83,0,0,1-.83-.83v-.83H5v.83A2.49,2.49,0,0,0,7.49,15.791ZM6.66,9.151V8.32a.83.83,0,0,1,.83-.83v2.49A.83.83,0,0,1,6.66,9.151Zm2.49,2.49a.83.83,0,0,1,.83.83v.83a.83.83,0,0,1-.83.83Z" transform="translate(-0.68 -0.68)" fill="#53435c"/>
      </g>
    </g>
  </g>
</svg>
