<svg xmlns="http://www.w3.org/2000/svg" width="98" height="98" viewBox="0 0 98 98">
  <g id="Grupo_1184106" data-name="Grupo 1184106" transform="translate(-289.609 -11611.898)">
    <g id="Grupo_1177473" data-name="Grupo 1177473" transform="translate(289.609 11611.898)">
      <ellipse id="Elipse_13609" data-name="Elipse 13609" cx="49" cy="49" rx="49" ry="49" transform="translate(0)" fill="#fff"/>
      <g id="Grupo_1183144" data-name="Grupo 1183144" transform="translate(22.041 22.231)">
        <g id="Grupo_1183143" data-name="Grupo 1183143" transform="translate(0.213 0)">
          <path id="Trazado_1008186" data-name="Trazado 1008186" d="M155.407,53.309a.784.784,0,0,0,.784-.784v-.91a3.841,3.841,0,0,0,3.014-3.151,3.372,3.372,0,0,0-2.322-3.859c-.228-.081-.461-.165-.693-.253V40.645a2.39,2.39,0,0,1,.962.462.784.784,0,0,0,1.058-1.158,4.049,4.049,0,0,0-2.02-.9v-.757a.784.784,0,1,0-1.568,0v.817c-.116.026-.234.055-.355.091a3.193,3.193,0,0,0-2.187,2.505,2.811,2.811,0,0,0,.92,2.77,7.574,7.574,0,0,0,1.622.929v4.7a3.226,3.226,0,0,1-1.713-.642.784.784,0,0,0-.858,1.312,4.712,4.712,0,0,0,2.571.9v.848A.784.784,0,0,0,155.407,53.309Zm.784-7.286.17.061a1.829,1.829,0,0,1,1.3,2.12,2.305,2.305,0,0,1-1.468,1.782Zm-2.222-2.781A1.264,1.264,0,0,1,153.621,42a1.659,1.659,0,0,1,1-1.26v2.924A4.7,4.7,0,0,1,153.968,43.242Z" transform="translate(-135.858 -33.586)" fill="#53435c"/>
          <path id="Trazado_1008187" data-name="Trazado 1008187" d="M257.867,114.514h6.316a.784.784,0,1,0,0-1.568h-6.316a.784.784,0,1,0,0,1.568Z" transform="translate(-230.226 -101.137)" fill="#53435c"/>
          <path id="Trazado_1008188" data-name="Trazado 1008188" d="M366.191,112.946h-6.316a.784.784,0,1,0,0,1.568h6.316a.784.784,0,0,0,0-1.568Z" transform="translate(-321.569 -101.137)" fill="#53435c"/>
          <path id="Trazado_1008189" data-name="Trazado 1008189" d="M257.867,154.373h6.316a.784.784,0,1,0,0-1.568h-6.316a.784.784,0,1,0,0,1.568Z" transform="translate(-230.226 -136.829)" fill="#53435c"/>
          <path id="Trazado_1008190" data-name="Trazado 1008190" d="M366.191,152.8h-6.316a.784.784,0,1,0,0,1.568h6.316a.784.784,0,0,0,0-1.568Z" transform="translate(-321.569 -136.829)" fill="#53435c"/>
          <path id="Trazado_1008191" data-name="Trazado 1008191" d="M257.867,194.232h6.316a.784.784,0,1,0,0-1.568h-6.316a.784.784,0,1,0,0,1.568Z" transform="translate(-230.226 -172.52)" fill="#53435c"/>
          <path id="Trazado_1008192" data-name="Trazado 1008192" d="M366.191,192.664h-6.316a.784.784,0,1,0,0,1.568h6.316a.784.784,0,0,0,0-1.568Z" transform="translate(-321.569 -172.52)" fill="#53435c"/>
          <path id="Trazado_1008193" data-name="Trazado 1008193" d="M257.867,234.091h6.316a.784.784,0,1,0,0-1.568h-6.316a.784.784,0,1,0,0,1.568Z" transform="translate(-230.226 -208.212)" fill="#53435c"/>
          <path id="Trazado_1008194" data-name="Trazado 1008194" d="M366.191,232.523h-6.316a.784.784,0,1,0,0,1.568h6.316a.784.784,0,0,0,0-1.568Z" transform="translate(-321.569 -208.212)" fill="#53435c"/>
          <path id="Trazado_1008195" data-name="Trazado 1008195" d="M257.867,273.95h16.981a.784.784,0,1,0,0-1.568H257.867a.784.784,0,1,0,0,1.568Z" transform="translate(-230.226 -243.903)" fill="#53435c"/>
          <path id="Trazado_1008196" data-name="Trazado 1008196" d="M53.705,38.475v-.88A3.293,3.293,0,0,0,51.3,34.427V11.006a.784.784,0,1,0-1.568,0v23.3H38.848a3.291,3.291,0,0,0-3.288,3.288v.88a3.281,3.281,0,0,0,1.16,2.5,3.281,3.281,0,0,0-1.16,2.5v.88a3.281,3.281,0,0,0,1.16,2.5,3.281,3.281,0,0,0-1.16,2.5v.88a3.267,3.267,0,0,0,.487,1.72H23.417a2.438,2.438,0,0,0,.166-.885V24.538a2.455,2.455,0,0,0-2.453-2.453H11.941V1.568H49.729V7.377a.784.784,0,0,0,1.568,0V1.342A1.343,1.343,0,0,0,49.955,0H11.715a1.343,1.343,0,0,0-1.342,1.342V22.085H2.666A2.455,2.455,0,0,0,.213,24.538V51.084a2.455,2.455,0,0,0,2.453,2.453H50.418a3.291,3.291,0,0,0,3.288-3.288v-.88a3.281,3.281,0,0,0-1.16-2.5,3.281,3.281,0,0,0,1.16-2.5v-.88a3.281,3.281,0,0,0-1.16-2.5A3.281,3.281,0,0,0,53.705,38.475ZM22.015,51.084a.886.886,0,0,1-.885.885H2.666a.886.886,0,0,1-.885-.885V24.538a.886.886,0,0,1,.885-.885H21.13a.886.886,0,0,1,.885.885Zm30.122-.835a1.722,1.722,0,0,1-1.72,1.72H38.848a1.722,1.722,0,0,1-1.72-1.72v-.88a1.722,1.722,0,0,1,1.72-1.72H50.418a1.722,1.722,0,0,1,1.72,1.72v.88Zm0-5.887a1.722,1.722,0,0,1-1.72,1.72H38.848a1.722,1.722,0,0,1-1.72-1.72v-.88a1.721,1.721,0,0,1,1.72-1.719H50.418a1.722,1.722,0,0,1,1.72,1.719v.88Zm0-5.887a1.722,1.722,0,0,1-1.72,1.72H38.848a1.722,1.722,0,0,1-1.72-1.72v-.88a1.722,1.722,0,0,1,1.72-1.72H50.418a1.722,1.722,0,0,1,1.72,1.72v.88Z" transform="translate(-0.213 0)" fill="#53435c"/>
          <path id="Trazado_1008197" data-name="Trazado 1008197" d="M47.308,240.062H38.971a.784.784,0,1,0,0,1.568h8.312v4.713H33.73V241.63H35.4a.784.784,0,1,0,0-1.568h-1.7a1.545,1.545,0,0,0-1.544,1.544v4.762a1.545,1.545,0,0,0,1.544,1.544h13.6a1.545,1.545,0,0,0,1.544-1.544v-4.762a1.545,1.545,0,0,0-1.544-1.544Z" transform="translate(-28.822 -214.962)" fill="#53435c"/>
          <path id="Trazado_1008198" data-name="Trazado 1008198" d="M38.337,325.98H33.706a1.545,1.545,0,0,0-1.544,1.543v4.631a1.545,1.545,0,0,0,1.544,1.544h4.631a1.545,1.545,0,0,0,1.544-1.544v-4.631A1.545,1.545,0,0,0,38.337,325.98Zm-.025,6.15H33.73v-4.582h4.582v4.582Z" transform="translate(-28.822 -291.897)" fill="#53435c"/>
          <path id="Trazado_1008199" data-name="Trazado 1008199" d="M124.136,325.98H119.5a1.545,1.545,0,0,0-1.544,1.543v4.631A1.545,1.545,0,0,0,119.5,333.7h4.631a1.545,1.545,0,0,0,1.544-1.544v-4.631A1.545,1.545,0,0,0,124.136,325.98Zm-.025,6.15h-4.582v-4.582h4.582Z" transform="translate(-105.65 -291.897)" fill="#53435c"/>
          <path id="Trazado_1008200" data-name="Trazado 1008200" d="M38.337,409.393H33.706a1.545,1.545,0,0,0-1.544,1.544v4.631a1.545,1.545,0,0,0,1.544,1.544h4.631a1.545,1.545,0,0,0,1.544-1.544v-4.631A1.545,1.545,0,0,0,38.337,409.393Zm-.025,6.15H33.73v-4.582h4.582v4.582Z" transform="translate(-28.822 -366.589)" fill="#53435c"/>
          <path id="Trazado_1008201" data-name="Trazado 1008201" d="M124.136,409.393H119.5a1.545,1.545,0,0,0-1.544,1.544v4.631a1.545,1.545,0,0,0,1.544,1.544h4.631a1.545,1.545,0,0,0,1.544-1.544v-4.631A1.545,1.545,0,0,0,124.136,409.393Zm-.025,6.15h-4.582v-4.582h4.582Z" transform="translate(-105.65 -366.589)" fill="#53435c"/>
        </g>
      </g>
    </g>
  </g>
</svg>
