<svg xmlns="http://www.w3.org/2000/svg" width="84" height="84" viewBox="0 0 84 84">
  <g id="Grupo_1182392" data-name="Grupo 1182392" transform="translate(-383.746 -8400)">
    <circle id="Elipse_13609" data-name="Elipse 13609" cx="42" cy="42" r="42" transform="translate(383.746 8400)" fill="#cfa9e6"/>
    <g id="configuration-dollar-finace-business-tool" transform="translate(393.457 8410)">
      <path id="Trazado_1008210" data-name="Trazado 1008210" d="M59.486,25.774l-5.019-.717a.971.971,0,0,1-.761-.663,22.966,22.966,0,0,0-.978-2.366.97.97,0,0,1,.07-1.007l3.04-4.054a2.94,2.94,0,0,0-.272-3.827L50.86,8.433a2.943,2.943,0,0,0-3.827-.271L42.978,11.2a.971.971,0,0,1-1.006.069,23.037,23.037,0,0,0-2.367-.978.971.971,0,0,1-.662-.761l-.716-5.019A2.945,2.945,0,0,0,35.328,2H28.672a2.945,2.945,0,0,0-2.9,2.514l-.716,5.019a.971.971,0,0,1-.662.761,23.037,23.037,0,0,0-2.367.978A.974.974,0,0,1,21.02,11.2L16.967,8.162a2.941,2.941,0,0,0-3.827.272L8.434,13.14a2.94,2.94,0,0,0-.272,3.827l3.04,4.054a.972.972,0,0,1,.07,1.007,23.045,23.045,0,0,0-.979,2.368.969.969,0,0,1-.76.661l-5.019.717A2.943,2.943,0,0,0,2,28.672v6.656a2.943,2.943,0,0,0,2.514,2.9l5.019.717a.971.971,0,0,1,.761.663,22.967,22.967,0,0,0,.978,2.366.972.972,0,0,1-.07,1.007l-3.04,4.054a2.94,2.94,0,0,0,.272,3.827l4.706,4.707a2.943,2.943,0,0,0,3.827.271l4.055-3.04a.967.967,0,0,1,1.006-.069,23.038,23.038,0,0,0,2.367.978.971.971,0,0,1,.662.761l.716,5.019A2.945,2.945,0,0,0,28.672,62h6.656a2.945,2.945,0,0,0,2.9-2.514l.716-5.019a.971.971,0,0,1,.662-.761,23.038,23.038,0,0,0,2.367-.978.97.97,0,0,1,1.007.069l4.054,3.041a2.941,2.941,0,0,0,3.827-.272l4.706-4.706a2.94,2.94,0,0,0,.272-3.827L52.8,42.979a.97.97,0,0,1-.07-1.007,23.043,23.043,0,0,0,.979-2.368.969.969,0,0,1,.76-.661l5.019-.717A2.943,2.943,0,0,0,62,35.328V28.672a2.943,2.943,0,0,0-2.514-2.9ZM60,35.328a.933.933,0,0,1-.8.919l-5.019.717a2.955,2.955,0,0,0-2.365,1.981,20.8,20.8,0,0,1-.894,2.159,2.967,2.967,0,0,0,.273,3.075l3.04,4.054a.931.931,0,0,1-.086,1.213l-4.706,4.706a.933.933,0,0,1-1.214.087L44.179,51.2a2.966,2.966,0,0,0-3.075-.273,20.753,20.753,0,0,1-2.159.893,2.961,2.961,0,0,0-1.982,2.366L36.246,59.2a.931.931,0,0,1-.918.8H28.672a.931.931,0,0,1-.918-.8l-.717-5.019a2.961,2.961,0,0,0-1.982-2.366,20.753,20.753,0,0,1-2.159-.893,3.083,3.083,0,0,0-1.329-.3,2.9,2.9,0,0,0-1.745.578l-4.054,3.041a.933.933,0,0,1-1.214-.087L9.848,49.445a.93.93,0,0,1-.086-1.212l3.04-4.054a2.967,2.967,0,0,0,.273-3.075,20.646,20.646,0,0,1-.893-2.158,2.957,2.957,0,0,0-2.366-1.982L4.8,36.247a.933.933,0,0,1-.8-.919V28.672a.933.933,0,0,1,.8-.919l5.019-.717a2.955,2.955,0,0,0,2.365-1.981,20.8,20.8,0,0,1,.894-2.159,2.967,2.967,0,0,0-.273-3.075l-3.04-4.054a.931.931,0,0,1,.086-1.213l4.706-4.706a.935.935,0,0,1,1.214-.087l4.05,3.039a2.968,2.968,0,0,0,3.075.273,20.752,20.752,0,0,1,2.159-.893,2.961,2.961,0,0,0,1.982-2.366L27.754,4.8a.931.931,0,0,1,.918-.8h6.656a.931.931,0,0,1,.918.8l.717,5.019a2.961,2.961,0,0,0,1.982,2.366,20.753,20.753,0,0,1,2.159.893,2.966,2.966,0,0,0,3.074-.273l4.054-3.041a.932.932,0,0,1,1.214.087l4.706,4.707a.93.93,0,0,1,.086,1.212L51.2,19.821a2.967,2.967,0,0,0-.273,3.075,20.645,20.645,0,0,1,.893,2.158,2.957,2.957,0,0,0,2.366,1.982l5.019.717a.933.933,0,0,1,.8.919Z" fill="#53435c"/>
      <path id="Trazado_1008211" data-name="Trazado 1008211" d="M32,15A17,17,0,1,0,49,32,17,17,0,0,0,32,15Zm0,32A15,15,0,1,1,47,32,15,15,0,0,1,32,47Z" fill="#53435c"/>
      <path id="Trazado_1008212" data-name="Trazado 1008212" d="M32,27a1,1,0,0,1,1,1,1,1,0,0,0,1,1h4a1,1,0,0,0,1-1,7.012,7.012,0,0,0-4-6.32V20a1,1,0,0,0-1-1H30a1,1,0,0,0-1,1v1.669A7,7,0,0,0,32,35a1,1,0,1,1-1,1,1,1,0,0,0-1-1H26a1,1,0,0,0-1,1,7.011,7.011,0,0,0,4,6.319V44a1,1,0,0,0,1,1h4a1,1,0,0,0,1-1V42.319A7,7,0,0,0,32,29a1,1,0,0,1,0-2Zm0,4a5,5,0,0,1,1.666,9.708,1,1,0,0,0-.666.943V43H31V41.651a1,1,0,0,0-.666-.943A5.007,5.007,0,0,1,27.1,37h2.069A3,3,0,1,0,32,33a4.983,4.983,0,0,1-3.882-1.849,5.051,5.051,0,0,1-1-4.238,4.947,4.947,0,0,1,3.216-3.629A1,1,0,0,0,31,22.339V21h2v1.348a1,1,0,0,0,.666.943A5.007,5.007,0,0,1,36.9,27H34.829A3,3,0,1,0,32,31Z" fill="#53435c"/>
      <path id="Trazado_1008213" data-name="Trazado 1008213" d="M31,6h2v7H31Z" fill="#53435c"/>
      <path id="Trazado_1008214" data-name="Trazado 1008214" d="M15.09,12.59h2v7h-2Z" transform="translate(-6.665 16.091) rotate(-45)" fill="#53435c"/>
      <path id="Trazado_1008215" data-name="Trazado 1008215" d="M6,31h7v2H6Z" fill="#53435c"/>
      <path id="Trazado_1008216" data-name="Trazado 1008216" d="M12.59,46.91h7v2h-7Z" transform="translate(-29.165 25.41) rotate(-45)" fill="#53435c"/>
      <path id="Trazado_1008217" data-name="Trazado 1008217" d="M31,51h2v7H31Z" fill="#53435c"/>
      <path id="Trazado_1008218" data-name="Trazado 1008218" d="M46.91,44.41h2v7h-2Z" transform="translate(-19.845 47.913) rotate(-45)" fill="#53435c"/>
      <path id="Trazado_1008219" data-name="Trazado 1008219" d="M51,31h7v2H51Z" fill="#53435c"/>
      <path id="Trazado_1008220" data-name="Trazado 1008220" d="M44.41,15.09h7v2h-7Z" transform="translate(2.654 38.588) rotate(-45)" fill="#53435c"/>
    </g>
  </g>
</svg>
