<svg xmlns="http://www.w3.org/2000/svg" width="128" height="128" viewBox="0 0 128 128">
  <g id="Grupo_1184379" data-name="Grupo 1184379" transform="translate(-383.746 -8400)">
    <circle id="Elipse_13609" data-name="Elipse 13609" cx="64" cy="64" r="64" transform="translate(383.746 8400)" fill="#cfa9e6"/>
    <g id="Grupo_1184341" data-name="Grupo 1184341" transform="translate(415.988 8430.88)">
      <path id="Trazado_1011120" data-name="Trazado 1011120" d="M62.108,56.477a4.776,4.776,0,0,0-2.469-1.319V13.717a.93.93,0,1,0-1.861,0v41.35H53.59V5.51a2.094,2.094,0,0,1,4.188,0V10a.93.93,0,0,0,1.861,0V5.51a3.955,3.955,0,0,0-7.91,0v5.5H48.563V10.8a3.533,3.533,0,0,0-7.065,0v.21H33.092V10.8a3.531,3.531,0,0,0-6.135-2.386,3.527,3.527,0,0,0-5.2,0A3.531,3.531,0,0,0,15.618,10.8v.21H11.787V5.51a3.955,3.955,0,0,0-7.909,0V55.159a4.809,4.809,0,0,0,.93,9.527h53.9a4.809,4.809,0,0,0,3.4-8.209ZM36.8,37.717a3.537,3.537,0,0,0-3.533,3.533v.21H27.888v-.21a3.531,3.531,0,0,0-6.135-2.386,3.531,3.531,0,0,0-6.135,2.386v.21H11.787V33.015h11.4v.21a3.533,3.533,0,1,0,7.065,0v-.21h5.379v.21a3.531,3.531,0,0,0,6.135,2.386A3.531,3.531,0,0,0,47.9,33.225v-.21h3.831V41.46h-11.4v-.21A3.537,3.537,0,0,0,36.8,37.717Zm1.672,3.532v6.417a1.672,1.672,0,0,1-3.344,0V41.249a1.672,1.672,0,0,1,3.344,0Zm-5.2,4.346H27.888V43.32h5.379ZM22.684,41.249a1.672,1.672,0,0,1,3.344,0v6.417a1.672,1.672,0,0,1-3.344,0Zm-1.861,6.418a1.672,1.672,0,0,1-3.344,0V41.25a1.672,1.672,0,0,1,3.344,0Zm-5.2-2.071h-3.83V43.32h3.831V45.6Zm7.566-14.441h-11.4V28.878h11.4Zm1.861,2.071V26.808a1.672,1.672,0,1,1,3.344,0v6.417a1.672,1.672,0,1,1-3.344,0Zm5.2-4.347h5.379v2.276H30.25Zm10.583,4.347a1.672,1.672,0,0,1-3.344,0V26.808a1.672,1.672,0,0,1,3.344,0Zm1.861-6.417a1.672,1.672,0,0,1,3.344,0v6.417a1.672,1.672,0,0,1-3.344,0Zm5.2,2.07h3.831v2.276H47.9ZM40.332,43.32h11.4V45.6h-11.4Zm11.4-30.446v2.276H48.562V12.875ZM43.358,10.8a1.672,1.672,0,0,1,3.344,0v6.417a1.672,1.672,0,0,1-3.344,0ZM41.5,12.875v2.276H33.092V12.875ZM29.56,9.132A1.674,1.674,0,0,1,31.231,10.8v6.417a1.672,1.672,0,1,1-3.344,0V10.8A1.674,1.674,0,0,1,29.56,9.132Zm-5.2,0A1.674,1.674,0,0,1,26.027,10.8v6.417a1.672,1.672,0,0,1-3.344,0V10.8a1.674,1.674,0,0,1,1.672-1.672ZM17.479,10.8a1.672,1.672,0,0,1,3.344,0v6.417a1.672,1.672,0,0,1-3.344,0Zm1.672,9.95a3.524,3.524,0,0,0,2.6-1.146,3.527,3.527,0,0,0,5.2,0,3.531,3.531,0,0,0,6.135-2.386v-.21H41.5v.21a3.533,3.533,0,0,0,7.065,0v-.21h3.166V27.017H47.9v-.21a3.531,3.531,0,0,0-6.135-2.386,3.531,3.531,0,0,0-6.135,2.386v.21H30.25v-.21a3.533,3.533,0,0,0-7.065,0v.21h-11.4V17.012h3.831v.21a3.536,3.536,0,0,0,3.533,3.533Zm-3.533-7.879v2.276H11.787V12.875ZM7.833,3.416A2.1,2.1,0,0,1,9.927,5.51V55.068H5.739V5.51A2.1,2.1,0,0,1,7.833,3.416ZM58.708,62.825H4.808a2.948,2.948,0,0,1-.008-5.9H14.827a.93.93,0,0,0,0-1.861h-3.04V47.456h3.831v.211a3.531,3.531,0,0,0,6.135,2.386,3.531,3.531,0,0,0,6.135-2.386v-.211h5.379v.211a3.533,3.533,0,0,0,7.065,0v-.211h11.4v7.611H18.546a.93.93,0,0,0,0,1.861H58.725a2.948,2.948,0,0,1-.016,5.9Z" fill="#53435c"/>
    </g>
  </g>
</svg>
