<svg xmlns="http://www.w3.org/2000/svg" width="128" height="128" viewBox="0 0 128 128">
  <g id="Grupo_1184380" data-name="Grupo 1184380" transform="translate(-381.746 -8402)">
    <path id="Trazado_997402" data-name="Trazado 997402" d="M64,0A64,64,0,1,1,0,64,64,64,0,0,1,64,0Z" transform="translate(381.746 8402)" fill="#cfa9e6"/>
    <g id="Grupo_1184342" data-name="Grupo 1184342" transform="translate(383.301 8431.028)">
      <path id="Trazado_1011121" data-name="Trazado 1011121" d="M86.034,0H38.857a7.044,7.044,0,0,0-7.036,7.036V49.158a8.49,8.49,0,0,0,2.5,6.039L46.533,67.407l.033.035a8.482,8.482,0,0,0,6.037,2.5h33.43a7.044,7.044,0,0,0,7.036-7.036V7.036A7.044,7.044,0,0,0,86.034,0Zm4.987,62.907a4.992,4.992,0,0,1-4.987,4.987H53.887a3.375,3.375,0,0,1-3.368-3.267h7.728a1.025,1.025,0,1,0,0-2.049H50.517V59.736h7.731a1.025,1.025,0,1,0,0-2.049H50.49a6.981,6.981,0,0,0-.874-2.843h3.956a1.025,1.025,0,1,0,0-2.049h-5.7a7,7,0,0,0-4.394-1.546,1.025,1.025,0,0,0,0,2.049,4.992,4.992,0,0,1,4.986,4.986v6.239a5.387,5.387,0,0,0,.489,2.246,6.419,6.419,0,0,1-.912-.745l-.031-.032L35.771,53.749a6.573,6.573,0,0,1-.781-.944,5.386,5.386,0,0,0,2.253.492h2.141a1.025,1.025,0,0,0,0-2.049H37.243a3.375,3.375,0,0,1-3.371-3.371c0-.01,0-40.841,0-40.841a4.992,4.992,0,0,1,4.987-4.987H86.034a4.992,4.992,0,0,1,4.987,4.987Z" fill="#53435c"/>
      <path id="Trazado_1011122" data-name="Trazado 1011122" d="M121.853,51.16h-2.2a1.025,1.025,0,1,0,0,2.049h2.2a3.878,3.878,0,0,1,3.873,3.874v16.37a3.88,3.88,0,0,1-2.849,3.736V69.266a2.762,2.762,0,0,0-2.759-2.759h-2.384a2.762,2.762,0,0,0-2.759,2.759v8.061h-2.266V58.545a2.762,2.762,0,0,0-2.759-2.759h-2.384a2.762,2.762,0,0,0-2.759,2.759V77.327H102.54V66.094a2.762,2.762,0,0,0-2.759-2.759H97.4a2.762,2.762,0,0,0-2.759,2.759V77.327H92.372v-7.88a2.762,2.762,0,0,0-2.759-2.759H87.229a2.762,2.762,0,0,0-2.759,2.759v7.741a3.88,3.88,0,0,1-2.849-3.736V57.083a3.878,3.878,0,0,1,3.873-3.874h30.062a1.025,1.025,0,1,0,0-2.049H85.494a5.929,5.929,0,0,0-5.922,5.923v16.37a5.929,5.929,0,0,0,5.922,5.923h36.359a5.929,5.929,0,0,0,5.922-5.923V57.083a5.929,5.929,0,0,0-5.922-5.923Zm-15,7.385a.711.711,0,0,1,.71-.71h2.384a.711.711,0,0,1,.71.71V77.327h-3.8V58.545ZM96.687,66.094a.711.711,0,0,1,.71-.71h2.384a.711.711,0,0,1,.71.71V77.327h-3.8V66.094Zm20.337,3.172a.711.711,0,0,1,.71-.71h2.384a.711.711,0,0,1,.71.71v8.061h-3.8V69.266Zm-30.505.182a.711.711,0,0,1,.71-.71h2.384a.711.711,0,0,1,.71.71v7.879h-3.8V69.447Z" transform="translate(-41.228 -44.171)" fill="#53435c"/>
      <path id="Trazado_1011123" data-name="Trazado 1011123" d="M296.753,279.061h-16.5a1.025,1.025,0,0,0,0,2.049h16.5a1.025,1.025,0,0,0,0-2.049Z" transform="translate(-213.61 -240.939)" fill="#53435c"/>
      <path id="Trazado_1011124" data-name="Trazado 1011124" d="M296.753,314.865h-16.5a1.025,1.025,0,0,0,0,2.049h16.5a1.025,1.025,0,0,0,0-2.049Z" transform="translate(-213.61 -271.852)" fill="#53435c"/>
      <path id="Trazado_1011125" data-name="Trazado 1011125" d="M280.254,352.719h11.1a1.025,1.025,0,0,0,0-2.049h-11.1a1.025,1.025,0,0,0,0,2.049Z" transform="translate(-213.61 -302.766)" fill="#53435c"/>
      <path id="Trazado_1011126" data-name="Trazado 1011126" d="M296.753,386.474h-16.5a1.025,1.025,0,0,0,0,2.049h16.5a1.025,1.025,0,0,0,0-2.049Z" transform="translate(-213.61 -333.679)" fill="#53435c"/>
      <path id="Trazado_1011127" data-name="Trazado 1011127" d="M296.753,422.279h-16.5a1.025,1.025,0,0,0,0,2.049h16.5a1.025,1.025,0,0,0,0-2.049Z" transform="translate(-213.61 -364.593)" fill="#53435c"/>
      <path id="Trazado_1011128" data-name="Trazado 1011128" d="M286.989,458.084h-6.735a1.025,1.025,0,0,0,0,2.049h6.735a1.025,1.025,0,0,0,0-2.049Z" transform="translate(-213.61 -395.507)" fill="#53435c"/>
      <path id="Trazado_1011129" data-name="Trazado 1011129" d="M98.022,281.11h10.551a1.025,1.025,0,1,0,0-2.049H98.022a1.025,1.025,0,1,0,0,2.049Z" transform="translate(-56.273 -240.939)" fill="#53435c"/>
      <path id="Trazado_1011130" data-name="Trazado 1011130" d="M114.521,314.865h-16.5a1.025,1.025,0,1,0,0,2.049h16.5a1.025,1.025,0,1,0,0-2.049Z" transform="translate(-56.273 -271.852)" fill="#53435c"/>
      <path id="Trazado_1011131" data-name="Trazado 1011131" d="M114.521,350.67h-16.5a1.025,1.025,0,1,0,0,2.049h16.5a1.025,1.025,0,1,0,0-2.049Z" transform="translate(-56.273 -302.766)" fill="#53435c"/>
    </g>
  </g>
</svg>
