<svg xmlns="http://www.w3.org/2000/svg" width="98" height="98" viewBox="0 0 98 98">
  <g id="Grupo_1183372" data-name="Grupo 1183372" transform="translate(-280.609 -11611.898)">
    <g id="Grupo_1177473" data-name="Grupo 1177473" transform="translate(280.609 11611.898)">
      <ellipse id="Elipse_13609" data-name="Elipse 13609" cx="49" cy="49" rx="49" ry="49" transform="translate(0)" fill="#fff"/>
      <g id="Grupo_1184348" data-name="Grupo 1184348" transform="translate(20.203 24.493)">
        <path id="Trazado_1011170" data-name="Trazado 1011170" d="M29.907,5.518a1.682,1.682,0,0,0-2.765,0L16.392,21.7a1.147,1.147,0,0,1-1.514.367L5.763,16.987a1.618,1.618,0,0,0-2.43,1.644l7.021,19.353H46.695L53.715,18.63a1.617,1.617,0,0,0-2.43-1.644l-9.115,5.083a1.147,1.147,0,0,1-1.514-.367ZM25.231,4.249a3.975,3.975,0,0,1,6.586,0l10.163,15.3,8.189-4.566a3.907,3.907,0,0,1,5.761,4.251,1.16,1.16,0,0,1-.035.114L48.577,39.521a1.147,1.147,0,0,1-1.078.756H9.55a1.147,1.147,0,0,1-1.078-.756L1.154,19.348a1.146,1.146,0,0,1-.035-.114A3.907,3.907,0,0,1,6.88,14.983l8.188,4.566ZM7.909,44.929a1.147,1.147,0,0,1,1.147-1.147H47.993a1.147,1.147,0,0,1,0,2.293H9.056A1.147,1.147,0,0,1,7.909,44.929Z" transform="translate(0)" fill="#53435c" fill-rule="evenodd"/>
        <path id="Trazado_1011171" data-name="Trazado 1011171" d="M23.937,9.893a1.147,1.147,0,0,1,0,1.622L11.815,23.637a1.147,1.147,0,1,1-1.622-1.622L22.316,9.893A1.147,1.147,0,0,1,23.937,9.893Z" transform="translate(11.459 9.128)" fill="#53435c" fill-rule="evenodd"/>
        <path id="Trazado_1011172" data-name="Trazado 1011172" d="M13.341,14.788a1.747,1.747,0,1,0-1.747-1.747A1.747,1.747,0,0,0,13.341,14.788Zm0,2.293A4.041,4.041,0,1,0,9.3,13.041,4.041,4.041,0,0,0,13.341,17.082Z" transform="translate(10.739 8.407)" fill="#53435c" fill-rule="evenodd"/>
        <path id="Trazado_1011173" data-name="Trazado 1011173" d="M17.217,18.664a1.747,1.747,0,1,0-1.747-1.747A1.747,1.747,0,0,0,17.217,18.664Zm0,2.293a4.041,4.041,0,1,0-4.041-4.041,4.041,4.041,0,0,0,4.041,4.041Z" transform="translate(15.752 13.421)" fill="#53435c" fill-rule="evenodd"/>
      </g>
    </g>
  </g>
</svg>
