<svg xmlns="http://www.w3.org/2000/svg" width="84" height="84" viewBox="0 0 84 84">
  <g id="Grupo_1183431" data-name="Grupo 1183431" transform="translate(-186.453 -1357)">
    <rect id="Rectángulo_402006" data-name="Rectángulo 402006" width="84" height="84" rx="5" transform="translate(186.453 1357)" fill="#ff984a"/>
    <path id="Trazado_1011174" data-name="Trazado 1011174" d="M63.324,64.266,54.63,55.573a.884.884,0,0,0-.621-.261H23.633a.51.51,0,0,0-.137.012A10.678,10.678,0,0,0,7.923,69.3L.782,76.449a2.714,2.714,0,0,0,0,3.813l.112.112a2.714,2.714,0,0,0,3.813,0l4.135-4.135v26.477a.864.864,0,0,0,.869.869H55.736a.864.864,0,0,0,.869-.869V98.9h6.11a.864.864,0,0,0,.869-.869V64.887A.835.835,0,0,0,63.324,64.266ZM54.891,58.28l5.725,5.725H54.891Zm-44.062-.7a8.94,8.94,0,1,1,.012,12.642,8.923,8.923,0,0,1-.012-12.642Zm-1.6,15.8a.87.87,0,0,0-.261.261L3.477,79.131a.968.968,0,0,1-1.341,0l-.112-.112a.968.968,0,0,1,0-1.341l6.942-6.942a8.533,8.533,0,0,0,.646.708q.391.391.82.745Zm45.627,28.464H10.568V74.5l1.316-1.316a11.39,11.39,0,0,0,2.2.944V98.033a.864.864,0,0,0,.869.869h39.9Zm-39.02-4.682V74.487a11.714,11.714,0,0,0,1.316.087,10.668,10.668,0,0,0,8.2-17.511H53.165v7.824a.864.864,0,0,0,.869.869h7.824V97.164ZM27.694,85.54H22.155a.864.864,0,0,0-.869.869v7.426a.864.864,0,0,0,.869.869h5.539a.864.864,0,0,0,.869-.869V86.409A.88.88,0,0,0,27.694,85.54Zm-.869,7.439h-3.8V87.291h3.8Zm10.208-15.76H31.494a.864.864,0,0,0-.869.869v15.76a.864.864,0,0,0,.869.869h5.539a.864.864,0,0,0,.869-.869V78.088A.864.864,0,0,0,37.033,77.219Zm-.869,15.76h-3.8V78.958h3.8ZM46.384,82.4H40.846a.864.864,0,0,0-.869.869V93.835a.864.864,0,0,0,.869.869h5.539a.864.864,0,0,0,.869-.869V83.267A.872.872,0,0,0,46.384,82.4Zm-.869,10.581h-3.8v-8.83h3.8ZM55.723,74.437H50.185a.864.864,0,0,0-.869.869V93.835a.864.864,0,0,0,.869.869h5.539a.864.864,0,0,0,.869-.869V75.306A.872.872,0,0,0,55.723,74.437Zm-.869,18.541h-3.8V76.188h3.8ZM43.044,78.126a3.164,3.164,0,0,0,3.167-3.167,3.225,3.225,0,0,0-.075-.7l4.694-2.571a3.132,3.132,0,0,0,2.248.944,3.167,3.167,0,1,0-3.167-3.167,3.428,3.428,0,0,0,.075.708l-4.694,2.571a3.152,3.152,0,0,0-4.558.062l-3.85-1.975a3.261,3.261,0,0,0,.062-.609,3.167,3.167,0,1,0-6.085,1.229l-4.781,3.8a3.18,3.18,0,1,0,1.08,1.354l4.781-3.825a3.168,3.168,0,0,0,4.148-.422l3.85,1.962a3.261,3.261,0,0,0-.062.609A3.17,3.17,0,0,0,43.044,78.126Zm10.034-10.1a1.428,1.428,0,0,1,0,2.856,1.416,1.416,0,0,1-1.242-.733V70.14l-.012-.012a1.383,1.383,0,0,1-.174-.671A1.428,1.428,0,0,1,53.078,68.029ZM24.242,79.268A1.428,1.428,0,1,1,25.67,77.84,1.436,1.436,0,0,1,24.242,79.268Zm9.525-7.625a1.428,1.428,0,1,1,1.428-1.428A1.42,1.42,0,0,1,33.767,71.643Zm9.277,1.888a1.428,1.428,0,1,1-1.428,1.428,1.421,1.421,0,0,1,.161-.646c.1-.2,0,0,0-.012A1.426,1.426,0,0,1,43.044,73.531Z" transform="translate(196.453 1320.593)" fill="#53435c"/>
  </g>
</svg>
