<svg xmlns="http://www.w3.org/2000/svg" xmlns:xlink="http://www.w3.org/1999/xlink" width="292" height="140" viewBox="0 0 292 140">
  <defs>
    <clipPath id="clip-path">
      <rect id="Rectángulo_458974" data-name="Rectángulo 458974" width="147.573" height="126.601" fill="none"/>
    </clipPath>
    <clipPath id="clip-path-4">
      <rect id="Rectángulo_458952" data-name="Rectángulo 458952" width="13.956" height="23.676" fill="none"/>
    </clipPath>
    <clipPath id="clip-path-5">
      <rect id="Rectángulo_458953" data-name="Rectángulo 458953" width="16.228" height="35.339" fill="none"/>
    </clipPath>
    <clipPath id="clip-path-6">
      <rect id="Rectángulo_458954" data-name="Rectángulo 458954" width="14.27" height="18.225" fill="none"/>
    </clipPath>
    <clipPath id="clip-path-7">
      <rect id="Rectángulo_458955" data-name="Rectángulo 458955" width="9.858" height="16.725" fill="none"/>
    </clipPath>
    <clipPath id="clip-path-8">
      <rect id="Rectángulo_458956" data-name="Rectángulo 458956" width="12.564" height="24.603" fill="none"/>
    </clipPath>
    <clipPath id="clip-path-9">
      <rect id="Rectángulo_458957" data-name="Rectángulo 458957" width="13.01" height="1.562" fill="none"/>
    </clipPath>
    <clipPath id="clip-path-10">
      <rect id="Rectángulo_458958" data-name="Rectángulo 458958" width="13.955" height="23.676" fill="none"/>
    </clipPath>
    <clipPath id="clip-path-16">
      <rect id="Rectángulo_458964" data-name="Rectángulo 458964" width="7.643" height="6.077" fill="none"/>
    </clipPath>
    <clipPath id="clip-path-17">
      <rect id="Rectángulo_458965" data-name="Rectángulo 458965" width="16.286" height="0.337" fill="none"/>
    </clipPath>
    <clipPath id="clip-path-18">
      <rect id="Rectángulo_458966" data-name="Rectángulo 458966" width="6.157" height="5.105" fill="none"/>
    </clipPath>
    <clipPath id="clip-path-19">
      <rect id="Rectángulo_458969" data-name="Rectángulo 458969" width="9.396" height="0.752" fill="none"/>
    </clipPath>
    <clipPath id="clip-path-20">
      <rect id="Rectángulo_458967" data-name="Rectángulo 458967" width="2.069" height="0.752" fill="none"/>
    </clipPath>
    <clipPath id="clip-path-22">
      <rect id="Rectángulo_458970" data-name="Rectángulo 458970" width="2.101" height="3.025" fill="none"/>
    </clipPath>
    <clipPath id="clip-path-23">
      <rect id="Rectángulo_458971" data-name="Rectángulo 458971" width="17.91" height="39.14" fill="none"/>
    </clipPath>
    <clipPath id="clip-path-24">
      <rect id="Rectángulo_458972" data-name="Rectángulo 458972" width="9.643" height="11.409" fill="none"/>
    </clipPath>
  </defs>
  <g id="Grupo_1183139" data-name="Grupo 1183139" transform="translate(-186 -5503.884)">
    <rect id="Rectángulo_458093" data-name="Rectángulo 458093" width="292" height="140" rx="10" transform="translate(186 5503.884)" fill="#cfa9e6"/>
    <g id="Grupo_1183757" data-name="Grupo 1183757" transform="translate(258.214 5517.283)">
      <g id="Grupo_1183756" data-name="Grupo 1183756" clip-path="url(#clip-path)">
        <g id="Grupo_1183755" data-name="Grupo 1183755">
          <g id="Grupo_1183754" data-name="Grupo 1183754" clip-path="url(#clip-path)">
            <g id="Grupo_1183690" data-name="Grupo 1183690" opacity="0.1">
              <g id="Grupo_1183689" data-name="Grupo 1183689">
                <g id="Grupo_1183688" data-name="Grupo 1183688" clip-path="url(#clip-path)">
                  <path id="Trazado_1010480" data-name="Trazado 1010480" d="M4.985,39.07A26.462,26.462,0,0,0,.439,48.746c-1.7,7.53,1.6,16.6,8.843,19.271,6.233,2.3,14.083-.3,19.267,3.858,3.078,2.468,4.212,6.875,3.327,10.719a16.425,16.425,0,0,1-6.757,9.4c-2.671,1.892-5.723,3.171-8.518,4.877s-5.432,3.989-6.537,7.07c-2.458,6.851,5.7,12.511,10.806,15.3,6.8,3.717,14.562,5.36,22.186,6.293a142.943,142.943,0,0,0,67.8-8.067c8.836-3.355,17.457-7.706,24.338-14.185S147.1,87.976,147.545,78.535c.36-7.635-2.7-15.779-9.161-19.869-3.128-1.982-6.8-2.9-10.146-4.485s-6.586-4.176-7.334-7.8c-.715-3.466,1.02-6.964,3.1-9.824,2.785-3.821,6.28-7.1,8.869-11.059s4.224-8.948,2.712-13.428c-1.948-5.772-8.3-8.745-14.222-10.179C105.649-1.918,89.117.632,73.349,4.232,51.972,9.112,30.46,16.2,13.574,30.19a49.531,49.531,0,0,0-8.589,8.88" transform="translate(0 0)" fill="#517aef"/>
                </g>
              </g>
            </g>
            <path id="Trazado_1010481" data-name="Trazado 1010481" d="M413.5,309.457l-1.469-1.395a6.564,6.564,0,0,0,.035-1.422l1.538-1.32a.5.5,0,0,0,.142-.564l-.507-1.316a.5.5,0,0,0-.483-.323l-2.026.053a6.563,6.563,0,0,0-.98-1.031l.154-2.02a.5.5,0,0,0-.3-.5l-1.289-.572a.5.5,0,0,0-.57.114l-1.394,1.469a6.571,6.571,0,0,0-1.423-.035l-1.32-1.537a.5.5,0,0,0-.564-.142l-1.316.507a.5.5,0,0,0-.323.484l.053,2.025a6.551,6.551,0,0,0-1.032.98l-2.02-.154a.5.5,0,0,0-.5.3l-.572,1.289a.5.5,0,0,0,.114.57l1.469,1.395a6.57,6.57,0,0,0-.035,1.423l-1.537,1.32a.5.5,0,0,0-.142.564l.507,1.316a.5.5,0,0,0,.484.323l2.025-.053a6.576,6.576,0,0,0,.98,1.032l-.154,2.019a.5.5,0,0,0,.3.5l1.289.572a.5.5,0,0,0,.57-.114l1.394-1.469a6.553,6.553,0,0,0,1.423.035l1.32,1.537a.5.5,0,0,0,.564.142l1.316-.507a.5.5,0,0,0,.323-.484l-.053-2.026a6.574,6.574,0,0,0,1.031-.98l2.02.154a.5.5,0,0,0,.5-.3l.572-1.289a.5.5,0,0,0-.114-.57m-4.37-.612-.011.024-.011.023-.012.025-.011.023-.011.022-.012.024-.011.022-.012.023-.011.022-.012.023L409,309.1l-.012.023-.012.021-.013.023-.012.021-.013.023-.012.021-.014.022-.012.021-.014.022-.012.02-.014.022-.013.02-.014.022-.013.02-.015.022-.013.02-.015.022-.013.019-.015.022-.013.018-.016.022-.013.018-.017.022-.013.017-.017.023-.012.017-.018.023-.012.015-.02.025-.011.013-.029.035,0,0-.031.038-.011.012-.022.025-.013.014-.02.022-.014.015-.019.021-.014.016-.019.02-.015.016-.018.02-.016.016-.018.019-.016.016-.018.018-.016.016-.018.018-.017.016-.019.018-.017.015-.019.017-.017.015-.019.017-.017.015-.019.017-.018.015-.019.016-.018.015-.019.016-.018.015L408,310.3l-.018.015-.02.015-.018.014-.02.015-.018.014-.02.015-.018.014-.02.015-.019.014-.02.015-.019.014-.02.014-.019.013-.02.014-.02.013-.02.014-.02.013-.021.014-.02.012-.021.013-.02.012-.021.013-.02.012-.021.013-.02.012-.021.012-.02.012-.021.012-.02.011-.021.012-.021.011-.022.012-.02.011-.022.011-.021.011-.022.011-.021.01-.022.011-.021.01-.022.011-.021.01-.022.01-.021.01-.022.01-.021.009-.022.01-.021.009-.023.01L407,310.9l-.023.009-.021.008-.023.009-.021.008-.023.009-.021.008-.023.008-.021.008-.024.008-.021.007-.024.008-.021.007L406.7,311l-.021.007-.025.008-.021.007-.025.007-.021.006-.025.007-.021.006-.025.007-.021.005-.026.007-.02.005-.027.007-.019,0-.03.007-.017,0-.036.008-.01,0-.047.01-.011,0-.035.007-.017,0-.03.005-.02,0-.028,0-.02,0-.027,0-.021,0-.026,0-.022,0-.026,0-.022,0-.026,0-.022,0-.025,0-.022,0-.025,0-.023,0-.025,0-.023,0-.025,0h-.023l-.025,0h-.484l-.024,0-.025,0-.024,0-.025,0-.024,0-.025,0-.024,0-.025,0-.024,0-.025,0-.024,0-.025,0-.024,0-.025,0-.024,0-.025,0-.024,0-.025,0-.024,0-.025,0-.024,0-.025,0-.023,0-.025-.005-.023-.005-.025-.006-.024-.005-.025-.006-.023-.006-.025-.006-.023-.006-.025-.007-.023-.006-.025-.007-.023-.007-.025-.007-.023-.007-.025-.008-.023-.007-.025-.008L404.22,311l-.025-.008-.023-.008-.025-.009-.023-.008-.025-.009-.022-.008-.025-.009-.022-.008-.025-.01-.022-.009-.025-.01-.022-.009-.025-.011-.022-.009-.026-.011-.021-.009-.024-.011-.024-.011-.023-.011-.024-.011-.021-.01-.025-.012-.018-.009-.028-.014-.015-.008-.031-.016-.011-.006-.034-.018-.007,0-.039-.021h0a4.023,4.023,0,0,1-1.849-4.791l0-.005.013-.038,0-.01.012-.034.005-.014.011-.031.007-.017.011-.028.008-.02.011-.026.009-.022.01-.024.01-.023.01-.024.011-.024.009-.022.012-.025.01-.022.012-.025.01-.022.012-.024.011-.022.012-.024.011-.021.012-.024.011-.021.012-.024.011-.021.013-.023.012-.021.013-.023.012-.021.013-.023.012-.021.013-.022.012-.021.014-.022.013-.02.014-.022.013-.02.014-.022.013-.02.014-.021.014-.02.015-.021.014-.02.015-.021.014-.02.015-.021.014-.02.015-.02.014-.019.015-.02.015-.019.016-.02.015-.019.016-.02.015-.019.016-.02.015-.018.016-.019.015-.018.017-.019.016-.018.017-.019.016-.018.017-.018.016-.018.017-.018.016-.017.017-.018.017-.017.018-.018.017-.017.018-.017.017-.017.018-.017.017-.016.018-.017.017-.016.018-.017.017-.016.019-.017.017-.015.019-.017.017-.015.019-.016.018-.015.019-.016.018-.015.02-.016.018-.015.02-.016.018-.014.02-.015.018-.014.02-.015.018-.014.021-.015.018-.014.021-.015.018-.013.021-.015.018-.012.022-.015.018-.012.022-.015.018-.012.023-.015.017-.011.025-.016.016-.01.03-.018.011-.007.041-.025.008,0,.034-.02.015-.009.026-.015.017-.009.025-.014.018-.01.024-.013.019-.01.023-.012.02-.01.023-.012.02-.01.023-.011.02-.01.023-.011.02-.009.023-.011.021-.009.023-.01.021-.009.023-.01.021-.009.023-.009.021-.009.023-.009.021-.008.023-.009.021-.008.023-.009.021-.008.023-.008.022-.008.023-.008.022-.007.023-.008.022-.007.024-.008.022-.007.024-.007.022-.007.024-.007.022-.007.024-.007.022-.006.024-.007.022-.006.024-.006.022-.006.024-.006.023-.005.024-.006.023-.005.024-.005.022,0,.024-.005.023,0,.024,0,.023,0,.024,0,.023,0,.024,0,.023,0,.024,0,.023,0,.024,0,.023,0,.024,0,.023,0,.025,0,.023,0,.025,0,.023,0,.025,0,.023,0,.025,0,.023,0,.025,0,.023,0,.025,0h.507l.027,0h.022l.028,0,.021,0,.029,0,.02,0,.032,0,.017,0,.047.006h0l.047.006.017,0,.032,0,.02,0,.028,0,.021,0,.027,0,.022,0,.027,0,.022,0,.026.005.022,0,.026.006.023,0,.025.006.023.005.026.006.023.006.025.007.023.006.025.007.023.006.025.007.023.007.025.007.023.007.025.008.023.007.025.008.023.008.025.008.023.008.025.008.023.008.025.009.023.009.024.009.023.009.024.009.023.009.024.01.026.011.023.009.025.011.024.011.023.01.025.011.023.011.024.011.024.012.022.011.028.014.019.009.035.018.01.005a4.025,4.025,0,0,1,1.908,4.953l0,.009-.015.039-.008.019-.011.029-.009.023-.01.025-.011.025-.01.023-.011.025-.01.023-.011.024" transform="translate(-289.551 -217.897)" fill="#90abf3"/>
            <path id="Trazado_1010482" data-name="Trazado 1010482" d="M407.022,330.431c0,.03.006.06.01.09s.006.06.01.09l.005.045.006.045c0,.015,0,.03.006.045l.007.045q.025.178.06.354c.024.117.05.233.081.348l.006.021.006.022.012.043.012.043.013.043c.009.028.017.057.026.085l.028.085a5.478,5.478,0,0,0,.275.659c.053.107.109.212.169.317.029.052.06.1.091.156l.047.077c.015.026.032.051.048.077h0a.023.023,0,0,1-.008.031.023.023,0,0,1-.028,0c-.043-.044-.084-.089-.124-.136l-.059-.071-.028-.036-.028-.037a3.442,3.442,0,0,1-.206-.307,3.568,3.568,0,0,1-.309-.672l-.029-.088c0-.015-.009-.03-.014-.044l-.013-.044-.013-.045-.011-.045-.011-.045-.006-.022-.005-.023-.02-.09c-.006-.03-.011-.061-.017-.091-.011-.061-.02-.122-.027-.183a3.153,3.153,0,0,1-.007-.736.023.023,0,0,1,.045,0Z" transform="translate(-296.69 -240.883)" fill="#90abf3"/>
            <path id="Trazado_1010483" data-name="Trazado 1010483" d="M389.906,215.074l-2.367-2.247a10.609,10.609,0,0,0,.057-2.291l2.477-2.126a.813.813,0,0,0,.229-.908l-.817-2.121a.812.812,0,0,0-.779-.52l-3.263.085a10.563,10.563,0,0,0-1.579-1.662l.248-3.253a.812.812,0,0,0-.48-.8l-2.077-.922a.812.812,0,0,0-.919.183l-2.246,2.366a10.562,10.562,0,0,0-2.292-.056l-2.126-2.477a.812.812,0,0,0-.909-.229l-2.12.817a.812.812,0,0,0-.52.779l.085,3.263a10.6,10.6,0,0,0-1.662,1.579l-3.254-.248a.812.812,0,0,0-.8.48l-.922,2.077a.813.813,0,0,0,.183.919l2.367,2.247a10.6,10.6,0,0,0-.056,2.292l-2.477,2.126a.812.812,0,0,0-.229.908l.817,2.12a.812.812,0,0,0,.779.52l3.263-.085a10.563,10.563,0,0,0,1.579,1.662l-.248,3.253a.813.813,0,0,0,.48.8l2.077.922a.812.812,0,0,0,.919-.183l2.246-2.367a10.561,10.561,0,0,0,2.292.056l2.126,2.477a.812.812,0,0,0,.908.229l2.121-.817a.813.813,0,0,0,.52-.779l-.085-3.263a10.579,10.579,0,0,0,1.66-1.579l3.254.248a.812.812,0,0,0,.8-.48l.922-2.077a.813.813,0,0,0-.183-.919m-7.04-.986-.018.039-.017.037-.019.041-.018.038-.017.036-.019.038-.018.035-.02.038-.018.035-.02.037-.018.034-.02.037-.019.034-.021.037-.019.034-.021.036-.02.034-.021.036-.02.033-.022.036-.02.033-.023.036-.02.032-.023.036-.021.032-.024.035-.021.031-.024.035-.021.031-.025.035-.021.03-.025.035-.021.029-.027.036-.021.028-.028.037-.02.027-.029.038-.02.025-.033.041L382,215.5l-.046.056,0,0-.051.06-.017.019-.035.04-.021.023-.032.036-.022.025-.031.034-.024.025-.03.032-.024.025-.03.031-.025.026-.03.03-.026.026-.03.03-.026.025-.03.029-.027.025-.03.028-.027.025-.03.028-.027.025-.031.028-.028.025-.031.027-.028.024-.031.026-.028.024-.031.026-.029.024-.031.025-.029.023-.031.025-.03.023-.032.025-.03.023-.032.024-.03.022-.032.024-.03.022-.033.024-.031.022-.033.023-.031.021-.033.022-.031.021-.033.022-.031.021-.033.022-.031.02-.034.021-.032.02-.034.021-.032.02-.034.021-.032.019-.034.02-.033.019-.035.02-.033.018-.035.019-.033.018-.035.019-.033.018-.035.018-.033.017-.035.018-.033.017-.036.018-.034.016-.036.017-.034.016-.036.017-.034.015-.036.016-.034.015-.037.016-.034.015-.037.015-.034.014-.037.015-.034.014-.037.015-.034.013-.038.014-.034.013-.038.014-.035.013-.038.013-.034.012-.038.013-.034.011-.039.013-.034.011-.039.012-.034.011-.04.012-.034.01-.04.012-.034.009-.041.011-.033.009-.042.011-.032.008-.044.011-.031.008-.047.011-.028.007-.059.013-.017,0-.076.016-.018,0-.057.011-.028.005-.048.009-.031.005-.045.008L378,217.8l-.043.007-.034,0-.042.006-.035,0-.042.006-.035,0-.041.005-.036,0-.041,0-.036,0-.041,0-.037,0-.041,0-.037,0-.041,0-.037,0-.041,0-.037,0-.041,0h-.037l-.041,0h-.468l-.038,0-.04,0-.038,0-.04,0-.038,0-.04,0-.038,0-.04,0-.038,0-.04,0-.038,0-.04,0-.038,0-.04,0-.038,0-.04-.005-.038-.005-.04-.006-.038-.006-.04-.006-.038-.007-.04-.007-.038-.007-.04-.008-.038-.007-.04-.008-.038-.008-.04-.008-.038-.008-.04-.009-.038-.009-.04-.009-.038-.009-.04-.01-.038-.009-.04-.011-.037-.01-.04-.011-.037-.011-.04-.012-.037-.011-.04-.012-.037-.011-.04-.013-.037-.012-.04-.013-.037-.012-.04-.014-.037-.013-.04-.015-.036-.013-.04-.015-.036-.014-.04-.016-.036-.014-.04-.017-.036-.014-.041-.017-.035-.015-.042-.018-.034-.015-.038-.017-.038-.017-.037-.017-.039-.018-.034-.016-.041-.02-.029-.015-.045-.022-.024-.013-.049-.025-.018-.01-.055-.029-.011-.006-.062-.034h0a6.48,6.48,0,0,1-2.978-7.718l0-.008.021-.062.006-.016.02-.055.008-.023.018-.049.011-.028.017-.045.013-.032.017-.042.014-.035.017-.039.016-.038.016-.038.017-.038.015-.035.018-.041.016-.035.019-.04.017-.035.019-.039.017-.035.019-.038.018-.035.02-.038.018-.034.02-.038.018-.034.02-.037.019-.034.021-.037.02-.034.021-.037.02-.034.021-.036.02-.033.022-.036.021-.033.022-.035.021-.033.022-.035.021-.033.023-.034.022-.032.023-.034.022-.032.024-.034.022-.031.024-.033.023-.031.024-.033.023-.031.025-.033.024-.031.025-.032.024-.03.025-.032.024-.03.026-.031.025-.03.026-.031.025-.029.027-.031.025-.029.027-.03.025-.028.027-.03.026-.028.027-.03.026-.028.028-.029.026-.027.028-.029.027-.027.028-.028.027-.027.029-.028.027-.026.029-.028.027-.026.03-.027.028-.025.03-.027.028-.025.03-.027.028-.025.031-.026.028-.024.031-.026.028-.024.031-.026.029-.023.032-.025.029-.023.032-.025.029-.022.033-.025.029-.022.033-.024.029-.022.034-.024.029-.021.034-.024.029-.02.035-.024.029-.02.036-.024.028-.019.037-.024.027-.018.04-.025.025-.016.047-.029.018-.011.066-.04.012-.007.054-.032.025-.014.042-.024.027-.015.04-.022.029-.016.038-.021.031-.016.038-.02.031-.016.037-.019.032-.016.037-.018.033-.015.037-.018.033-.015.037-.017.033-.015.037-.017.034-.015.037-.016.034-.014.037-.015.034-.014.037-.015.034-.014.037-.015.034-.013.037-.014.035-.013.037-.014.035-.012.038-.013.035-.012.037-.013.035-.012.038-.012.036-.011.038-.012.036-.011.038-.011.036-.011.038-.011.036-.01.038-.011.036-.009.038-.01.036-.009.038-.009.037-.009.038-.009.037-.008.039-.008.037-.008.039-.008.037-.008.039-.008.037-.007.039-.007.037-.007.039-.007.037-.006.039-.007.037-.006.039-.006.037-.005.039-.005.037,0,.039,0,.037,0,.04,0,.037,0,.04,0,.037,0,.04,0,.038,0,.04,0,.037,0,.04,0,.037,0,.04,0,.038,0,.04,0h.427l.042,0h.036l.042,0,.036,0,.043,0,.036,0,.043,0,.035,0,.045,0,.033,0,.047,0,.032,0,.051.005.027,0,.075.009h.005l.076.01.027,0,.051.008.033.005.046.007.034.006.044.008.035.007.043.008.036.007.042.008.036.008.042.009.037.008.041.009.037.009.041.01.037.009.041.011.037.009.041.011.037.01.04.011.037.011.04.012.037.011.04.012.037.012.04.013.037.012.04.013.037.013.04.014.037.013.04.014.037.014.039.015.037.014.039.015.037.015.038.015.042.018.037.015.04.017.039.017.038.017.04.018.037.017.039.018.039.019.036.018.045.022.03.015.057.029.017.009a6.484,6.484,0,0,1,3.073,7.978l-.006.015-.024.063-.012.031-.018.047-.015.038-.016.04-.017.04-.016.037-.018.04-.017.038-.018.039" transform="translate(-265.079 -144.378)" fill="#90abf3"/>
            <path id="Trazado_1010484" data-name="Trazado 1010484" d="M379.477,248.863c.006.048.009.1.016.146s.01.1.016.145l.008.072.009.072c0,.024.006.048.009.072l.01.072q.04.287.1.57c.038.189.08.376.131.561l.009.035.01.035.02.069.02.069.021.069c.015.046.027.092.043.137l.046.136a8.789,8.789,0,0,0,.442,1.061c.085.172.176.342.271.51.048.084.1.167.147.251.025.041.05.083.076.125s.052.083.076.125h0a.037.037,0,0,1-.058.044c-.069-.071-.136-.143-.2-.219-.032-.037-.063-.076-.095-.114l-.046-.059-.045-.059a5.51,5.51,0,0,1-.331-.495,5.778,5.778,0,0,1-.5-1.083l-.046-.142c-.008-.024-.015-.048-.022-.072l-.021-.072-.02-.072-.018-.072-.019-.072-.009-.036-.008-.037-.032-.146c-.009-.049-.018-.1-.027-.147-.017-.1-.032-.2-.044-.3a5.091,5.091,0,0,1-.012-1.186.036.036,0,0,1,.041-.032.037.037,0,0,1,.032.032Z" transform="translate(-276.58 -181.407)" fill="#90abf3"/>
            <path id="Trazado_1010485" data-name="Trazado 1010485" d="M383.637,139.663l-1.494-1.418a6.686,6.686,0,0,0,.036-1.446l1.564-1.342a.513.513,0,0,0,.144-.573l-.516-1.339a.513.513,0,0,0-.492-.328l-2.06.054a6.664,6.664,0,0,0-1-1.049l.156-2.054a.513.513,0,0,0-.3-.508l-1.311-.582a.513.513,0,0,0-.58.116l-1.418,1.494a6.653,6.653,0,0,0-1.447-.035l-1.342-1.564a.513.513,0,0,0-.574-.144l-1.339.516a.513.513,0,0,0-.328.492l.054,2.06a6.676,6.676,0,0,0-1.049,1l-2.054-.156a.513.513,0,0,0-.508.3l-.582,1.311a.512.512,0,0,0,.116.58l1.494,1.419a6.688,6.688,0,0,0-.035,1.447l-1.563,1.342a.513.513,0,0,0-.145.574l.516,1.339a.513.513,0,0,0,.492.328l2.06-.054a6.653,6.653,0,0,0,1,1.049l-.157,2.054a.513.513,0,0,0,.3.508l1.311.582a.513.513,0,0,0,.58-.116l1.418-1.494a6.655,6.655,0,0,0,1.447.035l1.342,1.564a.512.512,0,0,0,.573.144l1.339-.516a.513.513,0,0,0,.328-.492l-.054-2.06a6.7,6.7,0,0,0,1.048-1l2.054.156a.512.512,0,0,0,.508-.3l.582-1.311a.513.513,0,0,0-.116-.58m-4.445-.622-.011.025-.011.023-.012.026-.011.024-.011.022-.012.024-.011.022-.012.024-.011.022-.013.024-.012.022-.013.024-.012.021-.013.023-.012.021-.013.023-.012.021-.014.023-.013.021-.014.023-.013.021-.014.022-.013.02-.015.022-.013.02-.015.022-.013.02-.015.022-.013.02-.016.022-.013.019-.016.022-.013.018-.017.023-.013.018-.018.023-.013.017-.019.024-.012.016-.021.026-.01.013-.029.035,0,0-.032.038-.011.012-.022.025-.013.015-.02.022-.014.015-.02.021-.015.016-.019.02-.015.016-.019.02-.016.016-.019.019-.016.016-.019.019-.017.016-.019.018-.017.016-.019.018-.017.016-.019.018-.017.016-.019.017-.018.015-.019.017-.018.015-.019.017-.018.015-.02.016-.018.015-.02.016-.018.015-.02.016-.019.015-.02.015-.019.014-.02.015-.019.014-.02.015-.019.014-.02.015-.02.014-.02.014-.02.014-.021.014-.02.013-.021.014-.02.013-.021.014-.02.013-.021.013-.02.012-.021.013-.02.012-.022.013-.02.012-.022.013-.02.012-.022.012-.021.012-.022.012-.021.011-.022.012-.021.011-.022.012-.021.011-.022.011-.021.011-.023.011-.021.01-.023.011-.021.01-.023.011-.021.01-.023.01-.021.009-.023.01-.021.009-.023.01-.022.009-.023.009-.022.009-.024.009-.022.008-.024.009-.022.008-.024.009-.022.008-.024.008-.022.008-.024.008-.022.007-.025.008-.022.007-.025.008-.021.007-.025.008-.021.006-.025.007-.021.006-.026.007-.021.006-.027.007-.02.005-.028.007-.02,0-.03.007-.017,0-.037.008-.011,0-.048.01-.011,0-.036.007-.018,0-.03.005-.02,0-.028,0-.021,0-.027,0-.021,0-.027,0-.022,0-.026,0-.022,0-.026,0-.023,0-.026,0-.023,0-.026,0-.023,0-.026,0-.023,0-.025,0h-.023l-.025,0h-.492l-.024,0-.025,0-.024,0-.025,0-.024,0-.025,0-.024,0-.025,0-.024,0-.025,0-.024,0-.025,0-.024,0-.025,0-.024,0-.025,0-.024,0-.025,0-.024,0-.025,0-.024,0-.025-.005-.024,0-.025-.005-.024-.005-.025-.006-.024-.005-.025-.006-.024-.006-.025-.007-.024-.006-.025-.007-.024-.006-.025-.007-.024-.007-.025-.008-.024-.007-.025-.008-.024-.007-.025-.008-.023-.008-.025-.008-.023-.008-.025-.009-.023-.008-.025-.009-.023-.008-.025-.01-.023-.009-.025-.01-.023-.009-.026-.01-.022-.009-.026-.011-.022-.009-.026-.011-.022-.009-.024-.011-.024-.011-.023-.011-.024-.011-.021-.01-.026-.013-.019-.009-.028-.014-.015-.008-.031-.016-.011-.006-.035-.018-.007,0-.039-.022h0a4.091,4.091,0,0,1-1.88-4.872l0-.005.014-.039,0-.01.012-.035.005-.015.012-.031.007-.018.011-.028.008-.021.011-.026.009-.022.011-.025.01-.024.011-.024.011-.024.01-.022.012-.026.01-.022.012-.025.011-.022.012-.025.011-.022.012-.024.011-.022.012-.024.011-.022.012-.024.012-.022.013-.024.012-.021.013-.023.012-.021.013-.023.013-.021.014-.022.013-.021.014-.022.013-.021.014-.022.013-.021.014-.022.014-.02.015-.022.014-.02.015-.021.014-.02.015-.021.014-.02.015-.021.015-.02.015-.021.015-.02.016-.021.015-.019.016-.02.015-.019.016-.02.015-.019.016-.02.015-.019.017-.02.016-.019.017-.019.016-.018.017-.019.016-.018.017-.019.016-.018.017-.019.017-.017.018-.018.017-.017.018-.018.017-.017.018-.018.017-.017.018-.018.017-.017.018-.018.017-.016.019-.017.018-.016.019-.017.018-.016.019-.017.018-.015.02-.017.018-.015.02-.017.018-.015.02-.016.018-.015.02-.016.018-.014.02-.016.018-.014.021-.016.018-.014.021-.015.018-.014.021-.015.018-.013.022-.015.018-.013.022-.015.018-.012.023-.015.018-.012.024-.015.017-.011.025-.016.016-.01.03-.018.011-.007.042-.025.008,0,.034-.02.016-.009.027-.015.017-.01.025-.014.018-.01.024-.013.019-.01.024-.012.02-.01.024-.012.02-.01.023-.012.02-.01.024-.011.021-.01.023-.011.021-.009.023-.011.021-.009.023-.01.022-.009.023-.01.021-.009.024-.009.021-.008.024-.009.022-.008.024-.009.022-.008.024-.009.022-.008.024-.008.022-.008.024-.008.022-.008.024-.008.022-.007.024-.008.022-.007.024-.007.023-.007.024-.007.023-.007.024-.007.023-.006.024-.007.023-.006.024-.006.023-.006.024-.006.023-.005.025-.005.023-.005.024-.005.023,0,.024,0,.024,0,.024,0,.023,0,.025,0,.024,0,.025,0,.024,0,.025,0,.024,0,.025,0,.024,0,.025,0,.024,0,.025,0,.024,0,.025,0,.024,0,.025,0,.024,0,.025,0,.024,0,.025,0h.466l.027,0h.022l.027,0,.022,0,.028,0,.021,0,.029,0,.02,0,.032,0,.017,0,.048.006h0l.048.006.017,0,.032,0,.021,0,.029,0,.022,0,.028,0,.022,0,.027.005.023,0,.027.005.023,0,.027.006.023.005.026.006.023.005.026.006.023.006.026.007.023.006.026.007.024.007.025.007.024.007.025.007.023.007.025.008.024.007.025.008.024.008.025.008.024.008.025.009.024.008.025.009.024.009.025.009.023.009.025.009.023.009.024.01.027.011.023.01.025.011.024.011.024.011.025.011.024.011.025.011.025.012.023.011.028.014.019.009.036.018.011.005a4.093,4.093,0,0,1,1.941,5.037l0,.009-.015.04-.008.019-.012.03-.01.024-.01.025-.011.025-.01.024-.011.025-.01.024-.011.024" transform="translate(-267.579 -93.979)" fill="#90abf3"/>
            <path id="Trazado_1010486" data-name="Trazado 1010486" d="M377.052,160.995c0,.031.006.061.01.092s.007.061.01.092l.005.046.006.046c0,.015,0,.03.006.046l.006.045q.026.181.061.36c.024.119.051.237.083.354l.006.022.006.022.012.044.012.044.013.043c.009.029.017.058.027.087l.029.086a5.552,5.552,0,0,0,.279.67c.054.109.111.216.172.322.03.053.061.106.093.158l.048.079c.015.027.033.052.048.079h0a.023.023,0,0,1-.036.028c-.044-.045-.086-.09-.126-.138l-.06-.072-.029-.037-.028-.037a3.4,3.4,0,0,1-.209-.312,3.634,3.634,0,0,1-.315-.684l-.029-.09c-.005-.015-.009-.03-.014-.045l-.013-.045-.013-.046-.012-.046-.012-.046-.006-.023-.005-.023-.02-.092c-.006-.031-.011-.062-.017-.092-.011-.062-.021-.124-.028-.186a3.217,3.217,0,0,1-.007-.748.023.023,0,0,1,.046,0Z" transform="translate(-274.84 -117.356)" fill="#90abf3"/>
            <path id="Trazado_1010487" data-name="Trazado 1010487" d="M32.953,385.607a4.734,4.734,0,0,0,2.524,1.139,3.067,3.067,0,0,1,1.237.44.972.972,0,0,1,.371,1.159c-.2.395-.726.511-1,.857a1.221,1.221,0,0,0,.3,1.609,3.553,3.553,0,0,0,1.673.637,21.984,21.984,0,0,0,5.582.6,9.3,9.3,0,0,0,1.849-.3q.163-.045.323-.1a6.473,6.473,0,0,0,2.873-1.769,10.974,10.974,0,0,0,1.343-2.007l.884-1.558c.5-.881.663-1.368.526-1.673-.265-.588-1.255-.4-1.68-1.2a1.512,1.512,0,0,1-.153-.556c-.165-1.247.823-1.732.78-2.745a2.226,2.226,0,0,0-1.669-2.04c-.552-.043-1.2.193-1.6-.186-.668-.628.357-1.877-.169-2.628-.489-.7-1.728-.195-2.361-.767-.852-.77.292-2.5-.583-3.24-.852-.726-2.287.6-3.221-.013-.973-.642-.144-2.5-1.1-3.172-.743-.519-1.776.235-2.654.009-.769-.2-1.15-1.06-1.8-1.51a1.889,1.889,0,0,0-2.884,2.083,7.237,7.237,0,0,0,.78,1.422,1.59,1.59,0,0,1,.144,1.545c-.428.717-1.647.723-1.927,1.51-.251.705.471,1.357,1.122,1.725s1.43.876,1.357,1.621c-.1.973-1.591,1.361-1.628,2.338-.025.651.616,1.1,1.163,1.453s1.137.923.951,1.547-1.022.785-1.5,1.245a1.862,1.862,0,0,0,.163,2.525" transform="translate(-22.8 -267.026)" fill="#90abf3"/>
            <g id="Grupo_1183693" data-name="Grupo 1183693" transform="translate(11.542 101.041)" opacity="0.5">
              <g id="Grupo_1183692" data-name="Grupo 1183692">
                <g id="Grupo_1183691" data-name="Grupo 1183691" clip-path="url(#clip-path-4)">
                  <path id="Trazado_1010488" data-name="Trazado 1010488" d="M44.084,388.126l1.728.573,3.045,1.011,2.988.991q.322.879.623,1.765.239.7.463,1.411l-1.007-.108-2.216-.237-2.226-.238a.168.168,0,1,0-.015.336l.26.028,2.049.219,2.059.22,1.03.11.176.019q.365,1.171.693,2.352.163-.044.323-.1-.331-1.19-.7-2.371l.033-.037.349-.39,1.378-1.54L56.5,390.6a.173.173,0,0,0,.008-.238.169.169,0,0,0-.238-.007l-.711.794-1.253,1.4-1.067,1.192q-.317-.994-.66-1.979-.206-.59-.421-1.176l.668-1.105,1.249-2.069,1.255-2.079a.168.168,0,1,0-.285-.179l-.71,1.175-1.25,2.069-1.078,1.784q-.632-1.693-1.342-3.356-.257-.6-.524-1.2l.45-.91.856-1.728.856-1.728a.173.173,0,0,0-.053-.232.168.168,0,0,0-.232.053l-.485.979-.856,1.728-.715,1.444q-.736-1.62-1.546-3.205-.169-.33-.341-.659l.412-.69.82-1.372.82-1.372a.168.168,0,0,0-.285-.179l-.462.773-.82,1.372-.669,1.119q-.933-1.762-1.957-3.473.078-.289.156-.579l.621-2.314a.172.172,0,0,0-.11-.211.17.17,0,0,0-.211.11l-.176.654-.521,1.94q-1.292-2.13-2.721-4.173c-.122-.175-.42-.018-.3.16s.253.364.379.547q1.2,1.744,2.3,3.554l-.2-.079-2.337-.912a.168.168,0,0,0-.1.322l.653.254,2.272.886.238.4q.863,1.462,1.661,2.962l-.63-.212-1.826-.613-1.826-.613a.169.169,0,0,0-.1.322l1.026.344,1.826.613,1.758.59q.323.615.634,1.236.649,1.3,1.249,2.615l-.93-.239-2.3-.59-2.3-.592a.172.172,0,0,0-.211.11.169.169,0,0,0,.11.211l1.3.333,2.3.59,2.216.569q.4.887.773,1.783.574,1.372,1.094,2.766l-1.4-.464-3.045-1.01-3.067-1.018a.168.168,0,1,0-.1.321" transform="translate(-42.597 -372.902)" fill="#646794"/>
                </g>
              </g>
            </g>
            <path id="Trazado_1010489" data-name="Trazado 1010489" d="M54.207,348.565a6.558,6.558,0,0,0,3.055,2.318,4.247,4.247,0,0,1,1.535.975,1.346,1.346,0,0,1,.143,1.679c-.4.469-1.137.465-1.621.847a1.691,1.691,0,0,0-.1,2.264,4.922,4.922,0,0,0,2.062,1.376,30.461,30.461,0,0,0,7.35,2.534,12.921,12.921,0,0,0,2.59.162q.233-.01.466-.029a8.962,8.962,0,0,0,4.425-1.5,15.2,15.2,0,0,0,2.433-2.294l1.675-1.83c.948-1.035,1.318-1.642,1.227-2.1-.176-.876-1.571-.925-1.9-2.142a2.091,2.091,0,0,1-.035-.8c.163-1.735,1.646-2.083,1.9-3.464a3.083,3.083,0,0,0-1.623-3.27c-.732-.228-1.682-.109-2.109-.746-.708-1.054,1.062-2.423.584-3.6-.444-1.095-2.273-.8-2.951-1.764-.913-1.3,1.165-3.28.214-4.555-.926-1.243-3.273.108-4.345-1.013-1.116-1.167.579-3.425-.5-4.621-.842-.93-2.471-.231-3.585-.808-.977-.505-1.225-1.786-1.969-2.6a2.615,2.615,0,0,0-4.537,1.921,10.028,10.028,0,0,0,.614,2.16,2.2,2.2,0,0,1-.283,2.131c-.8.836-2.446.468-3.068,1.443-.557.875.217,1.977.982,2.676s1.659,1.624,1.331,2.608c-.429,1.285-2.568,1.346-2.92,2.654-.235.871.493,1.674,1.121,2.321s1.25,1.6.806,2.382c-.453.8-1.621.743-2.41,1.217a2.578,2.578,0,0,0-.56,3.459" transform="translate(-39.219 -235.304)" fill="#646794"/>
            <g id="Grupo_1183696" data-name="Grupo 1183696" transform="translate(19.472 90.076)" opacity="0.5">
              <g id="Grupo_1183695" data-name="Grupo 1183695">
                <g id="Grupo_1183694" data-name="Grupo 1183694" clip-path="url(#clip-path-5)">
                  <path id="Trazado_1010490" data-name="Trazado 1010490" d="M71.978,353.383l2.155,1.308,3.8,2.305,3.728,2.262q.164,1.286.3,2.575.1,1.023.189,2.047l-1.326-.457-2.919-1-2.931-1.009a.233.233,0,0,0-.124.45l.342.118,2.7.929,2.711.934,1.356.467.232.08q.132,1.693.21,3.389.233-.01.466-.029-.079-1.71-.214-3.417l.056-.039.592-.419,2.336-1.653,2.346-1.66a.239.239,0,0,0,.083-.319.234.234,0,0,0-.319-.083l-1.2.852-2.124,1.5-1.809,1.28q-.121-1.439-.28-2.875-.1-.86-.206-1.717l1.243-1.286,2.326-2.407,2.337-2.418a.233.233,0,0,0-.329-.329l-1.321,1.367-2.326,2.407-2.006,2.076q-.33-2.481-.775-4.946-.161-.89-.337-1.778l.889-1.089,1.689-2.069,1.689-2.069a.239.239,0,0,0,0-.329.233.233,0,0,0-.33,0l-.956,1.172-1.689,2.069L80.811,351.3q-.493-2.414-1.1-4.8-.126-.5-.257-.995l.77-.8,1.531-1.6,1.531-1.6a.233.233,0,1,0-.33-.33l-.863.9-1.531,1.6-1.249,1.3q-.716-2.666-1.57-5.292l.389-.734,1.554-2.933a.238.238,0,0,0-.083-.318.234.234,0,0,0-.319.083l-.439.829-1.3,2.458q-1.087-3.275-2.384-6.474c-.112-.274-.562-.154-.45.124s.229.57.342.855q1.079,2.725,2,5.508l-.248-.169-2.874-1.953a.233.233,0,0,0-.235.4l.8.545,2.793,1.9c.066.2.133.408.2.613q.713,2.241,1.327,4.512l-.785-.48-2.276-1.391-2.276-1.392a.233.233,0,0,0-.235.4l1.279.782,2.276,1.392L79,345.58q.245.93.474,1.864.477,1.95.879,3.917l-1.182-.61-2.917-1.5-2.928-1.511a.238.238,0,0,0-.318.083.234.234,0,0,0,.083.319l1.647.85,2.917,1.5,2.816,1.453q.263,1.321.492,2.646.352,2.03.622,4.072l-1.744-1.058-3.8-2.3-3.826-2.321a.233.233,0,1,0-.235.4" transform="translate(-71.864 -332.435)" fill="#4f545d"/>
                </g>
              </g>
            </g>
            <path id="Trazado_1010491" data-name="Trazado 1010491" d="M87.571,407.833a3.343,3.343,0,0,0,1.783.8,2.171,2.171,0,0,1,.874.311.687.687,0,0,1,.262.819c-.145.279-.513.361-.71.606a.862.862,0,0,0,.21,1.136,2.506,2.506,0,0,0,1.182.45,15.536,15.536,0,0,0,3.943.424,6.572,6.572,0,0,0,1.306-.214q.115-.031.228-.067a4.573,4.573,0,0,0,2.03-1.25,7.75,7.75,0,0,0,.948-1.418l.625-1.1c.353-.622.469-.966.371-1.182-.187-.415-.886-.281-1.187-.849a1.06,1.06,0,0,1-.108-.393c-.117-.881.581-1.223.551-1.939a1.572,1.572,0,0,0-1.179-1.441c-.39-.03-.848.137-1.134-.131-.472-.444.252-1.326-.119-1.856-.345-.494-1.221-.137-1.668-.541-.6-.544.206-1.763-.412-2.289-.6-.513-1.615.426-2.275-.009-.687-.453-.1-1.769-.777-2.241-.525-.367-1.255.166-1.874.006-.543-.14-.812-.749-1.274-1.066a1.334,1.334,0,0,0-2.037,1.471,5.108,5.108,0,0,0,.551,1,1.123,1.123,0,0,1,.1,1.091c-.3.507-1.163.511-1.361,1.067-.177.5.333.958.793,1.219s1.01.619.958,1.145c-.067.687-1.123.962-1.15,1.652-.018.46.435.776.821,1.027s.8.652.672,1.093-.722.554-1.06.879a1.315,1.315,0,0,0,.115,1.784" transform="translate(-62.979 -287.369)" fill="#90abf3"/>
            <g id="Grupo_1183699" data-name="Grupo 1183699" transform="translate(23.407 106.805)" opacity="0.2">
              <g id="Grupo_1183698" data-name="Grupo 1183698">
                <g id="Grupo_1183697" data-name="Grupo 1183697" clip-path="url(#clip-path-6)">
                  <path id="Trazado_1010492" data-name="Trazado 1010492" d="M87.571,407.833a3.343,3.343,0,0,0,1.783.8,2.171,2.171,0,0,1,.874.311.687.687,0,0,1,.262.819c-.145.279-.513.361-.71.606a.862.862,0,0,0,.21,1.136,2.506,2.506,0,0,0,1.182.45,15.536,15.536,0,0,0,3.943.424,6.572,6.572,0,0,0,1.306-.214q.115-.031.228-.067a4.573,4.573,0,0,0,2.03-1.25,7.75,7.75,0,0,0,.948-1.418l.625-1.1c.353-.622.469-.966.371-1.182-.187-.415-.886-.281-1.187-.849a1.06,1.06,0,0,1-.108-.393c-.117-.881.581-1.223.551-1.939a1.572,1.572,0,0,0-1.179-1.441c-.39-.03-.848.137-1.134-.131-.472-.444.252-1.326-.119-1.856-.345-.494-1.221-.137-1.668-.541-.6-.544.206-1.763-.412-2.289-.6-.513-1.615.426-2.275-.009-.687-.453-.1-1.769-.777-2.241-.525-.367-1.255.166-1.874.006-.543-.14-.812-.749-1.274-1.066a1.334,1.334,0,0,0-2.037,1.471,5.108,5.108,0,0,0,.551,1,1.123,1.123,0,0,1,.1,1.091c-.3.507-1.163.511-1.361,1.067-.177.5.333.958.793,1.219s1.01.619.958,1.145c-.067.687-1.123.962-1.15,1.652-.018.46.435.776.821,1.027s.8.652.672,1.093-.722.554-1.06.879a1.315,1.315,0,0,0,.115,1.784" transform="translate(-86.386 -394.174)" fill="#4f545d"/>
                </g>
              </g>
            </g>
            <g id="Grupo_1183702" data-name="Grupo 1183702" transform="translate(25.574 108.074)" opacity="0.5">
              <g id="Grupo_1183701" data-name="Grupo 1183701">
                <g id="Grupo_1183700" data-name="Grupo 1183700" clip-path="url(#clip-path-7)">
                  <path id="Trazado_1010493" data-name="Trazado 1010493" d="M105.639,425.423a.03.03,0,0,1-.013-.058.03.03,0,0,1,.013.058" transform="translate(-102.564 -418.182)" fill="#38a891"/>
                  <path id="Trazado_1010494" data-name="Trazado 1010494" d="M95.434,409.612l1.22.405,2.151.714,2.111.7q.228.621.44,1.247.168.5.327,1l-.711-.076-1.566-.167-1.572-.169a.119.119,0,1,0-.011.238l.184.02,1.447.155,1.455.156.727.078.125.014q.258.827.49,1.661.115-.031.228-.067-.234-.841-.5-1.675l.023-.026.247-.276.973-1.087.978-1.092a.123.123,0,0,0,.005-.168.119.119,0,0,0-.168-.005l-.5.561-.885.989-.754.842q-.224-.7-.466-1.4-.145-.416-.3-.83l.471-.781.883-1.461.887-1.468a.119.119,0,1,0-.2-.127l-.5.83-.883,1.461-.761,1.26q-.447-1.2-.948-2.371-.181-.424-.37-.845l.318-.643.6-1.221.6-1.221a.122.122,0,0,0-.037-.164.12.12,0,0,0-.164.038l-.342.691-.6,1.221-.5,1.02q-.52-1.145-1.092-2.264-.119-.233-.241-.466l.291-.487.58-.969.579-.969a.121.121,0,0,0-.037-.164.12.12,0,0,0-.164.038l-.327.546-.579.969-.473.79q-.659-1.244-1.383-2.453l.11-.409.439-1.635a.122.122,0,0,0-.078-.149.12.12,0,0,0-.149.078l-.124.462-.368,1.371q-.913-1.5-1.922-2.947c-.086-.124-.3-.012-.209.113l.268.386q.847,1.232,1.623,2.511l-.143-.056-1.651-.644a.119.119,0,0,0-.071.227l.461.18,1.6.626c.056.094.112.188.168.282q.61,1.033,1.173,2.092l-.445-.149-1.29-.433-1.29-.433a.119.119,0,0,0-.071.227l.725.243,1.29.433,1.242.417q.228.435.448.873.459.915.883,1.847l-.657-.169-1.621-.417-1.628-.418a.121.121,0,0,0-.149.078.119.119,0,0,0,.078.149l.916.235,1.622.417,1.565.4q.281.627.546,1.26.406.969.773,1.954l-.988-.328-2.151-.714-2.166-.719a.119.119,0,0,0-.071.227" transform="translate(-94.384 -398.858)" fill="#646794"/>
                </g>
              </g>
            </g>
            <path id="Trazado_1010495" data-name="Trazado 1010495" d="M127.489,385.418a4.732,4.732,0,0,1-2.4,1.373,3.071,3.071,0,0,0-1.19.555.972.972,0,0,0-.259,1.188c.241.373.771.44,1.081.758a1.221,1.221,0,0,1-.143,1.63,3.552,3.552,0,0,1-1.605.792,21.986,21.986,0,0,1-5.5,1.125,9.312,9.312,0,0,1-1.869-.127q-.166-.029-.331-.064a6.472,6.472,0,0,1-3.028-1.489,10.96,10.96,0,0,1-1.527-1.871l-1.028-1.467c-.581-.83-.79-1.3-.681-1.616.208-.61,1.211-.515,1.558-1.356a1.5,1.5,0,0,0,.1-.568c.046-1.258-.983-1.646-1.036-2.659a2.226,2.226,0,0,1,1.469-2.189c.546-.1,1.214.079,1.58-.337.606-.689-.533-1.834-.081-2.632.421-.742,1.7-.357,2.278-.986.775-.847-.526-2.457.273-3.281.78-.8,2.333.384,3.205-.318.908-.731-.094-2.506.794-3.262.69-.587,1.79.066,2.642-.242.746-.27,1.045-1.164,1.653-1.673a1.889,1.889,0,0,1,3.068,1.8,7.25,7.25,0,0,1-.642,1.489,1.591,1.591,0,0,0,0,1.552c.494.674,1.708.564,2.061,1.321.317.678-.341,1.4-.954,1.824s-1.34,1.007-1.2,1.742c.187.96,1.712,1.2,1.842,2.174.087.646-.51,1.152-1.02,1.557s-1.045,1.026-.8,1.63,1.091.684,1.612,1.1a1.861,1.861,0,0,1,.077,2.529" transform="translate(-79.448 -267.027)" fill="#90abf3"/>
            <g id="Grupo_1183705" data-name="Grupo 1183705" transform="translate(32.767 101.082)" opacity="0.5">
              <g id="Grupo_1183704" data-name="Grupo 1183704">
                <g id="Grupo_1183703" data-name="Grupo 1183703" clip-path="url(#clip-path-8)">
                  <path id="Trazado_1010496" data-name="Trazado 1010496" d="M133.12,388.328l-1.666.734-2.936,1.294-2.881,1.27q-.238.9-.454,1.816-.171.722-.327,1.448l.992-.2,2.184-.446,2.193-.448a.168.168,0,0,1,.047.334l-.256.052-2.019.412-2.029.414-1.014.207-.174.035q-.253,1.2-.468,2.407c-.111-.019-.221-.041-.331-.064q.217-1.217.473-2.426l-.037-.033-.384-.355-1.517-1.4-1.524-1.408a.173.173,0,0,1-.03-.236.169.169,0,0,1,.236-.03l.783.723,1.38,1.275,1.175,1.086q.221-1.019.47-2.032.149-.606.308-1.21l-.769-1.037-1.44-1.941-1.446-1.95a.168.168,0,0,1,.267-.205l.818,1.1,1.44,1.941,1.242,1.674q.469-1.746,1.019-3.468.2-.623.408-1.241l-.534-.863-1.016-1.64-1.015-1.64a.173.173,0,0,1,.031-.236.169.169,0,0,1,.236.031l.575.929,1.016,1.64.848,1.37q.579-1.682,1.236-3.337.137-.345.277-.688l-.476-.647-.946-1.288-.946-1.288a.168.168,0,0,1,.267-.205l.534.726.946,1.288.772,1.05q.762-1.842,1.62-3.642l-.21-.562-.837-2.245a.172.172,0,0,1,.09-.22.169.169,0,0,1,.22.09l.237.635.7,1.882q1.085-2.242,2.314-4.411c.106-.186.417-.057.31.131s-.218.386-.325.58q-1.028,1.85-1.951,3.756l.193-.1,2.241-1.129a.168.168,0,0,1,.13.311l-.626.315-2.177,1.1c-.067.14-.134.279-.2.42q-.721,1.537-1.373,3.106l.607-.27,1.76-.783,1.76-.783a.168.168,0,0,1,.131.311l-.989.44-1.76.783-1.695.754q-.263.643-.514,1.29-.524,1.351-1,2.722l.9-.326,2.229-.8,2.238-.807a.172.172,0,0,1,.22.09.169.169,0,0,1-.09.221l-1.259.454-2.229.8-2.152.776q-.312.921-.6,1.848-.442,1.421-.827,2.857l1.348-.594,2.936-1.294,2.957-1.3a.168.168,0,1,1,.131.31" transform="translate(-120.929 -373.053)" fill="#646794"/>
                </g>
              </g>
            </g>
            <path id="Trazado_1010497" data-name="Trazado 1010497" d="M53.794,460.136H85.219a1.562,1.562,0,0,0-1.562-1.562h-28.3a1.562,1.562,0,0,0-1.562,1.562" transform="translate(-39.218 -334.319)" fill="#90abf3"/>
            <g id="Grupo_1183708" data-name="Grupo 1183708" transform="translate(14.576 124.255)" opacity="0.2">
              <g id="Grupo_1183707" data-name="Grupo 1183707">
                <g id="Grupo_1183706" data-name="Grupo 1183706" clip-path="url(#clip-path-9)">
                  <path id="Trazado_1010498" data-name="Trazado 1010498" d="M53.794,460.136H66.8a1.562,1.562,0,0,0-1.562-1.562H55.356a1.562,1.562,0,0,0-1.562,1.562" transform="translate(-53.794 -458.574)" fill="#4f545d"/>
                </g>
              </g>
            </g>
            <path id="Trazado_1010499" data-name="Trazado 1010499" d="M344.767,385.607a4.734,4.734,0,0,0,2.524,1.139,3.067,3.067,0,0,1,1.237.44.972.972,0,0,1,.371,1.159c-.2.395-.726.511-1,.857a1.221,1.221,0,0,0,.3,1.609,3.553,3.553,0,0,0,1.673.637,21.984,21.984,0,0,0,5.582.6,9.3,9.3,0,0,0,1.849-.3q.163-.045.323-.1a6.473,6.473,0,0,0,2.873-1.769,10.972,10.972,0,0,0,1.343-2.007l.884-1.558c.5-.881.663-1.368.526-1.673-.265-.588-1.255-.4-1.68-1.2a1.512,1.512,0,0,1-.153-.556c-.165-1.247.823-1.732.78-2.745a2.226,2.226,0,0,0-1.669-2.04c-.552-.043-1.2.193-1.6-.186-.668-.628.357-1.877-.169-2.628-.489-.7-1.728-.195-2.361-.767-.852-.77.292-2.5-.583-3.24-.852-.726-2.287.6-3.221-.013-.973-.642-.144-2.5-1.1-3.172-.743-.519-1.776.235-2.654.009-.769-.2-1.15-1.06-1.8-1.51a1.889,1.889,0,0,0-2.884,2.083,7.236,7.236,0,0,0,.78,1.422,1.59,1.59,0,0,1,.144,1.545c-.428.717-1.647.723-1.927,1.51-.251.705.471,1.357,1.122,1.725s1.43.876,1.357,1.621c-.1.973-1.591,1.361-1.628,2.338-.025.651.616,1.1,1.163,1.453s1.137.923.951,1.547-1.021.785-1.5,1.245a1.862,1.862,0,0,0,.163,2.525" transform="translate(-250.125 -267.026)" fill="#90abf3"/>
            <g id="Grupo_1183711" data-name="Grupo 1183711" transform="translate(96.031 101.041)" opacity="0.5">
              <g id="Grupo_1183710" data-name="Grupo 1183710">
                <g id="Grupo_1183709" data-name="Grupo 1183709" clip-path="url(#clip-path-10)">
                  <path id="Trazado_1010500" data-name="Trazado 1010500" d="M355.9,388.126l1.728.573,3.045,1.011,2.988.991q.322.879.623,1.765.239.7.463,1.411l-1.007-.108-2.216-.237-2.226-.238a.168.168,0,1,0-.015.336l.26.028,2.049.219,2.059.22,1.03.11.176.019q.365,1.171.693,2.352.163-.044.323-.1-.331-1.19-.7-2.371l.033-.037.349-.39,1.378-1.54,1.384-1.546a.173.173,0,0,0,.008-.238.169.169,0,0,0-.238-.007l-.711.794-1.253,1.4-1.067,1.192q-.317-.994-.66-1.979-.206-.59-.421-1.176l.668-1.105,1.249-2.069,1.255-2.079a.168.168,0,1,0-.285-.179l-.71,1.175L364.9,388.4l-1.078,1.784q-.632-1.693-1.342-3.356-.257-.6-.524-1.2l.45-.91.856-1.728.856-1.728a.173.173,0,0,0-.053-.232.168.168,0,0,0-.232.053l-.485.979-.856,1.728-.715,1.444q-.736-1.62-1.546-3.205-.169-.33-.341-.659l.412-.69.82-1.372.82-1.372a.168.168,0,0,0-.285-.179l-.462.773-.82,1.372-.669,1.119q-.933-1.762-1.957-3.473.078-.289.156-.579l.621-2.314a.172.172,0,0,0-.11-.211.17.17,0,0,0-.211.11l-.176.654-.521,1.94q-1.292-2.13-2.721-4.173c-.122-.175-.42-.018-.3.16s.253.364.379.547q1.2,1.744,2.3,3.554l-.2-.079-2.337-.912a.168.168,0,0,0-.1.322l.653.254,2.272.886.238.4q.863,1.462,1.661,2.962l-.63-.212-1.826-.613-1.826-.613a.169.169,0,0,0-.1.322L356,380.3l1.826.613,1.758.59q.323.615.634,1.236.65,1.3,1.249,2.615l-.93-.239-2.3-.59-2.3-.592a.172.172,0,0,0-.211.11.169.169,0,0,0,.11.211l1.3.333,2.3.59,2.216.569q.4.887.773,1.783.574,1.372,1.094,2.766l-1.4-.464-3.045-1.01L356,387.805a.168.168,0,1,0-.1.321" transform="translate(-354.411 -372.902)" fill="#646794"/>
                </g>
              </g>
            </g>
            <path id="Trazado_1010501" data-name="Trazado 1010501" d="M366.02,348.565a6.558,6.558,0,0,0,3.055,2.318,4.247,4.247,0,0,1,1.535.975,1.346,1.346,0,0,1,.143,1.679c-.4.469-1.137.465-1.621.847a1.691,1.691,0,0,0-.1,2.264,4.922,4.922,0,0,0,2.062,1.376,30.461,30.461,0,0,0,7.35,2.534,12.921,12.921,0,0,0,2.59.162c.155-.007.311-.017.466-.029a8.962,8.962,0,0,0,4.425-1.5,15.2,15.2,0,0,0,2.433-2.294l1.675-1.83c.948-1.035,1.318-1.642,1.227-2.1-.176-.876-1.571-.925-1.9-2.142a2.091,2.091,0,0,1-.035-.8c.163-1.735,1.646-2.083,1.9-3.464a3.083,3.083,0,0,0-1.623-3.27c-.732-.228-1.682-.109-2.109-.746-.708-1.054,1.062-2.423.584-3.6-.444-1.095-2.273-.8-2.951-1.764-.913-1.3,1.165-3.28.214-4.555-.926-1.243-3.273.108-4.345-1.013-1.116-1.167.579-3.425-.5-4.621-.842-.93-2.471-.231-3.585-.808-.977-.505-1.225-1.786-1.969-2.6a2.615,2.615,0,0,0-4.537,1.921,10.03,10.03,0,0,0,.614,2.16,2.2,2.2,0,0,1-.283,2.131c-.8.836-2.446.468-3.068,1.443-.557.875.217,1.977.982,2.676s1.659,1.624,1.331,2.608c-.429,1.285-2.568,1.346-2.92,2.654-.235.871.493,1.674,1.121,2.321s1.25,1.6.806,2.382c-.452.8-1.621.743-2.41,1.217a2.578,2.578,0,0,0-.56,3.459" transform="translate(-266.543 -235.304)" fill="#646794"/>
            <g id="Grupo_1183714" data-name="Grupo 1183714" transform="translate(103.961 90.076)" opacity="0.5">
              <g id="Grupo_1183713" data-name="Grupo 1183713">
                <g id="Grupo_1183712" data-name="Grupo 1183712" clip-path="url(#clip-path-5)">
                  <path id="Trazado_1010502" data-name="Trazado 1010502" d="M383.791,353.383l2.155,1.308,3.8,2.305,3.728,2.262q.164,1.286.3,2.575.1,1.023.189,2.047l-1.326-.457-2.919-1-2.931-1.009a.233.233,0,0,0-.124.45l.342.118,2.7.929,2.711.934,1.356.467.232.08q.132,1.693.21,3.389.233-.01.466-.029-.079-1.71-.214-3.417l.056-.039.592-.419,2.336-1.653,2.346-1.66a.239.239,0,0,0,.083-.319.234.234,0,0,0-.319-.083l-1.2.852-2.124,1.5-1.809,1.28q-.121-1.439-.28-2.875-.1-.86-.206-1.717l1.243-1.286,2.326-2.407,2.337-2.418a.233.233,0,0,0-.329-.329l-1.321,1.367-2.326,2.407-2.006,2.076q-.33-2.481-.775-4.946-.161-.89-.337-1.778l.889-1.089,1.689-2.069,1.689-2.069a.239.239,0,0,0,0-.329.233.233,0,0,0-.33,0l-.957,1.172-1.689,2.069-1.411,1.728q-.493-2.414-1.1-4.8-.126-.5-.257-.995l.77-.8,1.531-1.6,1.531-1.6a.233.233,0,1,0-.33-.33l-.863.9-1.531,1.6-1.249,1.3q-.716-2.666-1.57-5.292l.389-.734,1.554-2.933a.238.238,0,0,0-.083-.318.234.234,0,0,0-.319.083l-.439.829-1.3,2.458q-1.087-3.275-2.384-6.474c-.112-.274-.562-.154-.45.124s.229.57.342.855q1.079,2.725,2,5.508l-.248-.169-2.874-1.953a.233.233,0,0,0-.235.4l.8.545,2.793,1.9c.066.2.133.408.2.613q.713,2.241,1.327,4.512l-.785-.48-2.276-1.391-2.276-1.392a.233.233,0,0,0-.235.4l1.279.782,2.276,1.392,2.192,1.34q.245.93.474,1.864.477,1.95.879,3.917l-1.182-.61-2.917-1.5-2.928-1.511a.238.238,0,0,0-.318.083.234.234,0,0,0,.083.319l1.647.85,2.917,1.5,2.816,1.453q.263,1.321.492,2.646.352,2.03.622,4.072l-1.744-1.058-3.8-2.3-3.826-2.321a.233.233,0,0,0-.235.4" transform="translate(-383.677 -332.435)" fill="#4f545d"/>
                </g>
              </g>
            </g>
            <path id="Trazado_1010503" data-name="Trazado 1010503" d="M399.384,407.833a3.343,3.343,0,0,0,1.783.8,2.17,2.17,0,0,1,.874.311.687.687,0,0,1,.262.819c-.145.279-.513.361-.71.606a.862.862,0,0,0,.21,1.136,2.506,2.506,0,0,0,1.182.45,15.536,15.536,0,0,0,3.943.424,6.572,6.572,0,0,0,1.306-.214q.115-.031.228-.067a4.573,4.573,0,0,0,2.03-1.25,7.751,7.751,0,0,0,.948-1.418l.625-1.1c.353-.622.469-.966.371-1.182-.187-.415-.886-.281-1.187-.849a1.06,1.06,0,0,1-.108-.393c-.117-.881.581-1.223.551-1.939a1.572,1.572,0,0,0-1.179-1.441c-.39-.03-.848.137-1.134-.131-.472-.444.252-1.326-.119-1.856-.345-.494-1.221-.137-1.668-.541-.6-.544.206-1.763-.412-2.289-.6-.513-1.615.426-2.275-.009-.687-.453-.1-1.769-.777-2.241-.525-.367-1.255.166-1.874.006-.543-.14-.812-.749-1.274-1.066a1.334,1.334,0,0,0-2.037,1.471,5.109,5.109,0,0,0,.551,1,1.123,1.123,0,0,1,.1,1.091c-.3.507-1.163.511-1.361,1.067-.177.5.333.958.793,1.219s1.01.619.958,1.145c-.067.687-1.123.962-1.15,1.652-.018.46.435.776.821,1.027s.8.652.672,1.093-.722.554-1.06.879a1.315,1.315,0,0,0,.115,1.784" transform="translate(-290.303 -287.369)" fill="#90abf3"/>
            <g id="Grupo_1183717" data-name="Grupo 1183717" transform="translate(107.896 106.805)" opacity="0.2">
              <g id="Grupo_1183716" data-name="Grupo 1183716">
                <g id="Grupo_1183715" data-name="Grupo 1183715" clip-path="url(#clip-path-6)">
                  <path id="Trazado_1010504" data-name="Trazado 1010504" d="M399.384,407.833a3.343,3.343,0,0,0,1.783.8,2.17,2.17,0,0,1,.874.311.687.687,0,0,1,.262.819c-.145.279-.513.361-.71.606a.862.862,0,0,0,.21,1.136,2.506,2.506,0,0,0,1.182.45,15.536,15.536,0,0,0,3.943.424,6.572,6.572,0,0,0,1.306-.214q.115-.031.228-.067a4.573,4.573,0,0,0,2.03-1.25,7.751,7.751,0,0,0,.948-1.418l.625-1.1c.353-.622.469-.966.371-1.182-.187-.415-.886-.281-1.187-.849a1.06,1.06,0,0,1-.108-.393c-.117-.881.581-1.223.551-1.939a1.572,1.572,0,0,0-1.179-1.441c-.39-.03-.848.137-1.134-.131-.472-.444.252-1.326-.119-1.856-.345-.494-1.221-.137-1.668-.541-.6-.544.206-1.763-.412-2.289-.6-.513-1.615.426-2.275-.009-.687-.453-.1-1.769-.777-2.241-.525-.367-1.255.166-1.874.006-.543-.14-.812-.749-1.274-1.066a1.334,1.334,0,0,0-2.037,1.471,5.109,5.109,0,0,0,.551,1,1.123,1.123,0,0,1,.1,1.091c-.3.507-1.163.511-1.361,1.067-.177.5.333.958.793,1.219s1.01.619.958,1.145c-.067.687-1.123.962-1.15,1.652-.018.46.435.776.821,1.027s.8.652.672,1.093-.722.554-1.06.879a1.315,1.315,0,0,0,.115,1.784" transform="translate(-398.199 -394.174)" fill="#4f545d"/>
                </g>
              </g>
            </g>
            <g id="Grupo_1183720" data-name="Grupo 1183720" transform="translate(110.063 108.074)" opacity="0.5">
              <g id="Grupo_1183719" data-name="Grupo 1183719">
                <g id="Grupo_1183718" data-name="Grupo 1183718" clip-path="url(#clip-path-7)">
                  <path id="Trazado_1010505" data-name="Trazado 1010505" d="M417.453,425.423a.03.03,0,0,1-.013-.058.03.03,0,0,1,.013.058" transform="translate(-414.377 -418.182)" fill="#38a891"/>
                  <path id="Trazado_1010506" data-name="Trazado 1010506" d="M407.247,409.612l1.22.405,2.151.714,2.111.7q.228.621.44,1.247.168.5.327,1l-.711-.076-1.566-.167-1.572-.169a.119.119,0,0,0-.011.238l.184.02,1.447.155,1.455.156.727.078.125.014q.258.827.49,1.661.115-.031.228-.067-.234-.841-.5-1.675l.023-.026.247-.276.973-1.087.978-1.092a.122.122,0,0,0,.005-.168.119.119,0,0,0-.168-.005l-.5.561-.885.989-.754.842q-.224-.7-.466-1.4-.145-.416-.3-.83l.471-.781.883-1.461.887-1.468a.119.119,0,0,0-.2-.127l-.5.83-.883,1.461-.761,1.26q-.447-1.2-.948-2.371-.181-.424-.37-.845l.318-.643.6-1.221.6-1.221a.122.122,0,0,0-.037-.164.12.12,0,0,0-.164.038l-.342.691-.6,1.221-.5,1.02q-.52-1.145-1.092-2.264-.119-.233-.241-.466l.291-.487.58-.969.579-.969a.121.121,0,0,0-.037-.164.12.12,0,0,0-.164.038l-.327.546-.579.969-.473.79q-.659-1.244-1.383-2.453l.11-.409.439-1.635a.122.122,0,0,0-.078-.149.12.12,0,0,0-.149.078l-.124.462-.368,1.371q-.913-1.5-1.922-2.947c-.086-.124-.3-.012-.209.113l.268.386q.847,1.232,1.623,2.511l-.143-.056-1.651-.644a.119.119,0,0,0-.071.227l.461.18,1.6.626c.056.094.112.188.168.282q.61,1.033,1.173,2.092l-.445-.149-1.29-.433-1.29-.433a.119.119,0,0,0-.071.227l.725.243,1.29.433,1.242.417q.228.435.448.873.459.915.883,1.847l-.657-.169-1.621-.417-1.628-.418a.121.121,0,0,0-.149.078.119.119,0,0,0,.078.149l.916.235,1.622.417,1.565.4q.281.627.546,1.26.406.969.773,1.954l-.988-.328-2.151-.714-2.166-.719a.119.119,0,0,0-.071.227" transform="translate(-406.197 -398.858)" fill="#646794"/>
                </g>
              </g>
            </g>
            <path id="Trazado_1010507" data-name="Trazado 1010507" d="M439.3,385.418a4.732,4.732,0,0,1-2.4,1.373,3.071,3.071,0,0,0-1.19.555.972.972,0,0,0-.259,1.188c.241.373.771.44,1.081.758a1.221,1.221,0,0,1-.143,1.63,3.552,3.552,0,0,1-1.605.792,21.986,21.986,0,0,1-5.5,1.125,9.312,9.312,0,0,1-1.869-.127q-.166-.029-.331-.064a6.472,6.472,0,0,1-3.028-1.489,10.96,10.96,0,0,1-1.527-1.871L421.5,387.82c-.581-.83-.79-1.3-.681-1.616.208-.61,1.211-.515,1.558-1.356a1.5,1.5,0,0,0,.1-.568c.046-1.258-.983-1.646-1.036-2.659a2.226,2.226,0,0,1,1.469-2.189c.546-.1,1.214.079,1.58-.337.606-.689-.533-1.834-.081-2.632.421-.742,1.7-.357,2.278-.986.775-.847-.526-2.457.273-3.281.78-.8,2.334.384,3.205-.318.908-.731-.094-2.506.794-3.262.69-.587,1.79.066,2.642-.242.747-.27,1.045-1.164,1.653-1.673a1.889,1.889,0,0,1,3.068,1.8,7.264,7.264,0,0,1-.642,1.489,1.59,1.59,0,0,0,0,1.552c.494.674,1.708.564,2.061,1.321.317.678-.341,1.4-.954,1.824s-1.34,1.007-1.2,1.742c.187.96,1.712,1.2,1.842,2.174.087.646-.51,1.152-1.02,1.557s-1.045,1.026-.8,1.63,1.091.684,1.612,1.1a1.861,1.861,0,0,1,.077,2.529" transform="translate(-306.773 -267.027)" fill="#90abf3"/>
            <g id="Grupo_1183723" data-name="Grupo 1183723" transform="translate(117.256 101.082)" opacity="0.5">
              <g id="Grupo_1183722" data-name="Grupo 1183722">
                <g id="Grupo_1183721" data-name="Grupo 1183721" clip-path="url(#clip-path-8)">
                  <path id="Trazado_1010508" data-name="Trazado 1010508" d="M444.935,388.328l-1.666.734-2.936,1.294-2.881,1.27q-.238.9-.454,1.816-.171.722-.327,1.448l.992-.2,2.184-.446,2.193-.448a.168.168,0,0,1,.047.334l-.256.052-2.019.412-2.029.414-1.014.207-.174.035q-.253,1.2-.468,2.407c-.111-.019-.221-.041-.331-.064q.217-1.217.473-2.426l-.036-.033-.384-.355-1.517-1.4-1.524-1.408a.173.173,0,0,1-.03-.236.169.169,0,0,1,.236-.03l.783.723,1.38,1.275,1.175,1.086q.221-1.019.47-2.032.149-.606.308-1.21l-.769-1.037-1.44-1.941-1.446-1.95a.168.168,0,0,1,.267-.205l.818,1.1,1.44,1.941,1.242,1.674q.469-1.746,1.019-3.468.2-.623.408-1.241l-.534-.863-1.016-1.64-1.015-1.64a.173.173,0,0,1,.031-.236.169.169,0,0,1,.236.031l.575.929,1.016,1.64.848,1.37q.579-1.682,1.236-3.337.137-.345.277-.688l-.476-.647-.946-1.288-.946-1.288a.168.168,0,0,1,.267-.205l.534.726.946,1.288.772,1.05q.762-1.842,1.62-3.642l-.21-.562-.837-2.245a.172.172,0,0,1,.09-.22.17.17,0,0,1,.221.09l.237.635.7,1.882q1.085-2.242,2.314-4.411c.106-.186.417-.057.31.131s-.218.386-.325.58q-1.028,1.85-1.951,3.756l.193-.1,2.241-1.129a.168.168,0,0,1,.13.311l-.626.315-2.177,1.1c-.067.14-.134.279-.2.42q-.721,1.537-1.373,3.106l.607-.27,1.76-.783,1.76-.783a.168.168,0,0,1,.131.311l-.989.44-1.76.783-1.695.754q-.263.643-.514,1.29-.524,1.351-1,2.722l.9-.326,2.229-.8,2.238-.807a.172.172,0,0,1,.22.09.169.169,0,0,1-.09.221l-1.259.454-2.229.8-2.152.776q-.312.921-.6,1.848-.442,1.421-.827,2.857l1.348-.594,2.936-1.294,2.957-1.3a.168.168,0,0,1,.131.31" transform="translate(-432.743 -373.053)" fill="#646794"/>
                </g>
              </g>
            </g>
            <path id="Trazado_1010509" data-name="Trazado 1010509" d="M365.607,460.136h31.425a1.562,1.562,0,0,0-1.562-1.562h-28.3a1.562,1.562,0,0,0-1.562,1.562" transform="translate(-266.542 -334.319)" fill="#90abf3"/>
            <g id="Grupo_1183726" data-name="Grupo 1183726" transform="translate(99.065 124.255)" opacity="0.2">
              <g id="Grupo_1183725" data-name="Grupo 1183725">
                <g id="Grupo_1183724" data-name="Grupo 1183724" clip-path="url(#clip-path-9)">
                  <path id="Trazado_1010510" data-name="Trazado 1010510" d="M365.607,460.136h13.01a1.562,1.562,0,0,0-1.562-1.562h-9.886a1.562,1.562,0,0,0-1.562,1.562" transform="translate(-365.607 -458.574)" fill="#4f545d"/>
                </g>
              </g>
            </g>
            <path id="Trazado_1010511" data-name="Trazado 1010511" d="M138.815,254.769h26.616a1.517,1.517,0,0,1,1.449,1.069l5.687,18.386h14.149a1.009,1.009,0,1,1,0,2.019H173.192l.012.04H145.087a2.271,2.271,0,0,1-2.17-1.6l-5.551-17.949a1.517,1.517,0,0,1,1.449-1.965" transform="translate(-100.095 -185.737)" fill="#0c232b"/>
            <g id="Grupo_1183729" data-name="Grupo 1183729" transform="translate(59.021 70.061)" opacity="0.2">
              <g id="Grupo_1183728" data-name="Grupo 1183728">
                <g id="Grupo_1183727" data-name="Grupo 1183727" clip-path="url(#clip-path-16)">
                  <path id="Trazado_1010512" data-name="Trazado 1010512" d="M222.512,258.613a1.814,1.814,0,0,1,1.688,1.281q1.435,4.681,1.24,4.749t-1.907-4.191a1.813,1.813,0,0,0-1.484-1.124q-4.241-.462-4.229-.644t4.692-.072" transform="translate(-217.82 -258.568)" fill="#f9f9dd"/>
                </g>
              </g>
            </g>
            <g id="Grupo_1183732" data-name="Grupo 1183732" transform="translate(69.89 88.952)" opacity="0.2">
              <g id="Grupo_1183731" data-name="Grupo 1183731">
                <g id="Grupo_1183730" data-name="Grupo 1183730" clip-path="url(#clip-path-17)">
                  <path id="Trazado_1010513" data-name="Trazado 1010513" d="M274.222,328.544c0-.128-9.61-.286-14.878-.253a12.218,12.218,0,0,0-1.408.036c0,.063,4.248.221,8.234.272,3.228.041,8.051.036,8.052-.055" transform="translate(-257.936 -328.286)" fill="#f9f9dd"/>
                </g>
              </g>
            </g>
            <path id="Trazado_1010514" data-name="Trazado 1010514" d="M170.525,259.136l-26.426.1,5.742,18.092h26.286Z" transform="translate(-105.054 -188.921)" fill="#cde2f0"/>
            <path id="Trazado_1010515" data-name="Trazado 1010515" d="M291.546,404.783c.176,8.385,5.048,15.139,11.159,15.264l.458.01,4.758.1c6.111.124,11.224-6.427,11.7-14.8a.865.865,0,0,0-.246-.661.772.772,0,0,0-.532-.231l-15.905-.325-10.586-.216a.739.739,0,0,0-.216.028.835.835,0,0,0-.593.832" transform="translate(-212.549 -294.477)" fill="#8ea0c7"/>
            <path id="Trazado_1010516" data-name="Trazado 1010516" d="M169.553,436.91l.314.118a2.359,2.359,0,0,0,3.029-1.376l1.155-3.075a2.359,2.359,0,0,0-1.375-3.029l-.314-.118a2.359,2.359,0,0,0-3.029,1.375l-1.155,3.075a2.36,2.36,0,0,0,1.376,3.029" transform="translate(-122.499 -312.963)" fill="#fdfcf6"/>
            <path id="Trazado_1010517" data-name="Trazado 1010517" d="M170.157,436.2a.676.676,0,0,1-.237-.043l-3.592-1.349a.678.678,0,0,1-.4-.871l2.385-6.354a.678.678,0,0,1,.871-.4l3.592,1.349a.677.677,0,0,1,.4.871l-2.385,6.353a.68.68,0,0,1-.635.439m-1.205-8.905a.528.528,0,0,0-.493.341l-2.385,6.354a.528.528,0,0,0,.308.678l3.592,1.349a.528.528,0,0,0,.678-.308l2.386-6.354a.527.527,0,0,0-.308-.678l-3.592-1.349a.525.525,0,0,0-.185-.034" transform="translate(-120.94 -311.403)" fill="#0c232b"/>
            <path id="Trazado_1010518" data-name="Trazado 1010518" d="M153.877,447.267H140.662a1.039,1.039,0,0,1-.744-.581,1.061,1.061,0,0,1,0-.652,2,2,0,0,1,.649-1.009c.891-.787,4.084-.837,5.092-1.61,1.193-.916,1.383-1.5,1.4-1.635a1.191,1.191,0,0,1,.163-.444,1.009,1.009,0,0,1,.1-.12,2.26,2.26,0,0,1,1.94-.063,4.664,4.664,0,0,1,1.112.505c1.381,1.443,1.993,1.667,2.272,1.49.4-.255.237-1.43.561-1.489.1-.02.226.072.3.2a15.111,15.111,0,0,1,.771,4.177c.012.122.021.234.027.324.015.212.024.34.024.34a.477.477,0,0,1-.447.568" transform="translate(-101.967 -321.496)" fill="#0c232b"/>
            <path id="Trazado_1010519" data-name="Trazado 1010519" d="M218.287,350.1l-26.65-26-.342-.335a5.73,5.73,0,0,0-9.22,1.8L171.615,349.21a3.791,3.791,0,0,0,6.611,3.651l.044-.066,10.084-14.977,21.474,20.951a6.056,6.056,0,0,0,8.458-8.67" transform="translate(-124.878 -234.861)" fill="#8ea0c7"/>
            <path id="Trazado_1010520" data-name="Trazado 1010520" d="M264.9,425.676v.009q0,.282-.028.557a5.979,5.979,0,0,1-.11.7,6.053,6.053,0,0,1-.376,1.154l-.008.019c-.078.174-.164.345-.258.511a6.14,6.14,0,0,1-.418.642,6.031,6.031,0,0,1-3.626,2.312,6.177,6.177,0,0,1-.615.095l-.42.043H226.794a5.916,5.916,0,0,1,4.206-9.31l.334-.034,9.542-.975.146-.015,2.185-.224.418-.043.574-.058,4.719-.482,3.664-.374,4-.408,1.45-.148.089-.009.115-.012a6.06,6.06,0,0,1,1.349.012l.068.009a6,6,0,0,1,1.846.557,6.067,6.067,0,0,1,2.21,1.829c.028.037.056.075.082.113a5.7,5.7,0,0,1,.336.528,5.881,5.881,0,0,1,.267.531c.019.041.036.082.053.125a5.959,5.959,0,0,1,.327,1.055q.052.244.085.5c.007.052.012.1.018.156,0,.029.005.057.008.086.014.157.022.312.023.466,0,.031,0,.06,0,.091" transform="translate(-164.545 -305.9)" fill="#8ea0c7"/>
            <path id="Trazado_1010521" data-name="Trazado 1010521" d="M311.185,189.878a7.912,7.912,0,0,0,1.273,2.444,9.3,9.3,0,0,0,1.652,1.673c2.636,2.094,5.082,1.476,8.342,2.166a12.371,12.371,0,0,1,4.43,1.838c2.479,1.663,3.733,3.8,5.559,4.689a4.081,4.081,0,0,0,2.036.406,5.478,5.478,0,0,0,1.417-.268c5.069-1.637,9.62-10.221,7.467-13.924-1.124-1.932-3.15-.95-6.561-2.781-4.482-2.4-5.556-6.55-7.137-10.159-1.046-2.387-2.313-4.541-4.935-5.8-4.015-1.931-9.532-.964-11.159,1.625-.718,1.143-.217,1.866-.088,4.066.022.379.033.8.026,1.278h0a16.712,16.712,0,0,1-.3,2.909q-.055.285-.118.557c-.028.124-.057.245-.088.365-.954,3.745-2.838,5.639-1.819,8.916" transform="translate(-226.652 -123.312)" fill="#0c232b"/>
            <path id="Trazado_1010522" data-name="Trazado 1010522" d="M333.827,184.179a1.9,1.9,0,0,1-1.777,2,1.629,1.629,0,0,1-.163-.009l-.413,1.225a8.211,8.211,0,0,1-1.332,2.557V194.5c0,.078,0,.156-.009.232a3.293,3.293,0,0,1-6.577-.232v-1.7a3.686,3.686,0,0,1-1-.329,5.426,5.426,0,0,1-1.775-1.059,6.391,6.391,0,0,1-1.842-3.611c-.859-3.865.714-8.226,1.129-9.317a4.8,4.8,0,0,1,5.873-3.346l4.422,1.491a4.757,4.757,0,0,1,2.734,5.933,2.077,2.077,0,0,1,.734,1.615" transform="translate(-232.333 -127.529)" fill="#fdfcf6"/>
            <path id="Trazado_1010523" data-name="Trazado 1010523" d="M326.649,197.672a3.372,3.372,0,0,1-3.368-3.368v-1.639a3.751,3.751,0,0,1-.958-.323,5.474,5.474,0,0,1-1.8-1.073,6.493,6.493,0,0,1-1.865-3.65c-.808-3.638.522-7.757,1.132-9.359a4.875,4.875,0,0,1,5.967-3.39l4.422,1.491a4.826,4.826,0,0,1,2.8,5.978,2.172,2.172,0,0,1,.724,1.642,1.972,1.972,0,0,1-1.852,2.07c-.037,0-.074,0-.111,0l-.394,1.169a8.259,8.259,0,0,1-1.328,2.558V194.3c0,.077,0,.157-.009.237a3.366,3.366,0,0,1-3.36,3.13m-2.2-22.868a4.942,4.942,0,0,0-4.51,3.506c-.606,1.592-1.926,5.678-1.127,9.277a6.362,6.362,0,0,0,1.819,3.571,5.328,5.328,0,0,0,1.75,1.045l.008,0a3.631,3.631,0,0,0,.983.322l.062.011V194.3a3.218,3.218,0,0,0,6.427.227c.005-.077.008-.153.008-.227v-4.582l.016-.02a8.106,8.106,0,0,0,1.319-2.533l.433-1.284.06.006a1.526,1.526,0,0,0,.156.008,1.823,1.823,0,0,0,1.7-1.92,2.013,2.013,0,0,0-.706-1.557l-.038-.031.013-.048a4.682,4.682,0,0,0-2.686-5.841l-4.422-1.491a3.944,3.944,0,0,0-1.268-.208" transform="translate(-232.134 -127.33)" fill="#0c232b"/>
            <g id="Grupo_1183735" data-name="Grupo 1183735" transform="translate(91.651 62.418)" opacity="0.2">
              <g id="Grupo_1183734" data-name="Grupo 1183734">
                <g id="Grupo_1183733" data-name="Grupo 1183733" clip-path="url(#clip-path-18)">
                  <path id="Trazado_1010524" data-name="Trazado 1010524" d="M344.405,230.361v4.556c0,.078,0,.156-.008.232a5.871,5.871,0,0,1-3.852-.018,5.2,5.2,0,0,1-2.3-1.86c.123.009.245.014.367.014a7.981,7.981,0,0,0,3.494-.983,7.14,7.14,0,0,0,2.3-1.941" transform="translate(-338.248 -230.361)" fill="#517aef"/>
                </g>
              </g>
            </g>
            <path id="Trazado_1010525" data-name="Trazado 1010525" d="M327.046,200.562c0,.409.186.74.414.74s.415-.331.415-.74-.186-.74-.415-.74-.414.331-.414.74" transform="translate(-238.43 -145.678)" fill="#0c232b"/>
            <path id="Trazado_1010526" data-name="Trazado 1010526" d="M340.493,200.562c0,.409.186.74.414.74s.415-.331.415-.74-.186-.74-.415-.74-.414.331-.414.74" transform="translate(-248.233 -145.678)" fill="#0c232b"/>
            <path id="Trazado_1010527" data-name="Trazado 1010527" d="M332.413,218.757a1.863,1.863,0,0,0,.8,1.364,1.058,1.058,0,0,0,.569.161,1.386,1.386,0,0,0,1.206-1.173,2.2,2.2,0,0,0,.064-.436,2.173,2.173,0,0,1-1.343.511,2.227,2.227,0,0,1-1.295-.427" transform="translate(-242.343 -159.422)" fill="#0c232b"/>
            <path id="Trazado_1010528" data-name="Trazado 1010528" d="M335.363,221.294a1.058,1.058,0,0,0,.569.161,1.385,1.385,0,0,0,1.205-1.173,2.307,2.307,0,0,0-.98.261,2.24,2.24,0,0,0-.794.751" transform="translate(-244.493 -160.595)" fill="#8ea0c7"/>
            <path id="Trazado_1010529" data-name="Trazado 1010529" d="M324.937,193.325a1.709,1.709,0,0,0-1.614.184c-.378.3-.5.789-.42.84s.358-.415,1.039-.737a5.987,5.987,0,0,1,.995-.287" transform="translate(-235.392 -140.853)" fill="#0c232b"/>
            <path id="Trazado_1010530" data-name="Trazado 1010530" d="M340.123,193.325a1.709,1.709,0,0,1,1.614.184c.378.3.5.789.42.84s-.358-.415-1.039-.737a5.987,5.987,0,0,0-.995-.287" transform="translate(-247.963 -140.853)" fill="#0c232b"/>
            <g id="Grupo_1183744" data-name="Grupo 1183744" transform="translate(86.154 56.65)" opacity="0.5">
              <g id="Grupo_1183743" data-name="Grupo 1183743">
                <g id="Grupo_1183742" data-name="Grupo 1183742" clip-path="url(#clip-path-19)">
                  <g id="Grupo_1183738" data-name="Grupo 1183738" transform="translate(7.326)" opacity="0.2">
                    <g id="Grupo_1183737" data-name="Grupo 1183737">
                      <g id="Grupo_1183736" data-name="Grupo 1183736" clip-path="url(#clip-path-20)">
                        <path id="Trazado_1010531" data-name="Trazado 1010531" d="M345,209.448c0,.208.463.376,1.035.376s1.035-.168,1.035-.376-.463-.376-1.035-.376-1.035.168-1.035.376" transform="translate(-345 -209.072)" fill="#517aef"/>
                      </g>
                    </g>
                  </g>
                  <g id="Grupo_1183741" data-name="Grupo 1183741" opacity="0.2">
                    <g id="Grupo_1183740" data-name="Grupo 1183740">
                      <g id="Grupo_1183739" data-name="Grupo 1183739" clip-path="url(#clip-path-20)">
                        <path id="Trazado_1010532" data-name="Trazado 1010532" d="M317.961,209.448c0,.208.463.376,1.035.376s1.035-.168,1.035-.376-.463-.376-1.035-.376-1.035.168-1.035.376" transform="translate(-317.961 -209.072)" fill="#517aef"/>
                      </g>
                    </g>
                  </g>
                </g>
              </g>
            </g>
            <g id="Grupo_1183747" data-name="Grupo 1183747" transform="translate(98.866 55.141)" opacity="0.2">
              <g id="Grupo_1183746" data-name="Grupo 1183746">
                <g id="Grupo_1183745" data-name="Grupo 1183745" clip-path="url(#clip-path-22)">
                  <path id="Trazado_1010533" data-name="Trazado 1010533" d="M366.8,205.511a1.427,1.427,0,0,0-.018-1.41,1.174,1.174,0,0,0-1.246-.56,1.188,1.188,0,0,0-.532,1.589c.108.149.272.189.293.362.028.233-.25.334-.23.568.018.211.266.378.46.433a.755.755,0,0,0,.8-.208c.3-.506-.9-1.459-.611-1.906a.646.646,0,0,1,.81-.088c.434.293.219,1.216.271,1.219" transform="translate(-364.875 -203.502)" fill="#517aef"/>
                </g>
              </g>
            </g>
            <path id="Trazado_1010534" data-name="Trazado 1010534" d="M317.755,173.224c.039.609.972,1,1.632,1.273a6.263,6.263,0,0,0,2.732.47,6.826,6.826,0,0,0,4.2-1.95,4.715,4.715,0,0,0,.163,3.656,4.591,4.591,0,0,0,2.058,1.923c2.2,1.137,3.964.15,4.5.893.436.606.035,2.092-3.064,5.731a11.864,11.864,0,0,0,4.483-6.8,10.219,10.219,0,0,0,.209-2.232,10.224,10.224,0,0,0-4.935-5.8c-4.948-2.45-9.779.65-10.428,1.068-.412.265-1.592,1.056-1.547,1.766" transform="translate(-231.655 -123.541)" fill="#0c232b"/>
            <path id="Trazado_1010535" data-name="Trazado 1010535" d="M364.714,215.36a.694.694,0,1,0,.694-.694.694.694,0,0,0-.694.694" transform="translate(-265.891 -156.5)" fill="#517aef"/>
            <path id="Trazado_1010536" data-name="Trazado 1010536" d="M327.666,208.624a.922.922,0,0,1-.22-.026,1.139,1.139,0,0,1-.714-.588,1.064,1.064,0,0,1-.1-.841.529.529,0,0,1,.951-.211c.1.078.19.151.252.136.082-.02.269-.222.227-1.658a.075.075,0,0,1,.15,0c.044,1.517-.16,1.764-.342,1.809-.134.033-.255-.063-.382-.164s-.271-.217-.421-.18c-.185.045-.278.278-.3.324a.914.914,0,0,0,.093.719.99.99,0,0,0,.617.513.975.975,0,0,0,.686-.118.075.075,0,0,1,.073.131,1.212,1.212,0,0,1-.575.159" transform="translate(-238.092 -149.715)" fill="#0c232b"/>
            <path id="Trazado_1010537" data-name="Trazado 1010537" d="M293.11,290.68h27.426c0-.007,0-.014,0-.021v-.021c0-.028,1.953-15.773,2.276-19.084.413-4.246.991-10.184-2.112-16.006a21.416,21.416,0,0,0-6.217-7.092h0a7.333,7.333,0,0,0-3.153-.824h-.059l-6.224-.183-1.053-.031a7.072,7.072,0,0,0-1.507.117h0a7.762,7.762,0,0,0-2.914,1.208s-.336.224-.625.46c-2.216,1.818-2.053,6.672-2.053,6.672.04,1.178.092,2.332.151,3.465.495,9.5,1.464,17.447-.72,24.567a26.5,26.5,0,0,1-3.213,6.777" transform="translate(-213.689 -180.373)" fill="#517aef"/>
            <g id="Grupo_1183750" data-name="Grupo 1183750" transform="translate(79.421 71.167)" opacity="0.1">
              <g id="Grupo_1183749" data-name="Grupo 1183749">
                <g id="Grupo_1183748" data-name="Grupo 1183748" clip-path="url(#clip-path-23)">
                  <path id="Trazado_1010538" data-name="Trazado 1010538" d="M293.11,301.788h17.91l-.03-.024c-7.051-5.7-8.47-11.837-7.551-17.266.04-.234.084-.467.132-.7a20.909,20.909,0,0,1,.841-2.951,29.85,29.85,0,0,1,3.288-6.356q.2-.3.4-.584h0c.422-.607.84-1.171,1.238-1.687a14.328,14.328,0,0,0-1.415-7.185,10.965,10.965,0,0,0-1.729-2.388,21.248,21.248,0,0,0-2.382,1.541c-2.11,1.647-3.86,3.194-5.236,4.492a10.923,10.923,0,0,0-1.53,1.764c.495,9.5,1.464,17.447-.72,24.567a26.5,26.5,0,0,1-3.213,6.777" transform="translate(-293.11 -262.648)" fill="#0c232b"/>
                </g>
              </g>
            </g>
            <path id="Trazado_1010539" data-name="Trazado 1010539" d="M224.858,273.974c0,.523-.013,1.048-.046,1.573s-.1,1.051-.17,1.578-.165,1.055-.285,1.581-.256,1.053-.422,1.576-.35,1.045-.567,1.559a16.36,16.36,0,0,1-.724,1.525,16.772,16.772,0,0,1-.889,1.466,16.364,16.364,0,0,1-1.057,1.375,15.738,15.738,0,0,1-2.558,2.36A16.049,16.049,0,0,1,215.2,290.3a17.425,17.425,0,0,1-3.144,1.062,19.328,19.328,0,0,1-6.361.384,20.915,20.915,0,0,1-3.057-.552q-.748-.19-1.475-.432c-.485-.16-.964-.333-1.432-.528s-.929-.4-1.38-.629c-.227-.11-.449-.23-.672-.345s-.441-.239-.657-.367a21.526,21.526,0,0,1-2.478-1.666c-.392-.3-.772-.618-1.144-.939q-.184-.165-.365-.334c-.247-.109-.631-.312-1.338-.683-1.909-1-1.708-.871-1.927-1-1.857-1.133-5.151-3.505-6.123-6.031-.127-.324.213-.588.6-.246.708.6,1.731,1.753,1.891,1.567.317-.4-3.092-3.065-2.344-3.869.566-.6,3.653,3.309,3.836,3.147.364-.324-3.125-3.234-2.38-3.99.708-.719,2.723,2.841,3.039,2.674s-1.827-2.617-1.369-3.125c.693-.771,3.631,3.662,4.042,3.529.668-.182-.806-2.475-.024-2.846.732-.364,2.237,2.866,2.567,3.474.622,1.15.458,1.31,1.091,2.5.409.764.719,1.2.93,1.531q.728.467,1.48.873c.357.189.715.372,1.081.537.091.043.182.084.274.124s.182.083.274.122c.183.078.366.157.552.228s.371.143.556.213.373.133.562.192q.562.185,1.133.329c.19.049.379.1.568.141s.38.086.571.121c.381.076.763.138,1.145.185s.764.086,1.145.105.759.027,1.136.028a13.769,13.769,0,0,0,4.316-.7,10.039,10.039,0,0,0,3.515-1.962,9.747,9.747,0,0,0,2.274-3.1c.143-.3.276-.612.394-.933s.231-.65.333-.987a18.47,18.47,0,0,0,.483-2.106c.061-.363.114-.731.152-1.1s.082-.746.107-1.123.046-.754.054-1.128l.009-.554v-.667a3.5,3.5,0,0,1,6.946-.635c.054.292.092.558.126.826q.026.2.048.4t.034.4c.04.525.071,1.048.068,1.571" transform="translate(-133.865 -195.326)" fill="#fdfcf6"/>
            <path id="Trazado_1010540" data-name="Trazado 1010540" d="M207.551,291.72a20.412,20.412,0,0,1-2.068-.106,21,21,0,0,1-3.068-.554c-.484-.122-.981-.268-1.48-.433-.533-.176-1-.349-1.437-.53-.469-.195-.935-.407-1.385-.63-.174-.084-.348-.175-.516-.263l-.157-.082-.154-.085c-.167-.091-.34-.186-.507-.285a21.464,21.464,0,0,1-2.485-1.671c-.354-.272-.729-.58-1.147-.942-.132-.119-.249-.225-.358-.327-.23-.1-.566-.279-1.169-.6l-.162-.085c-1.047-.548-1.457-.756-1.654-.856a2.974,2.974,0,0,1-.277-.151c-1.171-.714-5.075-3.262-6.154-6.068a.368.368,0,0,1,.11-.446.487.487,0,0,1,.609.117c.233.2.5.455.759.7a5.012,5.012,0,0,0,1.028.864c.006-.021.005-.109-.2-.387-.174-.23-.438-.522-.719-.832-.9-.992-1.913-2.116-1.421-2.646a.281.281,0,0,1,.213-.087h0c.509,0,1.522,1.026,2.7,2.265a11,11,0,0,0,.935.931,6.183,6.183,0,0,0-.923-1.208c-.917-1.053-1.957-2.245-1.463-2.746a.38.38,0,0,1,.306-.118c.53.031,1.313,1.039,1.943,1.849a5.259,5.259,0,0,0,.8.922,4.45,4.45,0,0,0-.567-1.025c-.55-.857-1.119-1.743-.819-2.077a.336.336,0,0,1,.269-.115c.583.008,1.637,1.243,2.566,2.333a6.678,6.678,0,0,0,1.242,1.289h0a.137.137,0,0,0,.09-.069c.1-.179-.036-.642-.167-1.089-.211-.718-.428-1.461.041-1.683.62-.308,1.6,1.423,2.484,3.156.077.153.139.273.181.351a7.415,7.415,0,0,1,.546,1.246,7.618,7.618,0,0,0,.545,1.249c.324.606.591,1.013.786,1.309l.133.2c.474.3.965.593,1.461.861.29.154.675.354,1.076.535.1.046.191.088.273.124l.1.046.172.076.092.039c.149.063.3.129.457.188.128.053.26.1.386.149l.169.063.16.056c.13.046.265.093.4.134.366.12.745.231,1.129.328.189.049.38.1.565.141l.162.035c.134.03.272.06.407.085.389.077.772.14,1.14.185.421.053.793.087,1.139.1s.717.027,1.132.028a13.612,13.612,0,0,0,4.291-.693,10.011,10.011,0,0,0,3.49-1.948,9.662,9.662,0,0,0,2.256-3.074c.146-.305.277-.617.391-.926s.227-.64.331-.983a18.445,18.445,0,0,0,.481-2.1c.065-.384.115-.744.151-1.1.047-.377.083-.753.106-1.12l.012-.206c.018-.3.035-.614.042-.918l.009-.554v-.665a3.582,3.582,0,0,1,3.578-3.573h.006a3.578,3.578,0,0,1,3.512,2.923c.057.308.095.581.127.831.019.145.034.276.048.4s.024.266.035.4c.036.467.072,1.019.069,1.577s-.015,1.072-.046,1.578-.1,1.05-.171,1.583c-.08.575-.173,1.094-.286,1.588-.121.544-.263,1.077-.424,1.582-.181.573-.367,1.085-.57,1.566a16.467,16.467,0,0,1-.728,1.532,17.082,17.082,0,0,1-.893,1.472,16.531,16.531,0,0,1-1.062,1.382,15.814,15.814,0,0,1-2.57,2.371,16.136,16.136,0,0,1-2.957,1.737,17.519,17.519,0,0,1-3.158,1.067,18.894,18.894,0,0,1-4.317.491M183.69,277.7a.209.209,0,0,0-.121.035.218.218,0,0,0-.056.269c1.063,2.762,4.932,5.286,6.092,5.994a2.685,2.685,0,0,0,.267.145c.2.1.607.308,1.655.857l.162.085c.61.32.946.5,1.172.6l.012.005.009.009c.111.1.23.212.364.332.415.358.788.665,1.139.935a21.321,21.321,0,0,0,2.469,1.66c.166.1.338.192.5.283l.153.084.156.082c.167.088.34.178.512.261.447.223.91.434,1.376.627.431.179.9.351,1.427.526.495.164.989.309,1.469.43a20.909,20.909,0,0,0,3.046.55,19.209,19.209,0,0,0,6.336-.382,17.352,17.352,0,0,0,3.131-1.058,15.976,15.976,0,0,0,2.929-1.721,15.641,15.641,0,0,0,2.545-2.348,16.329,16.329,0,0,0,1.052-1.369,16.871,16.871,0,0,0,.885-1.459,16.268,16.268,0,0,0,.721-1.518c.2-.476.386-.984.565-1.553.159-.5.3-1.029.42-1.57.112-.49.2-1.005.284-1.575.074-.53.131-1.059.169-1.573s.046-1.014.046-1.567h0c0-.553-.033-1.1-.068-1.565-.011-.131-.022-.262-.034-.394s-.029-.251-.047-.4c-.032-.247-.069-.518-.126-.822a3.427,3.427,0,0,0-3.364-2.8h-.005a3.431,3.431,0,0,0-3.427,3.422v.667l-.009.556c-.006.307-.024.621-.042.924l-.012.207c-.024.37-.06.749-.107,1.128-.037.355-.087.718-.153,1.107a18.6,18.6,0,0,1-.485,2.116c-.105.346-.222.679-.334.99s-.249.631-.4.94a9.815,9.815,0,0,1-2.292,3.122,10.155,10.155,0,0,1-3.542,1.977,13.752,13.752,0,0,1-4.339.7c-.418,0-.791-.01-1.14-.028s-.726-.052-1.15-.105c-.372-.046-.759-.109-1.15-.186-.137-.025-.276-.056-.411-.086l-.161-.035c-.19-.046-.382-.093-.571-.142-.387-.1-.77-.209-1.138-.33-.134-.042-.27-.09-.4-.136l-.161-.056-.171-.064c-.128-.048-.261-.1-.39-.15-.154-.059-.309-.125-.46-.189l-.093-.04-.174-.077-.1-.045c-.083-.036-.18-.079-.276-.125-.4-.183-.791-.384-1.084-.539-.5-.273-1-.568-1.485-.877l-.014-.009-.009-.014c-.043-.067-.089-.138-.14-.215-.2-.3-.466-.709-.793-1.321a7.753,7.753,0,0,1-.554-1.271,7.2,7.2,0,0,0-.536-1.224c-.043-.079-.1-.2-.182-.354-.424-.834-1.713-3.373-2.284-3.089-.354.168-.146.879.038,1.506.153.521.285.971.154,1.2a.285.285,0,0,1-.181.14c-.184.06-.529-.319-1.4-1.336-.818-.959-1.938-2.274-2.454-2.28a.189.189,0,0,0-.155.065c-.223.248.412,1.239.833,1.9.4.627.628.99.583,1.158a.134.134,0,0,1-.068.088c-.16.085-.374-.167-1-.97-.579-.745-1.371-1.764-1.833-1.791a.233.233,0,0,0-.19.073c-.4.4.683,1.638,1.47,2.541.749.859,1.1,1.28.906,1.452-.11.1-.273-.057-1.14-.974-.836-.883-2.1-2.218-2.586-2.218h0a.133.133,0,0,0-.1.04c-.4.428.654,1.592,1.422,2.442.719.8,1.086,1.219.926,1.422a.135.135,0,0,1-.1.048c-.188.009-.557-.338-1.146-.906-.257-.247-.523-.5-.753-.7a.475.475,0,0,0-.3-.143" transform="translate(-133.664 -195.123)" fill="#0c232b"/>
            <path id="Trazado_1010541" data-name="Trazado 1010541" d="M286.882,275.69c2.359,1.5,5.244,2.3,7.861,1.143a6.73,6.73,0,0,0,.625-.317c3.473-1.993,5.7-7.224,5.9-12.277a14.332,14.332,0,0,0-1.415-7.185,9.579,9.579,0,0,0-1.729-2.389c-1.386-1.385-4.5-3.591-6.621-2.8-4.025,1.5-1.262,12.607-6.853,15.6-1.1.591-2.208.649-2.535,1.631-.5,1.49,1.687,4.634,4.772,6.591" transform="translate(-205.619 -183.498)" fill="#517aef"/>
            <g id="Grupo_1183753" data-name="Grupo 1183753" transform="translate(86.342 67.96)" opacity="0.1">
              <g id="Grupo_1183752" data-name="Grupo 1183752">
                <g id="Grupo_1183751" data-name="Grupo 1183751" clip-path="url(#clip-path-24)">
                  <path id="Trazado_1010542" data-name="Trazado 1010542" d="M318.653,250.922a8.306,8.306,0,0,1,5.172.79c5.018,2.732,4.561,10.463,4.365,10.509s-.361-6.535-4.981-9.687a9.975,9.975,0,0,0-4.555-1.613" transform="translate(-318.653 -250.812)" fill="#0c232b"/>
                </g>
              </g>
            </g>
            <path id="Trazado_1010543" data-name="Trazado 1010543" d="M348.541,230.358a23.03,23.03,0,0,1-.994,9.877c-1.664,4.928-4.239,6.57-3.494,9.181.829,2.906,5.106,4.688,8.613,4.469a10.227,10.227,0,0,0,8.816-7.122,10.792,10.792,0,0,0-.528-7.34c-2.879-7.108-11.407-8.872-12.413-9.064" transform="translate(-250.733 -167.94)" fill="#0c232b"/>
            <path id="Trazado_1010544" data-name="Trazado 1010544" d="M161.861,275.315l1.072,1.575,1.463.252-.656,1.226.732,1.731L163,279.281l-1.01.817-.257-1.731-1.356-1.226,1.318-.252Z" transform="translate(-116.917 -200.716)" fill="#517aef"/>
            <path id="Trazado_1010545" data-name="Trazado 1010545" d="M178.121,275.315l1.072,1.575,1.463.252L180,278.367l.732,1.731-1.477-.817-1.01.817-.257-1.731-1.356-1.226,1.318-.252Z" transform="translate(-128.771 -200.716)" fill="#517aef"/>
            <path id="Trazado_1010546" data-name="Trazado 1010546" d="M194.381,275.315l1.072,1.575,1.463.252-.656,1.226.732,1.731-1.477-.817-1.01.817-.257-1.731-1.356-1.226,1.318-.252Z" transform="translate(-140.626 -200.716)" fill="#517aef"/>
            <path id="Trazado_1010547" data-name="Trazado 1010547" d="M210.641,275.315l1.072,1.575,1.463.252-.656,1.226.732,1.731-1.477-.817-1.01.817-.257-1.731-1.356-1.226,1.318-.252Z" transform="translate(-152.48 -200.716)" fill="#517aef"/>
            <path id="Trazado_1010548" data-name="Trazado 1010548" d="M226.9,275.315l1.072,1.575,1.463.252-.656,1.226.732,1.731-1.477-.817-1.01.817-.257-1.731-1.356-1.226,1.318-.252Z" transform="translate(-164.334 -200.716)" fill="#517aef"/>
            <path id="Trazado_1010549" data-name="Trazado 1010549" d="M283.9,108.984l-4.611-.051-2.572-3.827a.779.779,0,0,0-1.385.186l-1.473,4.37-4.435,1.263a.779.779,0,0,0-.251,1.375l3.7,2.752-.169,4.608a.779.779,0,0,0,1.23.664l3.761-2.669,4.331,1.585a.779.779,0,0,0,1.012-.965l-1.377-4.4,2.845-3.629a.779.779,0,0,0-.6-1.26" transform="translate(-196.006 -76.375)" fill="#90abf3"/>
            <path id="Trazado_1010550" data-name="Trazado 1010550" d="M127.878,96.826H94.037c-1.945,0-2.984,1.591-2.309,3.536l8.582,24.718a5.5,5.5,0,0,0,4.764,3.536h11.983l3.728,4.032,4.179,4.52,1.04-4.52.928-4.032h11.983c1.945,0,2.984-1.591,2.309-3.536l-8.582-24.718a5.494,5.494,0,0,0-4.764-3.536" transform="translate(-66.723 -70.59)" fill="#cde2f0"/>
            <path id="Trazado_1010551" data-name="Trazado 1010551" d="M152.51,121.272c-2.874-.877-5.208-.222-6.489,1.313-2.346-1.535-5.135-2.189-7.4-1.313-4.6,1.782-3.59,8.549,1.825,12.181l12.185,8.172,6.511-8.172c2.894-3.632-.791-10.4-6.633-12.181" transform="translate(-98.932 -88.125)" fill="#517aef"/>
            <path id="Trazado_1010552" data-name="Trazado 1010552" d="M252.484,227.2H234.805a.253.253,0,0,0-.24.367l2.013,5.8a.57.57,0,0,0,.494.367h8.88a4.85,4.85,0,0,1,.988,1.935,2.822,2.822,0,0,1-2.622,3.451c.136,0,3.265.061,3.977-2.493a4.8,4.8,0,0,0-.225-2.894h6.68a.253.253,0,0,0,.24-.367l-2.013-5.8a.57.57,0,0,0-.494-.367" transform="translate(-170.992 -165.641)" fill="#cde2f0"/>
            <path id="Trazado_1010553" data-name="Trazado 1010553" d="M80.886,223.4h-24.6a.414.414,0,0,0-.393.6l2.913,8.39a.935.935,0,0,0,.81.6h24.6a.414.414,0,0,0,.393-.6L81.7,224a.935.935,0,0,0-.81-.6" transform="translate(-40.724 -162.864)" fill="#517aef"/>
            <path id="Trazado_1010554" data-name="Trazado 1010554" d="M94.636,228.5H79.615a.243.243,0,0,0-.231.353.547.547,0,0,0,.476.353H94.882a.243.243,0,0,0,.23-.353.546.546,0,0,0-.476-.353" transform="translate(-57.859 -166.587)" fill="#cde2f0"/>
            <path id="Trazado_1010555" data-name="Trazado 1010555" d="M91.629,234.147H74.761a.243.243,0,0,0-.231.353.547.547,0,0,0,.476.353H91.874a.243.243,0,0,0,.23-.353.546.546,0,0,0-.476-.353" transform="translate(-54.321 -170.703)" fill="#cde2f0"/>
            <path id="Trazado_1010556" data-name="Trazado 1010556" d="M93.59,239.793H76.722a.243.243,0,0,0-.231.353.547.547,0,0,0,.476.353H93.835a.243.243,0,0,0,.23-.353.546.546,0,0,0-.476-.353" transform="translate(-55.75 -174.819)" fill="#cde2f0"/>
            <path id="Trazado_1010557" data-name="Trazado 1010557" d="M92.257,245.44H78.682a.243.243,0,0,0-.231.353.547.547,0,0,0,.476.353H92.5a.243.243,0,0,0,.23-.353.546.546,0,0,0-.476-.353" transform="translate(-57.179 -178.936)" fill="#cde2f0"/>
            <path id="Trazado_1010558" data-name="Trazado 1010558" d="M90.276,251.086H80.643a.243.243,0,0,0-.231.353.547.547,0,0,0,.476.353h9.633a.243.243,0,0,0,.23-.353.546.546,0,0,0-.476-.353" transform="translate(-58.609 -183.052)" fill="#cde2f0"/>
          </g>
        </g>
      </g>
    </g>
  </g>
</svg>
