<svg xmlns="http://www.w3.org/2000/svg" xmlns:xlink="http://www.w3.org/1999/xlink" width="292" height="140" viewBox="0 0 292 140">
  <defs>
    <clipPath id="clip-path">
      <rect id="Rectángulo_458921" data-name="Rectángulo 458921" width="148.34" height="127.26" fill="none"/>
    </clipPath>
    <clipPath id="clip-path-3">
      <rect id="Rectángulo_458893" data-name="Rectángulo 458893" width="148.34" height="127.259" fill="none"/>
    </clipPath>
    <clipPath id="clip-path-5">
      <rect id="Rectángulo_458899" data-name="Rectángulo 458899" width="11.054" height="55.974" fill="none"/>
    </clipPath>
    <clipPath id="clip-path-6">
      <rect id="Rectángulo_458901" data-name="Rectángulo 458901" width="13.672" height="40.031" fill="none"/>
    </clipPath>
    <clipPath id="clip-path-7">
      <rect id="Rectángulo_458903" data-name="Rectángulo 458903" width="20.619" height="28.629" fill="none"/>
    </clipPath>
    <clipPath id="clip-path-8">
      <rect id="Rectángulo_458904" data-name="Rectángulo 458904" width="19.146" height="31.183" fill="none"/>
    </clipPath>
    <clipPath id="clip-path-9">
      <rect id="Rectángulo_458905" data-name="Rectángulo 458905" width="1.53" height="2.202" fill="none"/>
    </clipPath>
    <clipPath id="clip-path-10">
      <rect id="Rectángulo_458906" data-name="Rectángulo 458906" width="4.482" height="3.716" fill="none"/>
    </clipPath>
    <clipPath id="clip-path-11">
      <rect id="Rectángulo_458907" data-name="Rectángulo 458907" width="1.506" height="0.548" fill="none"/>
    </clipPath>
    <clipPath id="clip-path-13">
      <rect id="Rectángulo_458909" data-name="Rectángulo 458909" width="14.028" height="23.8" fill="none"/>
    </clipPath>
    <clipPath id="clip-path-14">
      <rect id="Rectángulo_458910" data-name="Rectángulo 458910" width="16.313" height="35.523" fill="none"/>
    </clipPath>
    <clipPath id="clip-path-15">
      <rect id="Rectángulo_458911" data-name="Rectángulo 458911" width="14.345" height="18.32" fill="none"/>
    </clipPath>
    <clipPath id="clip-path-16">
      <rect id="Rectángulo_458912" data-name="Rectángulo 458912" width="9.909" height="16.812" fill="none"/>
    </clipPath>
    <clipPath id="clip-path-17">
      <rect id="Rectángulo_458913" data-name="Rectángulo 458913" width="12.629" height="24.731" fill="none"/>
    </clipPath>
    <clipPath id="clip-path-18">
      <rect id="Rectángulo_458914" data-name="Rectángulo 458914" width="13.078" height="1.57" fill="none"/>
    </clipPath>
    <clipPath id="clip-path-19">
      <rect id="Rectángulo_458915" data-name="Rectángulo 458915" width="1.1" height="22.837" fill="none"/>
    </clipPath>
    <clipPath id="clip-path-20">
      <rect id="Rectángulo_458916" data-name="Rectángulo 458916" width="14.573" height="6.085" fill="none"/>
    </clipPath>
    <clipPath id="clip-path-21">
      <rect id="Rectángulo_458917" data-name="Rectángulo 458917" width="25.826" height="40.694" fill="none"/>
    </clipPath>
    <clipPath id="clip-path-22">
      <rect id="Rectángulo_458918" data-name="Rectángulo 458918" width="25.042" height="15.128" fill="none"/>
    </clipPath>
    <clipPath id="clip-path-23">
      <rect id="Rectángulo_458919" data-name="Rectángulo 458919" width="12.656" height="23.754" fill="none"/>
    </clipPath>
  </defs>
  <g id="Grupo_1183507" data-name="Grupo 1183507" transform="translate(-186 -5503.884)">
    <rect id="Rectángulo_458093" data-name="Rectángulo 458093" width="292" height="140" rx="10" transform="translate(186 5503.884)" fill="#cfa9e6"/>
    <g id="Grupo_1183602" data-name="Grupo 1183602" transform="translate(254.41 5516.625)">
      <g id="Grupo_1183601" data-name="Grupo 1183601" clip-path="url(#clip-path)">
        <g id="Grupo_1183541" data-name="Grupo 1183541">
          <g id="Grupo_1183540" data-name="Grupo 1183540" clip-path="url(#clip-path)">
            <g id="Grupo_1183539" data-name="Grupo 1183539" opacity="0.1">
              <g id="Grupo_1183538" data-name="Grupo 1183538">
                <g id="Grupo_1183537" data-name="Grupo 1183537" clip-path="url(#clip-path-3)">
                  <path id="Trazado_1010288" data-name="Trazado 1010288" d="M5.011,39.273A26.6,26.6,0,0,0,.441,49C-1.266,56.569,2.05,65.684,9.33,68.37c6.266,2.313,14.156-.3,19.367,3.878,3.094,2.48,4.234,6.911,3.345,10.775a16.511,16.511,0,0,1-6.793,9.446c-2.685,1.9-5.753,3.187-8.562,4.9s-5.46,4.01-6.571,7.107c-2.471,6.887,5.728,12.576,10.862,15.384,6.83,3.736,14.638,5.387,22.3,6.325a143.686,143.686,0,0,0,68.154-8.109c8.882-3.372,17.548-7.746,24.465-14.259s11.968-15.387,12.415-24.878c.361-7.674-2.718-15.861-9.208-19.972-3.144-1.992-6.835-2.915-10.2-4.509s-6.62-4.2-7.372-7.843c-.719-3.484,1.026-7,3.121-9.875,2.8-3.841,6.312-7.14,8.915-11.116s4.246-8.994,2.726-13.5c-1.958-5.8-8.344-8.791-14.3-10.232C106.2-1.928,89.581.635,73.73,4.254,52.242,9.16,30.619,16.288,13.645,30.347a49.789,49.789,0,0,0-8.634,8.926" transform="translate(0 0)" fill="#517aef"/>
                </g>
              </g>
            </g>
          </g>
        </g>
        <rect id="Rectángulo_458895" data-name="Rectángulo 458895" width="32.019" height="55.974" transform="translate(103.729 71.285)" fill="#517aef"/>
        <rect id="Rectángulo_458896" data-name="Rectángulo 458896" width="32.019" height="40.031" transform="translate(67.185 87.228)" fill="#517aef"/>
        <rect id="Rectángulo_458897" data-name="Rectángulo 458897" width="32.019" height="28.629" transform="translate(30.64 98.63)" fill="#517aef"/>
        <g id="Grupo_1183600" data-name="Grupo 1183600">
          <g id="Grupo_1183599" data-name="Grupo 1183599" clip-path="url(#clip-path)">
            <g id="Grupo_1183544" data-name="Grupo 1183544" transform="translate(124.695 71.285)" opacity="0.3">
              <g id="Grupo_1183543" data-name="Grupo 1183543">
                <g id="Grupo_1183542" data-name="Grupo 1183542" clip-path="url(#clip-path-5)">
                  <rect id="Rectángulo_458898" data-name="Rectángulo 458898" width="11.054" height="55.974" transform="translate(0 0)" fill="#646794"/>
                </g>
              </g>
            </g>
            <g id="Grupo_1183547" data-name="Grupo 1183547" transform="translate(85.532 87.228)" opacity="0.3">
              <g id="Grupo_1183546" data-name="Grupo 1183546">
                <g id="Grupo_1183545" data-name="Grupo 1183545" clip-path="url(#clip-path-6)">
                  <rect id="Rectángulo_458900" data-name="Rectángulo 458900" width="13.672" height="40.031" transform="translate(0)" fill="#646794"/>
                </g>
              </g>
            </g>
            <g id="Grupo_1183550" data-name="Grupo 1183550" transform="translate(30.641 98.63)" opacity="0.3">
              <g id="Grupo_1183549" data-name="Grupo 1183549">
                <g id="Grupo_1183548" data-name="Grupo 1183548" clip-path="url(#clip-path-7)">
                  <rect id="Rectángulo_458902" data-name="Rectángulo 458902" width="20.619" height="28.629" transform="translate(0)" fill="#646794"/>
                </g>
              </g>
            </g>
            <path id="Trazado_1010289" data-name="Trazado 1010289" d="M196.761,71.612a44.408,44.408,0,0,0-8.161-.888l-.4,27.844a16.442,16.442,0,0,1,3.014.328,16.3,16.3,0,0,1,12.726,19.221q-.1.481-.223.952l-.951.029v2.614L228.088,133.3a44.18,44.18,0,0,0-31.327-61.684" transform="translate(-136.94 -51.461)" fill="#646794"/>
            <path id="Trazado_1010290" data-name="Trazado 1010290" d="M188.2,163.357v2.614l2.483-.618Z" transform="translate(-136.94 -118.863)" fill="#646794"/>
            <path id="Trazado_1010291" data-name="Trazado 1010291" d="M81,170.22a11.948,11.948,0,0,1-9.328-14.09,12.049,12.049,0,0,1,.82-2.547l.13-1.507.547.25A11.968,11.968,0,0,1,84.235,145.3h0l.318-3.669-.267.118.242-16.86a32.411,32.411,0,0,0-28.17,15.626l-1.429-.354.4,2.2q-.375.725-.716,1.474l1.072.491.31,1.709-2.06-.942a32.388,32.388,0,0,0,23,45.13q1.5.305,3,.465l2.178-20.294c-.369-.041-.738-.1-1.106-.172M57.035,146.511l1.691-.793,12,5.49-1.455.9Z" transform="translate(-37.124 -90.874)" fill="#646794"/>
            <path id="Trazado_1010292" data-name="Trazado 1010292" d="M192.494,274.9l-17.2-7.869a11.961,11.961,0,0,1-12.123,6.865l-2.178,20.294a32.381,32.381,0,0,0,32.865-18.668l.318-3.669Z" transform="translate(-117.142 -194.299)" fill="#646794"/>
            <path id="Trazado_1010293" data-name="Trazado 1010293" d="M228.089,123.7l-25.323-11.584a16.384,16.384,0,0,0,1.174-3.594A16.3,16.3,0,0,0,191.213,89.3a16.439,16.439,0,0,0-3.013-.328l.4-27.844A44.179,44.179,0,0,1,228.089,123.7" transform="translate(-136.94 -44.478)" fill="#95baf3"/>
            <path id="Trazado_1010294" data-name="Trazado 1010294" d="M88.225,133.821a11.861,11.861,0,0,1,6.768-1.987l.293-20.411a32.4,32.4,0,0,0-29.918,18.941l18.563,8.492a11.871,11.871,0,0,1,4.293-5.035" transform="translate(-47.565 -81.073)" fill="#95baf3"/>
            <path id="Trazado_1010295" data-name="Trazado 1010295" d="M176.46,253.559a11.961,11.961,0,0,1-12.123,6.865l-2.178,20.294a32.382,32.382,0,0,0,32.865-18.668Z" transform="translate(-117.991 -184.498)" fill="#95baf3"/>
            <path id="Trazado_1010296" data-name="Trazado 1010296" d="M82.172,210.719a11.948,11.948,0,0,1-9.328-14.09,12.027,12.027,0,0,1,.82-2.547L55.1,185.59a32.386,32.386,0,0,0,23,45.13q1.5.305,2.995.465l2.178-20.294q-.553-.061-1.106-.172" transform="translate(-37.973 -135.041)" fill="#95baf3"/>
            <path id="Trazado_1010297" data-name="Trazado 1010297" d="M388.67,384.091l.245-.083a1.823,1.823,0,0,0,1.142-2.3l-.7-2.065a1.824,1.824,0,0,0-2.3-1.142l-.246.083a1.824,1.824,0,0,0-1.142,2.3l.7,2.065a1.824,1.824,0,0,0,2.3,1.142" transform="translate(-280.556 -275.337)" fill="#fdfcf6"/>
            <path id="Trazado_1010298" data-name="Trazado 1010298" d="M386.258,383.517a.682.682,0,0,1-.3-.071.675.675,0,0,1-.343-.391l-1.472-4.366a.682.682,0,0,1,.427-.862l2.546-.858a.681.681,0,0,1,.862.427l1.472,4.366a.681.681,0,0,1-.427.862l-2.546.858a.675.675,0,0,1-.217.036m1.073-6.433a.528.528,0,0,0-.169.028l-2.546.858a.531.531,0,0,0-.332.671l1.472,4.365a.53.53,0,0,0,.67.332l2.546-.858a.53.53,0,0,0,.332-.67l-1.472-4.366a.53.53,0,0,0-.5-.36" transform="translate(-279.487 -274.268)" fill="#0c232b"/>
            <path id="Trazado_1010299" data-name="Trazado 1010299" d="M378.753,390.036l-9.94,3.351a.8.8,0,0,1-.68-.217.728.728,0,0,1-.154-.449,1.455,1.455,0,0,1,.241-.856c.469-.763,4.279-3.834,4.261-3.93a.84.84,0,0,1,.017-.347.767.767,0,0,1,.044-.107,1.844,1.844,0,0,1,1.406-.523,3.721,3.721,0,0,1,.932.074c1.347.655,1.847.658,2.011.467.236-.276-.159-1.045.065-1.166a.256.256,0,0,1,.264.064,10.427,10.427,0,0,1,1.536,2.691c.037.081.07.157.1.217l.1.229a.353.353,0,0,1-.2.5" transform="translate(-267.751 -281.096)" fill="#0c232b"/>
            <path id="Trazado_1010300" data-name="Trazado 1010300" d="M374.695,241.294l-18.909,12.338,1.793-5.025,8.209,24-10.217,3.242-6.4-24.58-.06-.233a4.409,4.409,0,0,1,1.853-4.793l18.909-12.338Z" transform="translate(-253.923 -170.2)" fill="#8ea0c7"/>
            <path id="Trazado_1010301" data-name="Trazado 1010301" d="M261.065,300.685h.259a1.824,1.824,0,0,0,1.818-1.818v-2.18a1.824,1.824,0,0,0-1.818-1.818h-.259a1.824,1.824,0,0,0-1.818,1.818v2.18a1.824,1.824,0,0,0,1.818,1.818" transform="translate(-188.636 -214.556)" fill="#fdfcf6"/>
            <path id="Trazado_1010302" data-name="Trazado 1010302" d="M262.337,300.558H259.65a.681.681,0,0,1-.68-.68v-4.607a.681.681,0,0,1,.68-.68h2.687a.681.681,0,0,1,.68.68v4.607a.681.681,0,0,1-.68.68m-2.687-5.816a.529.529,0,0,0-.529.529v4.607a.529.529,0,0,0,.529.529h2.687a.529.529,0,0,0,.529-.529v-4.607a.529.529,0,0,0-.529-.529Z" transform="translate(-188.435 -214.354)" fill="#0c232b"/>
            <path id="Trazado_1010303" data-name="Trazado 1010303" d="M246.08,308.043h-10.49a.8.8,0,0,1-.575-.423.729.729,0,0,1,0-.475,1.456,1.456,0,0,1,.5-.735c.688-.573,5.28-2.266,5.294-2.363a.834.834,0,0,1,.126-.324.735.735,0,0,1,.076-.087,1.843,1.843,0,0,1,1.5-.046,3.714,3.714,0,0,1,.86.367c1.067,1.05,1.541,1.213,1.756,1.085.312-.186.184-1.041.434-1.084a.256.256,0,0,1,.23.145,10.421,10.421,0,0,1,.6,3.04c.009.089.016.171.021.236l.019.248a.353.353,0,0,1-.346.414" transform="translate(-170.974 -220.814)" fill="#0c232b"/>
            <path id="Trazado_1010304" data-name="Trazado 1010304" d="M292.133,230.844l-22.949-4.732,4.451-1.718-14.7,21.083-8.657-6.321,16.232-19.962.151-.185a4.4,4.4,0,0,1,4.3-1.533l22.949,4.732Z" transform="translate(-182.112 -158.178)" fill="#8ea0c7"/>
            <path id="Trazado_1010305" data-name="Trazado 1010305" d="M387.75,80.35a5.762,5.762,0,0,0,.927,1.779,6.761,6.761,0,0,0,1.2,1.218c1.919,1.524,3.7,1.075,6.072,1.577a9,9,0,0,1,3.225,1.338c1.8,1.211,2.717,2.768,4.047,3.414a2.975,2.975,0,0,0,1.482.3,3.985,3.985,0,0,0,1.031-.2c3.69-1.192,7-7.441,5.436-10.136-.818-1.407-2.293-.692-4.777-2.025-3.262-1.751-4.044-4.768-5.2-7.4A7.553,7.553,0,0,0,397.608,66c-2.923-1.406-6.939-.7-8.123,1.183-.522.832-.158,1.358-.064,2.96.016.276.024.583.019.93h0a12.155,12.155,0,0,1-.215,2.118q-.04.208-.086.406c-.02.09-.042.178-.064.266-.694,2.726-2.066,4.105-1.324,6.491" transform="translate(-281.983 -47.482)" fill="#0c232b"/>
            <path id="Trazado_1010306" data-name="Trazado 1010306" d="M400.617,222.358a18.181,18.181,0,0,1-1.125,5.335c-.029.068-.059.136-.089.2l-.053.116c-.01.023-.021.046-.033.069a11.745,11.745,0,0,1-.908,1.6q-.108.159-.224.317l-.053.071-.071.095a9.01,9.01,0,0,1-2.485,2.275c-.062.038-.124.074-.187.11a7.185,7.185,0,0,1-1.474.633c-.068.021-.136.04-.205.059a6.686,6.686,0,0,1-1.593.225l-.157,0-.191,0-3.624.071c-4.654.091-8.547-4.678-8.912-10.772a.613.613,0,0,1,.187-.481l0,0a.6.6,0,0,1,.4-.166l8.577-.167.135,0,3.4-.066,8.677-1.3v.006c.034.728.021,1.333,0,1.764" transform="translate(-275.943 -160.507)" fill="#8ea0c7"/>
            <path id="Trazado_1010307" data-name="Trazado 1010307" d="M344.582,135.064a17.182,17.182,0,0,1,.347,2.269,18.11,18.11,0,0,1,.056,2.307,18.643,18.643,0,0,1-1.548,6.772,18.122,18.122,0,0,1-2.416,4.018,18.481,18.481,0,0,1-1.585,1.744,18.139,18.139,0,0,1-1.8,1.516c-.317.231-.65.442-.985.645s-.677.4-1.027.574a16.392,16.392,0,0,1-2.15.913c-.367.125-.734.242-1.106.338s-.745.183-1.118.257A16.908,16.908,0,0,1,329,156.7c-.186.011-.372.019-.558.024s-.371,0-.556,0q-.554-.007-1.1-.044c-.183-.013-.365-.026-.547-.046s-.363-.043-.543-.068q-.541-.076-1.075-.181t-1.06-.257c-.176-.047-.351-.1-.526-.159s-.352-.116-.525-.182a2.252,2.252,0,0,1,.8-4.355h.04c.133,0,.261,0,.394,0s.266-.008.4-.011c.268-.009.538-.025.807-.048s.537-.046.8-.08c.133-.017.266-.035.4-.056s.264-.039.395-.06q.393-.066.778-.152c.128-.028.255-.059.382-.092s.252-.062.377-.1a13.078,13.078,0,0,0,1.451-.483,11.382,11.382,0,0,0,1.352-.619,13.627,13.627,0,0,0,1.242-.756,12.122,12.122,0,0,0,1.128-.893,10.935,10.935,0,0,0,1.034-.991,11.179,11.179,0,0,0,.908-1.108,11.734,11.734,0,0,0,.778-1.209q.176-.315.333-.641c.1-.217.2-.438.3-.66a12.317,12.317,0,0,0,.49-1.369c.07-.233.128-.47.187-.706s.109-.476.154-.716c.091-.481.147-.969.191-1.46s.049-.985.045-1.481-.044-.994-.094-1.493l-.005-.053a3.557,3.557,0,0,1,7.01-1.13" transform="translate(-233.615 -96.251)" fill="#517aef"/>
            <path id="Trazado_1010308" data-name="Trazado 1010308" d="M305.069,200.052a1.748,1.748,0,0,1,.044.419,1.767,1.767,0,0,1-.9,1.5,4.377,4.377,0,0,1-1.693.328c-.832.082-1.644.306-2.477.379-1.4.122-2.833-.184-4.2.133-.119.028-.266.052-.346-.04-.1-.119.008-.3.137-.394a3.171,3.171,0,0,1,.739-.308,1.5,1.5,0,0,0,.356-.178.878.878,0,0,0,.147-.133c.112-.129-.133-.22-.218-.262a2.214,2.214,0,0,0-.488-.166c-.34-.078-.689-.106-1.027-.2-.07-.019-.139-.04-.207-.064l-.028-.011c-.129-.05-.265-.1-.3-.2a.178.178,0,0,1,.008-.123c.09-.2.676-.128.907-.1.445.053.656.144,1.213.187.177.014.384.023.4-.035,0-.016,0-.048-.1-.115a6.837,6.837,0,0,0-2.384-.917.284.284,0,0,1-.122-.072h0a.293.293,0,0,1-.087-.15.3.3,0,0,1,.106-.285.362.362,0,0,1,.269-.054,5.74,5.74,0,0,1,.861.154c.695.2.91.209,1.162.309a2.108,2.108,0,0,0,.294.087c.038.009.178.069.212.025a.049.049,0,0,0,.007-.031,15.252,15.252,0,0,0-1.776-1.474.449.449,0,0,1-.2-.308.262.262,0,0,1,.083-.2c.02-.016.1-.08.3-.018.806.257,1.449.884,2.243,1.176a.566.566,0,0,0,.438.026.5.5,0,0,0,.213-.252,3.393,3.393,0,0,0,0-1.745.782.782,0,0,1,.058-.469.357.357,0,0,1,.418-.157c.14.053.253.267.325.389.192.326.306.69.491,1.02a2.7,2.7,0,0,0,1.313,1.116,2.468,2.468,0,0,0,1.212.084c.486-.1.641-.28,1.085-.272a1.37,1.37,0,0,1,.737.261,1.909,1.909,0,0,1,.767,1.136" transform="translate(-214.248 -142.833)" fill="#fdfcf6"/>
            <path id="Trazado_1010309" data-name="Trazado 1010309" d="M295.472,202.707a.291.291,0,0,1-.23-.092.242.242,0,0,1-.057-.194.491.491,0,0,1,.208-.312,2.118,2.118,0,0,1,.562-.25c.064-.022.131-.044.194-.067a1.442,1.442,0,0,0,.338-.169.783.783,0,0,0,.134-.122.037.037,0,0,0,.01-.017c0-.013-.024-.044-.169-.111l-.035-.017a2.147,2.147,0,0,0-.471-.16c-.151-.035-.307-.06-.458-.084-.188-.03-.382-.062-.571-.112-.077-.02-.147-.042-.214-.066l-.029-.011c-.14-.054-.3-.115-.342-.245a.252.252,0,0,1,.011-.178c.1-.219.554-.2.984-.144.191.023.341.053.486.081a5.606,5.606,0,0,0,.725.105,1.9,1.9,0,0,0,.28.008l-.029-.02a6.784,6.784,0,0,0-2.362-.907.386.386,0,0,1-.262-.279.372.372,0,0,1,.133-.36.432.432,0,0,1,.324-.07,5.8,5.8,0,0,1,.873.157c.335.1.561.148.727.187a2.9,2.9,0,0,1,.442.125,2.059,2.059,0,0,0,.284.083l.039.012.046.014c-.214-.232-1.107-.914-1.464-1.188l-.242-.185a.521.521,0,0,1-.226-.365.336.336,0,0,1,.111-.258.379.379,0,0,1,.369-.03,5.373,5.373,0,0,1,1.195.615,5.851,5.851,0,0,0,1.051.562.505.505,0,0,0,.379.029.415.415,0,0,0,.177-.215,2.346,2.346,0,0,0,.046-1.308c-.019-.131-.039-.266-.053-.4a.841.841,0,0,1,.068-.514.433.433,0,0,1,.511-.191.85.85,0,0,1,.343.387l.02.034a5.042,5.042,0,0,1,.264.544c.07.16.142.325.227.478a2.638,2.638,0,0,0,1.271,1.081,2.4,2.4,0,0,0,1.173.082,2.653,2.653,0,0,0,.465-.141,1.535,1.535,0,0,1,.635-.132,1.439,1.439,0,0,1,.778.274,1.983,1.983,0,0,1,.8,1.181,1.82,1.82,0,0,1-.888,2,3.452,3.452,0,0,1-1.406.311c-.106.008-.211.017-.316.027-.4.039-.8.113-1.193.185-.419.077-.852.156-1.284.194a14.068,14.068,0,0,1-1.731.007,9.4,9.4,0,0,0-2.46.124.831.831,0,0,1-.19.027m-.619-2.234c-.271,0-.345.051-.363.09a.1.1,0,0,0-.005.067c.021.063.15.112.253.152l.026.01c.063.023.129.043.2.063.182.048.372.079.556.108.154.025.313.05.468.086a2.273,2.273,0,0,1,.5.172l.031.015c.092.042.23.106.254.217a.165.165,0,0,1-.044.148.932.932,0,0,1-.16.145,1.582,1.582,0,0,1-.373.188c-.066.025-.134.047-.2.069a1.976,1.976,0,0,0-.523.23.34.34,0,0,0-.144.207.092.092,0,0,0,.021.076c.051.058.166.041.272.016a9.507,9.507,0,0,1,2.5-.128,13.869,13.869,0,0,0,1.712-.007c.426-.037.855-.116,1.27-.192.393-.072.8-.147,1.206-.187.105-.01.212-.019.319-.027a3.341,3.341,0,0,0,1.346-.293,1.669,1.669,0,0,0,.813-1.831,1.83,1.83,0,0,0-.736-1.09,1.289,1.289,0,0,0-.7-.247,1.371,1.371,0,0,0-.579.122,2.846,2.846,0,0,1-.49.148,2.523,2.523,0,0,1-1.251-.087,2.812,2.812,0,0,1-1.354-1.151c-.089-.16-.163-.328-.234-.491a4.926,4.926,0,0,0-.255-.528l-.021-.035c-.065-.112-.164-.282-.266-.322a.281.281,0,0,0-.326.124.714.714,0,0,0-.049.423c.013.129.033.262.052.392a2.456,2.456,0,0,1-.058,1.393.554.554,0,0,1-.248.288.634.634,0,0,1-.5-.023,5.959,5.959,0,0,1-1.079-.576,5.291,5.291,0,0,0-1.161-.6.258.258,0,0,0-.229,0,.186.186,0,0,0-.054.136c0,.118.124.214.169.25l.239.184c1.313,1,1.557,1.239,1.565,1.343a.122.122,0,0,1-.023.083c-.06.077-.182.037-.263.011l-.027-.008a2.194,2.194,0,0,1-.3-.09,2.819,2.819,0,0,0-.42-.118c-.167-.039-.4-.092-.734-.188a5.672,5.672,0,0,0-.848-.152.3.3,0,0,0-.214.039.225.225,0,0,0-.079.211.212.212,0,0,0,.065.111l.006.006a.218.218,0,0,0,.085.048,6.884,6.884,0,0,1,2.4.927c.078.053.154.118.132.2-.03.105-.185.113-.479.09a5.709,5.709,0,0,1-.742-.108c-.149-.03-.29-.057-.474-.08a4.036,4.036,0,0,0-.467-.033" transform="translate(-214.046 -142.631)" fill="#0c232b"/>
            <path id="Trazado_1010310" data-name="Trazado 1010310" d="M401.126,148.43v.005a5.316,5.316,0,0,1-.136,1.158,5.394,5.394,0,0,1-3.609,3.93c-.4.124-.826.242-1.268.351l-.122.03-.124.03c-.081.019-.162.038-.244.056-.1.023-.2.045-.305.067l-.212.044-.261.052-.244.045-.03.006-.2.035-.063.011-.263.043h0l-.076.012-.2.029-.222.031-.1.013-.241.03a24.039,24.039,0,0,1-11.134-1.287,3.252,3.252,0,0,1-2.138-2.986v0c0-.036,0-.072,0-.108q.094-7.687.186-15.374.031-2.57.062-5.141c0-.062,0-.123,0-.184.008-4.248,3.107-7.722,7-7.8l4.691-.09.957-.019a6.748,6.748,0,0,1,4.6,1.722l.081.072a8.134,8.134,0,0,1,2.606,5.627c0,.016,0,.03,0,.045s0,.037,0,.055q0,.092.006.185.085,1.643.171,3.285c0,.05,0,.1.008.147.007.137.013.26.019.374,0,.042,0,.085.007.127,0,.083.008.159.012.233,0,.055.005.109.009.161,0,.035,0,.068.005.1s0,.067,0,.1c0,.048.005.1.008.144s.005.1.008.151c0,.032,0,.065.005.1s0,.057,0,.083c0,.008,0,.015,0,.022s0,.011,0,.017l0,.029s0,.008,0,.013,0,.031,0,.039,0,.011,0,.011,0,.008,0,.015q.361,6.918.723,13.834c.005.107.008.214.007.32" transform="translate(-276.452 -88.349)" fill="#517aef"/>
            <g id="Grupo_1183553" data-name="Grupo 1183553" transform="translate(105.528 34.773)" opacity="0.1">
              <g id="Grupo_1183552" data-name="Grupo 1183552">
                <g id="Grupo_1183551" data-name="Grupo 1183551" clip-path="url(#clip-path-8)">
                  <path id="Trazado_1010311" data-name="Trazado 1010311" d="M406.591,152.977v.005a5.316,5.316,0,0,1-.136,1.158,5.394,5.394,0,0,1-3.609,3.93c-.4.124-.826.242-1.268.351l-.122.03-.124.03c-.081.019-.162.038-.244.056-.1.023-.2.045-.305.067l-.212.044-.261.052-.244.045-.03.006-.2.035-.063.011-.263.043h0l-.076.012a9.671,9.671,0,0,0,2.387-10.305,24.937,24.937,0,0,0-5.678.355c-3.18.575-5.332,1.626-7.334.532a4.37,4.37,0,0,1-1.36-1.183c8.862-2.222,11.415-5.084,11.927-7.457l-1.141-8.192,4.663-4.912.02-.021.061.093c1.972,3.019,2.541,4.668,2.606,5.627,0,.016,0,.03,0,.045s0,.037,0,.055,0,.069.006.185q.085,1.643.171,3.285c0,.05,0,.1.008.147.007.137.013.26.019.374,0,.044,0,.086.007.127,0,.083.008.159.012.233,0,.055.005.109.009.161,0,.035,0,.068.005.1s0,.067,0,.1c0,.048.005.1.008.144s.005.1.008.151c0,.032,0,.065.005.1s0,.057,0,.083c0,.008,0,.015,0,.022s0,.011,0,.017l0,.029s0,.008,0,.013,0,.031,0,.039,0,.011,0,.011a.08.08,0,0,0,0,.015s.236,4.571.73,14.154" transform="translate(-387.445 -127.669)" fill="#0c232b"/>
                </g>
              </g>
            </g>
            <path id="Trazado_1010312" data-name="Trazado 1010312" d="M402.759,127.867l4.621,12.542.1.276a3.306,3.306,0,0,1-1.959,4.245,3.541,3.541,0,0,1-.7.174l-17.281,2.326-.04.006a2.222,2.222,0,0,1-.926-4.333l16.7-4.933-2.559,4.695-4.621-12.542a3.552,3.552,0,0,1,6.666-2.456" transform="translate(-280.124 -91.348)" fill="#517aef"/>
            <path id="Trazado_1010313" data-name="Trazado 1010313" d="M367.143,187.133a1.743,1.743,0,0,1,.1.408,1.767,1.767,0,0,1-.668,1.61,4.382,4.382,0,0,1-1.627.571c-.811.2-1.582.542-2.4.735-1.367.325-2.83.23-4.137.743-.114.045-.255.09-.348.01-.12-.1-.036-.3.078-.41a3.168,3.168,0,0,1,.686-.412,1.5,1.5,0,0,0,.326-.229.843.843,0,0,0,.126-.153c.092-.144-.164-.2-.254-.227a2.224,2.224,0,0,0-.507-.094c-.347-.028-.7,0-1.044-.044-.072-.008-.143-.019-.214-.034l-.029-.006c-.135-.031-.277-.062-.323-.153a.177.177,0,0,1-.01-.122c.06-.209.65-.225.883-.231.448-.012.67.046,1.228.009.177-.012.383-.034.391-.093,0-.016-.009-.047-.117-.1a6.829,6.829,0,0,0-2.491-.561.283.283,0,0,1-.131-.053.282.282,0,0,1-.044-.434.364.364,0,0,1,.258-.093,5.74,5.74,0,0,1,.874.028c.716.095.93.074,1.194.137a2.151,2.151,0,0,0,.3.043c.039,0,.186.042.214-.006a.047.047,0,0,0,0-.032,15.274,15.274,0,0,0-1.971-1.2.449.449,0,0,1-.241-.275.263.263,0,0,1,.053-.206c.018-.019.092-.094.293-.061.835.137,1.562.664,2.39.838a.565.565,0,0,0,.437-.038.5.5,0,0,0,.174-.28,3.393,3.393,0,0,0-.254-1.727.78.78,0,0,1-.011-.472.357.357,0,0,1,.391-.216c.147.032.289.227.378.338.237.295.4.638.634.938a2.7,2.7,0,0,0,1.461.913,2.469,2.469,0,0,0,1.211-.093c.467-.166.594-.37,1.034-.426a1.368,1.368,0,0,1,.767.151,1.91,1.91,0,0,1,.924,1.012" transform="translate(-259.434 -134.098)" fill="#fdfcf6"/>
            <path id="Trazado_1010314" data-name="Trazado 1010314" d="M358,191.128a.266.266,0,0,1-.179-.062.242.242,0,0,1-.085-.183.491.491,0,0,1,.16-.339,2.118,2.118,0,0,1,.519-.329c.06-.031.123-.062.182-.095a1.446,1.446,0,0,0,.31-.216.775.775,0,0,0,.115-.14.041.041,0,0,0,.008-.018c0-.013-.03-.04-.184-.086l-.037-.011a2.133,2.133,0,0,0-.49-.09c-.154-.013-.312-.015-.466-.017a5.816,5.816,0,0,1-.581-.027c-.079-.009-.151-.02-.221-.035l-.031-.007c-.146-.033-.312-.07-.374-.193a.252.252,0,0,1-.015-.177c.067-.231.519-.274.953-.286.192,0,.345,0,.493.01a5.558,5.558,0,0,0,.732,0,1.933,1.933,0,0,0,.278-.033l-.031-.016a6.783,6.783,0,0,0-2.469-.554.359.359,0,0,1-.166-.068.364.364,0,0,1-.134-.171.372.372,0,0,1,.08-.376.432.432,0,0,1,.31-.117,5.757,5.757,0,0,1,.887.028c.345.046.577.065.746.079a2.928,2.928,0,0,1,.456.059,2.044,2.044,0,0,0,.293.041l.041.006.048.008c-.245-.2-1.228-.744-1.621-.962l-.266-.149a.521.521,0,0,1-.277-.328.338.338,0,0,1,.073-.271.38.38,0,0,1,.36-.084,5.378,5.378,0,0,1,1.271.435,5.862,5.862,0,0,0,1.122.4.5.5,0,0,0,.379-.026.417.417,0,0,0,.144-.239,2.348,2.348,0,0,0-.145-1.3c-.038-.127-.078-.258-.11-.386a.842.842,0,0,1-.008-.518.433.433,0,0,1,.478-.263.85.85,0,0,1,.4.333l.025.031a5.084,5.084,0,0,1,.34.5c.092.148.187.3.294.44a2.637,2.637,0,0,0,1.415.885,2.407,2.407,0,0,0,1.172-.09,2.659,2.659,0,0,0,.44-.207,1.529,1.529,0,0,1,.609-.223,1.439,1.439,0,0,1,.81.158,1.984,1.984,0,0,1,.961,1.052,1.819,1.819,0,0,1-.588,2.106,3.45,3.45,0,0,1-1.346.512c-.1.024-.207.047-.309.072-.389.1-.778.229-1.153.357-.4.137-.82.278-1.243.379a14.005,14.005,0,0,1-1.711.259,9.391,9.391,0,0,0-2.416.48.693.693,0,0,1-.246.059m-.286-2.161-.122,0c-.668.018-.8.118-.812.177a.1.1,0,0,0,0,.067c.03.059.164.09.272.114l.028.006c.065.014.133.024.207.033.187.021.38.024.566.026.156,0,.317,0,.476.017a2.3,2.3,0,0,1,.524.1l.033.01c.1.029.243.072.283.178a.166.166,0,0,1-.022.153.936.936,0,0,1-.138.167,1.581,1.581,0,0,1-.342.24c-.062.034-.126.066-.187.1a1.981,1.981,0,0,0-.484.3.34.34,0,0,0-.113.226.091.091,0,0,0,.032.072c.058.05.165.018.271-.023a9.513,9.513,0,0,1,2.455-.49,13.882,13.882,0,0,0,1.693-.256c.416-.1.829-.239,1.229-.375.379-.128.77-.261,1.166-.36.1-.026.207-.05.311-.073a3.344,3.344,0,0,0,1.289-.485,1.67,1.67,0,0,0,.538-1.93,1.831,1.831,0,0,0-.887-.971,1.289,1.289,0,0,0-.724-.144,1.373,1.373,0,0,0-.555.2,2.825,2.825,0,0,1-.463.218,2.523,2.523,0,0,1-1.251.1,2.811,2.811,0,0,1-1.507-.942c-.111-.145-.209-.3-.3-.452a4.953,4.953,0,0,0-.33-.485l-.026-.032c-.081-.1-.2-.256-.31-.279a.281.281,0,0,0-.3.17.715.715,0,0,0,.013.426c.032.125.071.255.108.38a2.454,2.454,0,0,1,.145,1.387.554.554,0,0,1-.2.321.634.634,0,0,1-.5.05,5.938,5.938,0,0,1-1.151-.413,5.275,5.275,0,0,0-1.235-.424.256.256,0,0,0-.226.038.186.186,0,0,0-.034.142c.02.117.153.194.2.223l.264.148c1.444.8,1.72,1,1.743,1.1a.125.125,0,0,1-.011.086c-.048.085-.175.063-.258.049l-.028,0a2.121,2.121,0,0,1-.314-.045,2.8,2.8,0,0,0-.433-.056c-.171-.014-.405-.033-.754-.08a5.725,5.725,0,0,0-.861-.027.293.293,0,0,0-.206.069.224.224,0,0,0-.048.22.235.235,0,0,0,.178.141,6.883,6.883,0,0,1,2.514.568c.085.041.17.094.159.177-.014.109-.166.139-.461.159a5.736,5.736,0,0,1-.75,0c-.117-.006-.229-.011-.359-.011" transform="translate(-259.232 -133.896)" fill="#0c232b"/>
            <path id="Trazado_1010315" data-name="Trazado 1010315" d="M403.668,75a3.463,3.463,0,0,0-1.99-4.319L398.459,69.6a3.49,3.49,0,0,0-4.275,2.436,13.041,13.041,0,0,0-.822,6.783,4.656,4.656,0,0,0,1.341,2.628,3.961,3.961,0,0,0,1.292.772,2.712,2.712,0,0,0,.73.239V83.7a2.4,2.4,0,0,0,4.788.169c0-.056.006-.112.006-.169V80.379a5.982,5.982,0,0,0,.97-1.861l.3-.892c.039,0,.079.006.119.006A1.38,1.38,0,0,0,404.2,76.18,1.512,1.512,0,0,0,403.668,75" transform="translate(-286.089 -50.53)" fill="#fdfcf6"/>
            <path id="Trazado_1010316" data-name="Trazado 1010316" d="M398.924,85.964a2.475,2.475,0,0,1-2.473-2.473V82.314a2.78,2.78,0,0,1-.685-.232,4.021,4.021,0,0,1-1.313-.785,4.748,4.748,0,0,1-1.364-2.668,13.047,13.047,0,0,1,.825-6.826,3.963,3.963,0,0,1,1.772-2.194,3.157,3.157,0,0,1,2.6-.286l3.219,1.085a3.533,3.533,0,0,1,2.052,4.364,1.605,1.605,0,0,1,.525,1.2,1.457,1.457,0,0,1-1.369,1.528l-.066,0-.282.836A6.051,6.051,0,0,1,401.4,80.2v3.291c0,.059,0,.117-.006.175a2.471,2.471,0,0,1-2.466,2.3m-1.61-16.649a3.134,3.134,0,0,0-1.553.425,3.813,3.813,0,0,0-1.7,2.114,12.894,12.894,0,0,0-.82,6.742,4.616,4.616,0,0,0,1.317,2.589,3.877,3.877,0,0,0,1.268.757l.008,0a2.647,2.647,0,0,0,.71.233l.062.011v1.3a2.321,2.321,0,0,0,4.637.164c0-.054.006-.109.006-.164V80.148l.016-.021a5.894,5.894,0,0,0,.958-1.837l.321-.951.06.006a1.062,1.062,0,0,0,.111.006,1.306,1.306,0,0,0,1.218-1.377,1.445,1.445,0,0,0-.507-1.117l-.038-.031.013-.048a3.389,3.389,0,0,0-1.941-4.227l-3.219-1.085a2.879,2.879,0,0,0-.922-.151" transform="translate(-285.89 -50.326)" fill="#0c232b"/>
            <g id="Grupo_1183556" data-name="Grupo 1183556" transform="translate(116.201 24.551)" opacity="0.2">
              <g id="Grupo_1183555" data-name="Grupo 1183555">
                <g id="Grupo_1183554" data-name="Grupo 1183554" clip-path="url(#clip-path-9)">
                  <path id="Trazado_1010317" data-name="Trazado 1010317" d="M428.03,91.6a1.039,1.039,0,0,0-.013-1.026.854.854,0,0,0-.907-.407.865.865,0,0,0-.388,1.156c.078.109.2.138.214.264.021.17-.182.243-.168.413.013.153.194.275.335.315a.55.55,0,0,0,.585-.151c.222-.368-.653-1.062-.445-1.388a.47.47,0,0,1,.59-.064c.316.213.16.885.2.887" transform="translate(-426.63 -90.139)" fill="#517aef"/>
                </g>
              </g>
            </g>
            <g id="Grupo_1183559" data-name="Grupo 1183559" transform="translate(110.949 29.849)" opacity="0.1">
              <g id="Grupo_1183558" data-name="Grupo 1183558">
                <g id="Grupo_1183557" data-name="Grupo 1183557" clip-path="url(#clip-path-10)">
                  <path id="Trazado_1010318" data-name="Trazado 1010318" d="M411.83,109.589v3.317q0,.085-.006.169a4.275,4.275,0,0,1-2.8-.013,3.788,3.788,0,0,1-1.672-1.354c.089.007.178.01.267.01a5.8,5.8,0,0,0,2.543-.716,5.191,5.191,0,0,0,1.671-1.413" transform="translate(-407.348 -109.589)" fill="#517aef"/>
                </g>
              </g>
            </g>
            <path id="Trazado_1010319" data-name="Trazado 1010319" d="M399.235,88.012c0,.3.135.539.3.539s.3-.241.3-.539-.135-.539-.3-.539-.3.241-.3.539" transform="translate(-290.496 -63.648)" fill="#0c232b"/>
            <path id="Trazado_1010320" data-name="Trazado 1010320" d="M408.973,88.012c0,.3.135.539.3.539s.3-.241.3-.539-.135-.539-.3-.539-.3.241-.3.539" transform="translate(-297.582 -63.648)" fill="#0c232b"/>
            <path id="Trazado_1010321" data-name="Trazado 1010321" d="M403.122,101.186a1.355,1.355,0,0,0,.582.993.769.769,0,0,0,.414.117,1.008,1.008,0,0,0,.878-.854,1.626,1.626,0,0,0,.047-.318,1.583,1.583,0,0,1-.978.372,1.619,1.619,0,0,1-.943-.311" transform="translate(-293.324 -73.582)" fill="#0c232b"/>
            <path id="Trazado_1010322" data-name="Trazado 1010322" d="M405.258,103.028a.77.77,0,0,0,.414.117,1.008,1.008,0,0,0,.878-.854,1.68,1.68,0,0,0-.713.19,1.625,1.625,0,0,0-.579.547" transform="translate(-294.878 -74.43)" fill="#8ea0c7"/>
            <path id="Trazado_1010323" data-name="Trazado 1010323" d="M397.715,82.769a1.243,1.243,0,0,0-1.175.134c-.275.22-.366.574-.306.611s.26-.3.756-.537a4.339,4.339,0,0,1,.724-.209" transform="translate(-288.3 -60.161)" fill="#0c232b"/>
            <path id="Trazado_1010324" data-name="Trazado 1010324" d="M408.7,82.769a1.243,1.243,0,0,1,1.175.134c.275.22.366.574.306.611s-.26-.3-.756-.537a4.339,4.339,0,0,0-.724-.209" transform="translate(-297.387 -60.161)" fill="#0c232b"/>
            <g id="Grupo_1183562" data-name="Grupo 1183562" transform="translate(112.281 25.649)" opacity="0.2">
              <g id="Grupo_1183561" data-name="Grupo 1183561">
                <g id="Grupo_1183560" data-name="Grupo 1183560" clip-path="url(#clip-path-11)">
                  <path id="Trazado_1010325" data-name="Trazado 1010325" d="M412.238,94.446c0,.151.337.274.753.274s.753-.123.753-.274-.337-.274-.753-.274-.753.123-.753.274" transform="translate(-412.238 -94.172)" fill="#517aef"/>
                </g>
              </g>
            </g>
            <g id="Grupo_1183565" data-name="Grupo 1183565" transform="translate(106.947 25.649)" opacity="0.2">
              <g id="Grupo_1183564" data-name="Grupo 1183564">
                <g id="Grupo_1183563" data-name="Grupo 1183563" clip-path="url(#clip-path-11)">
                  <path id="Trazado_1010326" data-name="Trazado 1010326" d="M392.656,94.446c0,.151.337.274.753.274s.753-.123.753-.274-.337-.274-.753-.274-.753.123-.753.274" transform="translate(-392.656 -94.172)" fill="#517aef"/>
                </g>
              </g>
            </g>
            <path id="Trazado_1010327" data-name="Trazado 1010327" d="M392.507,68.226c.028.443.708.727,1.188.927a4.554,4.554,0,0,0,1.989.342,4.968,4.968,0,0,0,3.056-1.42,3.433,3.433,0,0,0,.118,2.662,3.342,3.342,0,0,0,1.5,1.4c1.6.828,2.885.109,3.274.65.317.441.026,1.523-2.23,4.172a8.637,8.637,0,0,0,3.264-4.948,7.446,7.446,0,0,0,.152-1.625,7.444,7.444,0,0,0-3.593-4.223c-3.6-1.783-7.119.473-7.591.777-.3.193-1.159.769-1.126,1.286" transform="translate(-285.599 -47.648)" fill="#0c232b"/>
            <path id="Trazado_1010328" data-name="Trazado 1010328" d="M426.514,98.728a.5.5,0,1,0,.5-.5.5.5,0,0,0-.5.5" transform="translate(-310.345 -71.47)" fill="#587aeb"/>
            <path id="Trazado_1010329" data-name="Trazado 1010329" d="M399.632,93.826a.691.691,0,0,1-.165-.02.85.85,0,0,1-.533-.439.8.8,0,0,1-.075-.629.405.405,0,0,1,.725-.163c.061.049.13.1.166.1s.181-.1.15-1.186a.076.076,0,0,1,.151,0c.032,1.113-.116,1.3-.264,1.337-.108.027-.2-.05-.3-.124s-.19-.151-.289-.127c-.124.03-.188.191-.2.223a.644.644,0,0,0,.066.507.7.7,0,0,0,.436.363.688.688,0,0,0,.484-.084.076.076,0,1,1,.074.132.9.9,0,0,1-.429.118" transform="translate(-290.197 -66.51)" fill="#0c232b"/>
            <path id="Trazado_1010330" data-name="Trazado 1010330" d="M40.252,388.6a4.761,4.761,0,0,0,2.537,1.145,3.083,3.083,0,0,1,1.244.442.977.977,0,0,1,.373,1.165c-.206.4-.729.513-1.01.862a1.227,1.227,0,0,0,.3,1.617,3.572,3.572,0,0,0,1.682.64,22.1,22.1,0,0,0,5.611.6,9.35,9.35,0,0,0,1.859-.3q.163-.045.325-.1a6.507,6.507,0,0,0,2.888-1.778,11.031,11.031,0,0,0,1.35-2.017l.889-1.566c.5-.886.667-1.375.529-1.682-.267-.591-1.262-.4-1.689-1.208a1.52,1.52,0,0,1-.154-.559c-.166-1.254.827-1.74.784-2.759a2.237,2.237,0,0,0-1.678-2.051c-.555-.043-1.207.194-1.613-.187-.672-.631.359-1.886-.169-2.642-.492-.7-1.737-.2-2.373-.771-.857-.774.293-2.509-.586-3.257-.856-.729-2.3.606-3.238-.013-.978-.645-.145-2.517-1.1-3.188-.747-.522-1.785.236-2.668.009-.773-.2-1.156-1.066-1.813-1.518a1.9,1.9,0,0,0-2.9,2.094,7.275,7.275,0,0,0,.784,1.429,1.6,1.6,0,0,1,.145,1.553c-.43.721-1.655.727-1.937,1.518-.252.709.474,1.364,1.128,1.734s1.437.881,1.364,1.63c-.1.978-1.6,1.368-1.637,2.351-.025.654.62,1.1,1.169,1.461s1.143.927.956,1.555-1.027.789-1.509,1.251a1.872,1.872,0,0,0,.164,2.538" transform="translate(-28.061 -268.617)" fill="#90abf3"/>
            <g id="Grupo_1183568" data-name="Grupo 1183568" transform="translate(13.588 102.355)" opacity="0.5">
              <g id="Grupo_1183567" data-name="Grupo 1183567">
                <g id="Grupo_1183566" data-name="Grupo 1183566" clip-path="url(#clip-path-13)">
                  <path id="Trazado_1010331" data-name="Trazado 1010331" d="M51.383,391.1l1.736.576,3.061,1.016,3,1q.324.883.627,1.774.24.707.465,1.418l-1.012-.108-2.228-.238L54.8,396.3a.169.169,0,1,0-.015.338l.261.028,2.06.221,2.069.221,1.035.111.177.019q.367,1.177.7,2.364.163-.045.325-.1-.333-1.2-.7-2.383l.033-.037.351-.392,1.385-1.548,1.391-1.554a.174.174,0,0,0,.008-.239.17.17,0,0,0-.239-.007l-.715.8-1.26,1.407-1.073,1.2q-.318-1-.663-1.989-.207-.593-.424-1.182l.671-1.111,1.256-2.079,1.262-2.09a.169.169,0,1,0-.286-.18l-.713,1.181-1.256,2.08-1.083,1.793q-.635-1.7-1.348-3.374-.259-.6-.527-1.2l.453-.915.86-1.737.86-1.737a.173.173,0,0,0-.053-.233.169.169,0,0,0-.233.053l-.487.984q-.429.869-.86,1.737l-.719,1.451q-.739-1.629-1.554-3.222-.17-.332-.343-.662l.415-.693.824-1.379.824-1.379a.169.169,0,0,0-.287-.18l-.465.777-.824,1.379-.672,1.124q-.938-1.77-1.968-3.491.078-.291.156-.582l.625-2.326a.173.173,0,0,0-.111-.212.17.17,0,0,0-.212.111l-.177.658q-.261.976-.523,1.95-1.3-2.141-2.735-4.194c-.123-.176-.422-.018-.3.16s.255.366.381.55q1.2,1.753,2.31,3.573l-.2-.079-2.349-.917a.169.169,0,0,0-.1.323l.656.256,2.284.891q.12.2.24.4.867,1.47,1.669,2.978l-.633-.213-1.835-.616-1.835-.616a.169.169,0,0,0-.1.323l1.032.346,1.835.616,1.767.593q.324.619.637,1.242.653,1.3,1.256,2.629l-.934-.24-2.308-.593-2.316-.595a.173.173,0,0,0-.212.111.171.171,0,0,0,.111.212l1.3.335,2.308.593,2.227.572q.4.891.777,1.793.577,1.379,1.1,2.78l-1.406-.467L54.566,391.8l-3.083-1.023a.169.169,0,1,0-.1.323" transform="translate(-49.888 -375.797)" fill="#646794"/>
                </g>
              </g>
            </g>
            <path id="Trazado_1010332" data-name="Trazado 1010332" d="M61.5,351.6a6.592,6.592,0,0,0,3.071,2.33,4.27,4.27,0,0,1,1.543.981,1.353,1.353,0,0,1,.143,1.688c-.4.472-1.143.468-1.63.851a1.7,1.7,0,0,0-.1,2.275A4.947,4.947,0,0,0,66.6,361.1a30.62,30.62,0,0,0,7.388,2.547,12.99,12.99,0,0,0,2.6.163q.234-.01.468-.029a9.009,9.009,0,0,0,4.448-1.508,15.28,15.28,0,0,0,2.446-2.306l1.684-1.84c.952-1.041,1.325-1.65,1.233-2.107-.177-.881-1.579-.93-1.906-2.153a2.1,2.1,0,0,1-.035-.8c.164-1.744,1.655-2.094,1.911-3.483.229-1.234-.51-2.937-1.632-3.287-.736-.23-1.69-.11-2.12-.75-.712-1.06,1.067-2.436.587-3.618-.447-1.1-2.285-.8-2.966-1.773-.917-1.309,1.171-3.3.215-4.579-.931-1.249-3.29.108-4.367-1.018-1.122-1.173.582-3.443-.507-4.646-.847-.935-2.483-.232-3.6-.812-.982-.508-1.231-1.8-1.979-2.609a2.629,2.629,0,0,0-4.561,1.931,10.081,10.081,0,0,0,.617,2.171,2.214,2.214,0,0,1-.284,2.142c-.8.84-2.459.47-3.084,1.451-.56.879.218,1.987.987,2.69s1.668,1.633,1.338,2.621c-.431,1.292-2.581,1.354-2.936,2.668-.236.875.5,1.682,1.127,2.333s1.256,1.605.811,2.395c-.455.8-1.63.747-2.423,1.223A2.592,2.592,0,0,0,61.5,351.6" transform="translate(-44.448 -236.956)" fill="#646794"/>
            <g id="Grupo_1183571" data-name="Grupo 1183571" transform="translate(21.559 91.333)" opacity="0.5">
              <g id="Grupo_1183570" data-name="Grupo 1183570">
                <g id="Grupo_1183569" data-name="Grupo 1183569" clip-path="url(#clip-path-14)">
                  <path id="Trazado_1010333" data-name="Trazado 1010333" d="M79.27,356.386l2.167,1.314,3.819,2.317L89,362.292q.165,1.292.3,2.588.105,1.028.19,2.058l-1.332-.459-2.934-1.01-2.946-1.015a.234.234,0,0,0-.125.452l.344.118,2.713.934,2.726.939,1.363.469.233.08q.132,1.7.211,3.407.235-.01.468-.029-.08-1.719-.215-3.435l.056-.039.595-.421,2.348-1.661,2.358-1.669a.24.24,0,0,0,.084-.321.235.235,0,0,0-.321-.084l-1.211.857-2.135,1.511-1.818,1.286q-.121-1.447-.281-2.89-.1-.864-.207-1.726l1.249-1.292,2.338-2.419L95.4,356.09a.234.234,0,0,0-.331-.331l-1.328,1.374-2.338,2.42-2.016,2.086q-.332-2.494-.779-4.972-.162-.895-.339-1.787l.894-1.095,1.7-2.08,1.7-2.08a.24.24,0,0,0,0-.331.234.234,0,0,0-.331,0l-.961,1.178-1.7,2.08-1.418,1.737q-.5-2.427-1.1-4.829-.126-.5-.258-1l.774-.808,1.539-1.606,1.539-1.607a.234.234,0,1,0-.332-.331l-.868.906L87.9,346.621l-1.255,1.31q-.72-2.68-1.578-5.32l.391-.738,1.562-2.948a.239.239,0,0,0-.084-.32.236.236,0,0,0-.321.084l-.442.833-1.309,2.471q-1.092-3.292-2.4-6.507c-.112-.276-.565-.154-.452.125s.231.573.344.86q1.085,2.739,2.015,5.537l-.249-.17-2.889-1.963a.234.234,0,0,0-.236.4l.807.548,2.807,1.908c.067.205.134.41.2.616q.717,2.252,1.334,4.535l-.789-.483-2.288-1.4-2.288-1.4a.235.235,0,0,0-.237.4l1.286.786,2.288,1.4,2.2,1.347q.247.935.476,1.874.479,1.96.884,3.937l-1.188-.613-2.932-1.513-2.943-1.518a.239.239,0,0,0-.32.084.236.236,0,0,0,.084.321l1.656.854,2.932,1.513,2.83,1.46q.264,1.327.495,2.66.353,2.04.626,4.093l-1.754-1.064-3.819-2.317-3.846-2.333a.234.234,0,0,0-.237.4" transform="translate(-79.155 -335.33)" fill="#4f545d"/>
                </g>
              </g>
            </g>
            <path id="Trazado_1010334" data-name="Trazado 1010334" d="M94.868,410.8a3.36,3.36,0,0,0,1.792.809,2.183,2.183,0,0,1,.879.312.69.69,0,0,1,.263.823c-.145.28-.515.363-.713.609a.867.867,0,0,0,.211,1.142,2.52,2.52,0,0,0,1.188.452,15.618,15.618,0,0,0,3.963.426,6.609,6.609,0,0,0,1.313-.215q.116-.031.23-.068a4.6,4.6,0,0,0,2.04-1.256,7.791,7.791,0,0,0,.953-1.425l.628-1.106c.355-.626.471-.971.373-1.188-.188-.418-.891-.282-1.193-.854a1.065,1.065,0,0,1-.109-.395c-.117-.886.585-1.229.554-1.949a1.58,1.58,0,0,0-1.185-1.449c-.392-.031-.853.138-1.14-.132-.474-.446.254-1.332-.12-1.866-.347-.5-1.227-.138-1.677-.544-.6-.547.207-1.773-.414-2.3-.6-.515-1.624.428-2.287-.009-.691-.456-.1-1.778-.781-2.252-.527-.369-1.261.167-1.884.006-.546-.141-.817-.753-1.281-1.072a1.341,1.341,0,0,0-2.048,1.479,5.136,5.136,0,0,0,.554,1.009,1.129,1.129,0,0,1,.1,1.1c-.3.509-1.169.514-1.368,1.072-.178.5.334.963.8,1.225s1.015.622.963,1.151c-.067.691-1.129.967-1.156,1.66-.018.462.438.78.826,1.032s.807.655.675,1.1-.725.557-1.066.884a1.322,1.322,0,0,0,.115,1.793" transform="translate(-68.162 -288.92)" fill="#90abf3"/>
            <g id="Grupo_1183574" data-name="Grupo 1183574" transform="translate(25.515 108.149)" opacity="0.2">
              <g id="Grupo_1183573" data-name="Grupo 1183573">
                <g id="Grupo_1183572" data-name="Grupo 1183572" clip-path="url(#clip-path-15)">
                  <path id="Trazado_1010335" data-name="Trazado 1010335" d="M94.868,410.8a3.36,3.36,0,0,0,1.792.809,2.183,2.183,0,0,1,.879.312.69.69,0,0,1,.263.823c-.145.28-.515.363-.713.609a.867.867,0,0,0,.211,1.142,2.52,2.52,0,0,0,1.188.452,15.618,15.618,0,0,0,3.963.426,6.609,6.609,0,0,0,1.313-.215q.116-.031.23-.068a4.6,4.6,0,0,0,2.04-1.256,7.791,7.791,0,0,0,.953-1.425l.628-1.106c.355-.626.471-.971.373-1.188-.188-.418-.891-.282-1.193-.854a1.065,1.065,0,0,1-.109-.395c-.117-.886.585-1.229.554-1.949a1.58,1.58,0,0,0-1.185-1.449c-.392-.031-.853.138-1.14-.132-.474-.446.254-1.332-.12-1.866-.347-.5-1.227-.138-1.677-.544-.6-.547.207-1.773-.414-2.3-.6-.515-1.624.428-2.287-.009-.691-.456-.1-1.778-.781-2.252-.527-.369-1.261.167-1.884.006-.546-.141-.817-.753-1.281-1.072a1.341,1.341,0,0,0-2.048,1.479,5.136,5.136,0,0,0,.554,1.009,1.129,1.129,0,0,1,.1,1.1c-.3.509-1.169.514-1.368,1.072-.178.5.334.963.8,1.225s1.015.622.963,1.151c-.067.691-1.129.967-1.156,1.66-.018.462.438.78.826,1.032s.807.655.675,1.1-.725.557-1.066.884a1.322,1.322,0,0,0,.115,1.793" transform="translate(-93.677 -397.069)" fill="#4f545d"/>
                </g>
              </g>
            </g>
            <g id="Grupo_1183577" data-name="Grupo 1183577" transform="translate(27.693 109.425)" opacity="0.5">
              <g id="Grupo_1183576" data-name="Grupo 1183576">
                <g id="Grupo_1183575" data-name="Grupo 1183575" clip-path="url(#clip-path-16)">
                  <path id="Trazado_1010336" data-name="Trazado 1010336" d="M112.932,428.319a.03.03,0,0,1-.013-.058.03.03,0,0,1,.013.058" transform="translate(-109.84 -421.04)" fill="#38a891"/>
                  <path id="Trazado_1010337" data-name="Trazado 1010337" d="M102.73,412.563l1.227.407,2.162.717,2.122.7q.229.624.443,1.253.169.5.328,1l-.715-.077-1.574-.168-1.58-.169a.12.12,0,0,0-.011.239l.185.02,1.455.156,1.462.156.731.078.125.014q.259.831.492,1.67.116-.031.23-.068-.235-.846-.5-1.683l.023-.026.248-.277.978-1.093.983-1.1a.123.123,0,0,0,.005-.169.12.12,0,0,0-.169-.005l-.5.564-.89.994-.758.846q-.225-.706-.468-1.4-.146-.418-.3-.835l.474-.785.887-1.469.891-1.476a.12.12,0,0,0-.2-.127l-.5.835-.887,1.469-.765,1.267q-.449-1.2-.953-2.383-.182-.426-.372-.85l.32-.646.608-1.227.608-1.227a.123.123,0,0,0-.038-.165.12.12,0,0,0-.165.038l-.344.7-.608,1.227-.507,1.025q-.523-1.15-1.1-2.276-.12-.235-.242-.468l.293-.489.583-.974.582-.974a.122.122,0,0,0-.038-.165.121.121,0,0,0-.165.038l-.328.549-.582.974-.475.794q-.663-1.251-1.39-2.465l.111-.412L104.6,403a.122.122,0,0,0-.078-.15.121.121,0,0,0-.15.078l-.125.464-.37,1.378q-.918-1.512-1.932-2.963c-.087-.124-.3-.013-.211.113l.269.388q.851,1.239,1.632,2.524l-.144-.056-1.66-.647a.12.12,0,0,0-.071.228l.464.181,1.613.629c.056.094.113.188.169.284q.613,1.038,1.179,2.1l-.447-.15-1.3-.435-1.3-.435a.12.12,0,0,0-.072.228l.729.244,1.3.435,1.249.419q.229.437.45.878.461.92.887,1.857l-.66-.169-1.63-.419-1.636-.42a.122.122,0,0,0-.15.078.12.12,0,0,0,.078.15l.92.236,1.63.419,1.573.4q.282.63.549,1.266.408.974.777,1.964l-.993-.33-2.162-.717-2.178-.723a.119.119,0,1,0-.072.228" transform="translate(-101.675 -401.753)" fill="#646794"/>
                </g>
              </g>
            </g>
            <path id="Trazado_1010338" data-name="Trazado 1010338" d="M134.876,388.412a4.757,4.757,0,0,1-2.417,1.38,3.088,3.088,0,0,0-1.2.558.977.977,0,0,0-.261,1.195c.243.375.775.442,1.087.762a1.227,1.227,0,0,1-.144,1.638,3.571,3.571,0,0,1-1.614.8,22.1,22.1,0,0,1-5.528,1.131,9.36,9.36,0,0,1-1.879-.128q-.167-.029-.333-.065a6.5,6.5,0,0,1-3.043-1.5,11.006,11.006,0,0,1-1.535-1.881l-1.033-1.475c-.584-.835-.794-1.306-.685-1.624.209-.614,1.218-.517,1.566-1.363a1.505,1.505,0,0,0,.1-.571c.047-1.264-.988-1.655-1.042-2.673a2.238,2.238,0,0,1,1.477-2.2c.549-.1,1.22.08,1.588-.339.609-.692-.535-1.844-.081-2.646.423-.746,1.711-.359,2.29-.991.779-.851-.529-2.47.275-3.3.783-.807,2.345.386,3.222-.319.913-.735-.094-2.519.8-3.279.694-.59,1.8.066,2.656-.243.75-.271,1.05-1.17,1.661-1.682a1.9,1.9,0,0,1,3.084,1.81,7.288,7.288,0,0,1-.646,1.5,1.6,1.6,0,0,0,0,1.56c.5.677,1.716.567,2.072,1.328.319.682-.342,1.4-.959,1.833s-1.347,1.013-1.2,1.751c.188.965,1.721,1.211,1.852,2.185.087.649-.512,1.158-1.025,1.565s-1.05,1.031-.8,1.639,1.1.688,1.62,1.1a1.871,1.871,0,0,1,.077,2.542" transform="translate(-84.6 -268.617)" fill="#90abf3"/>
            <g id="Grupo_1183580" data-name="Grupo 1183580" transform="translate(34.923 102.397)" opacity="0.5">
              <g id="Grupo_1183579" data-name="Grupo 1183579">
                <g id="Grupo_1183578" data-name="Grupo 1183578" clip-path="url(#clip-path-17)">
                  <path id="Trazado_1010339" data-name="Trazado 1010339" d="M160.846,414.827a.042.042,0,0,0,.011-.084.042.042,0,0,0-.011.084" transform="translate(-151.934 -404.176)" fill="#38a891"/>
                  <path id="Trazado_1010340" data-name="Trazado 1010340" d="M140.476,391.3l-1.675.738-2.951,1.3-2.9,1.277q-.239.909-.456,1.825-.172.726-.329,1.456l1-.2,2.2-.448,2.2-.45a.169.169,0,0,1,.047.335l-.257.052-2.03.415-2.039.416-1.02.208-.175.036q-.254,1.206-.47,2.419c-.111-.019-.222-.041-.333-.065q.218-1.223.476-2.439l-.036-.033-.386-.357-1.525-1.409-1.532-1.416a.174.174,0,0,1-.03-.237.17.17,0,0,1,.237-.03l.787.727,1.387,1.282,1.181,1.091q.222-1.025.472-2.043.15-.61.31-1.216l-.773-1.043-1.447-1.951-1.454-1.961a.169.169,0,0,1,.268-.206l.822,1.109,1.447,1.952,1.248,1.682q.471-1.755,1.024-3.486.2-.626.41-1.248l-.537-.867-1.021-1.648-1.021-1.648a.174.174,0,0,1,.031-.237.17.17,0,0,1,.237.031l.578.933,1.021,1.648.853,1.377q.582-1.691,1.242-3.354.138-.346.279-.692l-.478-.651-.951-1.295-.951-1.295a.169.169,0,0,1,.269-.206l.536.73.951,1.295.776,1.056q.766-1.851,1.628-3.661l-.211-.565-.842-2.257a.173.173,0,0,1,.09-.221.17.17,0,0,1,.221.09l.238.638.705,1.892q1.091-2.254,2.326-4.434c.106-.187.419-.058.312.132s-.219.388-.327.583q-1.034,1.859-1.962,3.775l.194-.1,2.252-1.134a.169.169,0,0,1,.131.312l-.629.316-2.189,1.1c-.067.14-.134.281-.2.422q-.724,1.545-1.38,3.122l.61-.272,1.769-.787,1.769-.787a.169.169,0,0,1,.132.312l-.994.442-1.769.787-1.7.758q-.264.646-.517,1.3-.527,1.358-1,2.736l.908-.327,2.241-.808,2.249-.811a.173.173,0,0,1,.221.09.17.17,0,0,1-.09.222l-1.265.456-2.241.808-2.163.78q-.313.925-.6,1.858-.444,1.428-.832,2.872l1.355-.6,2.951-1.3,2.972-1.31a.169.169,0,0,1,.132.312" transform="translate(-128.221 -375.948)" fill="#646794"/>
                </g>
              </g>
            </g>
            <path id="Trazado_1010341" data-name="Trazado 1010341" d="M61.085,463.039H92.673a1.57,1.57,0,0,0-1.57-1.57H62.655a1.57,1.57,0,0,0-1.57,1.57" transform="translate(-44.447 -335.779)" fill="#90abf3"/>
            <g id="Grupo_1183583" data-name="Grupo 1183583" transform="translate(16.638 125.69)" opacity="0.2">
              <g id="Grupo_1183582" data-name="Grupo 1183582">
                <g id="Grupo_1183581" data-name="Grupo 1183581" clip-path="url(#clip-path-18)">
                  <path id="Trazado_1010342" data-name="Trazado 1010342" d="M61.085,463.039H74.163a1.57,1.57,0,0,0-1.57-1.57H62.655a1.57,1.57,0,0,0-1.57,1.57" transform="translate(-61.085 -461.469)" fill="#4f545d"/>
                </g>
              </g>
            </g>
            <path id="Trazado_1010343" data-name="Trazado 1010343" d="M282.1,165.8l1.05,3.4.226.729.006.019.2.652.336,1.084.1.318.481,1.554.02.064.1.317.062.2.015.046.06.2.044.144.331,1.07.09.291.02.064.044.144.117.379.339,1.093.044.144.287.927.073.236c0,.015.01.03.015.045a1.588,1.588,0,0,0,.1.238,1.654,1.654,0,0,0,1.462.882h20.469l-.009-.029h9.846a.735.735,0,1,0,0-1.47h-10.3l-1.521-4.917-.6-1.936-.335-1.084-1.685-5.447h0a1.137,1.137,0,0,0-.063-.158,1.106,1.106,0,0,0-.992-.619H283.155a1.1,1.1,0,0,0-1.055,1.43" transform="translate(-205.228 -119.6)" fill="#0c232b"/>
            <path id="Trazado_1010344" data-name="Trazado 1010344" d="M343.781,167.151a1.32,1.32,0,0,1,1.228.933,16.057,16.057,0,0,1,.9,3.457,14.647,14.647,0,0,1-1.388-3.051,1.32,1.32,0,0,0-1.08-.818,13.919,13.919,0,0,1-3.079-.468,15.952,15.952,0,0,1,3.416-.053" transform="translate(-247.66 -121.601)" fill="#95baf3"/>
            <path id="Trazado_1010345" data-name="Trazado 1010345" d="M345.7,171.417c-.106,0-.308-.275-1.448-3.1a1.242,1.242,0,0,0-1.019-.771c-3.159-.344-3.153-.439-3.146-.548s.014-.211,3.493-.123a1.394,1.394,0,0,1,1.3.986c1.066,3.476.964,3.512.855,3.551a.108.108,0,0,1-.035.008m-5.288-4.4c.306.068,1.057.183,2.838.377a1.393,1.393,0,0,1,1.142.865c.757,1.876,1.095,2.6,1.244,2.871-.054-.314-.261-1.139-.9-3.228a1.242,1.242,0,0,0-1.158-.879c-2.006-.05-2.835-.034-3.165-.007" transform="translate(-247.457 -121.397)" fill="#0c232b"/>
            <path id="Trazado_1010346" data-name="Trazado 1010346" d="M381.272,217.8c0-.093-7-.208-10.831-.184a8.844,8.844,0,0,0-1.025.026c0,.046,3.093.16,5.994.2,2.35.03,5.861.026,5.862-.04" transform="translate(-268.799 -158.339)" fill="#95baf3"/>
            <path id="Trazado_1010347" data-name="Trazado 1010347" d="M378.138,217.728c-.963,0-2.023-.006-2.931-.018-1.311-.017-2.791-.051-4.061-.095a7.871,7.871,0,0,1-1.985-.125l-.022-.023v-.032c0-.083.049-.084.312-.091.164,0,.414-.007.788-.01,1.777-.011,4.387.007,6.811.047,3.983.066,4.042.125,4.073.157l.023.023v.034c0,.082-.081.087-.227.1-.1.006-.245.012-.433.017-.352.009-.845.015-1.465.018l-.882,0m-6.422-.245c1.031.032,2.272.061,3.493.076,1.249.016,2.717.022,3.867.016-1.9-.048-4.859-.089-7.36-.092" transform="translate(-268.596 -158.137)" fill="#0c232b"/>
            <path id="Trazado_1010348" data-name="Trazado 1010348" d="M315.706,184.276c.474,1.287,1.651,2.127,2.63,1.876s1.387-1.5.913-2.786-1.651-2.127-2.63-1.876-1.387,1.5-.913,2.786" transform="translate(-229.574 -132.025)" fill="#95baf3"/>
            <path id="Trazado_1010349" data-name="Trazado 1010349" d="M317.775,186.071a2.8,2.8,0,0,1-2.347-1.969,2.649,2.649,0,0,1,.035-2.125,1.445,1.445,0,0,1,.93-.76c1.013-.26,2.233.6,2.72,1.923a2.685,2.685,0,0,1-.035,2.125,1.445,1.445,0,0,1-.93.76,1.492,1.492,0,0,1-.373.046m-1-4.751a1.355,1.355,0,0,0-.339.042,1.3,1.3,0,0,0-.834.684,2.533,2.533,0,0,0-.027,2c.46,1.25,1.6,2.071,2.54,1.829a1.3,1.3,0,0,0,.835-.684,2.534,2.534,0,0,0,.027-2,2.646,2.646,0,0,0-2.2-1.871" transform="translate(-229.367 -131.824)" fill="#0c232b"/>
            <path id="Trazado_1010350" data-name="Trazado 1010350" d="M323.485,74.15a5.039,5.039,0,1,1-5.039-5.039,5.038,5.038,0,0,1,5.039,5.039" transform="translate(-228.046 -50.287)" fill="#90abf3"/>
            <path id="Trazado_1010351" data-name="Trazado 1010351" d="M324.392,81.585,324,81.61l-.09.006-.489.032.16.239-3.093,2.044-.307-2.112L315.656,84.5a.235.235,0,0,0,.12.437.233.233,0,0,0,.12-.033l3.92-2.326.312,2.15,3.712-2.453.123.185.2-.4.022-.044.215-.434,0-.005Z" transform="translate(-229.597 -59.363)" fill="#646794"/>
            <path id="Trazado_1010352" data-name="Trazado 1010352" d="M337.653,97.262l-2.307,9.072-.237-7.433Z" transform="translate(-243.836 -70.771)" fill="#90abf3"/>
            <g id="Grupo_1183586" data-name="Grupo 1183586" transform="translate(53.445 18.544)" opacity="0.5">
              <g id="Grupo_1183585" data-name="Grupo 1183585">
                <g id="Grupo_1183584" data-name="Grupo 1183584" clip-path="url(#clip-path-19)">
                  <path id="Trazado_1010353" data-name="Trazado 1010353" d="M197.314,68.37l.009,2.786v6.965c0,.232,0,.464,0,.7s-.016.464-.024.7,0,.464-.008.7-.02.464-.029.7l-.064,1.392-.128,2.783-.127,2.783-.135,2.783a.287.287,0,0,1-.574-.013l-.007-2.786V80.883c0-.232,0-.464,0-.7s.022-.464.024-.7,0-.464.008-.7.02-.464.029-.7l.063-1.392.126-2.783.126-2.783.135-2.783a.287.287,0,0,1,.574.013" transform="translate(-196.223 -68.083)" fill="#fdfcf6"/>
                </g>
              </g>
            </g>
            <g id="Grupo_1183589" data-name="Grupo 1183589" transform="translate(50.416 88.417)" opacity="0.5">
              <g id="Grupo_1183588" data-name="Grupo 1183588">
                <g id="Grupo_1183587" data-name="Grupo 1183587" clip-path="url(#clip-path-20)">
                  <path id="Trazado_1010354" data-name="Trazado 1010354" d="M185.354,330.136l.93-.15.116-.019.115-.023.231-.046.461-.092.231-.046.229-.054.457-.108c.306-.066.606-.157.908-.239l.226-.062c.075-.02.151-.041.225-.066l.447-.141c.149-.048.3-.092.446-.143l.441-.157.44-.158.435-.173c.145-.057.289-.117.435-.171s.292-.108.437-.165.287-.122.431-.18.289-.116.433-.175l.435-.173.429-.187c.143-.063.287-.124.429-.188l.424-.2c.141-.068.284-.132.423-.2l.418-.214c.281-.139.553-.293.828-.444s.543-.313.815-.471c.067-.04.136-.079.2-.12l.2-.124.4-.249c.266-.168.526-.345.79-.517l.009-.005a.287.287,0,0,1,.332.469c-.254.195-.506.394-.763.586l-.389.284-.195.142c-.065.047-.132.091-.2.137-.266.18-.528.367-.8.537s-.54.35-.818.512l-.415.249c-.138.083-.281.158-.421.238l-.423.236c-.142.076-.286.149-.429.224l-.43.223-.437.209c-.147.069-.291.142-.439.207s-.305.108-.454.172-.3.13-.448.187-.308.1-.461.151l-.462.149-.466.133-.466.132c-.156.042-.314.078-.47.117l-.47.115c-.078.02-.157.037-.236.053l-.237.049c-.316.063-.63.136-.949.184l-.476.08-.238.039-.239.031-.479.059-.239.029-.12.014-.12.01-.96.08a.287.287,0,0,1-.07-.57Z" transform="translate(-185.101 -324.624)" fill="#fdfcf6"/>
                </g>
              </g>
            </g>
            <g id="Grupo_1183592" data-name="Grupo 1183592" transform="translate(15.885 53.181)" opacity="0.5">
              <g id="Grupo_1183591" data-name="Grupo 1183591">
                <g id="Grupo_1183590" data-name="Grupo 1183590" clip-path="url(#clip-path-21)">
                  <path id="Trazado_1010355" data-name="Trazado 1010355" d="M60.646,195.634a27.485,27.485,0,0,0,.238,18.914,29.942,29.942,0,0,0,1.307,2.927l.187.355c.062.118.124.237.19.353.13.234.259.468.392.7.263.465.54.923.823,1.377.143.226.29.45.443.67s.3.44.459.659l.469.652c.159.215.317.431.482.643s.33.423.5.634.337.417.511.622c.344.412.7.814,1.061,1.211a39.025,39.025,0,0,0,4.73,4.376c.424.33.855.653,1.293.963q.328.233.663.456c.111.074.223.147.335.218l.168.106.173.106c.92.565,1.856,1.093,2.822,1.569a31.475,31.475,0,0,0,2.962,1.28,29.529,29.529,0,0,0,3.084.956h0a.287.287,0,0,1-.134.559,30.249,30.249,0,0,1-3.166-.912,32.217,32.217,0,0,1-3.052-1.247c-1-.466-1.967-.988-2.912-1.543l-.177-.1-.179-.108q-.178-.109-.352-.22-.35-.222-.691-.455-.684-.463-1.344-.959a39.938,39.938,0,0,1-4.929-4.379q-.57-.6-1.114-1.221c-.183-.206-.359-.418-.538-.628s-.352-.425-.522-.642c-.344-.431-.681-.869-1-1.32s-.619-.915-.921-1.377a28.739,28.739,0,0,1-2.925-5.94,28.377,28.377,0,0,1,.129-19.444h0a.287.287,0,0,1,.54.2" transform="translate(-58.323 -195.252)" fill="#fdfcf6"/>
                </g>
              </g>
            </g>
            <g id="Grupo_1183595" data-name="Grupo 1183595" transform="translate(20.969 32.06)" opacity="0.5">
              <g id="Grupo_1183594" data-name="Grupo 1183594">
                <g id="Grupo_1183593" data-name="Grupo 1183593" clip-path="url(#clip-path-22)">
                  <path id="Trazado_1010356" data-name="Trazado 1010356" d="M101.767,118.282a32.733,32.733,0,0,0-7.148,1.462q-.867.284-1.716.615c-.565.221-1.123.462-1.675.714s-1.093.525-1.627.811c-.134.07-.266.146-.4.218s-.266.146-.4.221-.265.147-.4.22-.263.15-.394.225c-.264.148-.514.32-.771.48s-.514.321-.768.486-.507.331-.753.509l-.372.262-.186.131-.182.137a30.269,30.269,0,0,0-2.792,2.337,31.343,31.343,0,0,0-2.5,2.656c-.192.237-.389.469-.575.711-.094.12-.189.239-.281.361l-.275.366q-.543.736-1.047,1.5h0a.287.287,0,0,1-.486-.306q.483-.8,1.012-1.567l.267-.383c.09-.127.182-.252.274-.378.181-.254.374-.5.561-.747a32.073,32.073,0,0,1,2.466-2.812,31.11,31.11,0,0,1,2.787-2.506l.182-.148.187-.142.374-.284c.247-.192.506-.369.759-.553.127-.092.258-.177.387-.266s.258-.178.391-.26c.267-.165.536-.324.806-.484.134-.081.267-.164.4-.242s.271-.157.409-.232.276-.148.416-.219.278-.144.419-.212q.843-.415,1.708-.78c.578-.24,1.16-.468,1.75-.676s1.185-.4,1.784-.572a32.949,32.949,0,0,1,3.646-.83,32.424,32.424,0,0,1,3.71-.4.287.287,0,0,1,.039.573" transform="translate(-76.987 -117.708)" fill="#fdfcf6"/>
                </g>
              </g>
            </g>
            <g id="Grupo_1183598" data-name="Grupo 1183598" transform="translate(57.75 42.589)" opacity="0.5">
              <g id="Grupo_1183597" data-name="Grupo 1183597">
                <g id="Grupo_1183596" data-name="Grupo 1183596" clip-path="url(#clip-path-23)">
                  <path id="Trazado_1010357" data-name="Trazado 1010357" d="M212.392,156.377q.881.245,1.739.573c.57.22,1.128.472,1.677.745a17.671,17.671,0,0,1,3.086,2,16.443,16.443,0,0,1,2.58,2.649l.279.371c.046.063.1.122.138.187l.13.193.259.386.065.1c.021.033.04.066.06.1l.119.2.238.4c.077.135.146.274.217.412.035.069.071.138.1.208s.071.138.1.21l.183.428c.128.283.24.572.353.861.026.073.057.144.079.219l.068.222.137.444c.042.149.078.3.118.449l.058.225.029.112.024.113c.062.3.134.6.179.909l.076.456.058.458.029.229c.009.077.014.153.021.23l.04.459c.038.613.062,1.227.044,1.839l0,.23c0,.076-.007.153-.01.229l-.022.458c-.025.305-.043.61-.078.914s-.072.606-.112.909l-.071.452c-.023.151-.053.3-.08.45q-.167.9-.4,1.782c-.078.294-.165.587-.256.878s-.19.579-.3.869a.287.287,0,0,1-.539-.2v0c.094-.272.181-.557.259-.841s.152-.571.217-.86q.2-.865.328-1.743c.02-.147.044-.292.061-.439l.053-.44c.028-.294.059-.587.076-.882s.031-.589.044-.883l0-.442c0-.074,0-.147,0-.221l0-.221c0-.588-.05-1.174-.106-1.758l-.054-.436c-.01-.073-.017-.145-.028-.218l-.035-.217-.071-.433-.088-.429c-.053-.287-.132-.568-.2-.851l-.026-.106-.031-.1-.062-.209c-.042-.139-.081-.279-.126-.418l-.144-.412c-.048-.137-.093-.275-.148-.409s-.1-.272-.151-.409a4.131,4.131,0,0,0-.166-.4l-.18-.4c-.062-.131-.133-.257-.2-.388l-.1-.2c-.032-.065-.061-.132-.1-.2l-.209-.381-.1-.191c-.017-.032-.034-.064-.053-.1l-.057-.092-.23-.37-.115-.185c-.038-.062-.082-.12-.123-.18l-.25-.357a15.551,15.551,0,0,0-2.347-2.585,17.431,17.431,0,0,0-6.12-3.416h0a.287.287,0,0,1,.164-.55" transform="translate(-212.028 -156.367)" fill="#fdfcf6"/>
                </g>
              </g>
            </g>
          </g>
        </g>
      </g>
    </g>
  </g>
</svg>
