<svg xmlns="http://www.w3.org/2000/svg" width="53" height="53" viewBox="0 0 53 53">
  <g id="Grupo_1184477" data-name="Grupo 1184477" transform="translate(-16 -16)">
    <path id="Trazado_1011436" data-name="Trazado 1011436" d="M372.417,432h-3.533a.883.883,0,1,0,0,1.767h3.533a.883.883,0,0,0,0-1.767Z" transform="translate(-313.133 -370.067)" fill="#53435c"/>
    <path id="Trazado_1011437" data-name="Trazado 1011437" d="M244.417,448h-3.533a.883.883,0,0,0,0,1.767h3.533a.883.883,0,1,0,0-1.767Z" transform="translate(-199.267 -384.3)" fill="#53435c"/>
    <path id="Trazado_1011438" data-name="Trazado 1011438" d="M92.417,432H88.883a.883.883,0,1,0,0,1.767h3.533a.883.883,0,1,0,0-1.767Z" transform="translate(-64.05 -370.067)" fill="#53435c"/>
    <path id="Trazado_1011439" data-name="Trazado 1011439" d="M65.794,34.55h2.323A.883.883,0,0,0,69,33.667v-5.3a.883.883,0,0,0-.883-.883H65.794a1.4,1.4,0,0,1-.959-2.321l1.644-1.638a.883.883,0,0,0,0-1.25L62.726,18.52a.883.883,0,0,0-.625-.259h0a.883.883,0,0,0-.625.26l-1.638,1.644a1.327,1.327,0,0,1-1.473.232,1.311,1.311,0,0,1-.848-1.191V16.883A.883.883,0,0,0,56.633,16H38.967a.883.883,0,0,0-.883.883h0a.883.883,0,0,0,.883.883H50.45v1.439a1.326,1.326,0,0,1-.879,1.2,1.311,1.311,0,0,1-1.442-.244l-1.638-1.644a.883.883,0,0,0-.625-.26h0a.883.883,0,0,0-.624.259l-2.78,2.78H27.483V17.767h7.95a.883.883,0,0,0,.883-.883h0A.883.883,0,0,0,35.433,16H26.6a.883.883,0,0,0-.883.883v5.191l-1.74,6.961-.026.215V58.4H16.883a.883.883,0,0,0-.883.883v8.833a.883.883,0,0,0,.883.883H68.117A.883.883,0,0,0,69,68.117V59.283a.883.883,0,0,0-.883-.883H61.05V43.085l.425.427a.883.883,0,0,0,.625.26h0a.883.883,0,0,0,.624-.259l3.754-3.754a.883.883,0,0,0,0-1.25l-1.644-1.637A1.328,1.328,0,0,1,64.6,35.4,1.311,1.311,0,0,1,65.794,34.55ZM42.5,35.433a2.634,2.634,0,0,1-1.961-.883h1.633A1.3,1.3,0,0,1,43.3,35.3,2.613,2.613,0,0,1,42.5,35.433Zm-4.417-2.65a2.65,2.65,0,0,1-5.3,0v-2.65h5.3Zm-12.367-2.65h5.3v2.65a2.65,2.65,0,1,1-5.3,0Zm14.133-2.65V23.067h1.411a.87.87,0,0,0,.226.458l1.644,1.638a1.328,1.328,0,0,1,.232,1.473,1.311,1.311,0,0,1-1.191.848Zm-1.767.883h-5.3v-5.3h5.3Zm-7.067,0H25.965l1.325-5.3h3.727ZM67.233,67.233H17.767V60.167H67.233ZM39.85,58.4H31.017V42.5H39.85Zm1.767,0V41.617a.883.883,0,0,0-.883-.883h-10.6a.883.883,0,0,0-.883.883V58.4H25.717V36.295a4.357,4.357,0,0,0,6.183-.888,4.376,4.376,0,0,0,7.067,0A4.4,4.4,0,0,0,42.5,37.2c.109,0,.216-.015.324-.023l-1.336,1.331a.883.883,0,0,0,0,1.25l3.023,3.023a.876.876,0,0,0-.243.6V50.45a.883.883,0,0,0,.883.883h10.6a.883.883,0,0,0,.883-.883V46.033a.883.883,0,0,0,.883-.883V42.827a1.325,1.325,0,0,1,.879-1.2,1.389,1.389,0,0,1,.888-.058V58.4Zm4.417-14.133H50.45v.883a.883.883,0,0,0,.883.883h3.533v3.533H46.033ZM47.5,42.5l.629-.631a1.332,1.332,0,0,1,1.473-.232,1.347,1.347,0,0,1,.8.863Zm16.088-4.378L64.6,39.135l-2.5,2.5-1.014-1.017a3.167,3.167,0,0,0-5.338,2.206v1.439H52.217V42.827a3.167,3.167,0,0,0-5.339-2.206l-1.013,1.017-2.5-2.5,1.017-1.014a3.012,3.012,0,0,0,.855-2.461c0-.017,0-.033-.007-.051a3.339,3.339,0,0,0-.23-.883,3.07,3.07,0,0,0-2.825-1.944H40.733V29.25h1.439a3.167,3.167,0,0,0,2.206-5.339L43.362,22.9l2.5-2.5,1.014,1.017a3.167,3.167,0,0,0,5.338-2.206V17.767H55.75v1.439a3.167,3.167,0,0,0,5.339,2.206L62.1,20.4l2.5,2.5-1.017,1.014a3.167,3.167,0,0,0,2.206,5.338h1.439v3.533H65.794a3.167,3.167,0,0,0-2.206,5.339Z" fill="#53435c"/>
    <path id="Trazado_1011440" data-name="Trazado 1011440" d="M296.058,120h-.212a.935.935,0,1,0,1.1.972v-.088A.883.883,0,0,0,296.058,120Z" transform="translate(-248.258 -92.517)" fill="#53435c"/>
    <path id="Trazado_1011441" data-name="Trazado 1011441" d="M328.883,88.044h.088a1,1,0,1,0-.972-1.1v.212A.883.883,0,0,0,328.883,88.044Z" transform="translate(-277.55 -62.327)" fill="#53435c"/>
    <path id="Trazado_1011442" data-name="Trazado 1011442" d="M376.082,88.04h.088a.883.883,0,0,0,.883-.883v-.212a.947.947,0,1,0-.972,1.1Z" transform="translate(-319.537 -62.324)" fill="#53435c"/>
    <path id="Trazado_1011443" data-name="Trazado 1011443" d="M295.162,167.086a.935.935,0,1,0-.212,1.855h.212a.883.883,0,0,0,.883-.883v-.088A.883.883,0,0,0,295.162,167.086Z" transform="translate(-247.362 -134.391)" fill="#53435c"/>
    <path id="Trazado_1011444" data-name="Trazado 1011444" d="M329.6,200.388a.849.849,0,0,0-1.218.031.829.829,0,0,0-.157.222.883.883,0,0,0,1.288,1.208l.15-.15a.883.883,0,0,0,0-1.248Z" transform="translate(-277.552 -163.812)" fill="#53435c"/>
    <path id="Trazado_1011445" data-name="Trazado 1011445" d="M375.173,200h-.088a.992.992,0,1,0,.972,1.1v-.212A.883.883,0,0,0,375.173,200Z" transform="translate(-318.539 -163.682)" fill="#53435c"/>
    <path id="Trazado_1011446" data-name="Trazado 1011446" d="M409.692,166.9a.883.883,0,0,0-1.248,0l-.062.062a.847.847,0,0,0,.031,1.218.828.828,0,0,0,.222.157.883.883,0,0,0,1.208-1.288Z" transform="translate(-348.84 -134.006)" fill="#53435c"/>
    <path id="Trazado_1011447" data-name="Trazado 1011447" d="M409.095,120h-.212a.883.883,0,0,0-.883.883v.088a.992.992,0,1,0,1.1-.972Z" transform="translate(-348.716 -92.517)" fill="#53435c"/>
    <path id="Trazado_1011448" data-name="Trazado 1011448" d="M324.417,112a4.417,4.417,0,1,0,4.417,4.417A4.417,4.417,0,0,0,324.417,112Zm0,7.067a2.65,2.65,0,1,1,2.65-2.65A2.65,2.65,0,0,1,324.417,119.067Z" transform="translate(-270.433 -85.4)" fill="#53435c"/>
  </g>
</svg>
