<svg xmlns="http://www.w3.org/2000/svg" width="52.117" height="53" viewBox="0 0 52.117 53">
  <g id="Grupo_1184504" data-name="Grupo 1184504" transform="translate(-4)">
    <g id="Grupo_1184479" data-name="Grupo 1184479" transform="translate(4)">
      <g id="Grupo_1184478" data-name="Grupo 1184478" transform="translate(0)">
        <path id="Trazado_1011449" data-name="Trazado 1011449" d="M43.75,0H8.417A4.422,4.422,0,0,0,4,4.417V32.683a4.417,4.417,0,0,0,3.313,4.277l.442-1.71a2.65,2.65,0,0,1-1.988-2.567V4.417a2.65,2.65,0,0,1,2.65-2.65H43.75a2.65,2.65,0,0,1,2.65,2.65V5.3h1.767V4.417A4.422,4.422,0,0,0,43.75,0Z" transform="translate(-4)" fill="#53435c"/>
      </g>
    </g>
    <g id="Grupo_1184481" data-name="Grupo 1184481" transform="translate(7.533 3.533)">
      <g id="Grupo_1184480" data-name="Grupo 1184480">
        <rect id="Rectángulo_459242" data-name="Rectángulo 459242" width="1.767" height="1.767" fill="#53435c"/>
      </g>
    </g>
    <g id="Grupo_1184483" data-name="Grupo 1184483" transform="translate(11.067 3.533)">
      <g id="Grupo_1184482" data-name="Grupo 1184482">
        <rect id="Rectángulo_459243" data-name="Rectángulo 459243" width="1.767" height="1.767" fill="#53435c"/>
      </g>
    </g>
    <g id="Grupo_1184485" data-name="Grupo 1184485" transform="translate(14.6 3.533)">
      <g id="Grupo_1184484" data-name="Grupo 1184484">
        <rect id="Rectángulo_459244" data-name="Rectángulo 459244" width="1.767" height="1.767" fill="#53435c"/>
      </g>
    </g>
    <g id="Grupo_1184487" data-name="Grupo 1184487" transform="translate(12.833 14.133)">
      <g id="Grupo_1184486" data-name="Grupo 1184486" transform="translate(0)">
        <path id="Trazado_1011450" data-name="Trazado 1011450" d="M127.025,162.709l-8.378-8.378a12.217,12.217,0,0,0,1.049-2.48h1.4v-1.767h-1.025a11.9,11.9,0,0,0-.742-6.33v-8.687h-1.767v5.625a12.433,12.433,0,0,0-1.767-1.834v-7.325h-1.767v6.09a12.285,12.285,0,0,0-1.767-.844V128H110.5v8.243a12.229,12.229,0,0,0-1.767-.248v-6.228h-1.767V136a12.229,12.229,0,0,0-1.767.248V133.3h-1.767v3.479a12.291,12.291,0,0,0-1.767.844v-5.206H99.9v6.441a12.433,12.433,0,0,0-1.767,1.834v-6.508H96.367v9.57a11.9,11.9,0,0,0-.742,6.33H84v1.767H96a12.341,12.341,0,0,0,18.942,6.579l8.179,8.179a.883.883,0,0,0,1.249,0l2.65-2.65A.883.883,0,0,0,127.025,162.709Zm-19.175-3.792a10.6,10.6,0,1,1,10.6-10.6A10.611,10.611,0,0,1,107.85,158.917Zm15.9,5.818L116.32,157.3a12.513,12.513,0,0,0,1.329-1.473l7.5,7.5Z" transform="translate(-84 -128)" fill="#53435c"/>
      </g>
    </g>
    <g id="Grupo_1184489" data-name="Grupo 1184489" transform="translate(27.85 25.617)">
      <g id="Grupo_1184488" data-name="Grupo 1184488">
        <path id="Trazado_1011451" data-name="Trazado 1011451" d="M228.833,232a8.833,8.833,0,1,0,8.833,8.833A8.833,8.833,0,0,0,228.833,232Zm0,15.9a7.067,7.067,0,0,1-6.111-3.533h12.222A7.067,7.067,0,0,1,228.833,247.9ZM222,242.6a7,7,0,0,1,2.418-7.274v5.508h1.767v-6.546a7.034,7.034,0,0,1,1.767-.459v7.006h1.767v-7.006a7.034,7.034,0,0,1,1.767.459v6.546h1.767v-5.508a7,7,0,0,1,2.418,7.274Z" transform="translate(-220 -232)" fill="#53435c"/>
      </g>
    </g>
    <g id="Grupo_1184491" data-name="Grupo 1184491" transform="translate(9.3 7.067)">
      <g id="Grupo_1184490" data-name="Grupo 1184490" transform="translate(0)">
        <path id="Trazado_1011452" data-name="Trazado 1011452" d="M91.75,64H56.417A4.422,4.422,0,0,0,52,68.417V96.683a4.422,4.422,0,0,0,4.417,4.417H67.9V99.333H56.417a2.65,2.65,0,0,1-2.65-2.65V68.417a2.65,2.65,0,0,1,2.65-2.65H91.75a2.65,2.65,0,0,1,2.65,2.65V96.683a2.65,2.65,0,0,1-.663,1.753L95.063,99.6a4.411,4.411,0,0,0,1.1-2.921V68.417A4.422,4.422,0,0,0,91.75,64Z" transform="translate(-52 -64)" fill="#53435c"/>
      </g>
    </g>
    <g id="Grupo_1184493" data-name="Grupo 1184493" transform="translate(12.833 10.6)">
      <g id="Grupo_1184492" data-name="Grupo 1184492" transform="translate(0)">
        <rect id="Rectángulo_459245" data-name="Rectángulo 459245" width="1.767" height="1.767" fill="#53435c"/>
      </g>
    </g>
    <g id="Grupo_1184495" data-name="Grupo 1184495" transform="translate(16.367 10.6)">
      <g id="Grupo_1184494" data-name="Grupo 1184494" transform="translate(0)">
        <rect id="Rectángulo_459246" data-name="Rectángulo 459246" width="1.767" height="1.767" fill="#53435c"/>
      </g>
    </g>
    <g id="Grupo_1184497" data-name="Grupo 1184497" transform="translate(19.9 10.6)">
      <g id="Grupo_1184496" data-name="Grupo 1184496">
        <rect id="Rectángulo_459247" data-name="Rectángulo 459247" width="1.767" height="1.767" fill="#53435c"/>
      </g>
    </g>
    <g id="Grupo_1184499" data-name="Grupo 1184499" transform="translate(14.6 29.15)">
      <g id="Grupo_1184498" data-name="Grupo 1184498">
        <rect id="Rectángulo_459248" data-name="Rectángulo 459248" width="1.767" height="5.3" fill="#53435c"/>
      </g>
    </g>
    <g id="Grupo_1184501" data-name="Grupo 1184501" transform="translate(18.133 23.85)">
      <g id="Grupo_1184500" data-name="Grupo 1184500" transform="translate(0)">
        <rect id="Rectángulo_459249" data-name="Rectángulo 459249" width="1.767" height="10.6" fill="#53435c"/>
      </g>
    </g>
    <g id="Grupo_1184503" data-name="Grupo 1184503" transform="translate(21.667 26.5)">
      <g id="Grupo_1184502" data-name="Grupo 1184502">
        <rect id="Rectángulo_459250" data-name="Rectángulo 459250" width="1.767" height="7.95" fill="#53435c"/>
      </g>
    </g>
  </g>
</svg>
