<svg xmlns="http://www.w3.org/2000/svg" width="53" height="53" viewBox="0 0 53 53">
  <g id="Grupo_1184505" data-name="Grupo 1184505" transform="translate(0.001 -0.001)">
    <path id="Trazado_1011453" data-name="Trazado 1011453" d="M52.319,35.626,44.354,27.66a17.241,17.241,0,0,0,.691-19.889.776.776,0,1,0-1.3.854,15.7,15.7,0,1,1-2.028-2.487l.042.043a.776.776,0,0,0,1.1-1.094l-.044-.045a17.254,17.254,0,0,0-24.375,0q-.317.317-.613.645H.776A.777.777,0,0,0,0,6.463V9.9a.776.776,0,1,0,1.553,0V7.24H16.586a17.1,17.1,0,0,0-1.531,2.612H5.382a.776.776,0,1,0,0,1.553h9.03a17.2,17.2,0,0,0-.557,1.9H5.382a.776.776,0,1,0,0,1.553h8.186a17.349,17.349,0,0,0-.156,1.9H5.382a.777.777,0,0,0,0,1.553h8.056a17.253,17.253,0,0,0,1.738,6.557H13.871a.776.776,0,0,0-.776.777V48.624a.776.776,0,0,0,.776.777h6.211a.776.776,0,0,0,.776-.777V31.431A17.106,17.106,0,0,0,23.032,32.7V48.624a.777.777,0,0,0,.776.777h6.211a.776.776,0,0,0,.776-.777V34.459a17.516,17.516,0,0,0,1.812-.112V46.34a.776.776,0,1,0,1.553,0V34.1a17.119,17.119,0,0,0,6.9-3.142l7.963,7.965a2.33,2.33,0,0,0,3.3-3.294ZM19.305,47.848H14.647V26.417h1.4a17.246,17.246,0,0,0,2.4,3q.42.42.861.8Zm5.28,0V33.372A17.282,17.282,0,0,0,29.243,34.4V47.848ZM51.221,37.822a.777.777,0,0,1-1.1,0l-7.865-7.866c.19-.174.378-.352.562-.536s.362-.371.537-.562l7.864,7.866a.777.777,0,0,1,0,1.1Zm0,0" transform="translate(0)" fill="#53435c"/>
    <path id="Trazado_1011454" data-name="Trazado 1011454" d="M33.385,157.035a.776.776,0,0,0-.776.776v1.76H1.553V121.385a.776.776,0,0,0-1.553,0v38.962a.776.776,0,0,0,.776.776H33.385a.776.776,0,0,0,.776-.776v-2.537A.776.776,0,0,0,33.385,157.035Zm0,0" transform="translate(-0.001 -108.123)" fill="#53435c"/>
    <path id="Trazado_1011455" data-name="Trazado 1011455" d="M32.5,300.971v16.772a.777.777,0,0,0,.776.776h6.211a.777.777,0,0,0,.776-.776V300.971a.777.777,0,0,0-.776-.776H33.276A.777.777,0,0,0,32.5,300.971Zm1.553.777h4.659v15.219H34.053Zm0,0" transform="translate(-29.136 -269.119)" fill="#53435c"/>
    <path id="Trazado_1011456" data-name="Trazado 1011456" d="M51.082,196.733a.777.777,0,0,0,0-1.553H45.276a.777.777,0,0,0,0,1.553Zm0,0" transform="translate(-39.894 -174.975)" fill="#53435c"/>
    <path id="Trazado_1011457" data-name="Trazado 1011457" d="M173.6,29.988a14.109,14.109,0,1,0,9.992,4.133A14.034,14.034,0,0,0,173.6,29.988Zm8.893,23.021a12.6,12.6,0,1,1,3.678-8.895A12.491,12.491,0,0,1,182.494,53.009Zm0,0" transform="translate(-142.969 -26.883)" fill="#53435c"/>
  </g>
</svg>
