<svg xmlns="http://www.w3.org/2000/svg" width="47.148" height="53" viewBox="0 0 47.148 53">
  <g id="Grupo_1184506" data-name="Grupo 1184506" transform="translate(-28.266)">
    <path id="Trazado_1011458" data-name="Trazado 1011458" d="M177.624,10.11l-.644,3.755a1.538,1.538,0,0,0,2.235,1.624l3.372-1.773,3.373,1.773a1.54,1.54,0,0,0,2.235-1.624l-.644-3.755,2.728-2.66a1.54,1.54,0,0,0-.854-2.627l-3.771-.548L183.969.859a1.54,1.54,0,0,0-2.762,0L179.52,4.275l-3.771.548A1.54,1.54,0,0,0,174.9,7.45Zm2.126-4.3a1.54,1.54,0,0,0,1.16-.843l1.678-3.4,1.678,3.4a1.54,1.54,0,0,0,1.16.843l3.752.545L186.462,9a1.54,1.54,0,0,0-.443,1.363l.641,3.737L183.3,12.339a1.541,1.541,0,0,0-1.434,0L178.515,14.1l.641-3.737A1.54,1.54,0,0,0,178.713,9L176,6.356Z" transform="translate(-131.033)" fill="#53435c"/>
    <path id="Trazado_1011459" data-name="Trazado 1011459" d="M70.5,192.321H60.216v-3.538a.776.776,0,0,0-1.553,0v20.5H56.186V188.14a1.177,1.177,0,0,0,.455-1.946l-3.177-3.177a2.3,2.3,0,0,0-3.248,0l-3.177,3.177a1.177,1.177,0,0,0,.455,1.946v21.138H45.017V180.972a3.368,3.368,0,0,1,3.364-3.364H55.3a3.368,3.368,0,0,1,3.364,3.364v4.084a.776.776,0,0,0,1.553,0v-4.084a4.923,4.923,0,0,0-4.917-4.917H48.381a4.923,4.923,0,0,0-4.917,4.917V185.1H33.183a4.923,4.923,0,0,0-4.917,4.917v4.325a.776.776,0,0,0,1.553,0v-4.325a3.368,3.368,0,0,1,3.364-3.364H43.464v22.625H40.987V197.456a1.177,1.177,0,0,0,.455-1.947l-3.177-3.177a2.3,2.3,0,0,0-3.248,0l-3.177,3.177a1.177,1.177,0,0,0,.455,1.947v11.821H29.819V197.965a.776.776,0,0,0-1.553,0v12.089a.776.776,0,0,0,.776.776h45.6a.776.776,0,0,0,.776-.776V197.238a4.923,4.923,0,0,0-4.917-4.917ZM33.849,209.278V197.141a1.175,1.175,0,0,0-.489-.954l2.756-2.756a.745.745,0,0,1,1.052,0l2.756,2.756a1.176,1.176,0,0,0-.489.954v12.137Zm15.2,0V187.825a1.175,1.175,0,0,0-.489-.954l2.756-2.756a.744.744,0,0,1,1.052,0l2.756,2.756a1.175,1.175,0,0,0-.489.954v21.453Zm15.2,0v-4.89a1.175,1.175,0,0,0-.489-.954l2.756-2.756a.745.745,0,0,1,1.052,0l2.756,2.756a1.176,1.176,0,0,0-.489.954v4.89Zm9.616,0H71.384V204.7a1.177,1.177,0,0,0,.455-1.947l-3.177-3.177a2.3,2.3,0,0,0-3.248,0l-3.177,3.177a1.177,1.177,0,0,0,.455,1.947v4.575H60.215v-15.4H70.5a3.368,3.368,0,0,1,3.364,3.364v12.04Z" transform="translate(0 -157.831)" fill="#53435c"/>
  </g>
</svg>
