<svg xmlns="http://www.w3.org/2000/svg" xmlns:xlink="http://www.w3.org/1999/xlink" width="291.711" height="217.494" viewBox="0 0 291.711 217.494">
  <defs>
    <clipPath id="clip-path">
      <rect id="Rectángulo_458868" data-name="Rectángulo 458868" width="181.398" height="181.065" fill="none"/>
    </clipPath>
  </defs>
  <g id="Grupo_1182636" data-name="Grupo 1182636" transform="translate(-1122.41 -1406)">
    <rect id="Rectángulo_458088" data-name="Rectángulo 458088" width="291.711" height="217.494" rx="10" transform="translate(1122.41 1406)" fill="#ff984a"/>
    <g id="Grupo_1183533" data-name="Grupo 1183533" transform="translate(1177.567 1424.214)">
      <g id="Grupo_1183532" data-name="Grupo 1183532" clip-path="url(#clip-path)">
        <path id="Trazado_1010105" data-name="Trazado 1010105" d="M458.074,6.58V23.713a3.728,3.728,0,0,1-3.729,3.729H431.579a2.726,2.726,0,0,0-1.612.529l-6.123,4.52a1.665,1.665,0,0,1-2.652-1.339V6.58a3.728,3.728,0,0,1,3.729-3.729h29.424a3.728,3.728,0,0,1,3.729,3.729" transform="translate(-277.028 -1.875)" fill="#fff"/>
        <path id="Trazado_1010106" data-name="Trazado 1010106" d="M422.181,32.492a2.02,2.02,0,0,1-2.018-2.017V5.9a4.086,4.086,0,0,1,4.081-4.081h29.424A4.086,4.086,0,0,1,457.749,5.9V23.036a4.086,4.086,0,0,1-4.081,4.081H430.9a2.36,2.36,0,0,0-1.4.461l-.916.676L423.376,32.1a2.011,2.011,0,0,1-1.195.395m2.063-29.966A3.381,3.381,0,0,0,420.867,5.9V30.475a1.312,1.312,0,0,0,2.091,1.055l6.123-4.519a3.059,3.059,0,0,1,1.822-.6h22.765a3.381,3.381,0,0,0,3.377-3.377V5.9a3.381,3.381,0,0,0-3.377-3.377Zm4.129,25.445h0Z" transform="translate(-276.351 -1.198)" fill="#2e186b"/>
        <path id="Trazado_1010107" data-name="Trazado 1010107" d="M440.781,33.19a3.7,3.7,0,0,1-3.7-3.7.352.352,0,0,1,.7,0,2.994,2.994,0,1,0,2.994-2.994,3.7,3.7,0,1,1,3.7-3.7.352.352,0,1,1-.7,0,2.994,2.994,0,1,0-2.994,2.994,3.7,3.7,0,0,1,0,7.4" transform="translate(-287.48 -12.563)" fill="#2e186b"/>
        <path id="Trazado_1010108" data-name="Trazado 1010108" d="M447.211,31.9a.352.352,0,0,1-.352-.352V15.378a.352.352,0,1,1,.7,0V31.553a.352.352,0,0,1-.352.352" transform="translate(-293.91 -9.883)" fill="#2e186b"/>
        <path id="Trazado_1010109" data-name="Trazado 1010109" d="M484.726,20.6H470.87a.352.352,0,1,1,0-.7h13.855a.352.352,0,1,1,0,.7" transform="translate(-309.471 -13.087)" fill="#2e186b"/>
        <path id="Trazado_1010110" data-name="Trazado 1010110" d="M484.726,33.105H470.87a.352.352,0,1,1,0-.7h13.855a.352.352,0,1,1,0,.7" transform="translate(-309.471 -21.311)" fill="#2e186b"/>
        <path id="Trazado_1010111" data-name="Trazado 1010111" d="M484.726,45.61H470.87a.352.352,0,0,1,0-.7h13.855a.352.352,0,1,1,0,.7" transform="translate(-309.471 -29.536)" fill="#2e186b"/>
        <path id="Trazado_1010112" data-name="Trazado 1010112" d="M477.41,58.115h-6.54a.352.352,0,1,1,0-.7h6.54a.352.352,0,1,1,0,.7" transform="translate(-309.471 -37.761)" fill="#2e186b"/>
        <path id="Trazado_1010113" data-name="Trazado 1010113" d="M62.486,11.6V37.011a4.344,4.344,0,0,1-.344,1.693C58.577,47.266,50.477,53.121,41.034,58.2a4.323,4.323,0,0,1-4.086,0C27.518,53.121,19.421,47.266,15.856,38.7a4.345,4.345,0,0,1-.344-1.693V11.6a4.311,4.311,0,0,1,2.975-4.1L37.656,1.245a4.307,4.307,0,0,1,2.672,0L59.511,7.5a4.311,4.311,0,0,1,2.975,4.1" transform="translate(-10.203 -0.679)" fill="#2e186b"/>
        <path id="Trazado_1010114" data-name="Trazado 1010114" d="M38.315,58.386a4.665,4.665,0,0,1-2.21-.557C28.267,53.61,18.768,47.562,14.854,38.16a4.674,4.674,0,0,1-.371-1.828V10.919A4.653,4.653,0,0,1,17.7,6.483L36.869.231a4.635,4.635,0,0,1,2.891,0L58.944,6.483a4.653,4.653,0,0,1,3.218,4.436V36.332a4.674,4.674,0,0,1-.372,1.83c-3.915,9.4-13.421,15.45-21.265,19.667a4.671,4.671,0,0,1-2.21.557M38.315.7a3.957,3.957,0,0,0-1.227.2L17.919,7.153a3.95,3.95,0,0,0-2.732,3.766V36.332a3.981,3.981,0,0,0,.316,1.556c3.829,9.2,13.2,15.156,20.935,19.32a3.956,3.956,0,0,0,3.752,0C47.933,53.046,57.31,47.089,61.14,37.89a3.982,3.982,0,0,0,.317-1.558V10.919a3.95,3.95,0,0,0-2.732-3.766L39.542.9A3.955,3.955,0,0,0,38.315.7" transform="translate(-9.526 0)" fill="#2e186b"/>
        <path id="Trazado_1010115" data-name="Trazado 1010115" d="M48,11.6V37.011a4.344,4.344,0,0,1-.344,1.693C44.094,47.266,35.994,53.121,26.551,58.2a4.324,4.324,0,0,1-4.086,0C13.034,53.121,4.937,47.266,1.373,38.7a4.344,4.344,0,0,1-.344-1.693V11.6A4.31,4.31,0,0,1,4,7.5L23.172,1.245a4.307,4.307,0,0,1,2.672,0L45.028,7.5A4.31,4.31,0,0,1,48,11.6" transform="translate(-0.677 -0.679)" fill="#ff7af1"/>
        <path id="Trazado_1010116" data-name="Trazado 1010116" d="M23.831,58.386a4.665,4.665,0,0,1-2.21-.557C13.783,53.61,4.285,47.561.371,38.16A4.677,4.677,0,0,1,0,36.332V10.919A4.653,4.653,0,0,1,3.218,6.483L22.386.231a4.635,4.635,0,0,1,2.891,0L44.46,6.483a4.653,4.653,0,0,1,3.218,4.436V36.332a4.674,4.674,0,0,1-.372,1.83c-3.914,9.4-13.421,15.449-21.265,19.667a4.671,4.671,0,0,1-2.21.557M23.831.7A3.957,3.957,0,0,0,22.6.9L3.436,7.153A3.95,3.95,0,0,0,.7,10.919V36.332a3.985,3.985,0,0,0,.316,1.556c3.829,9.2,13.2,15.156,20.935,19.32a3.956,3.956,0,0,0,3.752,0C33.45,53.046,42.827,47.089,46.657,37.89a3.982,3.982,0,0,0,.317-1.558V10.919a3.95,3.95,0,0,0-2.732-3.766L25.058.9A3.955,3.955,0,0,0,23.831.7" transform="translate(0 0)" fill="#2e186b"/>
        <path id="Trazado_1010117" data-name="Trazado 1010117" d="M34.037,63.906a1.794,1.794,0,0,1-.847-.213C26.681,60.19,18.8,55.2,15.663,47.655a1.823,1.823,0,0,1-.148-.717V24.747a1.78,1.78,0,0,1,1.23-1.7l16.739-5.46a1.778,1.778,0,0,1,1.106,0l16.751,5.459a1.781,1.781,0,0,1,1.231,1.7V46.938a1.806,1.806,0,0,1-.144.708C49.282,55.2,41.4,60.191,34.883,63.694a1.8,1.8,0,0,1-.846.212" transform="translate(-10.205 -11.511)" fill="#fff"/>
        <path id="Trazado_1010118" data-name="Trazado 1010118" d="M17.854,25.308V47.5a1.8,1.8,0,0,0,.151.716c3,7.217,10.339,12.1,16.67,15.579a1.8,1.8,0,0,1-.639.117,1.78,1.78,0,0,1-.847-.214c-6.511-3.5-14.388-8.5-17.526-16.037a1.827,1.827,0,0,1-.151-.719V24.749a1.777,1.777,0,0,1,1.232-1.7l16.74-5.461a1.8,1.8,0,0,1,1.1,0l1.509.492a1.553,1.553,0,0,0-.271.067l-16.74,5.457a1.784,1.784,0,0,0-1.232,1.7" transform="translate(-10.203 -11.513)" fill="#ff7af1"/>
        <path id="Trazado_1010119" data-name="Trazado 1010119" d="M33.361,63.583a2.149,2.149,0,0,1-1.014-.254c-6.562-3.532-14.5-8.567-17.685-16.213a2.185,2.185,0,0,1-.175-.853V24.071a2.131,2.131,0,0,1,1.473-2.033l2.349-.766a.352.352,0,0,1,.218.67l-2.349.766a1.429,1.429,0,0,0-.987,1.363V46.262a1.469,1.469,0,0,0,.12.58c3.1,7.444,10.91,12.389,17.369,15.865a1.467,1.467,0,0,0,1.36,0c6.465-3.475,14.284-8.42,17.386-15.874a1.459,1.459,0,0,0,.117-.572V24.071a1.429,1.429,0,0,0-.988-1.363L33.8,17.248a1.429,1.429,0,0,0-.887,0l-9.986,3.257a.352.352,0,0,1-.218-.67L32.7,16.578a2.142,2.142,0,0,1,1.324,0l16.751,5.46a2.132,2.132,0,0,1,1.474,2.033V46.262a2.162,2.162,0,0,1-.172.845c-3.187,7.656-11.135,12.691-17.7,16.221a2.144,2.144,0,0,1-1.013.254" transform="translate(-9.528 -10.835)" fill="#2e186b"/>
        <path id="Trazado_1010120" data-name="Trazado 1010120" d="M364.906,57.011H343.785V218.192h21.121a12.442,12.442,0,0,0,12.45-12.45V69.461a12.444,12.444,0,0,0-12.45-12.45" transform="translate(-226.116 -37.498)" fill="#2e186b"/>
        <path id="Trazado_1010121" data-name="Trazado 1010121" d="M364.231,217.867H343.109a.352.352,0,0,1-.352-.352V56.334a.352.352,0,0,1,.352-.353h21.122a12.817,12.817,0,0,1,12.8,12.8V205.065a12.817,12.817,0,0,1-12.8,12.8m-20.769-.7h20.769a12.112,12.112,0,0,0,12.1-12.1V68.783a12.111,12.111,0,0,0-12.1-12.1H343.461Z" transform="translate(-225.44 -36.82)" fill="#2e186b"/>
        <rect id="Rectángulo_458867" data-name="Rectángulo 458867" width="104.903" height="123.708" transform="translate(33.959 32.825)" fill="#9654ff"/>
        <path id="Trazado_1010122" data-name="Trazado 1010122" d="M204.12,95.9v5.425H103.678V219.609H99.216V95.9Z" transform="translate(-65.257 -63.076)" fill="#fff"/>
        <path id="Trazado_1010123" data-name="Trazado 1010123" d="M204.119,69.46v2.069H99.216V69.46a12.444,12.444,0,0,1,12.45-12.45h80a12.444,12.444,0,0,1,12.45,12.45" transform="translate(-65.257 -37.497)" fill="#fff"/>
        <path id="Trazado_1010124" data-name="Trazado 1010124" d="M204.119,449.54v14.378a12.442,12.442,0,0,1-12.45,12.45h-80a12.442,12.442,0,0,1-12.45-12.45V449.54Z" transform="translate(-65.257 -295.673)" fill="#fff"/>
        <path id="Trazado_1010125" data-name="Trazado 1010125" d="M190.994,217.867H130.776a.352.352,0,1,1,0-.7h60.217a12.112,12.112,0,0,0,12.1-12.1V68.783a12.111,12.111,0,0,0-12.1-12.1h-80a12.111,12.111,0,0,0-12.1,12.1V205.065a12.112,12.112,0,0,0,12.1,12.1h11.779a.352.352,0,1,1,0,.7H110.99a12.816,12.816,0,0,1-12.8-12.8V68.783a12.816,12.816,0,0,1,12.8-12.8h80a12.817,12.817,0,0,1,12.8,12.8V205.065a12.817,12.817,0,0,1-12.8,12.8" transform="translate(-64.581 -36.82)" fill="#2e186b"/>
        <path id="Trazado_1010126" data-name="Trazado 1010126" d="M203.444,71.205H128.031a.352.352,0,0,1,0-.7h75.06V68.784a12.112,12.112,0,0,0-12.1-12.1h-80a12.112,12.112,0,0,0-12.1,12.1V70.5h19.616a.352.352,0,0,1,0,.7H98.54a.352.352,0,0,1-.352-.352V68.784a12.817,12.817,0,0,1,12.8-12.8h80a12.817,12.817,0,0,1,12.8,12.8v2.069a.352.352,0,0,1-.352.352" transform="translate(-64.581 -36.821)" fill="#2e186b"/>
        <path id="Trazado_1010127" data-name="Trazado 1010127" d="M157.1,427.962c5.338-4.841,8.54-9.411,7.388-10.831-1.341-1.653-8.073,1.587-15.035,7.237-1.479,1.2-2.848,2.412-4.077,3.594Z" transform="translate(-95.621 -274.074)" fill="#fff"/>
        <path id="Trazado_1010128" data-name="Trazado 1010128" d="M180.008,106.565c-5.416,4.755-8.691,9.272-7.562,10.71,1.315,1.674,8.1-1.457,15.149-6.995,1.5-1.176,2.886-2.366,4.134-3.527Z" transform="translate(-113.276 -70.09)" fill="#fff"/>
        <path id="Trazado_1010129" data-name="Trazado 1010129" d="M203.444,449.214H98.54a.352.352,0,1,1,0-.7h104.9a.352.352,0,1,1,0,.7" transform="translate(-64.581 -294.996)" fill="#2e186b"/>
        <path id="Trazado_1010130" data-name="Trazado 1010130" d="M240.563,77.9H217.9a.352.352,0,1,1,0-.7h22.668a.352.352,0,0,1,0,.7" transform="translate(-143.083 -50.77)" fill="#2e186b"/>
        <path id="Trazado_1010131" data-name="Trazado 1010131" d="M231.866,401.284a7.146,7.146,0,1,1,3.735-13.24.352.352,0,0,1-.369.6,6.431,6.431,0,1,0,2.964,4.3.352.352,0,1,1,.692-.13,7.153,7.153,0,0,1-7.023,8.475" transform="translate(-147.804 -254.534)" fill="#fff"/>
        <path id="Trazado_1010132" data-name="Trazado 1010132" d="M242.279,394.3a.352.352,0,0,1-.249-.1l-2.182-2.182a.352.352,0,0,1,.5-.5l1.933,1.933,8.3-8.3a.352.352,0,1,1,.5.5l-8.544,8.544a.352.352,0,0,1-.249.1" transform="translate(-157.686 -253.26)" fill="#fff"/>
        <path id="Trazado_1010133" data-name="Trazado 1010133" d="M295.693,393.542H282.232a.352.352,0,1,1,0-.7h13.461a.352.352,0,1,1,0,.7" transform="translate(-185.399 -258.379)" fill="#fff"/>
        <path id="Trazado_1010134" data-name="Trazado 1010134" d="M295.693,407.546H282.232a.352.352,0,0,1,0-.7h13.461a.352.352,0,0,1,0,.7" transform="translate(-185.399 -267.59)" fill="#fff"/>
        <path id="Trazado_1010135" data-name="Trazado 1010135" d="M288.963,421.549h-6.73a.352.352,0,1,1,0-.7h6.73a.352.352,0,1,1,0,.7" transform="translate(-185.4 -276.8)" fill="#fff"/>
        <path id="Trazado_1010136" data-name="Trazado 1010136" d="M243.848,144.965v69.289a3.876,3.876,0,0,1-3.876,3.876H229.624a3.877,3.877,0,0,1-3.88-3.876V144.965a3.879,3.879,0,0,1,3.88-3.876h10.348a3.878,3.878,0,0,1,3.876,3.876" transform="translate(-148.477 -92.798)" fill="#2e186b"/>
        <path id="Trazado_1010137" data-name="Trazado 1010137" d="M239.295,217.8H228.947a4.235,4.235,0,0,1-4.232-4.228V144.288a4.235,4.235,0,0,1,4.232-4.228h10.348a4.233,4.233,0,0,1,4.228,4.228v69.289a4.233,4.233,0,0,1-4.228,4.228m-10.348-77.04a3.53,3.53,0,0,0-3.527,3.524v69.289a3.53,3.53,0,0,0,3.527,3.524h10.348a3.528,3.528,0,0,0,3.524-3.524V144.288a3.528,3.528,0,0,0-3.524-3.524Z" transform="translate(-147.801 -92.121)" fill="#2e186b"/>
        <path id="Trazado_1010138" data-name="Trazado 1010138" d="M210.755,482.069a3.467,3.467,0,1,1-3.467-3.467,3.467,3.467,0,0,1,3.467,3.467" transform="translate(-134.059 -314.788)" fill="#2e186b"/>
        <path id="Trazado_1010139" data-name="Trazado 1010139" d="M206.612,485.211a3.819,3.819,0,1,1,3.819-3.819,3.823,3.823,0,0,1-3.819,3.819m0-6.933a3.114,3.114,0,1,0,3.115,3.114,3.118,3.118,0,0,0-3.115-3.114" transform="translate(-133.382 -314.111)" fill="#2e186b"/>
        <path id="Trazado_1010140" data-name="Trazado 1010140" d="M249.265,482.069A3.467,3.467,0,1,1,245.8,478.6a3.467,3.467,0,0,1,3.467,3.467" transform="translate(-159.388 -314.788)" fill="#2e186b"/>
        <path id="Trazado_1010141" data-name="Trazado 1010141" d="M245.122,485.211a3.819,3.819,0,1,1,3.819-3.819,3.823,3.823,0,0,1-3.819,3.819m0-6.933a3.114,3.114,0,1,0,3.114,3.114,3.118,3.118,0,0,0-3.114-3.114" transform="translate(-158.711 -314.111)" fill="#2e186b"/>
        <path id="Trazado_1010142" data-name="Trazado 1010142" d="M287.775,482.069a3.467,3.467,0,1,1-3.467-3.467,3.467,3.467,0,0,1,3.467,3.467" transform="translate(-184.717 -314.788)" fill="#2e186b"/>
        <path id="Trazado_1010143" data-name="Trazado 1010143" d="M283.633,485.211a3.819,3.819,0,1,1,3.819-3.819,3.823,3.823,0,0,1-3.819,3.819m0-6.933a3.114,3.114,0,1,0,3.114,3.114,3.118,3.118,0,0,0-3.114-3.114" transform="translate(-184.04 -314.111)" fill="#2e186b"/>
        <path id="Trazado_1010144" data-name="Trazado 1010144" d="M320.536,181.028a37.782,37.782,0,1,1-37.782-37.782,37.782,37.782,0,0,1,37.782,37.782" transform="translate(-161.125 -94.216)" fill="#fff"/>
        <path id="Trazado_1010145" data-name="Trazado 1010145" d="M347.969,143.342c.838-.056,1.676-.088,2.53-.088a37.732,37.732,0,0,1,31.218,16.5l-4.079,1.5a37.777,37.777,0,0,0-29.669-17.911" transform="translate(-228.868 -94.222)" fill="#ff7af1"/>
        <path id="Trazado_1010146" data-name="Trazado 1010146" d="M444.3,215.209a37.063,37.063,0,0,0-2.746-9.275l4.31-1.58a37.032,37.032,0,0,1,3.169,9.115Z" transform="translate(-290.421 -134.409)" fill="#ff7af1"/>
        <path id="Trazado_1010147" data-name="Trazado 1010147" d="M388.277,248.569A37.779,37.779,0,0,1,350.5,286.348c-.854,0-1.692-.032-2.53-.088a37.781,37.781,0,0,0,35.257-37.691c0-.271,0-.551-.008-.822l4.965-1.811q.1,1.3.1,2.634" transform="translate(-228.867 -161.757)" fill="#ff7af1"/>
        <path id="Trazado_1010148" data-name="Trazado 1010148" d="M282.077,218.486a38.134,38.134,0,1,1,38.134-38.134,38.177,38.177,0,0,1-38.134,38.134m0-75.564a37.429,37.429,0,1,0,37.429,37.429,37.472,37.472,0,0,0-37.429-37.429" transform="translate(-160.447 -93.54)" fill="#2e186b"/>
        <path id="Trazado_1010149" data-name="Trazado 1010149" d="M298.49,181.025a37.788,37.788,0,0,1-72.742,14.356V166.673a37.788,37.788,0,0,1,72.742,14.352" transform="translate(-148.48 -94.216)" fill="#fff"/>
        <path id="Trazado_1010150" data-name="Trazado 1010150" d="M260.029,218.484a37.678,37.678,0,0,1-17.011-4,38.166,38.166,0,0,1-18.272-19.647.35.35,0,0,1-.026-.133V166a.352.352,0,0,1,.026-.134,38.166,38.166,0,0,1,18.273-19.647,37.675,37.675,0,0,1,17.011-4,38.135,38.135,0,1,1,0,76.269m-34.605-23.85a37.464,37.464,0,0,0,17.909,19.22,36.984,36.984,0,0,0,16.7,3.926,37.43,37.43,0,1,0,0-74.86,36.98,36.98,0,0,0-16.7,3.926,37.464,37.464,0,0,0-17.909,19.22Z" transform="translate(-147.803 -93.538)" fill="#2e186b"/>
        <path id="Trazado_1010151" data-name="Trazado 1010151" d="M304.159,204.163a25.742,25.742,0,1,1-25.742-25.742,25.742,25.742,0,0,1,25.742,25.742" transform="translate(-166.191 -117.352)" fill="#fff"/>
        <path id="Trazado_1010152" data-name="Trazado 1010152" d="M259.33,205.36A25.744,25.744,0,0,0,277.2,229.873a25.741,25.741,0,1,1,9.092-50.223c-.407-.024-.814-.032-1.221-.032A25.743,25.743,0,0,0,259.33,205.36" transform="translate(-166.194 -117.352)" fill="#ff7af1"/>
        <path id="Trazado_1010153" data-name="Trazado 1010153" d="M277.74,229.581a26.094,26.094,0,0,1-19.147-43.823.352.352,0,0,1,.517.479,25.346,25.346,0,1,0,5.459-4.461.352.352,0,1,1-.366-.6,26.1,26.1,0,1,1,13.538,48.406" transform="translate(-165.514 -116.675)" fill="#2e186b"/>
        <path id="Trazado_1010154" data-name="Trazado 1010154" d="M307.724,216.754a6.243,6.243,0,0,1,4.784-1.9V212.82h1.454v2.005a7.2,7.2,0,0,1,4.676,1.8,5.824,5.824,0,0,1,1.707,4.187h-2.679a4.55,4.55,0,0,0-.627-2.005,3.519,3.519,0,0,0-3.077-1.623v7.44a18.121,18.121,0,0,1,4.822,1.867,4.851,4.851,0,0,1,2.066,4.256q0,4.072-2.648,5.786a9.9,9.9,0,0,1-4.24,1.255v2.97h-1.454v-2.97q-4.454-.291-6.046-3.153a8.517,8.517,0,0,1-.872-4.179H308.3a7.524,7.524,0,0,0,.658,3.062,4.072,4.072,0,0,0,3.521,1.944v-8.343a9.748,9.748,0,0,1-4.883-2.1,5.292,5.292,0,0,1-1.577-4.072,6.061,6.061,0,0,1,1.707-4.194m2.051,6.383a5.828,5.828,0,0,0,2.7,1.194v-7.195a3.5,3.5,0,0,0-2.855,1.225,3.982,3.982,0,0,0-.85,2.4,2.955,2.955,0,0,0,1,2.373m7.8,10.486a4.244,4.244,0,0,0,.521-2.128,3.336,3.336,0,0,0-1.409-2.908,8.972,8.972,0,0,0-2.725-1.1v8.052a4,4,0,0,0,3.613-1.913" transform="translate(-200.993 -139.977)" fill="#2e186b"/>
        <path id="Trazado_1010155" data-name="Trazado 1010155" d="M90.69,370.652H86.375a5.935,5.935,0,0,0,0-11.87H85.287a15.38,15.38,0,0,0-20.365-9.915v60.6H90.69a5.317,5.317,0,0,0,5.315-5.315V375.967a5.314,5.314,0,0,0-5.315-5.315" transform="translate(-42.701 -228.757)" fill="#2e186b"/>
        <path id="Trazado_1010156" data-name="Trazado 1010156" d="M90.013,409.144H64.245a.352.352,0,0,1-.352-.352v-60.6a.352.352,0,0,1,.223-.328,15.632,15.632,0,0,1,5.761-1.092A15.817,15.817,0,0,1,84.87,357.752H85.7a6.29,6.29,0,0,1,4.44,10.731,6.407,6.407,0,0,1-1.554,1.139h1.428a5.673,5.673,0,0,1,5.667,5.667v28.187a5.674,5.674,0,0,1-5.667,5.667m-25.416-.7H90.013a4.968,4.968,0,0,0,4.963-4.963V375.289a4.968,4.968,0,0,0-4.963-4.963H85.7a.352.352,0,1,1,0-.7,5.583,5.583,0,0,0,0-11.165H84.61a.352.352,0,0,1-.337-.252,15.106,15.106,0,0,0-14.4-10.73,14.939,14.939,0,0,0-5.28.956Z" transform="translate(-42.024 -228.079)" fill="#2e186b"/>
        <path id="Trazado_1010157" data-name="Trazado 1010157" d="M47.728,385.817a5.924,5.924,0,0,1-5.923,5.938H8.575a5.934,5.934,0,0,1,0-11.869H41.8a5.927,5.927,0,0,1,5.923,5.931" transform="translate(-1.739 -249.86)" fill="#fff"/>
        <path id="Trazado_1010158" data-name="Trazado 1010158" d="M47.729,385.813a6.134,6.134,0,0,1-.063.884,5.935,5.935,0,0,0-5.861-5.054H8.576a5.949,5.949,0,0,0-5.868,5.051,6.086,6.086,0,0,1-.063-.881,5.941,5.941,0,0,1,5.931-5.931H41.8a5.93,5.93,0,0,1,5.924,5.931" transform="translate(-1.74 -249.858)" fill="#ff7af1"/>
        <path id="Trazado_1010159" data-name="Trazado 1010159" d="M41.128,391.429H7.9A6.285,6.285,0,0,1,3.457,380.7,6.212,6.212,0,0,1,7.9,378.856h33.23a6.287,6.287,0,0,1,0,12.573M7.9,379.56a5.585,5.585,0,0,0-5.578,5.578A5.588,5.588,0,0,0,7.9,390.725h33.23a5.582,5.582,0,0,0,0-11.164Z" transform="translate(-1.062 -249.183)" fill="#2e186b"/>
        <path id="Trazado_1010160" data-name="Trazado 1010160" d="M56.673,363.164A15.365,15.365,0,1,1,41.306,347.8a15.365,15.365,0,0,1,15.367,15.364" transform="translate(-17.063 -228.757)" fill="#fff"/>
        <path id="Trazado_1010161" data-name="Trazado 1010161" d="M61.185,372.572A10.47,10.47,0,1,1,50.714,362.1a10.471,10.471,0,0,1,10.471,10.468" transform="translate(-26.471 -238.165)" fill="#fff"/>
        <path id="Trazado_1010162" data-name="Trazado 1010162" d="M42.954,373.057a10.469,10.469,0,0,0,7.268,9.968,10.468,10.468,0,1,1,3.7-20.424c-.166-.01-.331-.013-.5-.013a10.469,10.469,0,0,0-10.468,10.469" transform="translate(-26.473 -238.163)" fill="#9654ff"/>
        <path id="Trazado_1010163" data-name="Trazado 1010163" d="M50.04,382.713A10.821,10.821,0,1,1,60.86,371.893,10.833,10.833,0,0,1,50.04,382.713m0-20.937a10.116,10.116,0,1,0,10.116,10.116A10.128,10.128,0,0,0,50.04,361.776" transform="translate(-25.795 -237.486)" fill="#2e186b"/>
        <path id="Trazado_1010164" data-name="Trazado 1010164" d="M40.632,389.39a15.734,15.734,0,0,1-15.717-15.717,15.551,15.551,0,0,1,3.4-9.761.352.352,0,1,1,.552.438,14.855,14.855,0,0,0-3.245,9.323A15.013,15.013,0,0,0,50.068,385.35a.352.352,0,1,1,.443.548,15.754,15.754,0,0,1-9.879,3.493" transform="translate(-16.387 -239.267)" fill="#2e186b"/>
        <path id="Trazado_1010165" data-name="Trazado 1010165" d="M63.793,372.393a.352.352,0,0,1-.276-.572,14.852,14.852,0,0,0,3.256-9.337,15.03,15.03,0,0,0-15.013-15.012,14.849,14.849,0,0,0-9.352,3.269.352.352,0,0,1-.439-.551,15.547,15.547,0,0,1,9.792-3.422,15.735,15.735,0,0,1,15.717,15.717,15.552,15.552,0,0,1-3.409,9.776.352.352,0,0,1-.276.133" transform="translate(-27.517 -228.078)" fill="#2e186b"/>
        <path id="Trazado_1010166" data-name="Trazado 1010166" d="M62.634,377.69a2.539,2.539,0,0,1,1.945-.772v-.828h.591v.815a2.929,2.929,0,0,1,1.9.731,2.371,2.371,0,0,1,.694,1.7H66.678a1.849,1.849,0,0,0-.255-.816,1.43,1.43,0,0,0-1.251-.66v3.026a7.37,7.37,0,0,1,1.961.759,1.973,1.973,0,0,1,.84,1.731,2.588,2.588,0,0,1-1.077,2.353,4.029,4.029,0,0,1-1.724.51v1.208H64.58v-1.208a2.784,2.784,0,0,1-2.459-1.283,3.457,3.457,0,0,1-.355-1.7h1.1a3.06,3.06,0,0,0,.268,1.245,1.655,1.655,0,0,0,1.432.79V381.9a3.962,3.962,0,0,1-1.986-.853,2.152,2.152,0,0,1-.641-1.656,2.464,2.464,0,0,1,.694-1.706m.834,2.6a2.371,2.371,0,0,0,1.1.486v-2.926a1.421,1.421,0,0,0-1.161.5,1.619,1.619,0,0,0-.345.977,1.2,1.2,0,0,0,.408.965m3.172,4.264a1.726,1.726,0,0,0,.212-.865,1.356,1.356,0,0,0-.573-1.183,3.65,3.65,0,0,0-1.108-.448v3.274a1.626,1.626,0,0,0,1.469-.778" transform="translate(-40.625 -247.364)" fill="#2e186b"/>
        <path id="Trazado_1010167" data-name="Trazado 1010167" d="M51.433,408.467v28.187a5.316,5.316,0,0,1-5.316,5.316H7.96a5.316,5.316,0,0,1-5.316-5.316V397.213a5.935,5.935,0,0,0,5.931,5.938H46.117a5.316,5.316,0,0,1,5.316,5.316" transform="translate(-1.739 -261.257)" fill="#ff7af1"/>
        <path id="Trazado_1010168" data-name="Trazado 1010168" d="M4.17,439.276a5.023,5.023,0,0,0,.151,1.247,5.283,5.283,0,0,1-1.676-3.871V397.211a5.913,5.913,0,0,0,1.525,3.973Z" transform="translate(-1.74 -261.255)" fill="#fff"/>
        <path id="Trazado_1010169" data-name="Trazado 1010169" d="M54.626,415.285a5.275,5.275,0,0,0-3.638-1.444H13.445a5.934,5.934,0,0,1-5.717-4.364,5.893,5.893,0,0,0,4.192,1.74H49.462a5.312,5.312,0,0,1,5.164,4.068" transform="translate(-5.083 -269.323)" fill="#fff"/>
        <path id="Trazado_1010170" data-name="Trazado 1010170" d="M111.625,452.7V464.72H96.438a2.278,2.278,0,0,1-2.278-2.278v-7.464a2.278,2.278,0,0,1,2.278-2.278Z" transform="translate(-61.931 -297.751)" fill="#fff"/>
        <path id="Trazado_1010171" data-name="Trazado 1010171" d="M111.623,452.7v1.1H96.742a1.572,1.572,0,0,0-1.571,1.571v8.876a.812.812,0,0,0,0,.091,2.278,2.278,0,0,1-1.018-1.9v-7.463a2.28,2.28,0,0,1,2.279-2.279Z" transform="translate(-61.929 -297.75)" fill="#ff7af1"/>
        <path id="Trazado_1010172" data-name="Trazado 1010172" d="M107.155,466.118a2.149,2.149,0,1,1-2.149-2.149,2.154,2.154,0,0,1,2.149,2.149" transform="translate(-67.652 -305.164)" fill="#ff7af1"/>
        <path id="Trazado_1010173" data-name="Trazado 1010173" d="M107.153,466.117a2.062,2.062,0,0,1-.063.514,2.146,2.146,0,0,0-4.17,0,1.9,1.9,0,0,1-.067-.514,2.15,2.15,0,1,1,4.3,0" transform="translate(-67.648 -305.161)" fill="#fff"/>
        <path id="Trazado_1010174" data-name="Trazado 1010174" d="M45.441,441.645H7.283a5.674,5.674,0,0,1-5.668-5.668v-6.393a.352.352,0,0,1,.7,0v6.393a4.969,4.969,0,0,0,4.963,4.963H45.441a4.969,4.969,0,0,0,4.963-4.963V407.79a4.969,4.969,0,0,0-4.963-4.963H7.9a6.289,6.289,0,0,1-5.578-3.4v23.9a.352.352,0,1,1-.7,0v-26.8a.352.352,0,1,1,.7,0A5.588,5.588,0,0,0,7.9,402.122H45.441a5.674,5.674,0,0,1,5.668,5.668v28.187a5.674,5.674,0,0,1-5.668,5.668" transform="translate(-1.062 -260.58)" fill="#2e186b"/>
        <path id="Trazado_1010175" data-name="Trazado 1010175" d="M110.949,464.4H95.761a2.633,2.633,0,0,1-2.63-2.63V454.3a2.633,2.633,0,0,1,2.63-2.63h15.187a.352.352,0,0,1,.352.352v12.021a.352.352,0,0,1-.352.352M95.761,452.374a1.928,1.928,0,0,0-1.926,1.926v7.464a1.928,1.928,0,0,0,1.926,1.926H110.6V452.374Z" transform="translate(-61.255 -297.074)" fill="#2e186b"/>
        <path id="Trazado_1010176" data-name="Trazado 1010176" d="M104.329,467.95a2.505,2.505,0,1,1,2.5-2.509,2.508,2.508,0,0,1-2.5,2.509m0-4.306a1.8,1.8,0,1,0,1.8,1.8,1.8,1.8,0,0,0-1.8-1.8" transform="translate(-66.975 -304.487)" fill="#2e186b"/>
        <path id="Trazado_1010177" data-name="Trazado 1010177" d="M75.7,423.514c-2.17,2.446-4.308,4.092-4.776,3.677s.911-2.735,3.081-5.181,4.308-4.092,4.776-3.677-.911,2.735-3.081,5.181" transform="translate(-46.588 -275.106)" fill="#fff"/>
        <path id="Trazado_1010178" data-name="Trazado 1010178" d="M60.946,70.175l-8.23,8.235a2.544,2.544,0,0,1-3.6,0l-3.955-3.96a2.539,2.539,0,0,1,3.59-3.59l2.162,2.158,6.432-6.433a2.541,2.541,0,0,1,3.6,3.59" transform="translate(-29.216 -43.304)" fill="#2e186b"/>
        <path id="Trazado_1010179" data-name="Trazado 1010179" d="M481.813,445.678H468.277a2.537,2.537,0,0,1-2.538-2.538v-10.16a2.538,2.538,0,0,1,2.538-2.538h13.537a2.538,2.538,0,0,1,2.538,2.538v10.16a2.538,2.538,0,0,1-2.538,2.538" transform="translate(-306.328 -283.113)" fill="#fff"/>
        <path id="Trazado_1010180" data-name="Trazado 1010180" d="M484.35,432.97v1.58a2.526,2.526,0,0,0-2.526-2.526H468.263a2.525,2.525,0,0,0-2.526,2.526v-1.58a2.525,2.525,0,0,1,2.526-2.523h13.561a2.525,2.525,0,0,1,2.526,2.523" transform="translate(-306.327 -283.116)" fill="#ff7af1"/>
        <path id="Trazado_1010181" data-name="Trazado 1010181" d="M481.15,445.353H479.02a.352.352,0,0,1,0-.7h2.131a2.174,2.174,0,0,0,2.172-2.172V432.29a2.174,2.174,0,0,0-2.172-2.172H467.586a2.175,2.175,0,0,0-2.172,2.172v10.186a2.175,2.175,0,0,0,2.172,2.172h8.653a.352.352,0,0,1,0,.7h-8.653a2.88,2.88,0,0,1-2.877-2.876V432.29a2.88,2.88,0,0,1,2.877-2.876H481.15a2.88,2.88,0,0,1,2.876,2.876v10.186a2.88,2.88,0,0,1-2.876,2.876" transform="translate(-305.651 -282.436)" fill="#2e186b"/>
        <path id="Trazado_1010182" data-name="Trazado 1010182" d="M474.368,439.913a1.856,1.856,0,0,1-1.187-.428l-8.346-6.921a.352.352,0,0,1-.127-.271,2.88,2.88,0,0,1,2.879-2.875h13.561a2.88,2.88,0,0,1,2.879,2.875.352.352,0,0,1-.127.271l-8.343,6.92a1.857,1.857,0,0,1-1.187.428m-8.95-7.78,8.213,6.81a1.155,1.155,0,0,0,1.474,0l8.21-6.81a2.176,2.176,0,0,0-2.168-2.01H467.587a2.176,2.176,0,0,0-2.168,2.01m18.255.161h0Z" transform="translate(-305.65 -282.439)" fill="#2e186b"/>
        <path id="Trazado_1010183" data-name="Trazado 1010183" d="M279,10.894a.352.352,0,0,1-.253-.6l7.532-7.761a.352.352,0,0,1,.506.49l-7.532,7.761a.352.352,0,0,1-.253.107" transform="translate(-183.276 -1.597)" fill="#2e186b"/>
        <path id="Trazado_1010184" data-name="Trazado 1010184" d="M255.454,14.49a.352.352,0,0,1-.253-.6l7.532-7.761a.352.352,0,0,1,.506.49l-7.532,7.761a.351.351,0,0,1-.253.107" transform="translate(-167.787 -3.963)" fill="#2e186b"/>
        <path id="Trazado_1010185" data-name="Trazado 1010185" d="M17.957,267.857a.352.352,0,0,1-.252-.6l9.536-9.739a.352.352,0,1,1,.5.493l-9.536,9.739a.352.352,0,0,1-.252.106" transform="translate(-11.579 -169.308)" fill="#2e186b"/>
        <path id="Trazado_1010186" data-name="Trazado 1010186" d="M20.328,289.67a.352.352,0,0,1-.246-.6l5.275-5.174a.352.352,0,0,1,.493.5l-5.275,5.174a.352.352,0,0,1-.247.1" transform="translate(-13.139 -186.657)" fill="#2e186b"/>
        <path id="Trazado_1010187" data-name="Trazado 1010187" d="M474.65,364.1a.352.352,0,0,1-.249-.6l6.9-6.9a.352.352,0,0,1,.5.5l-6.9,6.9a.353.353,0,0,1-.249.1" transform="translate(-311.957 -234.475)" fill="#2e186b"/>
        <path id="Trazado_1010188" data-name="Trazado 1010188" d="M476.429,366.011a.352.352,0,0,1-.246-.6l12.377-12.072a.352.352,0,1,1,.492.5l-12.376,12.072a.352.352,0,0,1-.246.1" transform="translate(-313.127 -232.331)" fill="#2e186b"/>
      </g>
    </g>
  </g>
</svg>
