<svg xmlns="http://www.w3.org/2000/svg" xmlns:xlink="http://www.w3.org/1999/xlink" width="265" height="190" viewBox="0 0 265 190">
  <defs>
    <clipPath id="clip-path">
      <rect id="Rectángulo_458892" data-name="Rectángulo 458892" width="160.993" height="160.999" fill="none"/>
    </clipPath>
  </defs>
  <g id="Grupo_1183536" data-name="Grupo 1183536" transform="translate(-1017.711 -4126)">
    <rect id="Rectángulo_458671" data-name="Rectángulo 458671" width="265" height="190" rx="10" transform="translate(1017.711 4126)" fill="#ff984a"/>
    <g id="Grupo_1183535" data-name="Grupo 1183535" transform="translate(1069.715 4140.5)">
      <g id="Grupo_1183534" data-name="Grupo 1183534" clip-path="url(#clip-path)">
        <path id="Trazado_1010189" data-name="Trazado 1010189" d="M201.839,527.516H59.483a.313.313,0,1,1,0-.626H201.839a.313.313,0,1,1,0,.626" transform="translate(-41.16 -366.517)" fill="#2e186b"/>
        <path id="Trazado_1010190" data-name="Trazado 1010190" d="M7.83,527.516H.313a.313.313,0,1,1,0-.626H7.83a.313.313,0,1,1,0,.626" transform="translate(0 -366.517)" fill="#2e186b"/>
        <path id="Trazado_1010191" data-name="Trazado 1010191" d="M255.323,473.526a12.285,12.285,0,0,0-5.369,1.227,10.8,10.8,0,0,0-16.52-3.635,10.546,10.546,0,0,0-2.771-.363l-.065,0v15.963h37.037c.019-.281.033-.563.033-.849a12.346,12.346,0,0,0-12.344-12.344" transform="translate(-160.409 -326.033)" fill="#2e186b"/>
        <path id="Trazado_1010192" data-name="Trazado 1010192" d="M266.919,486.317H229.881a.313.313,0,0,1-.313-.313V470.041a.313.313,0,0,1,.311-.313l.068,0a10.9,10.9,0,0,1,2.7.333,11.11,11.11,0,0,1,16.736,3.565,12.521,12.521,0,0,1,5.227-1.127,12.672,12.672,0,0,1,12.657,12.657c0,.263-.01.54-.033.871a.313.313,0,0,1-.313.292m-36.724-.626h36.429c.009-.193.014-.368.014-.536a12.045,12.045,0,0,0-12.031-12.031,11.9,11.9,0,0,0-5.233,1.2.314.314,0,0,1-.418-.144,10.483,10.483,0,0,0-16.041-3.53.314.314,0,0,1-.281.06,10.188,10.188,0,0,0-2.441-.349Z" transform="translate(-159.693 -325.317)" fill="#2e186b"/>
        <path id="Trazado_1010193" data-name="Trazado 1010193" d="M280.023,82.9l-18.694,59.517v10.512H247.7V163h-6.473v47.156l6.414.35,5.291-51.213,11.851,4.867L284.467,82.9Z" transform="translate(-167.806 -57.665)" fill="#2e186b"/>
        <path id="Trazado_1010194" data-name="Trazado 1010194" d="M246.929,210.1h-.018l-6.414-.35a.313.313,0,0,1-.3-.313V162.285a.313.313,0,0,1,.313-.313h6.16V152.21a.313.313,0,0,1,.314-.313H260.3V141.7a.316.316,0,0,1,.014-.094l18.694-59.517a.313.313,0,0,1,.3-.219h4.444a.314.314,0,0,1,.3.387l-19.681,81.263a.313.313,0,0,1-.423.216l-11.463-4.708-5.248,50.8a.313.313,0,0,1-.311.281m-6.1-.96,5.82.317,5.26-50.916a.313.313,0,0,1,.431-.258l11.513,4.728,19.5-80.522h-3.816l-18.611,59.251V152.21a.313.313,0,0,1-.313.313H247.3v9.762a.313.313,0,0,1-.313.313h-6.16Z" transform="translate(-167.09 -56.949)" fill="#2e186b"/>
        <path id="Trazado_1010195" data-name="Trazado 1010195" d="M350.861,1.03,328.006,25.948l28.569,2.857Z" transform="translate(-228.168 -0.716)" fill="#2e186b"/>
        <path id="Trazado_1010196" data-name="Trazado 1010196" d="M355.859,28.4l-.031,0-28.569-2.857a.313.313,0,0,1-.2-.523L349.915.1a.314.314,0,0,1,.538.149l5.714,27.776a.313.313,0,0,1-.307.376m-27.915-3.42,27.523,2.752L349.962.977Z" transform="translate(-227.453 0)" fill="#2e186b"/>
        <path id="Trazado_1010197" data-name="Trazado 1010197" d="M161.794,337.828a.313.313,0,0,1-.263-.483c3.123-4.835,6.667-7.4,10.534-7.637,6.017-.364,10.572,5.029,10.763,5.258a.313.313,0,0,1-.482.4c-.045-.054-4.55-5.382-10.248-5.033-3.656.221-7.034,2.694-10.042,7.351a.312.312,0,0,1-.263.143" transform="translate(-112.33 -229.341)" fill="#2e186b"/>
        <path id="Trazado_1010198" data-name="Trazado 1010198" d="M151.506,351.623a11.273,11.273,0,0,0-2.894-.143L144.756,372.9a11.256,11.256,0,1,0,6.75-21.28" transform="translate(-100.696 -244.473)" fill="#2e186b"/>
        <path id="Trazado_1010199" data-name="Trazado 1010199" d="M148.8,373.556a11.633,11.633,0,0,1-4.894-1.083.314.314,0,0,1-.177-.339l3.857-21.424a.313.313,0,0,1,.283-.257,11.639,11.639,0,0,1,2.974.147,11.569,11.569,0,0,1-2.044,22.956M144.391,372a10.946,10.946,0,0,0,15.173-8.079,10.941,10.941,0,0,0-8.83-12.708,11,11,0,0,0-2.574-.156Z" transform="translate(-99.979 -243.758)" fill="#2e186b"/>
        <path id="Trazado_1010200" data-name="Trazado 1010200" d="M138.458,363.383a11.255,11.255,0,1,1-9.083-13.071,11.255,11.255,0,0,1,9.083,13.071" transform="translate(-80.778 -243.56)" fill="#fff"/>
        <path id="Trazado_1010201" data-name="Trazado 1010201" d="M143.127,370.946a7.669,7.669,0,1,1-6.189-8.906,7.669,7.669,0,0,1,6.189,8.906" transform="translate(-88.977 -251.758)" fill="#fff"/>
        <path id="Trazado_1010202" data-name="Trazado 1010202" d="M129.92,368.932a7.669,7.669,0,0,0,3.946,8.13,7.668,7.668,0,1,1,5.316-14.245c-.118-.029-.237-.052-.356-.074a7.669,7.669,0,0,0-8.906,6.189" transform="translate(-88.978 -251.759)" fill="#9654ff"/>
        <path id="Trazado_1010203" data-name="Trazado 1010203" d="M134.879,376.857a8.085,8.085,0,0,1-1.431-.128,7.95,7.95,0,1,1,1.431.128m-.02-15.34a7.36,7.36,0,1,0,1.307.117,7.367,7.367,0,0,0-1.307-.117m7.551,8.715h0Z" transform="translate(-88.259 -251.044)" fill="#2e186b"/>
        <path id="Trazado_1010204" data-name="Trazado 1010204" d="M126.66,378.674a11.568,11.568,0,0,1-7.644-20.245.313.313,0,0,1,.414.47,10.826,10.826,0,0,0-3.532,6.269,10.943,10.943,0,0,0,16.03,11.533.313.313,0,0,1,.3.549,11.587,11.587,0,0,1-5.57,1.424" transform="translate(-80.064 -249.277)" fill="#2e186b"/>
        <path id="Trazado_1010205" data-name="Trazado 1010205" d="M147.62,369.432a.313.313,0,0,1-.207-.548,10.826,10.826,0,0,0,3.541-6.277,10.954,10.954,0,0,0-8.83-12.708,10.825,10.825,0,0,0-7.132,1.137.313.313,0,1,1-.3-.551,11.444,11.444,0,0,1,7.54-1.2,11.582,11.582,0,0,1,9.336,13.435,11.45,11.45,0,0,1-3.744,6.637.315.315,0,0,1-.207.078" transform="translate(-93.583 -242.839)" fill="#2e186b"/>
        <path id="Trazado_1010206" data-name="Trazado 1010206" d="M146.33,374.439a1.86,1.86,0,0,1,1.5-.3l.107-.6.426.077-.106.588a2.148,2.148,0,0,1,1.276.774,1.738,1.738,0,0,1,.279,1.318l-.786-.141a1.355,1.355,0,0,0-.078-.621,1.048,1.048,0,0,0-.816-.638l-.393,2.181a5.405,5.405,0,0,1,1.315.8,1.445,1.445,0,0,1,.381,1.357,1.9,1.9,0,0,1-1.082,1.557,2.951,2.951,0,0,1-1.309.144l-.157.871-.426-.077.157-.871a2.041,2.041,0,0,1-1.606-1.244,2.537,2.537,0,0,1-.035-1.271l.794.143a2.236,2.236,0,0,0,.031.932,1.212,1.212,0,0,0,.93.756l.44-2.446a2.9,2.9,0,0,1-1.321-.873,1.576,1.576,0,0,1-.247-1.277,1.805,1.805,0,0,1,.722-1.14m.265,1.98a1.735,1.735,0,0,0,.729.492l.38-2.109a1.042,1.042,0,0,0-.9.208,1.186,1.186,0,0,0-.376.66.882.882,0,0,0,.169.749m1.733,3.486a1.266,1.266,0,0,0,.265-.6.994.994,0,0,0-.259-.927,2.672,2.672,0,0,0-.741-.467l-.425,2.361a1.192,1.192,0,0,0,1.16-.37" transform="translate(-100.809 -259.842)" fill="#9654ff"/>
        <path id="Trazado_1010207" data-name="Trazado 1010207" d="M347.182,208.255a.314.314,0,0,1-.286-.184c-5.947-13.125-17.477-8.979-17.592-8.936a.313.313,0,0,1-.22-.587c.122-.045,12.2-4.389,18.383,9.264a.312.312,0,0,1-.156.415.308.308,0,0,1-.129.028" transform="translate(-228.777 -137.634)" fill="#2e186b"/>
        <path id="Trazado_1010208" data-name="Trazado 1010208" d="M317.391,319.927a.314.314,0,0,1-.3-.24c-1.571-6.578-4.38-11.039-8.349-13.262a12.725,12.725,0,0,0-9.343-1.115.313.313,0,0,1-.2-.6,13.125,13.125,0,0,1,9.834,1.158c4.133,2.31,7.047,6.908,8.662,13.669a.313.313,0,0,1-.232.377.318.318,0,0,1-.073.009" transform="translate(-207.981 -211.637)" fill="#2e186b"/>
        <path id="Trazado_1010209" data-name="Trazado 1010209" d="M281.737,113.368a.313.313,0,0,1-.263-.483c3.123-4.835,6.667-7.4,10.534-7.637,6.02-.364,10.573,5.029,10.763,5.258a.313.313,0,0,1-.482.4c-.045-.054-4.551-5.381-10.248-5.033-3.656.221-7.034,2.694-10.042,7.351a.313.313,0,0,1-.263.143" transform="translate(-195.765 -73.201)" fill="#2e186b"/>
        <path id="Trazado_1010210" data-name="Trazado 1010210" d="M164.741,478.654c.019-.281.032-.563.032-.849a12.347,12.347,0,0,0-17.713-11.117,10.8,10.8,0,0,0-16.52-3.635,10.546,10.546,0,0,0-2.771-.363,10.739,10.739,0,0,0-4.137.82,12.561,12.561,0,0,0-23.473,5.124,10.152,10.152,0,0,0-1.31-.084,10.79,10.79,0,0,0-10.765,10.1Z" transform="translate(-61.273 -317.967)" fill="#9654ff"/>
        <path id="Trazado_1010211" data-name="Trazado 1010211" d="M164.773,477.8c0,.288-.011.569-.032.85h-.074a12.343,12.343,0,0,0-17.608-9.506,10.794,10.794,0,0,0-16.519-3.635,10.447,10.447,0,0,0-2.771-.365,10.736,10.736,0,0,0-4.137.822,12.561,12.561,0,0,0-23.473,5.124,10.026,10.026,0,0,0-1.31-.085,10.784,10.784,0,0,0-10.318,7.645h-.446a10.786,10.786,0,0,1,10.764-10.1,10.026,10.026,0,0,1,1.31.084,12.561,12.561,0,0,1,23.473-5.124,10.731,10.731,0,0,1,4.137-.822,10.445,10.445,0,0,1,2.771.365,10.793,10.793,0,0,1,16.519,3.635A12.344,12.344,0,0,1,164.773,477.8" transform="translate(-61.275 -317.967)" fill="#fff"/>
        <path id="Trazado_1010212" data-name="Trazado 1010212" d="M164.025,478.251H87.368a.313.313,0,0,1-.313-.333,11.125,11.125,0,0,1,11.077-10.4c.345,0,.69.017,1.028.05a12.875,12.875,0,0,1,23.89-5.169,11.027,11.027,0,0,1,4-.741,10.9,10.9,0,0,1,2.7.333,11.11,11.11,0,0,1,16.736,3.565,12.52,12.52,0,0,1,5.227-1.127,12.672,12.672,0,0,1,12.657,12.658c0,.264-.01.541-.033.87a.313.313,0,0,1-.312.292m-76.318-.626H163.73c.009-.193.014-.367.014-.536a12.045,12.045,0,0,0-12.031-12.031,11.9,11.9,0,0,0-5.233,1.2.314.314,0,0,1-.418-.144,10.483,10.483,0,0,0-16.041-3.53.315.315,0,0,1-.281.06,10.237,10.237,0,0,0-2.689-.352,10.391,10.391,0,0,0-4.017.8.313.313,0,0,1-.394-.136,12.249,12.249,0,0,0-22.888,5,.313.313,0,0,1-.352.286,9.93,9.93,0,0,0-1.27-.081,10.5,10.5,0,0,0-10.425,9.478" transform="translate(-60.557 -317.252)" fill="#2e186b"/>
        <path id="Trazado_1010213" data-name="Trazado 1010213" d="M233.576,82.9l-19.681,81.263-11.851-4.867-5.291,51.213-23.278-1.27,20.739-65.18,14.179,4.867L229.132,82.9Z" transform="translate(-120.673 -57.665)" fill="#ff7af1"/>
        <path id="Trazado_1010214" data-name="Trazado 1010214" d="M233.578,82.893l-.228.938h-2.111L210.5,149.857l-14.181-4.868L175.84,209.364l-2.363-.13,20.737-65.179,14.181,4.867,20.737-66.029Z" transform="translate(-120.675 -57.663)" fill="#fff"/>
        <path id="Trazado_1010215" data-name="Trazado 1010215" d="M196.037,210.1h-.017l-23.279-1.27a.313.313,0,0,1-.282-.408l20.739-65.18a.313.313,0,0,1,.4-.2l13.874,4.763,20.643-65.72a.313.313,0,0,1,.3-.219h4.444a.312.312,0,0,1,.3.387l-19.681,81.263a.313.313,0,0,1-.423.216L201.6,159.027l-5.248,50.8a.313.313,0,0,1-.311.281m-22.858-1.874,22.577,1.232,5.26-50.916a.313.313,0,0,1,.43-.258l11.514,4.728,19.5-80.522h-3.816L207.975,148.3a.312.312,0,0,1-.157.186.316.316,0,0,1-.243.017L193.7,143.741Z" transform="translate(-119.957 -56.95)" fill="#2e186b"/>
        <path id="Trazado_1010216" data-name="Trazado 1010216" d="M195.61,487.364a8.264,8.264,0,0,0-7.9-.394,7.22,7.22,0,0,0-11.048-2.431,7.05,7.05,0,0,0-1.853-.242,7.184,7.184,0,0,0-2.766.548,8.4,8.4,0,0,0-15.7,3.427" transform="translate(-108.757 -334.287)" fill="#9654ff"/>
        <path id="Trazado_1010217" data-name="Trazado 1010217" d="M155.628,487.869H155.6a.313.313,0,0,1-.287-.337,8.714,8.714,0,0,1,16.145-3.792,7.564,7.564,0,0,1,4.411-.258,7.533,7.533,0,0,1,11.262,2.363,8.582,8.582,0,0,1,7.924.537.313.313,0,1,1-.327.534,7.951,7.951,0,0,0-7.6-.379.314.314,0,0,1-.418-.144,6.906,6.906,0,0,0-10.568-2.326.314.314,0,0,1-.28.06,6.735,6.735,0,0,0-1.771-.232,6.846,6.846,0,0,0-2.646.524.313.313,0,0,1-.394-.136,8.087,8.087,0,0,0-15.112,3.3.313.313,0,0,1-.312.288" transform="translate(-108.041 -333.571)" fill="#2e186b"/>
        <path id="Trazado_1010218" data-name="Trazado 1010218" d="M338.512,1.03,315.657,25.948l28.569,2.857Z" transform="translate(-219.579 -0.716)" fill="#ff7af1"/>
        <path id="Trazado_1010219" data-name="Trazado 1010219" d="M339.034,3.583l-20.758,22.63-2.62-.263L338.51,1.033Z" transform="translate(-219.577 -0.718)" fill="#fff"/>
        <path id="Trazado_1010220" data-name="Trazado 1010220" d="M343.511,28.4l-.031,0L314.91,25.544a.313.313,0,0,1-.2-.523L337.566.1a.314.314,0,0,1,.538.149l5.714,27.776a.313.313,0,0,1-.307.376M315.6,24.983l27.523,2.752L337.613.977Z" transform="translate(-218.863 0)" fill="#2e186b"/>
        <path id="Trazado_1010221" data-name="Trazado 1010221" d="M360.25,344.4a12.641,12.641,0,0,0-3.226.417v24.44A12.638,12.638,0,1,0,360.25,344.4" transform="translate(-248.354 -239.57)" fill="#2e186b"/>
        <path id="Trazado_1010222" data-name="Trazado 1010222" d="M359.534,369.268a13,13,0,0,1-3.306-.427.313.313,0,0,1-.233-.3V344.1a.313.313,0,0,1,.233-.3,12.951,12.951,0,1,1,3.306,25.473m-2.913-.974a12.324,12.324,0,1,0,0-23.952Z" transform="translate(-247.639 -238.854)" fill="#2e186b"/>
        <path id="Trazado_1010223" data-name="Trazado 1010223" d="M343.082,357.033A12.637,12.637,0,1,1,330.444,344.4a12.637,12.637,0,0,1,12.637,12.637" transform="translate(-221.074 -239.57)" fill="#fff"/>
        <path id="Trazado_1010224" data-name="Trazado 1010224" d="M348.257,366.236a8.61,8.61,0,1,1-8.61-8.61,8.61,8.61,0,0,1,8.61,8.61" transform="translate(-230.277 -248.773)" fill="#fff"/>
        <path id="Trazado_1010225" data-name="Trazado 1010225" d="M333.264,366.637a8.611,8.611,0,0,0,5.978,8.2,8.61,8.61,0,1,1,3.041-16.8c-.136-.008-.272-.011-.409-.011a8.611,8.611,0,0,0-8.61,8.61" transform="translate(-230.279 -248.773)" fill="#9654ff"/>
        <path id="Trazado_1010226" data-name="Trazado 1010226" d="M338.932,374.444a8.923,8.923,0,1,1,8.923-8.923,8.933,8.933,0,0,1-8.923,8.923m0-17.22a8.3,8.3,0,1,0,8.3,8.3,8.306,8.306,0,0,0-8.3-8.3" transform="translate(-229.562 -248.057)" fill="#2e186b"/>
        <path id="Trazado_1010227" data-name="Trazado 1010227" d="M329.729,380.213a12.965,12.965,0,0,1-12.95-12.95,12.814,12.814,0,0,1,2.8-8.043.313.313,0,0,1,.491.39,12.193,12.193,0,0,0-2.664,7.653,12.324,12.324,0,0,0,20.07,9.585.313.313,0,0,1,.394.487,12.981,12.981,0,0,1-8.141,2.878" transform="translate(-220.359 -249.799)" fill="#2e186b"/>
        <path id="Trazado_1010228" data-name="Trazado 1010228" d="M350.512,364.49a.313.313,0,0,1-.245-.508,12.192,12.192,0,0,0,2.673-7.664,12.338,12.338,0,0,0-12.324-12.325,12.193,12.193,0,0,0-7.678,2.683.313.313,0,0,1-.391-.489,12.812,12.812,0,0,1,8.069-2.82,12.965,12.965,0,0,1,12.95,12.951,12.814,12.814,0,0,1-2.809,8.055.314.314,0,0,1-.245.118" transform="translate(-231.246 -238.854)" fill="#2e186b"/>
        <path id="Trazado_1010229" data-name="Trazado 1010229" d="M351.653,371.88a2.089,2.089,0,0,1,1.6-.635v-.681h.486v.671a2.408,2.408,0,0,1,1.564.6,1.949,1.949,0,0,1,.571,1.4h-.9a1.528,1.528,0,0,0-.21-.671,1.177,1.177,0,0,0-1.029-.543v2.489a6.059,6.059,0,0,1,1.613.625,1.622,1.622,0,0,1,.691,1.423,2.129,2.129,0,0,1-.886,1.936,3.317,3.317,0,0,1-1.418.42v.993h-.486v-.993a2.291,2.291,0,0,1-2.023-1.055,2.848,2.848,0,0,1-.292-1.4h.906a2.517,2.517,0,0,0,.22,1.024,1.362,1.362,0,0,0,1.178.65v-2.79a3.26,3.26,0,0,1-1.633-.7,1.771,1.771,0,0,1-.527-1.362,2.028,2.028,0,0,1,.571-1.4m.686,2.135a1.95,1.95,0,0,0,.9.4v-2.406a1.169,1.169,0,0,0-.955.41,1.333,1.333,0,0,0-.284.8.989.989,0,0,0,.335.794m2.609,3.507a1.419,1.419,0,0,0,.174-.712,1.115,1.115,0,0,0-.471-.973,3,3,0,0,0-.911-.369v2.693a1.338,1.338,0,0,0,1.208-.64" transform="translate(-244.121 -257.773)" fill="#9654ff"/>
        <path id="Trazado_1010230" data-name="Trazado 1010230" d="M391.951,222.26a12.64,12.64,0,0,0-3.226.417v24.44a12.638,12.638,0,1,0,3.226-24.857" transform="translate(-270.406 -154.609)" fill="#2e186b"/>
        <path id="Trazado_1010231" data-name="Trazado 1010231" d="M391.235,247.131a13,13,0,0,1-3.306-.427.313.313,0,0,1-.233-.3V221.96a.313.313,0,0,1,.233-.3,12.951,12.951,0,1,1,3.306,25.473m-2.913-.974a12.324,12.324,0,1,0,0-23.952Z" transform="translate(-269.691 -153.893)" fill="#2e186b"/>
        <path id="Trazado_1010232" data-name="Trazado 1010232" d="M374.782,234.9a12.637,12.637,0,1,1-12.637-12.637A12.637,12.637,0,0,1,374.782,234.9" transform="translate(-243.126 -154.609)" fill="#fff"/>
        <path id="Trazado_1010233" data-name="Trazado 1010233" d="M379.958,244.1a8.61,8.61,0,1,1-8.61-8.61,8.61,8.61,0,0,1,8.61,8.61" transform="translate(-252.329 -163.812)" fill="#fff"/>
        <path id="Trazado_1010234" data-name="Trazado 1010234" d="M364.965,244.5a8.611,8.611,0,0,0,5.978,8.2,8.61,8.61,0,1,1,3.041-16.8c-.136-.008-.272-.011-.408-.011a8.611,8.611,0,0,0-8.61,8.61" transform="translate(-252.331 -163.812)" fill="#9654ff"/>
        <path id="Trazado_1010235" data-name="Trazado 1010235" d="M370.632,252.308a8.923,8.923,0,1,1,8.923-8.923,8.933,8.933,0,0,1-8.923,8.923m0-17.22a8.3,8.3,0,1,0,8.3,8.3,8.306,8.306,0,0,0-8.3-8.3" transform="translate(-251.613 -163.097)" fill="#2e186b"/>
        <path id="Trazado_1010236" data-name="Trazado 1010236" d="M361.429,258.077a12.965,12.965,0,0,1-12.95-12.95,12.814,12.814,0,0,1,2.8-8.043.313.313,0,0,1,.491.39,12.193,12.193,0,0,0-2.664,7.653,12.324,12.324,0,0,0,20.07,9.585.313.313,0,1,1,.394.487,12.979,12.979,0,0,1-8.14,2.878" transform="translate(-242.41 -164.839)" fill="#2e186b"/>
        <path id="Trazado_1010237" data-name="Trazado 1010237" d="M382.213,242.354a.313.313,0,0,1-.245-.508,12.193,12.193,0,0,0,2.673-7.665,12.338,12.338,0,0,0-12.324-12.324,12.192,12.192,0,0,0-7.678,2.683.313.313,0,1,1-.391-.49,12.813,12.813,0,0,1,8.068-2.82,12.965,12.965,0,0,1,12.95,12.951,12.813,12.813,0,0,1-2.809,8.055.313.313,0,0,1-.245.118" transform="translate(-253.297 -153.893)" fill="#2e186b"/>
        <path id="Trazado_1010238" data-name="Trazado 1010238" d="M383.354,249.744a2.089,2.089,0,0,1,1.6-.635v-.681h.486v.671a2.408,2.408,0,0,1,1.564.6,1.949,1.949,0,0,1,.571,1.4h-.9a1.528,1.528,0,0,0-.21-.671,1.177,1.177,0,0,0-1.029-.543v2.489a6.062,6.062,0,0,1,1.613.625,1.622,1.622,0,0,1,.691,1.423,2.129,2.129,0,0,1-.886,1.936,3.313,3.313,0,0,1-1.418.42v.993h-.486v-.993a2.291,2.291,0,0,1-2.023-1.055,2.847,2.847,0,0,1-.292-1.4h.906a2.517,2.517,0,0,0,.22,1.024,1.362,1.362,0,0,0,1.178.65V253.21a3.26,3.26,0,0,1-1.633-.7,1.771,1.771,0,0,1-.527-1.362,2.028,2.028,0,0,1,.571-1.4m.686,2.135a1.951,1.951,0,0,0,.9.4v-2.406a1.17,1.17,0,0,0-.955.409,1.334,1.334,0,0,0-.284.8.989.989,0,0,0,.335.794m2.609,3.507a1.42,1.42,0,0,0,.174-.712,1.115,1.115,0,0,0-.471-.973,3,3,0,0,0-.911-.369v2.693a1.338,1.338,0,0,0,1.208-.64" transform="translate(-266.173 -172.812)" fill="#9654ff"/>
        <path id="Trazado_1010239" data-name="Trazado 1010239" d="M271.449,127.164a11.273,11.273,0,0,0-2.894-.143L264.7,148.444a11.256,11.256,0,1,0,6.75-21.28" transform="translate(-184.131 -88.334)" fill="#2e186b"/>
        <path id="Trazado_1010240" data-name="Trazado 1010240" d="M268.744,149.1a11.633,11.633,0,0,1-4.894-1.083.314.314,0,0,1-.176-.339l3.857-21.424a.313.313,0,0,1,.283-.257,11.57,11.57,0,1,1,.93,23.1m-4.41-1.552a10.947,10.947,0,0,0,15.174-8.079,10.942,10.942,0,0,0-8.831-12.708,11,11,0,0,0-2.573-.156Z" transform="translate(-183.414 -87.618)" fill="#2e186b"/>
        <path id="Trazado_1010241" data-name="Trazado 1010241" d="M258.4,138.923a11.255,11.255,0,1,1-9.083-13.071,11.255,11.255,0,0,1,9.083,13.071" transform="translate(-164.213 -87.42)" fill="#fff"/>
        <path id="Trazado_1010242" data-name="Trazado 1010242" d="M263.069,146.487a7.669,7.669,0,1,1-6.189-8.906,7.669,7.669,0,0,1,6.189,8.906" transform="translate(-172.411 -95.619)" fill="#fff"/>
        <path id="Trazado_1010243" data-name="Trazado 1010243" d="M249.863,144.472a7.669,7.669,0,0,0,3.946,8.13,7.668,7.668,0,1,1,5.316-14.245c-.118-.029-.237-.052-.356-.074a7.669,7.669,0,0,0-8.906,6.189" transform="translate(-172.413 -95.619)" fill="#9654ff"/>
        <path id="Trazado_1010244" data-name="Trazado 1010244" d="M254.821,152.394a8.062,8.062,0,0,1-1.431-.128,7.945,7.945,0,1,1,1.431.128m-.033-15.341a7.366,7.366,0,1,0,1.319.118,7.449,7.449,0,0,0-1.319-.118" transform="translate(-171.693 -94.901)" fill="#2e186b"/>
        <path id="Trazado_1010245" data-name="Trazado 1010245" d="M246.6,154.214a11.569,11.569,0,0,1-7.645-20.245.313.313,0,0,1,.414.47,10.942,10.942,0,0,0,5.3,18.976,10.964,10.964,0,0,0,7.2-1.174.313.313,0,0,1,.3.549,11.587,11.587,0,0,1-5.569,1.424" transform="translate(-163.495 -93.137)" fill="#2e186b"/>
        <path id="Trazado_1010246" data-name="Trazado 1010246" d="M267.562,144.972a.313.313,0,0,1-.207-.548,10.824,10.824,0,0,0,3.541-6.277,10.954,10.954,0,0,0-8.83-12.707,10.821,10.821,0,0,0-7.131,1.137.313.313,0,0,1-.3-.551,11.442,11.442,0,0,1,7.54-1.2,11.582,11.582,0,0,1,9.336,13.435,11.445,11.445,0,0,1-3.744,6.637.312.312,0,0,1-.207.078" transform="translate(-177.018 -86.699)" fill="#2e186b"/>
        <path id="Trazado_1010247" data-name="Trazado 1010247" d="M266.273,149.979a1.861,1.861,0,0,1,1.5-.3l.107-.6.426.077-.106.588a2.147,2.147,0,0,1,1.276.774,1.737,1.737,0,0,1,.279,1.317l-.786-.141a1.356,1.356,0,0,0-.078-.621,1.048,1.048,0,0,0-.816-.638l-.393,2.181a5.406,5.406,0,0,1,1.315.8,1.445,1.445,0,0,1,.381,1.357,1.9,1.9,0,0,1-1.082,1.557,2.946,2.946,0,0,1-1.309.144l-.157.871-.426-.077.157-.871a2.039,2.039,0,0,1-1.606-1.244,2.533,2.533,0,0,1-.035-1.271l.794.143a2.236,2.236,0,0,0,.031.932,1.213,1.213,0,0,0,.93.756l.44-2.446a2.9,2.9,0,0,1-1.321-.873,1.576,1.576,0,0,1-.247-1.277,1.806,1.806,0,0,1,.722-1.14m.265,1.98a1.735,1.735,0,0,0,.729.492l.38-2.109a1.042,1.042,0,0,0-.9.208,1.186,1.186,0,0,0-.376.66.882.882,0,0,0,.169.749m1.733,3.486a1.263,1.263,0,0,0,.265-.6.994.994,0,0,0-.259-.927,2.672,2.672,0,0,0-.741-.467l-.425,2.361a1.192,1.192,0,0,0,1.16-.37" transform="translate(-184.244 -103.702)" fill="#9654ff"/>
        <rect id="Rectángulo_458869" data-name="Rectángulo 458869" width="14.352" height="7.588" transform="translate(144.444 153.098)" fill="#2e186b"/>
        <path id="Trazado_1010248" data-name="Trazado 1010248" d="M488.195,510.175H473.842a.313.313,0,0,1-.313-.313v-7.587a.313.313,0,0,1,.313-.313h14.353a.313.313,0,0,1,.313.313v7.587a.313.313,0,0,1-.313.313m-14.039-.626h13.726v-6.961H474.155Z" transform="translate(-329.398 -349.176)" fill="#2e186b"/>
        <rect id="Rectángulo_458870" data-name="Rectángulo 458870" width="8.96" height="7.588" transform="translate(144.444 145.515)" fill="#2e186b"/>
        <path id="Trazado_1010249" data-name="Trazado 1010249" d="M482.8,485.261h-8.96a.313.313,0,0,1-.313-.313V477.36a.313.313,0,0,1,.313-.313h8.96a.313.313,0,0,1,.313.313v7.588a.313.313,0,0,1-.313.313m-8.646-.626h8.333v-6.962h-8.333Z" transform="translate(-329.398 -331.845)" fill="#2e186b"/>
        <rect id="Rectángulo_458871" data-name="Rectángulo 458871" width="11.939" height="7.588" transform="translate(144.444 137.932)" fill="#2e186b"/>
        <path id="Trazado_1010250" data-name="Trazado 1010250" d="M485.781,460.349H473.842a.313.313,0,0,1-.313-.313v-7.588a.313.313,0,0,1,.313-.313h11.939a.313.313,0,0,1,.313.313v7.588a.313.313,0,0,1-.313.313m-11.625-.626h11.312V452.76H474.155Z" transform="translate(-329.398 -314.515)" fill="#2e186b"/>
        <rect id="Rectángulo_458872" data-name="Rectángulo 458872" width="36.38" height="7.588" transform="translate(118.99 153.098)" fill="#9654ff"/>
        <rect id="Rectángulo_458873" data-name="Rectángulo 458873" width="3.042" height="7.588" transform="translate(123.695 153.098)" fill="#fff"/>
        <rect id="Rectángulo_458874" data-name="Rectángulo 458874" width="5.761" height="7.588" transform="translate(129.594 153.098)" fill="#fff"/>
        <rect id="Rectángulo_458875" data-name="Rectángulo 458875" width="36.38" height="1.207" transform="translate(118.99 153.098)" fill="#fff"/>
        <path id="Trazado_1010251" data-name="Trazado 1010251" d="M426.592,510.175h-36.38a.313.313,0,0,1-.313-.313v-7.588a.313.313,0,0,1,.313-.313h36.38a.313.313,0,0,1,.313.313v7.588a.313.313,0,0,1-.313.313m-36.067-.626h35.754v-6.961H390.525Z" transform="translate(-271.223 -349.176)" fill="#2e186b"/>
        <rect id="Rectángulo_458876" data-name="Rectángulo 458876" width="36.38" height="7.588" transform="translate(113.597 145.515)" fill="#9654ff"/>
        <rect id="Rectángulo_458877" data-name="Rectángulo 458877" width="36.38" height="1.207" transform="translate(113.597 145.515)" fill="#fff"/>
        <rect id="Rectángulo_458878" data-name="Rectángulo 458878" width="3.042" height="7.588" transform="translate(118.302 145.515)" fill="#fff"/>
        <rect id="Rectángulo_458879" data-name="Rectángulo 458879" width="5.761" height="7.588" transform="translate(124.201 145.515)" fill="#fff"/>
        <path id="Trazado_1010252" data-name="Trazado 1010252" d="M408.876,485.261H372.5a.313.313,0,0,1-.313-.313V477.36a.313.313,0,0,1,.313-.313h36.38a.313.313,0,0,1,.313.313v7.588a.313.313,0,0,1-.313.313m-36.066-.626h35.754v-6.962H372.809Z" transform="translate(-258.899 -331.845)" fill="#2e186b"/>
        <rect id="Rectángulo_458880" data-name="Rectángulo 458880" width="36.38" height="7.588" transform="translate(116.576 137.932)" fill="#9654ff"/>
        <rect id="Rectángulo_458881" data-name="Rectángulo 458881" width="3.042" height="7.588" transform="translate(121.281 137.932)" fill="#fff"/>
        <rect id="Rectángulo_458882" data-name="Rectángulo 458882" width="5.761" height="7.588" transform="translate(127.18 137.932)" fill="#fff"/>
        <rect id="Rectángulo_458883" data-name="Rectángulo 458883" width="36.38" height="1.207" transform="translate(116.576 137.932)" fill="#fff"/>
        <path id="Trazado_1010253" data-name="Trazado 1010253" d="M418.662,460.349h-36.38a.313.313,0,0,1-.313-.313v-7.588a.313.313,0,0,1,.313-.313h36.38a.313.313,0,0,1,.313.313v7.588a.313.313,0,0,1-.313.313m-36.067-.626h35.754V452.76H382.6Z" transform="translate(-265.707 -314.515)" fill="#2e186b"/>
        <path id="Trazado_1010254" data-name="Trazado 1010254" d="M9.866,156.267a13.557,13.557,0,1,1,15.562-20.986,2.115,2.115,0,0,1-3.34,2.6A9.326,9.326,0,1,0,14.4,152.937a2.115,2.115,0,1,1-.149,4.228,13.528,13.528,0,0,1-4.388-.9" transform="translate(-0.816 -90.469)" fill="#9654ff"/>
        <path id="Trazado_1010255" data-name="Trazado 1010255" d="M7.829,155.284A13.558,13.558,0,1,1,22.7,132.644a13.322,13.322,0,0,0-2.031-.983A13.559,13.559,0,0,0,7.829,155.284" transform="translate(-0.82 -90.471)" fill="#fff"/>
        <path id="Trazado_1010256" data-name="Trazado 1010256" d="M162.091,210.025l-29.2,6.366-.049-12.168,28.514-1.852a1.578,1.578,0,0,1,1.679,1.472l.295,4.537a1.582,1.582,0,0,1-1.243,1.645" transform="translate(-92.41 -140.771)" fill="#ff7af1"/>
        <path id="Trazado_1010257" data-name="Trazado 1010257" d="M162.3,203.716l-28.514,1.852.042,10.618-.929.2-.049-12.168,28.515-1.852a1.578,1.578,0,0,1,1.679,1.472v.007a1.574,1.574,0,0,0-.744-.133" transform="translate(-92.41 -140.77)" fill="#fff"/>
        <path id="Trazado_1010258" data-name="Trazado 1010258" d="M13.6,156.763l-.086,0a13.872,13.872,0,1,1,11.433-22.389,2.428,2.428,0,0,1-3.834,2.981,9.012,9.012,0,1,0-7.428,14.554,2.428,2.428,0,0,1-.085,4.855m.409-27.115a13.248,13.248,0,0,0-.474,26.487,1.8,1.8,0,0,0,.127-3.6,9.642,9.642,0,1,1,7.945-15.565,1.8,1.8,0,0,0,2.845-2.212,13.278,13.278,0,0,0-10.443-5.109" transform="translate(-0.091 -89.753)" fill="#2e186b"/>
        <path id="Trazado_1010259" data-name="Trazado 1010259" d="M132.178,215.987a.313.313,0,0,1-.313-.312l-.049-12.168a.313.313,0,0,1,.293-.314l28.514-1.852a1.892,1.892,0,0,1,2.012,1.764l.295,4.537a1.885,1.885,0,0,1-1.488,1.972l-29.2,6.365a.312.312,0,0,1-.067.007m.265-12.188.046,11.486L161.308,209h0a1.261,1.261,0,0,0,1-1.319l-.295-4.537a1.265,1.265,0,0,0-1.345-1.18Z" transform="translate(-91.694 -140.055)" fill="#2e186b"/>
        <path id="Trazado_1010260" data-name="Trazado 1010260" d="M109.7,130.407a11.829,11.829,0,0,0-21.049-8.093Z" transform="translate(-61.668 -81.99)" fill="#9654ff"/>
        <path id="Trazado_1010261" data-name="Trazado 1010261" d="M109.7,130.4l-.586-.226a11.825,11.825,0,0,0-19.875-7.642l-.586-.225A11.829,11.829,0,0,1,109.7,130.4" transform="translate(-61.671 -81.99)" fill="#fff"/>
        <path id="Trazado_1010262" data-name="Trazado 1010262" d="M108.985,129.99a.308.308,0,0,1-.112-.021l-21.049-8.093a.313.313,0,0,1-.132-.488A12.142,12.142,0,0,1,109.3,129.7a.313.313,0,0,1-.313.294m-20.53-8.542,20.235,7.78a11.516,11.516,0,0,0-20.235-7.78" transform="translate(-60.952 -81.261)" fill="#2e186b"/>
        <path id="Trazado_1010263" data-name="Trazado 1010263" d="M56.363,172.873,27.046,161.6a4.263,4.263,0,0,1-2.274-5.907l13.274-26.219a4.269,4.269,0,0,1,5.335-2.053l23.753,9.133a4.269,4.269,0,0,1,2.585,5.1l-7.71,28.358a4.262,4.262,0,0,1-5.646,2.862" transform="translate(-16.91 -88.44)" fill="#fff"/>
        <path id="Trazado_1010264" data-name="Trazado 1010264" d="M29.175,162.418l-2.126-.818a4.264,4.264,0,0,1-2.274-5.909l13.273-26.217a4.272,4.272,0,0,1,5.336-2.055l2.126.817a4.271,4.271,0,0,0-5.336,2.055L26.9,156.51a4.264,4.264,0,0,0,2.274,5.909" transform="translate(-16.913 -88.439)" fill="#ff7af1"/>
        <path id="Trazado_1010265" data-name="Trazado 1010265" d="M57.184,172.749a4.58,4.58,0,0,1-1.644-.3L26.224,161.173a4.576,4.576,0,0,1-2.441-6.342l13.274-26.219a4.569,4.569,0,0,1,5.727-2.2l23.753,9.133a4.569,4.569,0,0,1,2.775,5.472L61.6,169.371a4.573,4.573,0,0,1-4.417,3.378M41.135,126.727a3.946,3.946,0,0,0-3.52,2.168L24.341,155.114a3.949,3.949,0,0,0,2.107,5.474l29.317,11.272A3.949,3.949,0,0,0,61,169.207l7.71-28.358a3.944,3.944,0,0,0-2.4-4.724l-23.754-9.133a3.956,3.956,0,0,0-1.423-.266" transform="translate(-16.2 -87.719)" fill="#2e186b"/>
        <path id="Trazado_1010266" data-name="Trazado 1010266" d="M245.723,218.628a3.176,3.176,0,0,1-5.476,3.218c-.888-1.512-.259-6.71-.259-6.71s4.847,1.98,5.736,3.492" transform="translate(-166.79 -149.654)" fill="#fff"/>
        <path id="Trazado_1010267" data-name="Trazado 1010267" d="M242.278,223.009a3.491,3.491,0,0,1-3.014-1.721c-.931-1.585-.327-6.69-.3-6.906a.313.313,0,0,1,.429-.252c.2.082,4.956,2.038,5.887,3.623a3.488,3.488,0,0,1-3,5.256m-2.738-8.138c-.169,1.653-.362,5.034.264,6.1a2.863,2.863,0,0,0,4.936-2.9c-.626-1.066-3.674-2.542-5.2-3.2" transform="translate(-166.077 -148.937)" fill="#2e186b"/>
        <path id="Trazado_1010268" data-name="Trazado 1010268" d="M229.338,247.875a2.981,2.981,0,1,1-5.926.643c-.178-1.637,2.364-5.842,2.364-5.842s3.385,3.562,3.563,5.2" transform="translate(-155.404 -168.812)" fill="#fff"/>
        <path id="Trazado_1010269" data-name="Trazado 1010269" d="M225.658,250.776a3.3,3.3,0,0,1-3.272-2.938c-.187-1.722,2.3-5.863,2.407-6.038a.313.313,0,0,1,.5-.054c.141.149,3.46,3.658,3.647,5.38a3.3,3.3,0,0,1-2.919,3.63,3.388,3.388,0,0,1-.358.019m-.541-8.294c-.783,1.356-2.233,4.146-2.109,5.288a2.667,2.667,0,1,0,5.3-.576c-.124-1.142-2.138-3.555-3.195-4.712" transform="translate(-154.69 -168.096)" fill="#2e186b"/>
        <path id="Trazado_1010270" data-name="Trazado 1010270" d="M262.274,259.817a3.176,3.176,0,1,1-6.315.686c-.189-1.744,2.518-6.225,2.518-6.225s3.607,3.8,3.8,5.539" transform="translate(-178.045 -176.882)" fill="#fff"/>
        <path id="Trazado_1010271" data-name="Trazado 1010271" d="M258.4,262.933a3.494,3.494,0,0,1-3.466-3.113c-.2-1.828,2.449-6.234,2.562-6.421a.313.313,0,0,1,.5-.054c.15.158,3.682,3.893,3.88,5.721a3.493,3.493,0,0,1-3.092,3.845,3.543,3.543,0,0,1-.379.02m-.58-8.851c-.832,1.438-2.4,4.442-2.264,5.671a2.863,2.863,0,0,0,5.692-.618c-.133-1.229-2.306-3.827-3.428-5.053" transform="translate(-177.33 -176.166)" fill="#2e186b"/>
        <rect id="Rectángulo_458884" data-name="Rectángulo 458884" width="5.867" height="13.753" transform="translate(66.342 17.22)" fill="#9654ff"/>
        <rect id="Rectángulo_458885" data-name="Rectángulo 458885" width="5.867" height="19.604" transform="translate(55.148 11.369)" fill="#9654ff"/>
        <rect id="Rectángulo_458886" data-name="Rectángulo 458886" width="5.87" height="9.043" transform="translate(43.953 21.931)" fill="#9654ff"/>
        <rect id="Rectángulo_458887" data-name="Rectángulo 458887" width="5.87" height="30.657" transform="translate(77.533 0.316)" fill="#9654ff"/>
        <rect id="Rectángulo_458888" data-name="Rectángulo 458888" width="5.867" height="8.795" transform="translate(66.342 22.179)" fill="#ff7af1"/>
        <rect id="Rectángulo_458889" data-name="Rectángulo 458889" width="5.867" height="12.536" transform="translate(55.148 18.437)" fill="#ff7af1"/>
        <rect id="Rectángulo_458890" data-name="Rectángulo 458890" width="5.87" height="5.782" transform="translate(43.953 25.191)" fill="#ff7af1"/>
        <rect id="Rectángulo_458891" data-name="Rectángulo 458891" width="5.87" height="25.449" transform="translate(77.533 5.524)" fill="#ff7af1"/>
        <path id="Trazado_1010272" data-name="Trazado 1010272" d="M43.161,411.854l-.941-.207a.887.887,0,0,1-.654-.637,10.916,10.916,0,0,0-1.014-2.432.891.891,0,0,1,.01-.91l.52-.831a.741.741,0,0,0-.093-.91L39.065,404a.741.741,0,0,0-.911-.093l-.82.517a.89.89,0,0,1-.914.013,10.855,10.855,0,0,0-2.428-1,.891.891,0,0,1-.64-.654l-.213-.951a.721.721,0,0,0-.71-.567H29.689a.725.725,0,0,0-.707.567l-.217.951a.891.891,0,0,1-.64.654,10.724,10.724,0,0,0-2.418,1,.919.919,0,0,1-.354.109v2.67h-3.6v14.956h4.933V423.9a10.584,10.584,0,0,0,1.452.524.892.892,0,0,1,.637.657l.21.941a.731.731,0,0,0,.714.577h2.732a.73.73,0,0,0,.71-.577l.207-.941a.9.9,0,0,1,.64-.657,10.721,10.721,0,0,0,2.425-1,.889.889,0,0,1,.917.01l.827.524a.727.727,0,0,0,.9-.1l1.931-1.931a.736.736,0,0,0,.093-.907l-.517-.821a.882.882,0,0,1-.01-.914,10.879,10.879,0,0,0,1.011-2.425.879.879,0,0,1,.657-.64l.937-.21a.721.721,0,0,0,.567-.7v-2.745a.724.724,0,0,0-.567-.707m-12.1,7.611a5.532,5.532,0,1,1,5.53-5.533,5.534,5.534,0,0,1-5.53,5.533" transform="translate(-15.13 -279.129)" fill="#2e186b"/>
        <path id="Trazado_1010273" data-name="Trazado 1010273" d="M31.711,426.2H28.979a1.05,1.05,0,0,1-1.02-.824l-.21-.939a.578.578,0,0,0-.417-.424,10.865,10.865,0,0,1-1.493-.539.313.313,0,0,1-.187-.286v-1.42h-4.62a.313.313,0,0,1-.313-.313V406.5a.313.313,0,0,1,.313-.313h3.289V403.83a.313.313,0,0,1,.278-.311.609.609,0,0,0,.235-.07,11.057,11.057,0,0,1,2.489-1.03.578.578,0,0,0,.419-.422l.217-.951a1.043,1.043,0,0,1,1.012-.81h2.738a1.037,1.037,0,0,1,1.017.816l.212.946a.576.576,0,0,0,.418.42,11.182,11.182,0,0,1,2.5,1.033.574.574,0,0,0,.593-.005l.821-.517a1.055,1.055,0,0,1,1.293.131l1.931,1.931a1.057,1.057,0,0,1,.136,1.3l-.519.828a.582.582,0,0,0,0,.592,11.238,11.238,0,0,1,1.042,2.5.575.575,0,0,0,.422.416l.938.206h0a1.044,1.044,0,0,1,.812,1.012v2.745a1.029,1.029,0,0,1-.812,1.009l-.937.21a.569.569,0,0,0-.423.417,11.189,11.189,0,0,1-1.04,2.5.57.57,0,0,0,0,.591l.518.822a1.047,1.047,0,0,1-.132,1.291l-1.936,1.936a1.045,1.045,0,0,1-1.294.142l-.826-.523a.577.577,0,0,0-.594,0,11.1,11.1,0,0,1-2.5,1.034.586.586,0,0,0-.419.425l-.206.938a1.042,1.042,0,0,1-1.016.823m-5.431-3.218a10.009,10.009,0,0,0,1.222.428,1.2,1.2,0,0,1,.859.892l.21.939a.42.42,0,0,0,.408.332h2.732a.419.419,0,0,0,.4-.328l.207-.944a1.213,1.213,0,0,1,.861-.892,10.456,10.456,0,0,0,2.356-.975,1.2,1.2,0,0,1,1.239.018l.828.524a.417.417,0,0,0,.515-.057l1.931-1.931a.421.421,0,0,0,.051-.517l-.518-.822a1.2,1.2,0,0,1-.017-1.236,10.552,10.552,0,0,0,.981-2.354,1.192,1.192,0,0,1,.893-.862l.935-.209a.407.407,0,0,0,.322-.4v-2.745a.413.413,0,0,0-.321-.4l-.941-.207a1.2,1.2,0,0,1-.888-.86,10.62,10.62,0,0,0-.985-2.36,1.208,1.208,0,0,1,.017-1.231l.52-.83a.43.43,0,0,0-.055-.529l-1.918-1.918a.427.427,0,0,0-.52-.051l-.822.518A1.207,1.207,0,0,1,35.55,404a10.556,10.556,0,0,0-2.359-.976,1.2,1.2,0,0,1-.862-.885l-.214-.952a.41.41,0,0,0-.4-.322H28.972a.413.413,0,0,0-.4.321l-.217.952a1.2,1.2,0,0,1-.863.886,10.413,10.413,0,0,0-2.346.971,1.1,1.1,0,0,1-.2.087V406.5a.313.313,0,0,1-.313.313H21.346v14.33h4.62a.313.313,0,0,1,.313.313Zm4.063-3.92a5.845,5.845,0,1,1,5.843-5.846,5.853,5.853,0,0,1-5.843,5.846m0-11.063a5.219,5.219,0,1,0,5.217,5.217A5.224,5.224,0,0,0,30.343,408" transform="translate(-14.413 -278.414)" fill="#2e186b"/>
        <path id="Trazado_1010274" data-name="Trazado 1010274" d="M28.966,411.854l-.941-.207a.887.887,0,0,1-.654-.637,10.916,10.916,0,0,0-1.014-2.432.891.891,0,0,1,.01-.91l.52-.831a.741.741,0,0,0-.093-.91L24.87,404a.741.741,0,0,0-.911-.093l-.82.517a.89.89,0,0,1-.914.013,10.869,10.869,0,0,0-2.428-1,.891.891,0,0,1-.64-.654l-.213-.951a.721.721,0,0,0-.71-.567H15.494a.725.725,0,0,0-.707.567l-.217.951a.891.891,0,0,1-.64.654,10.724,10.724,0,0,0-2.418,1,.882.882,0,0,1-.914-.01l-.821-.517a.741.741,0,0,0-.911.093l-1.925,1.925a.746.746,0,0,0-.1.92l.517.807a.887.887,0,0,1,.013.921,10.759,10.759,0,0,0-1.007,2.431.89.89,0,0,1-.657.64l-.944.21a.725.725,0,0,0-.57.707v2.728a.738.738,0,0,0,.577.72l.937.207a.879.879,0,0,1,.657.64,10.523,10.523,0,0,0,1,2.421.879.879,0,0,1-.01.921l-.52.817a.737.737,0,0,0,.1.907l1.925,1.928a.743.743,0,0,0,.911.1l.821-.524a.889.889,0,0,1,.917-.013,10.846,10.846,0,0,0,2.425,1.007.891.891,0,0,1,.637.657l.21.941a.731.731,0,0,0,.714.577h2.732a.73.73,0,0,0,.71-.577l.207-.941a.9.9,0,0,1,.64-.657,10.735,10.735,0,0,0,2.425-1,.888.888,0,0,1,.917.01l.827.524a.727.727,0,0,0,.9-.1l1.931-1.931a.736.736,0,0,0,.093-.907l-.517-.821a.882.882,0,0,1-.01-.914,10.873,10.873,0,0,0,1.011-2.425.879.879,0,0,1,.657-.64l.937-.21a.721.721,0,0,0,.567-.7v-2.745a.724.724,0,0,0-.567-.707m-12.1,7.611a5.532,5.532,0,1,1,5.53-5.534,5.535,5.535,0,0,1-5.53,5.534" transform="translate(-2.917 -279.129)" fill="#fff"/>
        <path id="Trazado_1010275" data-name="Trazado 1010275" d="M17.517,426.2H14.785a1.05,1.05,0,0,1-1.02-.824l-.21-.939a.578.578,0,0,0-.417-.424,11.159,11.159,0,0,1-2.493-1.036.576.576,0,0,0-.6,0l-.82.524a1.055,1.055,0,0,1-1.295-.14L6,421.433a1.05,1.05,0,0,1-.145-1.3l.52-.817a.567.567,0,0,0,0-.595,10.9,10.9,0,0,1-1.035-2.5.568.568,0,0,0-.421-.418l-.939-.207a1.048,1.048,0,0,1-.823-1.026v-2.729a1.031,1.031,0,0,1,.816-1.013l.943-.21a.578.578,0,0,0,.423-.417,11.11,11.11,0,0,1,1.037-2.5.57.57,0,0,0,0-.6l-.517-.808A1.057,1.057,0,0,1,6,404.992l1.926-1.926a1.057,1.057,0,0,1,1.3-.136l.819.517a.571.571,0,0,0,.592,0,11.058,11.058,0,0,1,2.49-1.03.577.577,0,0,0,.419-.422l.217-.95a1.044,1.044,0,0,1,1.013-.81h2.738a1.038,1.038,0,0,1,1.017.816l.212.946a.578.578,0,0,0,.418.42,11.156,11.156,0,0,1,2.5,1.033.575.575,0,0,0,.593-.005l.821-.517a1.054,1.054,0,0,1,1.293.131l1.931,1.931a1.056,1.056,0,0,1,.136,1.3l-.519.828a.581.581,0,0,0,0,.592,11.253,11.253,0,0,1,1.042,2.5.576.576,0,0,0,.422.416l.937.206h0a1.044,1.044,0,0,1,.812,1.013v2.745a1.029,1.029,0,0,1-.812,1.009l-.937.21a.569.569,0,0,0-.423.417,11.208,11.208,0,0,1-1.041,2.5.571.571,0,0,0,0,.591l.518.822a1.047,1.047,0,0,1-.132,1.291l-1.936,1.936a1.046,1.046,0,0,1-1.294.142l-.826-.523a.578.578,0,0,0-.594,0,11.114,11.114,0,0,1-2.5,1.034.586.586,0,0,0-.419.425l-.206.938a1.042,1.042,0,0,1-1.016.823m-7.171-3.929a1.239,1.239,0,0,1,.608.161,10.53,10.53,0,0,0,2.355.978,1.2,1.2,0,0,1,.859.892l.21.939a.416.416,0,0,0,.408.332h2.732a.419.419,0,0,0,.4-.328l.207-.944a1.213,1.213,0,0,1,.862-.892,10.457,10.457,0,0,0,2.356-.975,1.2,1.2,0,0,1,1.239.018l.827.524a.416.416,0,0,0,.515-.057l1.931-1.931a.42.42,0,0,0,.051-.517l-.518-.822a1.2,1.2,0,0,1-.017-1.236,10.573,10.573,0,0,0,.982-2.354,1.191,1.191,0,0,1,.892-.862l.935-.21a.406.406,0,0,0,.322-.4v-2.745a.414.414,0,0,0-.321-.4l-.94-.207a1.2,1.2,0,0,1-.889-.86,10.622,10.622,0,0,0-.985-2.36,1.208,1.208,0,0,1,.017-1.231l.52-.831a.43.43,0,0,0-.055-.529l-1.919-1.918a.428.428,0,0,0-.52-.051l-.822.518a1.207,1.207,0,0,1-1.234.022A10.523,10.523,0,0,0,19,403.022a1.2,1.2,0,0,1-.862-.886l-.213-.952a.41.41,0,0,0-.405-.322H14.779a.413.413,0,0,0-.4.321l-.217.952a1.2,1.2,0,0,1-.863.886,10.422,10.422,0,0,0-2.347.971,1.194,1.194,0,0,1-1.237-.019l-.819-.516a.43.43,0,0,0-.528.056l-1.918,1.919a.431.431,0,0,0-.056.533l.515.8a1.2,1.2,0,0,1,.022,1.243,10.486,10.486,0,0,0-.978,2.362,1.2,1.2,0,0,1-.889.862l-.945.21a.409.409,0,0,0-.325.4v2.729a.424.424,0,0,0,.333.415l.935.206a1.192,1.192,0,0,1,.892.864,10.221,10.221,0,0,0,.974,2.348,1.19,1.19,0,0,1-.019,1.246l-.52.816a.424.424,0,0,0,.065.522l1.92,1.923a.428.428,0,0,0,.52.061l.821-.524a1.171,1.171,0,0,1,.632-.183m5.8-3.209a5.845,5.845,0,1,1,5.843-5.847,5.853,5.853,0,0,1-5.843,5.847m0-11.063a5.219,5.219,0,1,0,5.217,5.217A5.224,5.224,0,0,0,16.149,408" transform="translate(-2.202 -278.414)" fill="#2e186b"/>
        <path id="Trazado_1010276" data-name="Trazado 1010276" d="M445.432,132.263a5.179,5.179,0,0,1,5.182-5.177v-8.7a13.871,13.871,0,0,0-13.344,17.663l8.362-2.374a5.192,5.192,0,0,1-.2-1.417" transform="translate(-303.808 -82.355)" fill="#2e186b"/>
        <path id="Trazado_1010277" data-name="Trazado 1010277" d="M496.192,132.263a13.875,13.875,0,0,0-13.873-13.873v8.7a5.176,5.176,0,0,1,2.747,9.567l4.614,7.368a13.859,13.859,0,0,0,6.512-11.757" transform="translate(-335.513 -82.355)" fill="#ff7af1"/>
        <path id="Trazado_1010278" data-name="Trazado 1010278" d="M451.821,172.388a5.179,5.179,0,0,1-4.982-3.766L438.477,171a13.87,13.87,0,0,0,20.706,7.967l-4.614-7.368a5.155,5.155,0,0,1-2.747.793" transform="translate(-305.015 -117.297)" fill="#9654ff"/>
        <path id="Trazado_1010279" data-name="Trazado 1010279" d="M465.722,19.976a.314.314,0,0,1-.225-.531l6.7-6.9a.313.313,0,0,1,.45.436l-6.7,6.9a.313.313,0,0,1-.225.095" transform="translate(-323.749 -8.659)" fill="#2e186b"/>
        <path id="Trazado_1010280" data-name="Trazado 1010280" d="M442.172,23.572a.314.314,0,0,1-.225-.531l6.7-6.9a.313.313,0,0,1,.45.436l-6.7,6.9a.313.313,0,0,1-.225.095" transform="translate(-307.368 -11.161)" fill="#2e186b"/>
        <path id="Trazado_1010281" data-name="Trazado 1010281" d="M21.881,307.376a.313.313,0,0,1-.224-.532l8.48-8.66a.313.313,0,1,1,.448.438l-8.48,8.66a.313.313,0,0,1-.224.094" transform="translate(-15.003 -207.358)" fill="#2e186b"/>
        <path id="Trazado_1010282" data-name="Trazado 1010282" d="M24.252,329.7a.313.313,0,0,1-.219-.537l4.691-4.6a.313.313,0,1,1,.439.447l-4.691,4.6a.312.312,0,0,1-.219.09" transform="translate(-16.652 -225.707)" fill="#2e186b"/>
        <path id="Trazado_1010283" data-name="Trazado 1010283" d="M454.873,375.978a.313.313,0,0,1-.222-.535l6.135-6.134a.313.313,0,0,1,.443.443l-6.134,6.135a.312.312,0,0,1-.222.092" transform="translate(-316.203 -256.836)" fill="#2e186b"/>
        <path id="Trazado_1010284" data-name="Trazado 1010284" d="M456.651,377.319a.313.313,0,0,1-.219-.538l11.007-10.735a.313.313,0,1,1,.437.448L456.87,377.23a.315.315,0,0,1-.219.089" transform="translate(-317.439 -254.569)" fill="#2e186b"/>
        <path id="Trazado_1010285" data-name="Trazado 1010285" d="M374.1,27.3c0,3.445-.433,6.238-.966,6.238s-.966-2.793-.966-6.238.433-6.238.966-6.238.966,2.793.966,6.238" transform="translate(-258.89 -14.654)" fill="#fff"/>
        <path id="Trazado_1010286" data-name="Trazado 1010286" d="M289.815,497.719c-2.877,1.9-5.447,3.071-5.741,2.626s1.8-2.343,4.678-4.238,5.447-3.071,5.741-2.626-1.8,2.343-4.678,4.238" transform="translate(-197.59 -343.211)" fill="#fff"/>
        <path id="Trazado_1010287" data-name="Trazado 1010287" d="M79.8,141.079c2.364,4.095,3.575,7.822,2.7,8.324s-3.493-2.409-5.857-6.5-3.574-7.822-2.7-8.324,3.493,2.409,5.857,6.5" transform="translate(-51.24 -93.574)" fill="#ff7af1"/>
      </g>
    </g>
  </g>
</svg>
