<svg xmlns="http://www.w3.org/2000/svg" width="128" height="128" viewBox="0 0 128 128">
  <g id="Grupo_1182494" data-name="Grupo 1182494" transform="translate(-383.746 -8400)">
    <circle id="Elipse_13609" data-name="Elipse 13609" cx="64" cy="64" r="64" transform="translate(383.746 8400)" fill="#cfa9e6"/>
    <g id="Grupo_1184418" data-name="Grupo 1184418" transform="translate(386.753 8426.335)">
      <g id="Grupo_1184417" data-name="Grupo 1184417" transform="translate(27.352)">
        <g id="Grupo_1184401" data-name="Grupo 1184401" transform="translate(50.363 12.058)">
          <g id="Grupo_1184400" data-name="Grupo 1184400">
            <path id="Trazado_1011312" data-name="Trazado 1011312" d="M371.126,94.959a1.471,1.471,0,0,1-1.471-1.471V83.427a1.471,1.471,0,0,1,2.943,0V93.488A1.471,1.471,0,0,1,371.126,94.959Z" transform="translate(-369.655 -81.956)" fill="#53435c"/>
          </g>
        </g>
        <g id="Grupo_1184403" data-name="Grupo 1184403" transform="translate(50.357 7.324)">
          <g id="Grupo_1184402" data-name="Grupo 1184402">
            <circle id="Elipse_16131" data-name="Elipse 16131" cx="1.471" cy="1.471" r="1.471" fill="#53435c"/>
          </g>
        </g>
        <g id="Grupo_1184406" data-name="Grupo 1184406" transform="translate(0)">
          <path id="Trazado_1011313" data-name="Trazado 1011313" d="M94.634,15.457A15.446,15.446,0,0,0,69.794,3.185H32.707a5.361,5.361,0,0,0-5.355,5.355V62.061a5.361,5.361,0,0,0,5.355,5.355h4.669v2.56a5.361,5.361,0,0,0,5.355,5.355H81.2a5.361,5.361,0,0,0,5.355-5.355V49.569a1.471,1.471,0,0,0-2.943,0V69.976A2.415,2.415,0,0,1,81.2,72.388H42.73a2.415,2.415,0,0,1-2.412-2.412v-2.56H71.176a5.361,5.361,0,0,0,5.355-5.355V30.687a15.51,15.51,0,0,0,7.08-.42v6a1.471,1.471,0,0,0,2.943,0V29.039a15.471,15.471,0,0,0,8.081-13.582Zm-21.047,46.6a2.415,2.415,0,0,1-2.412,2.412H32.707a2.415,2.415,0,0,1-2.412-2.412V8.539a2.415,2.415,0,0,1,2.412-2.412H66.866A15.376,15.376,0,0,0,63.74,14.8H38.685a1.471,1.471,0,0,0-1.471,1.471v6.214a1.471,1.471,0,0,0,1.471,1.471H65.2a1.465,1.465,0,0,0,.89-.3,15.545,15.545,0,0,0,7.5,6.206ZM63.726,17.747v3.271H40.156V17.747ZM79.18,27.971A12.514,12.514,0,1,1,91.692,15.457,12.527,12.527,0,0,1,79.18,27.971Z" transform="translate(-27.352)" fill="#53435c"/>
          <g id="Grupo_1184405" data-name="Grupo 1184405" transform="translate(56.261 41.423)">
            <g id="Grupo_1184404" data-name="Grupo 1184404">
              <path id="Trazado_1011314" data-name="Trazado 1011314" d="M411.21,284.48a1.471,1.471,0,1,1,1.433-1.137A1.485,1.485,0,0,1,411.21,284.48Z" transform="translate(-409.742 -281.541)" fill="#53435c"/>
            </g>
          </g>
        </g>
        <g id="Grupo_1184416" data-name="Grupo 1184416" transform="translate(9.861 29.078)">
          <g id="Grupo_1184415" data-name="Grupo 1184415">
            <g id="Grupo_1184408" data-name="Grupo 1184408">
              <g id="Grupo_1184407" data-name="Grupo 1184407">
                <path id="Trazado_1011315" data-name="Trazado 1011315" d="M122.361,200.576H95.848a1.471,1.471,0,1,1,0-2.943h26.513a1.471,1.471,0,1,1,0,2.943Z" transform="translate(-94.377 -197.633)" fill="#53435c"/>
              </g>
            </g>
            <g id="Grupo_1184410" data-name="Grupo 1184410" transform="translate(0 6.978)">
              <g id="Grupo_1184409" data-name="Grupo 1184409">
                <path id="Trazado_1011316" data-name="Trazado 1011316" d="M122.361,248.006H95.848a1.471,1.471,0,1,1,0-2.943h26.513a1.471,1.471,0,1,1,0,2.943Z" transform="translate(-94.377 -245.063)" fill="#53435c"/>
              </g>
            </g>
            <g id="Grupo_1184412" data-name="Grupo 1184412" transform="translate(0 13.957)">
              <g id="Grupo_1184411" data-name="Grupo 1184411">
                <path id="Trazado_1011317" data-name="Trazado 1011317" d="M122.361,295.436H95.848a1.471,1.471,0,1,1,0-2.943h26.513a1.471,1.471,0,1,1,0,2.943Z" transform="translate(-94.377 -292.493)" fill="#53435c"/>
              </g>
            </g>
            <g id="Grupo_1184414" data-name="Grupo 1184414" transform="translate(0 20.935)">
              <g id="Grupo_1184413" data-name="Grupo 1184413">
                <path id="Trazado_1011318" data-name="Trazado 1011318" d="M122.361,342.866H95.848a1.471,1.471,0,1,1,0-2.943h26.513a1.471,1.471,0,1,1,0,2.943Z" transform="translate(-94.377 -339.923)" fill="#53435c"/>
              </g>
            </g>
          </g>
        </g>
      </g>
    </g>
  </g>
</svg>
