<svg xmlns="http://www.w3.org/2000/svg" width="150" height="150" viewBox="0 0 150 150">
  <g id="Grupo_1177486" data-name="Grupo 1177486" transform="translate(-383.746 -8400)">
    <circle id="Elipse_13609" data-name="Elipse 13609" cx="75" cy="75" r="75" transform="translate(383.746 8400)" fill="#cfa9e6"/>
    <g id="Grupo_1183150" data-name="Grupo 1183150" transform="translate(381.199 8417.281)">
      <path id="Trazado_1008252" data-name="Trazado 1008252" d="M84.172,83.469h2.781v-3.02a4.172,4.172,0,0,0-1.391-8.1H84.172a1.391,1.391,0,0,1,0-2.781h5.562V66.781H86.953V64H84.172v2.781a4.172,4.172,0,0,0,0,8.344h1.391a1.391,1.391,0,1,1,0,2.781H80v2.781h4.172Z" transform="translate(-33.047 -39.656)" fill="#53435c"/>
      <circle id="Elipse_16072" data-name="Elipse 16072" cx="1.5" cy="1.5" r="1.5" transform="translate(90.547 64.717)" fill="#53435c"/>
      <path id="Trazado_1008253" data-name="Trazado 1008253" d="M320,272h4.172v2.781H320Z" transform="translate(-231.328 -211.5)" fill="#53435c"/>
      <circle id="Elipse_16073" data-name="Elipse 16073" cx="1.5" cy="1.5" r="1.5" transform="translate(98.547 64.717)" fill="#53435c"/>
      <path id="Trazado_1008254" data-name="Trazado 1008254" d="M376,272h4.172v2.781H376Z" transform="translate(-277.594 -211.5)" fill="#53435c"/>
      <path id="Trazado_1008256" data-name="Trazado 1008256" d="M45.563,86.922H76.156V98.047a1.391,1.391,0,0,0,1.391,1.391H113.7a1.391,1.391,0,0,0,1.391-1.391V86.226a8.384,8.384,0,0,0-3.338-6.675l-6.611-4.958a11.057,11.057,0,0,0,1.6-5.75V52.156a4.177,4.177,0,0,0-4.172-4.172h-2.456a4.162,4.162,0,0,0-3.106-1.391H94.234V35.9a5.578,5.578,0,0,0-1.79-4.087L76.908,17.475A5.547,5.547,0,0,0,73.135,16H45.563A5.569,5.569,0,0,0,40,21.562v59.8a5.569,5.569,0,0,0,5.562,5.562Zm42.27-10.148a11.187,11.187,0,0,0,2.489,1.847l1.118,5.588L90.195,96.656H78.938V86.226a5.589,5.589,0,0,1,2.225-4.45Zm-.551-19.055h6.953a6.943,6.943,0,0,0,5.5-2.711,7.168,7.168,0,0,0,4.231,2.575v11.26a8.344,8.344,0,0,1-16.687,0Zm20.859,38.937h-7.085l-.417-4.172h7.5ZM94.1,85.531h3.045L98.26,96.656H92.99Zm3.157-2.781H93.984l-.6-3.009a11.17,11.17,0,0,0,4.46,0Zm15.053,3.477v10.43h-1.391V91.093a1.391,1.391,0,0,0-1.391-1.391H100.36l-.55-5.5,1.079-5.563a11.186,11.186,0,0,0,2.528-1.868l6.67,5a5.589,5.589,0,0,1,2.225,4.45Zm-9.734-35.461a1.392,1.392,0,0,1,1.391,1.391v2.557a4.391,4.391,0,0,1-2.781-2.783l-.068-.2a6.975,6.975,0,0,0,.068-.961Zm-5.562-1.391a1.392,1.392,0,0,1,1.391,1.391,4.177,4.177,0,0,1-4.172,4.172H87.281V52.156a2.784,2.784,0,0,1,2.781-2.781ZM42.781,21.562a2.784,2.784,0,0,1,2.781-2.781H73.135c.081,0,.161,0,.241.011V29.906a5.569,5.569,0,0,0,5.562,5.562h6.953V32.687H78.938a2.784,2.784,0,0,1-2.781-2.781V20.567l14.4,13.294a2.789,2.789,0,0,1,.895,2.044V46.594H90.063a5.572,5.572,0,0,0-5.386,4.172h-11.3v2.781H84.5v5.562H60.859V61.89H84.5v5.562H73.375v2.781H84.59A11.048,11.048,0,0,0,86.1,74.593l-1.6,1.2H65.031v2.781h15.76l-1.3.973a8.383,8.383,0,0,0-3.066,4.589H45.563a2.784,2.784,0,0,1-2.781-2.781Z" transform="translate(0 0)" fill="#53435c"/>
      <path id="Trazado_1008257" data-name="Trazado 1008257" d="M144,216h12.516v2.781H144Z" transform="translate(-85.922 -165.234)" fill="#53435c"/>
      <path id="Trazado_1008258" data-name="Trazado 1008258" d="M88,216h6.953v2.781H88Z" transform="translate(-39.656 -165.234)" fill="#53435c"/>
      <path id="Trazado_1008259" data-name="Trazado 1008259" d="M88,264h9.734v2.781H88Z" transform="translate(-39.656 -204.891)" fill="#53435c"/>
      <path id="Trazado_1008260" data-name="Trazado 1008260" d="M88,312h22.25v2.781H88Z" transform="translate(-39.656 -244.547)" fill="#53435c"/>
      <path id="Trazado_1008261" data-name="Trazado 1008261" d="M88,360h13.906v2.781H88Z" transform="translate(-39.656 -284.203)" fill="#53435c"/>
      <path id="Trazado_1008262" data-name="Trazado 1008262" d="M160,168h5.562v2.781H160Z" transform="translate(-99.14 -125.578)" fill="#53435c"/>
      <path id="Trazado_1008263" data-name="Trazado 1008263" d="M216,168h15.3v2.781H216Z" transform="translate(-145.406 -125.578)" fill="#53435c"/>
      <path id="Trazado_1008264" data-name="Trazado 1008264" d="M160,120h9.734v2.781H160Z" transform="translate(-99.14 -85.922)" fill="#53435c"/>
      <path id="Trazado_1008265" data-name="Trazado 1008265" d="M160,72h6.953v2.781H160Z" transform="translate(-99.14 -46.266)" fill="#53435c"/>
    </g>
  </g>
</svg>
