<svg xmlns="http://www.w3.org/2000/svg" xmlns:xlink="http://www.w3.org/1999/xlink" width="292" height="271" viewBox="0 0 292 271">
  <defs>
    <clipPath id="clip-path">
      <rect id="Rectángulo_458864" data-name="Rectángulo 458864" width="230.246" height="221.989" fill="none"/>
    </clipPath>
  </defs>
  <g id="Grupo_1182633" data-name="Grupo 1182633" transform="translate(-1121.711 -1561)">
    <rect id="Image_Place_Holder" data-name="Image Place Holder" width="292" height="271" rx="10" transform="translate(1121.711 1561)" fill="#ff984a"/>
    <g id="Grupo_1183529" data-name="Grupo 1183529" transform="translate(1152.588 1585.506)">
      <g id="Grupo_1183528" data-name="Grupo 1183528" clip-path="url(#clip-path)">
        <path id="Trazado_1009875" data-name="Trazado 1009875" d="M187.144,127.527a.432.432,0,0,1-.3-.125c-.588-.586-1.2-1.192-1.843-1.818a.432.432,0,1,1,.6-.617c.639.627,1.257,1.235,1.847,1.822a.432.432,0,0,1-.3.738" transform="translate(-107.282 -72.45)" fill="#2e186b"/>
        <path id="Trazado_1009876" data-name="Trazado 1009876" d="M154.289,64.865a.43.43,0,0,1-.305-.126c-1.411-1.408-2.628-2.656-3.723-3.817a.432.432,0,1,1,.629-.592c1.088,1.155,2.3,2.4,3.7,3.8a.432.432,0,0,1-.3.738m-7.266-7.77a.431.431,0,0,1-.33-.153c-1.234-1.458-2.344-2.876-3.3-4.217a.432.432,0,1,1,.7-.5c.941,1.321,2.036,2.721,3.255,4.161a.432.432,0,0,1-.329.711m-6.093-8.7a.432.432,0,0,1-.382-.23,24.839,24.839,0,0,1-2.036-5,.432.432,0,1,1,.833-.228,23.98,23.98,0,0,0,1.967,4.827.432.432,0,0,1-.382.634m56.341-2.908h-.005a25.07,25.07,0,0,1-5.363-.641.432.432,0,0,1,.2-.841,24.216,24.216,0,0,0,5.178.619.432.432,0,0,1-.005.864m5.289-.457a.432.432,0,0,1-.077-.857,31.006,31.006,0,0,0,5.052-1.382.432.432,0,1,1,.3.811,31.83,31.83,0,0,1-5.194,1.421.453.453,0,0,1-.078.007m29.908-.69a.43.43,0,0,1-.325-.148,6.381,6.381,0,0,1-.767-1.073c-.431-.769-.813-1.6-1.183-2.412-.2-.434-.4-.867-.6-1.292a.432.432,0,0,1,.777-.377c.209.43.41.87.611,1.31.363.792.737,1.61,1.151,2.349a5.576,5.576,0,0,0,.664.927.432.432,0,0,1-.325.716M187,43.078a.433.433,0,0,1-.19-.044,36.489,36.489,0,0,1-4.613-2.762.432.432,0,0,1,.489-.712,35.623,35.623,0,0,0,4.5,2.7.432.432,0,0,1-.191.82m25.519-1.649a.432.432,0,0,1-.208-.81,37.4,37.4,0,0,0,3.733-2.349l.7-.5a.432.432,0,1,1,.5.7l-.694.5a38.256,38.256,0,0,1-3.82,2.4.426.426,0,0,1-.207.053m-74.128-3.208-.038,0a.432.432,0,0,1-.392-.468,12.777,12.777,0,0,1,1.635-5.209.432.432,0,0,1,.751.426,11.924,11.924,0,0,0-1.526,4.859.432.432,0,0,1-.43.394m39.733-.981a.429.429,0,0,1-.253-.082c-1.359-.985-2.831-2.022-4.381-2.942a.432.432,0,0,1,.441-.743c1.58.938,3.071,1.989,4.447,2.985a.432.432,0,0,1-.254.781m43.4-1.439a.432.432,0,0,1-.171-.829,6.167,6.167,0,0,1,5.5-.162.432.432,0,1,1-.4.767c-1.343-.694-2.857-.635-4.762.188a.434.434,0,0,1-.171.036m-52.565-3.915a.428.428,0,0,1-.178-.039c-1.68-.762-3.324-1.441-4.888-2.018a.432.432,0,0,1,.3-.81c1.583.585,3.247,1.272,4.945,2.042a.432.432,0,0,1-.178.826M143.52,29.293a.432.432,0,0,1-.241-.791,12.827,12.827,0,0,1,5.1-1.949.432.432,0,1,1,.141.852,11.97,11.97,0,0,0-4.758,1.815.434.434,0,0,1-.24.073m15.457-1.041a.44.44,0,0,1-.108-.014,34.03,34.03,0,0,0-5.161-.945.432.432,0,0,1,.084-.859,34.872,34.872,0,0,1,5.293.969.432.432,0,0,1-.108.85" transform="translate(-80.061 -15.338)" fill="#2e186b"/>
        <path id="Trazado_1009877" data-name="Trazado 1009877" d="M373.727,72.665c-.094,0-.189,0-.286-.01a.432.432,0,0,1-.4-.46.425.425,0,0,1,.46-.4,2.2,2.2,0,0,0,1.964-.741.432.432,0,1,1,.665.551,3,3,0,0,1-2.4,1.061" transform="translate(-216.482 -41.143)" fill="#2e186b"/>
        <path id="Trazado_1009878" data-name="Trazado 1009878" d="M382.777,116.444V260.185a8.941,8.941,0,0,0,8.941,8.941H420.2a8.941,8.941,0,0,0,8.941-8.941V116.444A8.941,8.941,0,0,0,420.2,107.5h-28.48a8.941,8.941,0,0,0-8.941,8.941" transform="translate(-222.133 -62.386)" fill="#2e186b"/>
        <path id="Trazado_1009879" data-name="Trazado 1009879" d="M419.6,268.961h-28.48a9.383,9.383,0,0,1-9.373-9.373V115.847a9.383,9.383,0,0,1,9.373-9.373H419.6a9.383,9.383,0,0,1,9.373,9.373V259.588a9.383,9.383,0,0,1-9.373,9.373m-28.48-161.623a8.518,8.518,0,0,0-8.509,8.509V259.588a8.518,8.518,0,0,0,8.509,8.509H419.6a8.518,8.518,0,0,0,8.509-8.509V115.847a8.518,8.518,0,0,0-8.509-8.509Z" transform="translate(-221.537 -61.789)" fill="#2e186b"/>
        <path id="Trazado_1009880" data-name="Trazado 1009880" d="M204.64,269.127H53.949a7.759,7.759,0,0,1-7.759-7.759V115.263a7.759,7.759,0,0,1,7.759-7.759H204.64a7.759,7.759,0,0,1,7.759,7.759V261.368a7.759,7.759,0,0,1-7.759,7.759" transform="translate(-26.805 -62.387)" fill="#fff"/>
        <path id="Trazado_1009881" data-name="Trazado 1009881" d="M212.4,116.442v4.352a8.939,8.939,0,0,0-8.937-8.942H55.131a8.943,8.943,0,0,0-8.942,8.942v-4.352a8.943,8.943,0,0,1,8.942-8.942H203.459a8.939,8.939,0,0,1,8.937,8.942" transform="translate(-26.804 -62.384)" fill="#9654ff"/>
        <rect id="Rectángulo_458843" data-name="Rectángulo 458843" width="141.739" height="136.581" transform="translate(31.62 57.638)" fill="#9654ff"/>
        <path id="Trazado_1009882" data-name="Trazado 1009882" d="M217.085,137.335v4.212H78.889V273.915H75.344V137.335Z" transform="translate(-43.724 -79.698)" fill="#fff"/>
        <path id="Trazado_1009883" data-name="Trazado 1009883" d="M298.016,268.961h-90.1a.432.432,0,1,1,0-.864h90.1a7.561,7.561,0,0,0,7.552-7.552V114.891a7.56,7.56,0,0,0-7.552-7.552H265.161a.432.432,0,1,1,0-.864h32.855a8.425,8.425,0,0,1,8.416,8.416V260.545a8.425,8.425,0,0,1-8.416,8.416" transform="translate(-120.406 -61.79)" fill="#2e186b"/>
        <path id="Trazado_1009884" data-name="Trazado 1009884" d="M53.577,268.961a8.425,8.425,0,0,1-8.416-8.416V114.891a8.425,8.425,0,0,1,8.416-8.416H157.438a.432.432,0,1,1,0,.864H53.577a7.56,7.56,0,0,0-7.552,7.552V260.545a7.561,7.561,0,0,0,7.552,7.552.432.432,0,1,1,0,.864" transform="translate(-26.208 -61.79)" fill="#2e186b"/>
        <path id="Trazado_1009885" data-name="Trazado 1009885" d="M216.486,273.754H74.747a.432.432,0,0,1-.432-.432V182.4a.432.432,0,1,1,.864,0V272.89H216.054V137.173H75.179v24.711a.432.432,0,0,1-.864,0V136.741a.432.432,0,0,1,.432-.432H216.486a.432.432,0,0,1,.432.432V273.322a.432.432,0,0,1-.432.432" transform="translate(-43.127 -79.103)" fill="#2e186b"/>
        <path id="Trazado_1009886" data-name="Trazado 1009886" d="M129.229,492.632l-6.819,11.9a4.792,4.792,0,0,1-4.415,2.913H102.461a4.8,4.8,0,0,1-4.808-4.808v-10Z" transform="translate(-56.67 -285.885)" fill="#2e186b"/>
        <path id="Trazado_1009887" data-name="Trazado 1009887" d="M117.4,507.275H101.864a5.246,5.246,0,0,1-5.24-5.24v-10a.432.432,0,0,1,.432-.432h31.576a.432.432,0,0,1,.375.647L122.2,504.124a5.228,5.228,0,0,1-4.8,3.151m-19.91-14.808v9.568a4.381,4.381,0,0,0,4.376,4.376H117.4a4.367,4.367,0,0,0,4.018-2.651.483.483,0,0,1,.022-.045l6.449-11.249Z" transform="translate(-56.073 -285.287)" fill="#2e186b"/>
        <path id="Trazado_1009888" data-name="Trazado 1009888" d="M355.81,492.632l6.82,11.9a4.791,4.791,0,0,0,4.415,2.913h15.534a4.8,4.8,0,0,0,4.808-4.808v-10Z" transform="translate(-206.484 -285.885)" fill="#2e186b"/>
        <path id="Trazado_1009889" data-name="Trazado 1009889" d="M381.981,507.275H366.447a5.229,5.229,0,0,1-4.8-3.151l-6.807-11.874a.432.432,0,0,1,.375-.647h31.576a.432.432,0,0,1,.432.432v10a5.246,5.246,0,0,1-5.24,5.24m-26.023-14.808,6.449,11.249a.487.487,0,0,1,.022.045,4.366,4.366,0,0,0,4.018,2.651h15.534a4.381,4.381,0,0,0,4.376-4.376v-9.568Z" transform="translate(-205.887 -285.287)" fill="#2e186b"/>
        <path id="Trazado_1009890" data-name="Trazado 1009890" d="M211.748,263.857a34.1,34.1,0,1,0,34.1-34.1,34.1,34.1,0,0,0-34.1,34.1" transform="translate(-122.882 -133.33)" fill="#2e186b"/>
        <path id="Trazado_1009891" data-name="Trazado 1009891" d="M245.256,297.8a34.536,34.536,0,1,1,34.537-34.536A34.576,34.576,0,0,1,245.256,297.8m0-68.209a33.673,33.673,0,1,0,33.673,33.673,33.711,33.711,0,0,0-33.673-33.673" transform="translate(-122.285 -132.733)" fill="#2e186b"/>
        <path id="Trazado_1009892" data-name="Trazado 1009892" d="M107.2,251.042a13.291,13.291,0,1,0,13.292-13.292A13.292,13.292,0,0,0,107.2,251.042" transform="translate(-62.21 -137.971)" fill="#2e186b"/>
        <path id="Trazado_1009893" data-name="Trazado 1009893" d="M119.895,264.169a13.723,13.723,0,1,1,13.723-13.723,13.739,13.739,0,0,1-13.723,13.723m0-26.583a12.86,12.86,0,1,0,12.859,12.86,12.874,12.874,0,0,0-12.859-12.86" transform="translate(-61.613 -137.375)" fill="#2e186b"/>
        <path id="Trazado_1009894" data-name="Trazado 1009894" d="M109.088,492.632l-6.82,11.9a4.791,4.791,0,0,1-4.415,2.913H82.32a4.8,4.8,0,0,1-4.808-4.808v-10Z" transform="translate(-44.982 -285.885)" fill="#9654ff"/>
        <path id="Trazado_1009895" data-name="Trazado 1009895" d="M86.11,507.441H82.318a4.807,4.807,0,0,1-4.807-4.807v-10H81.3v10a4.808,4.808,0,0,0,4.812,4.807" transform="translate(-44.981 -285.885)" fill="#fff"/>
        <path id="Trazado_1009896" data-name="Trazado 1009896" d="M335.668,492.632l6.819,11.9a4.792,4.792,0,0,0,4.415,2.913h15.534a4.8,4.8,0,0,0,4.808-4.808v-10Z" transform="translate(-194.795 -285.885)" fill="#9654ff"/>
        <path id="Trazado_1009897" data-name="Trazado 1009897" d="M350.884,507.441H346.9a4.785,4.785,0,0,1-4.41-2.911l-6.824-11.9h3.985l6.819,11.9a4.792,4.792,0,0,0,4.415,2.911" transform="translate(-194.793 -285.885)" fill="#fff"/>
        <path id="Trazado_1009898" data-name="Trazado 1009898" d="M97.257,507.275H81.723a5.246,5.246,0,0,1-5.24-5.24v-10a.432.432,0,0,1,.432-.432h31.576a.432.432,0,0,1,.375.647l-6.808,11.874a5.228,5.228,0,0,1-4.8,3.151m-19.91-14.808v9.568a4.381,4.381,0,0,0,4.376,4.376H97.257a4.366,4.366,0,0,0,4.018-2.651.491.491,0,0,1,.023-.045l6.449-11.249Z" transform="translate(-44.385 -285.287)" fill="#2e186b"/>
        <path id="Trazado_1009899" data-name="Trazado 1009899" d="M361.839,507.275H346.305a5.229,5.229,0,0,1-4.8-3.151L334.7,492.25a.432.432,0,0,1,.375-.647h31.576a.432.432,0,0,1,.432.432v10a5.246,5.246,0,0,1-5.24,5.24m-26.023-14.808,6.449,11.249a.491.491,0,0,1,.023.045,4.366,4.366,0,0,0,4.018,2.651h15.534a4.381,4.381,0,0,0,4.376-4.376v-9.568Z" transform="translate(-194.198 -285.287)" fill="#2e186b"/>
        <path id="Trazado_1009900" data-name="Trazado 1009900" d="M410.715,362.5v18.324a3.452,3.452,0,0,1-3.453,3.453H401.84a3.452,3.452,0,0,1-3.453-3.453V362.5a3.452,3.452,0,0,1,3.453-3.453h5.421a3.452,3.452,0,0,1,3.453,3.453" transform="translate(-231.192 -208.364)" fill="#fff"/>
        <path id="Trazado_1009901" data-name="Trazado 1009901" d="M410.715,164.216v18.329A3.455,3.455,0,0,1,407.262,186H401.84a3.455,3.455,0,0,1-3.453-3.453V164.216a3.455,3.455,0,0,1,3.453-3.453h5.421a3.455,3.455,0,0,1,3.453,3.453" transform="translate(-231.192 -93.294)" fill="#fff"/>
        <path id="Trazado_1009902" data-name="Trazado 1009902" d="M404.742,384.281h-2.9a3.452,3.452,0,0,1-3.453-3.453V362.5a3.452,3.452,0,0,1,3.453-3.453h2.9a3.452,3.452,0,0,0-3.453,3.453v18.324a3.452,3.452,0,0,0,3.453,3.453" transform="translate(-231.192 -208.364)" fill="#9654ff"/>
        <path id="Trazado_1009903" data-name="Trazado 1009903" d="M404.742,186h-2.9a3.455,3.455,0,0,1-3.453-3.453V164.216a3.455,3.455,0,0,1,3.453-3.453h2.9a3.455,3.455,0,0,0-3.453,3.453v18.329A3.455,3.455,0,0,0,404.742,186" transform="translate(-231.192 -93.294)" fill="#9654ff"/>
        <path id="Trazado_1009904" data-name="Trazado 1009904" d="M406.664,384.116h-5.421a3.89,3.89,0,0,1-3.885-3.885V361.907a3.89,3.89,0,0,1,3.885-3.885h5.421a3.89,3.89,0,0,1,3.885,3.885v18.324a3.89,3.89,0,0,1-3.885,3.885m-5.421-25.231a3.025,3.025,0,0,0-3.021,3.021v18.324a3.025,3.025,0,0,0,3.021,3.021h5.421a3.025,3.025,0,0,0,3.021-3.021V361.907a3.024,3.024,0,0,0-3.021-3.021Z" transform="translate(-230.595 -207.768)" fill="#2e186b"/>
        <path id="Trazado_1009905" data-name="Trazado 1009905" d="M406.664,185.833h-5.421a3.889,3.889,0,0,1-3.885-3.885V163.619a3.89,3.89,0,0,1,3.885-3.885h5.421a3.89,3.89,0,0,1,3.885,3.885v18.329a3.889,3.889,0,0,1-3.885,3.885M401.243,160.6a3.025,3.025,0,0,0-3.021,3.021v18.329a3.025,3.025,0,0,0,3.021,3.021h5.421a3.024,3.024,0,0,0,3.021-3.021V163.619a3.025,3.025,0,0,0-3.021-3.021Z" transform="translate(-230.595 -92.697)" fill="#2e186b"/>
        <path id="Trazado_1009906" data-name="Trazado 1009906" d="M124.192,271.214v28.5a6.151,6.151,0,0,0,6.149,6.172h.023a6.151,6.151,0,0,0,6.149-6.172v-28.5a6.166,6.166,0,0,0-6.149-6.172h-.023a6.166,6.166,0,0,0-6.149,6.172" transform="translate(-72.071 -153.809)" fill="#fff"/>
        <path id="Trazado_1009907" data-name="Trazado 1009907" d="M131.684,305.742a5.926,5.926,0,0,1-1.32.145h-.024a6.152,6.152,0,0,1-6.147-6.171v-28.5a6.167,6.167,0,0,1,6.147-6.171h.024a5.93,5.93,0,0,1,1.32.145,6.173,6.173,0,0,0-4.831,6.026v28.5a6.153,6.153,0,0,0,4.831,6.026" transform="translate(-72.072 -153.808)" fill="#9654ff"/>
        <path id="Trazado_1009908" data-name="Trazado 1009908" d="M129.766,305.723a6.6,6.6,0,0,1-6.6-6.6v-28.5a6.592,6.592,0,1,1,13.185,0v28.5a6.6,6.6,0,0,1-6.581,6.6m0-40.845a5.74,5.74,0,0,0-5.74,5.74v28.5a5.728,5.728,0,1,0,11.457,0v-28.5a5.735,5.735,0,0,0-5.717-5.74" transform="translate(-71.473 -153.213)" fill="#2e186b"/>
        <path id="Trazado_1009909" data-name="Trazado 1009909" d="M200.791,252.9a34.1,34.1,0,1,0,34.1-34.1,34.1,34.1,0,0,0-34.1,34.1" transform="translate(-116.523 -126.971)" fill="#fff"/>
        <path id="Trazado_1009910" data-name="Trazado 1009910" d="M261.277,231.283A34.1,34.1,0,0,0,211.6,277.808a34.105,34.105,0,1,1,49.678-46.525" transform="translate(-116.523 -126.972)" fill="#9654ff"/>
        <path id="Trazado_1009911" data-name="Trazado 1009911" d="M251.417,282.279a12.858,12.858,0,1,0,12.858-12.858,12.858,12.858,0,0,0-12.858,12.858" transform="translate(-145.903 -156.351)" fill="#9654ff"/>
        <path id="Trazado_1009912" data-name="Trazado 1009912" d="M273.791,273.631a12.859,12.859,0,0,0-17.705,18.562,12.859,12.859,0,1,1,17.705-18.562" transform="translate(-145.901 -156.349)" fill="#fff"/>
        <path id="Trazado_1009913" data-name="Trazado 1009913" d="M271.1,293.7a4.6,4.6,0,1,0,4.6-4.6,4.6,4.6,0,0,0-4.6,4.6" transform="translate(-157.324 -167.772)" fill="#2e186b"/>
        <path id="Trazado_1009914" data-name="Trazado 1009914" d="M234.3,286.84a34.538,34.538,0,0,1-20.8-62.11.432.432,0,1,1,.521.689,33.526,33.526,0,1,0,7.582-4.313.432.432,0,1,1-.326-.8A34.54,34.54,0,1,1,234.3,286.84" transform="translate(-115.927 -126.375)" fill="#2e186b"/>
        <path id="Trazado_1009915" data-name="Trazado 1009915" d="M263.678,294.972a13.29,13.29,0,1,1,13.29-13.29,13.305,13.305,0,0,1-13.29,13.29m0-25.716A12.426,12.426,0,1,0,276.1,281.682a12.441,12.441,0,0,0-12.426-12.426" transform="translate(-145.305 -155.753)" fill="#2e186b"/>
        <path id="Trazado_1009916" data-name="Trazado 1009916" d="M281.458,247.333a.432.432,0,0,1-.432-.432v-4.953a.432.432,0,0,1,.864,0V246.9a.432.432,0,0,1-.432.432" transform="translate(-163.085 -140.157)" fill="#2e186b"/>
        <path id="Trazado_1009917" data-name="Trazado 1009917" d="M281.458,350.558a.432.432,0,0,1-.432-.432v-4.953a.432.432,0,1,1,.864,0v4.953a.432.432,0,0,1-.432.432" transform="translate(-163.085 -200.061)" fill="#2e186b"/>
        <path id="Trazado_1009918" data-name="Trazado 1009918" d="M332.122,299.894H327.17a.432.432,0,0,1,0-.864h4.953a.432.432,0,0,1,0,.864" transform="translate(-189.613 -173.533)" fill="#2e186b"/>
        <path id="Trazado_1009919" data-name="Trazado 1009919" d="M228.9,299.894h-4.953a.432.432,0,0,1,0-.864H228.9a.432.432,0,0,1,0,.864" transform="translate(-129.709 -173.533)" fill="#2e186b"/>
        <path id="Trazado_1009920" data-name="Trazado 1009920" d="M313.781,262.728a.432.432,0,0,1-.305-.737l3.5-3.5a.432.432,0,0,1,.611.611l-3.5,3.5a.431.431,0,0,1-.306.126" transform="translate(-181.843 -149.933)" fill="#2e186b"/>
        <path id="Trazado_1009921" data-name="Trazado 1009921" d="M240.79,335.719a.432.432,0,0,1-.306-.737l3.5-3.5a.432.432,0,0,1,.611.611l-3.5,3.5a.431.431,0,0,1-.306.126" transform="translate(-139.485 -192.291)" fill="#2e186b"/>
        <path id="Trazado_1009922" data-name="Trazado 1009922" d="M317.282,335.719a.431.431,0,0,1-.306-.126l-3.5-3.5a.432.432,0,0,1,.611-.611l3.5,3.5a.432.432,0,0,1-.306.737" transform="translate(-181.843 -192.291)" fill="#2e186b"/>
        <path id="Trazado_1009923" data-name="Trazado 1009923" d="M244.291,262.728a.431.431,0,0,1-.306-.126l-3.5-3.5a.432.432,0,0,1,.611-.611l3.5,3.5a.432.432,0,0,1-.306.737" transform="translate(-139.485 -149.933)" fill="#2e186b"/>
        <rect id="Rectángulo_458844" data-name="Rectángulo 458844" width="19.925" height="19.354" transform="translate(62.4 202.202)" fill="#2e186b"/>
        <path id="Trazado_1009924" data-name="Trazado 1009924" d="M168.014,500.99H148.089a.432.432,0,0,1-.432-.432V481.2a.432.432,0,0,1,.432-.432h19.925a.432.432,0,0,1,.432.432v19.353a.432.432,0,0,1-.432.432m-19.493-.864h19.061v-18.49H148.521Z" transform="translate(-85.688 -279.003)" fill="#2e186b"/>
        <rect id="Rectángulo_458845" data-name="Rectángulo 458845" width="14.153" height="19.354" transform="translate(62.4 182.848)" fill="#2e186b"/>
        <path id="Trazado_1009925" data-name="Trazado 1009925" d="M162.242,454.875H148.089a.432.432,0,0,1-.432-.432V435.089a.432.432,0,0,1,.432-.432h14.153a.432.432,0,0,1,.432.432v19.354a.432.432,0,0,1-.432.432m-13.721-.864H161.81v-18.49H148.521Z" transform="translate(-85.688 -252.241)" fill="#2e186b"/>
        <rect id="Rectángulo_458846" data-name="Rectángulo 458846" width="66.335" height="19.354" transform="translate(10.218 202.202)" fill="#ff7af1"/>
        <rect id="Rectángulo_458847" data-name="Rectángulo 458847" width="66.335" height="19.354" transform="translate(4.447 182.848)" fill="#ff7af1"/>
        <rect id="Rectángulo_458848" data-name="Rectángulo 458848" width="66.333" height="2.198" transform="translate(4.447 182.846)" fill="#fff"/>
        <path id="Trazado_1009926" data-name="Trazado 1009926" d="M76.332,454.875H10a.432.432,0,0,1-.432-.432V435.089a.432.432,0,0,1,.432-.432H76.332a.432.432,0,0,1,.432.432v19.354a.432.432,0,0,1-.432.432m-65.9-.864H75.9v-18.49H10.429Z" transform="translate(-5.551 -252.241)" fill="#2e186b"/>
        <path id="Trazado_1009927" data-name="Trazado 1009927" d="M72.249,467.755h-47.3a.432.432,0,1,1,0-.864h47.3a.432.432,0,1,1,0,.864" transform="translate(-14.225 -270.947)" fill="#2e186b"/>
        <path id="Trazado_1009928" data-name="Trazado 1009928" d="M56.757,454.109H42.277a.432.432,0,1,1,0-.864h14.48a.432.432,0,0,1,0,.864" transform="translate(-24.284 -263.028)" fill="#2e186b"/>
        <path id="Trazado_1009929" data-name="Trazado 1009929" d="M127.588,452.933H120.3a.432.432,0,1,1,0-.864h7.285a.432.432,0,1,1,0,.864" transform="translate(-69.564 -262.345)" fill="#2e186b"/>
        <rect id="Rectángulo_458849" data-name="Rectángulo 458849" width="66.333" height="2.198" transform="translate(10.22 202.202)" fill="#fff"/>
        <path id="Trazado_1009930" data-name="Trazado 1009930" d="M90.086,500.99H23.751a.432.432,0,0,1-.432-.432V481.2a.432.432,0,0,1,.432-.432H90.086a.432.432,0,0,1,.432.432v19.353a.431.431,0,0,1-.432.432m-65.9-.864H89.654v-18.49H24.183Z" transform="translate(-13.533 -279.003)" fill="#2e186b"/>
        <path id="Trazado_1009931" data-name="Trazado 1009931" d="M86,513.871H38.7a.432.432,0,1,1,0-.864H86a.432.432,0,1,1,0,.864" transform="translate(-22.207 -297.709)" fill="#2e186b"/>
        <path id="Trazado_1009932" data-name="Trazado 1009932" d="M70.511,500.224H56.031a.432.432,0,1,1,0-.864H70.511a.432.432,0,1,1,0,.864" transform="translate(-32.265 -289.789)" fill="#2e186b"/>
        <path id="Trazado_1009933" data-name="Trazado 1009933" d="M72.249,467.755h-47.3a.432.432,0,1,1,0-.864h47.3a.432.432,0,1,1,0,.864" transform="translate(-14.225 -270.947)" fill="#2e186b"/>
        <path id="Trazado_1009934" data-name="Trazado 1009934" d="M56.757,454.109H42.277a.432.432,0,1,1,0-.864h14.48a.432.432,0,0,1,0,.864" transform="translate(-24.284 -263.028)" fill="#2e186b"/>
        <path id="Trazado_1009935" data-name="Trazado 1009935" d="M127.588,452.933H120.3a.432.432,0,1,1,0-.864h7.285a.432.432,0,1,1,0,.864" transform="translate(-69.564 -262.345)" fill="#2e186b"/>
        <path id="Trazado_1009936" data-name="Trazado 1009936" d="M86,513.871H38.7a.432.432,0,1,1,0-.864H86a.432.432,0,1,1,0,.864" transform="translate(-22.207 -297.709)" fill="#2e186b"/>
        <path id="Trazado_1009937" data-name="Trazado 1009937" d="M70.511,500.224H56.031a.432.432,0,1,1,0-.864H70.511a.432.432,0,1,1,0,.864" transform="translate(-32.265 -289.789)" fill="#2e186b"/>
        <path id="Trazado_1009938" data-name="Trazado 1009938" d="M141.342,499.048h-7.285a.432.432,0,1,1,0-.864h7.285a.432.432,0,1,1,0,.864" transform="translate(-77.545 -289.107)" fill="#2e186b"/>
        <path id="Trazado_1009939" data-name="Trazado 1009939" d="M85.267,454.875h-9.8a.432.432,0,0,1-.432-.432V435.089a.432.432,0,0,1,.432-.432h9.8a.432.432,0,0,1,.432.432v19.354a.432.432,0,0,1-.432.432m-9.373-.864h8.941v-18.49H75.894Z" transform="translate(-43.541 -252.241)" fill="#2e186b"/>
        <path id="Trazado_1009940" data-name="Trazado 1009940" d="M99.021,500.99h-9.8a.432.432,0,0,1-.432-.432V481.2a.432.432,0,0,1,.432-.432h9.8a.432.432,0,0,1,.432.432v19.353a.431.431,0,0,1-.432.432m-9.373-.864h8.941v-18.49H89.648Z" transform="translate(-51.523 -279.003)" fill="#2e186b"/>
        <rect id="Rectángulo_458850" data-name="Rectángulo 458850" width="9.805" height="19.354" transform="translate(31.92 182.848)" fill="#9654ff"/>
        <rect id="Rectángulo_458851" data-name="Rectángulo 458851" width="9.805" height="19.354" transform="translate(37.693 202.202)" fill="#9654ff"/>
        <rect id="Rectángulo_458852" data-name="Rectángulo 458852" width="4.164" height="19.354" transform="translate(40.513 202.202)" fill="#fff"/>
        <rect id="Rectángulo_458853" data-name="Rectángulo 458853" width="4.164" height="19.354" transform="translate(34.741 182.848)" fill="#fff"/>
        <path id="Trazado_1009941" data-name="Trazado 1009941" d="M85.267,454.875h-9.8a.432.432,0,0,1-.432-.432V435.089a.432.432,0,0,1,.432-.432h9.8a.432.432,0,0,1,.432.432v19.354a.432.432,0,0,1-.432.432m-9.373-.864h8.941v-18.49H75.894Z" transform="translate(-43.541 -252.241)" fill="#2e186b"/>
        <path id="Trazado_1009942" data-name="Trazado 1009942" d="M99.021,500.99h-9.8a.432.432,0,0,1-.432-.432V481.2a.432.432,0,0,1,.432-.432h9.8a.432.432,0,0,1,.432.432v19.353a.431.431,0,0,1-.432.432m-9.373-.864h8.941v-18.49H89.648Z" transform="translate(-51.523 -279.003)" fill="#2e186b"/>
        <path id="Trazado_1009943" data-name="Trazado 1009943" d="M34.134,443.474c-.714,2.609-1.743,4.533-2.3,4.3s-.426-2.544.289-5.153,1.743-4.533,2.3-4.3.426,2.544-.288,5.153" transform="translate(-18.275 -254.355)" fill="#fff"/>
        <path id="Trazado_1009944" data-name="Trazado 1009944" d="M126.479,488.714c-.714,2.609-1.742,4.533-2.3,4.3s-.426-2.544.289-5.153,1.743-4.533,2.3-4.3.426,2.544-.288,5.153" transform="translate(-71.865 -280.609)" fill="#fff"/>
        <rect id="Rectángulo_458854" data-name="Rectángulo 458854" width="19.145" height="18.596" transform="translate(205.84 202.961)" fill="#2e186b"/>
        <path id="Trazado_1009945" data-name="Trazado 1009945" d="M509.018,502.04H489.873a.432.432,0,0,1-.432-.432v-18.6a.432.432,0,0,1,.432-.432h19.145a.432.432,0,0,1,.432.432v18.6a.432.432,0,0,1-.432.432m-18.713-.864h18.282V483.444H490.3Z" transform="translate(-284.033 -280.051)" fill="#2e186b"/>
        <rect id="Rectángulo_458855" data-name="Rectángulo 458855" width="13.599" height="18.596" transform="translate(205.84 184.364)" fill="#2e186b"/>
        <path id="Trazado_1009946" data-name="Trazado 1009946" d="M503.472,457.729h-13.6a.432.432,0,0,1-.432-.432V438.7a.432.432,0,0,1,.432-.432h13.6a.432.432,0,0,1,.432.432v18.6a.432.432,0,0,1-.432.432m-13.167-.864H503.04V439.133H490.3Z" transform="translate(-284.033 -254.337)" fill="#2e186b"/>
        <rect id="Rectángulo_458856" data-name="Rectángulo 458856" width="63.739" height="18.596" transform="translate(155.701 202.961)" fill="#ff7af1"/>
        <rect id="Rectángulo_458857" data-name="Rectángulo 458857" width="63.739" height="18.596" transform="translate(150.154 184.364)" fill="#ff7af1"/>
        <rect id="Rectángulo_458858" data-name="Rectángulo 458858" width="63.737" height="2.112" transform="translate(150.155 184.362)" fill="#fff"/>
        <path id="Trazado_1009947" data-name="Trazado 1009947" d="M420.925,457.729H357.186a.432.432,0,0,1-.432-.432V438.7a.432.432,0,0,1,.432-.432h6.027a.432.432,0,1,1,0,.864h-5.6v17.733h62.875V439.133H371.664a.432.432,0,1,1,0-.864h49.261a.432.432,0,0,1,.432.432v18.6a.432.432,0,0,1-.432.432" transform="translate(-207.032 -254.337)" fill="#2e186b"/>
        <path id="Trazado_1009948" data-name="Trazado 1009948" d="M417,470.106H371.548a.432.432,0,1,1,0-.864H417a.432.432,0,0,1,0,.864" transform="translate(-215.366 -272.311)" fill="#2e186b"/>
        <path id="Trazado_1009949" data-name="Trazado 1009949" d="M402.117,456.993H388.2a.432.432,0,1,1,0-.864h13.914a.432.432,0,0,1,0,.864" transform="translate(-225.032 -264.701)" fill="#2e186b"/>
        <path id="Trazado_1009950" data-name="Trazado 1009950" d="M470.175,455.863h-7a.432.432,0,1,1,0-.864h7a.432.432,0,1,1,0,.864" transform="translate(-268.539 -264.045)" fill="#2e186b"/>
        <rect id="Rectángulo_458859" data-name="Rectángulo 458859" width="63.737" height="2.112" transform="translate(155.701 202.961)" fill="#fff"/>
        <path id="Trazado_1009951" data-name="Trazado 1009951" d="M434.141,502.04H370.4a.432.432,0,0,1-.432-.432v-18.6a.432.432,0,0,1,.432-.432h63.739a.432.432,0,0,1,.432.432v18.6a.432.432,0,0,1-.432.432m-63.307-.864h62.875V483.444H370.834Z" transform="translate(-214.701 -280.051)" fill="#2e186b"/>
        <path id="Trazado_1009952" data-name="Trazado 1009952" d="M430.218,514.417H384.764a.432.432,0,0,1,0-.864h45.454a.432.432,0,0,1,0,.864" transform="translate(-223.036 -298.026)" fill="#2e186b"/>
        <path id="Trazado_1009953" data-name="Trazado 1009953" d="M415.333,501.3H401.419a.432.432,0,1,1,0-.864h13.914a.432.432,0,1,1,0,.864" transform="translate(-232.701 -290.416)" fill="#2e186b"/>
        <path id="Trazado_1009954" data-name="Trazado 1009954" d="M417,470.106H371.548a.432.432,0,1,1,0-.864H417a.432.432,0,0,1,0,.864" transform="translate(-215.366 -272.311)" fill="#2e186b"/>
        <path id="Trazado_1009955" data-name="Trazado 1009955" d="M402.117,456.993H388.2a.432.432,0,1,1,0-.864h13.914a.432.432,0,0,1,0,.864" transform="translate(-225.032 -264.701)" fill="#2e186b"/>
        <path id="Trazado_1009956" data-name="Trazado 1009956" d="M470.175,455.863h-7a.432.432,0,1,1,0-.864h7a.432.432,0,1,1,0,.864" transform="translate(-268.539 -264.045)" fill="#2e186b"/>
        <path id="Trazado_1009957" data-name="Trazado 1009957" d="M430.218,514.417H384.764a.432.432,0,0,1,0-.864h45.454a.432.432,0,0,1,0,.864" transform="translate(-223.036 -298.026)" fill="#2e186b"/>
        <path id="Trazado_1009958" data-name="Trazado 1009958" d="M415.333,501.3H401.419a.432.432,0,1,1,0-.864h13.914a.432.432,0,1,1,0,.864" transform="translate(-232.701 -290.416)" fill="#2e186b"/>
        <path id="Trazado_1009959" data-name="Trazado 1009959" d="M483.391,500.174h-7a.432.432,0,1,1,0-.864h7a.432.432,0,1,1,0,.864" transform="translate(-276.209 -289.76)" fill="#2e186b"/>
        <path id="Trazado_1009960" data-name="Trazado 1009960" d="M429.51,457.729h-9.421a.432.432,0,0,1-.432-.432V438.7a.432.432,0,0,1,.432-.432h9.421a.432.432,0,0,1,.432.432v18.6a.432.432,0,0,1-.432.432m-8.99-.864h8.557V439.133h-8.557Z" transform="translate(-243.536 -254.337)" fill="#2e186b"/>
        <path id="Trazado_1009961" data-name="Trazado 1009961" d="M442.726,502.04H433.3a.432.432,0,0,1-.432-.432v-18.6a.432.432,0,0,1,.432-.432h9.421a.432.432,0,0,1,.432.432v18.6a.432.432,0,0,1-.432.432m-8.989-.864h8.557V483.444h-8.557Z" transform="translate(-251.205 -280.051)" fill="#2e186b"/>
        <rect id="Rectángulo_458860" data-name="Rectángulo 458860" width="9.421" height="18.596" transform="translate(176.553 184.364)" fill="#9654ff"/>
        <rect id="Rectángulo_458861" data-name="Rectángulo 458861" width="9.421" height="18.596" transform="translate(182.1 202.961)" fill="#9654ff"/>
        <rect id="Rectángulo_458862" data-name="Rectángulo 458862" width="4.001" height="18.596" transform="translate(184.81 202.961)" fill="#fff"/>
        <rect id="Rectángulo_458863" data-name="Rectángulo 458863" width="4.001" height="18.596" transform="translate(179.263 184.364)" fill="#fff"/>
        <path id="Trazado_1009962" data-name="Trazado 1009962" d="M429.51,457.729h-9.421a.432.432,0,0,1-.432-.432V438.7a.432.432,0,0,1,.432-.432h9.421a.432.432,0,0,1,.432.432v18.6a.432.432,0,0,1-.432.432m-8.99-.864h8.557V439.133h-8.557Z" transform="translate(-243.536 -254.337)" fill="#2e186b"/>
        <path id="Trazado_1009963" data-name="Trazado 1009963" d="M442.726,502.04H433.3a.432.432,0,0,1-.432-.432v-18.6a.432.432,0,0,1,.432-.432h9.421a.432.432,0,0,1,.432.432v18.6a.432.432,0,0,1-.432.432m-8.989-.864h8.557V483.444h-8.557Z" transform="translate(-251.205 -280.051)" fill="#2e186b"/>
        <path id="Trazado_1009964" data-name="Trazado 1009964" d="M380.4,446.781c-.686,2.507-1.675,4.355-2.207,4.128s-.409-2.445.277-4.952,1.674-4.355,2.208-4.128.409,2.445-.277,4.952" transform="translate(-219.282 -256.392)" fill="#fff"/>
        <path id="Trazado_1009965" data-name="Trazado 1009965" d="M469.132,490.251c-.686,2.507-1.674,4.355-2.208,4.128s-.409-2.445.277-4.952,1.674-4.355,2.208-4.128.409,2.445-.277,4.952" transform="translate(-270.774 -281.618)" fill="#fff"/>
        <path id="Trazado_1009966" data-name="Trazado 1009966" d="M401.042,1.029l-40.95,10.16,8.19,8.6Z" transform="translate(-208.969 -0.597)" fill="#ff7af1"/>
        <path id="Trazado_1009967" data-name="Trazado 1009967" d="M401.042,1.031,397.431,3.1l-36.436,9.039-.9-.95Z" transform="translate(-208.969 -0.598)" fill="#fff"/>
        <path id="Trazado_1009968" data-name="Trazado 1009968" d="M418.961,1.029,390.97,26.014l7.982,8.916Z" transform="translate(-226.888 -0.597)" fill="#ff7af1"/>
        <path id="Trazado_1009969" data-name="Trazado 1009969" d="M416.493,5.216,392.645,26.5l6.8,7.592-.492.838-7.981-8.918L418.963,1.031Z" transform="translate(-226.89 -0.598)" fill="#fff"/>
        <path id="Trazado_1009970" data-name="Trazado 1009970" d="M412.367,1.029l-32.76,18.764V30.783l4.769-4.769Z" transform="translate(-220.294 -0.597)" fill="#ff7af1"/>
        <path id="Trazado_1009971" data-name="Trazado 1009971" d="M412.365,1.031,407.588,5.3,380.575,20.767V29.81l-.972.972V19.8Z" transform="translate(-220.292 -0.598)" fill="#fff"/>
        <path id="Trazado_1009972" data-name="Trazado 1009972" d="M367.685,19.628a.433.433,0,0,1-.313-.134l-8.19-8.6a.432.432,0,0,1,.209-.717L400.34.012a.432.432,0,0,1,.319.794L367.9,19.571a.433.433,0,0,1-.214.057m-7.365-8.8,7.444,7.821L397.541,1.6Z" transform="translate(-208.372 0)" fill="#2e186b"/>
        <path id="Trazado_1009973" data-name="Trazado 1009973" d="M398.355,34.764a.432.432,0,0,1-.322-.144L390.051,25.7a.431.431,0,0,1,.034-.61L418.076.11a.432.432,0,0,1,.659.542l-20.008,33.9a.434.434,0,0,1-.33.21l-.042,0m-7.372-9.314,7.3,8.154,18.3-31Z" transform="translate(-226.291 0)" fill="#2e186b"/>
        <path id="Trazado_1009974" data-name="Trazado 1009974" d="M379.01,30.618a.431.431,0,0,1-.432-.432V19.2a.431.431,0,0,1,.217-.375L411.555.058a.432.432,0,0,1,.5.7L384.067,25.739l-4.751,4.752a.431.431,0,0,1-.305.126m.432-11.171v9.7l4.032-4.031L408.4,2.859Z" transform="translate(-219.697 -0.001)" fill="#2e186b"/>
        <path id="Trazado_1009975" data-name="Trazado 1009975" d="M379.607,65.331l7.462-1.761-2.694-3.008Z" transform="translate(-220.294 -35.145)" fill="#2e186b"/>
        <path id="Trazado_1009976" data-name="Trazado 1009976" d="M379.01,65.165a.432.432,0,0,1-.306-.737l4.769-4.769a.423.423,0,0,1,.317-.126.434.434,0,0,1,.31.144l2.693,3.008a.432.432,0,0,1-.223.708l-7.462,1.761a.423.423,0,0,1-.1.012m4.752-4.573-3.371,3.372,5.275-1.245Z" transform="translate(-219.697 -34.547)" fill="#2e186b"/>
        <path id="Trazado_1009977" data-name="Trazado 1009977" d="M92.509,84.461,75.933,79.094a8.246,8.246,0,0,0-5.069,0l-1.538.5v61.243a8.239,8.239,0,0,0,9.9-1.325L95.8,122.934a8.243,8.243,0,0,0,2.414-5.829V92.3a8.231,8.231,0,0,0-5.7-7.838" transform="translate(-40.231 -45.668)" fill="#2e186b"/>
        <path id="Trazado_1009978" data-name="Trazado 1009978" d="M72.8,141.742a8.649,8.649,0,0,1-4.286-1.133.431.431,0,0,1-.218-.375V78.99a.431.431,0,0,1,.3-.41l1.538-.5a8.628,8.628,0,0,1,5.335,0l16.576,5.367a8.638,8.638,0,0,1,6,8.249V116.5a8.618,8.618,0,0,1-2.54,6.134L78.93,139.214a8.659,8.659,0,0,1-6.129,2.528m-3.64-1.764a7.82,7.82,0,0,0,9.158-1.375L94.9,122.027a7.761,7.761,0,0,0,2.287-5.523V91.7a7.777,7.777,0,0,0-5.4-7.427h0L75.2,78.9a7.773,7.773,0,0,0-4.8,0l-1.239.4Z" transform="translate(-39.634 -45.067)" fill="#2e186b"/>
        <path id="Trazado_1009979" data-name="Trazado 1009979" d="M59.429,92.3V117.1a8.245,8.245,0,0,1-2.414,5.829L40.439,139.509a8.241,8.241,0,0,1-11.646,0L12.211,122.934A8.244,8.244,0,0,1,9.8,117.1V92.3a8.238,8.238,0,0,1,5.7-7.838l16.582-5.367a8.247,8.247,0,0,1,5.069,0L53.726,84.46a8.23,8.23,0,0,1,5.7,7.838" transform="translate(-5.685 -45.668)" fill="#ff7af1"/>
        <path id="Trazado_1009980" data-name="Trazado 1009980" d="M31.486,139.507a8.17,8.17,0,0,0,4.478,2.3,8.211,8.211,0,0,1-7.169-2.3L12.212,122.932A8.247,8.247,0,0,1,9.8,117.1V92.3a8.241,8.241,0,0,1,5.7-7.838l16.584-5.364a8.174,8.174,0,0,1,3.882-.289,8.029,8.029,0,0,0-1.188.289L18.193,84.458a8.245,8.245,0,0,0-5.7,7.838V117.1a8.247,8.247,0,0,0,2.414,5.83Z" transform="translate(-5.686 -45.667)" fill="#fff"/>
        <path id="Trazado_1009981" data-name="Trazado 1009981" d="M34.02,141.749a8.641,8.641,0,0,1-6.129-2.534L11.309,122.639a8.618,8.618,0,0,1-2.54-6.134V91.7a8.642,8.642,0,0,1,6-8.249l16.582-5.367a8.632,8.632,0,0,1,5.335,0l16.576,5.367a8.639,8.639,0,0,1,6,8.249V116.5a8.617,8.617,0,0,1-2.541,6.134L40.148,139.214a8.639,8.639,0,0,1-6.128,2.534m0-63.225a7.8,7.8,0,0,0-2.4.381L15.036,84.271a7.781,7.781,0,0,0-5.4,7.427V116.5a7.76,7.76,0,0,0,2.288,5.524L28.5,138.6a7.811,7.811,0,0,0,11.035,0l16.576-16.576A7.76,7.76,0,0,0,58.4,116.5V91.7A7.778,7.778,0,0,0,53,84.271h0L36.421,78.9a7.808,7.808,0,0,0-2.4-.38" transform="translate(-5.089 -45.067)" fill="#2e186b"/>
        <path id="Trazado_1009982" data-name="Trazado 1009982" d="M47.929,145.209a2.915,2.915,0,0,1-2.068-.857l-5.789-5.789a2.925,2.925,0,1,1,4.136-4.136l3.72,3.72,11.233-11.233a2.925,2.925,0,0,1,4.136,4.136L50,144.352a2.915,2.915,0,0,1-2.068.857" transform="translate(-22.758 -73.154)" fill="#fff"/>
        <path id="Trazado_1009983" data-name="Trazado 1009983" d="M352.381,152.262c-3.807,5.559-7.876,9.393-9.089,8.563s.891-6.01,4.7-11.569,7.876-9.393,9.089-8.563-.891,6.01-4.7,11.569" transform="translate(-199.021 -81.581)" fill="#fff"/>
        <path id="Trazado_1009984" data-name="Trazado 1009984" d="M171.629,181.97c-3.807,5.559-7.877,9.393-9.089,8.563s.891-6.01,4.7-11.569,7.877-9.393,9.089-8.563-.891,6.01-4.7,11.569" transform="translate(-94.127 -98.821)" fill="#fff"/>
        <path id="Trazado_1009985" data-name="Trazado 1009985" d="M310.738,412.779c-3.807,5.559-7.876,9.393-9.089,8.563s.891-6.01,4.7-11.569,7.877-9.393,9.089-8.563-.891,6.01-4.7,11.569" transform="translate(-174.855 -232.765)" fill="#fff"/>
        <path id="Trazado_1009986" data-name="Trazado 1009986" d="M278.248,10.48a.432.432,0,0,1-.31-.733L287.174.231a.432.432,0,1,1,.62.6l-9.236,9.516a.431.431,0,0,1-.31.131" transform="translate(-161.222 -0.058)" fill="#2e186b"/>
        <path id="Trazado_1009987" data-name="Trazado 1009987" d="M254.7,14.075a.432.432,0,0,1-.31-.733l9.236-9.515a.432.432,0,1,1,.62.6l-9.236,9.516a.431.431,0,0,1-.31.131" transform="translate(-147.557 -2.145)" fill="#2e186b"/>
        <path id="Trazado_1009988" data-name="Trazado 1009988" d="M.432,327.583a.432.432,0,0,1-.308-.734l11.693-11.942a.432.432,0,0,1,.617.6L.74,327.454a.431.431,0,0,1-.308.13" transform="translate(0 -182.672)" fill="#2e186b"/>
        <path id="Trazado_1009989" data-name="Trazado 1009989" d="M2.8,348.364a.432.432,0,0,1-.3-.74l6.469-6.344a.432.432,0,0,1,.6.617L3.1,348.241a.43.43,0,0,1-.3.123" transform="translate(-1.376 -197.98)" fill="#2e186b"/>
        <path id="Trazado_1009990" data-name="Trazado 1009990" d="M509.058,223.25a.432.432,0,0,1-.305-.737l8.458-8.458a.432.432,0,1,1,.611.611l-8.458,8.458a.43.43,0,0,1-.306.127" transform="translate(-295.167 -124.147)" fill="#2e186b"/>
        <path id="Trazado_1009991" data-name="Trazado 1009991" d="M510.837,226.333a.432.432,0,0,1-.3-.741l15.176-14.8a.432.432,0,0,1,.6.618l-15.175,14.8a.433.433,0,0,1-.3.123" transform="translate(-296.198 -122.255)" fill="#2e186b"/>
      </g>
    </g>
  </g>
</svg>
