<svg xmlns="http://www.w3.org/2000/svg" width="150" height="150" viewBox="0 0 150 150">
  <g id="Grupo_1177488" data-name="Grupo 1177488" transform="translate(-383.746 -8400)">
    <circle id="Elipse_13609" data-name="Elipse 13609" cx="75" cy="75" r="75" transform="translate(383.746 8400)" fill="#cfa9e6"/>
    <g id="Layer_2" transform="translate(419.012 8434.717)">
      <g id="Grupo_1184419" data-name="Grupo 1184419" transform="translate(4.008 2)">
        <path id="Trazado_1011319" data-name="Trazado 1011319" d="M41.467,53.334h0c.591.068,1.8.2,5.654-4.531,1.051-1.291,6.253-7.859,5.444-10.333-1.489-4.551-23.116-20.53-27.91-20.58-2.61,0-7.323,6.864-8.244,8.244-3.39,5.08-2.9,6.2-2.664,6.748.17.387.674,1.532,9.1,7.995L5.348,62.848A6.195,6.195,0,1,0,15.31,70.2L31.144,46.993c8.664,6.149,9.9,6.292,10.324,6.341Zm-11.7-8.855L13.2,68.761a3.642,3.642,0,1,1-5.857-4.323L25.662,41.447a1.277,1.277,0,0,0-.226-1.811c-6.357-4.831-8.789-7.087-9.275-7.682.34-2.226,6.849-11,8.482-11.512,3.641.054,24.374,15.353,25.474,18.7.015,1.825-6.422,10.6-8.463,11.613-.807-.33-3.688-2.008-10.087-6.591a1.283,1.283,0,0,0-1.8.318Z" transform="translate(-4.008 2.387)" fill="#53435c"/>
        <path id="Trazado_1011320" data-name="Trazado 1011320" d="M28.37,39.364c3.345.068,4.544-4.355,1.862-6.2l-2.464-1.819c-.713-.464-.529-1.55.232-1.59.6-.138,1.548.857,2.01,1.13h0l3.08,2.273A1.276,1.276,0,0,0,34.606,31.1l-2.053-1.515.505-.685A1.276,1.276,0,1,0,31,27.388l-.505.685A3.414,3.414,0,1,0,26.253,33.4l2.464,1.819c.653.409.6,1.531-.232,1.59-.6.138-1.547-.855-2.009-1.129,0,0-3.078-2.275-3.082-2.275a1.276,1.276,0,0,0-1.515,2.054l2.053,1.516-.505.684a1.276,1.276,0,1,0,2.054,1.515l.5-.684a3.784,3.784,0,0,0,2.384.877Z" transform="translate(0.782 4.866)" fill="#53435c"/>
        <path id="Trazado_1011321" data-name="Trazado 1011321" d="M71.512,64.949a2.358,2.358,0,0,0,.085-.42s0-61.253,0-61.253A1.276,1.276,0,0,0,70.321,2H19.277A1.276,1.276,0,0,0,18,3.276V18.64a1.276,1.276,0,1,0,2.552,0V4.552H69.045v58.7H56.284a1.276,1.276,0,0,0-1.276,1.276V76.014H20.553V69.9A1.276,1.276,0,1,0,18,69.9V77.29a1.276,1.276,0,0,0,1.276,1.276H56.284a1.273,1.273,0,0,0,.475-.1c.129-.077.261-.148.383-.236L71.179,65.473a1.541,1.541,0,0,0,.333-.524ZM57.56,74.405v-8.6H67.02Z" transform="translate(-0.145 -2)" fill="#53435c"/>
        <path id="Trazado_1011322" data-name="Trazado 1011322" d="M60.246,8.276A1.276,1.276,0,0,0,58.97,7H37.277A1.276,1.276,0,0,0,36,8.276v6.381a1.276,1.276,0,0,0,1.276,1.276H58.97a1.276,1.276,0,0,0,1.276-1.276Zm-2.552,5.1H38.553V9.552H57.694Z" transform="translate(4.825 -0.619)" fill="#53435c"/>
        <path id="Trazado_1011323" data-name="Trazado 1011323" d="M57.308,17H43.271a1.276,1.276,0,0,0,0,2.552H57.308a1.276,1.276,0,0,0,0-2.552Z" transform="translate(6.487 2.142)" fill="#53435c"/>
        <path id="Trazado_1011324" data-name="Trazado 1011324" d="M58.413,21H39.271a1.276,1.276,0,0,0,0,2.552H58.413a1.276,1.276,0,0,0,0-2.552Z" transform="translate(5.383 3.246)" fill="#53435c"/>
        <path id="Trazado_1011325" data-name="Trazado 1011325" d="M37.485,49H27.277A1.276,1.276,0,0,0,26,50.276v8.933a1.276,1.276,0,0,0,1.276,1.276H37.485a1.276,1.276,0,0,0,1.276-1.276V50.276A1.276,1.276,0,0,0,37.485,49Zm-1.276,8.933H28.553V51.552h7.657Z" transform="translate(2.064 10.977)" fill="#53435c"/>
      </g>
    </g>
  </g>
</svg>
