<svg xmlns="http://www.w3.org/2000/svg" width="110.961" height="53.562" viewBox="0 0 110.961 53.562">
  <g id="Grupo_1184430" data-name="Grupo 1184430" transform="translate(-217 -7868.732)">
    <g id="Grupo_1183510" data-name="Grupo 1183510" transform="translate(330.211 7925.5) rotate(180)">
      <path id="Trazado_1009090" data-name="Trazado 1009090" d="M29.406,3.581a1.06,1.06,0,0,1,.654.979V16.22h7.42a1.06,1.06,0,0,1,1.06,1.06V42.72a1.06,1.06,0,0,1-1.06,1.06H30.06V55.44a1.06,1.06,0,0,1-1.81.75L2.81,30.75a1.06,1.06,0,0,1,0-1.5L28.25,3.811a1.06,1.06,0,0,1,1.155-.23ZM5.059,30,27.94,52.881V42.72A1.06,1.06,0,0,1,29,41.66h7.42V18.34H29a1.06,1.06,0,0,1-1.06-1.06V7.119Z" transform="translate(0 0)" fill="#53435c" stroke="#53435c" stroke-width="0.5" fill-rule="evenodd"/>
      <path id="Trazado_1009091" data-name="Trazado 1009091" d="M27.56,9.5a1.06,1.06,0,0,1,1.06,1.06V36a1.06,1.06,0,1,1-2.12,0V10.56A1.06,1.06,0,0,1,27.56,9.5Z" transform="translate(26.88 6.72)" fill="#53435c" stroke="#53435c" stroke-width="0.5" fill-rule="evenodd"/>
      <path id="Trazado_1009092" data-name="Trazado 1009092" d="M23.56,9.5a1.06,1.06,0,0,1,1.06,1.06V36a1.06,1.06,0,1,1-2.12,0V10.56A1.06,1.06,0,0,1,23.56,9.5Z" transform="translate(22.4 6.72)" fill="#53435c" stroke="#53435c" stroke-width="0.5" fill-rule="evenodd"/>
    </g>
    <g id="Grupo_1184429" data-name="Grupo 1184429" transform="translate(217 7855.436)">
      <g id="Grupo_1184428" data-name="Grupo 1184428" transform="translate(0 15.147)">
        <g id="Grupo_1184425" data-name="Grupo 1184425" transform="translate(0 0)">
          <path id="Trazado_1011327" data-name="Trazado 1011327" d="M253.117,111.3a.826.826,0,0,1-.828-.828v-3.52H247.81a.828.828,0,0,1,0-1.656h5.307a.826.826,0,0,1,.828.828v4.348A.828.828,0,0,1,253.117,111.3Z" transform="translate(-221.181 -95.874)" fill="#53435c"/>
          <path id="Trazado_1011328" data-name="Trazado 1011328" d="M61.075,142.282H33.365a.826.826,0,0,1-.828-.828V106.087a.826.826,0,0,1,.828-.828h5.307a.828.828,0,0,1,0,1.656H34.193v33.707H60.246v-3.14a.828.828,0,1,1,1.656,0v3.968a.829.829,0,0,1-.828.832Z" transform="translate(-29.138 -95.845)" fill="#53435c"/>
          <path id="Trazado_1011329" data-name="Trazado 1011329" d="M101.263,55.674H84.168a.826.826,0,0,1-.828-.828V48.669a2.342,2.342,0,0,1,2.34-2.34h2.485a.828.828,0,0,1,0,1.656H85.68a.685.685,0,0,0-.683.683v5.349h15.439V48.669a.685.685,0,0,0-.683-.683H97.267a.828.828,0,0,1,0-1.656h2.484a2.342,2.342,0,0,1,2.34,2.34v6.177a.826.826,0,0,1-.828.828Z" transform="translate(-74.634 -43.072)" fill="#53435c"/>
          <path id="Trazado_1011330" data-name="Trazado 1011330" d="M35.339,116.543H.828A.826.826,0,0,1,0,115.715V73.55a.826.826,0,0,1,.828-.828H9.534a.828.828,0,0,1,0,1.656H1.656v40.508H34.511V108.51a.828.828,0,0,1,1.656,0v7.205A.831.831,0,0,1,35.339,116.543Z" transform="translate(0 -66.707)" fill="#53435c"/>
          <path id="Trazado_1011331" data-name="Trazado 1011331" d="M256.52,81.967a.826.826,0,0,1-.828-.828v-6.76H247.81a.828.828,0,0,1,0-1.656h8.706a.826.826,0,0,1,.828.828v7.588A.825.825,0,0,1,256.52,81.967Z" transform="translate(-221.181 -66.707)" fill="#53435c"/>
          <path id="Trazado_1011332" data-name="Trazado 1011332" d="M131.523,21.866h-9.1a.826.826,0,0,1-.828-.828V15.975a.826.826,0,0,1,.828-.828h9.1a.826.826,0,0,1,.828.828v5.062A.826.826,0,0,1,131.523,21.866Zm-8.275-1.656h7.447V16.8h-7.447Z" transform="translate(-108.89 -15.147)" fill="#53435c"/>
          <g id="Grupo_1184424" data-name="Grupo 1184424" transform="translate(7.921 16.199)">
            <g id="Grupo_1184420" data-name="Grupo 1184420">
              <path id="Trazado_1011333" data-name="Trazado 1011333" d="M149.373,189.759h-8.685a.828.828,0,1,1,0-1.656h8.685a.828.828,0,0,1,0,1.656Z" transform="translate(-133.17 -186.235)" fill="#53435c"/>
              <path id="Trazado_1011334" data-name="Trazado 1011334" d="M77.732,174.367a.828.828,0,0,1-.587-.242l-1.077-1.077a.827.827,0,0,1,1.17-1.17l.49.49,1.908-1.908a.827.827,0,0,1,1.17,1.17l-2.495,2.495A.814.814,0,0,1,77.732,174.367Z" transform="translate(-75.825 -170.217)" fill="#53435c"/>
            </g>
            <g id="Grupo_1184421" data-name="Grupo 1184421" transform="translate(0 6.684)">
              <path id="Trazado_1011335" data-name="Trazado 1011335" d="M146.049,253.776h-5.362a.828.828,0,1,1,0-1.656h5.362a.828.828,0,1,1,0,1.656Z" transform="translate(-133.169 -250.248)" fill="#53435c"/>
              <path id="Trazado_1011336" data-name="Trazado 1011336" d="M77.733,238.351a.828.828,0,0,1-.587-.242l-1.077-1.077a.827.827,0,0,1,1.17-1.17l.49.49,1.908-1.908a.827.827,0,0,1,1.17,1.17l-2.495,2.495A.8.8,0,0,1,77.733,238.351Z" transform="translate(-75.826 -234.201)" fill="#53435c"/>
            </g>
            <g id="Grupo_1184422" data-name="Grupo 1184422" transform="translate(0 13.372)">
              <path id="Trazado_1011337" data-name="Trazado 1011337" d="M146.452,317.759h-5.766a.828.828,0,1,1,0-1.656h5.766a.828.828,0,1,1,0,1.656Z" transform="translate(-133.169 -314.235)" fill="#53435c"/>
              <path id="Trazado_1011338" data-name="Trazado 1011338" d="M77.732,302.367a.828.828,0,0,1-.587-.242l-1.077-1.077a.827.827,0,0,1,1.17-1.17l.49.49,1.908-1.908a.827.827,0,0,1,1.17,1.17l-2.495,2.495A.8.8,0,0,1,77.732,302.367Z" transform="translate(-75.825 -298.217)" fill="#53435c"/>
            </g>
            <g id="Grupo_1184423" data-name="Grupo 1184423" transform="translate(0 20.059)">
              <path id="Trazado_1011339" data-name="Trazado 1011339" d="M151.118,381.776H140.686a.828.828,0,1,1,0-1.656h10.432a.828.828,0,0,1,0,1.656Z" transform="translate(-133.169 -378.252)" fill="#53435c"/>
              <path id="Trazado_1011340" data-name="Trazado 1011340" d="M77.733,366.384a.828.828,0,0,1-.587-.242l-1.077-1.077a.827.827,0,0,1,1.17-1.17l.49.49,1.908-1.908a.827.827,0,1,1,1.17,1.17l-2.495,2.495A.815.815,0,0,1,77.733,366.384Z" transform="translate(-75.826 -362.234)" fill="#53435c"/>
            </g>
          </g>
        </g>
        <g id="Grupo_1184427" data-name="Grupo 1184427" transform="translate(19.735 9.403)">
          <path id="Trazado_1011341" data-name="Trazado 1011341" d="M203.467,174.041a14.509,14.509,0,1,1,5.666-1.146A14.471,14.471,0,0,1,203.467,174.041Zm0-27.451a12.9,12.9,0,1,0,12.9,12.9A12.911,12.911,0,0,0,203.467,146.591Z" transform="translate(-188.912 -140.776)" fill="#53435c"/>
          <path id="Trazado_1011342" data-name="Trazado 1011342" d="M243.018,209.011a9.944,9.944,0,1,1,7.029-2.912A9.875,9.875,0,0,1,243.018,209.011Zm0-18.227a8.283,8.283,0,1,0,5.859,2.426A8.244,8.244,0,0,0,243.018,190.784Z" transform="translate(-228.462 -180.356)" fill="#53435c"/>
          <path id="Trazado_1011343" data-name="Trazado 1011343" d="M282.568,243.948a5.334,5.334,0,0,1-2.043-.4,5.307,5.307,0,0,1-3.285-4.928,5.321,5.321,0,0,1,.4-2.043,5.307,5.307,0,0,1,4.928-3.285,5.321,5.321,0,0,1,2.043.4,5.307,5.307,0,0,1,3.285,4.928,5.322,5.322,0,0,1-.4,2.043,5.307,5.307,0,0,1-4.928,3.285Zm0-9a3.626,3.626,0,1,0,1.408.276A3.656,3.656,0,0,0,282.568,234.945Z" transform="translate(-268.013 -219.906)" fill="#53435c"/>
          <g id="Grupo_1184426" data-name="Grupo 1184426" transform="translate(13.725)">
            <path id="Trazado_1011344" data-name="Trazado 1011344" d="M321.127,167.166a.826.826,0,0,1-.587-1.411l12.93-12.933a.827.827,0,0,1,1.17,1.17l-12.93,12.93A.812.812,0,0,1,321.127,167.166Z" transform="translate(-320.297 -147.624)" fill="#53435c"/>
            <path id="Trazado_1011345" data-name="Trazado 1011345" d="M444.9,111.769a.827.827,0,0,1-.828-.876l.145-2.464a.818.818,0,0,1,.242-.538l2.491-2.491a.828.828,0,0,1,1.411.635l-.09,1.532,1.532-.09a.828.828,0,0,1,.635,1.411l-2.491,2.491a.835.835,0,0,1-.538.242l-2.464.145A.167.167,0,0,1,444.9,111.769Zm.952-2.93-.072,1.218,1.218-.072.728-.728-.29.017a.829.829,0,0,1-.876-.876l.017-.29Z" transform="translate(-431.142 -105.157)" fill="#53435c"/>
          </g>
        </g>
      </g>
    </g>
  </g>
</svg>
