<svg xmlns="http://www.w3.org/2000/svg" width="150" height="150" viewBox="0 0 150 150">
  <g id="Grupo_1177470" data-name="Grupo 1177470" transform="translate(-383.746 -8400)">
    <circle id="Elipse_13609" data-name="Elipse 13609" cx="75" cy="75" r="75" transform="translate(383.746 8400)" fill="#fff"/>
    <g id="Grupo_1184394" data-name="Grupo 1184394" transform="translate(412.091 8432.031)">
      <path id="Trazado_1011275" data-name="Trazado 1011275" d="M85.7,26l-2.46-1.564a13.48,13.48,0,1,0-21.1-13.421L48.381,2.267a4.323,4.323,0,0,0-4.62,0L6.441,26a4.3,4.3,0,0,0,2.287,7.937v3.649a2.333,2.333,0,0,0,2.33,2.33h1.512V69.5a2.9,2.9,0,0,0-2.491,2.86v2.52a3.993,3.993,0,0,0-3.458,3.951v3.117a3.992,3.992,0,0,0,3.987,3.987H69.354a1.266,1.266,0,0,0,0-2.531H10.61a1.458,1.458,0,0,1-1.456-1.456V78.832a1.458,1.458,0,0,1,1.456-1.456H82.756a1.458,1.458,0,0,1,1.456,1.456v3.117A1.458,1.458,0,0,1,82.756,83.4H75.091a1.266,1.266,0,0,0,0,2.531h7.664a3.992,3.992,0,0,0,3.987-3.987V78.832a3.992,3.992,0,0,0-3.987-3.987h-.429V72.361a2.9,2.9,0,0,0-2.594-2.876V39.917h1.352a2.333,2.333,0,0,0,2.331-2.33V33.938A4.3,4.3,0,0,0,85.7,26ZM75.391,2.531A10.953,10.953,0,1,1,64.438,13.484,10.965,10.965,0,0,1,75.391,2.531ZM23.2,39.917V69.469H15.1V39.917Zm2.55,34.927H12.611V72.361a.363.363,0,0,1,.365-.36H25.385a.364.364,0,0,1,.367.36Zm29.413,0H37.242V57.693c0-1.93,1.14-3.56,2.488-3.56H52.676c1.349,0,2.489,1.63,2.489,3.56Zm24.631,0H66.655V72.361a.363.363,0,0,1,.365-.36H79.431a.363.363,0,0,1,.365.36ZM77.2,69.47H69.1V39.917h8.1Zm7.894-39.34a1.721,1.721,0,0,1-1.7,1.278H35.858a1.266,1.266,0,0,0,0,2.531H80.883v3.447H60.917a1.266,1.266,0,1,0,0,2.531H66.57V69.508a2.9,2.9,0,0,0-2.446,2.853v2.483H57.7V57.693c0-3.359-2.252-6.091-5.02-6.091H39.73c-2.768,0-5.02,2.732-5.02,6.091V74.845H28.283V72.361a2.9,2.9,0,0,0-2.55-2.869V39.917H55.179a1.266,1.266,0,1,0,0-2.531H11.26V33.939H30.12a1.266,1.266,0,1,0,0-2.531H8.75A1.774,1.774,0,0,1,7.8,28.137L45.119,4.4a1.781,1.781,0,0,1,1.9,0l14.894,9.472A13.474,13.474,0,0,0,80.752,25.853l3.591,2.284a1.721,1.721,0,0,1,.752,1.993Z" fill="#53435c"/>
      <path id="Trazado_1011276" data-name="Trazado 1011276" d="M210.184,64.639A9.056,9.056,0,1,0,219.24,73.7,9.066,9.066,0,0,0,210.184,64.639Zm0,15.581a6.525,6.525,0,1,1,6.525-6.525A6.532,6.532,0,0,1,210.184,80.22Z" transform="translate(-163.501 -53.731)" fill="#53435c"/>
      <path id="Trazado_1011277" data-name="Trazado 1011277" d="M384.024,47.311a8.3,8.3,0,1,0-8.3-8.3A8.311,8.311,0,0,0,384.024,47.311Zm0-14.073a5.771,5.771,0,1,1-5.771,5.771,5.777,5.777,0,0,1,5.771-5.771Z" transform="translate(-308.633 -25.525)" fill="#53435c"/>
    </g>
  </g>
</svg>
