<svg xmlns="http://www.w3.org/2000/svg" width="150" height="150" viewBox="0 0 150 150">
  <g id="Grupo_1177472" data-name="Grupo 1177472" transform="translate(-383.746 -8400)">
    <circle id="Elipse_13609" data-name="Elipse 13609" cx="75" cy="75" r="75" transform="translate(383.746 8400)" fill="#fff"/>
    <g id="Grupo_1184396" data-name="Grupo 1184396" transform="translate(420.248 8427.472)">
      <path id="Trazado_1011282" data-name="Trazado 1011282" d="M73.612,10.63H20.419a1.128,1.128,0,0,0,0,2.256H73.612a1.129,1.129,0,0,1,1.128,1.128v3.881a1.129,1.129,0,0,1-1.128,1.128H3.384a1.129,1.129,0,0,1-1.128-1.128V14.014a1.129,1.129,0,0,1,1.128-1.128H15.156a1.128,1.128,0,1,0,0-2.256H3.384A3.387,3.387,0,0,0,0,14.014v3.881a3.386,3.386,0,0,0,1.76,2.968V64.333A4.14,4.14,0,0,0,5.9,68.468H37.509v6.941a4.58,4.58,0,1,0,2.256,0V68.468H55.123a1.128,1.128,0,0,0,0-2.256H5.9a1.882,1.882,0,0,1-1.88-1.88V21.278H72.979V64.333a1.882,1.882,0,0,1-1.88,1.88H60.386a1.128,1.128,0,0,0,0,2.256H71.1a4.14,4.14,0,0,0,4.135-4.135V20.862A3.386,3.386,0,0,0,77,17.894V14.014A3.387,3.387,0,0,0,73.612,10.63ZM40.961,79.848a2.324,2.324,0,1,1-2.324-2.324A2.327,2.327,0,0,1,40.961,79.848Z" fill="#53435c"/>
      <path id="Trazado_1011283" data-name="Trazado 1011283" d="M70.36,112.282a1.128,1.128,0,0,0-1.128-1.128H49.416a1.128,1.128,0,1,0,0,2.256H69.232A1.128,1.128,0,0,0,70.36,112.282Z" transform="translate(-41.026 -85.407)" fill="#53435c"/>
      <path id="Trazado_1011284" data-name="Trazado 1011284" d="M65.528,149.356a1.128,1.128,0,0,0-1.128-1.128H49.416a1.128,1.128,0,1,0,0,2.256H64.4A1.128,1.128,0,0,0,65.528,149.356Z" transform="translate(-41.026 -116.906)" fill="#53435c"/>
      <path id="Trazado_1011285" data-name="Trazado 1011285" d="M412,113.41h5.69a1.128,1.128,0,0,0,0-2.256H412a1.128,1.128,0,1,0,0,2.256Z" transform="translate(-349.089 -85.407)" fill="#53435c"/>
      <path id="Trazado_1011286" data-name="Trazado 1011286" d="M412,150.484h5.69a1.128,1.128,0,0,0,0-2.256H412a1.128,1.128,0,1,0,0,2.256Z" transform="translate(-349.089 -116.906)" fill="#53435c"/>
      <path id="Trazado_1011287" data-name="Trazado 1011287" d="M412,297.258h5.69a1.128,1.128,0,0,0,0-2.256H412a1.128,1.128,0,1,0,0,2.256Z" transform="translate(-349.089 -241.608)" fill="#53435c"/>
      <path id="Trazado_1011288" data-name="Trazado 1011288" d="M393.334,333.2a1.128,1.128,0,0,0-1.128-1.128H382a1.128,1.128,0,0,0,0,2.256h10.2A1.128,1.128,0,0,0,393.334,333.2Z" transform="translate(-323.6 -273.106)" fill="#53435c"/>
      <path id="Trazado_1011289" data-name="Trazado 1011289" d="M49.416,187.556H60.8a1.128,1.128,0,0,0,0-2.256H49.416a1.128,1.128,0,0,0,0,2.256Z" transform="translate(-41.026 -148.403)" fill="#53435c"/>
      <path id="Trazado_1011290" data-name="Trazado 1011290" d="M196.909,160.141a16.849,16.849,0,1,0-16.849-16.849A16.868,16.868,0,0,0,196.909,160.141ZM211.5,143.292a14.529,14.529,0,0,1-3.513,9.485l-3.767-3.767a9.282,9.282,0,0,0-13.032-13.032l-3.767-3.767A14.585,14.585,0,0,1,211.5,143.292Zm-14.593-7.034a7.034,7.034,0,1,1-7.034,7.034A7.042,7.042,0,0,1,196.909,136.257Zm-11.081-2.451,3.767,3.767a9.282,9.282,0,0,0,13.032,13.032l3.767,3.767a14.585,14.585,0,0,1-20.566-20.566Z" transform="translate(-152.982 -98.397)" fill="#53435c"/>
      <path id="Trazado_1011291" data-name="Trazado 1011291" d="M48.288,296.909a3.387,3.387,0,0,0,3.384,3.384h9.021a3.387,3.387,0,0,0,3.384-3.384V295.4a3.387,3.387,0,0,0-3.384-3.384H51.672a3.387,3.387,0,0,0-3.384,3.384Zm2.256-1.513a1.129,1.129,0,0,1,1.128-1.128h9.021A1.129,1.129,0,0,1,61.82,295.4v1.513a1.129,1.129,0,0,1-1.128,1.128H51.672a1.129,1.129,0,0,1-1.128-1.128Z" transform="translate(-41.026 -239.067)" fill="#53435c"/>
      <path id="Trazado_1011292" data-name="Trazado 1011292" d="M49.416,258.4h7.492a1.128,1.128,0,0,0,0-2.256H49.416a1.128,1.128,0,0,0,0,2.256Z" transform="translate(-41.026 -208.594)" fill="#53435c"/>
    </g>
  </g>
</svg>
