<svg xmlns="http://www.w3.org/2000/svg" width="84" height="84" viewBox="0 0 84 84">
  <g id="Grupo_1182445" data-name="Grupo 1182445" transform="translate(-383.746 -8400)">
    <circle id="Elipse_13609" data-name="Elipse 13609" cx="42" cy="42" r="42" transform="translate(383.746 8400)" fill="#cfa9e6"/>
    <g id="Grupo_1184369" data-name="Grupo 1184369" transform="translate(400.879 8417.133)">
      <g id="Grupo_1184350" data-name="Grupo 1184350">
        <g id="Grupo_1184349" data-name="Grupo 1184349">
          <path id="Trazado_1011175" data-name="Trazado 1011175" d="M46.342,42.788A3.4,3.4,0,0,0,49.733,39.4V4.857A4.862,4.862,0,0,0,44.877,0H4.857A4.862,4.862,0,0,0,0,4.857V39.4a3.4,3.4,0,0,0,3.392,3.392H4.468v5H.971a.971.971,0,1,0,0,1.943H48.762a.971.971,0,0,0,0-1.943h-3.5v-5ZM1.943,4.857A2.917,2.917,0,0,1,4.857,1.943h40.02a2.917,2.917,0,0,1,2.914,2.914V6.994H2.04c-.033,0-.065,0-.1,0Zm8.742,42.934H6.411V39.048h4.274Zm10.879,0H17.29V28.308h4.274Zm10.879,0H28.169V36.523h4.274ZM44.294,24.915H38.077a.971.971,0,0,0-.971.971v4.905a.971.971,0,1,0,1.943,0V26.858h4.274V47.791H39.048V37.324a.971.971,0,1,0-1.943,0V47.791h-2.72V35.552a.971.971,0,0,0-.971-.971H27.2a.971.971,0,0,0-.971.971V47.791h-2.72V27.337a.971.971,0,0,0-.971-.971H16.319a.971.971,0,0,0-.971.971V47.791h-2.72V38.077a.971.971,0,0,0-.971-.971H5.44a.971.971,0,0,0-.971.971v2.769H3.392A1.451,1.451,0,0,1,1.943,39.4V8.932c.032,0,.065,0,.1,0h45.75V39.4a1.451,1.451,0,0,1-1.449,1.449H45.265V25.887A.971.971,0,0,0,44.294,24.915Z" fill="#53435c"/>
        </g>
      </g>
      <g id="Grupo_1184352" data-name="Grupo 1184352" transform="translate(20.599 3.497)">
        <g id="Grupo_1184351" data-name="Grupo 1184351">
          <path id="Trazado_1011176" data-name="Trazado 1011176" d="M234.983,36H213.036a.971.971,0,0,0,0,1.943h21.946a.971.971,0,1,0,0-1.943Z" transform="translate(-212.065 -36)" fill="#53435c"/>
        </g>
      </g>
      <g id="Grupo_1184354" data-name="Grupo 1184354" transform="translate(9.131 3.497)">
        <g id="Grupo_1184353" data-name="Grupo 1184353">
          <path id="Trazado_1011177" data-name="Trazado 1011177" d="M95.658,36.285a.971.971,0,1,0,.285.687A.979.979,0,0,0,95.658,36.285Z" transform="translate(-94 -36)" fill="#53435c"/>
        </g>
      </g>
      <g id="Grupo_1184356" data-name="Grupo 1184356" transform="translate(5.245 3.497)">
        <g id="Grupo_1184355" data-name="Grupo 1184355">
          <path id="Trazado_1011178" data-name="Trazado 1011178" d="M55.658,36.285a.971.971,0,1,0,.285.687A.979.979,0,0,0,55.658,36.285Z" transform="translate(-54 -36)" fill="#53435c"/>
        </g>
      </g>
      <g id="Grupo_1184358" data-name="Grupo 1184358" transform="translate(13.016 3.497)">
        <g id="Grupo_1184357" data-name="Grupo 1184357">
          <path id="Trazado_1011179" data-name="Trazado 1011179" d="M135.658,36.285a.971.971,0,1,0,.285.687A.977.977,0,0,0,135.658,36.285Z" transform="translate(-134 -36)" fill="#53435c"/>
        </g>
      </g>
      <g id="Grupo_1184360" data-name="Grupo 1184360" transform="translate(37.106 33.283)">
        <g id="Grupo_1184359" data-name="Grupo 1184359">
          <path id="Trazado_1011180" data-name="Trazado 1011180" d="M383.658,342.925a.971.971,0,1,0,.285.687A.975.975,0,0,0,383.658,342.925Z" transform="translate(-382 -342.64)" fill="#53435c"/>
        </g>
      </g>
      <g id="Grupo_1184362" data-name="Grupo 1184362" transform="translate(4.987 13.205)">
        <g id="Grupo_1184361" data-name="Grupo 1184361">
          <path id="Trazado_1011181" data-name="Trazado 1011181" d="M87.535,135.939a3.494,3.494,0,0,0-2.829,5.548l-6.452,6.452a3.489,3.489,0,0,0-3.225-.079l-6.737-6.737a3.5,3.5,0,1,0-6.035.15L56.52,147.01a3.5,3.5,0,1,0,1.374,1.374l5.8-5.8a3.489,3.489,0,0,0,3.218-.082l6.671,6.671a3.5,3.5,0,1,0,6.038.145l6.625-6.625a3.5,3.5,0,1,0,1.283-6.749Zm-32.7,15.687a1.554,1.554,0,1,1,1.554-1.554A1.556,1.556,0,0,1,54.833,151.626Zm10.4-10.636a1.554,1.554,0,1,1,1.554-1.554A1.556,1.556,0,0,1,65.23,140.99Zm11.336,11.565A1.554,1.554,0,1,1,78.12,151,1.556,1.556,0,0,1,76.566,152.555ZM87.535,140.99a1.554,1.554,0,1,1,1.554-1.554A1.556,1.556,0,0,1,87.535,140.99Z" transform="translate(-51.336 -135.939)" fill="#53435c"/>
        </g>
      </g>
      <g id="Grupo_1184364" data-name="Grupo 1184364" transform="translate(12.75 12.241)">
        <g id="Grupo_1184363" data-name="Grupo 1184363">
          <path id="Trazado_1011182" data-name="Trazado 1011182" d="M132.918,126.3a.971.971,0,1,0,.285.687A.981.981,0,0,0,132.918,126.3Z" transform="translate(-131.26 -126.02)" fill="#53435c"/>
        </g>
      </g>
      <g id="Grupo_1184366" data-name="Grupo 1184366" transform="translate(4.468 12.241)">
        <g id="Grupo_1184365" data-name="Grupo 1184365">
          <path id="Trazado_1011183" data-name="Trazado 1011183" d="M51.634,126.021H46.971a.971.971,0,1,0,0,1.943h4.663a.971.971,0,1,0,0-1.943Z" transform="translate(-46 -126.021)" fill="#53435c"/>
        </g>
      </g>
      <g id="Grupo_1184368" data-name="Grupo 1184368" transform="translate(4.468 16.904)">
        <g id="Grupo_1184367" data-name="Grupo 1184367">
          <path id="Trazado_1011184" data-name="Trazado 1011184" d="M51.634,174.021H46.971a.971.971,0,1,0,0,1.943h4.663a.971.971,0,1,0,0-1.943Z" transform="translate(-46 -174.021)" fill="#53435c"/>
        </g>
      </g>
    </g>
  </g>
</svg>
