<svg xmlns="http://www.w3.org/2000/svg" width="128" height="128" viewBox="0 0 128 128">
  <g id="Grupo_1184382" data-name="Grupo 1184382" transform="translate(-383.746 -8400)">
    <path id="Trazado_997401" data-name="Trazado 997401" d="M64,0A64,64,0,1,1,0,64,64,64,0,0,1,64,0Z" transform="translate(383.746 8400)" fill="#cfa9e6"/>
    <g id="Grupo_1184370" data-name="Grupo 1184370" transform="translate(415.457 8432.354)">
      <path id="Trazado_1011185" data-name="Trazado 1011185" d="M16,21H14v1a3,3,0,0,0-3,3v1a3,3,0,0,0,3,3v3a1,1,0,0,1-1-1V30H11v1a3,3,0,0,0,3,3v1h2V34a3,3,0,0,0,3-3V30a3,3,0,0,0-3-3V24a1,1,0,0,1,1,1v1h2V25a3,3,0,0,0-3-3Zm1,9v1a1,1,0,0,1-1,1V29A1,1,0,0,1,17,30Zm-3-3a1,1,0,0,1-1-1V25a1,1,0,0,1,1-1Z" fill="#53435c"/>
      <rect id="Rectángulo_459217" data-name="Rectángulo 459217" width="8" height="2" transform="translate(21 23)" fill="#53435c"/>
      <path id="Trazado_1011186" data-name="Trazado 1011186" d="M38,28A10,10,0,1,0,48,38,10,10,0,0,0,38,28Zm0,18a7.956,7.956,0,0,1-5.273-2H39V42H31.082a7.963,7.963,0,0,1-.819-2H39V38H30a8,8,0,1,1,8,8Z" fill="#53435c"/>
      <path id="Trazado_1011187" data-name="Trazado 1011187" d="M61.879,56.465l-7.6-7.6a3.945,3.945,0,0,0-.691-4.691L52.2,42.788A14.874,14.874,0,0,0,49,27.836V10a5.006,5.006,0,0,0-5-5H35V4a3,3,0,0,0-3-3H18a3,3,0,0,0-3,3V5H6a5.006,5.006,0,0,0-5,5V58a5.006,5.006,0,0,0,5,5H44a5.006,5.006,0,0,0,5-5V54.414l7.465,7.465a3.828,3.828,0,0,0,5.414-5.414ZM52.172,45.586a2,2,0,0,1,0,2.828l-3.758,3.758a2,2,0,0,1-2.828,0l-.808-.808a15.089,15.089,0,0,0,6.586-6.586ZM30,11v2H20V11Zm0,4v1a1,1,0,0,1-1,1H21a1,1,0,0,1-1-1V15Zm-9,4h8a3,3,0,0,0,3-3V15h9v8.3A14.942,14.942,0,0,0,27.836,27H21v2h5.028A14.9,14.9,0,0,0,23,38H11v2H23.149a15.014,15.014,0,0,0,.409,2H11v2H24.261A15,15,0,0,0,41,52.7V55H9V15h9v1A3,3,0,0,0,21,19ZM38,51A13,13,0,1,1,51,38,13,13,0,0,1,38,51ZM44,7a3,3,0,0,1,3,3V26.028a14.971,14.971,0,0,0-4-2.153V14a1,1,0,0,0-1-1H32V11a3,3,0,0,0,3-3V7ZM17,4a1,1,0,0,1,1-1H32a1,1,0,0,1,1,1V8a1,1,0,0,1-1,1H18a1,1,0,0,1-1-1ZM47,58a3,3,0,0,1-3,3H6a3,3,0,0,1-3-3V10A3,3,0,0,1,6,7h9V8a3,3,0,0,0,3,3v2H8a1,1,0,0,0-1,1V56a1,1,0,0,0,1,1H42a1,1,0,0,0,1-1V52.414l1.172,1.172A3.974,3.974,0,0,0,47,54.757Zm12.172,3a1.84,1.84,0,0,1-1.293-.535L50.414,53,53,50.414l7.465,7.465A1.829,1.829,0,0,1,59.172,61Z" fill="#53435c"/>
    </g>
  </g>
</svg>
