<svg xmlns="http://www.w3.org/2000/svg" xmlns:xlink="http://www.w3.org/1999/xlink" width="292" height="212.137" viewBox="0 0 292 212.137">
  <defs>
    <clipPath id="clip-path">
      <rect id="Rectángulo_458753" data-name="Rectángulo 458753" width="177.153" height="177.161" fill="none"/>
    </clipPath>
  </defs>
  <g id="Grupo_1183347" data-name="Grupo 1183347" transform="translate(-1121.164 -4068)">
    <rect id="Rectángulo_457995" data-name="Rectángulo 457995" width="292" height="212.137" rx="10" transform="translate(1121.164 4068)" fill="#ff984a"/>
    <g id="Grupo_1183517" data-name="Grupo 1183517" transform="translate(1178.558 4085.395)">
      <rect id="Rectángulo_458725" data-name="Rectángulo 458725" width="17.538" height="9.272" transform="translate(37.146 167.543)" fill="#2e186b"/>
      <g id="Grupo_1183516" data-name="Grupo 1183516">
        <g id="Grupo_1183515" data-name="Grupo 1183515" clip-path="url(#clip-path)">
          <path id="Trazado_1009233" data-name="Trazado 1009233" d="M127.762,509.168H110.224a.345.345,0,0,1-.345-.345v-9.272a.345.345,0,0,1,.345-.345h17.538a.345.345,0,0,1,.345.345v9.272a.345.345,0,0,1-.345.345m-17.193-.69h16.849V499.9H110.568Z" transform="translate(-73.077 -332.008)" fill="#2e186b"/>
          <rect id="Rectángulo_458726" data-name="Rectángulo 458726" width="10.948" height="9.272" transform="translate(37.146 158.277)" fill="#2e186b"/>
          <path id="Trazado_1009234" data-name="Trazado 1009234" d="M121.172,481.5H110.224a.345.345,0,0,1-.345-.345v-9.272a.345.345,0,0,1,.345-.345h10.948a.345.345,0,0,1,.345.345v9.272a.345.345,0,0,1-.345.345m-10.6-.689h10.259v-8.583H110.568Z" transform="translate(-73.077 -313.608)" fill="#2e186b"/>
          <rect id="Rectángulo_458727" data-name="Rectángulo 458727" width="14.588" height="9.272" transform="translate(37.146 149.011)" fill="#2e186b"/>
          <path id="Trazado_1009235" data-name="Trazado 1009235" d="M124.812,453.835H110.224a.345.345,0,0,1-.345-.345v-9.272a.345.345,0,0,1,.345-.345h14.588a.345.345,0,0,1,.345.345v9.272a.345.345,0,0,1-.345.345m-14.244-.689h13.9v-8.583h-13.9Z" transform="translate(-73.077 -295.208)" fill="#2e186b"/>
          <path id="Trazado_1009236" data-name="Trazado 1009236" d="M176.808,527.579H.345a.345.345,0,0,1,0-.689H176.808a.345.345,0,0,1,0,.689" transform="translate(0 -350.419)" fill="#2e186b"/>
          <path id="Trazado_1009237" data-name="Trazado 1009237" d="M489.034,444.9H485.49v27.805h1.375a5.729,5.729,0,0,0,5.719-5.731v-8.236a1.768,1.768,0,0,0,1.288-1.7v-7.3a4.841,4.841,0,0,0-4.838-4.838" transform="translate(-322.885 -295.892)" fill="#2e186b"/>
          <path id="Trazado_1009238" data-name="Trazado 1009238" d="M486.181,472.369h-1.375a.345.345,0,0,1-.345-.345V444.219a.345.345,0,0,1,.345-.345h3.544a5.189,5.189,0,0,1,5.183,5.183v7.3a2.12,2.12,0,0,1-1.288,1.947v7.992a6.077,6.077,0,0,1-6.064,6.076m-1.031-.689h1.031a5.387,5.387,0,0,0,5.375-5.386v-8.237a.345.345,0,0,1,.252-.332,1.425,1.425,0,0,0,1.036-1.371v-7.3a4.5,4.5,0,0,0-4.494-4.494h-3.2Z" transform="translate(-322.201 -295.208)" fill="#2e186b"/>
          <path id="Trazado_1009239" data-name="Trazado 1009239" d="M439.765,467.388V481.93a5.728,5.728,0,0,1-5.722,5.731H414.608a5.73,5.73,0,0,1-5.731-5.731V467.388Z" transform="translate(-271.932 -310.846)" fill="#ff7af1"/>
          <rect id="Rectángulo_458728" data-name="Rectángulo 458728" width="30.888" height="3.692" transform="translate(136.945 160.234)" fill="#fff"/>
          <path id="Trazado_1009240" data-name="Trazado 1009240" d="M410.161,482.811h-1.288v9.378a5.736,5.736,0,0,0,1.307,3.645,4.35,4.35,0,0,1-.019-.45Z" transform="translate(-271.93 -321.104)" fill="#fff"/>
          <path id="Trazado_1009241" data-name="Trazado 1009241" d="M439.081,462.76H408.193a.345.345,0,0,1-.345-.345v-2.16a.345.345,0,0,1,.345-.345h30.889a.345.345,0,0,1,.345.345v2.16a.345.345,0,0,1-.345.345m-30.544-.689h30.2V460.6h-30.2Z" transform="translate(-271.248 -305.874)" fill="#2e186b"/>
          <path id="Trazado_1009242" data-name="Trazado 1009242" d="M447.234,438.882a.9.9,0,0,1-.9-.9v-1.971a1.071,1.071,0,0,0-1.07-1.07H437.1a1.071,1.071,0,0,0-1.07,1.07v1.971a.9.9,0,1,1-1.8,0v-1.971a2.876,2.876,0,0,1,2.872-2.872h8.168a2.875,2.875,0,0,1,2.872,2.872v1.971a.9.9,0,0,1-.9.9" transform="translate(-288.789 -288.067)" fill="#9654ff"/>
          <path id="Trazado_1009243" data-name="Trazado 1009243" d="M448.136,436.006v.834a2.875,2.875,0,0,0-2.873-2.873H437.1a2.875,2.875,0,0,0-2.873,2.873v-.834a2.876,2.876,0,0,1,2.873-2.873h8.166a2.875,2.875,0,0,1,2.873,2.873" transform="translate(-288.789 -288.064)" fill="#fff"/>
          <path id="Trazado_1009244" data-name="Trazado 1009244" d="M446.55,438.542A1.247,1.247,0,0,1,445.3,437.3v-1.971a.726.726,0,0,0-.725-.725h-8.168a.726.726,0,0,0-.725.725V437.3a1.246,1.246,0,1,1-2.491,0v-1.971a3.221,3.221,0,0,1,3.217-3.217h8.168a3.221,3.221,0,0,1,3.217,3.217V437.3a1.247,1.247,0,0,1-1.246,1.246m-10.139-4.632h8.168a1.416,1.416,0,0,1,1.415,1.415V437.3a.556.556,0,1,0,1.113,0v-1.971a2.531,2.531,0,0,0-2.528-2.528h-8.168a2.531,2.531,0,0,0-2.528,2.528V437.3a.556.556,0,1,0,1.113,0v-1.971a1.416,1.416,0,0,1,1.415-1.415" transform="translate(-288.105 -287.383)" fill="#2e186b"/>
          <path id="Trazado_1009245" data-name="Trazado 1009245" d="M433.359,487.322H413.924a6.083,6.083,0,0,1-6.076-6.076V466.7a.345.345,0,0,1,.345-.345h30.889a.345.345,0,0,1,.345.345v14.542a6.078,6.078,0,0,1-6.067,6.076m-24.822-20.274v14.2a5.393,5.393,0,0,0,5.387,5.387h19.435a5.388,5.388,0,0,0,5.377-5.387v-14.2Z" transform="translate(-271.248 -310.162)" fill="#2e186b"/>
          <path id="Trazado_1009246" data-name="Trazado 1009246" d="M438.513,449.74v7.3a1.769,1.769,0,0,1-1.769,1.769H406.821a1.762,1.762,0,0,1-1.761-1.769v-7.3a4.835,4.835,0,0,1,4.83-4.837h23.786a4.841,4.841,0,0,1,4.837,4.837" transform="translate(-269.394 -295.892)" fill="#ff7af1"/>
          <path id="Trazado_1009247" data-name="Trazado 1009247" d="M438.516,449.741v1.433a4.841,4.841,0,0,0-4.838-4.835H409.893a4.834,4.834,0,0,0-4.831,4.835v-1.433a4.835,4.835,0,0,1,4.831-4.838h23.785a4.842,4.842,0,0,1,4.838,4.838" transform="translate(-269.395 -295.892)" fill="#fff"/>
          <path id="Trazado_1009248" data-name="Trazado 1009248" d="M436.06,458.468H425.479a.345.345,0,1,1,0-.689H436.06a1.425,1.425,0,0,0,1.424-1.424v-7.3a4.5,4.5,0,0,0-4.492-4.493H409.2a4.494,4.494,0,0,0-4.485,4.493v7.3a1.422,1.422,0,0,0,1.416,1.424H421.6a.345.345,0,0,1,0,.689H406.136a2.112,2.112,0,0,1-2.106-2.113v-7.3a5.184,5.184,0,0,1,5.174-5.182h23.787a5.188,5.188,0,0,1,5.182,5.182v7.3a2.116,2.116,0,0,1-2.113,2.113" transform="translate(-268.709 -295.208)" fill="#2e186b"/>
          <path id="Trazado_1009249" data-name="Trazado 1009249" d="M442.1,455.48H417.315a.345.345,0,1,1,0-.689H442.1a.345.345,0,0,1,0,.689" transform="translate(-277.315 -302.468)" fill="#2e186b"/>
          <path id="Trazado_1009250" data-name="Trazado 1009250" d="M428.27,457.983a.345.345,0,0,1-.345-.345v-2.5a.345.345,0,0,1,.689,0v2.5a.345.345,0,0,1-.345.345" transform="translate(-284.601 -302.468)" fill="#2e186b"/>
          <path id="Trazado_1009251" data-name="Trazado 1009251" d="M424.955,479.8v2.354a1.569,1.569,0,0,1-3.139,0V479.8a1.569,1.569,0,1,1,3.139,0" transform="translate(-280.538 -318.06)" fill="#9654ff"/>
          <path id="Trazado_1009252" data-name="Trazado 1009252" d="M423.8,483.67a1.48,1.48,0,0,1-.419.059,1.572,1.572,0,0,1-1.57-1.57v-2.353a1.57,1.57,0,0,1,1.57-1.57,1.483,1.483,0,0,1,.419.059,1.564,1.564,0,0,0-1.155,1.511v2.353a1.567,1.567,0,0,0,1.155,1.511" transform="translate(-280.534 -318.061)" fill="#fff"/>
          <path id="Trazado_1009253" data-name="Trazado 1009253" d="M422.7,483.388a1.916,1.916,0,0,1-1.914-1.914V479.12a1.914,1.914,0,1,1,3.828,0v2.354a1.916,1.916,0,0,1-1.914,1.914m0-5.493a1.226,1.226,0,0,0-1.225,1.225v2.354a1.225,1.225,0,1,0,2.449,0V479.12a1.219,1.219,0,0,0-.357-.867,1.235,1.235,0,0,0-.867-.357" transform="translate(-279.853 -317.376)" fill="#2e186b"/>
          <path id="Trazado_1009254" data-name="Trazado 1009254" d="M481.956,479.8v2.354a1.569,1.569,0,0,1-3.139,0V479.8a1.569,1.569,0,1,1,3.139,0" transform="translate(-318.447 -318.06)" fill="#9654ff"/>
          <path id="Trazado_1009255" data-name="Trazado 1009255" d="M480.805,483.67a1.481,1.481,0,0,1-.419.059,1.572,1.572,0,0,1-1.57-1.57v-2.353a1.57,1.57,0,0,1,1.57-1.57,1.484,1.484,0,0,1,.419.059,1.564,1.564,0,0,0-1.155,1.511v2.353a1.568,1.568,0,0,0,1.155,1.511" transform="translate(-318.447 -318.061)" fill="#fff"/>
          <path id="Trazado_1009256" data-name="Trazado 1009256" d="M479.7,483.388a1.916,1.916,0,0,1-1.914-1.914V479.12a1.914,1.914,0,1,1,3.828,0v2.354a1.916,1.916,0,0,1-1.914,1.914m0-5.493a1.226,1.226,0,0,0-1.225,1.225v2.354a1.225,1.225,0,1,0,2.45,0V479.12a1.219,1.219,0,0,0-.357-.868,1.236,1.236,0,0,0-.867-.357" transform="translate(-317.763 -317.376)" fill="#2e186b"/>
          <path id="Trazado_1009257" data-name="Trazado 1009257" d="M388.769,37.062H373.184V154.475h23.2V44.672a7.61,7.61,0,0,0-7.611-7.61" transform="translate(-248.194 -24.649)" fill="#2e186b"/>
          <path id="Trazado_1009258" data-name="Trazado 1009258" d="M395.695,154.135H372.5a.345.345,0,0,1-.345-.345V36.378a.345.345,0,0,1,.345-.345h15.585a7.964,7.964,0,0,1,7.955,7.955v109.8a.345.345,0,0,1-.345.345m-22.851-.689H395.35V43.988a7.274,7.274,0,0,0-7.266-7.266h-15.24Z" transform="translate(-247.51 -23.965)" fill="#2e186b"/>
          <path id="Trazado_1009259" data-name="Trazado 1009259" d="M234.449,44.672v109.8H143.6V44.672a7.607,7.607,0,0,1,7.6-7.61h75.642a7.61,7.61,0,0,1,7.611,7.61" transform="translate(-95.502 -24.649)" fill="#fff"/>
          <path id="Trazado_1009260" data-name="Trazado 1009260" d="M234.446,44.67v3.446a7.61,7.61,0,0,0-7.61-7.61H151.195a7.61,7.61,0,0,0-7.6,7.61V44.67a7.61,7.61,0,0,1,7.6-7.61h75.641a7.61,7.61,0,0,1,7.61,7.61" transform="translate(-95.501 -24.648)" fill="#9654ff"/>
          <rect id="Rectángulo_458729" data-name="Rectángulo 458729" width="5.774" height="21.076" transform="translate(91.017 143.249)" fill="#9654ff"/>
          <rect id="Rectángulo_458730" data-name="Rectángulo 458730" width="1.334" height="21.076" transform="translate(91.017 143.251)" fill="#fff"/>
          <path id="Trazado_1009261" data-name="Trazado 1009261" d="M273.126,503.107h-4.55a2.521,2.521,0,0,1-2.471-3l1.859-9.493h5.774l1.86,9.493a2.521,2.521,0,0,1-2.471,3" transform="translate(-176.947 -326.292)" fill="#ff7af1"/>
          <path id="Trazado_1009262" data-name="Trazado 1009262" d="M273.806,503.008a2.355,2.355,0,0,1-.683.1h-4.549a2.519,2.519,0,0,1-2.471-3l1.861-9.492H269.6l-1.844,9.4a2.521,2.521,0,0,0,2.471,3Z" transform="translate(-176.946 -326.291)" fill="#fff"/>
          <rect id="Rectángulo_458731" data-name="Rectángulo 458731" width="30.91" height="5.774" transform="translate(68.557 163.554) rotate(-45.738)" fill="#9654ff"/>
          <rect id="Rectángulo_458732" data-name="Rectángulo 458732" width="30.91" height="1.511" transform="matrix(0.698, -0.716, 0.716, 0.698, 68.556, 163.554)" fill="#fff"/>
          <path id="Trazado_1009263" data-name="Trazado 1009263" d="M181.723,500.863l-3.259-3.176a2.521,2.521,0,0,1,.326-3.875l7.957-5.5,4.135,4.03-5.294,8.1a2.521,2.521,0,0,1-3.866.426" transform="translate(-118.187 -324.762)" fill="#ff7af1"/>
          <path id="Trazado_1009264" data-name="Trazado 1009264" d="M190.882,492.343l-.086.135-3.188-3.105-7.955,5.5a2.522,2.522,0,0,0-.841,3.154l-.348-.338a2.519,2.519,0,0,1,.327-3.874l7.955-5.5Z" transform="translate(-118.186 -324.764)" fill="#fff"/>
          <rect id="Rectángulo_458733" data-name="Rectángulo 458733" width="5.774" height="30.91" transform="translate(93.542 145.448) rotate(-44.262)" fill="#9654ff"/>
          <rect id="Rectángulo_458734" data-name="Rectángulo 458734" width="1.432" height="30.908" transform="translate(93.532 145.459) rotate(-44.317)" fill="#fff"/>
          <path id="Trazado_1009265" data-name="Trazado 1009265" d="M352.847,500.863l3.259-3.176a2.521,2.521,0,0,0-.326-3.875l-7.957-5.5-4.135,4.03,5.294,8.1a2.521,2.521,0,0,0,3.866.426" transform="translate(-228.577 -324.762)" fill="#ff7af1"/>
          <path id="Trazado_1009266" data-name="Trazado 1009266" d="M356.465,503.195a2.337,2.337,0,0,1-.355.434l-3.261,3.177a2.519,2.519,0,0,1-3.863-.427l-5.294-8.1,1.065-1.037,5.256,8.041a2.523,2.523,0,0,0,3.867.427Z" transform="translate(-228.58 -330.704)" fill="#fff"/>
          <path id="Trazado_1009267" data-name="Trazado 1009267" d="M233.764,154.135H142.913a.345.345,0,0,1-.345-.345V43.988a7.958,7.958,0,0,1,7.944-7.955h75.642a7.964,7.964,0,0,1,7.955,7.955v109.8a.345.345,0,0,1-.345.345m-90.507-.689H233.42V43.988a7.274,7.274,0,0,0-7.266-7.266H150.512a7.268,7.268,0,0,0-7.254,7.266Z" transform="translate(-94.818 -23.965)" fill="#2e186b"/>
          <path id="Trazado_1009268" data-name="Trazado 1009268" d="M276.839,448.438h-5.774a.344.344,0,0,1-.345-.345V427.018a.344.344,0,0,1,.345-.345h5.774a.345.345,0,0,1,.345.345v21.076a.345.345,0,0,1-.345.345m-5.43-.689h5.085V427.362h-5.085Z" transform="translate(-180.048 -283.768)" fill="#2e186b"/>
          <path id="Trazado_1009269" data-name="Trazado 1009269" d="M272.443,502.768h-4.55a2.866,2.866,0,0,1-2.81-3.413l1.859-9.494a.344.344,0,0,1,.338-.278h5.774a.345.345,0,0,1,.338.278l1.859,9.493a2.865,2.865,0,0,1-2.81,3.414m-4.878-12.5-1.8,9.214a2.176,2.176,0,0,0,2.133,2.592h4.55a2.176,2.176,0,0,0,2.133-2.593l-1.8-9.213Z" transform="translate(-176.264 -325.608)" fill="#2e186b"/>
          <path id="Trazado_1009270" data-name="Trazado 1009270" d="M208.142,448.06a.344.344,0,0,1-.24-.1l-4.135-4.03a.345.345,0,0,1-.006-.487l21.573-22.136a.344.344,0,0,1,.487-.006l4.135,4.03a.345.345,0,0,1,.006.487l-21.573,22.136a.346.346,0,0,1-.242.1Zm-3.648-4.381,3.642,3.549,21.092-21.642-3.642-3.549Z" transform="translate(-135.45 -280.131)" fill="#2e186b"/>
          <path id="Trazado_1009271" data-name="Trazado 1009271" d="M182.791,501.238a2.849,2.849,0,0,1-1.993-.812l-3.259-3.175a2.865,2.865,0,0,1,.369-4.405l7.958-5.5a.345.345,0,0,1,.437.037l4.135,4.03a.344.344,0,0,1,.048.436l-5.294,8.1a2.865,2.865,0,0,1-2.09,1.279,2.951,2.951,0,0,1-.311.017m3.234-13.165-7.723,5.339a2.176,2.176,0,0,0-.281,3.345l3.259,3.176a2.176,2.176,0,0,0,3.337-.368l5.138-7.857Z" transform="translate(-117.502 -324.078)" fill="#2e186b"/>
          <path id="Trazado_1009272" data-name="Trazado 1009272" d="M300.178,448.059h0a.344.344,0,0,1-.242-.1l-21.573-22.136a.344.344,0,0,1,.006-.487l4.135-4.03a.344.344,0,0,1,.487.006l21.573,22.136a.345.345,0,0,1-.006.487l-4.135,4.03a.344.344,0,0,1-.24.1m-21.086-22.474,21.092,21.642,3.642-3.549-21.092-21.642Z" transform="translate(-185.063 -280.13)" fill="#2e186b"/>
          <path id="Trazado_1009273" data-name="Trazado 1009273" d="M350.41,501.238a2.952,2.952,0,0,1-.312-.017,2.865,2.865,0,0,1-2.09-1.278l-5.294-8.1a.345.345,0,0,1,.048-.436l4.135-4.03a.345.345,0,0,1,.437-.037l7.957,5.5a2.866,2.866,0,0,1,.37,4.406l-3.259,3.175a2.849,2.849,0,0,1-1.993.812m-6.963-9.531,5.138,7.858a2.176,2.176,0,0,0,3.337.367l3.259-3.175a2.176,2.176,0,0,0-.282-3.346l-7.722-5.338Z" transform="translate(-227.892 -324.078)" fill="#2e186b"/>
          <path id="Trazado_1009274" data-name="Trazado 1009274" d="M401.287,381.866h-28.1v10.971h28.1a2.2,2.2,0,0,0,2.206-2.206v-6.548a2.208,2.208,0,0,0-2.206-2.217" transform="translate(-248.194 -253.968)" fill="#2e186b"/>
          <path id="Trazado_1009275" data-name="Trazado 1009275" d="M400.6,392.5H372.5a.345.345,0,0,1-.345-.345V381.182a.345.345,0,0,1,.345-.345h28.1a2.559,2.559,0,0,1,2.55,2.562v6.548a2.554,2.554,0,0,1-2.55,2.551m-27.759-.689H400.6a1.863,1.863,0,0,0,1.861-1.861V383.4a1.869,1.869,0,0,0-1.861-1.873H372.844Z" transform="translate(-247.51 -253.284)" fill="#2e186b"/>
          <path id="Trazado_1009276" data-name="Trazado 1009276" d="M298.445,10.638l-4.019-2.772a2.14,2.14,0,0,1-.912-1.755V4.494a3.467,3.467,0,0,0-3.465-3.465h-4.59V19.645h11.773a2.119,2.119,0,0,0,2.125-2.125V12.392a2.139,2.139,0,0,0-.912-1.755" transform="translate(-189.851 -0.684)" fill="#2e186b"/>
          <path id="Trazado_1009277" data-name="Trazado 1009277" d="M296.547,19.307H284.774a.345.345,0,0,1-.345-.345V.346A.345.345,0,0,1,284.774,0h4.59a3.813,3.813,0,0,1,3.809,3.809V5.428a1.788,1.788,0,0,0,.764,1.471l4.018,2.772h0a2.479,2.479,0,0,1,1.06,2.038v5.128a2.472,2.472,0,0,1-2.469,2.469m-11.429-.69h11.429a1.782,1.782,0,0,0,1.78-1.78V11.709a1.789,1.789,0,0,0-.764-1.472l-4.018-2.771a2.479,2.479,0,0,1-1.061-2.039V3.81a3.124,3.124,0,0,0-3.12-3.12h-4.246Z" transform="translate(-189.166 -0.001)" fill="#2e186b"/>
          <path id="Trazado_1009278" data-name="Trazado 1009278" d="M161.519,103.575a32.335,32.335,0,1,0,32.336,32.336,32.342,32.342,0,0,0-32.336-32.336m6.41,42.567a12.068,12.068,0,1,1,5.67-10.232,12.018,12.018,0,0,1-5.67,10.232" transform="translate(-85.916 -68.885)" fill="#2e186b"/>
          <path id="Trazado_1009279" data-name="Trazado 1009279" d="M160.835,167.907a32.684,32.684,0,1,1,17.344-4.984,32.792,32.792,0,0,1-17.344,4.984m0-64.671a31.99,31.99,0,1,0,31.991,31.991,32.027,32.027,0,0,0-31.991-31.991m0,44.415a12.441,12.441,0,1,1,6.592-1.9,12.448,12.448,0,0,1-6.592,1.9m0-24.148a11.723,11.723,0,1,0,11.735,11.724A11.743,11.743,0,0,0,160.835,123.5" transform="translate(-85.232 -68.2)" fill="#2e186b"/>
          <path id="Trazado_1009280" data-name="Trazado 1009280" d="M60.263,248.408H38.61a.345.345,0,0,1,0-.689H60.13l18.379-16.627a.345.345,0,0,1,.462.511L60.494,248.319a.341.341,0,0,1-.231.089" transform="translate(-25.449 -153.633)" fill="#2e186b"/>
          <rect id="Rectángulo_458735" data-name="Rectángulo 458735" width="16.024" height="2.887" transform="translate(13.16 80.457)" fill="#9654ff"/>
          <rect id="Rectángulo_458736" data-name="Rectángulo 458736" width="10.827" height="2.887" transform="translate(13.161 86.808)" fill="#9654ff"/>
          <path id="Trazado_1009281" data-name="Trazado 1009281" d="M257.272,143.849a.345.345,0,0,1-.23-.6l17.44-15.659a.346.346,0,0,1,.23-.088h21.654a.345.345,0,0,1,0,.689H274.844L257.5,143.761a.344.344,0,0,1-.23.088" transform="translate(-170.875 -84.797)" fill="#2e186b"/>
          <rect id="Rectángulo_458737" data-name="Rectángulo 458737" width="16.023" height="2.887" transform="translate(104.27 29.075)" fill="#ff7af1"/>
          <rect id="Rectángulo_458738" data-name="Rectángulo 458738" width="10.827" height="2.887" transform="translate(104.27 35.426)" fill="#ff7af1"/>
          <path id="Trazado_1009282" data-name="Trazado 1009282" d="M271.992,418.592h-8.839a2.024,2.024,0,0,1-2.024-2.024v-12.7a2.024,2.024,0,0,1,2.024-2.024h8.839a2.024,2.024,0,0,1,2.024,2.024v12.7a2.024,2.024,0,0,1-2.024,2.024" transform="translate(-173.669 -267.257)" fill="#ff7af1"/>
          <path id="Trazado_1009283" data-name="Trazado 1009283" d="M265.168,418.591h-1.954a2.083,2.083,0,0,1-2.082-2.085V403.929a2.083,2.083,0,0,1,2.082-2.085h1.954a2.086,2.086,0,0,0-2.085,2.085v12.577a2.086,2.086,0,0,0,2.085,2.085" transform="translate(-173.671 -267.255)" fill="#fff"/>
          <path id="Trazado_1009284" data-name="Trazado 1009284" d="M271.25,418.253h-8.722a2.431,2.431,0,0,1-2.428-2.428V403.246a2.43,2.43,0,0,1,2.428-2.428h8.722a2.43,2.43,0,0,1,2.428,2.428v12.579a2.43,2.43,0,0,1-2.428,2.428m-8.722-16.745a1.74,1.74,0,0,0-1.738,1.738v12.579a1.74,1.74,0,0,0,1.738,1.738h8.722a1.74,1.74,0,0,0,1.738-1.738V403.246a1.74,1.74,0,0,0-1.738-1.738Z" transform="translate(-172.986 -266.572)" fill="#2e186b"/>
          <path id="Trazado_1009285" data-name="Trazado 1009285" d="M228.949,384.082v6.548a2.2,2.2,0,0,1-2.206,2.206H126.849a2.208,2.208,0,0,1-2.217-2.206v-6.548a2.218,2.218,0,0,1,2.217-2.217h99.894a2.208,2.208,0,0,1,2.206,2.217" transform="translate(-82.889 -253.967)" fill="#9654ff"/>
          <path id="Trazado_1009286" data-name="Trazado 1009286" d="M228.947,384.086v2.237a2.205,2.205,0,0,0-2.206-2.216H126.85a2.217,2.217,0,0,0-2.22,2.216v-2.237a2.218,2.218,0,0,1,2.22-2.216h99.891a2.206,2.206,0,0,1,2.206,2.216" transform="translate(-82.888 -253.971)" fill="#fff"/>
          <path id="Trazado_1009287" data-name="Trazado 1009287" d="M226.06,392.5H126.166a2.559,2.559,0,0,1-2.562-2.551V383.4a2.565,2.565,0,0,1,2.562-2.561H191.5a.345.345,0,0,1,0,.689H126.166a1.875,1.875,0,0,0-1.873,1.872v6.548a1.869,1.869,0,0,0,1.873,1.861H226.06a1.863,1.863,0,0,0,1.861-1.861V383.4a1.869,1.869,0,0,0-1.861-1.872H200.116a.345.345,0,1,1,0-.689H226.06a2.559,2.559,0,0,1,2.55,2.561v6.548a2.553,2.553,0,0,1-2.55,2.551" transform="translate(-82.205 -253.284)" fill="#2e186b"/>
          <path id="Trazado_1009288" data-name="Trazado 1009288" d="M124.2,135.911a12.073,12.073,0,0,1,12.08-12.068V103.575a32.331,32.331,0,0,0-31.1,41.17l19.492-5.533a12.068,12.068,0,0,1-.468-3.3" transform="translate(-69.13 -68.885)" fill="#fff"/>
          <path id="Trazado_1009289" data-name="Trazado 1009289" d="M232.825,135.911a32.342,32.342,0,0,0-32.336-32.336v20.267a12.065,12.065,0,0,1,6.4,22.3l10.754,17.173a32.3,32.3,0,0,0,15.178-27.4" transform="translate(-133.339 -68.885)" fill="#ff7af1"/>
          <path id="Trazado_1009290" data-name="Trazado 1009290" d="M227.121,154.248a32.336,32.336,0,0,0-26.632-48.462v-2.209a32.332,32.332,0,0,1,26.632,50.671" transform="translate(-133.339 -68.886)" fill="#fff"/>
          <path id="Trazado_1009291" data-name="Trazado 1009291" d="M138.725,218.755a12.07,12.07,0,0,1-11.612-8.778l-19.493,5.533a32.328,32.328,0,0,0,48.262,18.57l-10.754-17.173a12.012,12.012,0,0,1-6.4,1.848" transform="translate(-71.576 -139.65)" fill="#9654ff"/>
          <path id="Trazado_1009292" data-name="Trazado 1009292" d="M155.88,243.867a32.327,32.327,0,0,1-48.262-18.57l2.126-.6a32.337,32.337,0,0,0,45.939,18.859Z" transform="translate(-71.574 -149.438)" fill="#fff"/>
          <path id="Trazado_1009293" data-name="Trazado 1009293" d="M104.491,144.405a.344.344,0,0,1-.332-.251,32.754,32.754,0,0,1,.229-18.657.345.345,0,1,1,.658.2,32.065,32.065,0,0,0-.316,17.931l18.832-5.345a12.388,12.388,0,0,1,11.689-15.471V103.237a32.154,32.154,0,0,0-27.238,15.778.345.345,0,0,1-.594-.35A32.842,32.842,0,0,1,135.6,102.546a.345.345,0,0,1,.345.345v20.267a.345.345,0,0,1-.345.345,11.7,11.7,0,0,0-11.28,14.931.345.345,0,0,1-.237.425l-19.492,5.533a.347.347,0,0,1-.094.013" transform="translate(-68.446 -68.2)" fill="#2e186b"/>
          <path id="Trazado_1009294" data-name="Trazado 1009294" d="M216.962,162.976a.335.335,0,0,1-.077-.009.345.345,0,0,1-.215-.153L205.916,145.64a.345.345,0,0,1,.109-.475A11.72,11.72,0,0,0,199.8,123.5a.345.345,0,0,1-.345-.345V102.891a.345.345,0,0,1,.345-.345,32.678,32.678,0,0,1,17.341,60.377.344.344,0,0,1-.183.053m-10.281-17.413,10.389,16.591a31.988,31.988,0,0,0-16.921-58.917v19.581a12.409,12.409,0,0,1,6.531,22.745" transform="translate(-132.655 -68.2)" fill="#2e186b"/>
          <path id="Trazado_1009295" data-name="Trazado 1009295" d="M138.041,238.671A32.8,32.8,0,0,1,106.6,214.919a.345.345,0,0,1,.237-.425l19.492-5.533a.344.344,0,0,1,.426.237,11.71,11.71,0,0,0,17.5,6.732.345.345,0,0,1,.475.109l10.754,17.173a.345.345,0,0,1-.109.475,32.589,32.589,0,0,1-17.341,4.984m-30.677-23.609a31.984,31.984,0,0,0,47.358,18.222l-10.389-16.591a12.4,12.4,0,0,1-18.137-6.977Z" transform="translate(-70.891 -138.965)" fill="#2e186b"/>
          <path id="Trazado_1009296" data-name="Trazado 1009296" d="M250.932,320.989h-66.4a.345.345,0,0,1,0-.689h66.4a.345.345,0,1,1,0,.689" transform="translate(-122.495 -213.022)" fill="#2e186b"/>
          <path id="Trazado_1009297" data-name="Trazado 1009297" d="M219.286,351.257H184.529a.345.345,0,1,1,0-.689h34.758a.345.345,0,1,1,0,.689" transform="translate(-122.495 -233.153)" fill="#2e186b"/>
          <path id="Trazado_1009298" data-name="Trazado 1009298" d="M267.483,12.393v5.128a2.119,2.119,0,0,1-2.125,2.125H245.795a2.119,2.119,0,0,1-2.125-2.125V12.393a2.139,2.139,0,0,1,.912-1.755L248.6,7.867a2.141,2.141,0,0,0,.912-1.755V4.495a3.46,3.46,0,0,1,3.465-3.465h5.2a3.467,3.467,0,0,1,3.465,3.465V6.112a2.14,2.14,0,0,0,.912,1.755l4.019,2.772a2.139,2.139,0,0,1,.912,1.755" transform="translate(-162.058 -0.685)" fill="#9654ff"/>
          <path id="Trazado_1009299" data-name="Trazado 1009299" d="M255.491,1.033A3.46,3.46,0,0,0,252.027,4.5V6.113a2.143,2.143,0,0,1-.913,1.754L247.1,10.642a2.133,2.133,0,0,0-.913,1.754v5.128a2.12,2.12,0,0,0,2.126,2.123H245.8a2.12,2.12,0,0,1-2.126-2.123V12.4a2.133,2.133,0,0,1,.913-1.754L248.6,7.868a2.144,2.144,0,0,0,.913-1.754V4.5a3.459,3.459,0,0,1,3.464-3.464Z" transform="translate(-162.057 -0.687)" fill="#fff"/>
          <path id="Trazado_1009300" data-name="Trazado 1009300" d="M264.674,19.307H245.11a2.472,2.472,0,0,1-2.469-2.469V11.709a2.478,2.478,0,0,1,1.06-2.038l4.02-2.773a1.789,1.789,0,0,0,.763-1.471V3.81A3.814,3.814,0,0,1,252.294,0h5.2A3.814,3.814,0,0,1,261.3,3.81V5.427a1.788,1.788,0,0,0,.764,1.472l4.018,2.772a2.479,2.479,0,0,1,1.061,2.039v5.128a2.472,2.472,0,0,1-2.469,2.469M252.294.69a3.124,3.124,0,0,0-3.12,3.12V5.427a2.478,2.478,0,0,1-1.061,2.038l-4.02,2.773a1.788,1.788,0,0,0-.763,1.471v5.128a1.782,1.782,0,0,0,1.78,1.78h19.563a1.782,1.782,0,0,0,1.78-1.78V11.709a1.789,1.789,0,0,0-.764-1.472l-4.018-2.772a2.478,2.478,0,0,1-1.061-2.039V3.81A3.124,3.124,0,0,0,257.49.69Z" transform="translate(-161.374 -0.001)" fill="#2e186b"/>
          <path id="Trazado_1009301" data-name="Trazado 1009301" d="M276.793,12.963h-3.533a.345.345,0,1,1,0-.689h3.533a.345.345,0,1,1,0,.689" transform="translate(-181.509 -8.163)" fill="#2e186b"/>
          <path id="Trazado_1009302" data-name="Trazado 1009302" d="M44.964,57.108a1.864,1.864,0,0,1-1.107-.366L38.252,52.6a2.138,2.138,0,0,0-1.272-.417H14.008a3.763,3.763,0,0,1-3.759-3.759V32.743a3.763,3.763,0,0,1,3.759-3.759H43.076a3.763,3.763,0,0,1,3.759,3.759v22.5a1.872,1.872,0,0,1-1.871,1.869M14.008,29.673a3.073,3.073,0,0,0-3.069,3.069V48.428A3.073,3.073,0,0,0,14.008,51.5H36.98a2.822,2.822,0,0,1,1.68.551l5.607,4.139a1.179,1.179,0,0,0,1.879-.948v-22.5a3.073,3.073,0,0,0-3.069-3.069Z" transform="translate(-6.816 -19.276)" fill="#2e186b"/>
          <path id="Trazado_1009303" data-name="Trazado 1009303" d="M29.487,58.095a3.412,3.412,0,0,1-3.408-3.408.345.345,0,1,1,.689,0,2.719,2.719,0,1,0,2.719-2.719A3.408,3.408,0,1,1,32.9,48.559a.345.345,0,0,1-.689,0,2.719,2.719,0,1,0-2.719,2.719,3.408,3.408,0,1,1,0,6.816" transform="translate(-17.344 -30.029)" fill="#2e186b"/>
          <path id="Trazado_1009304" data-name="Trazado 1009304" d="M35.571,56.836a.345.345,0,0,1-.345-.345V41.683a.345.345,0,1,1,.689,0V56.491a.345.345,0,0,1-.345.345" transform="translate(-23.428 -27.493)" fill="#2e186b"/>
          <path id="Trazado_1009305" data-name="Trazado 1009305" d="M72.521,46.585H57.706a.345.345,0,1,1,0-.689H72.521a.345.345,0,0,1,0,.689" transform="translate(-38.149 -30.524)" fill="#2e186b"/>
          <path id="Trazado_1009306" data-name="Trazado 1009306" d="M72.521,58.284H57.706a.345.345,0,0,1,0-.689H72.521a.345.345,0,0,1,0,.689" transform="translate(-38.149 -38.305)" fill="#2e186b"/>
          <path id="Trazado_1009307" data-name="Trazado 1009307" d="M72.521,69.984H57.706a.345.345,0,1,1,0-.689H72.521a.345.345,0,0,1,0,.689" transform="translate(-38.149 -46.086)" fill="#2e186b"/>
          <path id="Trazado_1009308" data-name="Trazado 1009308" d="M65.824,81.683H57.707a.345.345,0,1,1,0-.689h8.118a.345.345,0,1,1,0,.689" transform="translate(-38.15 -53.867)" fill="#2e186b"/>
          <rect id="Rectángulo_458739" data-name="Rectángulo 458739" width="38.2" height="34.202" transform="translate(134.864 52.411)" fill="#2e186b"/>
          <path id="Trazado_1009309" data-name="Trazado 1009309" d="M440.181,190.346h-38.2a.345.345,0,0,1-.345-.345V155.8a.345.345,0,0,1,.345-.345h38.2a.345.345,0,0,1,.345.345V190a.345.345,0,0,1-.345.345m-37.856-.689h37.511V156.143H402.325Z" transform="translate(-267.117 -103.388)" fill="#2e186b"/>
          <rect id="Rectángulo_458740" data-name="Rectángulo 458740" width="38.2" height="34.202" transform="translate(130.976 52.411)" fill="#fff"/>
          <path id="Trazado_1009310" data-name="Trazado 1009310" d="M428.57,190.347h-38.2a.345.345,0,0,1-.345-.345V167.469a.345.345,0,0,1,.689,0v22.189h37.514V156.143H390.711V160a.345.345,0,0,1-.689,0v-4.2a.345.345,0,0,1,.345-.345h38.2a.345.345,0,0,1,.345.345V190a.345.345,0,0,1-.345.345" transform="translate(-259.392 -103.388)" fill="#2e186b"/>
          <path id="Trazado_1009311" data-name="Trazado 1009311" d="M480.359,203.924v7.313a1.041,1.041,0,0,1-1.042,1.042h-2.842a1.041,1.041,0,0,1-1.042-1.042v-7.313a1.041,1.041,0,0,1,1.042-1.042h2.842a1.041,1.041,0,0,1,1.042,1.042" transform="translate(-316.197 -134.931)" fill="#9654ff"/>
          <path id="Trazado_1009312" data-name="Trazado 1009312" d="M456.1,178.987v15.665a1.041,1.041,0,0,1-1.042,1.042h-2.845a1.042,1.042,0,0,1-1.042-1.042V178.987a1.041,1.041,0,0,1,1.042-1.042h2.845a1.041,1.041,0,0,1,1.042,1.042" transform="translate(-300.063 -118.346)" fill="#9654ff"/>
          <path id="Trazado_1009313" data-name="Trazado 1009313" d="M407.593,189.724v12.069a1.043,1.043,0,0,1-1.044,1.042h-2.842a1.041,1.041,0,0,1-1.042-1.042V189.724a1.041,1.041,0,0,1,1.042-1.042h2.842a1.043,1.043,0,0,1,1.044,1.042" transform="translate(-267.801 -125.487)" fill="#9654ff"/>
          <path id="Trazado_1009314" data-name="Trazado 1009314" d="M431.849,166.865V186.59a1.041,1.041,0,0,1-1.042,1.042h-2.842a1.041,1.041,0,0,1-1.042-1.042V166.865a1.041,1.041,0,0,1,1.042-1.042h2.842a1.041,1.041,0,0,1,1.042,1.042" transform="translate(-283.935 -110.284)" fill="#9654ff"/>
          <path id="Trazado_1009315" data-name="Trazado 1009315" d="M480.359,220.9v1.627a1.042,1.042,0,0,1-1.042,1.042h-2.842a1.042,1.042,0,0,1-1.042-1.042V220.9a1.041,1.041,0,0,1,1.042-1.042h2.842a1.041,1.041,0,0,1,1.042,1.042" transform="translate(-316.197 -146.221)" fill="#ff7af1"/>
          <path id="Trazado_1009316" data-name="Trazado 1009316" d="M456.1,195.962v9.98a1.041,1.041,0,0,1-1.042,1.042h-2.845a1.041,1.041,0,0,1-1.042-1.042v-9.98a1.041,1.041,0,0,1,1.042-1.042h2.845a1.041,1.041,0,0,1,1.042,1.042" transform="translate(-300.063 -129.636)" fill="#ff7af1"/>
          <path id="Trazado_1009317" data-name="Trazado 1009317" d="M407.593,206.7v6.384a1.043,1.043,0,0,1-1.044,1.042h-2.842a1.041,1.041,0,0,1-1.042-1.042V206.7a1.041,1.041,0,0,1,1.042-1.042h2.842a1.043,1.043,0,0,1,1.044,1.042" transform="translate(-267.801 -136.777)" fill="#ff7af1"/>
          <path id="Trazado_1009318" data-name="Trazado 1009318" d="M431.849,183.839v14.04a1.041,1.041,0,0,1-1.042,1.042h-2.842a1.041,1.041,0,0,1-1.042-1.042v-14.04a1.041,1.041,0,0,1,1.042-1.042h2.842a1.041,1.041,0,0,1,1.042,1.042" transform="translate(-283.935 -121.573)" fill="#ff7af1"/>
          <rect id="Rectángulo_458741" data-name="Rectángulo 458741" width="44.455" height="9.272" transform="translate(6.934 167.543)" fill="#9654ff"/>
          <rect id="Rectángulo_458742" data-name="Rectángulo 458742" width="3.717" height="9.272" transform="translate(12.684 167.543)" fill="#fff"/>
          <rect id="Rectángulo_458743" data-name="Rectángulo 458743" width="7.039" height="9.272" transform="translate(19.892 167.543)" fill="#fff"/>
          <rect id="Rectángulo_458744" data-name="Rectángulo 458744" width="44.455" height="1.474" transform="translate(6.934 167.543)" fill="#fff"/>
          <path id="Trazado_1009319" data-name="Trazado 1009319" d="M64.475,509.168H20.02a.345.345,0,0,1-.345-.345v-9.272a.345.345,0,0,1,.345-.345H64.475a.345.345,0,0,1,.345.345v9.272a.345.345,0,0,1-.345.345m-44.11-.689H64.13V499.9H20.364Z" transform="translate(-13.085 -332.008)" fill="#2e186b"/>
          <rect id="Rectángulo_458745" data-name="Rectángulo 458745" width="44.455" height="9.272" transform="translate(0.345 158.277)" fill="#9654ff"/>
          <rect id="Rectángulo_458746" data-name="Rectángulo 458746" width="44.455" height="1.474" transform="translate(0.345 158.277)" fill="#fff"/>
          <rect id="Rectángulo_458747" data-name="Rectángulo 458747" width="3.717" height="9.272" transform="translate(6.095 158.277)" fill="#fff"/>
          <rect id="Rectángulo_458748" data-name="Rectángulo 458748" width="7.039" height="9.272" transform="translate(13.303 158.277)" fill="#fff"/>
          <path id="Trazado_1009320" data-name="Trazado 1009320" d="M44.8,481.5H.345A.345.345,0,0,1,0,481.157v-9.272a.345.345,0,0,1,.345-.345H44.8a.345.345,0,0,1,.345.345v9.272a.345.345,0,0,1-.345.345m-44.11-.689H44.455v-8.583H.689Z" transform="translate(0 -313.608)" fill="#2e186b"/>
          <rect id="Rectángulo_458749" data-name="Rectángulo 458749" width="44.455" height="9.272" transform="translate(3.985 149.011)" fill="#9654ff"/>
          <rect id="Rectángulo_458750" data-name="Rectángulo 458750" width="3.717" height="9.272" transform="translate(9.734 149.011)" fill="#fff"/>
          <rect id="Rectángulo_458751" data-name="Rectángulo 458751" width="7.039" height="9.272" transform="translate(16.943 149.011)" fill="#fff"/>
          <rect id="Rectángulo_458752" data-name="Rectángulo 458752" width="44.455" height="1.474" transform="translate(3.985 149.011)" fill="#fff"/>
          <path id="Trazado_1009321" data-name="Trazado 1009321" d="M55.668,453.835H11.213a.345.345,0,0,1-.345-.345v-9.272a.345.345,0,0,1,.345-.345H55.668a.345.345,0,0,1,.345.345v9.272a.345.345,0,0,1-.345.345m-44.11-.689H55.323v-8.583H11.557Z" transform="translate(-7.228 -295.208)" fill="#2e186b"/>
          <path id="Trazado_1009322" data-name="Trazado 1009322" d="M481.336,11a.345.345,0,0,1-.247-.585l7.371-7.594a.345.345,0,0,1,.495.48l-7.37,7.594a.346.346,0,0,1-.248.1" transform="translate(-319.893 -1.806)" fill="#2e186b"/>
          <path id="Trazado_1009323" data-name="Trazado 1009323" d="M457.786,14.593a.345.345,0,0,1-.248-.585l7.371-7.594a.345.345,0,0,1,.495.48l-7.371,7.594a.346.346,0,0,1-.247.1" transform="translate(-304.231 -4.196)" fill="#2e186b"/>
          <path id="Trazado_1009324" data-name="Trazado 1009324" d="M34.129,375.656a.345.345,0,0,1-.246-.586l9.331-9.53a.345.345,0,1,1,.492.482l-9.331,9.53a.343.343,0,0,1-.246.1" transform="translate(-22.469 -243.041)" fill="#2e186b"/>
          <path id="Trazado_1009325" data-name="Trazado 1009325" d="M36.5,397.567a.345.345,0,0,1-.241-.591l5.162-5.063a.345.345,0,0,1,.483.492l-5.162,5.063a.345.345,0,0,1-.241.1" transform="translate(-24.045 -260.585)" fill="#2e186b"/>
          <path id="Trazado_1009326" data-name="Trazado 1009326" d="M470.486,301.692a.345.345,0,0,1-.244-.588l6.75-6.75a.345.345,0,1,1,.487.487l-6.75,6.75a.344.344,0,0,1-.244.1" transform="translate(-312.678 -195.699)" fill="#2e186b"/>
          <path id="Trazado_1009327" data-name="Trazado 1009327" d="M472.264,303.495a.345.345,0,0,1-.241-.591l12.111-11.813a.345.345,0,0,1,.481.493L472.505,303.4a.344.344,0,0,1-.241.1" transform="translate(-313.86 -193.531)" fill="#2e186b"/>
          <path id="Trazado_1009328" data-name="Trazado 1009328" d="M385.243,84.54c-1.194,3.135-2.649,5.491-3.249,5.263s-.119-2.955,1.075-6.091,2.649-5.491,3.249-5.263.119,2.955-1.075,6.091" transform="translate(-253.882 -52.164)" fill="#9654ff"/>
          <path id="Trazado_1009329" data-name="Trazado 1009329" d="M337.119,254.546c-1.677,2.906-3.488,5-4.045,4.679s.352-2.937,2.03-5.842,3.489-5,4.045-4.679-.353,2.937-2.03,5.842" transform="translate(-221.409 -165.384)" fill="#9654ff"/>
          <path id="Trazado_1009330" data-name="Trazado 1009330" d="M195.141,46.683c-1.677,2.906-3.488,5-4.045,4.679s.352-2.937,2.03-5.842,3.488-5,4.045-4.679-.353,2.937-2.03,5.842" transform="translate(-126.984 -27.14)" fill="#9654ff"/>
          <path id="Trazado_1009331" data-name="Trazado 1009331" d="M239.018,127.8c-1.677,2.906-3.488,5-4.045,4.679s.352-2.937,2.03-5.842,3.488-5,4.045-4.679-.353,2.937-2.03,5.842" transform="translate(-156.165 -81.09)" fill="#fff"/>
          <path id="Trazado_1009332" data-name="Trazado 1009332" d="M456.171,489.86c-.927,1.606-2.06,2.687-2.531,2.415s-.1-1.794.826-3.4,2.06-2.687,2.531-2.415.1,1.794-.826,3.4" transform="translate(-301.567 -323.503)" fill="#fff"/>
        </g>
      </g>
    </g>
  </g>
</svg>
