<svg xmlns="http://www.w3.org/2000/svg" xmlns:xlink="http://www.w3.org/1999/xlink" width="292" height="271" viewBox="0 0 292 271">
  <defs>
    <clipPath id="clip-path">
      <rect id="Rectángulo_458314" data-name="Rectángulo 458314" width="255.539" height="160.142" fill="none"/>
    </clipPath>
  </defs>
  <g id="Grupo_1182643" data-name="Grupo 1182643" transform="translate(-185.711 -5004)">
    <rect id="Image_Place_Holder" data-name="Image Place Holder" width="292" height="271" rx="20" transform="translate(185.711 5004)" fill="#ff984a"/>
    <g id="Grupo_1182642" data-name="Grupo 1182642" transform="translate(204.711 5059.429)">
      <g id="Grupo_1182641" data-name="Grupo 1182641" clip-path="url(#clip-path)">
        <path id="Trazado_1006698" data-name="Trazado 1006698" d="M140.83,292.917a18,18,0,1,1-18-18,18,18,0,0,1,18,18" transform="translate(-85.934 -225.366)" fill="#ffd423"/>
        <path id="Trazado_1006699" data-name="Trazado 1006699" d="M120.781,309.32a18.452,18.452,0,1,1,18.452-18.452,18.473,18.473,0,0,1-18.452,18.452m0-36a17.551,17.551,0,1,0,17.551,17.551,17.57,17.57,0,0,0-17.551-17.551" transform="translate(-83.885 -223.316)"/>
        <path id="Trazado_1006700" data-name="Trazado 1006700" d="M157.509,314.3a13.3,13.3,0,1,1-13.3-13.3,13.3,13.3,0,0,1,13.3,13.3" transform="translate(-107.313 -246.745)" fill="#fff"/>
        <path id="Trazado_1006701" data-name="Trazado 1006701" d="M142.16,326a13.751,13.751,0,1,1,13.751-13.751A13.767,13.767,0,0,1,142.16,326m0-26.6a12.85,12.85,0,1,0,12.85,12.85,12.864,12.864,0,0,0-12.85-12.85" transform="translate(-105.265 -244.696)"/>
        <path id="Trazado_1006702" data-name="Trazado 1006702" d="M186.3,342.431a5.032,5.032,0,0,1-3.02,1.2v1.961h-1.436v-1.944a9.809,9.809,0,0,1-2.451-.473,5.339,5.339,0,0,1-1.838-.98l.788-1.768a5.8,5.8,0,0,0,1.576.884,7.007,7.007,0,0,0,1.926.446v-3.5a12.862,12.862,0,0,1-2.075-.657,3.591,3.591,0,0,1-1.392-1.05,2.816,2.816,0,0,1-.56-1.83,3.235,3.235,0,0,1,1.033-2.416,4.861,4.861,0,0,1,2.994-1.191v-1.978h1.436v1.943a8.211,8.211,0,0,1,1.917.333,6.319,6.319,0,0,1,1.637.736l-.718,1.768a7.288,7.288,0,0,0-2.836-.946V336.5a13.508,13.508,0,0,1,2.092.648,3.6,3.6,0,0,1,1.4,1.042,2.79,2.79,0,0,1,.569,1.83,3.2,3.2,0,0,1-1.042,2.408m-5.769-6.89a3.942,3.942,0,0,0,1.313.6V333.02a2.426,2.426,0,0,0-1.331.56,1.376,1.376,0,0,0-.438,1.033,1.112,1.112,0,0,0,.455.928m4.123,5.638a1.29,1.29,0,0,0,.446-1,1.139,1.139,0,0,0-.473-.954,4.057,4.057,0,0,0-1.348-.6v3.1a2.607,2.607,0,0,0,1.374-.543" transform="translate(-145.55 -269.811)"/>
        <path id="Trazado_1006703" data-name="Trazado 1006703" d="M157,39.724V60.232l9.279-10.254Z" transform="translate(-128.703 -32.564)" fill="#ffd423"/>
        <path id="Trazado_1006704" data-name="Trazado 1006704" d="M195.784,55.746a.742.742,0,1,0,.742-.742.742.742,0,0,0-.742.742" transform="translate(-160.496 -45.09)"/>
        <path id="Trazado_1006705" data-name="Trazado 1006705" d="M195.441,74.623a.742.742,0,1,0,.742-.742.742.742,0,0,0-.742.742" transform="translate(-160.215 -60.565)"/>
        <path id="Trazado_1006706" data-name="Trazado 1006706" d="M195.441,93.843a.742.742,0,1,0,.742-.742.742.742,0,0,0-.742.742" transform="translate(-160.215 -76.321)"/>
        <path id="Trazado_1006707" data-name="Trazado 1006707" d="M195.441,113.064a.742.742,0,1,0,.742-.742.742.742,0,0,0-.742.742" transform="translate(-160.215 -92.077)"/>
        <path id="Trazado_1006708" data-name="Trazado 1006708" d="M212.6,74.623a.742.742,0,1,0,.742-.742.742.742,0,0,0-.742.742" transform="translate(-174.283 -60.565)"/>
        <path id="Trazado_1006709" data-name="Trazado 1006709" d="M212.6,93.843a.742.742,0,1,0,.742-.742.742.742,0,0,0-.742.742" transform="translate(-174.283 -76.321)"/>
        <path id="Trazado_1006710" data-name="Trazado 1006710" d="M229.763,93.843a.742.742,0,1,0,.742-.742.742.742,0,0,0-.742.742" transform="translate(-188.351 -76.321)"/>
        <path id="Trazado_1006711" data-name="Trazado 1006711" d="M212.6,113.064a.742.742,0,1,0,.742-.742.742.742,0,0,0-.742.742" transform="translate(-174.283 -92.077)"/>
        <path id="Trazado_1006712" data-name="Trazado 1006712" d="M195.441,132.284a.742.742,0,1,0,.742-.742.742.742,0,0,0-.742.742" transform="translate(-160.215 -107.833)"/>
        <path id="Trazado_1006713" data-name="Trazado 1006713" d="M177.936,55.746a.742.742,0,1,0,.742-.742.742.742,0,0,0-.742.742" transform="translate(-145.865 -45.09)"/>
        <path id="Trazado_1006714" data-name="Trazado 1006714" d="M178.28,36.869a.742.742,0,1,0,.742-.742.742.742,0,0,0-.742.742" transform="translate(-146.147 -29.616)"/>
        <path id="Trazado_1006715" data-name="Trazado 1006715" d="M177.593,74.623a.742.742,0,1,0,.742-.742.742.742,0,0,0-.742.742" transform="translate(-145.584 -60.565)"/>
        <path id="Trazado_1006716" data-name="Trazado 1006716" d="M177.593,93.843a.742.742,0,1,0,.742-.742.742.742,0,0,0-.742.742" transform="translate(-145.584 -76.321)"/>
        <path id="Trazado_1006717" data-name="Trazado 1006717" d="M177.593,113.064a.742.742,0,1,0,.742-.742.742.742,0,0,0-.742.742" transform="translate(-145.584 -92.077)"/>
        <path id="Trazado_1006718" data-name="Trazado 1006718" d="M177.593,132.284a.742.742,0,1,0,.742-.742.742.742,0,0,0-.742.742" transform="translate(-145.584 -107.833)"/>
        <path id="Trazado_1006719" data-name="Trazado 1006719" d="M177.593,151.5a.742.742,0,1,0,.742-.742.742.742,0,0,0-.742.742" transform="translate(-145.584 -123.589)"/>
        <rect id="Rectángulo_458300" data-name="Rectángulo 458300" width="110.486" height="139.324" transform="translate(67.589 16.041)"/>
        <rect id="Rectángulo_458301" data-name="Rectángulo 458301" width="109.945" height="136.08" transform="translate(76.601 23.431)" fill="#fff"/>
        <path id="Trazado_1006720" data-name="Trazado 1006720" d="M533.346,264.481H422.5V127.5H533.346Zm-109.945-.9H532.445V128.4H423.4Z" transform="translate(-346.349 -104.52)"/>
        <path id="Trazado_1006721" data-name="Trazado 1006721" d="M519.111,244.619a11.806,11.806,0,1,1-11.806-11.806,11.805,11.805,0,0,1,11.806,11.806" transform="translate(-406.192 -190.851)" fill="#fff"/>
        <path id="Trazado_1006722" data-name="Trazado 1006722" d="M505.256,254.825a12.256,12.256,0,1,1,12.256-12.256,12.27,12.27,0,0,1-12.256,12.256m0-23.611a11.355,11.355,0,1,0,11.355,11.355,11.368,11.368,0,0,0-11.355-11.355" transform="translate(-404.143 -188.802)"/>
        <path id="Trazado_1006723" data-name="Trazado 1006723" d="M520.155,243.034l-6.13-5.926,1.253-1.3,4.684,4.528,13.623-17.589,1.425,1.1Z" transform="translate(-421.378 -182.603)" fill="#4a90f7"/>
        <rect id="Rectángulo_458302" data-name="Rectángulo 458302" width="47.583" height="16.762" transform="translate(126.752 45.476)" fill="#fff"/>
        <path id="Trazado_1006724" data-name="Trazado 1006724" d="M749.234,267.476H700.75V249.813h48.484Zm-47.583-.9h46.682V250.714H701.651Z" transform="translate(-574.448 -204.787)"/>
        <rect id="Rectángulo_458303" data-name="Rectángulo 458303" width="16.582" height="1.802" transform="translate(133.061 50.388)" fill="#4a90f7"/>
        <rect id="Rectángulo_458304" data-name="Rectángulo 458304" width="34.966" height="1.802" transform="translate(133.061 55.525)" fill="#4a90f7"/>
        <path id="Trazado_1006725" data-name="Trazado 1006725" d="M519.111,445.619a11.806,11.806,0,1,1-11.806-11.806,11.805,11.805,0,0,1,11.806,11.806" transform="translate(-406.192 -355.623)" fill="#fff"/>
        <path id="Trazado_1006726" data-name="Trazado 1006726" d="M505.256,455.825a12.256,12.256,0,1,1,12.256-12.256,12.27,12.27,0,0,1-12.256,12.256m0-23.611a11.355,11.355,0,1,0,11.355,11.355,11.368,11.368,0,0,0-11.355-11.355" transform="translate(-404.143 -353.574)"/>
        <path id="Trazado_1006727" data-name="Trazado 1006727" d="M520.155,444.034l-6.13-5.926,1.253-1.3,4.684,4.528,13.623-17.589,1.425,1.1Z" transform="translate(-421.378 -347.375)" fill="#4a90f7"/>
        <rect id="Rectángulo_458305" data-name="Rectángulo 458305" width="47.583" height="16.762" transform="translate(126.752 81.704)" fill="#fff"/>
        <path id="Trazado_1006728" data-name="Trazado 1006728" d="M749.234,468.476H700.75V450.813h48.484Zm-47.583-.9h46.682V451.714H701.651Z" transform="translate(-574.448 -369.559)"/>
        <rect id="Rectángulo_458306" data-name="Rectángulo 458306" width="16.582" height="1.802" transform="translate(133.061 86.616)" fill="#4a90f7"/>
        <rect id="Rectángulo_458307" data-name="Rectángulo 458307" width="34.966" height="1.802" transform="translate(133.061 91.753)" fill="#4a90f7"/>
        <path id="Trazado_1006729" data-name="Trazado 1006729" d="M519.111,646.619a11.806,11.806,0,1,1-11.806-11.806,11.805,11.805,0,0,1,11.806,11.806" transform="translate(-406.192 -520.395)" fill="#fff"/>
        <path id="Trazado_1006730" data-name="Trazado 1006730" d="M505.256,656.825a12.256,12.256,0,1,1,12.256-12.256,12.27,12.27,0,0,1-12.256,12.256m0-23.611a11.355,11.355,0,1,0,11.355,11.355,11.368,11.368,0,0,0-11.355-11.355" transform="translate(-404.143 -518.346)"/>
        <path id="Trazado_1006731" data-name="Trazado 1006731" d="M520.155,645.034l-6.13-5.926,1.253-1.3,4.684,4.528,13.623-17.589,1.425,1.1Z" transform="translate(-421.378 -512.147)" fill="#4a90f7"/>
        <rect id="Rectángulo_458308" data-name="Rectángulo 458308" width="47.583" height="16.762" transform="translate(126.752 117.932)" fill="#fff"/>
        <path id="Trazado_1006732" data-name="Trazado 1006732" d="M749.234,669.476H700.75V651.813h48.484Zm-47.583-.9h46.682V652.714H701.651Z" transform="translate(-574.448 -534.331)"/>
        <rect id="Rectángulo_458309" data-name="Rectángulo 458309" width="16.582" height="1.802" transform="translate(133.061 122.844)" fill="#4a90f7"/>
        <rect id="Rectángulo_458310" data-name="Rectángulo 458310" width="34.966" height="1.802" transform="translate(133.061 127.98)" fill="#4a90f7"/>
        <path id="Trazado_1006733" data-name="Trazado 1006733" d="M638.768,14.4a12.793,12.793,0,0,0-25.524,0H598.25V34.582h54.071V14.4Zm-13.483,1.983a3.875,3.875,0,1,1,3.875-3.875,3.875,3.875,0,0,1-3.875,3.875" transform="translate(-490.423 -2.049)" fill="#fff"/>
        <path id="Trazado_1006734" data-name="Trazado 1006734" d="M650.723,32.984H595.75V11.9h15.032a13.244,13.244,0,0,1,26.351,0h13.59Zm-54.071-.9h53.17V12.8H636.3l-.029-.419a12.343,12.343,0,0,0-24.624,0l-.029.419H596.651Zm26.585-17.3a4.326,4.326,0,1,1,4.326-4.326,4.331,4.331,0,0,1-4.326,4.326m0-7.75a3.425,3.425,0,1,0,3.425,3.425,3.428,3.428,0,0,0-3.425-3.425" transform="translate(-488.373)"/>
        <path id="Trazado_1006735" data-name="Trazado 1006735" d="M71.61,575.858H59.937L53,631.577H71.61Z" transform="translate(-43.447 -472.066)"/>
        <path id="Trazado_1006736" data-name="Trazado 1006736" d="M69.739,629.978H50.169l7.05-56.62H69.739Zm-18.55-.9H68.838V574.259H58.015Z" transform="translate(-41.127 -470.017)"/>
        <path id="Trazado_1006737" data-name="Trazado 1006737" d="M113.484,575.858l.8,10.681,3.383,45.038H180l-3.383-45.038-.8-10.681Z" transform="translate(-93.03 -472.066)" fill="#4a90f7"/>
        <path id="Trazado_1006738" data-name="Trazado 1006738" d="M178.272,629.978h-63.23l-4.252-56.62h63.23Zm-62.394-.9H177.3l-4.117-54.818H111.761Z" transform="translate(-90.821 -470.017)"/>
        <path id="Trazado_1006739" data-name="Trazado 1006739" d="M390.843,671.777h-7.928l.881,8.369h7.928Z" transform="translate(-313.898 -550.697)" fill="#fff"/>
        <path id="Trazado_1006740" data-name="Trazado 1006740" d="M389.948,678.547h-8.835l-.976-9.27h8.835Zm-8.023-.9h7.022l-.786-7.468h-7.022Z" transform="translate(-311.623 -548.648)"/>
        <path id="Trazado_1006741" data-name="Trazado 1006741" d="M315.084,671.777h-7.928l.881,8.369h7.928Z" transform="translate(-251.795 -550.697)" fill="#fff"/>
        <path id="Trazado_1006742" data-name="Trazado 1006742" d="M314.189,678.547h-8.835l-.976-9.27h8.835Zm-8.023-.9h7.022l-.786-7.468H305.38Z" transform="translate(-249.518 -548.648)"/>
        <path id="Trazado_1006743" data-name="Trazado 1006743" d="M239.326,671.777H231.4l.881,8.369h7.928Z" transform="translate(-189.691 -550.697)" fill="#fff"/>
        <path id="Trazado_1006744" data-name="Trazado 1006744" d="M238.432,678.547H229.6l-.976-9.27h8.835Zm-8.023-.9h7.022l-.786-7.468h-7.022Z" transform="translate(-187.416 -548.648)"/>
        <path id="Trazado_1006745" data-name="Trazado 1006745" d="M163.568,671.777H155.64l.881,8.369h7.928Z" transform="translate(-127.587 -550.697)" fill="#fff"/>
        <path id="Trazado_1006746" data-name="Trazado 1006746" d="M162.673,678.547h-8.835l-.976-9.27H161.7Zm-8.023-.9h7.022l-.786-7.468h-7.022Z" transform="translate(-125.311 -548.648)"/>
        <path id="Trazado_1006747" data-name="Trazado 1006747" d="M399.4,740.2h-7.929l.881,8.369h7.928Z" transform="translate(-320.91 -606.791)" fill="#fff"/>
        <path id="Trazado_1006748" data-name="Trazado 1006748" d="M398.5,746.974h-8.835l-.976-9.27h8.835Zm-8.023-.9H397.5l-.786-7.468h-7.022Z" transform="translate(-318.634 -604.742)"/>
        <path id="Trazado_1006749" data-name="Trazado 1006749" d="M323.638,740.2h-7.928l.881,8.369h7.928Z" transform="translate(-258.806 -606.791)" fill="#fff"/>
        <path id="Trazado_1006750" data-name="Trazado 1006750" d="M322.743,746.974h-8.835l-.976-9.27h8.835Zm-8.023-.9h7.022l-.786-7.468h-7.022Z" transform="translate(-256.531 -604.742)"/>
        <path id="Trazado_1006751" data-name="Trazado 1006751" d="M247.88,740.2h-7.928l.881,8.369h7.928Z" transform="translate(-196.703 -606.791)" fill="#fff"/>
        <path id="Trazado_1006752" data-name="Trazado 1006752" d="M246.985,746.974h-8.835l-.976-9.27h8.835Zm-8.023-.9h7.022l-.786-7.468h-7.022Z" transform="translate(-194.427 -604.742)"/>
        <path id="Trazado_1006753" data-name="Trazado 1006753" d="M172.121,740.2h-7.928l.881,8.369H173Z" transform="translate(-134.599 -606.791)" fill="#fff"/>
        <path id="Trazado_1006754" data-name="Trazado 1006754" d="M171.226,746.974h-8.835l-.976-9.27h8.835Zm-8.023-.9h7.022l-.786-7.468h-7.022Z" transform="translate(-132.323 -604.742)"/>
        <path id="Trazado_1006755" data-name="Trazado 1006755" d="M407.949,808.631h-7.928L400.9,817h7.928Z" transform="translate(-327.922 -662.885)" fill="#fff"/>
        <path id="Trazado_1006756" data-name="Trazado 1006756" d="M407.055,815.4h-8.835l-.976-9.27h8.835Zm-8.023-.9h7.022l-.786-7.468h-7.022Z" transform="translate(-325.646 -660.835)"/>
        <path id="Trazado_1006757" data-name="Trazado 1006757" d="M332.191,808.631h-7.928l.881,8.369h7.928Z" transform="translate(-265.818 -662.885)" fill="#fff"/>
        <path id="Trazado_1006758" data-name="Trazado 1006758" d="M331.3,815.4h-8.835l-.976-9.27h8.835Zm-8.023-.9H330.3l-.786-7.468h-7.022Z" transform="translate(-263.542 -660.835)"/>
        <path id="Trazado_1006759" data-name="Trazado 1006759" d="M256.433,808.631H248.5l.881,8.369h7.928Z" transform="translate(-203.715 -662.885)" fill="#fff"/>
        <path id="Trazado_1006760" data-name="Trazado 1006760" d="M255.538,815.4H246.7l-.976-9.27h8.835Zm-8.023-.9h7.022l-.786-7.468h-7.022Z" transform="translate(-201.438 -660.835)"/>
        <path id="Trazado_1006761" data-name="Trazado 1006761" d="M180.675,808.631h-7.928l.881,8.369h7.928Z" transform="translate(-141.611 -662.885)" fill="#fff"/>
        <path id="Trazado_1006762" data-name="Trazado 1006762" d="M179.78,815.4h-8.835l-.976-9.27H178.8Zm-8.023-.9h7.022l-.786-7.468h-7.022Z" transform="translate(-139.335 -660.835)"/>
        <path id="Trazado_1006763" data-name="Trazado 1006763" d="M113.484,575.858l.8,10.681h62.326l-.8-10.681Z" transform="translate(-93.03 -472.066)" fill="#ffd423"/>
        <path id="Trazado_1006764" data-name="Trazado 1006764" d="M174.888,584.94h-63.23l-.869-11.582h63.23Zm-62.394-.9h61.422l-.734-9.78H111.76Z" transform="translate(-90.821 -470.017)"/>
        <path id="Trazado_1006765" data-name="Trazado 1006765" d="M381.544,557.287v-.9a4.5,4.5,0,1,0-4.5-4.5h-.9a5.406,5.406,0,1,1,5.406,5.406" transform="translate(-308.344 -447.979)"/>
        <path id="Trazado_1006766" data-name="Trazado 1006766" d="M264.241,557.287v-.9a4.5,4.5,0,1,0-4.5-4.5h-.9a5.406,5.406,0,1,1,5.406,5.406" transform="translate(-212.183 -447.979)"/>
        <path id="Trazado_1006767" data-name="Trazado 1006767" d="M155.491,557.287v-.9a4.5,4.5,0,1,0-4.5-4.5h-.9a5.406,5.406,0,1,1,5.406,5.406" transform="translate(-123.034 -447.979)"/>
        <path id="Trazado_1006768" data-name="Trazado 1006768" d="M410.828,703.917a18,18,0,1,0,18-18,18,18,0,0,0-18,18" transform="translate(-336.781 -562.288)"/>
        <path id="Trazado_1006769" data-name="Trazado 1006769" d="M426.781,720.319a18.452,18.452,0,1,1,18.452-18.452,18.473,18.473,0,0,1-18.452,18.452m0-36a17.551,17.551,0,1,0,17.551,17.551,17.571,17.571,0,0,0-17.551-17.551" transform="translate(-334.733 -560.238)"/>
        <path id="Trazado_1006770" data-name="Trazado 1006770" d="M428.828,703.917a18,18,0,1,0,18-18,18,18,0,0,0-18,18" transform="translate(-351.537 -562.288)" fill="#ffd423"/>
        <path id="Trazado_1006771" data-name="Trazado 1006771" d="M444.781,720.319a18.452,18.452,0,1,1,18.452-18.452,18.473,18.473,0,0,1-18.452,18.452m0-36a17.551,17.551,0,1,0,17.551,17.551,17.571,17.571,0,0,0-17.551-17.551" transform="translate(-349.488 -560.238)"/>
        <path id="Trazado_1006772" data-name="Trazado 1006772" d="M454.909,725.3a13.3,13.3,0,1,0,13.3-13.3,13.3,13.3,0,0,0-13.3,13.3" transform="translate(-372.917 -583.667)" fill="#fff"/>
        <path id="Trazado_1006773" data-name="Trazado 1006773" d="M466.16,737a13.751,13.751,0,1,1,13.751-13.751A13.767,13.767,0,0,1,466.16,737m0-26.6a12.85,12.85,0,1,0,12.85,12.85,12.865,12.865,0,0,0-12.85-12.85" transform="translate(-370.868 -581.618)"/>
        <path id="Trazado_1006774" data-name="Trazado 1006774" d="M510.3,753.431a5.032,5.032,0,0,1-3.02,1.2v1.961h-1.436v-1.943a9.812,9.812,0,0,1-2.451-.473,5.338,5.338,0,0,1-1.838-.981l.788-1.768a5.8,5.8,0,0,0,1.576.884,7.008,7.008,0,0,0,1.926.447v-3.5a12.862,12.862,0,0,1-2.075-.657,3.593,3.593,0,0,1-1.392-1.05,2.816,2.816,0,0,1-.56-1.83,3.235,3.235,0,0,1,1.033-2.416,4.861,4.861,0,0,1,2.994-1.191v-1.978h1.436v1.943a8.212,8.212,0,0,1,1.917.333,6.31,6.31,0,0,1,1.637.736l-.718,1.768a7.29,7.29,0,0,0-2.836-.946V747.5a13.516,13.516,0,0,1,2.092.648,3.6,3.6,0,0,1,1.4,1.042,2.79,2.79,0,0,1,.569,1.83,3.2,3.2,0,0,1-1.042,2.408m-5.769-6.89a3.942,3.942,0,0,0,1.313.6V744.02a2.425,2.425,0,0,0-1.331.56,1.376,1.376,0,0,0-.438,1.033,1.112,1.112,0,0,0,.455.928m4.123,5.638a1.29,1.29,0,0,0,.446-1,1.139,1.139,0,0,0-.473-.954,4.056,4.056,0,0,0-1.348-.6v3.1a2.606,2.606,0,0,0,1.374-.543" transform="translate(-411.153 -606.733)"/>
        <path id="Trazado_1006775" data-name="Trazado 1006775" d="M1155.665,296.688s2.594,13.325-5.9,12.028L1116.5,297.169l3.064-6.669,27.847,6.777Z" transform="translate(-915.264 -238.141)" fill="#fff"/>
        <path id="Trazado_1006776" data-name="Trazado 1006776" d="M1148.077,306.864a7.807,7.807,0,0,1-1.181-.094l-.08-.02-33.738-11.709,3.426-7.457,28.139,6.848,8.582-.613.076.392c.063.323,1.506,7.957-1.623,11.215a4.781,4.781,0,0,1-3.6,1.438m-1.005-.979a4.308,4.308,0,0,0,3.957-1.083c2.434-2.535,1.7-8.449,1.455-10.027l-7.917.565-27.554-6.706-2.7,5.88Z" transform="translate(-912.459 -235.75)"/>
        <path id="Trazado_1006777" data-name="Trazado 1006777" d="M1217.939,180.459l-3.767-8.071-3.472-6.809-6.993,2.874s-.436,11.872,5.67,8.774l1.583,4.642Z" transform="translate(-986.747 -135.735)" fill="#fff"/>
        <path id="Trazado_1006778" data-name="Trazado 1006778" d="M1208.607,179.776l-1.55-4.544a3.3,3.3,0,0,1-3.171-.106c-2.922-1.869-2.695-9-2.684-9.3l.011-.29,7.646-3.142,3.661,7.179,4.016,8.6Zm-1.026-5.8,1.623,4.758,6.03-1.219-3.525-7.552-3.277-6.425-6.337,2.6c-.033,2.112.306,6.962,2.277,8.222a2.655,2.655,0,0,0,2.746-.154Z" transform="translate(-984.693 -133.122)"/>
        <path id="Trazado_1006779" data-name="Trazado 1006779" d="M1187.176,159.109c-.45-1.426,1.583-2.212,1.583-2.212-.746.046-1.072-.278-1.137-.591-.374-1.784,3.467-1.666,3.467-1.666-.91-.473.073-.974.073-.974,1.234-.506,3.76-.286,5.541-.038.538-.14,7.349-1.7,4.745,9.719,0,0-3.358,2.012-4.678-1.564,0,0,.507-2.121-1.215-1.949a.844.844,0,0,0-.71.577,3.86,3.86,0,0,0-.2,1,.417.417,0,0,1-.815.106l-.453-1.434c-2.968.754-5.883.038-6.2-.97" transform="translate(-973.148 -125.719)"/>
        <path id="Trazado_1006780" data-name="Trazado 1006780" d="M1210.855,423.718s-1.081,3.785-13.7,3.064S1184,423.358,1184,423.358l2.7-4.686,22.079-1.172Z" transform="translate(-970.598 -342.251)" fill="#ffd423"/>
        <path id="Trazado_1006781" data-name="Trazado 1006781" d="M1198.062,425.2q-1.461,0-3.092-.093c-12.339-.705-13.472-3.277-13.573-3.786l-.033-.166,2.91-5.045,22.666-1.2,2.225,6.676-.038.134c-.034.117-.384,1.171-2.362,2.087-2,.929-4.923,1.4-8.7,1.4m-15.709-3.958c.388.51,2.5,2.384,12.668,2.965,10.713.612,12.854-2.063,13.189-2.641l-1.908-5.723-21.492,1.14Z" transform="translate(-968.437 -340.122)"/>
        <path id="Trazado_1006782" data-name="Trazado 1006782" d="M1255,826.244a15.974,15.974,0,0,0,8.291,1.8s3.965-.36,5.407-1.8l-.9-3.244-12.076.18Z" transform="translate(-1028.801 -674.664)" fill="#ffd423"/>
        <path id="Trazado_1006783" data-name="Trazado 1006783" d="M1259.912,826.465a16.491,16.491,0,0,1-7.481-1.9l-.292-.167.878-3.734,12.775-.191,1.064,3.833-.186.186c-1.54,1.54-5.516,1.917-5.685,1.933-.364.029-.722.042-1.075.042m-6.738-2.531a15.611,15.611,0,0,0,7.736,1.591c1-.091,3.724-.534,4.934-1.5l-.733-2.64-11.377.17Z" transform="translate(-1026.456 -672.591)"/>
        <path id="Trazado_1006784" data-name="Trazado 1006784" d="M1072,823.933s.721,2.523,6.308,3.064c0,0,5.587,0,7.029-1.8l.36-2.163-12.346-1.532Z" transform="translate(-878.785 -673.434)" fill="#ffd423"/>
        <path id="Trazado_1006785" data-name="Trazado 1006785" d="M1076.1,825.244l-.043,0c-5.826-.564-6.665-3.274-6.7-3.389l-.051-.18,1.59-2.862,13.114,1.627-.457,2.742-.073.092c-1.533,1.916-6.787,1.971-7.381,1.971m-5.806-3.491c.277.514,1.494,2.166,5.828,2.59,1.48,0,5.418-.289,6.584-1.55l.263-1.576-11.578-1.437Z" transform="translate(-876.581 -671.231)"/>
        <path id="Trazado_1006786" data-name="Trazado 1006786" d="M1023.51,825s-4.043,5.919-7.954,6.737c-4.842,1.013-6.342,3.467-6.464,4.077h18.368l1.9-10.6Z" transform="translate(-827.215 -676.304)" fill="#fff"/>
        <path id="Trazado_1006787" data-name="Trazado 1006787" d="M1025.337,834.175h-19.294l.108-.539c.132-.662,1.677-3.355,6.814-4.43,3.69-.772,7.634-6.493,7.674-6.55l.14-.205,6.62.242Zm-18.023-.9h17.269l1.744-9.718-5.089-.186c-.773,1.083-4.423,5.952-8.09,6.719-3.585.75-5.234,2.32-5.835,3.185" transform="translate(-824.716 -674.214)"/>
        <path id="Trazado_1006788" data-name="Trazado 1006788" d="M1229.167,825s-1.7,5.919-5.61,6.737c-4.842,1.013-6.342,3.467-6.464,4.077h19.269l-1.342-10.6Z" transform="translate(-997.726 -676.304)" fill="#fff"/>
        <path id="Trazado_1006789" data-name="Trazado 1006789" d="M1234.372,834.16h-20.33l.108-.539c.132-.662,1.677-3.355,6.814-4.43,3.6-.752,5.253-6.364,5.27-6.421l.1-.338,6.587.241Zm-19.058-.9h18.036l-1.229-9.713-5.127-.188c-.439,1.315-2.23,5.96-5.845,6.716-3.586.75-5.234,2.32-5.835,3.185" transform="translate(-995.225 -674.198)"/>
        <path id="Trazado_1006790" data-name="Trazado 1006790" d="M1111.755,396.946s2,14.858.943,25.234l4.112,54.981s-4.187-1.826-7.445-1.622a40.279,40.279,0,0,0-7.417,1.622l-3.871-48.85-14.828,49.03A20.142,20.142,0,0,0,1075.48,475a16.943,16.943,0,0,0-6.491.9l24.724-78.954Z" transform="translate(-876.316 -325.401)"/>
        <path id="Trazado_1006791" data-name="Trazado 1006791" d="M937.326,247.162,854.7,257.092a4.737,4.737,0,0,1-1.382-.04l-12.46-2.233-5.146-.923a.524.524,0,0,1-.142-.984l4.728-2.372,11.449-5.742a4.615,4.615,0,0,1,1.537-.463l82.507-9.917a2.837,2.837,0,0,1,3.152,2.477l.854,7.114a2.835,2.835,0,0,1-2.477,3.154" transform="translate(-684.735 -192.15)" fill="#4a90f7"/>
        <path id="Trazado_1006792" data-name="Trazado 1006792" d="M852.092,255.526l-.154,0a5.283,5.283,0,0,1-.746-.077l-17.607-3.156a.975.975,0,0,1-.266-1.83l16.177-8.115a5.071,5.071,0,0,1,1.686-.508l82.507-9.917a3.291,3.291,0,0,1,3.654,2.87l.854,7.114a3.285,3.285,0,0,1-2.87,3.655h0l-82.621,9.929a5.372,5.372,0,0,1-.615.036m81.99-22.727a2.407,2.407,0,0,0-.284.017l-82.507,9.917a4.163,4.163,0,0,0-1.388.418l-16.177,8.115a.066.066,0,0,0-.04.077.064.064,0,0,0,.059.061l17.606,3.156a4.3,4.3,0,0,0,1.252.036l82.619-9.929h0a2.384,2.384,0,0,0,2.083-2.653l-.854-7.114a2.39,2.39,0,0,0-2.367-2.1" transform="translate(-682.684 -190.101)"/>
        <path id="Trazado_1006793" data-name="Trazado 1006793" d="M1354.763,234.422l-8.393,1.009,1.531,12.743,8.393-1.009a2.835,2.835,0,0,0,2.477-3.153l-.855-7.114a2.835,2.835,0,0,0-3.153-2.477" transform="translate(-1103.703 -192.153)" fill="#fff"/>
        <path id="Trazado_1006794" data-name="Trazado 1006794" d="M1345.229,246.623l-1.639-13.638,8.84-1.062a3.285,3.285,0,0,1,3.654,2.87l.855,7.113a3.285,3.285,0,0,1-2.87,3.654Zm-.637-12.851,1.424,11.848,7.946-.955a2.384,2.384,0,0,0,2.083-2.652l-.855-7.114a2.384,2.384,0,0,0-2.652-2.083Z" transform="translate(-1101.424 -190.102)"/>
        <path id="Trazado_1006795" data-name="Trazado 1006795" d="M852.486,290.463a4.682,4.682,0,0,0-.737.294l-13.079,6.562-3.1,1.554a.524.524,0,0,0,.143.984l3.331.6,14.274,2.558a4.658,4.658,0,0,0,.682.071Z" transform="translate(-684.733 -238.111)" fill="#fff"/>
        <path id="Trazado_1006796" data-name="Trazado 1006796" d="M852.461,300.879l-.523-.015a5.124,5.124,0,0,1-.748-.078l-17.606-3.155a.974.974,0,0,1-.265-1.83l16.176-8.116a5.119,5.119,0,0,1,.809-.323l.514-.156Zm-2.405-12.463q-.079.035-.156.074l-16.176,8.116a.073.073,0,0,0,.02.138l17.606,3.155.088.015Z" transform="translate(-682.682 -235.441)"/>
        <path id="Trazado_1006797" data-name="Trazado 1006797" d="M840.862,328.239l-5.146-.923a.524.524,0,0,1-.142-.984l4.728-2.372Z" transform="translate(-684.735 -265.57)"/>
        <path id="Trazado_1006798" data-name="Trazado 1006798" d="M839.643,326.18l-5.631-1.01a.885.885,0,0,1-.241-1.661l5.181-2.6Zm-1.273-4.171-4.275,2.144a.156.156,0,0,0-.089.171.154.154,0,0,0,.132.137l4.661.836Z" transform="translate(-683.094 -263.07)"/>
        <path id="Trazado_1006799" data-name="Trazado 1006799" d="M1202.17,237.293s8.01,2.471,9.812,16.709l-2.884.18,2.163,20.908s-5.227-3.965-15.05-2.974a52.3,52.3,0,0,0-11.5,3l3.115-12.828L1186.2,250.24s3.055-5.366,4.365-7.069a24.3,24.3,0,0,1,3.914-4.074,4.78,4.78,0,0,1,2.313-1.014Z" transform="translate(-971.184 -194.524)" fill="#fff"/>
        <path id="Trazado_1006800" data-name="Trazado 1006800" d="M1208.892,273.981l-.828-.628c-.051-.038-5.223-3.843-14.732-2.885a52.173,52.173,0,0,0-11.377,2.976l-.808.318,3.3-13.589-1.641-12.12.075-.133c.126-.22,3.086-5.412,4.4-7.121a24.774,24.774,0,0,1,3.988-4.15,5.238,5.238,0,0,1,2.53-1.109l5.48-.8.1.03a11.29,11.29,0,0,1,4.427,3.139c2.078,2.236,4.753,6.47,5.7,13.944l.06.476-2.894.181Zm-25.151-25.745,1.622,11.986L1182.43,272.3a49.786,49.786,0,0,1,10.812-2.731c7.787-.787,12.706,1.464,14.55,2.536l-2.115-20.442,2.87-.18c-1.75-12.585-8.493-15.507-9.347-15.828l-5.269.774a4.339,4.339,0,0,0-2.095.918,23.871,23.871,0,0,0-3.84,4c-1.163,1.512-3.778,6.052-4.255,6.885" transform="translate(-968.26 -192.428)"/>
        <path id="Trazado_1006801" data-name="Trazado 1006801" d="M1230.569,476.5l-.806-.4a218.534,218.534,0,0,0,8.992-19.96l.846.31a219.308,219.308,0,0,1-9.032,20.053" transform="translate(-1008.113 -373.927)" fill="#fff"/>
        <rect id="Rectángulo_458311" data-name="Rectángulo 458311" width="7.546" height="0.901" transform="translate(222.069 60.81) rotate(-49.843)"/>
        <path id="Trazado_1006802" data-name="Trazado 1006802" d="M1049.123,310.128l-4.317,7.727-13.04-.5-7.237-3.376a3.961,3.961,0,0,0,.456,2.746l-7.485.859a34.748,34.748,0,0,0,8.415,3.078l19.2,4.669a3.652,3.652,0,0,0,4-1.143l7.32-8.935Z" transform="translate(-834.108 -254.231)" fill="#fff"/>
        <path id="Trazado_1006803" data-name="Trazado 1006803" d="M1039.415,322.993a4.063,4.063,0,0,1-1.289-.209l-19.163-4.66a34.76,34.76,0,0,1-8.534-3.121l-1.3-.68,8.351-.958a3.906,3.906,0,0,1-.237-2.517l.166-.467,7.6,3.547,12.673.485,4.425-7.922,8.117,5.691-7.628,9.31a4.123,4.123,0,0,1-3.184,1.5m-27.188-8.119a29.8,29.8,0,0,0,6.9,2.362l.035.007,19.218,4.674.019.006a3.217,3.217,0,0,0,3.506-1l7.012-8.559-6.5-4.561-4.208,7.533-13.407-.513-6.752-3.15a4.8,4.8,0,0,0,.489,1.885l.258.564Z" transform="translate(-827.245 -251.25)"/>
        <path id="Trazado_1006804" data-name="Trazado 1006804" d="M1316.5,306.5l.75,5.571Z" transform="translate(-1079.217 -251.257)" fill="#fff"/>
        <rect id="Rectángulo_458312" data-name="Rectángulo 458312" width="0.901" height="5.621" transform="translate(236.837 55.303) rotate(-7.671)"/>
        <rect id="Rectángulo_458313" data-name="Rectángulo 458313" width="249.45" height="1.081" transform="translate(0 159.06)"/>
      </g>
    </g>
  </g>
</svg>
