<svg xmlns="http://www.w3.org/2000/svg" width="128" height="128" viewBox="0 0 128 128">
  <g id="Grupo_1184384" data-name="Grupo 1184384" transform="translate(-381.457 -8402.354)">
    <path id="Trazado_997402" data-name="Trazado 997402" d="M64,0A64,64,0,1,1,0,64,64,64,0,0,1,64,0Z" transform="translate(381.457 8402.354)" fill="#cfa9e6"/>
    <g id="Grupo_1184372" data-name="Grupo 1184372" transform="translate(408.986 8429.015)">
      <path id="Trazado_1011200" data-name="Trazado 1011200" d="M14.784,54.689a1.172,1.172,0,0,0,1.3-.373L19.861,49.6l3.773,4.717a1.172,1.172,0,0,0,2.088-.731V37.172A1.172,1.172,0,0,0,24.55,36H15.172A1.172,1.172,0,0,0,14,37.172V53.583A1.172,1.172,0,0,0,14.784,54.689Zm1.56-16.344h7.033v11.9l-2.6-3.252a1.172,1.172,0,0,0-1.831,0l-2.6,3.252Z" transform="translate(1.379 6.028)" fill="#53435c"/>
      <path id="Trazado_1011201" data-name="Trazado 1011201" d="M20.068,66.584v5.921a1.172,1.172,0,0,0,1.172,1.172H56.407a1.172,1.172,0,0,0,.829-.343l9.378-9.378a1.172,1.172,0,0,0,.343-.829V2.172A1.172,1.172,0,0,0,65.784,1H21.24a1.172,1.172,0,0,0-1.172,1.172V36.226a15.224,15.224,0,0,0,0,30.36Zm37.511,3.091V64.3h5.376ZM64.612,3.344V61.955H56.407a1.172,1.172,0,0,0-1.172,1.172v8.206H22.412V66.584a15.239,15.239,0,0,0,11.648-6.974H62.268V57.266H35.307a15.221,15.221,0,0,0,.75-2.344H62.268V52.578H36.419c.03-.388.06-.776.06-1.172s-.029-.784-.06-1.172H62.268V47.889H36.053a15.221,15.221,0,0,0-.747-2.344H62.268V43.2H34.061a15.3,15.3,0,0,0-1.85-2.344H62.268V38.511H29.328a15.1,15.1,0,0,0-6.916-2.285V3.344ZM21.24,38.511A12.894,12.894,0,1,1,8.346,51.405,12.894,12.894,0,0,1,21.24,38.511Z" fill="#53435c"/>
      <path id="Trazado_1011202" data-name="Trazado 1011202" d="M29.689,17.689a2.344,2.344,0,0,1,2.344,2.344h2.344a4.689,4.689,0,0,0-3.517-4.522V13H28.517v2.511a4.679,4.679,0,0,0,1.172,9.211,2.344,2.344,0,1,1-2.344,2.344H25a4.689,4.689,0,0,0,3.517,4.522V34.1h2.344V31.589a4.679,4.679,0,0,0-1.172-9.211,2.344,2.344,0,1,1,0-4.689Z" transform="translate(3.273 2.067)" fill="#53435c"/>
      <path id="Trazado_1011203" data-name="Trazado 1011203" d="M36,15H57.1v2.344H36Z" transform="translate(5.168 2.411)" fill="#53435c"/>
      <path id="Trazado_1011204" data-name="Trazado 1011204" d="M36,19H57.1v2.344H36Z" transform="translate(5.168 3.1)" fill="#53435c"/>
      <path id="Trazado_1011205" data-name="Trazado 1011205" d="M36,23H57.1v2.344H36Z" transform="translate(5.168 3.789)" fill="#53435c"/>
      <path id="Trazado_1011206" data-name="Trazado 1011206" d="M36,27H57.1v2.344H36Z" transform="translate(5.168 4.478)" fill="#53435c"/>
      <path id="Trazado_1011207" data-name="Trazado 1011207" d="M25.172,12.033H55.65a1.172,1.172,0,0,0,1.172-1.172V6.172A1.172,1.172,0,0,0,55.65,5H25.172A1.172,1.172,0,0,0,24,6.172v4.689A1.172,1.172,0,0,0,25.172,12.033Zm1.172-4.689H54.478V9.689H26.344Z" transform="translate(3.101 0.689)" fill="#53435c"/>
    </g>
  </g>
</svg>
