<svg xmlns="http://www.w3.org/2000/svg" width="84" height="84" viewBox="0 0 84 84">
  <g id="Grupo_1182509" data-name="Grupo 1182509" transform="translate(-186 -1357)">
    <rect id="Rectángulo_402006" data-name="Rectángulo 402006" width="84" height="84" rx="5" transform="translate(186 1357)" fill="#ff984a"/>
    <g id="Grupo_1184439" data-name="Grupo 1184439" transform="translate(203.011 1374.017)">
      <path id="Trazado_1011407" data-name="Trazado 1011407" d="M37.923,15.471l-4.755,3.4h-1.3a3.868,3.868,0,1,0,0,7.736h1.3L37.923,30a2.532,2.532,0,0,0,4-2.06V25.831a3.095,3.095,0,1,0,0-6.189V17.531a2.532,2.532,0,0,0-4-2.06Zm-8.376,7.265a2.321,2.321,0,0,1,2.321-2.321h.774v4.642h-.774A2.321,2.321,0,0,1,29.547,22.737Zm13.926,0a1.547,1.547,0,0,1-1.547,1.547V21.189A1.547,1.547,0,0,1,43.473,22.737Zm-3.095-5.205v10.41a.984.984,0,0,1-1.557.8l-4.633-3.31V20.04l4.633-3.31a.984.984,0,0,1,1.557.8Z" transform="translate(-6.111 -3.169)" fill="#53435c"/>
      <path id="Trazado_1011408" data-name="Trazado 1011408" d="M4.868,48.966H31.946a2.321,2.321,0,0,0,2.321-2.321V35a15.452,15.452,0,0,0,0-30.869V4.095A3.1,3.1,0,0,0,31.172,1H4.868A3.873,3.873,0,0,0,1,4.868V45.1a3.873,3.873,0,0,0,3.868,3.868ZM32.72,44.324H2.69a2.321,2.321,0,0,1,2.179-1.547H32.72Zm-.774,3.095H4.868A2.321,2.321,0,0,1,2.69,45.872H32.72v.774A.774.774,0,0,1,31.946,47.419ZM47.419,19.568A13.907,13.907,0,0,1,26.524,31.61a.774.774,0,0,0-.387-.1.747.747,0,0,0-.143.014l-8.632,1.625,3.932-6.026a.774.774,0,0,0,.028-.8,13.926,13.926,0,1,1,26.1-6.752Zm-28.1-6.189H7.963v1.547H18.734a15.369,15.369,0,0,0-.52,2.321H7.963v1.547h10.1c-.013.258-.039.512-.039.774a15.413,15.413,0,0,0,.084,1.547H7.963v1.547H18.341a15.5,15.5,0,0,0,1.342,3.868H5.642V9.51H21.759a15.485,15.485,0,0,0-2.437,3.868ZM4.868,2.547h26.3A1.547,1.547,0,0,1,32.72,4.095v.039a15.388,15.388,0,0,0-9.427,3.829H4.868a.774.774,0,0,0-.774.774V27.3a.774.774,0,0,0,.774.774H18.82l-3.747,5.744A.774.774,0,0,0,15.866,35L26,33.092a15.473,15.473,0,0,0,6.719,1.923V41.23H4.868a3.828,3.828,0,0,0-2.321.794V4.868A2.321,2.321,0,0,1,4.868,2.547Z" fill="#53435c"/>
      <rect id="Rectángulo_459228" data-name="Rectángulo 459228" width="4.377" height="1.547" transform="translate(36.815 12.831) rotate(-45)" fill="#53435c"/>
      <rect id="Rectángulo_459229" data-name="Rectángulo 459229" width="1.547" height="4.377" transform="translate(36.815 26.304) rotate(-45)" fill="#53435c"/>
      <rect id="Rectángulo_459230" data-name="Rectángulo 459230" width="4.642" height="1.547" transform="translate(40.456 18.794)" fill="#53435c"/>
    </g>
  </g>
</svg>
