<svg xmlns="http://www.w3.org/2000/svg" xmlns:xlink="http://www.w3.org/1999/xlink" width="292" height="271.195" viewBox="0 0 292 271.195">
  <defs>
    <clipPath id="clip-path">
      <rect id="Rectángulo_458818" data-name="Rectángulo 458818" width="214.75" height="220.282" fill="none"/>
    </clipPath>
  </defs>
  <g id="Grupo_1182640" data-name="Grupo 1182640" transform="translate(-1121.711 -5186.428)">
    <rect id="Rectángulo_457995" data-name="Rectángulo 457995" width="292" height="271.195" rx="10" transform="translate(1121.711 5186.428)" fill="#ff984a"/>
    <g id="Grupo_1183525" data-name="Grupo 1183525" transform="translate(1160.336 5211.884)">
      <g id="Grupo_1183524" data-name="Grupo 1183524" clip-path="url(#clip-path)">
        <path id="Trazado_1009667" data-name="Trazado 1009667" d="M443.321,255.659l-1.875-.412a1.768,1.768,0,0,1-1.3-1.27,21.762,21.762,0,0,0-2.021-4.847,1.776,1.776,0,0,1,.02-1.816l1.037-1.655a1.477,1.477,0,0,0-.186-1.815l-3.837-3.837a1.478,1.478,0,0,0-1.816-.187l-1.636,1.031a1.774,1.774,0,0,1-1.822.027,21.648,21.648,0,0,0-4.841-2,1.776,1.776,0,0,1-1.277-1.3l-.425-1.895a1.439,1.439,0,0,0-1.417-1.13h-5.459a1.444,1.444,0,0,0-1.41,1.13l-.432,1.895a1.776,1.776,0,0,1-1.277,1.3,21.357,21.357,0,0,0-4.82,1.995,1.758,1.758,0,0,1-1.822-.02l-1.636-1.031a1.478,1.478,0,0,0-1.816.187l-3.837,3.837a1.487,1.487,0,0,0-.2,1.835l1.031,1.609a1.769,1.769,0,0,1,.027,1.835,21.442,21.442,0,0,0-2.008,4.847,1.775,1.775,0,0,1-1.31,1.277l-1.882.419a1.444,1.444,0,0,0-1.137,1.41v5.439a1.473,1.473,0,0,0,1.151,1.436l1.869.412a1.753,1.753,0,0,1,1.31,1.277,21.006,21.006,0,0,0,2,4.827,1.753,1.753,0,0,1-.02,1.835l-1.037,1.629a1.47,1.47,0,0,0,.206,1.808l3.837,3.844a1.481,1.481,0,0,0,1.816.206l1.636-1.044a1.77,1.77,0,0,1,1.829-.027,21.624,21.624,0,0,0,4.834,2.008,1.776,1.776,0,0,1,1.27,1.31l.419,1.875a1.458,1.458,0,0,0,1.423,1.151h5.446a1.457,1.457,0,0,0,1.417-1.151l.412-1.875a1.785,1.785,0,0,1,1.277-1.31,21.429,21.429,0,0,0,4.834-2,1.77,1.77,0,0,1,1.828.02l1.649,1.044a1.448,1.448,0,0,0,1.8-.2l3.85-3.85a1.467,1.467,0,0,0,.186-1.808l-1.031-1.636a1.759,1.759,0,0,1-.02-1.822,21.675,21.675,0,0,0,2.015-4.834,1.753,1.753,0,0,1,1.31-1.277l1.869-.419a1.437,1.437,0,0,0,1.131-1.4v-5.473a1.445,1.445,0,0,0-1.131-1.409M419.2,270.833A11.028,11.028,0,1,1,430.222,259.8,11.034,11.034,0,0,1,419.2,270.833" transform="translate(-234.573 -139.663)" fill="#fff"/>
        <path id="Trazado_1009668" data-name="Trazado 1009668" d="M421.311,284.866h-5.446a1.885,1.885,0,0,1-1.83-1.478l-.418-1.873a1.361,1.361,0,0,0-.978-1,22.042,22.042,0,0,1-4.924-2.046,1.36,1.36,0,0,0-1.4.015l-1.636,1.044a1.9,1.9,0,0,1-2.326-.254l-3.845-3.852a1.884,1.884,0,0,1-.262-2.327l1.036-1.629a1.337,1.337,0,0,0,.012-1.4,21.487,21.487,0,0,1-2.043-4.926,1.34,1.34,0,0,0-1-.981l-1.87-.413a1.883,1.883,0,0,1-1.477-1.843v-5.439a1.85,1.85,0,0,1,1.464-1.816l1.881-.419a1.359,1.359,0,0,0,1-.981A21.959,21.959,0,0,1,399.3,248.3a1.343,1.343,0,0,0-.015-1.4l-1.031-1.609a1.9,1.9,0,0,1,.254-2.352l3.838-3.839a1.9,1.9,0,0,1,2.334-.243l1.634,1.03a1.345,1.345,0,0,0,1.394.01,21.832,21.832,0,0,1,4.916-2.034,1.361,1.361,0,0,0,.983-1l.432-1.895a1.872,1.872,0,0,1,1.816-1.454h5.459a1.86,1.86,0,0,1,1.824,1.462l.424,1.889a1.357,1.357,0,0,0,.98.993,22.052,22.052,0,0,1,4.935,2.041,1.351,1.351,0,0,0,1.4-.016l1.636-1.031a1.9,1.9,0,0,1,2.323.236l3.845,3.845a1.9,1.9,0,0,1,.243,2.333l-1.035,1.653a1.366,1.366,0,0,0-.009,1.391,22.229,22.229,0,0,1,2.059,4.938,1.355,1.355,0,0,0,1,.977l1.871.411h0a1.872,1.872,0,0,1,1.457,1.816v5.473a1.845,1.845,0,0,1-1.456,1.809l-1.868.419a1.341,1.341,0,0,0-1,.979,22.107,22.107,0,0,1-2.054,4.931,1.345,1.345,0,0,0,.008,1.393l1.032,1.638a1.88,1.88,0,0,1-.238,2.319l-3.856,3.856a1.873,1.873,0,0,1-2.321.256l-1.647-1.042a1.358,1.358,0,0,0-1.4-.01,21.911,21.911,0,0,1-4.929,2.041,1.375,1.375,0,0,0-.982,1l-.411,1.871a1.869,1.869,0,0,1-1.823,1.477m-14.3-7.416a2.266,2.266,0,0,1,1.109.294,21.227,21.227,0,0,0,4.741,1.97,2.193,2.193,0,0,1,1.566,1.622l.418,1.873a1.049,1.049,0,0,0,1.017.825h5.446a1.034,1.034,0,0,0,1.009-.819l.413-1.88a2.211,2.211,0,0,1,1.571-1.621,21.082,21.082,0,0,0,4.742-1.962,2.188,2.188,0,0,1,2.255.03l1.65,1.044a1.039,1.039,0,0,0,1.285-.142l3.85-3.85a1.048,1.048,0,0,0,.13-1.29l-1.032-1.638a2.174,2.174,0,0,1-.03-2.25,21.267,21.267,0,0,0,1.976-4.74,2.169,2.169,0,0,1,1.623-1.572l1.865-.418a1.018,1.018,0,0,0,.805-1v-5.473a1.034,1.034,0,0,0-.8-1l-1.875-.412a2.186,2.186,0,0,1-1.615-1.567,21.405,21.405,0,0,0-1.982-4.753,2.2,2.2,0,0,1,.03-2.241l1.037-1.655a1.064,1.064,0,0,0-.136-1.308l-3.829-3.829a1.061,1.061,0,0,0-1.3-.13l-1.638,1.032a2.2,2.2,0,0,1-2.247.038,21.2,21.2,0,0,0-4.749-1.964,2.189,2.189,0,0,1-1.571-1.612l-.426-1.9a1.027,1.027,0,0,0-1.01-.805h-5.459a1.034,1.034,0,0,0-1,.8l-.432,1.9a2.19,2.19,0,0,1-1.573,1.613,20.982,20.982,0,0,0-4.726,1.956,2.172,2.172,0,0,1-2.25-.031l-1.634-1.03a1.064,1.064,0,0,0-1.307.136l-3.828,3.829a1.068,1.068,0,0,0-.141,1.32l1.028,1.605a2.19,2.19,0,0,1,.039,2.264,21.1,21.1,0,0,0-1.97,4.755,2.191,2.191,0,0,1-1.619,1.571l-1.884.419a1.023,1.023,0,0,0-.811,1V261.9a1.053,1.053,0,0,0,.826,1.03l1.866.412a2.169,2.169,0,0,1,1.622,1.574,20.632,20.632,0,0,0,1.961,4.73,2.164,2.164,0,0,1-.032,2.267l-1.036,1.628a1.052,1.052,0,0,0,.155,1.3l3.831,3.837a1.063,1.063,0,0,0,1.3.15l1.636-1.045a2.129,2.129,0,0,1,1.147-.332m11.571-6.813a11.444,11.444,0,1,1,11.441-11.448,11.461,11.461,0,0,1-11.441,11.448m0-22.056a10.612,10.612,0,1,0,10.608,10.608,10.624,10.624,0,0,0-10.608-10.608" transform="translate(-233.96 -139.051)" fill="#2e186b"/>
        <rect id="Rectángulo_458795" data-name="Rectángulo 458795" width="44.08" height="39.462" transform="translate(0.416 6.423)" fill="#fff"/>
        <path id="Trazado_1009669" data-name="Trazado 1009669" d="M44.5,55.144H35.869a.416.416,0,0,1,0-.833h8.212V15.679H.833V54.311H20.821a.416.416,0,0,1,0,.833H.416A.416.416,0,0,1,0,54.728V15.262a.416.416,0,0,1,.416-.416H44.5a.416.416,0,0,1,.416.416V54.728a.416.416,0,0,1-.416.416" transform="translate(0 -8.84)" fill="#2e186b"/>
        <path id="Trazado_1009670" data-name="Trazado 1009670" d="M87.322,61.4V69.84a1.2,1.2,0,0,1-1.2,1.2H82.841a1.2,1.2,0,0,1-1.2-1.2V61.4a1.2,1.2,0,0,1,1.2-1.2H86.12a1.2,1.2,0,0,1,1.2,1.2" transform="translate(-48.613 -35.847)" fill="#9654ff"/>
        <path id="Trazado_1009671" data-name="Trazado 1009671" d="M64.152,37.58V55.655a1.2,1.2,0,0,1-1.2,1.2H59.668a1.2,1.2,0,0,1-1.2-1.2V37.58a1.2,1.2,0,0,1,1.2-1.2H62.95a1.2,1.2,0,0,1,1.2,1.2" transform="translate(-34.814 -21.662)" fill="#9654ff"/>
        <path id="Trazado_1009672" data-name="Trazado 1009672" d="M17.811,47.837V61.762a1.2,1.2,0,0,1-1.2,1.2H13.327a1.2,1.2,0,0,1-1.2-1.2V47.837a1.2,1.2,0,0,1,1.2-1.2h3.279a1.2,1.2,0,0,1,1.2,1.2" transform="translate(-7.22 -27.769)" fill="#9654ff"/>
        <path id="Trazado_1009673" data-name="Trazado 1009673" d="M40.981,26v22.76a1.2,1.2,0,0,1-1.2,1.2H36.5a1.2,1.2,0,0,1-1.2-1.2V26a1.2,1.2,0,0,1,1.2-1.2h3.28a1.2,1.2,0,0,1,1.2,1.2" transform="translate(-21.019 -14.766)" fill="#9654ff"/>
        <path id="Trazado_1009674" data-name="Trazado 1009674" d="M87.322,77.618V79.5a1.2,1.2,0,0,1-1.2,1.2H82.841a1.2,1.2,0,0,1-1.2-1.2V77.618a1.2,1.2,0,0,1,1.2-1.2H86.12a1.2,1.2,0,0,1,1.2,1.2" transform="translate(-48.613 -45.503)" fill="#ff7af1"/>
        <path id="Trazado_1009675" data-name="Trazado 1009675" d="M64.152,53.8V65.311a1.2,1.2,0,0,1-1.2,1.2H59.668a1.2,1.2,0,0,1-1.2-1.2V53.8a1.2,1.2,0,0,1,1.2-1.2H62.95a1.2,1.2,0,0,1,1.2,1.2" transform="translate(-34.814 -31.318)" fill="#ff7af1"/>
        <path id="Trazado_1009676" data-name="Trazado 1009676" d="M17.811,64.052v7.366a1.2,1.2,0,0,1-1.2,1.2H13.327a1.2,1.2,0,0,1-1.2-1.2V64.052a1.2,1.2,0,0,1,1.2-1.2h3.279a1.2,1.2,0,0,1,1.2,1.2" transform="translate(-7.22 -37.425)" fill="#ff7af1"/>
        <path id="Trazado_1009677" data-name="Trazado 1009677" d="M40.981,42.215v16.2a1.2,1.2,0,0,1-1.2,1.2H36.5a1.2,1.2,0,0,1-1.2-1.2v-16.2a1.2,1.2,0,0,1,1.2-1.2h3.28a1.2,1.2,0,0,1,1.2,1.2" transform="translate(-21.019 -24.422)" fill="#ff7af1"/>
        <path id="Trazado_1009678" data-name="Trazado 1009678" d="M255.282,429.984H244.9a5.755,5.755,0,0,1-5.645-6.852L243.5,401.46V353.367h13.179V401.46l4.246,21.672a5.754,5.754,0,0,1-5.64,6.852" transform="translate(-142.401 -210.416)" fill="#2e186b"/>
        <path id="Trazado_1009679" data-name="Trazado 1009679" d="M254.67,429.788H244.283a6.172,6.172,0,0,1-6.054-7.347l4.239-21.634V352.754a.416.416,0,0,1,.416-.416h13.179a.417.417,0,0,1,.417.416v48.053l4.238,21.632a6.171,6.171,0,0,1-6.049,7.349M243.3,353.171v47.677a.448.448,0,0,1-.008.08L239.047,422.6a5.339,5.339,0,0,0,5.236,6.356H254.67A5.338,5.338,0,0,0,259.9,422.6l-4.246-21.67a.414.414,0,0,1-.008-.08V353.171Z" transform="translate(-141.79 -209.803)" fill="#2e186b"/>
        <path id="Trazado_1009680" data-name="Trazado 1009680" d="M185.414,333.818l-42.045,56.644-.008.013-9.5,19.919a5.758,5.758,0,0,1-8.617,2.14l-8.338-6.19a5.749,5.749,0,0,1-.445-8.863l16.323-14.874,42.041-56.644Z" transform="translate(-68.234 -194.098)" fill="#2e186b"/>
        <path id="Trazado_1009681" data-name="Trazado 1009681" d="M128.051,413.47a6.138,6.138,0,0,1-3.664-1.214l-8.338-6.19a6.165,6.165,0,0,1-.478-9.5l16.293-14.847L173.881,325.1a.417.417,0,0,1,.583-.086l10.586,7.855a.416.416,0,0,1,.086.583l-42.028,56.621-9.48,19.886a6.189,6.189,0,0,1-5.577,3.509m46.25-87.537-41.793,56.31a.445.445,0,0,1-.054.059l-16.323,14.874a5.332,5.332,0,0,0,.413,8.221l8.338,6.19a5.342,5.342,0,0,0,7.994-1.986l9.495-19.918a.464.464,0,0,1,.03-.053l41.816-56.338Z" transform="translate(-67.621 -193.486)" fill="#2e186b"/>
        <path id="Trazado_1009682" data-name="Trazado 1009682" d="M311.223,406.345l-8.338,6.19a5.758,5.758,0,0,1-8.617-2.14l-9.5-19.919-.008-.013-42.045-56.644,10.586-7.855,42.041,56.644,16.322,14.874a5.749,5.749,0,0,1-.445,8.863" transform="translate(-144.53 -194.099)" fill="#2e186b"/>
        <path id="Trazado_1009683" data-name="Trazado 1009683" d="M298.857,413.469a6.192,6.192,0,0,1-5.577-3.507l-9.48-19.887-42.028-56.622a.416.416,0,0,1,.086-.583l10.586-7.855a.417.417,0,0,1,.583.086l42.016,56.612,16.293,14.847a6.166,6.166,0,0,1-.477,9.5l-8.338,6.19a6.141,6.141,0,0,1-3.664,1.214m-56.168-80.178,41.8,56.31a.58.58,0,0,1,.05.082l9.5,19.919a5.341,5.341,0,0,0,7.993,1.984l8.338-6.19a5.333,5.333,0,0,0,.412-8.221L294.454,382.3a.394.394,0,0,1-.054-.059l-41.793-56.31Z" transform="translate(-143.917 -193.485)" fill="#2e186b"/>
        <rect id="Rectángulo_458796" data-name="Rectángulo 458796" width="13.181" height="48.11" transform="translate(96.516 142.949)" fill="#9654ff"/>
        <rect id="Rectángulo_458797" data-name="Rectángulo 458797" width="3.045" height="48.109" transform="translate(96.518 142.953)" fill="#fff"/>
        <path id="Trazado_1009684" data-name="Trazado 1009684" d="M243.961,500.779H233.575a5.754,5.754,0,0,1-5.641-6.854l4.244-21.669h13.181l4.244,21.669a5.754,5.754,0,0,1-5.641,6.854" transform="translate(-135.662 -281.21)" fill="#ff7af1"/>
        <path id="Trazado_1009685" data-name="Trazado 1009685" d="M245.513,500.555a5.372,5.372,0,0,1-1.558.22H233.57a5.751,5.751,0,0,1-5.641-6.853l4.248-21.667h3.729L231.7,493.7a5.754,5.754,0,0,0,5.641,6.853Z" transform="translate(-135.659 -281.21)" fill="#fff"/>
        <path id="Trazado_1009686" data-name="Trazado 1009686" d="M251.149,401.276H237.968a.416.416,0,0,1-.416-.416V395.2a.416.416,0,0,1,.833,0v5.245h12.348V353.167H238.385v34.2a.416.416,0,1,1-.833,0V352.75a.416.416,0,0,1,.416-.416h13.181a.416.416,0,0,1,.416.416v48.11a.416.416,0,0,1-.416.416" transform="translate(-141.453 -209.801)" fill="#2e186b"/>
        <path id="Trazado_1009687" data-name="Trazado 1009687" d="M243.349,500.582H232.963a6.171,6.171,0,0,1-6.05-7.349l4.244-21.67a.416.416,0,0,1,.409-.336h13.181a.416.416,0,0,1,.409.336l4.244,21.668a6.171,6.171,0,0,1-6.05,7.351M231.908,472.06l-4.178,21.332a5.339,5.339,0,0,0,5.233,6.358h10.386a5.338,5.338,0,0,0,5.233-6.359L244.4,472.06Z" transform="translate(-135.05 -280.597)" fill="#2e186b"/>
        <rect id="Rectángulo_458798" data-name="Rectángulo 458798" width="70.557" height="13.181" transform="matrix(0.596, -0.803, 0.803, 0.596, 59.965, 188.522)" fill="#9654ff"/>
        <rect id="Rectángulo_458799" data-name="Rectángulo 458799" width="70.557" height="3.449" transform="matrix(0.596, -0.803, 0.803, 0.596, 59.964, 188.521)" fill="#fff"/>
        <path id="Trazado_1009688" data-name="Trazado 1009688" d="M113.929,495.916l-8.34-6.19a5.754,5.754,0,0,1-.445-8.866l16.322-14.87,10.584,7.855-9.506,19.929a5.754,5.754,0,0,1-8.615,2.142" transform="translate(-61.493 -277.478)" fill="#ff7af1"/>
        <path id="Trazado_1009689" data-name="Trazado 1009689" d="M132.049,473.845l-.154.331-8.159-6.053-16.317,14.87a5.758,5.758,0,0,0-.941,7.391l-.89-.658a5.75,5.75,0,0,1-.441-8.863l16.317-14.871Z" transform="translate(-61.494 -277.48)" fill="#fff"/>
        <path id="Trazado_1009690" data-name="Trazado 1009690" d="M158.2,390.277a.415.415,0,0,1-.248-.082l-10.584-7.855a.416.416,0,0,1-.086-.583L189.333,325.1a.417.417,0,0,1,.583-.086l10.584,7.855a.417.417,0,0,1,.087.583l-42.051,56.658a.417.417,0,0,1-.335.168m-10-8.358,9.916,7.359,41.555-55.989-9.916-7.359Z" transform="translate(-87.652 -193.484)" fill="#2e186b"/>
        <path id="Trazado_1009691" data-name="Trazado 1009691" d="M116.73,496.851a6.137,6.137,0,0,1-3.663-1.214l-8.34-6.19a6.171,6.171,0,0,1-.478-9.508l16.323-14.871a.418.418,0,0,1,.529-.027l10.584,7.855a.417.417,0,0,1,.127.514l-9.506,19.929a6.186,6.186,0,0,1-5.576,3.511m4.149-30.936L104.81,480.554a5.339,5.339,0,0,0,.413,8.224l8.34,6.19a5.338,5.338,0,0,0,7.992-1.988l9.358-19.619Z" transform="translate(-60.88 -276.865)" fill="#2e186b"/>
        <rect id="Rectángulo_458800" data-name="Rectángulo 458800" width="13.181" height="70.557" transform="matrix(0.803, -0.596, 0.596, 0.803, 93.613, 139.719)" fill="#9654ff"/>
        <rect id="Rectángulo_458801" data-name="Rectángulo 458801" width="3.449" height="70.557" transform="matrix(0.803, -0.596, 0.596, 0.803, 101.431, 133.918)" fill="#fff"/>
        <path id="Trazado_1009692" data-name="Trazado 1009692" d="M353.453,495.916l8.34-6.19a5.754,5.754,0,0,0,.445-8.866l-16.322-14.87-10.584,7.855,9.506,19.929a5.754,5.754,0,0,0,8.615,2.142" transform="translate(-199.677 -277.478)" fill="#ff7af1"/>
        <path id="Trazado_1009693" data-name="Trazado 1009693" d="M335.335,473.845l.154.331,8.16-6.053,16.317,14.87a5.758,5.758,0,0,1,.941,7.391l.89-.658a5.75,5.75,0,0,0,.441-8.863L345.92,465.992Z" transform="translate(-199.679 -277.48)" fill="#fff"/>
        <path id="Trazado_1009694" data-name="Trazado 1009694" d="M272.843,390.277a.415.415,0,0,1-.335-.168l-42.051-56.657a.417.417,0,0,1,.086-.583l10.584-7.855a.417.417,0,0,1,.583.086l42.051,56.658a.417.417,0,0,1-.086.583L273.091,390.2a.413.413,0,0,1-.248.082M231.374,333.29l41.555,55.989,9.916-7.359L241.29,325.93Z" transform="translate(-137.179 -193.484)" fill="#2e186b"/>
        <path id="Trazado_1009695" data-name="Trazado 1009695" d="M349.426,496.851a6.188,6.188,0,0,1-5.576-3.509l-9.506-19.93a.417.417,0,0,1,.127-.514l10.584-7.855a.416.416,0,0,1,.528.027l16.322,14.87a6.17,6.17,0,0,1-.477,9.508l-8.34,6.19a6.139,6.139,0,0,1-3.663,1.214m-14.183-23.489,9.359,19.62a5.338,5.338,0,0,0,7.991,1.987l8.34-6.19a5.338,5.338,0,0,0,.412-8.225l-16.068-14.639Z" transform="translate(-199.064 -276.865)" fill="#2e186b"/>
        <path id="Trazado_1009696" data-name="Trazado 1009696" d="M257.039,14.617a78.843,78.843,0,0,0-13.907,1.231V170.13A78.378,78.378,0,1,0,257.039,14.617" transform="translate(-144.775 -8.704)" fill="#2e186b"/>
        <path id="Trazado_1009697" data-name="Trazado 1009697" d="M256.427,171.164a79.521,79.521,0,0,1-13.98-1.237.416.416,0,0,1-.343-.41V15.235a.416.416,0,0,1,.343-.41,78.794,78.794,0,1,1,13.98,156.339m-13.491-2A77.961,77.961,0,1,0,256.427,14.421a78.757,78.757,0,0,0-13.491,1.163Z" transform="translate(-144.163 -8.091)" fill="#2e186b"/>
        <path id="Trazado_1009698" data-name="Trazado 1009698" d="M217.883,92.989a78.372,78.372,0,1,1-78.371-78.371,78.372,78.372,0,0,1,78.371,78.371" transform="translate(-36.406 -8.704)" fill="#ff7af1"/>
        <path id="Trazado_1009699" data-name="Trazado 1009699" d="M65.721,96.317A78.245,78.245,0,0,0,95.785,158.04,78.38,78.38,0,1,1,187.822,31.269a78.387,78.387,0,0,0-122.1,65.049" transform="translate(-36.408 -8.704)" fill="#fff"/>
        <path id="Trazado_1009700" data-name="Trazado 1009700" d="M226.028,118.392a61.114,61.114,0,1,1-61.114-61.114,61.114,61.114,0,0,1,61.114,61.114" transform="translate(-61.809 -34.107)" fill="#fff"/>
        <path id="Trazado_1009701" data-name="Trazado 1009701" d="M215.068,83.466a61.117,61.117,0,0,0-97.8,73.208,61.117,61.117,0,1,1,97.8-73.208" transform="translate(-61.806 -34.109)" fill="#ff7af1"/>
        <path id="Trazado_1009702" data-name="Trazado 1009702" d="M234.51,144.846a43.141,43.141,0,1,1-43.141-43.141,43.141,43.141,0,0,1,43.141,43.141" transform="translate(-88.264 -60.561)" fill="#ff7af1"/>
        <path id="Trazado_1009703" data-name="Trazado 1009703" d="M226.274,119.488a43.142,43.142,0,0,0-67.318,53.826,43.142,43.142,0,1,1,67.318-53.826" transform="translate(-88.264 -60.561)" fill="#fff"/>
        <path id="Trazado_1009704" data-name="Trazado 1009704" d="M243.387,172.534A24.331,24.331,0,1,1,219.056,148.2a24.331,24.331,0,0,1,24.331,24.331" transform="translate(-115.951 -88.249)" fill="#fff"/>
        <path id="Trazado_1009705" data-name="Trazado 1009705" d="M237.749,156.966A24.33,24.33,0,0,0,203.48,191.23a24.33,24.33,0,1,1,34.269-34.264" transform="translate(-115.949 -88.251)" fill="#ff7af1"/>
        <path id="Trazado_1009706" data-name="Trazado 1009706" d="M138.9,171.164a78.788,78.788,0,1,1,78.788-78.788A78.877,78.877,0,0,1,138.9,171.164m0-156.743a77.955,77.955,0,1,0,77.955,77.955A78.044,78.044,0,0,0,138.9,14.421" transform="translate(-35.794 -8.091)" fill="#2e186b"/>
        <path id="Trazado_1009707" data-name="Trazado 1009707" d="M164.3,179.309A61.531,61.531,0,0,1,117.723,77.573a.416.416,0,0,1,.63.544,60.651,60.651,0,1,0,10.33-9.492.416.416,0,0,1-.489-.674A61.532,61.532,0,1,1,164.3,179.309" transform="translate(-61.197 -33.493)" fill="#2e186b"/>
        <path id="Trazado_1009708" data-name="Trazado 1009708" d="M190.757,187.791a43.557,43.557,0,1,1,0-87.115c.631,0,1.27.014,1.9.04a.416.416,0,0,1-.036.832c-.619-.027-1.246-.04-1.865-.04a42.676,42.676,0,1,0,11.086,1.452.416.416,0,0,1,.215-.8,43.564,43.564,0,0,1-11.3,85.635" transform="translate(-87.651 -59.949)" fill="#2e186b"/>
        <path id="Trazado_1009709" data-name="Trazado 1009709" d="M218.444,196.668a24.747,24.747,0,1,1,24.748-24.747,24.775,24.775,0,0,1-24.748,24.747m0-48.662a23.915,23.915,0,1,0,23.915,23.915,23.942,23.942,0,0,0-23.915-23.915" transform="translate(-115.338 -87.636)" fill="#2e186b"/>
        <path id="Trazado_1009710" data-name="Trazado 1009710" d="M356.392,59.411a2.532,2.532,0,0,1-1.195,1.528l-96.3,54.767,2.519.766a2.543,2.543,0,0,1-.741,4.975,2.492,2.492,0,0,1-.745-.112l-7.855-2.4a2.414,2.414,0,0,1-.841-.3c-.012,0-.02-.013-.033-.017a2.534,2.534,0,0,1-1.252-2.993l2.535-8.3a2.539,2.539,0,0,1,3.176-1.686,2.537,2.537,0,0,1,1.686,3.172l-.708,2.323,96.046-54.621a2.548,2.548,0,0,1,3.467.958,2.517,2.517,0,0,1,.242,1.936" transform="translate(-148.767 -33.458)" fill="#9654ff"/>
        <path id="Trazado_1009711" data-name="Trazado 1009711" d="M260.063,121.251a2.927,2.927,0,0,1-.869-.131l-7.827-2.394a2.815,2.815,0,0,1-.943-.335l-.013-.006-.015-.008a2.956,2.956,0,0,1-1.459-3.484l2.535-8.3a2.957,2.957,0,0,1,3.7-1.962,2.953,2.953,0,0,1,1.961,3.692l-.4,1.322,95.137-54.1a2.968,2.968,0,0,1,4.035,1.113,2.95,2.95,0,0,1-1.109,4.032l-95.458,54.288,1.593.485a2.959,2.959,0,0,1-.862,5.789m-9.265-3.6.036.019a2,2,0,0,0,.7.244.363.363,0,0,1,.054.013l7.855,2.4a2.123,2.123,0,0,0,2.657-1.41,2.135,2.135,0,0,0-1.415-2.656l-2.517-.766a.416.416,0,0,1-.085-.76l96.3-54.767a2.127,2.127,0,0,0-2.1-3.7L256.23,110.889a.416.416,0,0,1-.6-.483l.708-2.323a2.127,2.127,0,0,0-3.029-2.5,2.13,2.13,0,0,0-1.037,1.257l-2.535,8.3a2.124,2.124,0,0,0,1.047,2.5l.018.008M355.78,58.8h0Z" transform="translate(-148.155 -32.847)" fill="#2e186b"/>
        <path id="Trazado_1009712" data-name="Trazado 1009712" d="M478.641,62.179l-10.405,5.706a1.294,1.294,0,0,1-1,.108l-8.8-2.571a1.324,1.324,0,0,1-.9-1.64l2.57-8.8a1.321,1.321,0,0,1,.629-.79l10.4-5.7a1.326,1.326,0,0,1,1.913,1.529L471.22,56.28a1.325,1.325,0,0,0,.9,1.641l6.254,1.832a1.318,1.318,0,0,1,.265,2.426" transform="translate(-272.415 -28.778)" fill="#fff"/>
        <path id="Trazado_1009713" data-name="Trazado 1009713" d="M493.131,62.178l-10.4,5.707a1.3,1.3,0,0,1-.907.129l9.508-5.212a1.319,1.319,0,0,0-.266-2.427l-6.253-1.831a1.324,1.324,0,0,1-.9-1.64l1.831-6.253a1.328,1.328,0,0,0-.995-1.67l.887-.487a1.325,1.325,0,0,1,1.911,1.532l-1.832,6.253a1.324,1.324,0,0,0,.9,1.64l6.253,1.832a1.318,1.318,0,0,1,.266,2.427" transform="translate(-286.905 -28.777)" fill="#9654ff"/>
        <path id="Trazado_1009714" data-name="Trazado 1009714" d="M466.992,67.85a1.706,1.706,0,0,1-.491-.072l-8.792-2.57a1.712,1.712,0,0,1-1.038-.832,1.74,1.74,0,0,1-.148-1.322l2.572-8.8a1.731,1.731,0,0,1,.822-1.035l10.408-5.7a1.742,1.742,0,0,1,2.513,2.009l-1.833,6.256a.908.908,0,0,0,.617,1.123l6.257,1.833a1.734,1.734,0,0,1,.348,3.191l-10.4,5.706a1.715,1.715,0,0,1-.83.214m4.178-19.72a.925.925,0,0,0-.446.118l-10.4,5.7a.9.9,0,0,0-.428.536l-2.573,8.8a.915.915,0,0,0,.078.692.892.892,0,0,0,.538.432l8.8,2.572a.88.88,0,0,0,.681-.072L477.827,61.2h0a.9.9,0,0,0-.18-1.661l-6.256-1.833a1.742,1.742,0,0,1-1.185-2.155l1.833-6.257a.887.887,0,0,0-.305-.961.9.9,0,0,0-.563-.2" transform="translate(-271.801 -28.164)" fill="#2e186b"/>
        <rect id="Rectángulo_458802" data-name="Rectángulo 458802" width="18.418" height="9.737" transform="translate(39.078 209.828)" fill="#2e186b"/>
        <path id="Trazado_1009715" data-name="Trazado 1009715" d="M114.4,528.225H95.985a.416.416,0,0,1-.416-.416v-9.737a.416.416,0,0,1,.416-.416H114.4a.416.416,0,0,1,.416.416v9.737a.416.416,0,0,1-.416.416m-18-.833h17.586v-8.9H96.4Z" transform="translate(-56.908 -308.243)" fill="#2e186b"/>
        <rect id="Rectángulo_458803" data-name="Rectángulo 458803" width="11.498" height="9.738" transform="translate(39.078 200.097)" fill="#2e186b"/>
        <path id="Trazado_1009716" data-name="Trazado 1009716" d="M107.483,504.17h-11.5a.416.416,0,0,1-.416-.416v-9.738a.416.416,0,0,1,.416-.416h11.5a.416.416,0,0,1,.416.416v9.738a.416.416,0,0,1-.416.416M96.4,503.337h10.665v-8.9H96.4Z" transform="translate(-56.908 -293.919)" fill="#2e186b"/>
        <rect id="Rectángulo_458804" data-name="Rectángulo 458804" width="15.321" height="9.738" transform="translate(39.078 190.366)" fill="#2e186b"/>
        <path id="Trazado_1009717" data-name="Trazado 1009717" d="M111.306,480.115H95.985a.416.416,0,0,1-.416-.416v-9.738a.416.416,0,0,1,.416-.416h15.321a.416.416,0,0,1,.416.416V479.7a.416.416,0,0,1-.416.416m-14.9-.833h14.488v-8.9H96.4Z" transform="translate(-56.908 -279.595)" fill="#2e186b"/>
        <rect id="Rectángulo_458805" data-name="Rectángulo 458805" width="46.686" height="9.737" transform="translate(7.35 209.828)" fill="#9654ff"/>
        <rect id="Rectángulo_458806" data-name="Rectángulo 458806" width="3.903" height="9.737" transform="translate(13.388 209.828)" fill="#fff"/>
        <rect id="Rectángulo_458807" data-name="Rectángulo 458807" width="7.393" height="9.737" transform="translate(20.958 209.828)" fill="#fff"/>
        <rect id="Rectángulo_458808" data-name="Rectángulo 458808" width="46.686" height="1.549" transform="translate(7.35 209.828)" fill="#fff"/>
        <path id="Trazado_1009718" data-name="Trazado 1009718" d="M64.242,528.225H17.555a.416.416,0,0,1-.416-.416v-9.737a.416.416,0,0,1,.416-.416H64.242a.416.416,0,0,1,.416.416v9.737a.416.416,0,0,1-.416.416m-46.27-.833H63.825v-8.9H17.972Z" transform="translate(-10.206 -308.243)" fill="#2e186b"/>
        <rect id="Rectángulo_458809" data-name="Rectángulo 458809" width="46.686" height="9.737" transform="translate(0.43 200.097)" fill="#9654ff"/>
        <rect id="Rectángulo_458810" data-name="Rectángulo 458810" width="46.686" height="1.549" transform="translate(0.429 200.097)" fill="#fff"/>
        <rect id="Rectángulo_458811" data-name="Rectángulo 458811" width="3.903" height="9.737" transform="translate(6.468 200.097)" fill="#fff"/>
        <rect id="Rectángulo_458812" data-name="Rectángulo 458812" width="7.393" height="9.737" transform="translate(14.038 200.097)" fill="#fff"/>
        <path id="Trazado_1009719" data-name="Trazado 1009719" d="M47.135,504.17H.448a.416.416,0,0,1-.416-.416v-9.738a.416.416,0,0,1,.416-.416H47.135a.416.416,0,0,1,.416.416v9.738a.416.416,0,0,1-.416.416m-46.27-.833H46.718v-8.9H.865Z" transform="translate(-0.019 -293.919)" fill="#2e186b"/>
        <rect id="Rectángulo_458813" data-name="Rectángulo 458813" width="46.686" height="9.737" transform="translate(4.252 190.366)" fill="#9654ff"/>
        <rect id="Rectángulo_458814" data-name="Rectángulo 458814" width="3.903" height="9.737" transform="translate(10.29 190.366)" fill="#fff"/>
        <rect id="Rectángulo_458815" data-name="Rectángulo 458815" width="7.393" height="9.737" transform="translate(17.86 190.366)" fill="#fff"/>
        <rect id="Rectángulo_458816" data-name="Rectángulo 458816" width="46.686" height="1.549" transform="translate(4.252 190.366)" fill="#fff"/>
        <path id="Trazado_1009720" data-name="Trazado 1009720" d="M56.584,480.115H9.9a.416.416,0,0,1-.416-.416v-9.738a.416.416,0,0,1,.416-.416H56.584a.416.416,0,0,1,.416.416V479.7a.416.416,0,0,1-.416.416m-46.27-.833H56.168v-8.9H10.315Z" transform="translate(-5.646 -279.595)" fill="#2e186b"/>
        <path id="Trazado_1009721" data-name="Trazado 1009721" d="M64.33,376.993a23.63,23.63,0,1,1-23.63-23.63,23.63,23.63,0,0,1,23.63,23.63" transform="translate(-10.165 -210.414)" fill="#fff"/>
        <path id="Trazado_1009722" data-name="Trazado 1009722" d="M71.573,353.422c.524-.035,1.049-.055,1.583-.055A23.6,23.6,0,0,1,92.68,363.686l-2.551.939a23.627,23.627,0,0,0-18.556-11.2" transform="translate(-42.619 -210.416)" fill="#ff7af1"/>
        <path id="Trazado_1009723" data-name="Trazado 1009723" d="M122.812,392.488a23.179,23.179,0,0,0-1.717-5.8l2.7-.989a23.156,23.156,0,0,1,1.982,5.7Z" transform="translate(-72.107 -229.668)" fill="#ff7af1"/>
        <path id="Trazado_1009724" data-name="Trazado 1009724" d="M96.784,409.349a23.628,23.628,0,0,1-23.628,23.628c-.534,0-1.058-.02-1.583-.055a23.629,23.629,0,0,0,22.051-23.573c0-.169,0-.344-.005-.514l3.105-1.133q.06.816.06,1.647" transform="translate(-42.619 -242.77)" fill="#ff7af1"/>
        <path id="Trazado_1009725" data-name="Trazado 1009725" d="M40.087,400.426A24.046,24.046,0,1,1,64.133,376.38a24.073,24.073,0,0,1-24.046,24.046m0-47.26A23.213,23.213,0,1,0,63.3,376.38a23.24,23.24,0,0,0-23.213-23.213" transform="translate(-9.552 -209.801)" fill="#2e186b"/>
        <path id="Trazado_1009726" data-name="Trazado 1009726" d="M49.793,376.993a23.63,23.63,0,1,1-23.63-23.63,23.63,23.63,0,0,1,23.63,23.63" transform="translate(-1.508 -210.414)" fill="#fff"/>
        <path id="Trazado_1009727" data-name="Trazado 1009727" d="M53.346,388.076a16.1,16.1,0,1,1-16.1-16.1,16.1,16.1,0,0,1,16.1,16.1" transform="translate(-12.592 -221.497)" fill="#fff"/>
        <path id="Trazado_1009728" data-name="Trazado 1009728" d="M25.309,388.825a16.1,16.1,0,0,0,11.177,15.331,16.1,16.1,0,1,1,5.687-31.411c-.255-.015-.509-.02-.764-.02a16.1,16.1,0,0,0-16.1,16.1" transform="translate(-12.594 -221.497)" fill="#ff7af1"/>
        <path id="Trazado_1009729" data-name="Trazado 1009729" d="M36.634,403.98A16.516,16.516,0,1,1,53.15,387.464,16.535,16.535,0,0,1,36.634,403.98m0-32.2a15.684,15.684,0,1,0,15.684,15.684,15.7,15.7,0,0,0-15.684-15.684" transform="translate(-11.979 -220.885)" fill="#2e186b"/>
        <path id="Trazado_1009730" data-name="Trazado 1009730" d="M25.549,413.606A24.074,24.074,0,0,1,1.5,389.561a23.792,23.792,0,0,1,5.2-14.934.416.416,0,1,1,.652.517,22.968,22.968,0,0,0-5.018,14.416,23.215,23.215,0,0,0,37.8,18.055.416.416,0,1,1,.523.647,24.1,24.1,0,0,1-15.115,5.344" transform="translate(-0.895 -222.982)" fill="#2e186b"/>
        <path id="Trazado_1009731" data-name="Trazado 1009731" d="M57.167,391.493a.416.416,0,0,1-.326-.676,22.968,22.968,0,0,0,5.035-14.437,23.24,23.24,0,0,0-23.214-23.214A22.966,22.966,0,0,0,24.2,358.221a.416.416,0,1,1-.519-.651,23.79,23.79,0,0,1,14.981-5.236A24.073,24.073,0,0,1,62.708,376.38a23.792,23.792,0,0,1-5.216,14.956.416.416,0,0,1-.326.157" transform="translate(-14.008 -209.801)" fill="#2e186b"/>
        <path id="Trazado_1009732" data-name="Trazado 1009732" d="M50.482,392.639a3.905,3.905,0,0,1,2.992-1.187v-1.273h.91v1.254a4.5,4.5,0,0,1,2.925,1.125,3.645,3.645,0,0,1,1.068,2.619H56.7a2.853,2.853,0,0,0-.392-1.254,2.2,2.2,0,0,0-1.924-1.015v4.653a11.342,11.342,0,0,1,3.016,1.168,3.034,3.034,0,0,1,1.293,2.662,3.98,3.98,0,0,1-1.657,3.619,6.191,6.191,0,0,1-2.652.785v1.858h-.91v-1.858q-2.786-.181-3.782-1.972a5.326,5.326,0,0,1-.546-2.614h1.695a4.693,4.693,0,0,0,.412,1.915,2.546,2.546,0,0,0,2.2,1.216V399.12a6.1,6.1,0,0,1-3.054-1.312,3.31,3.31,0,0,1-.986-2.547,3.79,3.79,0,0,1,1.067-2.623m1.283,3.992a3.64,3.64,0,0,0,1.69.747v-4.5a2.188,2.188,0,0,0-1.786.766,2.489,2.489,0,0,0-.531,1.5,1.847,1.847,0,0,0,.627,1.484m4.878,6.558a2.655,2.655,0,0,0,.326-1.331,2.086,2.086,0,0,0-.881-1.819,5.608,5.608,0,0,0-1.7-.689v5.036a2.5,2.5,0,0,0,2.259-1.2" transform="translate(-29.265 -232.336)" fill="#2e186b"/>
        <path id="Trazado_1009733" data-name="Trazado 1009733" d="M499.2,432.555h-5.72v44.88h2.22a9.247,9.247,0,0,0,9.231-9.25V454.89a2.852,2.852,0,0,0,2.079-2.748V440.364a7.815,7.815,0,0,0-7.81-7.809" transform="translate(-293.845 -257.569)" fill="#2e186b"/>
        <path id="Trazado_1009734" data-name="Trazado 1009734" d="M495.083,477.238h-2.22a.416.416,0,0,1-.416-.416v-44.88a.416.416,0,0,1,.416-.416h5.72a8.235,8.235,0,0,1,8.226,8.226v11.777a3.281,3.281,0,0,1-2.078,3.048v12.994a9.668,9.668,0,0,1-9.648,9.666m-1.8-.833h1.8a8.835,8.835,0,0,0,8.815-8.834V454.278a.417.417,0,0,1,.3-.4,2.442,2.442,0,0,0,1.774-2.348V439.752a7.4,7.4,0,0,0-7.393-7.393h-5.3Z" transform="translate(-293.233 -256.957)" fill="#2e186b"/>
        <path id="Trazado_1009735" data-name="Trazado 1009735" d="M440.951,462.6v23.472a9.245,9.245,0,0,1-9.236,9.251h-31.37a9.248,9.248,0,0,1-9.251-9.251V462.6Z" transform="translate(-232.882 -275.461)" fill="#fff"/>
        <rect id="Rectángulo_458817" data-name="Rectángulo 458817" width="49.856" height="5.959" transform="translate(158.214 193.1)" fill="#ff7af1"/>
        <path id="Trazado_1009736" data-name="Trazado 1009736" d="M393.169,483.212H391.09v15.137a9.258,9.258,0,0,0,2.111,5.882,6.962,6.962,0,0,1-.032-.727Z" transform="translate(-232.879 -287.734)" fill="#ff7af1"/>
        <path id="Trazado_1009737" data-name="Trazado 1009737" d="M440.339,457.275H390.483a.416.416,0,0,1-.416-.416v-3.486a.416.416,0,0,1,.416-.416h49.855a.416.416,0,0,1,.416.416v3.486a.416.416,0,0,1-.416.416m-49.439-.833h49.023V453.79H390.9Z" transform="translate(-232.269 -269.718)" fill="#2e186b"/>
        <path id="Trazado_1009738" data-name="Trazado 1009738" d="M445.967,426.105a1.454,1.454,0,0,1-1.454-1.454v-3.182a1.729,1.729,0,0,0-1.727-1.727H429.6a1.729,1.729,0,0,0-1.727,1.727v3.182a1.455,1.455,0,0,1-2.909,0v-3.182a4.642,4.642,0,0,1,4.636-4.636h13.183a4.641,4.641,0,0,1,4.636,4.636v3.182a1.454,1.454,0,0,1-1.454,1.454" transform="translate(-253.05 -248.208)" fill="#9654ff"/>
        <path id="Trazado_1009739" data-name="Trazado 1009739" d="M447.423,421.465v1.346a4.641,4.641,0,0,0-4.638-4.637h-13.18a4.641,4.641,0,0,0-4.638,4.637v-1.346a4.641,4.641,0,0,1,4.638-4.638h13.18a4.641,4.641,0,0,1,4.638,4.638" transform="translate(-253.051 -248.204)" fill="#fff"/>
        <path id="Trazado_1009740" data-name="Trazado 1009740" d="M445.355,425.908a1.873,1.873,0,0,1-1.871-1.871v-3.181a1.313,1.313,0,0,0-1.311-1.311H428.99a1.312,1.312,0,0,0-1.311,1.311v3.181a1.871,1.871,0,1,1-3.742,0v-3.181a5.058,5.058,0,0,1,5.052-5.053h13.184a5.058,5.058,0,0,1,5.052,5.053v3.181a1.873,1.873,0,0,1-1.871,1.871m-16.365-7.2h13.184a2.146,2.146,0,0,1,2.143,2.144v3.181a1.038,1.038,0,1,0,2.077,0v-3.181a4.225,4.225,0,0,0-4.22-4.22H428.99a4.225,4.225,0,0,0-4.22,4.22v3.181a1.038,1.038,0,1,0,2.076,0v-3.181a2.146,2.146,0,0,1,2.143-2.144" transform="translate(-252.438 -247.594)" fill="#2e186b"/>
        <path id="Trazado_1009741" data-name="Trazado 1009741" d="M431.1,495.128h-31.37a9.677,9.677,0,0,1-9.667-9.667V461.989a.416.416,0,0,1,.416-.416h49.856a.416.416,0,0,1,.416.416v23.472a9.67,9.67,0,0,1-9.652,9.667m-40.2-32.722v23.056a8.844,8.844,0,0,0,8.834,8.834H431.1a8.836,8.836,0,0,0,8.819-8.834V462.406Z" transform="translate(-232.269 -274.848)" fill="#2e186b"/>
        <path id="Trazado_1009742" data-name="Trazado 1009742" d="M439.991,440.364v11.78A2.855,2.855,0,0,1,437.136,455h-48.3a2.844,2.844,0,0,1-2.842-2.854v-11.78a7.8,7.8,0,0,1,7.8-7.808h38.393a7.814,7.814,0,0,1,7.808,7.808" transform="translate(-229.845 -257.57)" fill="#ff7af1"/>
        <path id="Trazado_1009743" data-name="Trazado 1009743" d="M440,440.365v2.313a7.813,7.813,0,0,0-7.81-7.8H393.8a7.8,7.8,0,0,0-7.8,7.8v-2.313a7.8,7.8,0,0,1,7.8-7.809h38.39a7.814,7.814,0,0,1,7.81,7.809" transform="translate(-229.847 -257.57)" fill="#fff"/>
        <path id="Trazado_1009744" data-name="Trazado 1009744" d="M436.523,454.8H419.445a.416.416,0,1,1,0-.833h17.078a2.441,2.441,0,0,0,2.439-2.439V439.75a7.4,7.4,0,0,0-7.391-7.392H393.178a7.394,7.394,0,0,0-7.379,7.392v11.78a2.435,2.435,0,0,0,2.426,2.439h24.962a.416.416,0,1,1,0,.833H388.225a3.269,3.269,0,0,1-3.259-3.271V439.75a8.227,8.227,0,0,1,8.212-8.224h38.393a8.234,8.234,0,0,1,8.224,8.224v11.78a3.275,3.275,0,0,1-3.271,3.271" transform="translate(-229.232 -256.957)" fill="#2e186b"/>
        <path id="Trazado_1009745" data-name="Trazado 1009745" d="M442.671,446.948h-40a.416.416,0,0,1,0-.833h40a.416.416,0,0,1,0,.833" transform="translate(-239.528 -265.644)" fill="#2e186b"/>
        <path id="Trazado_1009746" data-name="Trazado 1009746" d="M417.314,450.987a.416.416,0,0,1-.416-.416v-4.04a.416.416,0,0,1,.833,0v4.04a.416.416,0,0,1-.416.416" transform="translate(-248.246 -265.643)" fill="#2e186b"/>
        <path id="Trazado_1009747" data-name="Trazado 1009747" d="M413.453,479.63v3.8a2.533,2.533,0,1,1-5.066,0v-3.8a2.533,2.533,0,1,1,5.066,0" transform="translate(-243.178 -284.092)" fill="#9654ff"/>
        <path id="Trazado_1009748" data-name="Trazado 1009748" d="M411.59,485.87a2.4,2.4,0,0,1-.676.1,2.538,2.538,0,0,1-2.534-2.534v-3.8a2.533,2.533,0,0,1,2.534-2.534,2.381,2.381,0,0,1,.676.095,2.525,2.525,0,0,0-1.864,2.439v3.8a2.53,2.53,0,0,0,1.864,2.439" transform="translate(-243.174 -284.094)" fill="#fff"/>
        <path id="Trazado_1009749" data-name="Trazado 1009749" d="M410.306,485.767a2.953,2.953,0,0,1-2.949-2.95v-3.8a2.949,2.949,0,1,1,5.9,0v3.8a2.953,2.953,0,0,1-2.949,2.95m0-8.866a2.12,2.12,0,0,0-2.117,2.117v3.8a2.117,2.117,0,0,0,4.234,0v-3.8a2.109,2.109,0,0,0-2.117-2.117" transform="translate(-242.565 -283.48)" fill="#2e186b"/>
        <path id="Trazado_1009750" data-name="Trazado 1009750" d="M489.624,479.63v3.8a2.533,2.533,0,1,1-5.066,0v-3.8a2.533,2.533,0,1,1,5.066,0" transform="translate(-288.535 -284.092)" fill="#9654ff"/>
        <path id="Trazado_1009751" data-name="Trazado 1009751" d="M487.768,485.87a2.4,2.4,0,0,1-.676.1,2.538,2.538,0,0,1-2.534-2.534v-3.8a2.533,2.533,0,0,1,2.534-2.534,2.381,2.381,0,0,1,.676.095,2.525,2.525,0,0,0-1.864,2.439v3.8a2.53,2.53,0,0,0,1.864,2.439" transform="translate(-288.535 -284.094)" fill="#fff"/>
        <path id="Trazado_1009752" data-name="Trazado 1009752" d="M486.478,485.767a2.953,2.953,0,0,1-2.949-2.95v-3.8a2.949,2.949,0,1,1,5.9,0v3.8a2.953,2.953,0,0,1-2.949,2.95m0-8.866a2.12,2.12,0,0,0-2.117,2.117v3.8a2.117,2.117,0,1,0,4.233,0v-3.8a2.106,2.106,0,0,0-.617-1.5,2.135,2.135,0,0,0-1.5-.618" transform="translate(-287.922 -283.48)" fill="#2e186b"/>
        <path id="Trazado_1009753" data-name="Trazado 1009753" d="M455.056,493.588c-1.5,2.591-3.325,4.337-4.085,3.9s-.162-2.895,1.334-5.486,3.325-4.337,4.085-3.9.162,2.895-1.334,5.486" transform="translate(-268.34 -290.605)" fill="#ff7af1"/>
        <path id="Trazado_1009754" data-name="Trazado 1009754" d="M409.087,10.321a.417.417,0,0,1-.3-.706L418,.126a.416.416,0,0,1,.6.58l-9.21,9.489a.416.416,0,0,1-.3.126" transform="translate(-243.347 0)" fill="#2e186b"/>
        <path id="Trazado_1009755" data-name="Trazado 1009755" d="M384.724,14.041a.416.416,0,0,1-.3-.706l9.21-9.489a.416.416,0,0,1,.6.58l-9.21,9.489a.417.417,0,0,1-.3.126" transform="translate(-228.84 -2.215)" fill="#2e186b"/>
        <path id="Trazado_1009756" data-name="Trazado 1009756" d="M17.148,278.081a.416.416,0,0,1-.3-.708l11.66-11.908a.416.416,0,1,1,.595.583l-11.66,11.908a.416.416,0,0,1-.3.125" transform="translate(-9.963 -158)" fill="#2e186b"/>
        <path id="Trazado_1009757" data-name="Trazado 1009757" d="M19.6,299.788a.416.416,0,0,1-.292-.714l6.45-6.326a.416.416,0,1,1,.583.594l-6.45,6.326a.417.417,0,0,1-.292.119" transform="translate(-11.424 -174.249)" fill="#2e186b"/>
        <path id="Trazado_1009758" data-name="Trazado 1009758" d="M489.961,379.066a.416.416,0,0,1-.294-.711l8.435-8.435a.416.416,0,0,1,.589.589l-8.435,8.435a.415.415,0,0,1-.294.122" transform="translate(-291.505 -220.2)" fill="#2e186b"/>
        <path id="Trazado_1009759" data-name="Trazado 1009759" d="M491.8,382.019a.416.416,0,0,1-.291-.714l15.133-14.761a.416.416,0,1,1,.581.6L492.091,381.9a.416.416,0,0,1-.29.118" transform="translate(-292.6 -218.192)" fill="#2e186b"/>
        <path id="Trazado_1009760" data-name="Trazado 1009760" d="M231.846,21.05c-3.461,2.616-5.857,5.279-5.351,5.948s3.721-.91,7.182-3.526,5.857-5.28,5.351-5.948-3.721.91-7.182,3.526" transform="translate(-134.829 -10.344)" fill="#fff"/>
        <path id="Trazado_1009761" data-name="Trazado 1009761" d="M242.456,107.556c-3.461,2.616-5.857,5.279-5.351,5.948s3.721-.91,7.182-3.526,5.857-5.28,5.351-5.948-3.721.91-7.182,3.526" transform="translate(-141.146 -61.854)" fill="#fff"/>
      </g>
    </g>
  </g>
</svg>
