<svg xmlns="http://www.w3.org/2000/svg" xmlns:xlink="http://www.w3.org/1999/xlink" width="292" height="140" viewBox="0 0 292 140">
  <defs>
    <clipPath id="clip-path">
      <rect id="Rectángulo_458950" data-name="Rectángulo 458950" width="149.44" height="128.203" fill="none"/>
    </clipPath>
    <clipPath id="clip-path-4">
      <rect id="Rectángulo_458923" data-name="Rectángulo 458923" width="6.178" height="9.382" fill="none"/>
    </clipPath>
    <clipPath id="clip-path-5">
      <rect id="Rectángulo_458924" data-name="Rectángulo 458924" width="10.25" height="23.575" fill="none"/>
    </clipPath>
    <clipPath id="clip-path-6">
      <rect id="Rectángulo_458925" data-name="Rectángulo 458925" width="11.931" height="14.526" fill="none"/>
    </clipPath>
    <clipPath id="clip-path-7">
      <rect id="Rectángulo_458926" data-name="Rectángulo 458926" width="10.888" height="9.146" fill="none"/>
    </clipPath>
    <clipPath id="clip-path-8">
      <rect id="Rectángulo_458927" data-name="Rectángulo 458927" width="14.132" height="23.976" fill="none"/>
    </clipPath>
    <clipPath id="clip-path-9">
      <rect id="Rectángulo_458928" data-name="Rectángulo 458928" width="16.434" height="35.787" fill="none"/>
    </clipPath>
    <clipPath id="clip-path-10">
      <rect id="Rectángulo_458929" data-name="Rectángulo 458929" width="14.451" height="18.455" fill="none"/>
    </clipPath>
    <clipPath id="clip-path-11">
      <rect id="Rectángulo_458930" data-name="Rectángulo 458930" width="9.983" height="16.936" fill="none"/>
    </clipPath>
    <clipPath id="clip-path-12">
      <rect id="Rectángulo_458931" data-name="Rectángulo 458931" width="12.723" height="24.914" fill="none"/>
    </clipPath>
    <clipPath id="clip-path-13">
      <rect id="Rectángulo_458932" data-name="Rectángulo 458932" width="13.175" height="1.582" fill="none"/>
    </clipPath>
    <clipPath id="clip-path-14">
      <rect id="Rectángulo_458933" data-name="Rectángulo 458933" width="18.735" height="2.796" fill="none"/>
    </clipPath>
    <clipPath id="clip-path-15">
      <rect id="Rectángulo_458934" data-name="Rectángulo 458934" width="29.503" height="3.498" fill="none"/>
    </clipPath>
    <clipPath id="clip-path-16">
      <rect id="Rectángulo_458935" data-name="Rectángulo 458935" width="40.864" height="4.487" fill="none"/>
    </clipPath>
    <clipPath id="clip-path-17">
      <rect id="Rectángulo_458936" data-name="Rectángulo 458936" width="32.017" height="4.423" fill="none"/>
    </clipPath>
    <clipPath id="clip-path-18">
      <rect id="Rectángulo_458937" data-name="Rectángulo 458937" width="35.705" height="5.031" fill="none"/>
    </clipPath>
    <clipPath id="clip-path-19">
      <rect id="Rectángulo_458938" data-name="Rectángulo 458938" width="8.432" height="8.292" fill="none"/>
    </clipPath>
    <clipPath id="clip-path-20">
      <rect id="Rectángulo_458939" data-name="Rectángulo 458939" width="3.028" height="2.467" fill="none"/>
    </clipPath>
    <clipPath id="clip-path-21">
      <rect id="Rectángulo_458940" data-name="Rectángulo 458940" width="9.73" height="5.183" fill="none"/>
    </clipPath>
    <clipPath id="clip-path-22">
      <rect id="Rectángulo_458941" data-name="Rectángulo 458941" width="3.292" height="4.238" fill="none"/>
    </clipPath>
    <clipPath id="clip-path-23">
      <rect id="Rectángulo_458942" data-name="Rectángulo 458942" width="15.972" height="31.415" fill="none"/>
    </clipPath>
    <clipPath id="clip-path-24">
      <rect id="Rectángulo_458943" data-name="Rectángulo 458943" width="1.541" height="2.218" fill="none"/>
    </clipPath>
    <clipPath id="clip-path-25">
      <rect id="Rectángulo_458944" data-name="Rectángulo 458944" width="4.515" height="3.743" fill="none"/>
    </clipPath>
    <clipPath id="clip-path-26">
      <rect id="Rectángulo_458945" data-name="Rectángulo 458945" width="1.517" height="0.552" fill="none"/>
    </clipPath>
    <clipPath id="clip-path-28">
      <rect id="Rectángulo_458947" data-name="Rectángulo 458947" width="11.312" height="11.312" fill="none"/>
    </clipPath>
  </defs>
  <g id="Grupo_1183504" data-name="Grupo 1183504" transform="translate(-186 -5503.884)">
    <rect id="Rectángulo_458093" data-name="Rectángulo 458093" width="292" height="140" rx="10" transform="translate(186 5503.884)" fill="#cfa9e6"/>
    <g id="Grupo_1183687" data-name="Grupo 1183687" transform="translate(257.28 5515.681)">
      <g id="Grupo_1183686" data-name="Grupo 1183686" clip-path="url(#clip-path)">
        <g id="Grupo_1183685" data-name="Grupo 1183685">
          <g id="Grupo_1183684" data-name="Grupo 1183684" clip-path="url(#clip-path)">
            <path id="Trazado_1010358" data-name="Trazado 1010358" d="M56.634,212.873a5.076,5.076,0,1,1-5.076-5.076,5.076,5.076,0,0,1,5.076,5.076" transform="translate(-33.728 -150.78)" fill="#90abf3"/>
            <path id="Trazado_1010359" data-name="Trazado 1010359" d="M57.532,220.271l-.4.025-.09.006-.493.032.161.241L53.6,222.634l-.31-2.127-4.558,2.7a.237.237,0,0,0,.121.441.234.234,0,0,0,.121-.033l3.95-2.343.315,2.165,3.74-2.472.124.186.2-.4.022-.044.216-.437,0-.005Z" transform="translate(-35.276 -159.831)" fill="#646794"/>
            <g id="Grupo_1183605" data-name="Grupo 1183605" opacity="0.1">
              <g id="Grupo_1183604" data-name="Grupo 1183604">
                <g id="Grupo_1183603" data-name="Grupo 1183603" clip-path="url(#clip-path)">
                  <path id="Trazado_1010360" data-name="Trazado 1010360" d="M5.048,39.564a26.8,26.8,0,0,0-4.6,9.8C-1.275,56.988,2.065,66.17,9.4,68.877c6.312,2.33,14.261-.3,19.511,3.907,3.117,2.5,4.266,6.962,3.369,10.855a16.633,16.633,0,0,1-6.843,9.516c-2.705,1.916-5.8,3.211-8.625,4.938s-5.5,4.04-6.62,7.16c-2.49,6.938,5.77,12.67,10.942,15.5,6.881,3.764,14.746,5.427,22.466,6.372a144.751,144.751,0,0,0,68.659-8.169c8.948-3.4,17.678-7.8,24.646-14.365s12.057-15.5,12.507-25.062c.364-7.731-2.738-15.978-9.276-20.12-3.168-2.007-6.885-2.937-10.274-4.542s-6.669-4.229-7.427-7.9c-.724-3.51,1.033-7.053,3.144-9.948,2.82-3.869,6.359-7.193,8.982-11.2s4.277-9.061,2.746-13.6c-1.973-5.845-8.406-8.856-14.4-10.308C106.986-1.943,90.245.64,74.277,4.286,52.63,9.228,30.846,16.409,13.746,30.572a50.158,50.158,0,0,0-8.7,8.992" transform="translate(0 0)" fill="#517aef"/>
                </g>
              </g>
            </g>
            <path id="Trazado_1010361" data-name="Trazado 1010361" d="M302.931,171.949h-3.473L258.623,60.562H262.1Z" transform="translate(-187.66 -43.945)" fill="#0c232b"/>
            <path id="Trazado_1010362" data-name="Trazado 1010362" d="M96.014,344.155h3.473l15.562-46.268h-3.473Z" transform="translate(-69.669 -216.151)" fill="#0c232b"/>
            <path id="Trazado_1010363" data-name="Trazado 1010363" d="M401.679,395.451c.028-2.813-.063-5.5-.271-7.978a49.807,49.807,0,0,0-1.528-9.113,11.63,11.63,0,0,0-.987-2.587,3.728,3.728,0,0,0-1.957-1.792c-1.692-.615-3.5.356-4.434.99l.263.386c.856-.584,2.514-1.481,4.011-.937s2.155,2.274,2.654,4.065a63.216,63.216,0,0,1,1.781,16.961Z" transform="translate(-284.805 -271.223)" fill="#646794"/>
            <path id="Trazado_1010364" data-name="Trazado 1010364" d="M425.23,380.337a56.931,56.931,0,0,0-.323-7.419c-.181-1.642-.444-3.347-.7-5-.62-4.013-1.261-8.162-.884-12.2.077-.823.31-3.33,1.52-3.759a1.728,1.728,0,0,1,1.129.092c2.308.818,3.655,3.9,4.127,5.184l.438-.161a14.158,14.158,0,0,0-1.332-2.727,6.348,6.348,0,0,0-3.077-2.736,2.137,2.137,0,0,0-1.441-.092,2.5,2.5,0,0,0-1.382,1.725,11.335,11.335,0,0,0-.448,2.43c-.382,4.1.263,8.276.887,12.317.254,1.644.516,3.343.7,4.976a56.476,56.476,0,0,1,.32,7.358Z" transform="translate(-306.749 -255.005)" fill="#646794"/>
            <path id="Trazado_1010365" data-name="Trazado 1010365" d="M412.9,415.189l.466-.031c-.08-1.181-.178-2.383-.292-3.572a40.262,40.262,0,0,0-1.172-7.356c-.445-1.411-.944-1.828-1.416-2.069a3.4,3.4,0,0,0-2.412-.156,4.606,4.606,0,0,0-2.555,1.816,7.67,7.67,0,0,0-1.336,3.424l.462.068c.368-2.5,1.759-4.406,3.543-4.856a2.971,2.971,0,0,1,2.086.119c.356.181.77.484,1.183,1.793a39.9,39.9,0,0,1,1.153,7.26c.114,1.185.212,2.382.291,3.558" transform="translate(-293.281 -291.59)" fill="#646794"/>
            <path id="Trazado_1010366" data-name="Trazado 1010366" d="M422.055,418.448l.466-.012a14.071,14.071,0,0,1,1.146-6.293c.711-1.474,1.672-2.372,2.635-2.464.676-.064,1.777.241,3.189,2.067l.369-.285a8.56,8.56,0,0,0-1.3-1.369,3.2,3.2,0,0,0-2.308-.877,2.866,2.866,0,0,0-1.653.808,6.255,6.255,0,0,0-1.358,1.918,11.62,11.62,0,0,0-.911,2.856,17.2,17.2,0,0,0-.281,3.651" transform="translate(-306.244 -296.924)" fill="#646794"/>
            <path id="Trazado_1010367" data-name="Trazado 1010367" d="M407.027,441.268h8.183a.561.561,0,0,0,.508-.409l2.273-7.93a.61.61,0,0,0-.611-.611H404.856a.61.61,0,0,0-.61.611l2.273,7.93a.562.562,0,0,0,.508.409" transform="translate(-293.326 -313.696)" fill="#646794"/>
            <path id="Trazado_1010368" data-name="Trazado 1010368" d="M412.346,464.67h8.933a.252.252,0,0,1,0,.5h-8.933a.252.252,0,0,1,0-.5" transform="translate(-299.021 -337.17)" fill="#4f545d"/>
            <path id="Trazado_1010369" data-name="Trazado 1010369" d="M404.234,436.5h13.385a.253.253,0,0,1,.252.252.377.377,0,0,1-.377.377H404.359a.377.377,0,0,1-.377-.377.253.253,0,0,1,.252-.252" transform="translate(-293.134 -316.729)" fill="#4f545d"/>
            <g id="Grupo_1183608" data-name="Grupo 1183608" transform="translate(110.848 118.623)" opacity="0.2">
              <g id="Grupo_1183607" data-name="Grupo 1183607">
                <g id="Grupo_1183606" data-name="Grupo 1183606" clip-path="url(#clip-path-4)">
                  <path id="Trazado_1010370" data-name="Trazado 1010370" d="M403.982,433.718a.377.377,0,0,0,.377.377h.03l1.939,6.764a.574.574,0,0,0,.261.336h-.128a.252.252,0,0,0,0,.5h3.557c.009-.024.018-.048.026-.072s.016-.048.023-.072a2.07,2.07,0,0,0,.051-.215c0-.024.009-.048.012-.072s.007-.048.01-.072q.258-2.1-2.557-7.1l-.041-.072-.041-.072q-.1-.168-.194-.339l-.042-.072-.042-.072q-.323-.557-.682-1.147h-1.875a.61.61,0,0,0-.61.611l.154.538a.253.253,0,0,0-.227.251" transform="translate(-403.982 -432.318)" fill="#4f545d"/>
                </g>
              </g>
            </g>
            <path id="Trazado_1010371" data-name="Trazado 1010371" d="M432.264,367.32c.032-.029.065-.06.1-.093a2.233,2.233,0,0,0,.221-.259c.347-.48.288-.852.739-1.206a2.108,2.108,0,0,1,1.246-.4,23.955,23.955,0,0,1-3.767-3.328c-.259-.269-.535-.572-.815-.9q-.155-.18-.31-.37c-1.593-1.942-3.153-4.514-2.324-5.771.718-1.089,2.616-.266,4.246-1.912.988-1,.7-1.716,1.571-2.4a3.1,3.1,0,0,1,1.419-.587c.137-.023.277-.039.419-.049a6.229,6.229,0,0,1,3.6.913,4.463,4.463,0,0,1,.845.724q.111.121.215.251a8.872,8.872,0,0,1,1.646,4.2q.026.173.049.348a15.975,15.975,0,0,1-.116,4.664q-.036.207-.078.41a10.387,10.387,0,0,1-1.051,2.987q-.068.12-.139.234a3.528,3.528,0,0,1-1.652,1.517,2.518,2.518,0,0,1-1.1.145,4.947,4.947,0,0,1,.99,2.194c.03.14.056.282.078.426a9.548,9.548,0,0,1,.071,2.263c-.008.1-.018.193-.029.289a8.256,8.256,0,0,1-.415,1.838q-.07.194-.15.375a2.613,2.613,0,0,1-1.3,1.478c-.029.011-.058.021-.087.03a1.453,1.453,0,0,1-.231.05,2.927,2.927,0,0,1-1.843-.564l-.142-.092a11.05,11.05,0,0,1-1.437-1.171q-.127-.12-.245-.236c-.241-.236-.45-.453-.615-.625-.193-.2-.4-.432-.611-.682q-.124-.148-.247-.3c-.91-1.157-1.729-2.594-1.251-3.318.425-.645,1.526-.194,2.5-1.077" transform="translate(-309.924 -253.995)" fill="#90abf3"/>
            <path id="Trazado_1010372" data-name="Trazado 1010372" d="M379.426,400.847a6.009,6.009,0,0,1,1.321-2.514,4.24,4.24,0,0,1,.342-.328l.024-.021c1.29-1.09,3.827-1.864,5.365-.935.912.551.76,1.269,1.748,2.1.033.028.067.056.1.084l.1.074c1.784,1.324,3.519.332,4.349,1.307.52.611.412,1.674-.005,2.855q-.072.2-.157.414a15.086,15.086,0,0,1-.751,1.568h0q-.091.167-.186.332a21.752,21.752,0,0,1-1.469,2.237c-.093.124-.2.261-.308.408l-.2.266a24.9,24.9,0,0,1-2.007,2.328c-.072.072-.145.144-.218.215a9.8,9.8,0,0,1-1.8,1.41q-.122.071-.244.135a3.244,3.244,0,0,1-1.966.424h0c-.07-.01-.139-.024-.208-.041l-.03-.008a2.8,2.8,0,0,1-.975-.488q-.1-.076-.2-.16a6.428,6.428,0,0,1-1.382-1.806c-.042-.077-.083-.156-.124-.235a12.963,12.963,0,0,1-.9-2.355q-.038-.134-.073-.27a16.18,16.18,0,0,1-.489-3.008q-.01-.158-.017-.317a12.221,12.221,0,0,1,.286-3.388c.023-.1.049-.193.075-.289" transform="translate(-275.044 -287.802)" fill="#90abf3"/>
            <path id="Trazado_1010373" data-name="Trazado 1010373" d="M361.483,360.906c.049-.067.1-.134.153-.2a8.863,8.863,0,0,1,2.1-1.829q.119-.077.24-.151a13.236,13.236,0,0,1,1.932-.974c.089-.036.178-.072.268-.105a11.66,11.66,0,0,1,2.148-.6c.088-.016.177-.03.264-.042l.086-.012a9.854,9.854,0,0,1,1.908-.13c.117.006.234.016.349.031a2.533,2.533,0,0,1,1.807.93c.945,1.284.084,3.251-.07,3.577l-.016.035a3.716,3.716,0,0,1,.454.507,3.675,3.675,0,0,1,.691,1.625,3.717,3.717,0,0,1-.444,2.4c-1.176,1.742-4.423,1.327-5.841,1.074l-.315-.059-.178-.035c-.23-.045-.794-.155-1.5-.349-.083-.023-.167-.047-.253-.072a13.449,13.449,0,0,1-1.9-.706q-.115-.054-.229-.111a6.777,6.777,0,0,1-1.19-.745c-.063-.05-.125-.1-.185-.156a2.793,2.793,0,0,1-.976-1.609,3.073,3.073,0,0,1,.693-2.293" transform="translate(-261.771 -258.937)" fill="#90abf3"/>
            <g id="Grupo_1183611" data-name="Grupo 1183611" transform="translate(119.751 96.913)" opacity="0.3">
              <g id="Grupo_1183610" data-name="Grupo 1183610">
                <g id="Grupo_1183609" data-name="Grupo 1183609" clip-path="url(#clip-path-5)">
                  <path id="Trazado_1010374" data-name="Trazado 1010374" d="M436.43,360.817a.119.119,0,0,0,.022.087l0,0a.119.119,0,0,0,.213-.053,8.009,8.009,0,0,1,.825-2.553,8.1,8.1,0,0,1,2.474-2.722.489.489,0,0,1,.2-.032,4.014,4.014,0,0,1,1.352.54,4.676,4.676,0,0,1,1.5,1.569,7.631,7.631,0,0,0-3.81,6.282.119.119,0,0,0,.036.091l0,0a.119.119,0,0,0,.2-.08c0-.082.008-.162.014-.24a7.4,7.4,0,0,1,1.2-3.513,7.485,7.485,0,0,1,2.473-2.332c.088.159.169.323.243.488a9.92,9.92,0,0,1,.738,3.16c.035.381.058.763.078,1.144a10.033,10.033,0,0,0-1.1,4.311.119.119,0,0,0,.165.113h0a.118.118,0,0,0,.071-.1,9.9,9.9,0,0,1,.889-3.815c.029.639.056,1.278.115,1.915a13.748,13.748,0,0,0,.227,1.571.119.119,0,0,0,.188.07l0,0a.118.118,0,0,0,.044-.119c-.086-.411-.147-.827-.192-1.245a3.8,3.8,0,0,1,.727.333l.091.055a.1.1,0,0,0,.145-.036h0l.016-.029a.1.1,0,0,0-.036-.139,4.111,4.111,0,0,0-.93-.433.125.125,0,0,0-.039-.007q-.029-.31-.049-.621c-.039-.587-.16-2.9-.2-3.3a3.809,3.809,0,0,1,1.377.294,3.691,3.691,0,0,1,.788.452.12.12,0,0,0,.191-.083v0a.121.121,0,0,0-.048-.11,4.082,4.082,0,0,0-2.337-.792l-.015-.114a9.34,9.34,0,0,0-.684-2.561,4.165,4.165,0,0,1,1.277-.407,4.08,4.08,0,0,1,1.552.069.119.119,0,0,0,.146-.136v0a.118.118,0,0,0-.088-.094,4.232,4.232,0,0,0-.463-.086,4.4,4.4,0,0,0-2.526.438c-.047-.1-.1-.191-.147-.285a5.09,5.09,0,0,0-1.651-1.833,6.065,6.065,0,0,1,1.022-.772,10.724,10.724,0,0,1,2.168-.8.128.128,0,0,0,.061-.21l0,0a.129.129,0,0,0-.119-.04,6.69,6.69,0,0,0-1.215.346,6.5,6.5,0,0,0-2.129,1.347q-.121-.069-.247-.13a4.222,4.222,0,0,0-.949-.327,3.987,3.987,0,0,1,.569-1.948.12.12,0,0,0-.153-.17l0,0a.121.121,0,0,0-.052.047,4.246,4.246,0,0,0-.6,2.026,3.624,3.624,0,0,0-.659-.038.119.119,0,0,0-.088.044l0,0a.118.118,0,0,0,.1.191q.1,0,.2,0a7.5,7.5,0,0,0-1.419,1.344,8.226,8.226,0,0,0-1.609,3.284q-.082.349-.134.705m1.646,10.821q-.057.164-.1.331a.122.122,0,0,0,.017.1l0,0a.124.124,0,0,0,.223-.039,3.417,3.417,0,0,1,.646-1.329,2,2,0,0,1,1.824-.812c.033.027.065.055.1.083a2.42,2.42,0,0,1,.287.321.109.109,0,0,0,.028.037,3.792,3.792,0,0,1,.536,1.16q.03.1.057.208a1.543,1.543,0,0,0-.958.138,2.719,2.719,0,0,0-1.248,1.647c-.025.071-.048.143-.069.215a.121.121,0,0,0,.03.118l0,0a.121.121,0,0,0,.2-.051,3.66,3.66,0,0,1,.542-1.145,1.467,1.467,0,0,1,1.567-.648c.119.5.206,1.016.307,1.521l.227,1.137-.007,0a2.5,2.5,0,0,0-.866.75.108.108,0,0,0,.031.156h0l.027.017a.108.108,0,0,0,.144-.027,2.3,2.3,0,0,1,.722-.643c.06.3.264,1.294.364,1.782a.123.123,0,0,0,.208.062l0,0a.122.122,0,0,0,.033-.111c-.063-.308-.266-1.3-.3-1.481l-.165-.823a2.263,2.263,0,0,1,.743.2.124.124,0,0,0,.172-.077v0a.125.125,0,0,0-.068-.148,2.608,2.608,0,0,0-.9-.224l-.218-1.086c-.031-.152-.06-.3-.089-.458a3.464,3.464,0,0,1,.644.022,3.223,3.223,0,0,1,.749.193.122.122,0,0,0,.166-.109v0a.121.121,0,0,0-.077-.119,3.6,3.6,0,0,0-1.531-.232,7.445,7.445,0,0,0-.371-1.33,3.716,3.716,0,0,0-.308-.605c.284-.041.568-.078.855-.1a4.516,4.516,0,0,1,1.008.031.123.123,0,0,0,.137-.159v0a.121.121,0,0,0-.1-.083,7.179,7.179,0,0,0-2.061.085,2.579,2.579,0,0,0-.39-.407.1.1,0,0,0-.053-.043c-.053-.041-.108-.081-.165-.117-.027-.018-.055-.034-.083-.05a3.936,3.936,0,0,1,1.759-.907.123.123,0,0,0,.024-.232h0a.122.122,0,0,0-.088,0,5.706,5.706,0,0,0-1.907,1,.182.182,0,0,0-.022.026c-.047-.019-.37-.1-.528-.137a.122.122,0,0,0-.129.047l0,0a.122.122,0,0,0,.069.19c.194.049.473.121.539.15a1.969,1.969,0,0,0-.452.093,2.1,2.1,0,0,0-.293.123,2.661,2.661,0,0,0-.852.708,3.651,3.651,0,0,0-.59,1.085" transform="translate(-436.429 -353.197)" fill="#646794"/>
                </g>
              </g>
            </g>
            <g id="Grupo_1183614" data-name="Grupo 1183614" transform="translate(105.104 110.101)" opacity="0.3">
              <g id="Grupo_1183613" data-name="Grupo 1183613">
                <g id="Grupo_1183612" data-name="Grupo 1183612" clip-path="url(#clip-path-6)">
                  <path id="Trazado_1010375" data-name="Trazado 1010375" d="M388.08,406.38c-.073.168-.141.339-.207.51q-.17.443-.313.894c-.1.3-.185.6-.268.909a9.071,9.071,0,0,0-1.356.346,8.949,8.949,0,0,0-2.456,1.292.119.119,0,0,0-.045.121v0a.119.119,0,0,0,.188.07,8.482,8.482,0,0,1,1.02-.655,8.757,8.757,0,0,1,2.581-.92c-.1.39-.2.783-.283,1.175s-.167.778-.24,1.169a7.857,7.857,0,0,0-1.248.666,8.061,8.061,0,0,0-1.195.959.119.119,0,0,0-.027.131v0a.119.119,0,0,0,.193.04q.142-.138.291-.269a7.752,7.752,0,0,1,1.931-1.243q-.179,1-.3,2.008-.022.187-.043.375l-.021.014a4.15,4.15,0,0,0-.882.975.119.119,0,0,0,.01.142l0,0a.117.117,0,0,0,.188-.012,3.943,3.943,0,0,1,.668-.78q-.066.677-.1,1.357a.12.12,0,0,0,.068.114h0a.119.119,0,0,0,.169-.1q.071-1.219.229-2.431c.007-.055.014-.109.022-.164a3.427,3.427,0,0,1,.68.521,3.349,3.349,0,0,1,.874,1.5.121.121,0,0,0,.188.066l0,0a.119.119,0,0,0,.044-.127,3.663,3.663,0,0,0-1.753-2.212q.2-1.385.507-2.751a2.847,2.847,0,0,1,1.386.368,2.8,2.8,0,0,1,.958.889,4.1,4.1,0,0,1,.549,1.323c.04.168.074.336.1.506a.119.119,0,0,0,.208.058l0,0a.12.12,0,0,0,.027-.1,4.56,4.56,0,0,0-.858-2.152,3.1,3.1,0,0,0-2.319-1.13h0a22.65,22.65,0,0,1,.781-2.694,4.927,4.927,0,0,1,.536.006,5.048,5.048,0,0,1,.81.117,3.635,3.635,0,0,1,1.592.793,3.026,3.026,0,0,1,.63.777,6.374,6.374,0,0,1,.413.948c.082.225.159.451.229.679a.119.119,0,0,0,.212.033l0,0a.12.12,0,0,0,.016-.1c-.1-.336-.22-.667-.348-.994a4.547,4.547,0,0,0-.474-.932,3.288,3.288,0,0,0-.719-.749,4.486,4.486,0,0,0-2.808-.815c.029-.074.058-.146.087-.219a11.263,11.263,0,0,1,.63-1.3l.015,0a4.658,4.658,0,0,1,1.771-.275,4.772,4.772,0,0,1,1.374.244,3.188,3.188,0,0,1,1.479,1.067,4.253,4.253,0,0,1,.438.74c.037.078.074.156.11.234a.121.121,0,0,0,.219,0v0a.12.12,0,0,0,0-.1,4.624,4.624,0,0,0-.757-1.234,3.474,3.474,0,0,0-1.594-.99,5.111,5.111,0,0,0-2.871.007,8.55,8.55,0,0,1,.645-.908h0a4.511,4.511,0,0,1,1.915-.316,4.291,4.291,0,0,1,2.648,1.062,3.882,3.882,0,0,1,.523.58.119.119,0,0,0,.211-.041v0a.118.118,0,0,0-.019-.1,4.161,4.161,0,0,0-1.766-1.381,4.546,4.546,0,0,0-.571-.2,4.735,4.735,0,0,0-.637-.127,4.867,4.867,0,0,0-1.988.159,7.074,7.074,0,0,1,.762-.711.108.108,0,0,0,0-.169h0l-.018-.014a.109.109,0,0,0-.135,0,7.256,7.256,0,0,0-.662.6,3.465,3.465,0,0,0-2.095-1.869,7.5,7.5,0,0,0-1.526-.292,10.092,10.092,0,0,0-1.4-.068.107.107,0,0,0-.067.026l-.033.029a.106.106,0,0,0,.074.185h0a10.116,10.116,0,0,1,1.568.087,6.2,6.2,0,0,1,1.45.311,3.247,3.247,0,0,1,1.833,1.745.131.131,0,0,0,.02.033q-.124.136-.241.278h0a.1.1,0,0,0-.022.026h0l-.087.107q-.227.286-.428.59a7.783,7.783,0,0,0-1.192-.536,7.956,7.956,0,0,0-3.647-.4q-.345.044-.684.117a.119.119,0,0,0-.09.088v0a.119.119,0,0,0,.141.145,7.7,7.7,0,0,1,5.341.781,10.7,10.7,0,0,0-.677,1.269.146.146,0,0,0-.032-.01l-.124-.022a7.474,7.474,0,0,0-1.931-.072,7.032,7.032,0,0,0-2.884.912l-.1.059a.119.119,0,0,0-.057.1v0a.119.119,0,0,0,.181.1q.228-.138.466-.257a6.881,6.881,0,0,1,2.734-.7,7.175,7.175,0,0,1,1.649.109" transform="translate(-383.05 -401.262)" fill="#646794"/>
                </g>
              </g>
            </g>
            <g id="Grupo_1183617" data-name="Grupo 1183617" transform="translate(99.635 98.364)" opacity="0.3">
              <g id="Grupo_1183616" data-name="Grupo 1183616">
                <g id="Grupo_1183615" data-name="Grupo 1183615" clip-path="url(#clip-path-7)">
                  <path id="Trazado_1010376" data-name="Trazado 1010376" d="M363.124,364.321v0a.121.121,0,0,0,.182.064q.546-.363,1.125-.671a3.446,3.446,0,0,1-.089.632,3.731,3.731,0,0,1-.353.922.119.119,0,0,0,.033.151h0a.119.119,0,0,0,.177-.038,3.9,3.9,0,0,0,.476-1.8c.091-.046.354-.167.429-.205l.108-.052q.566-.256,1.155-.46a2.889,2.889,0,0,1,.082,1.092,4.323,4.323,0,0,1-.926,2.145.119.119,0,0,0,.047.181l0,0a.119.119,0,0,0,.142-.037,5.312,5.312,0,0,0,.738-1.3,3.452,3.452,0,0,0,.143-2.155,13.635,13.635,0,0,1,1.634-.424l0,0a3.693,3.693,0,0,1,.228,1.7,6.217,6.217,0,0,1-.74,2.552q-.056.1-.116.205a.119.119,0,0,0,.072.175h0a.119.119,0,0,0,.133-.054,6.543,6.543,0,0,0,.7-1.7,6.3,6.3,0,0,0,.2-1.409,3.819,3.819,0,0,0-.241-1.52,13.434,13.434,0,0,1,1.532-.18q.286-.018.574-.023a5.121,5.121,0,0,1-.1,4.135,5.222,5.222,0,0,1-.655,1.034.119.119,0,0,0,.074.192h0a.118.118,0,0,0,.111-.041l.068-.086a5.317,5.317,0,0,0,1.072-2.489,5.431,5.431,0,0,0-.313-2.748,11.1,11.1,0,0,1,1.285.069,3.7,3.7,0,0,1,1.607,3.587,4.01,4.01,0,0,1-.713,1.667.119.119,0,0,0,.113.187l.023,0a.121.121,0,0,0,.081-.047,3.946,3.946,0,0,0,.62-3.419,4.024,4.024,0,0,0-1.239-1.9,6.122,6.122,0,0,1,1.143.306.119.119,0,0,0,.162-.119v0a.118.118,0,0,0-.076-.1c-.13-.05-.261-.094-.394-.134.03-.417.057-.835.055-1.253a5.26,5.26,0,0,0-.374-2.076,3.479,3.479,0,0,0-.164-.332.118.118,0,0,0-.1-.059h0a.119.119,0,0,0-.109.177,6.179,6.179,0,0,1,.455,3.479,7.841,7.841,0,0,0-.946-.175l-.055-.006c-.035-.022-.071-.045-.106-.066l-.02-.01a4.17,4.17,0,0,0-1.125-3.213.12.12,0,0,0-.1-.035h0a.12.12,0,0,0-.068.2,3.76,3.76,0,0,1,.519.681,3.977,3.977,0,0,1,.538,2.384c0,.007,0,.013,0,.019a12.569,12.569,0,0,0-2.229.008,4.292,4.292,0,0,0-1.141-2.588.119.119,0,0,0-.13-.029h0a.119.119,0,0,0-.043.194,3.853,3.853,0,0,1,.411.518,4.085,4.085,0,0,1,.665,1.927,14.064,14.064,0,0,0-1.781.312,3.983,3.983,0,0,0-1.237-1.9.121.121,0,0,0-.141-.011l0,0a.122.122,0,0,0-.015.2,3.741,3.741,0,0,1,1.162,1.77l-.129.034q-.4.108-.793.239a.134.134,0,0,0-.061.021,13.912,13.912,0,0,0-1.334.53,4.621,4.621,0,0,0-.772-.728q-.118-.088-.241-.168a.122.122,0,0,0-.161.023l0,0a.121.121,0,0,0,.027.179,4.385,4.385,0,0,1,.924.8,13.609,13.609,0,0,0-1.642.935.117.117,0,0,0-.047.133" transform="translate(-363.118 -358.486)" fill="#646794"/>
                </g>
              </g>
            </g>
            <path id="Trazado_1010377" data-name="Trazado 1010377" d="M39.686,388.024a4.794,4.794,0,0,0,2.556,1.154,3.106,3.106,0,0,1,1.253.445.984.984,0,0,1,.375,1.173c-.207.4-.735.517-1.017.868a1.236,1.236,0,0,0,.3,1.629,3.6,3.6,0,0,0,1.694.645,22.261,22.261,0,0,0,5.652.607,9.414,9.414,0,0,0,1.872-.307q.165-.045.327-.1a6.555,6.555,0,0,0,2.91-1.791,11.113,11.113,0,0,0,1.36-2.032l.9-1.578c.507-.893.672-1.385.532-1.694-.269-.6-1.271-.4-1.7-1.217a1.531,1.531,0,0,1-.155-.563c-.167-1.263.834-1.753.79-2.78a2.254,2.254,0,0,0-1.69-2.066c-.559-.043-1.216.2-1.625-.188-.677-.636.362-1.9-.171-2.661-.5-.708-1.75-.2-2.391-.776-.863-.779.3-2.528-.59-3.281-.863-.735-2.316.611-3.262-.013-.986-.65-.146-2.536-1.113-3.212-.752-.526-1.8.238-2.687.009-.778-.2-1.164-1.073-1.827-1.529a1.912,1.912,0,0,0-2.921,2.109,7.33,7.33,0,0,0,.79,1.44,1.61,1.61,0,0,1,.146,1.565c-.434.726-1.667.733-1.951,1.529-.254.714.477,1.374,1.137,1.747s1.448.887,1.374,1.642c-.1.986-1.611,1.379-1.649,2.368-.026.659.624,1.113,1.177,1.472s1.151.934.963,1.566-1.034.795-1.52,1.261a1.885,1.885,0,0,0,.165,2.557" transform="translate(-27.563 -267.347)" fill="#90abf3"/>
            <g id="Grupo_1183620" data-name="Grupo 1183620" transform="translate(13.53 102.916)" opacity="0.5">
              <g id="Grupo_1183619" data-name="Grupo 1183619">
                <g id="Grupo_1183618" data-name="Grupo 1183618" clip-path="url(#clip-path-8)">
                  <path id="Trazado_1010378" data-name="Trazado 1010378" d="M50.814,390.491l1.749.581,3.084,1.023,3.026,1q.326.89.631,1.787.242.712.468,1.429l-1.019-.109-2.244-.24-2.254-.241a.17.17,0,1,0-.015.341l.263.028,2.075.222,2.085.223,1.043.112.179.019q.37,1.185.7,2.381.165-.045.327-.1-.335-1.206-.71-2.4l.033-.037.353-.395,1.4-1.559,1.4-1.566a.175.175,0,0,0,.008-.241.171.171,0,0,0-.241-.007l-.72.8-1.269,1.418-1.081,1.207q-.321-1.006-.668-2-.208-.6-.427-1.191l.676-1.119,1.265-2.095,1.271-2.105a.17.17,0,1,0-.288-.181l-.719,1.19-1.265,2.1-1.091,1.806q-.64-1.715-1.359-3.4-.26-.608-.53-1.212l.456-.921.867-1.75.867-1.75a.175.175,0,0,0-.054-.235.17.17,0,0,0-.235.054l-.491.991-.867,1.75-.724,1.462q-.745-1.641-1.565-3.246-.171-.335-.345-.667l.418-.7.831-1.389.831-1.389a.17.17,0,0,0-.289-.181l-.468.783-.831,1.389-.677,1.133q-.945-1.783-1.982-3.517.079-.293.157-.587l.629-2.344a.174.174,0,0,0-.111-.213.172.172,0,0,0-.214.112l-.178.662-.527,1.965q-1.309-2.157-2.755-4.226c-.124-.178-.426-.018-.3.162s.257.368.384.554q1.214,1.766,2.327,3.6l-.2-.08-2.367-.923a.171.171,0,0,0-.1.326l.661.258,2.3.9q.121.2.241.4.874,1.481,1.682,3l-.638-.214-1.849-.62-1.849-.621a.171.171,0,0,0-.1.326l1.039.348,1.849.621,1.781.6q.327.623.642,1.251.658,1.312,1.265,2.648l-.941-.242-2.325-.6-2.333-.6a.174.174,0,0,0-.213.112.172.172,0,0,0,.112.214l1.313.337,2.325.6,2.244.576q.4.9.782,1.806.582,1.389,1.108,2.8l-1.416-.47L54.022,391.2l-3.106-1.031a.17.17,0,1,0-.1.325" transform="translate(-49.309 -375.074)" fill="#646794"/>
                </g>
              </g>
            </g>
            <path id="Trazado_1010379" data-name="Trazado 1010379" d="M60.924,351.063a6.641,6.641,0,0,0,3.094,2.347,4.3,4.3,0,0,1,1.554.988,1.363,1.363,0,0,1,.144,1.7c-.4.475-1.152.471-1.642.857a1.712,1.712,0,0,0-.1,2.293,4.984,4.984,0,0,0,2.088,1.394,30.845,30.845,0,0,0,7.443,2.566,13.087,13.087,0,0,0,2.623.164q.236-.01.472-.029a9.076,9.076,0,0,0,4.481-1.52,15.394,15.394,0,0,0,2.464-2.324l1.7-1.854c.96-1.048,1.335-1.662,1.242-2.122-.179-.887-1.591-.936-1.92-2.169a2.118,2.118,0,0,1-.035-.808c.165-1.757,1.667-2.11,1.925-3.508.23-1.243-.514-2.959-1.644-3.312-.742-.231-1.7-.111-2.136-.756-.717-1.068,1.075-2.454.592-3.646-.45-1.109-2.3-.806-2.988-1.786-.924-1.319,1.179-3.321.217-4.612-.938-1.259-3.315.109-4.4-1.025-1.13-1.182.587-3.468-.511-4.68-.853-.942-2.5-.234-3.63-.818-.989-.511-1.241-1.809-1.994-2.628a2.648,2.648,0,0,0-4.594,1.945,10.155,10.155,0,0,0,.622,2.187,2.23,2.23,0,0,1-.286,2.158c-.81.846-2.477.474-3.107,1.461-.564.886.22,2,.995,2.71s1.68,1.645,1.348,2.641c-.434,1.3-2.6,1.363-2.957,2.688-.238.882.5,1.695,1.135,2.351s1.265,1.617.817,2.412c-.458.811-1.642.753-2.441,1.232a2.611,2.611,0,0,0-.567,3.5" transform="translate(-43.904 -235.773)" fill="#646794"/>
            <g id="Grupo_1183623" data-name="Grupo 1183623" transform="translate(21.56 91.812)" opacity="0.5">
              <g id="Grupo_1183622" data-name="Grupo 1183622">
                <g id="Grupo_1183621" data-name="Grupo 1183621" clip-path="url(#clip-path-9)">
                  <path id="Trazado_1010380" data-name="Trazado 1010380" d="M78.692,355.819l2.183,1.324,3.847,2.334,3.775,2.291q.166,1.3.3,2.607.106,1.036.191,2.073l-1.342-.462-2.956-1.017-2.968-1.022a.236.236,0,0,0-.126.455l.347.119,2.733.941,2.746.946,1.373.472.235.081q.133,1.714.212,3.432.236-.01.472-.029-.08-1.732-.216-3.46l.057-.04.6-.424,2.365-1.674,2.376-1.681a.242.242,0,0,0,.085-.323.237.237,0,0,0-.323-.085l-1.22.863-2.151,1.522-1.832,1.3q-.122-1.457-.283-2.911-.1-.87-.208-1.739l1.258-1.3,2.355-2.437,2.366-2.449a.236.236,0,0,0-.334-.334l-1.338,1.384-2.355,2.438-2.031,2.1q-.335-2.513-.785-5.008-.163-.9-.342-1.8l.9-1.1,1.711-2.1,1.711-2.1a.242.242,0,0,0,0-.333.236.236,0,0,0-.334,0l-.969,1.186-1.711,2.1-1.429,1.75q-.5-2.445-1.111-4.865-.127-.5-.26-1.008l.779-.814L88.6,345.4l1.551-1.619a.236.236,0,0,0-.334-.334l-.874.913-1.55,1.619-1.264,1.32q-.725-2.7-1.59-5.359l.394-.744,1.573-2.97a.241.241,0,0,0-.085-.322.237.237,0,0,0-.323.085l-.445.84-1.319,2.49q-1.1-3.316-2.414-6.556c-.113-.278-.569-.156-.455.126s.232.577.347.866q1.093,2.759,2.03,5.578l-.251-.171-2.91-1.978a.236.236,0,0,0-.238.408l.813.552,2.828,1.922c.067.207.135.413.2.621q.722,2.269,1.344,4.569l-.795-.486-2.3-1.409-2.3-1.409a.236.236,0,0,0-.238.408l1.3.792,2.3,1.409,2.219,1.357q.249.942.48,1.888.483,1.975.89,3.967l-1.2-.617-2.954-1.524-2.965-1.53a.241.241,0,0,0-.322.085.237.237,0,0,0,.085.323l1.668.861,2.954,1.524,2.851,1.471q.266,1.337.5,2.68.356,2.055.63,4.124L86.652,360.1,82.8,357.762l-3.874-2.351a.236.236,0,1,0-.238.407" transform="translate(-78.576 -334.606)" fill="#4f545d"/>
                </g>
              </g>
            </g>
            <path id="Trazado_1010381" data-name="Trazado 1010381" d="M94.3,410.178a3.385,3.385,0,0,0,1.805.815,2.2,2.2,0,0,1,.885.314.7.7,0,0,1,.265.829c-.147.282-.519.365-.719.613a.873.873,0,0,0,.212,1.151,2.538,2.538,0,0,0,1.2.455,15.733,15.733,0,0,0,3.993.429,6.657,6.657,0,0,0,1.323-.217q.116-.032.231-.068a4.63,4.63,0,0,0,2.055-1.266,7.847,7.847,0,0,0,.96-1.436l.633-1.115c.358-.63.475-.978.376-1.2-.19-.421-.9-.285-1.2-.86a1.073,1.073,0,0,1-.109-.4c-.118-.892.589-1.239.558-1.963a1.592,1.592,0,0,0-1.194-1.459c-.4-.031-.859.139-1.148-.133-.478-.449.255-1.342-.12-1.88-.35-.5-1.236-.139-1.689-.548-.609-.551.209-1.786-.417-2.318-.609-.519-1.636.431-2.3-.009-.7-.459-.1-1.791-.786-2.269-.531-.372-1.27.168-1.9.006-.55-.142-.823-.758-1.29-1.08a1.351,1.351,0,0,0-2.063,1.49,5.174,5.174,0,0,0,.558,1.017,1.138,1.138,0,0,1,.1,1.105c-.306.513-1.178.517-1.379,1.08-.18.5.337.971.8,1.234s1.023.627.971,1.16c-.068.7-1.138.974-1.165,1.673-.018.466.441.786.832,1.04s.813.66.68,1.107-.731.561-1.073.89a1.332,1.332,0,0,0,.116,1.806" transform="translate(-67.553 -287.593)" fill="#90abf3"/>
            <g id="Grupo_1183626" data-name="Grupo 1183626" transform="translate(25.545 108.752)" opacity="0.2">
              <g id="Grupo_1183625" data-name="Grupo 1183625">
                <g id="Grupo_1183624" data-name="Grupo 1183624" clip-path="url(#clip-path-10)">
                  <path id="Trazado_1010382" data-name="Trazado 1010382" d="M94.3,410.178a3.385,3.385,0,0,0,1.805.815,2.2,2.2,0,0,1,.885.314.7.7,0,0,1,.265.829c-.147.282-.519.365-.719.613a.873.873,0,0,0,.212,1.151,2.538,2.538,0,0,0,1.2.455,15.733,15.733,0,0,0,3.993.429,6.657,6.657,0,0,0,1.323-.217q.116-.032.231-.068a4.63,4.63,0,0,0,2.055-1.266,7.847,7.847,0,0,0,.96-1.436l.633-1.115c.358-.63.475-.978.376-1.2-.19-.421-.9-.285-1.2-.86a1.073,1.073,0,0,1-.109-.4c-.118-.892.589-1.239.558-1.963a1.592,1.592,0,0,0-1.194-1.459c-.4-.031-.859.139-1.148-.133-.478-.449.255-1.342-.12-1.88-.35-.5-1.236-.139-1.689-.548-.609-.551.209-1.786-.417-2.318-.609-.519-1.636.431-2.3-.009-.7-.459-.1-1.791-.786-2.269-.531-.372-1.27.168-1.9.006-.55-.142-.823-.758-1.29-1.08a1.351,1.351,0,0,0-2.063,1.49,5.174,5.174,0,0,0,.558,1.017,1.138,1.138,0,0,1,.1,1.105c-.306.513-1.178.517-1.379,1.08-.18.5.337.971.8,1.234s1.023.627.971,1.16c-.068.7-1.138.974-1.165,1.673-.018.466.441.786.832,1.04s.813.66.68,1.107-.731.561-1.073.89a1.332,1.332,0,0,0,.116,1.806" transform="translate(-93.098 -396.346)" fill="#4f545d"/>
                </g>
              </g>
            </g>
            <g id="Grupo_1183629" data-name="Grupo 1183629" transform="translate(27.739 110.038)" opacity="0.5">
              <g id="Grupo_1183628" data-name="Grupo 1183628">
                <g id="Grupo_1183627" data-name="Grupo 1183627" clip-path="url(#clip-path-11)">
                  <path id="Trazado_1010383" data-name="Trazado 1010383" d="M102.159,411.92l1.236.41,2.178.723,2.138.709q.23.628.446,1.262.17.5.331,1.009l-.72-.077-1.586-.17-1.592-.171a.12.12,0,1,0-.011.241l.186.02,1.466.157,1.473.157.736.079.126.014q.261.837.5,1.682.116-.032.231-.068-.237-.852-.5-1.7l.024-.026.25-.279.986-1.1.99-1.106a.124.124,0,0,0,.005-.17.121.121,0,0,0-.17-.005l-.508.568-.9,1-.763.853q-.226-.711-.472-1.415-.147-.421-.3-.841l.477-.791.894-1.48.9-1.487a.12.12,0,0,0-.2-.128l-.508.841-.894,1.48-.771,1.276q-.452-1.211-.96-2.4-.184-.43-.375-.856l.322-.651.612-1.236.612-1.236a.124.124,0,0,0-.038-.166.121.121,0,0,0-.166.038l-.347.7-.612,1.236-.511,1.033q-.526-1.159-1.106-2.293-.121-.237-.244-.471l.295-.493.587-.981.587-.981a.123.123,0,0,0-.038-.166.122.122,0,0,0-.166.038l-.331.553-.587.981-.479.8q-.668-1.26-1.4-2.484l.111-.415.444-1.655a.123.123,0,0,0-.079-.151.121.121,0,0,0-.151.079l-.126.468-.373,1.388q-.924-1.523-1.946-2.985c-.088-.125-.3-.013-.212.114l.271.391q.857,1.248,1.644,2.542l-.145-.057-1.672-.652a.12.12,0,0,0-.072.23l.467.182,1.625.634c.057.095.114.19.17.286q.617,1.046,1.188,2.119l-.451-.151-1.306-.438-1.306-.438a.121.121,0,0,0-.072.23l.734.246,1.306.438,1.258.422q.231.44.454.884.465.927.894,1.871l-.665-.171-1.642-.422-1.648-.423a.123.123,0,0,0-.151.079.121.121,0,0,0,.079.151l.927.238,1.642.422,1.585.407q.284.635.553,1.276.411.982.783,1.979l-1-.332-2.178-.723-2.194-.728a.12.12,0,0,0-.072.23" transform="translate(-101.096 -401.03)" fill="#646794"/>
                </g>
              </g>
            </g>
            <path id="Trazado_1010384" data-name="Trazado 1010384" d="M134.435,387.831a4.792,4.792,0,0,1-2.435,1.39,3.11,3.11,0,0,0-1.205.562.984.984,0,0,0-.263,1.2c.244.378.78.446,1.1.768a1.236,1.236,0,0,1-.145,1.65,3.6,3.6,0,0,1-1.626.8,22.264,22.264,0,0,1-5.569,1.139,9.431,9.431,0,0,1-1.893-.129c-.112-.02-.224-.041-.335-.065a6.553,6.553,0,0,1-3.066-1.508,11.1,11.1,0,0,1-1.546-1.895l-1.041-1.486c-.589-.841-.8-1.315-.69-1.636.211-.618,1.227-.521,1.578-1.373a1.522,1.522,0,0,0,.1-.575c.047-1.273-1-1.667-1.05-2.693a2.254,2.254,0,0,1,1.487-2.217c.553-.1,1.23.08,1.6-.341.614-.7-.54-1.857-.082-2.665.426-.752,1.724-.362,2.307-1,.785-.857-.533-2.488.277-3.323.789-.813,2.363.389,3.246-.322.92-.74-.095-2.538.8-3.3.7-.595,1.813.067,2.676-.245.756-.273,1.058-1.178,1.674-1.695a1.912,1.912,0,0,1,3.107,1.823,7.357,7.357,0,0,1-.65,1.508,1.61,1.61,0,0,0,0,1.571c.5.682,1.729.572,2.087,1.338.321.687-.345,1.413-.966,1.847s-1.357,1.02-1.213,1.764c.189.972,1.734,1.22,1.865,2.2.088.654-.516,1.167-1.033,1.577s-1.058,1.039-.811,1.651,1.1.693,1.632,1.111a1.885,1.885,0,0,1,.078,2.561" transform="translate(-83.945 -267.346)" fill="#90abf3"/>
            <g id="Grupo_1183632" data-name="Grupo 1183632" transform="translate(35.023 102.957)" opacity="0.5">
              <g id="Grupo_1183631" data-name="Grupo 1183631">
                <g id="Grupo_1183630" data-name="Grupo 1183630" clip-path="url(#clip-path-12)">
                  <path id="Trazado_1010385" data-name="Trazado 1010385" d="M160.268,414.1a.043.043,0,0,0,.011-.085.043.043,0,0,0-.011.085" transform="translate(-151.289 -403.374)" fill="#38a891"/>
                  <path id="Trazado_1010386" data-name="Trazado 1010386" d="M139.987,390.694l-1.687.744-2.973,1.31-2.918,1.286q-.241.916-.459,1.839-.173.731-.331,1.466l1-.2,2.212-.451,2.221-.454a.171.171,0,0,1,.047.338l-.259.053-2.045.418-2.054.42-1.027.21-.176.036q-.256,1.215-.474,2.437c-.112-.019-.224-.041-.335-.065q.22-1.232.479-2.457l-.037-.034-.389-.36-1.537-1.42-1.543-1.426a.175.175,0,0,1-.03-.239.171.171,0,0,1,.239-.03l.793.732,1.4,1.292,1.19,1.1q.224-1.032.476-2.058.151-.614.312-1.225l-.779-1.05-1.458-1.966-1.465-1.975a.17.17,0,0,1,.27-.208l.828,1.117,1.458,1.966,1.257,1.695q.475-1.768,1.031-3.512.2-.631.413-1.257l-.541-.874-1.028-1.661-1.028-1.66a.175.175,0,0,1,.031-.239.171.171,0,0,1,.239.031l.582.94,1.028,1.661.859,1.387q.587-1.7,1.251-3.379.139-.349.281-.7l-.482-.656-.958-1.3-.958-1.3a.171.171,0,0,1,.271-.208l.54.735.958,1.3.782,1.064q.772-1.865,1.641-3.688l-.212-.569-.848-2.274a.174.174,0,0,1,.091-.223.171.171,0,0,1,.223.091l.24.643.711,1.906q1.1-2.271,2.343-4.467c.107-.189.422-.058.314.133s-.22.391-.33.588q-1.041,1.873-1.976,3.8l.2-.1,2.269-1.143a.17.17,0,0,1,.132.314l-.634.319-2.2,1.111c-.068.141-.135.283-.2.425q-.73,1.557-1.39,3.145l.615-.274,1.782-.793,1.782-.793a.171.171,0,0,1,.133.314l-1,.445-1.782.793-1.716.763q-.266.651-.521,1.306-.531,1.368-1.009,2.757l.914-.33,2.258-.814,2.266-.817a.174.174,0,0,1,.223.091.171.171,0,0,1-.091.223l-1.275.46-2.258.814-2.179.786q-.316.932-.608,1.872-.447,1.438-.838,2.893l1.365-.6,2.973-1.31,2.994-1.32a.17.17,0,0,1,.133.314" transform="translate(-127.641 -375.225)" fill="#646794"/>
                </g>
              </g>
            </g>
            <path id="Trazado_1010387" data-name="Trazado 1010387" d="M60.506,462.327H92.329a1.581,1.581,0,0,0-1.582-1.582H62.088a1.582,1.582,0,0,0-1.582,1.582" transform="translate(-43.904 -334.322)" fill="#90abf3"/>
            <g id="Grupo_1183635" data-name="Grupo 1183635" transform="translate(16.602 126.423)" opacity="0.2">
              <g id="Grupo_1183634" data-name="Grupo 1183634">
                <g id="Grupo_1183633" data-name="Grupo 1183633" clip-path="url(#clip-path-13)">
                  <path id="Trazado_1010388" data-name="Trazado 1010388" d="M60.506,462.327H73.681a1.582,1.582,0,0,0-1.582-1.582H62.088a1.582,1.582,0,0,0-1.582,1.582" transform="translate(-60.506 -460.745)" fill="#4f545d"/>
                </g>
              </g>
            </g>
            <path id="Trazado_1010389" data-name="Trazado 1010389" d="M469.726,57.092l2.541,1.141-7.508,77.356h-2.695l.947-66.193Z" transform="translate(-335.28 -41.427)" fill="#517aef"/>
            <path id="Trazado_1010390" data-name="Trazado 1010390" d="M188.46,57.092l-7.662,78.5L79.646,123.928,74.439,68.562Z" transform="translate(-54.014 -41.427)" fill="#cde2f0"/>
            <path id="Trazado_1010391" data-name="Trazado 1010391" d="M418.6,147.193l-3.925-.055,1.594-23.457,4.11-.219Z" transform="translate(-300.894 -89.585)" fill="#90abf3"/>
            <path id="Trazado_1010392" data-name="Trazado 1010392" d="M398.793,159.315l-3.8-.054,1.1-18.825,3.945-.161Z" transform="translate(-286.61 -101.785)" fill="#646794"/>
            <path id="Trazado_1010393" data-name="Trazado 1010393" d="M379.595,168.92l-3.687-.052.74-15.135,3.8-.117Z" transform="translate(-272.764 -111.465)" fill="#90abf3"/>
            <path id="Trazado_1010394" data-name="Trazado 1010394" d="M360.978,176.545l-3.576-.05.485-12.187,3.66-.083Z" transform="translate(-259.336 -119.164)" fill="#646794"/>
            <path id="Trazado_1010395" data-name="Trazado 1010395" d="M342.917,182.606l-3.469-.049.3-9.825,3.534-.056Z" transform="translate(-246.307 -125.296)" fill="#90abf3"/>
            <path id="Trazado_1010396" data-name="Trazado 1010396" d="M360.714,141.554l-27.9-.5a.259.259,0,0,1-.267-.254.266.266,0,0,1,.281-.244L360.11,141l2.074-26.912a.379.379,0,0,1,.363-.317.272.272,0,0,1,.317.277Z" transform="translate(-241.301 -82.555)" fill="#646794"/>
            <path id="Trazado_1010397" data-name="Trazado 1010397" d="M346.594,162.365a.432.432,0,0,1-.432.395.376.376,0,0,1-.4-.375.432.432,0,0,1,.431-.4.376.376,0,0,1,.406.375" transform="translate(-250.886 -117.542)" fill="#90abf3"/>
            <path id="Trazado_1010398" data-name="Trazado 1010398" d="M365.46,154.726a.453.453,0,0,1-.451.406.38.38,0,0,1-.416-.381.453.453,0,0,1,.449-.407.38.38,0,0,1,.417.381" transform="translate(-264.554 -111.994)" fill="#90abf3"/>
            <path id="Trazado_1010399" data-name="Trazado 1010399" d="M385.393,140.3a.481.481,0,0,1-.472.424.385.385,0,0,1-.428-.387.481.481,0,0,1,.471-.424.384.384,0,0,1,.429.387" transform="translate(-278.992 -101.519)" fill="#90abf3"/>
            <path id="Trazado_1010400" data-name="Trazado 1010400" d="M405.959,129.838a.507.507,0,0,1-.493.438.389.389,0,0,1-.441-.393.508.508,0,0,1,.492-.439.389.389,0,0,1,.442.393" transform="translate(-293.891 -93.926)" fill="#90abf3"/>
            <path id="Trazado_1010401" data-name="Trazado 1010401" d="M427.935,111.4a.543.543,0,0,1-.519.46.394.394,0,0,1-.456-.4.543.543,0,0,1,.517-.46.394.394,0,0,1,.457.4" transform="translate(-309.807 -80.542)" fill="#90abf3"/>
            <path id="Trazado_1010402" data-name="Trazado 1010402" d="M364.853,101.509q-.4-2.382-.8-4.781l-4.318,3.335.668.188c-.077.208-.171.438-.271.664-.115.26-.237.522-.368.784-.26.522-.545,1.04-.851,1.549a22.548,22.548,0,0,1-2.077,2.907c-.094.116-.194.227-.293.339s-.2.226-.3.334c-.2.218-.406.438-.621.646l-.158.159-.079.079-.082.077-.327.306c-.107.1-.223.2-.335.3s-.223.2-.339.293a19.433,19.433,0,0,1-2.949,2.03,18.567,18.567,0,0,1-6.757,2.17,18.9,18.9,0,0,1-3.5.083q-.865-.065-1.718-.2t-1.674-.356l-.29.654a19.415,19.415,0,0,0,7.168,1.217,20.068,20.068,0,0,0,3.879-.451,20.977,20.977,0,0,0,3.871-1.231,22.9,22.9,0,0,0,3.658-2.006c.147-.1.288-.2.432-.3s.29-.2.428-.308l.421-.319.105-.08.1-.083.205-.166c.278-.219.542-.451.809-.682.135-.115.261-.237.392-.355s.262-.238.387-.362a27.529,27.529,0,0,0,2.825-3.159q.647-.845,1.228-1.736c.195-.3.382-.6.564-.91.15-.254.293-.508.435-.778l.534.15" transform="translate(-244.828 -70.187)" fill="#517aef"/>
            <path id="Trazado_1010403" data-name="Trazado 1010403" d="M306.221,227.983,306,230.535l-53.817-2.066-.026-2.173Z" transform="translate(-182.97 -164.204)" fill="#90abf3"/>
            <path id="Trazado_1010404" data-name="Trazado 1010404" d="M305.965,242.119l-.216,2.512-53.4-2.7-.026-2.144Z" transform="translate(-183.087 -173.993)" fill="#90abf3"/>
            <path id="Trazado_1010405" data-name="Trazado 1010405" d="M305.714,256.058l-.212,2.473-53-3.312-.025-2.116Z" transform="translate(-183.203 -183.655)" fill="#90abf3"/>
            <path id="Trazado_1010406" data-name="Trazado 1010406" d="M305.466,269.8l-.209,2.435-52.6-3.908-.025-2.088Z" transform="translate(-183.316 -193.188)" fill="#90abf3"/>
            <path id="Trazado_1010407" data-name="Trazado 1010407" d="M305.223,283.359l-.206,2.4-52.2-4.487-.025-2.06Z" transform="translate(-183.429 -202.597)" fill="#90abf3"/>
            <g id="Grupo_1183638" data-name="Grupo 1183638" transform="translate(69.189 62.093)" opacity="0.4">
              <g id="Grupo_1183637" data-name="Grupo 1183637">
                <g id="Grupo_1183636" data-name="Grupo 1183636" clip-path="url(#clip-path-14)">
                  <path id="Trazado_1010408" data-name="Trazado 1010408" d="M270.893,226.881l-2.491,2.211-16.217-.623-.026-2.173Z" transform="translate(-252.158 -226.296)" fill="#517aef"/>
                </g>
              </g>
            </g>
            <g id="Grupo_1183641" data-name="Grupo 1183641" transform="translate(69.233 65.795)" opacity="0.4">
              <g id="Grupo_1183640" data-name="Grupo 1183640">
                <g id="Grupo_1183639" data-name="Grupo 1183639" clip-path="url(#clip-path-15)">
                  <path id="Trazado_1010409" data-name="Trazado 1010409" d="M281.823,241.07l-2.687,2.216-26.791-1.354-.026-2.144Z" transform="translate(-252.32 -239.789)" fill="#517aef"/>
                </g>
              </g>
            </g>
            <g id="Grupo_1183644" data-name="Grupo 1183644" transform="translate(69.277 69.448)" opacity="0.4">
              <g id="Grupo_1183643" data-name="Grupo 1183643">
                <g id="Grupo_1183642" data-name="Grupo 1183642" clip-path="url(#clip-path-16)">
                  <path id="Trazado_1010410" data-name="Trazado 1010410" d="M293.343,255.371l-2.9,2.218L252.5,255.218l-.025-2.116Z" transform="translate(-252.479 -253.103)" fill="#517aef"/>
                </g>
              </g>
            </g>
            <g id="Grupo_1183647" data-name="Grupo 1183647" transform="translate(90.133 74.627)" opacity="0.4">
              <g id="Grupo_1183646" data-name="Grupo 1183646">
                <g id="Grupo_1183645" data-name="Grupo 1183645" clip-path="url(#clip-path-17)">
                  <path id="Trazado_1010411" data-name="Trazado 1010411" d="M360.5,273.964,360.3,276.4l-31.808-2.364,2.533-2.059Z" transform="translate(-328.487 -271.977)" fill="#517aef"/>
                </g>
              </g>
            </g>
            <g id="Grupo_1183650" data-name="Grupo 1183650" transform="translate(86.088 78.128)" opacity="0.4">
              <g id="Grupo_1183649" data-name="Grupo 1183649">
                <g id="Grupo_1183648" data-name="Grupo 1183648" clip-path="url(#clip-path-18)">
                  <path id="Trazado_1010412" data-name="Trazado 1010412" d="M349.452,287.37l-.206,2.4-35.5-3.051,2.437-1.979Z" transform="translate(-313.747 -284.736)" fill="#517aef"/>
                </g>
              </g>
            </g>
            <path id="Trazado_1010413" data-name="Trazado 1010413" d="M102.026,110.065l0,.005c-.43.6-.749.677-1.085,1.037-.1.1-.591.634-.461,1.022.08.24.367.332.531.385.642.207,1.068-.18,1.317.088a.7.7,0,0,1,.125.493c-.042.538-.607.514-1.243,1.306-.379.472-.362.711-.765,1.005-.179.131-.312.178-.417.37-.185.339-.151.891.027,1s.408-.355,1.259-1.071c.941-.792,1.338-.783,1.481-.77.291.027.372.149.673.108a1.46,1.46,0,0,0,.9-.53c.225-.278.261-.549.433-.527.138.017.238.155.344.261a.927.927,0,0,0,1.408-.117c.294-.431.262-1.074.565-1.5a1.584,1.584,0,0,1,1.9-.263,3.48,3.48,0,0,0,2.027.45c.439-.115.921-.447,1.3-.168s.3.913.529,1.345c.259.486.854.511,1.444.6,1.206.182,1.638-.284,2.139.134.146.122.224.258.8.82a.862.862,0,0,0,.479.3c.251.034.323-.135.591-.144.409-.013.593.368.762.281s.216-.578.016-.941c-.246-.448-.821-.535-1.2-.857-.982-.828-.354-2.8-1.339-3.629a5.152,5.152,0,0,1,1.531-.547,1.8,1.8,0,0,0,1.27-1.025,5.054,5.054,0,0,1,.181-.637,1.133,1.133,0,0,1,.931-.55c.368-.038.741.016,1.11-.044.87-.142,1.611-.9,2.5-.972,1-.077,1.977.74,2.944.362.368-.144.7-.563.565-.93a.78.78,0,0,0-.674-.416,10.746,10.746,0,0,0-1.649.064,1.688,1.688,0,0,1-1.452-.554,7.7,7.7,0,0,1-.412-.873.69.69,0,0,0-.756-.423c-.392.13-.483.7-.805.969-.341.289-.817.171-1.235.124a3.106,3.106,0,0,0-1.758.33,2.193,2.193,0,0,1-.9.359,3.107,3.107,0,0,1-.937-.3c-.927-.291-1.926.394-2.861.213a11.05,11.05,0,0,1-1.357-.561,4.285,4.285,0,0,0-2.473.169,1.063,1.063,0,0,0-.484.227c-.358.346-.2.986-.26,1.508a1.383,1.383,0,0,1-1.339,1.261,2.342,2.342,0,0,1-.776-.238L106,107.427a1.9,1.9,0,0,0-1.572-.2,1.275,1.275,0,0,0-.6.536c-.355.648.123,1.2-.17,1.6-.329.445-1.12,0-1.635.707" transform="translate(-72.489 -75.456)" fill="#646794"/>
            <path id="Trazado_1010414" data-name="Trazado 1010414" d="M187.657,116.247c-.687,1.009-3.305.935-4.522-.352-.352-.372-.243-.48-.607-.84-1.018-1.006-2.97-1.256-3.836-.426-.6.571-.415,1.4-1,1.59a6.974,6.974,0,0,0-1.168.44v0c-.072.075-.136.2-.117.254.03.087.254-.016.478.064.333.12.3.514.578.6.193.057.279-.114.663-.249.348-.122.932-.212,1.083.016.164.247-.339.629-.206.975.19.495,1.391.165,1.652.717.158.333-.23.538-.135,1.2.047.33.319.652.185.957-.069.158-.229.25-.345.376-.765.84,1.93,1.292,2.513.984a4.871,4.871,0,0,1,.91-.5c.722-.2,1.464.346,2.217.255.3-.036.578-.171.876-.225a5.572,5.572,0,0,1,2.408.541c.811.226,1.958.02,2.135-.8.094-.439-.144-.9,0-1.329.335-.975,2.152-.756,2.549-1.73.119-.294.07-.64.253-.906.277-.4.873-.379,1.366-.426a1.946,1.946,0,0,0,1.66-1.056,1.864,1.864,0,0,0,.084-1.006c-.4-2.527.511-3.766-.362-4.412a1.934,1.934,0,0,0-1.461-.208c-1.036.211-1.013,1.231-2.226,1.55a5.219,5.219,0,0,1-2.832.192,7.623,7.623,0,0,0-1.15-.4c-1.2-.178-2.563,1.165-2.445,1.841.073.421.664.37.918.992a1.494,1.494,0,0,1-.113,1.322" transform="translate(-127.997 -80.32)" fill="#646794"/>
            <path id="Trazado_1010415" data-name="Trazado 1010415" d="M109.044,149.085a2.475,2.475,0,0,0-.39,1.223c-.027.535.09.616-.022.947-.156.461-.46.378-.622.788-.231.588.244,1.155-.049,1.458a.643.643,0,0,1-.39.155.89.89,0,0,1-.451-.109,1.783,1.783,0,0,0-.858-.269c-.438.05-.688.581-.638,1.058.041.387.478.7.424,1.1-.132.962-1.771.38-2.308.257a1.778,1.778,0,0,0-.823-.081c-.337.088-.557.4-.8.655a.789.789,0,0,1-.927.263c-.323-.187-.405-.642-.514-1.02s-.417-.814-.743-.7c-.216.075-.3.356-.333.6a6.621,6.621,0,0,0-.016,1.829.8.8,0,0,1,0,.306c-.085.311-.494.271-.787.154s-.672-.23-.83.033a.957.957,0,0,0-.043.547,1.641,1.641,0,0,1-.249,1.1.778.778,0,0,1-.943.267,1.307,1.307,0,0,0-.44-.192c-.247-.009-.384.286-.4.558a3.921,3.921,0,0,1-.024.814.619.619,0,0,1-.4.431l-.848-9.631a8.656,8.656,0,0,0,1.028-.33,1.033,1.033,0,0,1,.575-.111c.364.073.685.527,1.035.433.184-.05.3-.24.463-.346a1.018,1.018,0,0,1,.995.084,10.907,10.907,0,0,0,2.117,1.2c.421.1.922.1,1.2.482.082.116.133.256.222.365.359.437,1.007.069,1.23-.429s.285-1.134.684-1.485c.431-.379,1.187-.358,1.4-.931.174-.474-.154-1.119.14-1.517.25-.338.74-.23,1.148-.246a4.636,4.636,0,0,0,1.5-.5c.237-.1.872-.365,1.131-.209.458.275-.267.735-.44,1" transform="translate(-68.66 -107.421)" fill="#646794"/>
            <path id="Trazado_1010416" data-name="Trazado 1010416" d="M156.637,156.705l.109.139a1.6,1.6,0,0,1,.485,1.079.334.334,0,0,1-.069.181c-.113.135-.348.139-.547.161s-.43.126-.4.291a.369.369,0,0,0,.086.148,5.735,5.735,0,0,1,.35.491c.1.154.174.435.321.556.314.259.867.036,1.19-.069a2.284,2.284,0,0,1,1.451-.047c.3.11.553.313.866.408s.754.012.8-.253c.02-.11-.035-.228.005-.334a.408.408,0,0,1,.376-.2,1.493,1.493,0,0,1,.475.089l.6.182a1.1,1.1,0,0,0,.379.067.679.679,0,0,0,.573-.527,1.262,1.262,0,0,1,.331-.7c.342-.274.99-.2,1.292-.509.278-.282.091-.7-.144-1.011s-.524-.652-.418-1a1.69,1.69,0,0,0,.1-.289.216.216,0,0,0-.171-.238.452.452,0,0,0-.165.012,1.377,1.377,0,0,1-.611.021,1.766,1.766,0,0,1-.533-.322.7.7,0,0,0-.608-.136.447.447,0,0,0-.268.408,2.061,2.061,0,0,1-.029.484.405.405,0,0,1-.417.28.723.723,0,0,1-.278-.125.97.97,0,0,0-.471-.161.4.4,0,0,0-.4.212c-.035.112.027.24-.04.342-.083.128-.318.126-.47.05a3.241,3.241,0,0,1-.389-.3.487.487,0,0,0-.483-.075c-.178.1-.151.346-.327.446a.466.466,0,0,1-.395-.01c-.123-.053-.227-.133-.347-.19a1.986,1.986,0,0,0-.907-.116q-.385.014-.768.038c-.164.01-.375.065-.365.2a.261.261,0,0,0,.068.131l.157.2" transform="translate(-113.352 -112.371)" fill="#646794"/>
            <path id="Trazado_1010417" data-name="Trazado 1010417" d="M305.8,127.94l-5.819-3a3.374,3.374,0,0,0,.226-.787,3.894,3.894,0,0,0-.647-2.789,4.027,4.027,0,0,0-2.353-1.683,3.6,3.6,0,0,0-.661-.1l-.228-6.362a9.657,9.657,0,0,1,1.823.234,10.98,10.98,0,0,1,8.324,12.358,9.055,9.055,0,0,1-.665,2.136" transform="translate(-215.012 -82.148)" fill="#646794"/>
            <g id="Grupo_1183653" data-name="Grupo 1183653" transform="translate(72.7 31.408)" opacity="0.4">
              <g id="Grupo_1183652" data-name="Grupo 1183652">
                <g id="Grupo_1183651" data-name="Grupo 1183651" clip-path="url(#clip-path-19)">
                  <path id="Trazado_1010418" data-name="Trazado 1010418" d="M271.442,121.308a3.116,3.116,0,0,1,1.943-.514l-.233-6.323a8.281,8.281,0,0,0-8.2,5.519l5.342,2.767a3.028,3.028,0,0,1,1.147-1.45" transform="translate(-264.952 -114.466)" fill="#517aef"/>
                </g>
              </g>
            </g>
            <path id="Trazado_1010419" data-name="Trazado 1010419" d="M298.567,158.46a3,3,0,0,1-1.2,1.395,3.183,3.183,0,0,1-2.273.394l-.317,5.839a8.376,8.376,0,0,0,9.568-4.628Z" transform="translate(-213.894 -114.981)" fill="#517aef"/>
            <path id="Trazado_1010420" data-name="Trazado 1010420" d="M270.992,143.773a4.029,4.029,0,0,1-2.247-1.661,3.887,3.887,0,0,1-.649-2.679,3.37,3.37,0,0,1,.188-.743l-5.33-2.769a9.171,9.171,0,0,0-.469,2.01,11.068,11.068,0,0,0,7.663,11.531q.427.13.853.22l.312-5.832q-.16-.03-.321-.075" transform="translate(-190.414 -98.625)" fill="#90abf3"/>
            <path id="Trazado_1010421" data-name="Trazado 1010421" d="M369.19,103.909l-5.59,1.407-5.59,1.407L359.46,109l1.039,2.488,4.345-3.787Z" transform="translate(-259.777 -75.398)" fill="#fdfcf6"/>
            <path id="Trazado_1010422" data-name="Trazado 1010422" d="M360.3,111.357l-.017,0a.076.076,0,0,1-.053-.045l-1.036-2.482-1.446-2.267a.076.076,0,0,1,.046-.115l11.179-2.814a.076.076,0,0,1,.069.131l-8.691,7.574a.077.077,0,0,1-.05.019m-2.367-4.788,1.393,2.184a.058.058,0,0,1,.006.012l1,2.39,8.372-7.3Z" transform="translate(-259.575 -75.196)" fill="#0c232b"/>
            <path id="Trazado_1010423" data-name="Trazado 1010423" d="M373.131,103.909l-6.661,7.65-1.166-.829-1.863-1.638Z" transform="translate(-263.718 -75.398)" fill="#fdfcf6"/>
            <path id="Trazado_1010424" data-name="Trazado 1010424" d="M366.269,111.433a.077.077,0,0,1-.044-.014l-1.166-.829-.006,0-1.863-1.638a.076.076,0,0,1,.015-.124l9.689-5.183a.076.076,0,0,1,.093.117l-6.661,7.65a.076.076,0,0,1-.057.026m-1.118-.965,1.106.787,6.343-7.285-9.227,4.936Z" transform="translate(-263.517 -75.196)" fill="#0c232b"/>
            <g id="Grupo_1183656" data-name="Grupo 1183656" transform="translate(99.724 33.694)" opacity="0.5">
              <g id="Grupo_1183655" data-name="Grupo 1183655">
                <g id="Grupo_1183654" data-name="Grupo 1183654" clip-path="url(#clip-path-20)">
                  <path id="Trazado_1010425" data-name="Trazado 1010425" d="M366.47,125.265l-1.166-.829-.865.753-.813-1.947-.185-.444Z" transform="translate(-363.441 -122.798)" fill="#517aef"/>
                </g>
              </g>
            </g>
            <g id="Grupo_1183659" data-name="Grupo 1183659" transform="translate(99.683 28.511)" opacity="0.3">
              <g id="Grupo_1183658" data-name="Grupo 1183658">
                <g id="Grupo_1183657" data-name="Grupo 1183657" clip-path="url(#clip-path-21)">
                  <path id="Trazado_1010426" data-name="Trazado 1010426" d="M373.023,103.909,363.294,109l.04.1,9.689-5.183" transform="translate(-363.294 -103.909)" fill="#174959"/>
                </g>
              </g>
            </g>
            <path id="Trazado_1010427" data-name="Trazado 1010427" d="M276.571,154.638c.393-.736.2-.765.63-1.5.179-.307.393-.612.278-.857a.582.582,0,0,0-.4-.268.785.785,0,0,0-.113-.295.544.544,0,0,0-.306-.274c-.08-.018-.156,0-.2-.058-.023-.027-.018-.054-.024-.086-.029-.141-.149-.494-.372-.579a.609.609,0,0,0-.594.207,8.952,8.952,0,0,0,.613-1.09,4.134,4.134,0,0,0,.277-.7c.068-.248.237-.863-.01-1.036a.239.239,0,0,0-.147-.043c-.227.015-.348.407-.507.776a10.208,10.208,0,0,1-.752,1.267,10.659,10.659,0,0,1-.7.964,1.35,1.35,0,0,0-.818.294,1.412,1.412,0,0,0-.431.792c-.276,1.121-.474,2.3-.541,2.713a5.945,5.945,0,0,0-.915,1.673,1.033,1.033,0,0,0-.069.442,1.351,1.351,0,0,0,.1.418,1.808,1.808,0,0,0,1.286,1.124c.817-1.692,1.461-2.191,1.918-2.3a2.09,2.09,0,0,0,.843-.365,2.984,2.984,0,0,0,.96-1.219" transform="translate(-196.975 -107.436)" fill="#fdfcf6"/>
            <path id="Trazado_1010428" data-name="Trazado 1010428" d="M272.7,158.4h-.048a1.856,1.856,0,0,1-1.356-1.171,1.436,1.436,0,0,1-.1-.44,1.024,1.024,0,0,1,.065-.449l0-.011a5.642,5.642,0,0,1,.919-1.689c.094-.574.286-1.674.539-2.7a1.5,1.5,0,0,1,.456-.832,1.4,1.4,0,0,1,.829-.31,10.608,10.608,0,0,0,.672-.931,10.179,10.179,0,0,0,.746-1.256c.025-.058.049-.116.072-.173.134-.326.26-.633.5-.649a.316.316,0,0,1,.2.056c.291.2.115.845.04,1.119a4.215,4.215,0,0,1-.282.713,8.992,8.992,0,0,1-.427.8.5.5,0,0,1,.367-.017c.247.094.382.456.419.635,0,.012,0,.023,0,.034a.1.1,0,0,0,0,.018c.011.013.033.017.08.022a.7.7,0,0,1,.08.012.609.609,0,0,1,.354.307.849.849,0,0,1,.115.275.6.6,0,0,1,.408.3c.119.255-.054.545-.221.827l-.06.1a2.821,2.821,0,0,0-.326.752,3.27,3.27,0,0,1-.3.741,3.055,3.055,0,0,1-.962,1.229l-.02.015a2.113,2.113,0,0,1-.833.37l-.038.009c-.583.143-1.212.9-1.868,2.262Zm-1.357-1.619a1.3,1.3,0,0,0,.093.388,1.746,1.746,0,0,0,1.173,1.068c.677-1.387,1.312-2.136,1.943-2.291l.04-.01a1.947,1.947,0,0,0,.775-.343l.02-.015a2.927,2.927,0,0,0,.919-1.18l.067.036-.067-.036a3.132,3.132,0,0,0,.29-.711,2.947,2.947,0,0,1,.341-.786l.06-.1c.154-.259.3-.5.215-.684a.493.493,0,0,0-.354-.227l-.049-.012-.008-.049a.7.7,0,0,0-.1-.266c-.058-.09-.137-.213-.259-.241a.542.542,0,0,0-.063-.009.246.246,0,0,1-.181-.075.17.17,0,0,1-.037-.1c0-.006,0-.012,0-.019-.035-.168-.153-.458-.324-.523a.543.543,0,0,0-.514.191l-.505.494.389-.591a8.837,8.837,0,0,0,.607-1.081,4.065,4.065,0,0,0,.273-.688c.055-.2.222-.811.019-.954a.166.166,0,0,0-.1-.029c-.144.01-.258.287-.368.555-.024.058-.048.117-.074.176a10.286,10.286,0,0,1-.758,1.277,10.8,10.8,0,0,1-.7.972l-.022.027h-.034a1.263,1.263,0,0,0-.772.275,1.34,1.34,0,0,0-.406.752c-.254,1.034-.447,2.14-.539,2.707l0,.015-.009.013a6.069,6.069,0,0,0-.9,1.63.14.14,0,0,1-.012.052.879.879,0,0,0-.057.383Z" transform="translate(-196.773 -107.235)" fill="#0c232b"/>
            <g id="Grupo_1183662" data-name="Grupo 1183662" transform="translate(76.329 43.792)" opacity="0.2">
              <g id="Grupo_1183661" data-name="Grupo 1183661">
                <g id="Grupo_1183660" data-name="Grupo 1183660" clip-path="url(#clip-path-22)">
                  <path id="Trazado_1010429" data-name="Trazado 1010429" d="M280.063,160.611c-.07-.087-.143-.169-.219-.247-.054-.057-.115-.115-.181-.171l.426-.593a3.817,3.817,0,0,0-.942.288h0a1.586,1.586,0,0,0-.2.118,1.282,1.282,0,0,0-.267.248,3.614,3.614,0,0,0-.341.724c-.037.1-.085.219-.119.329-.008.026-.015.051-.021.075,0,0-.01.038-.016.073-.037.189.21.441.21.441.389.4.327,1.63.9,1.894.49.225,1.178-.408,1.819-.939.15-.124.271-.236.358-.32a2.336,2.336,0,0,1-1.056.526.308.308,0,0,1-.258-.085.263.263,0,0,1-.02-.218,1.1,1.1,0,0,1-.316.136.341.341,0,0,1-.158.015.281.281,0,0,1-.192-.417.238.238,0,0,1-.378-.134.484.484,0,0,1,.175-.356c.044-.05.087-.1.129-.153.094.084.186.17.285.244a2.014,2.014,0,0,0,.512.284c.143.053.33.084.431-.062a.591.591,0,0,0,.061-.4,1.515,1.515,0,0,0-.058-.282,3.1,3.1,0,0,0-.541-.989c.03-.077.057-.156.082-.235l-.108.2m-1.073.521.585-.814.077.069a3.132,3.132,0,0,1,.33.363,4.881,4.881,0,0,1-.648.84,1.752,1.752,0,0,0-.215-.151,1.12,1.12,0,0,0-.252-.108,1.261,1.261,0,0,1,.124-.2m0,.627a.26.26,0,0,1-.168-.282c.023.007.046.014.069.023a1.262,1.262,0,0,1,.327.194.274.274,0,0,1-.228.065m1.438-.232a1.314,1.314,0,0,1,.114.544.278.278,0,0,1-.045.161c-.045.054-.124.039-.183.023a1.545,1.545,0,0,1-.476-.238,4.043,4.043,0,0,1-.347-.289,4.345,4.345,0,0,0,.531-.919,3.245,3.245,0,0,1,.406.719" transform="translate(-278.18 -159.6)" fill="#517aef"/>
                </g>
              </g>
            </g>
            <path id="Trazado_1010430" data-name="Trazado 1010430" d="M277.974,162.2c.129.14.3-.038.684.059.55.14.717.641,1.4.9a.359.359,0,0,0,.314.015c.133-.092.1-.356.083-.456-.094-.677-1.1-2.145-1.878-1.9" transform="translate(-201.701 -116.673)" fill="#fdfcf6"/>
            <path id="Trazado_1010431" data-name="Trazado 1010431" d="M280.056,163.084a.647.647,0,0,1-.227-.052,2.382,2.382,0,0,1-.771-.511,1.442,1.442,0,0,0-.62-.39.956.956,0,0,0-.4-.012.318.318,0,0,1-.317-.069.076.076,0,1,1,.112-.1c.034.037.068.037.184.021a1.11,1.11,0,0,1,.463.016,1.582,1.582,0,0,1,.684.424,2.221,2.221,0,0,0,.724.482c.049.019.178.069.244.023s.08-.172.05-.382a3.039,3.039,0,0,0-1.166-1.707.734.734,0,0,0-.613-.133.076.076,0,0,1-.046-.145.878.878,0,0,1,.741.15,3.229,3.229,0,0,1,1.236,1.815c.016.112.057.41-.115.529a.273.273,0,0,1-.158.046" transform="translate(-201.5 -116.471)" fill="#0c232b"/>
            <path id="Trazado_1010432" data-name="Trazado 1010432" d="M286.749,164.05a11.553,11.553,0,0,1-.784,1.159c-.22.286-.439.544-.652.775" transform="translate(-207.027 -119.037)" fill="#fdfcf6"/>
            <path id="Trazado_1010433" data-name="Trazado 1010433" d="M285.113,165.859a.075.075,0,0,1-.052-.02.076.076,0,0,1,0-.108c.226-.246.444-.505.648-.77a11.539,11.539,0,0,0,.778-1.151.076.076,0,1,1,.131.077,11.635,11.635,0,0,1-.789,1.167c-.206.269-.427.531-.656.78a.075.075,0,0,1-.056.025" transform="translate(-206.826 -118.835)" fill="#0c232b"/>
            <path id="Trazado_1010434" data-name="Trazado 1010434" d="M286.786,162.329l-.707.831" transform="translate(-207.583 -117.788)" fill="#fdfcf6"/>
            <path id="Trazado_1010435" data-name="Trazado 1010435" d="M285.878,163.035a.076.076,0,0,1-.058-.125l.707-.831a.076.076,0,1,1,.116.1l-.707.831a.074.074,0,0,1-.058.027" transform="translate(-207.381 -117.587)" fill="#0c232b"/>
            <line id="Línea_3327" data-name="Línea 3327" x1="0.322" y2="0.412" transform="translate(77.621 46.269)" fill="#fdfcf6"/>
            <path id="Trazado_1010436" data-name="Trazado 1010436" d="M282.688,168.912a.076.076,0,0,1-.06-.123l.322-.412a.076.076,0,0,1,.12.094l-.322.412a.076.076,0,0,1-.06.029" transform="translate(-205.067 -122.155)" fill="#0c232b"/>
            <path id="Trazado_1010437" data-name="Trazado 1010437" d="M284.894,162.137l.438-.537" transform="translate(-206.723 -117.259)" fill="#fdfcf6"/>
            <path id="Trazado_1010438" data-name="Trazado 1010438" d="M284.693,162.011a.075.075,0,0,1-.048-.017.076.076,0,0,1-.011-.107l.438-.537a.076.076,0,1,1,.118.1l-.438.537a.076.076,0,0,1-.059.028" transform="translate(-206.521 -117.057)" fill="#0c232b"/>
            <path id="Trazado_1010439" data-name="Trazado 1010439" d="M284.011,159.6l-.426.594" transform="translate(-205.773 -115.807)" fill="#fdfcf6"/>
            <path id="Trazado_1010440" data-name="Trazado 1010440" d="M283.383,160.068a.076.076,0,0,1-.062-.12l.426-.593a.076.076,0,1,1,.124.089l-.426.593a.076.076,0,0,1-.062.032" transform="translate(-205.571 -115.606)" fill="#0c232b"/>
            <path id="Trazado_1010441" data-name="Trazado 1010441" d="M155.588,446.979h.261a1.837,1.837,0,0,0,1.832-1.832v-2.2a1.837,1.837,0,0,0-1.832-1.832h-.261a1.837,1.837,0,0,0-1.832,1.832v2.2a1.837,1.837,0,0,0,1.832,1.832" transform="translate(-111.567 -320.082)" fill="#fdfcf6"/>
            <path id="Trazado_1010442" data-name="Trazado 1010442" d="M156.871,446.854h-2.707a.686.686,0,0,1-.685-.685v-4.641a.686.686,0,0,1,.685-.685h2.707a.686.686,0,0,1,.685.685v4.641a.686.686,0,0,1-.685.685m-2.707-5.859a.533.533,0,0,0-.533.533v4.641a.533.533,0,0,0,.533.533h2.707a.533.533,0,0,0,.533-.533v-4.641a.533.533,0,0,0-.533-.533Z" transform="translate(-111.366 -319.88)" fill="#0c232b"/>
            <path id="Trazado_1010443" data-name="Trazado 1010443" d="M147,454.327h-8.174a.809.809,0,0,1-.58-.426.733.733,0,0,1,0-.478,1.468,1.468,0,0,1,.505-.74c.694-.578,1.064-.614,1.849-1.181.93-.672,1.077-1.1,1.092-1.2a.836.836,0,0,1,.127-.326.72.72,0,0,1,.076-.088,1.857,1.857,0,0,1,1.511-.046,3.745,3.745,0,0,1,.866.37c1.075,1.058,1.552,1.222,1.769,1.093.314-.187.185-1.048.437-1.092a.257.257,0,0,1,.232.147,10.489,10.489,0,0,1,.6,3.063c.009.089.016.172.021.238l.019.249a.356.356,0,0,1-.348.417" transform="translate(-100.285 -326.323)" fill="#0c232b"/>
            <path id="Trazado_1010444" data-name="Trazado 1010444" d="M150.349,282.32l-.041,1.4-.032,1.4c-.02.933-.046,1.865-.063,2.8l-.09,5.6q-.072,5.6-.1,11.193c-.009,1.866-.024,3.731-.026,5.6l-.01,2.8,0,2.8v4.9l0,.7.016,2.8.008,1.4.015,1.4-10.794-.3c.45-3.707.783-7.418,1.078-11.131l.214-2.785.186-2.786c.131-1.857.227-3.715.33-5.573.207-3.716.345-7.434.435-11.153l.048-2.789c.008-.465.007-.93.011-1.395l.007-1.395,0-.349,0-.349,0-.7c0-.465,0-.93-.01-1.395l-.024-1.4-.019-.7q-.009-.349-.022-.7Z" transform="translate(-101.031 -204.778)" fill="#8ea0c7"/>
            <path id="Trazado_1010445" data-name="Trazado 1010445" d="M200.009,446.979h-.261a1.837,1.837,0,0,1-1.832-1.832v-2.2a1.837,1.837,0,0,1,1.832-1.832h.261a1.837,1.837,0,0,1,1.832,1.832v2.2a1.837,1.837,0,0,1-1.832,1.832" transform="translate(-143.61 -320.082)" fill="#fdfcf6"/>
            <path id="Trazado_1010446" data-name="Trazado 1010446" d="M201.031,446.854h-2.707a.686.686,0,0,1-.685-.685v-4.641a.686.686,0,0,1,.685-.685h2.707a.686.686,0,0,1,.685.685v4.641a.686.686,0,0,1-.685.685m-2.707-5.859a.533.533,0,0,0-.533.533v4.641a.533.533,0,0,0,.533.533h2.707a.533.533,0,0,0,.533-.533v-4.641a.533.533,0,0,0-.533-.533Z" transform="translate(-143.409 -319.88)" fill="#0c232b"/>
            <path id="Trazado_1010447" data-name="Trazado 1010447" d="M194.778,454.327h10.567a.81.81,0,0,0,.579-.426.735.735,0,0,0,0-.478,1.466,1.466,0,0,0-.505-.74c-.693-.578-5.319-2.283-5.333-2.38a.841.841,0,0,0-.127-.326.737.737,0,0,0-.077-.088,1.856,1.856,0,0,0-1.511-.046,3.744,3.744,0,0,0-.866.37c-1.075,1.058-1.552,1.222-1.769,1.093-.314-.187-.185-1.048-.437-1.092a.257.257,0,0,0-.232.147,10.5,10.5,0,0,0-.6,3.063c-.009.089-.016.172-.021.238l-.019.249a.356.356,0,0,0,.348.417" transform="translate(-141.077 -326.323)" fill="#0c232b"/>
            <path id="Trazado_1010448" data-name="Trazado 1010448" d="M193.064,282.224l-.008,1.393,0,1.393,0,1.393c0,.464,0,.929.008,1.393l.076,5.57q.1,5.57.3,11.137c.066,1.856.131,3.712.211,5.567l.118,2.783.136,2.782.14,2.782.071,1.391.036.7.041.7.167,2.781.086,1.391.095,1.39-10.794.321c.237-3.738.372-7.471.485-11.2l.08-2.8.059-2.8c.048-1.865.064-3.73.093-5.594.057-3.729.059-7.457.031-11.184l-.037-2.8-.062-2.795-.008-.349-.012-.349-.023-.7c-.016-.466-.028-.932-.047-1.4l-.059-1.4-.035-.7q-.017-.349-.039-.7Z" transform="translate(-133.335 -204.785)" fill="#8ea0c7"/>
            <path id="Trazado_1010449" data-name="Trazado 1010449" d="M149.893,120.875a5.8,5.8,0,0,1-.933,1.792,6.812,6.812,0,0,1-1.212,1.227c-1.933,1.535-3.727,1.083-6.117,1.589a9.069,9.069,0,0,0-3.248,1.348c-1.818,1.22-2.737,2.789-4.077,3.439a3,3,0,0,1-1.493.3,4.015,4.015,0,0,1-1.039-.2c-3.718-1.2-7.055-7.5-5.476-10.212.824-1.417,2.31-.7,4.812-2.04,3.287-1.763,4.074-4.8,5.234-7.45a7.609,7.609,0,0,1,3.619-4.255c2.944-1.416,6.99-.707,8.183,1.192.526.838.159,1.368.064,2.982-.016.278-.024.588-.019.937h0a12.242,12.242,0,0,0,.217,2.133q.04.209.087.409c.02.091.042.18.064.268.7,2.746,2.081,4.136,1.334,6.539" transform="translate(-91.351 -76.674)" fill="#0c232b"/>
            <path id="Trazado_1010450" data-name="Trazado 1010450" d="M143.88,262.784a18.316,18.316,0,0,0,1.133,5.375c.029.069.059.137.09.206l.053.117c.01.023.021.047.033.07a11.836,11.836,0,0,0,.914,1.614q.109.16.225.319l.053.072c.023.032.048.064.072.1a9.077,9.077,0,0,0,2.5,2.292c.062.038.125.075.188.111a7.239,7.239,0,0,0,1.485.637c.069.021.137.04.207.059a6.735,6.735,0,0,0,1.6.226l.158,0,.193,0,3.65.071c4.688.091,8.61-4.713,8.978-10.852a.618.618,0,0,0-.189-.485l0,0a.606.606,0,0,0-.4-.167l-8.64-.168-.136,0-3.425-.067L143.88,261v.006c-.035.734-.021,1.343,0,1.777" transform="translate(-104.386 -189.386)" fill="#8ea0c7"/>
            <path id="Trazado_1010451" data-name="Trazado 1010451" d="M200.635,173.639l7.658,11.472-5.715-.317,11.61-11.462.032-.031a2.239,2.239,0,0,1,3.387,2.906L208.056,189.4a3.4,3.4,0,0,1-5.568-.094l-.147-.222-7.658-11.472a3.579,3.579,0,0,1,5.953-3.974" transform="translate(-140.827 -124.839)" fill="#517aef"/>
            <path id="Trazado_1010452" data-name="Trazado 1010452" d="M143.935,189.043v.005a5.34,5.34,0,0,0,.137,1.167,5.434,5.434,0,0,0,3.636,3.959c.407.125.832.244,1.277.353l.123.03.125.03c.081.019.163.039.246.057.1.024.2.045.308.068l.213.044.263.052.246.046.03.006.2.035.064.011.265.044h0l.077.012.2.029.223.032.1.013.242.03a24.217,24.217,0,0,0,11.216-1.3,3.275,3.275,0,0,0,2.154-3.008v0c0-.036,0-.073,0-.109q-.095-7.744-.187-15.488-.031-2.589-.062-5.179c0-.062,0-.124,0-.186-.008-4.28-3.13-7.779-7.05-7.854l-4.726-.091-.964-.018a6.8,6.8,0,0,0-4.635,1.735l-.081.072a8.193,8.193,0,0,0-2.625,5.669c0,.016,0,.03,0,.046s0,.037,0,.055q0,.093-.006.187-.086,1.655-.173,3.309c0,.051,0,.1-.008.148-.007.138-.013.262-.02.377,0,.043,0,.085-.007.128,0,.083-.008.161-.012.235,0,.056-.005.109-.009.162,0,.035,0,.069-.005.1s0,.068,0,.1c0,.049-.005.1-.008.145s-.005.1-.008.152c0,.032,0,.065-.005.1s0,.058,0,.083c0,.008,0,.015,0,.022s0,.011,0,.017l0,.029s0,.009,0,.013,0,.031,0,.04,0,.011,0,.011,0,.008,0,.015q-.364,6.969-.728,13.937c-.005.108-.008.216-.007.322" transform="translate(-104.441 -117.428)" fill="#517aef"/>
            <g id="Grupo_1183665" data-name="Grupo 1183665" transform="translate(39.494 46.119)" opacity="0.1">
              <g id="Grupo_1183664" data-name="Grupo 1183664">
                <g id="Grupo_1183663" data-name="Grupo 1183663" clip-path="url(#clip-path-23)">
                  <path id="Trazado_1010453" data-name="Trazado 1010453" d="M143.935,193.577v.005a5.34,5.34,0,0,0,.137,1.167,5.434,5.434,0,0,0,3.636,3.959c.407.125.832.244,1.277.353l.123.03.125.03c.081.019.163.039.246.057.1.024.2.045.308.067l.213.044.263.052.246.046.03.006.2.035.064.011.265.044h0l.077.012c.08-.888,1.95-2.588,4.949-4.538l0,0c1.122-.73,2.4-1.494,3.8-2.264-8.065-5.258-8.645-9.917-8.7-11.387a22.085,22.085,0,0,1,1.149-8.253l-4.7-4.948-.02-.021-.061.094c-1.987,3.041-2.56,4.7-2.625,5.669,0,.016,0,.03,0,.046s0,.037,0,.055,0,.07-.006.187q-.086,1.655-.173,3.309c0,.051,0,.1-.008.148-.007.138-.013.262-.02.377,0,.044,0,.087-.007.128,0,.083-.008.161-.012.235,0,.056-.005.109-.009.162,0,.035,0,.069-.005.1s0,.068,0,.1c0,.049-.005.1-.008.145s-.005.1-.008.152c0,.032,0,.065-.005.1s0,.058,0,.083c0,.008,0,.015,0,.022s0,.011,0,.017l0,.029s0,.009,0,.013,0,.031,0,.04,0,.011,0,.011,0,.008,0,.015q-.364,6.969-.728,13.937c-.005.108-.008.216-.007.322" transform="translate(-143.935 -168.081)" fill="#0c232b"/>
                </g>
              </g>
            </g>
            <path id="Trazado_1010454" data-name="Trazado 1010454" d="M150.16,171.733c-.113.226-.228.451-.333.679s-.211.455-.305.686c-.187.463-.367.927-.51,1.4a14.907,14.907,0,0,0-.587,2.885,12.931,12.931,0,0,0,.691,5.709,10.994,10.994,0,0,0,.573,1.323c.056.106.107.216.161.325s.11.216.168.322c.115.213.238.421.366.629a12.9,12.9,0,0,0,1.854,2.332,14.892,14.892,0,0,0,1.158,1.046q.154.125.313.247t.319.245q.324.24.665.465c.114.075.229.148.345.221s.232.148.35.22q.354.216.721.413c.243.137.49.266.739.389.125.06.249.125.373.183l.373.175.213.1a2.248,2.248,0,0,1-1.089,4.281c-.188-.012-.379-.03-.565-.051s-.373-.043-.556-.072q-.55-.085-1.092-.2t-1.073-.273c-.178-.051-.356-.1-.532-.159s-.352-.118-.527-.179q-.525-.189-1.043-.407-.259-.109-.516-.227t-.508-.249a18.49,18.49,0,0,1-1.973-1.157,18.108,18.108,0,0,1-1.829-1.438c-.291-.261-.577-.53-.848-.815s-.534-.578-.788-.881-.5-.614-.73-.934-.46-.644-.665-.982a18.261,18.261,0,0,1-1.092-2.106,18.559,18.559,0,0,1-.8-2.231,19.158,19.158,0,0,1-.5-2.312q-.089-.584-.142-1.172c-.035-.392-.06-.784-.067-1.177a19.866,19.866,0,0,1,.092-2.347,18.967,18.967,0,0,1,3.117-8.673,3.579,3.579,0,0,1,6.166,3.607Z" transform="translate(-102.212 -120.734)" fill="#517aef"/>
            <path id="Trazado_1010455" data-name="Trazado 1010455" d="M243.5,239.059l-.613-.261.212-.5a1.188,1.188,0,0,0-2.187-.932l-.212.5-.613-.261a1.863,1.863,0,0,0-2.444.983l-.151.354,6.84,2.916.151-.354a1.863,1.863,0,0,0-.983-2.444" transform="translate(-172.324 -171.712)" fill="#646794"/>
            <path id="Trazado_1010456" data-name="Trazado 1010456" d="M221.468,244.568,211.232,240.2a1.1,1.1,0,0,0-1.45.583l-6.363,14.924a1.1,1.1,0,0,0,.583,1.45l10.235,4.364a1.1,1.1,0,0,0,1.45-.583l6.363-14.924a1.105,1.105,0,0,0-.583-1.45" transform="translate(-147.54 -174.231)" fill="#0c232b"/>
            <path id="Trazado_1010457" data-name="Trazado 1010457" d="M194.7,259.39a1.759,1.759,0,0,0,.065,2.11,4.4,4.4,0,0,0,1.454.95c.744.393,1.417.912,2.166,1.3,1.259.646,2.713.907,3.868,1.723.1.071.228.15.338.094.142-.072.108-.287.022-.42a3.2,3.2,0,0,0-.572-.569,1.512,1.512,0,0,1-.264-.3.873.873,0,0,1-.086-.18c-.055-.164.208-.155.3-.162a2.2,2.2,0,0,1,.518.03c.347.056.683.164,1.032.209.072.009.145.016.218.018h.03c.139,0,.286.005.353-.072a.181.181,0,0,0,.039-.117c-.009-.22-.581-.377-.808-.439-.436-.12-.667-.116-1.2-.287-.17-.054-.367-.125-.36-.185,0-.016.02-.044.139-.069a6.879,6.879,0,0,1,2.572.051.285.285,0,0,0,.141-.02.3.3,0,0,0,.138-.107.3.3,0,0,0,.009-.307.362.362,0,0,0-.23-.153,5.737,5.737,0,0,0-.862-.184c-.723-.08-.928-.152-1.2-.154a2.147,2.147,0,0,1-.307-.031c-.039-.006-.192,0-.207-.057a.048.048,0,0,1,0-.032,15.32,15.32,0,0,1,2.217-.7.451.451,0,0,0,.3-.212.264.264,0,0,0,0-.215c-.013-.023-.067-.114-.272-.13-.85-.067-1.687.273-2.539.244a.57.57,0,0,1-.418-.143.5.5,0,0,1-.1-.316,3.416,3.416,0,0,1,.665-1.628.787.787,0,0,0,.124-.459.36.36,0,0,0-.33-.306c-.151,0-.338.153-.451.24-.3.231-.548.527-.846.765a2.724,2.724,0,0,1-1.649.542,2.48,2.48,0,0,1-1.163-.383c-.417-.275-.492-.5-.909-.666a1.373,1.373,0,0,0-.787-.037,1.923,1.923,0,0,0-1.147.767" transform="translate(-141.045 -187.326)" fill="#fdfcf6"/>
            <path id="Trazado_1010458" data-name="Trazado 1010458" d="M202.306,265.456a.562.562,0,0,1-.3-.127,9.46,9.46,0,0,0-2.248-1.051,14.17,14.17,0,0,1-1.612-.665c-.389-.2-.763-.439-1.124-.67-.337-.215-.685-.438-1.043-.626-.094-.049-.189-.1-.284-.145a3.482,3.482,0,0,1-1.194-.825,1.835,1.835,0,0,1-.069-2.2,2,2,0,0,1,1.194-.8,1.45,1.45,0,0,1,.831.041,1.543,1.543,0,0,1,.542.365,2.71,2.71,0,0,0,.381.309,2.424,2.424,0,0,0,1.125.37,2.658,2.658,0,0,0,1.6-.525c.138-.11.268-.237.394-.359a5.075,5.075,0,0,1,.453-.407l.032-.024a.855.855,0,0,1,.468-.231.437.437,0,0,1,.4.372.848.848,0,0,1-.132.505c-.063.118-.133.237-.2.351a2.363,2.363,0,0,0-.455,1.238.417.417,0,0,0,.083.268.509.509,0,0,0,.364.117,5.881,5.881,0,0,0,1.194-.124,5.418,5.418,0,0,1,1.348-.119.382.382,0,0,1,.332.168.34.34,0,0,1,.006.283.526.526,0,0,1-.35.254l-.3.081c-.437.119-1.53.415-1.818.551l.048,0,.041,0a2.047,2.047,0,0,0,.3.03,2.9,2.9,0,0,1,.46.052c.169.027.4.064.749.1a5.783,5.783,0,0,1,.874.186.435.435,0,0,1,.275.189.375.375,0,0,1-.012.387.366.366,0,0,1-.173.135.359.359,0,0,1-.177.026,6.833,6.833,0,0,0-2.548-.052l-.034.008a1.916,1.916,0,0,0,.264.1,5.667,5.667,0,0,0,.716.178c.147.028.3.058.484.109.422.116.854.267.864.509a.254.254,0,0,1-.057.17c-.09.105-.261.1-.412.1h-.03c-.073,0-.146-.009-.226-.019-.2-.025-.388-.07-.575-.113-.15-.035-.306-.071-.46-.1a2.166,2.166,0,0,0-.5-.03l-.039,0c-.161.007-.195.028-.2.039a.041.041,0,0,0,0,.02.8.8,0,0,0,.079.164,1.452,1.452,0,0,0,.251.286c.05.046.1.092.156.136a2.132,2.132,0,0,1,.429.447.5.5,0,0,1,.075.37.243.243,0,0,1-.127.159.248.248,0,0,1-.114.027m-6.315-7a1.568,1.568,0,0,0-.333.038,1.844,1.844,0,0,0-1.1.737,1.68,1.68,0,0,0,.062,2.018,3.361,3.361,0,0,0,1.144.785c.1.049.193.1.287.147.363.192.714.416,1.054.633.358.229.729.466,1.112.662a13.993,13.993,0,0,0,1.594.658,9.571,9.571,0,0,1,2.283,1.07c.089.063.19.123.26.088a.092.092,0,0,0,.049-.063.342.342,0,0,0-.056-.248,1.991,1.991,0,0,0-.4-.414c-.053-.045-.108-.092-.16-.14a1.6,1.6,0,0,1-.277-.317.938.938,0,0,1-.094-.2.167.167,0,0,1,.015-.154c.064-.094.218-.1.319-.105l.035,0a2.3,2.3,0,0,1,.536.031c.159.026.317.062.469.1.183.043.372.086.56.111.075.01.144.016.21.018h.029c.111,0,.25,0,.294-.046a.1.1,0,0,0,.021-.065c0-.061-.1-.19-.752-.368-.181-.05-.323-.077-.473-.106a5.74,5.74,0,0,1-.733-.182c-.283-.091-.425-.156-.413-.266.009-.084.106-.116.2-.135a6.931,6.931,0,0,1,2.6.05.222.222,0,0,0,.091-.01h0l.015-.006a.215.215,0,0,0,.1-.078.226.226,0,0,0,.006-.226.3.3,0,0,0-.185-.118,5.753,5.753,0,0,0-.849-.181c-.352-.039-.586-.076-.756-.1a2.778,2.778,0,0,0-.437-.05,2.212,2.212,0,0,1-.319-.032l-.029,0c-.085-.006-.214-.015-.241-.109a.124.124,0,0,1,.01-.087c.047-.094.364-.221,1.97-.657l.293-.081c.056-.016.205-.059.253-.169a.189.189,0,0,0,0-.147.258.258,0,0,0-.212-.092,5.3,5.3,0,0,0-1.311.117,6,6,0,0,1-1.225.126.639.639,0,0,1-.473-.168.561.561,0,0,1-.122-.363,2.475,2.475,0,0,1,.476-1.321c.067-.113.136-.23.2-.345a.719.719,0,0,0,.116-.414.283.283,0,0,0-.257-.24.8.8,0,0,0-.371.2l-.033.025a4.965,4.965,0,0,0-.439.395c-.128.125-.261.254-.405.369a2.831,2.831,0,0,1-1.7.558,2.546,2.546,0,0,1-1.2-.395,2.863,2.863,0,0,1-.4-.325,1.377,1.377,0,0,0-.493-.334,1.137,1.137,0,0,0-.41-.072" transform="translate(-140.841 -187.124)" fill="#0c232b"/>
            <path id="Trazado_1010459" data-name="Trazado 1010459" d="M168.561,115.457a3.489,3.489,0,0,1,2-4.351l3.242-1.093a3.516,3.516,0,0,1,4.307,2.454,13.137,13.137,0,0,1,.828,6.833,4.691,4.691,0,0,1-1.351,2.648,3.99,3.99,0,0,1-1.3.777,2.732,2.732,0,0,1-.736.241v1.248a2.415,2.415,0,0,1-4.823.17c0-.056-.006-.113-.006-.17v-3.342a6.026,6.026,0,0,1-.977-1.875l-.3-.9c-.04,0-.079.006-.12.006a1.39,1.39,0,0,1-1.3-1.463,1.523,1.523,0,0,1,.539-1.185" transform="translate(-121.919 -79.713)" fill="#fdfcf6"/>
            <path id="Trazado_1010460" data-name="Trazado 1010460" d="M172.939,126.5a2.491,2.491,0,0,1-2.485-2.316c0-.057-.006-.117-.006-.175v-3.316a6.1,6.1,0,0,1-.974-1.878l-.283-.841-.066,0a1.467,1.467,0,0,1-1.379-1.539,1.616,1.616,0,0,1,.528-1.211,3.559,3.559,0,0,1,2.067-4.4l3.242-1.093a3.18,3.18,0,0,1,2.617.288,3.994,3.994,0,0,1,1.786,2.214,13.136,13.136,0,0,1,.83,6.873,4.785,4.785,0,0,1-1.374,2.688,4.057,4.057,0,0,1-1.323.791,2.8,2.8,0,0,1-.69.234v1.186a2.494,2.494,0,0,1-2.491,2.491m-3.642-8.688.322.956a5.951,5.951,0,0,0,.965,1.853l.016.021v3.368c0,.055,0,.111.006.165a2.339,2.339,0,0,0,4.671-.165V122.7l.063-.011a2.667,2.667,0,0,0,.715-.234l.008,0a3.9,3.9,0,0,0,1.277-.762,4.65,4.65,0,0,0,1.327-2.608,12.982,12.982,0,0,0-.825-6.789,3.844,3.844,0,0,0-1.718-2.133,3.029,3.029,0,0,0-2.493-.276l-3.242,1.093a3.415,3.415,0,0,0-1.956,4.258l.013.048-.038.032a1.455,1.455,0,0,0-.511,1.126,1.315,1.315,0,0,0,1.227,1.387c.036,0,.072,0,.112-.006Z" transform="translate(-121.718 -79.51)" fill="#0c232b"/>
            <g id="Grupo_1183668" data-name="Grupo 1183668" transform="translate(46.489 35.822)" opacity="0.2">
              <g id="Grupo_1183667" data-name="Grupo 1183667">
                <g id="Grupo_1183666" data-name="Grupo 1183666" clip-path="url(#clip-path-24)">
                  <path id="Trazado_1010461" data-name="Trazado 1010461" d="M169.559,132.025a1.047,1.047,0,0,1,.013-1.034.861.861,0,0,1,.914-.41.871.871,0,0,1,.391,1.165c-.079.109-.2.139-.215.266-.021.171.183.245.169.416-.013.154-.2.277-.338.318a.554.554,0,0,1-.589-.152c-.223-.371.658-1.07.448-1.4a.473.473,0,0,0-.594-.064c-.319.215-.161.891-.2.894" transform="translate(-169.429 -130.551)" fill="#517aef"/>
                </g>
              </g>
            </g>
            <g id="Grupo_1183671" data-name="Grupo 1183671" transform="translate(48.806 41.159)" opacity="0.1">
              <g id="Grupo_1183670" data-name="Grupo 1183670">
                <g id="Grupo_1183669" data-name="Grupo 1183669" clip-path="url(#clip-path-25)">
                  <path id="Trazado_1010462" data-name="Trazado 1010462" d="M177.872,150v3.341c0,.057,0,.114.006.17a4.307,4.307,0,0,0,2.824-.013,3.816,3.816,0,0,0,1.685-1.364c-.09.007-.18.01-.269.01a5.847,5.847,0,0,1-2.562-.721A5.229,5.229,0,0,1,177.872,150" transform="translate(-177.872 -150.002)" fill="#517aef"/>
                </g>
              </g>
            </g>
            <path id="Trazado_1010463" data-name="Trazado 1010463" d="M200.833,128.429c0,.3-.136.543-.3.543s-.3-.243-.3-.543.136-.543.3-.543.3.243.3.543" transform="translate(-145.286 -92.796)" fill="#0c232b"/>
            <path id="Trazado_1010464" data-name="Trazado 1010464" d="M191.1,128.429c0,.3-.136.543-.3.543s-.3-.243-.3-.543.136-.543.3-.543.3.243.3.543" transform="translate(-138.22 -92.796)" fill="#0c232b"/>
            <path id="Trazado_1010465" data-name="Trazado 1010465" d="M193.437,141.6a1.365,1.365,0,0,1-.586,1,.775.775,0,0,1-.417.118,1.016,1.016,0,0,1-.884-.86,1.636,1.636,0,0,1-.047-.32,1.593,1.593,0,0,0,.985.375,1.633,1.633,0,0,0,.95-.313" transform="translate(-138.956 -102.702)" fill="#0c232b"/>
            <path id="Trazado_1010466" data-name="Trazado 1010466" d="M192.976,143.445a.776.776,0,0,1-.417.118,1.016,1.016,0,0,1-.884-.86,1.692,1.692,0,0,1,.719.192,1.637,1.637,0,0,1,.583.551" transform="translate(-139.082 -103.547)" fill="#8ea0c7"/>
            <path id="Trazado_1010467" data-name="Trazado 1010467" d="M199.958,123.182a1.252,1.252,0,0,1,1.183.135c.277.221.369.578.308.616s-.262-.3-.762-.541a4.372,4.372,0,0,0-.73-.21" transform="translate(-145.092 -89.317)" fill="#0c232b"/>
            <path id="Trazado_1010468" data-name="Trazado 1010468" d="M188.978,123.182a1.252,1.252,0,0,0-1.183.135c-.277.221-.369.578-.308.616s.262-.3.762-.541a4.372,4.372,0,0,1,.73-.21" transform="translate(-136.029 -89.317)" fill="#0c232b"/>
            <g id="Grupo_1183674" data-name="Grupo 1183674" transform="translate(50.462 36.928)" opacity="0.2">
              <g id="Grupo_1183673" data-name="Grupo 1183673">
                <g id="Grupo_1183672" data-name="Grupo 1183672" clip-path="url(#clip-path-26)">
                  <path id="Trazado_1010469" data-name="Trazado 1010469" d="M185.425,134.861c0,.152-.34.276-.759.276s-.759-.123-.759-.276.34-.276.759-.276.759.123.759.276" transform="translate(-183.908 -134.585)" fill="#517aef"/>
                </g>
              </g>
            </g>
            <g id="Grupo_1183677" data-name="Grupo 1183677" transform="translate(55.835 36.928)" opacity="0.2">
              <g id="Grupo_1183676" data-name="Grupo 1183676">
                <g id="Grupo_1183675" data-name="Grupo 1183675" clip-path="url(#clip-path-26)">
                  <path id="Trazado_1010470" data-name="Trazado 1010470" d="M205.007,134.861c0,.152-.34.276-.759.276s-.759-.123-.759-.276.34-.276.759-.276.759.123.759.276" transform="translate(-203.49 -134.585)" fill="#517aef"/>
                </g>
              </g>
            </g>
            <path id="Trazado_1010471" data-name="Trazado 1010471" d="M176.371,108.658c-.029.447-.713.732-1.2.934a4.588,4.588,0,0,1-2,.345,5,5,0,0,1-3.079-1.43,3.458,3.458,0,0,1-.119,2.682,3.367,3.367,0,0,1-1.51,1.41c-1.615.834-2.907.11-3.3.655-.32.444-.026,1.534,2.247,4.2a8.7,8.7,0,0,1-3.288-4.985,7.519,7.519,0,0,1-.153-1.637,7.5,7.5,0,0,1,3.619-4.255c3.628-1.8,7.172.477,7.647.783.3.195,1.168.775,1.135,1.3" transform="translate(-118.978 -76.839)" fill="#0c232b"/>
            <path id="Trazado_1010472" data-name="Trazado 1010472" d="M172.471,139.145a.509.509,0,1,1-.509-.509.509.509,0,0,1,.509.509" transform="translate(-124.409 -100.596)" fill="#587aeb"/>
            <path id="Trazado_1010473" data-name="Trazado 1010473" d="M198.638,134.256a.91.91,0,0,1-.432-.119.076.076,0,0,1,.074-.133.694.694,0,0,0,.488.085.705.705,0,0,0,.439-.366.65.65,0,0,0,.067-.51c-.012-.032-.076-.194-.2-.224-.1-.025-.2.053-.291.128s-.19.151-.3.125c-.15-.037-.3-.226-.266-1.347a.075.075,0,0,1,.078-.074.076.076,0,0,1,.074.078c-.032,1.094.12,1.188.151,1.2s.105-.047.167-.1a.408.408,0,0,1,.731.164.8.8,0,0,1-.076.634.856.856,0,0,1-.537.442.7.7,0,0,1-.166.02" transform="translate(-143.792 -95.649)" fill="#0c232b"/>
            <path id="Trazado_1010474" data-name="Trazado 1010474" d="M291.234,341.227a6.526,6.526,0,1,1-6.526-6.526,6.526,6.526,0,0,1,6.526,6.526" transform="translate(-201.852 -242.863)" fill="#517aef"/>
            <g id="Grupo_1183680" data-name="Grupo 1183680" transform="translate(77.2 92.708)" opacity="0.4">
              <g id="Grupo_1183679" data-name="Grupo 1183679">
                <g id="Grupo_1183678" data-name="Grupo 1183678" clip-path="url(#clip-path-28)">
                  <path id="Trazado_1010475" data-name="Trazado 1010475" d="M287.009,349.185a5.656,5.656,0,1,1,5.656-5.656,5.662,5.662,0,0,1-5.656,5.656" transform="translate(-281.353 -337.873)" fill="#90abf3"/>
                </g>
              </g>
            </g>
            <path id="Trazado_1010476" data-name="Trazado 1010476" d="M294,343.716h.975v.491a6.443,6.443,0,0,1,.751.247.479.479,0,0,0,.137-.14.27.27,0,0,1,.229-.135h.287l.1,0c.057.006.094.048.109.126q0,.009.035.131l.264,1.1c0,.018.012.048.023.09a2.337,2.337,0,0,1,.1.423q0,.1-.327.1a2.333,2.333,0,0,1-.378-.016q-.057-.016-.189-.227a2.5,2.5,0,0,0-1.141-1.058v1.774a5.946,5.946,0,0,1,1.895,1.275,2,2,0,0,1,.456,1.292,1.6,1.6,0,0,1-.333,1.054,2.119,2.119,0,0,1-.783.6,3.645,3.645,0,0,1-1.23.243v.738H294v-.815a4.857,4.857,0,0,1-.625-.234.516.516,0,0,0-.212-.072q-.126,0-.224.194a.281.281,0,0,1-.132.142,1.917,1.917,0,0,1-.424.025q-.109,0-.155-.216l-.35-1.594a1.168,1.168,0,0,1-.029-.148q0-.158.384-.158a.8.8,0,0,1,.387.059,2.089,2.089,0,0,1,.318.392,2.56,2.56,0,0,0,1.06.986V348.3q-2.327-1.022-2.327-2.441a1.6,1.6,0,0,1,.189-.813,1.734,1.734,0,0,1,.682-.6,3.173,3.173,0,0,1,1.45-.293Zm-.006,2.477v-1.558a.969.969,0,0,0-.631.192.535.535,0,0,0-.235.407q0,.5.866.959m.986,2.594v1.752q.86-.1.86-.73,0-.558-.86-1.022" transform="translate(-211.644 -249.405)" fill="#90abf3"/>
            <path id="Trazado_1010477" data-name="Trazado 1010477" d="M203.408,39.834a6.526,6.526,0,1,1-6.526-6.526,6.526,6.526,0,0,1,6.526,6.526" transform="translate(-138.124 -24.169)" fill="#517aef"/>
            <g id="Grupo_1183683" data-name="Grupo 1183683" transform="translate(53.101 10.01)" opacity="0.4">
              <g id="Grupo_1183682" data-name="Grupo 1183682">
                <g id="Grupo_1183681" data-name="Grupo 1183681" clip-path="url(#clip-path-28)">
                  <path id="Trazado_1010478" data-name="Trazado 1010478" d="M199.183,47.791a5.656,5.656,0,1,1,5.656-5.656,5.662,5.662,0,0,1-5.656,5.656" transform="translate(-193.527 -36.479)" fill="#90abf3"/>
                </g>
              </g>
            </g>
            <path id="Trazado_1010479" data-name="Trazado 1010479" d="M206.173,42.323h.975v.491a6.45,6.45,0,0,1,.751.247.479.479,0,0,0,.137-.14.27.27,0,0,1,.229-.135h.287l.1,0c.057.006.094.048.109.126q0,.009.035.131l.264,1.1c0,.018.012.048.023.09a2.337,2.337,0,0,1,.1.423q0,.1-.327.1a2.33,2.33,0,0,1-.378-.016q-.057-.016-.189-.227a2.5,2.5,0,0,0-1.141-1.058v1.774a5.951,5.951,0,0,1,1.895,1.274,2,2,0,0,1,.456,1.293,1.6,1.6,0,0,1-.333,1.054,2.118,2.118,0,0,1-.783.6,3.645,3.645,0,0,1-1.23.243v.738h-.975v-.815a4.854,4.854,0,0,1-.625-.234.516.516,0,0,0-.212-.072q-.126,0-.224.194a.281.281,0,0,1-.132.142,1.918,1.918,0,0,1-.424.025q-.109,0-.155-.216l-.35-1.594a1.164,1.164,0,0,1-.029-.148q0-.158.384-.158a.8.8,0,0,1,.387.059,2.09,2.09,0,0,1,.318.392,2.56,2.56,0,0,0,1.061.986V46.9q-2.327-1.022-2.327-2.441a1.6,1.6,0,0,1,.189-.813,1.734,1.734,0,0,1,.682-.6,3.172,3.172,0,0,1,1.45-.293Zm-.006,2.477V43.241a.969.969,0,0,0-.631.192.535.535,0,0,0-.235.407q0,.5.866.959m.986,2.594v1.752q.86-.1.86-.73,0-.558-.86-1.022" transform="translate(-147.917 -30.71)" fill="#90abf3"/>
          </g>
        </g>
      </g>
    </g>
  </g>
</svg>
