<svg xmlns="http://www.w3.org/2000/svg" width="128" height="128" viewBox="0 0 128 128">
  <g id="Grupo_1183468" data-name="Grupo 1183468" transform="translate(-383.746 -8400)">
    <path id="Trazado_997401" data-name="Trazado 997401" d="M64,0A64,64,0,1,1,0,64,64,64,0,0,1,64,0Z" transform="translate(383.746 8400)" fill="#7be888"/>
    <g id="Grupo_1184399" data-name="Grupo 1184399" transform="translate(411.066 8426.913)">
      <path id="Trazado_1011303" data-name="Trazado 1011303" d="M209.588,265.144a1.074,1.074,0,0,0-1.075-1.075H192.021a1.075,1.075,0,1,0,0,2.149h16.493A1.075,1.075,0,0,0,209.588,265.144Z" transform="translate(-163.587 -225.826)" fill="#53435c"/>
      <path id="Trazado_1011304" data-name="Trazado 1011304" d="M225.751,291.172a1.075,1.075,0,0,0,0,2.149h6.827a1.075,1.075,0,0,0,0-2.149Z" transform="translate(-192.484 -249.045)" fill="#53435c"/>
      <path id="Trazado_1011305" data-name="Trazado 1011305" d="M197.8,72.745V87.328a3.3,3.3,0,0,0,6.591,0V72.745a3.3,3.3,0,0,0-6.591,0Zm2.149,0a1.146,1.146,0,0,1,2.292,0V87.328a1.146,1.146,0,0,1-2.292,0Z" transform="translate(-169.455 -59.092)" fill="#53435c"/>
      <path id="Trazado_1011306" data-name="Trazado 1011306" d="M266.974,137.591v5.292a3.3,3.3,0,1,0,6.59,0v-5.292a3.3,3.3,0,0,0-6.59,0Zm4.441,0v5.292a1.146,1.146,0,1,1-2.292,0v-5.292a1.146,1.146,0,1,1,2.292,0Z" transform="translate(-228.722 -114.647)" fill="#53435c"/>
      <path id="Trazado_1011307" data-name="Trazado 1011307" d="M133.147,116.79a3.3,3.3,0,0,0,3.3-3.3V103.287a3.3,3.3,0,0,0-6.591,0v10.207A3.3,3.3,0,0,0,133.147,116.79ZM132,103.287a1.146,1.146,0,0,1,2.292,0v10.207a1.146,1.146,0,0,1-2.292,0Z" transform="translate(-111.247 -85.258)" fill="#53435c"/>
      <path id="Trazado_1011308" data-name="Trazado 1011308" d="M339.446,116.79a3.3,3.3,0,0,0,3.3-3.3V103.287a3.3,3.3,0,1,0-6.59,0v10.207A3.3,3.3,0,0,0,339.446,116.79Zm-1.146-13.5a1.146,1.146,0,1,1,2.292,0v10.207a1.146,1.146,0,0,1-2.292,0Z" transform="translate(-287.987 -85.258)" fill="#53435c"/>
      <path id="Trazado_1011309" data-name="Trazado 1011309" d="M70.022,51.3H67.838a10.368,10.368,0,1,0-12.743,0H18.266a10.361,10.361,0,0,0-5.3-18.481V3.644a1.021,1.021,0,0,1,1.02-1.02H59.372a1.021,1.021,0,0,1,1.02,1.02V28.769a1.075,1.075,0,1,0,2.149,0V3.644A3.173,3.173,0,0,0,59.372.475H13.989a3.173,3.173,0,0,0-3.169,3.169V32.815A10.361,10.361,0,0,0,5.522,51.3H3.338a3.338,3.338,0,0,0,0,6.677h7.481v3.69a3.173,3.173,0,0,0,3.169,3.169H27.844l-1.738,5.03A2.892,2.892,0,0,0,28.84,73.7H44.52a2.892,2.892,0,0,0,2.733-3.837l-1.738-5.03H59.371a3.173,3.173,0,0,0,3.169-3.169v-3.69h7.481a3.338,3.338,0,0,0,0-6.677ZM53.248,43.127A8.218,8.218,0,1,1,62.355,51.3H60.577A8.229,8.229,0,0,1,53.248,43.127Zm-49.572,0A8.218,8.218,0,1,1,12.782,51.3H11.005a8.229,8.229,0,0,1-7.33-8.169ZM45.125,71.238a.734.734,0,0,1-.6.312H28.84a.743.743,0,0,1-.7-.985L31.95,59.532a2.373,2.373,0,0,1,1.825-1.559h5.81a2.373,2.373,0,0,1,1.825,1.559l3.812,11.032A.734.734,0,0,1,45.125,71.238Zm15.267-9.575a1.021,1.021,0,0,1-1.02,1.02h-14.6L43.442,58.83a4.505,4.505,0,0,0-.4-.857H60.392Zm9.63-5.84H22.574a1.075,1.075,0,1,0,0,2.149h7.749a4.51,4.51,0,0,0-.4.857l-1.331,3.853h-14.6a1.021,1.021,0,0,1-1.02-1.02v-3.69h4.575a1.075,1.075,0,1,0,0-2.149H3.338a1.189,1.189,0,0,1,0-2.378H70.022a1.189,1.189,0,1,1,0,2.378Z" fill="#53435c"/>
      <path id="Trazado_1011310" data-name="Trazado 1011310" d="M65.072,266.881v-.2a3.273,3.273,0,0,0,2.1-2.512,2.9,2.9,0,0,0-1.968-3.284,7.564,7.564,0,0,1-1.891-.872.434.434,0,0,1-.051-.361.632.632,0,0,1,.4-.5,1.312,1.312,0,0,1,1.21.179l.052.044a1.066,1.066,0,1,0,1.335-1.661,3.377,3.377,0,0,0-1.193-.644v-.065a1.1,1.1,0,0,0-1.042-1.119,1.075,1.075,0,0,0-1.108,1.074v.175a2.765,2.765,0,0,0-1.77,2.117,2.49,2.49,0,0,0,.836,2.45,9.063,9.063,0,0,0,2.5,1.207.753.753,0,0,1,.565.9,1.073,1.073,0,0,1-1.065.9,1.949,1.949,0,0,1-1.416-.352,1.107,1.107,0,0,0-1.5.256,1.075,1.075,0,0,0,.29,1.519,3.947,3.947,0,0,0,1.561.659v.125A1.075,1.075,0,0,0,64.031,268,1.1,1.1,0,0,0,65.072,266.881Z" transform="translate(-52.153 -218.818)" fill="#53435c"/>
      <path id="Trazado_1011311" data-name="Trazado 1011311" d="M411.05,266.88v-.2a3.273,3.273,0,0,0,2.1-2.512,2.9,2.9,0,0,0-1.968-3.284,7.553,7.553,0,0,1-1.891-.872.434.434,0,0,1-.051-.361.632.632,0,0,1,.4-.5,1.311,1.311,0,0,1,1.21.179l.061.052a1.066,1.066,0,1,0,1.34-1.657,3.39,3.39,0,0,0-1.207-.656v-.064a1.1,1.1,0,0,0-1.042-1.119,1.075,1.075,0,0,0-1.108,1.074v.175a2.764,2.764,0,0,0-1.77,2.117,2.49,2.49,0,0,0,.836,2.45,9.066,9.066,0,0,0,2.5,1.207.753.753,0,0,1,.565.9,1.073,1.073,0,0,1-1.065.9,1.951,1.951,0,0,1-1.416-.352,1.107,1.107,0,0,0-1.5.256,1.075,1.075,0,0,0,.29,1.519,3.947,3.947,0,0,0,1.561.659v.125A1.075,1.075,0,0,0,410.008,268,1.1,1.1,0,0,0,411.05,266.88Z" transform="translate(-348.558 -218.817)" fill="#53435c"/>
      <g id="Grupo_1184398" data-name="Grupo 1184398" transform="translate(17.665 5.226)">
        <circle id="Elipse_16124" data-name="Elipse 16124" cx="1.075" cy="1.075" r="1.075" fill="#53435c"/>
        <circle id="Elipse_16125" data-name="Elipse 16125" cx="1.075" cy="1.075" r="1.075" transform="translate(5.979)" fill="#53435c"/>
        <circle id="Elipse_16126" data-name="Elipse 16126" cx="1.075" cy="1.075" r="1.075" transform="translate(11.958)" fill="#53435c"/>
        <circle id="Elipse_16127" data-name="Elipse 16127" cx="1.075" cy="1.075" r="1.075" transform="translate(17.937)" fill="#53435c"/>
        <circle id="Elipse_16128" data-name="Elipse 16128" cx="1.075" cy="1.075" r="1.075" transform="translate(23.917)" fill="#53435c"/>
        <circle id="Elipse_16129" data-name="Elipse 16129" cx="1.075" cy="1.075" r="1.075" transform="translate(29.896)" fill="#53435c"/>
        <circle id="Elipse_16130" data-name="Elipse 16130" cx="1.075" cy="1.075" r="1.075" transform="translate(35.875)" fill="#53435c"/>
      </g>
    </g>
  </g>
</svg>
