<svg xmlns="http://www.w3.org/2000/svg" width="150" height="150" viewBox="0 0 150 150">
  <g id="Grupo_1183490" data-name="Grupo 1183490" transform="translate(-383.746 -8400)">
    <circle id="Elipse_13609" data-name="Elipse 13609" cx="75" cy="75" r="75" transform="translate(383.746 8400)" fill="#cfa9e6"/>
    <g id="Grupo_1184441" data-name="Grupo 1184441" transform="translate(420.176 8436.998)">
      <path id="Trazado_1011409" data-name="Trazado 1011409" d="M74.651,66.2H66.2V63.562a3.622,3.622,0,0,0,2.415-3.4v-4.83a3.622,3.622,0,0,0-2.415-3.4V36.014a1.207,1.207,0,0,0-1.207-1.207H57.1a13.161,13.161,0,0,0-10.218-4.83H45.244a10.9,10.9,0,0,0,3.418-4.83H49.3a4.814,4.814,0,0,0,2.415-8.988v-5.5A9.67,9.67,0,0,0,42.051,1H34.807a9.67,9.67,0,0,0-9.659,9.659v5.5a4.814,4.814,0,0,0,2.415,8.988H28.2a10.9,10.9,0,0,0,3.418,4.83H29.977a13.161,13.161,0,0,0-10.218,4.83H11.867a1.207,1.207,0,0,0-1.207,1.207V51.933a3.622,3.622,0,0,0-2.415,3.4v4.83a3.622,3.622,0,0,0,2.415,3.4V66.2H2.207A1.207,1.207,0,0,0,1,67.407v7.244a1.207,1.207,0,0,0,1.207,1.207H74.651a1.207,1.207,0,0,0,1.207-1.207V67.407A1.207,1.207,0,0,0,74.651,66.2ZM66.2,60.162a1.207,1.207,0,0,1-2.415,0v-4.83a1.207,1.207,0,0,1,2.415,0Zm-2.415-8.23a3.622,3.622,0,0,0-2.415,3.4v4.83a3.622,3.622,0,0,0,2.415,3.4V66.2H39.637V44.466a7.252,7.252,0,0,1,7.244-7.244h16.9ZM40.343,32.392,38.429,34.3l-1.914-1.913ZM49.3,22.733h-.071a10.788,10.788,0,0,0,.071-1.207V17.9a2.415,2.415,0,0,1,0,4.83ZM27.563,10.659a7.252,7.252,0,0,1,7.244-7.244h7.244A7.252,7.252,0,0,1,49.3,10.659v4.83h-4.83a2.415,2.415,0,0,1-2.415-2.415V8.244H39.637V9.452A6.044,6.044,0,0,1,33.6,15.489H27.563Zm0,12.074a2.415,2.415,0,0,1,0-4.83v3.622a10.788,10.788,0,0,0,.071,1.207Zm2.415-1.207V17.9H33.6a8.431,8.431,0,0,0,6.414-2.963A4.83,4.83,0,0,0,44.466,17.9h2.415v3.622a8.452,8.452,0,1,1-16.9,0Zm0,10.867H33.1l4.476,4.475a1.207,1.207,0,0,0,1.707,0l4.476-4.475h3.122a10.771,10.771,0,0,1,6.828,2.415H46.881A9.659,9.659,0,0,0,38.429,39.8a9.659,9.659,0,0,0-8.452-4.994H23.15a10.771,10.771,0,0,1,6.828-2.415ZM10.659,55.333a1.207,1.207,0,0,1,2.415,0v4.83a1.207,1.207,0,0,1-2.415,0Zm2.415,8.23a3.622,3.622,0,0,0,2.415-3.4v-4.83a3.622,3.622,0,0,0-2.415-3.4V37.222h16.9a7.252,7.252,0,0,1,7.244,7.244V66.2H13.074Zm60.37,9.881H3.415v-4.83H73.444Z" fill="#53435c"/>
      <path id="Trazado_1011410" data-name="Trazado 1011410" d="M35,35.207v4.83a1.207,1.207,0,0,0,1.207,1.207h16.9a1.207,1.207,0,0,0,1.207-1.207v-4.83A1.207,1.207,0,0,0,53.111,34h-16.9A1.207,1.207,0,0,0,35,35.207Zm2.415,1.207H51.9V38.83H37.415Z" transform="translate(7.051 6.844)" fill="#53435c"/>
      <rect id="Rectángulo_459231" data-name="Rectángulo 459231" width="19" height="2" transform="translate(42.429 50.429)" fill="#53435c"/>
      <rect id="Rectángulo_459232" data-name="Rectángulo 459232" width="12" height="2" transform="translate(42.429 55.429)" fill="#53435c"/>
      <rect id="Rectángulo_459233" data-name="Rectángulo 459233" width="3" height="2" transform="translate(56.429 55.429)" fill="#53435c"/>
    </g>
  </g>
</svg>
