<svg xmlns="http://www.w3.org/2000/svg" width="150" height="150" viewBox="0 0 150 150">
  <g id="Grupo_1183491" data-name="Grupo 1183491" transform="translate(-383.746 -8400)">
    <circle id="Elipse_13609" data-name="Elipse 13609" cx="75" cy="75" r="75" transform="translate(383.746 8400)" fill="#cfa9e6"/>
    <g id="Grupo_1184442" data-name="Grupo 1184442" transform="translate(414.051 8430.305)">
      <path id="Trazado_1008266" data-name="Trazado 1008266" d="M32.229,19.1a1.411,1.411,0,0,1-1.41-1.41H28a4.234,4.234,0,0,0,4.229,4.229v2.819h2.819V21.914h4.229V17.686a4.234,4.234,0,0,0-4.229-4.229H32.229a1.411,1.411,0,0,1-1.41-1.41v-1.41h4.229a1.411,1.411,0,0,1,1.41,1.41h2.819a4.234,4.234,0,0,0-4.229-4.229V5H32.229V7.819H28v4.229a4.234,4.234,0,0,0,4.229,4.229h2.819a1.411,1.411,0,0,1,1.41,1.41V19.1Z" transform="translate(11.057 1.638)" fill="#53435c"/>
      <path id="Trazado_1008267" data-name="Trazado 1008267" d="M82.753,65.838h-1.41V37.648h4.229V29.774L60.151,15.538a15.484,15.484,0,0,0-30.911,0L3.819,29.774v7.874H8.048V65.838H6.638a5.638,5.638,0,1,0,0,11.276,5.58,5.58,0,0,0,2.819-.784v12.06H79.933V76.331a5.58,5.58,0,0,0,2.819.784,5.638,5.638,0,1,0,0-11.276Zm-4.229,0H72.886V37.648h5.638ZM39.057,37.648V65.838H19.324V37.648Zm2.819,0h5.638V65.838H41.876Zm8.457,0H70.067V65.838H50.333Zm28.427-8.457H53.582A15.5,15.5,0,0,0,60.027,18.7ZM44.7,3.819A12.686,12.686,0,1,1,32.01,16.5,12.7,12.7,0,0,1,44.7,3.819ZM35.808,29.191H10.63L29.364,18.7A15.5,15.5,0,0,0,35.808,29.191ZM6.638,32.01H82.753v2.819H6.638Zm4.229,5.638H16.5V65.838H10.867ZM29.191,85.572H20.733V78.524a4.229,4.229,0,1,1,8.457,0Zm19.733,0H40.467V78.524a4.229,4.229,0,1,1,8.457,0Zm19.733,0H60.2V78.524a4.229,4.229,0,1,1,8.457,0ZM82.753,74.3a2.822,2.822,0,0,1-2.819-2.819H77.114v14.1H71.476V78.524a7.048,7.048,0,0,0-14.1,0v7.048H51.743V78.524a7.048,7.048,0,0,0-14.1,0v7.048H32.01V78.524a7.048,7.048,0,0,0-14.1,0v7.048H12.276v-14.1H9.457a2.819,2.819,0,1,1-2.819-2.819H82.753a2.819,2.819,0,1,1,0,5.638Z" transform="translate(0 0)" fill="#53435c"/>
      <path id="Trazado_1008268" data-name="Trazado 1008268" d="M38,29V51.552H52.1V29ZM49.276,48.733H40.819V31.819h8.457Z" transform="translate(15.152 11.467)" fill="#53435c"/>
      <path id="Trazado_1008269" data-name="Trazado 1008269" d="M30.1,51.552V29H16V51.552ZM18.819,31.819h8.457V48.733H18.819Z" transform="translate(6.143 11.467)" fill="#53435c"/>
    </g>
  </g>
</svg>
