<svg xmlns="http://www.w3.org/2000/svg" width="84" height="84" viewBox="0 0 84 84">
  <g id="Grupo_1182465" data-name="Grupo 1182465" transform="translate(-72.457 -7991.664)">
    <g id="Elipse_13628" data-name="Elipse 13628" transform="translate(72.457 7991.664)" fill="#fdf3e6" stroke="#ff984a" stroke-width="6">
      <circle cx="42" cy="42" r="42" stroke="none"/>
      <circle cx="42" cy="42" r="39" fill="none"/>
    </g>
    <g id="Grupo_1184344" data-name="Grupo 1184344" transform="translate(92.133 8011.342)">
      <circle id="Elipse_16118" data-name="Elipse 16118" cx="6.5" cy="6.5" r="6.5" transform="translate(1.323 30.322)" fill="#f0ae42"/>
      <path id="Trazado_1011141" data-name="Trazado 1011141" d="M13.012,49.507a6.184,6.184,0,0,0-2.736-5.137A6.191,6.191,0,0,0,4.742,55.333a6.177,6.177,0,0,0,8.27-5.825Z" transform="translate(-0.319 -13.428)" fill="#f9d266"/>
      <path id="Trazado_1011142" data-name="Trazado 1011142" d="M12.5,49.439v-.688a2.064,2.064,0,0,0-2.064-2.064V46H9.064v.688A2.064,2.064,0,0,0,7,48.751v.688A2.064,2.064,0,0,0,9.064,51.5v2.064a.688.688,0,0,1-.688-.688v-.688H7v.688a2.064,2.064,0,0,0,2.064,2.064v.688h1.376v-.688A2.064,2.064,0,0,0,12.5,52.878v-.688a2.064,2.064,0,0,0-2.064-2.064V48.064a.688.688,0,0,1,.688.688v.688Zm-1.376,2.751v.688a.688.688,0,0,1-.688.688V51.5A.688.688,0,0,1,11.127,52.191ZM9.064,50.127a.688.688,0,0,1-.688-.688v-.688a.688.688,0,0,1,.688-.688Z" transform="translate(-1.873 -14.047)" fill="#d5883e"/>
      <path id="Trazado_1011143" data-name="Trazado 1011143" d="M31.63,20h0a22.369,22.369,0,0,1-3.783,6.252l-2.676,3.121A13.157,13.157,0,0,0,22,37.936h0a13.157,13.157,0,0,0,3.852,9.3h0a5.629,5.629,0,0,0,3.983,1.651H41.679a5.629,5.629,0,0,0,3.983-1.651h0a13.157,13.157,0,0,0,3.852-9.3h0a13.157,13.157,0,0,0-3.164-8.563l-2.676-3.121A22.369,22.369,0,0,1,39.884,20h0" transform="translate(-6.555 -5.931)" fill="#976947"/>
      <rect id="Rectángulo_459216" data-name="Rectángulo 459216" width="12" height="4" rx="2" transform="translate(23.323 10.322)" fill="#f0ae42"/>
      <path id="Trazado_1011144" data-name="Trazado 1011144" d="M42.318,10.254l3.27-5.886a1.348,1.348,0,0,0,.169-.653V3.344A1.344,1.344,0,0,0,44.413,2h0a1.344,1.344,0,0,0-1.119.6l-.651.977a1.1,1.1,0,0,1-.911.488h0a1.1,1.1,0,0,1-1.039-.749l0-.008A1.908,1.908,0,0,0,38.878,2h0a1.908,1.908,0,0,0-1.81,1.307l0,.01a1.1,1.1,0,0,1-1.039.747h0a1.1,1.1,0,0,1-.911-.488L34.462,2.6A1.344,1.344,0,0,0,33.344,2h0A1.344,1.344,0,0,0,32,3.344v.371a1.348,1.348,0,0,0,.169.653l3.27,5.886" transform="translate(-9.677 -0.312)" fill="#c18e59"/>
      <ellipse id="Elipse_16119" data-name="Elipse 16119" cx="8" cy="8.5" rx="8" ry="8.5" transform="translate(21.323 22.322)" fill="#f0ae42"/>
      <path id="Trazado_1011145" data-name="Trazado 1011145" d="M44.444,39.567a8.247,8.247,0,0,0-4.651-7.418A8.247,8.247,0,0,0,34.65,47.672a8.236,8.236,0,0,0,9.793-8.106Z" transform="translate(-9.052 -9.678)" fill="#f9d266"/>
      <path id="Trazado_1011146" data-name="Trazado 1011146" d="M43.878,39.815v-.688a2.751,2.751,0,0,0-2.751-2.751V35H39.751v1.376a2.751,2.751,0,0,0,0,5.5V44.63a1.376,1.376,0,0,1-1.376-1.376H37a2.751,2.751,0,0,0,2.751,2.751v1.376h1.376V46.005a2.751,2.751,0,1,0,0-5.5V37.751A1.376,1.376,0,0,1,42.5,39.127v.688ZM42.5,43.254a1.376,1.376,0,0,1-1.376,1.376V41.878A1.376,1.376,0,0,1,42.5,43.254ZM39.751,40.5a1.376,1.376,0,0,1,0-2.751Z" transform="translate(-11.238 -10.614)" fill="#f4a93c"/>
      <circle id="Elipse_16120" data-name="Elipse 16120" cx="6.5" cy="6.5" r="6.5" transform="translate(1.323 15.322)" fill="#f0ae42"/>
      <path id="Trazado_1011147" data-name="Trazado 1011147" d="M13.012,27.507a6.184,6.184,0,0,0-2.736-5.137A6.191,6.191,0,0,0,4.742,33.333a6.177,6.177,0,0,0,8.27-5.825Z" transform="translate(-0.319 -6.56)" fill="#f9d266"/>
      <path id="Trazado_1011148" data-name="Trazado 1011148" d="M12.5,27.439v-.688a2.064,2.064,0,0,0-2.064-2.064V24H9.064v.688A2.064,2.064,0,0,0,7,26.751v.688A2.064,2.064,0,0,0,9.064,29.5v2.064a.688.688,0,0,1-.688-.688v-.688H7v.688a2.064,2.064,0,0,0,2.064,2.064v.688h1.376v-.688A2.064,2.064,0,0,0,12.5,30.878v-.688a2.064,2.064,0,0,0-2.064-2.064V26.064a.688.688,0,0,1,.688.688v.688Zm-1.376,2.751v.688a.688.688,0,0,1-.688.688V29.5A.688.688,0,0,1,11.127,30.191ZM9.064,28.127a.688.688,0,0,1-.688-.688v-.688a.688.688,0,0,1,.688-.688Z" transform="translate(-1.873 -7.18)" fill="#d5883e"/>
      <path id="Trazado_1011149" data-name="Trazado 1011149" d="M43.54,14.023,43.518,14H35.064A2.064,2.064,0,0,0,33,16.064h9.164a1.376,1.376,0,0,0,1.376-1.376Z" transform="translate(-9.989 -4.058)" fill="#f9d266"/>
      <path id="Trazado_1011150" data-name="Trazado 1011150" d="M46.557,22.995l-2.676-3.122a21.634,21.634,0,0,1-3.331-5.3,2.751,2.751,0,0,0,1.426-1.251l.181.182a7.566,7.566,0,0,1,2.231,5.384h1.376a8.932,8.932,0,0,0-2.634-6.357l-.521-.521.521-.521a8.932,8.932,0,0,0,2.634-6.357H44.387a7.566,7.566,0,0,1-2.231,5.384l-.181.182A2.742,2.742,0,0,0,40.028,9.3l2.727-4.91a2.031,2.031,0,0,0,.257-.988V3.032A2.032,2.032,0,0,0,39.289,1.9l-.651.977a.422.422,0,0,1-.729-.107,2.6,2.6,0,0,0-4.93.01.424.424,0,0,1-.726.1L31.6,1.9a2.033,2.033,0,0,0-3.723,1.127V3.4a2.034,2.034,0,0,0,.256.987L30.863,9.3a2.74,2.74,0,0,0-.522,5.269,21.634,21.634,0,0,1-3.331,5.3l-2.676,3.122a13.845,13.845,0,0,0,.725,18.8,6.274,6.274,0,0,0,4.464,1.85H41.367a6.274,6.274,0,0,0,4.464-1.85,13.845,13.845,0,0,0,.722-18.8ZM29.255,3.4V3.032a.656.656,0,0,1,1.2-.364l.655.977A1.784,1.784,0,0,0,34.29,3.21a1.221,1.221,0,0,1,2.319.01,1.784,1.784,0,0,0,3.176.425l.651-.977a.656.656,0,0,1,1.2.364V3.4a.664.664,0,0,1-.083.319L38.48,9.254H32.41L29.337,3.721A.66.66,0,0,1,29.255,3.4Zm2.064,7.227h8.254a1.376,1.376,0,1,1,0,2.751H31.318a1.376,1.376,0,0,1,0-2.751Zm13.544,30.2a4.909,4.909,0,0,1-3.494,1.444H29.523a4.909,4.909,0,0,1-3.494-1.444,12.471,12.471,0,0,1-.65-16.934l2.676-3.121a23.039,23.039,0,0,0,3.709-6.014h7.364a23.039,23.039,0,0,0,3.709,6.011l2.676,3.121A12.471,12.471,0,0,1,44.862,40.826Z" transform="translate(-6.244 0)"/>
      <path id="Trazado_1011151" data-name="Trazado 1011151" d="M37.942,31a8.942,8.942,0,1,0,8.942,8.942A8.942,8.942,0,0,0,37.942,31Zm0,16.508a7.566,7.566,0,1,1,7.566-7.566A7.566,7.566,0,0,1,37.942,47.508Z" transform="translate(-8.74 -9.365)"/>
      <path id="Trazado_1011152" data-name="Trazado 1011152" d="M41.127,36.376V35H39.751v1.376a2.751,2.751,0,0,0,0,5.5V44.63a1.376,1.376,0,0,1-1.376-1.376H37a2.751,2.751,0,0,0,2.751,2.751v1.376h1.376V46.005a2.751,2.751,0,1,0,0-5.5V37.751A1.376,1.376,0,0,1,42.5,39.127v.688h1.376v-.688A2.751,2.751,0,0,0,41.127,36.376ZM42.5,43.254a1.376,1.376,0,0,1-1.376,1.376V41.878A1.376,1.376,0,0,1,42.5,43.254ZM39.751,40.5a1.376,1.376,0,0,1,0-2.751Z" transform="translate(-11.238 -10.614)"/>
      <path id="Trazado_1011153" data-name="Trazado 1011153" d="M7.878,43a6.878,6.878,0,1,0,6.878,6.878A6.878,6.878,0,0,0,7.878,43Zm0,12.381a5.5,5.5,0,1,1,5.5-5.5A5.5,5.5,0,0,1,7.878,55.381Z" transform="translate(0 -13.111)"/>
      <path id="Trazado_1011154" data-name="Trazado 1011154" d="M10.439,46.688V46H9.064v.688A2.064,2.064,0,0,0,7,48.751v.688A2.064,2.064,0,0,0,9.064,51.5v2.064a.688.688,0,0,1-.688-.688v-.688H7v.688a2.064,2.064,0,0,0,2.064,2.064v.688h1.376v-.688A2.064,2.064,0,0,0,12.5,52.878v-.688a2.064,2.064,0,0,0-2.064-2.064V48.064a.688.688,0,0,1,.688.688v.688H12.5v-.688a2.064,2.064,0,0,0-2.064-2.064Zm.688,5.5v.688a.688.688,0,0,1-.688.688V51.5A.688.688,0,0,1,11.127,52.191ZM9.064,50.127a.688.688,0,0,1-.688-.688v-.688a.688.688,0,0,1,.688-.688Z" transform="translate(-1.873 -14.047)"/>
      <path id="Trazado_1011155" data-name="Trazado 1011155" d="M7.878,34.757A6.878,6.878,0,1,0,1,27.878a6.878,6.878,0,0,0,6.878,6.878Zm0-12.381a5.5,5.5,0,1,1-5.5,5.5,5.5,5.5,0,0,1,5.5-5.5Z" transform="translate(0 -6.243)"/>
      <path id="Trazado_1011156" data-name="Trazado 1011156" d="M9.064,32.942v.688h1.376v-.688A2.064,2.064,0,0,0,12.5,30.878v-.688a2.064,2.064,0,0,0-2.064-2.064V26.064a.688.688,0,0,1,.688.688v.688H12.5v-.688a2.064,2.064,0,0,0-2.064-2.064V24H9.064v.688A2.064,2.064,0,0,0,7,26.751v.688A2.064,2.064,0,0,0,9.064,29.5v2.064a.688.688,0,0,1-.688-.688v-.688H7v.688A2.064,2.064,0,0,0,9.064,32.942Zm-.688-5.5v-.688a.688.688,0,0,1,.688-.688v2.064A.688.688,0,0,1,8.376,27.439ZM10.439,29.5a.688.688,0,0,1,.688.688v.688a.688.688,0,0,1-.688.688Z" transform="translate(-1.873 -7.18)"/>
    </g>
  </g>
</svg>
