<svg xmlns="http://www.w3.org/2000/svg" width="150" height="150" viewBox="0 0 150 150">
  <g id="Grupo_1177487" data-name="Grupo 1177487" transform="translate(-383.746 -8400)">
    <circle id="Elipse_13609" data-name="Elipse 13609" cx="75" cy="75" r="75" transform="translate(383.746 8400)" fill="#cfa9e6"/>
    <path id="Trazado_1011326" data-name="Trazado 1011326" d="M29.709,38.617A1.215,1.215,0,0,1,30.924,37.4h8.638a1.215,1.215,0,0,1,0,2.43H30.924a1.214,1.214,0,0,1-1.215-1.215Zm68.29,0a1.214,1.214,0,0,1-1.215,1.215H88.147a1.215,1.215,0,0,1,0-2.43h8.637A1.216,1.216,0,0,1,98,38.616ZM29.709,45.1a1.215,1.215,0,0,1,1.215-1.215h8.638a1.215,1.215,0,1,1,0,2.43H30.924A1.214,1.214,0,0,1,29.709,45.1Zm68.29,0a1.214,1.214,0,0,1-1.215,1.215H88.147a1.215,1.215,0,0,1,0-2.43h8.637A1.216,1.216,0,0,1,98,45.094ZM58.321,38.617A1.216,1.216,0,0,1,59.536,37.4h8.637a1.215,1.215,0,0,1,0,2.43H59.536A1.214,1.214,0,0,1,58.321,38.617Zm0,6.478a1.216,1.216,0,0,1,1.215-1.215h8.637a1.215,1.215,0,0,1,0,2.43H59.536A1.214,1.214,0,0,1,58.321,45.095ZM97.775,80.805c-5.491,4.815-17.968,13.361-23.84,16.327A19.248,19.248,0,0,1,66.2,99.049a129.566,129.566,0,0,1-16.253-.2c-4.1-.236-7.993-.46-12.438-.324V84.557c2.15-.82,3.922-1.578,5.66-2.424,4.148-1.995,6.039-2.906,10.783-3.282,5.313-.423,7.983.518,12.325,2.933.312.174,3.038,1.752,2.447,3.529a2.658,2.658,0,0,1-.411.74c-.967,1.251-3.194.849-4.456.274A23.337,23.337,0,0,0,56,84.373a11.047,11.047,0,0,0-3.519.662,1.215,1.215,0,1,0,.792,2.3,8.582,8.582,0,0,1,2.763-.529,21.714,21.714,0,0,1,6.807,1.732c2.608,1.189,6.075,1.26,7.745-1.523,3.917.321,8.9-1.458,12.524-3.08A51.557,51.557,0,0,0,94.862,76.8a2.2,2.2,0,0,1,3.236.344A2.757,2.757,0,0,1,97.775,80.805Zm-62.7,20.441a.7.7,0,0,1-.694.7H29.074a.707.707,0,0,1-.7-.7V83.475a.706.706,0,0,1,.7-.7h5.307a.7.7,0,0,1,.694.7ZM96.755,73.833a4.593,4.593,0,0,0-3.495,1.139c-4.636,4.062-15.8,9.823-22.022,9.647-.088-2.122-1.879-3.9-3.784-4.959-4.606-2.562-7.831-3.7-13.7-3.232-5.331.425-7.6,1.577-11.89,3.636-1.4.676-2.95,1.341-4.691,2.016a3.124,3.124,0,0,0-2.792-1.731H29.074a3.13,3.13,0,0,0-3.126,3.125v17.772a3.131,3.131,0,0,0,3.127,3.126h5.307a3.128,3.128,0,0,0,3.123-3.127v-.29c7.994-.249,14.605.707,22.671.7,1.941,0,3.985-.053,6.168-.186A21.607,21.607,0,0,0,75.031,99.3c6.121-3.094,18.634-11.661,24.346-16.67a5.183,5.183,0,0,0,.641-6.975,4.665,4.665,0,0,0-3.264-1.823Zm3.593-23.476a1.162,1.162,0,0,0,1.161-1.162V33H96.6a1.214,1.214,0,0,1-1.215-1.215V26.874h-10.8a1.163,1.163,0,0,0-1.162,1.161V49.2a1.163,1.163,0,0,0,1.162,1.161ZM97.81,28.593l1.98,1.98H97.81Zm5.772,2.336L97.453,24.8a1.211,1.211,0,0,0-.859-.356H84.584a3.594,3.594,0,0,0-3.59,3.59V49.2a3.594,3.594,0,0,0,3.59,3.591H91.25V59H78.97a1.215,1.215,0,0,0-1.215,1.214v8.943L75.881,67.28A1.215,1.215,0,0,0,74.163,69l3.969,3.967a0,0,0,0,0,0,0l0,0a1.216,1.216,0,0,0,1.683-.012v0s0,0,0,0h0l0,0a0,0,0,0,1,0,0s0,0,0,0L83.777,69a1.214,1.214,0,0,0-1.716-1.718l-1.876,1.874V61.426H92.466A1.213,1.213,0,0,0,93.68,60.21V52.787h6.668a3.594,3.594,0,0,0,3.59-3.591V31.788a1.215,1.215,0,0,0-.356-.859ZM26.2,49.2a1.161,1.161,0,0,0,1.162,1.161H43.124A1.161,1.161,0,0,0,44.284,49.2V33H39.371a1.214,1.214,0,0,1-1.215-1.215V26.876H27.362A1.162,1.162,0,0,0,26.2,28.037Zm14.384-20.6,1.982,1.98H40.585ZM34.028,52.788v7.424a1.215,1.215,0,0,0,1.215,1.215h12.28v7.728L45.65,67.281A1.215,1.215,0,1,0,43.932,69l3.953,3.953h0s0,0,0,0a1.216,1.216,0,0,0,1.7,0,0,0,0,0,0,0,0L53.547,69a1.215,1.215,0,0,0-1.718-1.718l-1.876,1.874V60.211A1.213,1.213,0,0,0,48.738,59H36.458v-6.21h6.666a3.593,3.593,0,0,0,3.59-3.591V31.789a1.218,1.218,0,0,0-.355-.859L40.23,24.8a1.216,1.216,0,0,0-.86-.356H27.362a3.594,3.594,0,0,0-3.591,3.59V49.2a3.594,3.594,0,0,0,3.591,3.591ZM54.811,28.036V49.2a1.162,1.162,0,0,0,1.162,1.161H71.736A1.163,1.163,0,0,0,72.9,49.2V33H67.983a1.214,1.214,0,0,1-1.216-1.215V26.875H55.973a1.163,1.163,0,0,0-1.161,1.161Zm14.386.557,1.981,1.98H69.2ZM55.973,52.787h6.667V69.154L60.765,67.28A1.215,1.215,0,0,0,59.047,69c.51.511,3.841,3.882,4.095,4.07a1.216,1.216,0,0,0,1.572-.123L68.662,69a1.215,1.215,0,0,0-1.717-1.718l-1.874,1.874V52.787h6.665A3.6,3.6,0,0,0,75.327,49.2V31.788a1.212,1.212,0,0,0-.357-.859L68.841,24.8a1.209,1.209,0,0,0-.858-.356H55.973a3.6,3.6,0,0,0-3.591,3.59V49.2a3.6,3.6,0,0,0,3.591,3.591Z" transform="translate(394.181 8410.591)" fill="#53435c" fill-rule="evenodd"/>
  </g>
</svg>
