<svg xmlns="http://www.w3.org/2000/svg" width="84" height="84" viewBox="0 0 84 84">
  <g id="Grupo_1182399" data-name="Grupo 1182399" transform="translate(-186 -1357)">
    <rect id="Rectángulo_402006" data-name="Rectángulo 402006" width="84" height="84" rx="5" transform="translate(186 1357)" fill="#ff984a"/>
    <g id="Grupo_1184338" data-name="Grupo 1184338" transform="translate(198.703 1369.742)">
      <path id="Trazado_1011089" data-name="Trazado 1011089" d="M56.682,19.25H43.421a14.605,14.605,0,1,0-28.248,0H1.913A.913.913,0,0,0,1,20.163V56.676a.913.913,0,0,0,.913.913H49.379a.913.913,0,0,0,.645-.267l7.3-7.3a.913.913,0,0,0,.267-.645V20.163A.913.913,0,0,0,56.682,19.25ZM29.3,2.819A12.779,12.779,0,1,1,16.518,15.6,12.779,12.779,0,0,1,29.3,2.819ZM2.826,21.076H15.768a14.591,14.591,0,0,0,27.06,0H55.769V48.46h-6.39a.913.913,0,0,0-.913.913v6.39H2.826Zm51.653,29.21-4.186,4.186V50.286Z" transform="translate(0 0)" fill="#53435c"/>
      <path id="Trazado_1011090" data-name="Trazado 1011090" d="M10.651,38.651a1.826,1.826,0,0,1,1.826,1.826H14.3a3.651,3.651,0,0,0-2.738-3.522V35H9.738v1.955a3.644,3.644,0,0,0,.913,7.173,1.826,1.826,0,1,1-1.826,1.826H7a3.651,3.651,0,0,0,2.738,3.522v1.955h1.826V49.475a3.644,3.644,0,0,0-.913-7.173,1.826,1.826,0,1,1,0-3.651Z" transform="translate(-0.523 -2.971)" fill="#53435c"/>
      <path id="Trazado_1011091" data-name="Trazado 1011091" d="M19,35H48.21v1.826H19Z" transform="translate(-1.569 -2.971)" fill="#53435c"/>
      <path id="Trazado_1011092" data-name="Trazado 1011092" d="M19,39H48.21v1.826H19Z" transform="translate(-1.569 -3.319)" fill="#53435c"/>
      <path id="Trazado_1011093" data-name="Trazado 1011093" d="M19,43H48.21v1.826H19Z" transform="translate(-1.569 -3.668)" fill="#53435c"/>
      <path id="Trazado_1011094" data-name="Trazado 1011094" d="M19,47H48.21v1.826H19Z" transform="translate(-1.569 -4.017)" fill="#53435c"/>
      <path id="Trazado_1011095" data-name="Trazado 1011095" d="M19,51H48.21v1.826H19Z" transform="translate(-1.569 -4.365)" fill="#53435c"/>
      <path id="Trazado_1011096" data-name="Trazado 1011096" d="M49,25h7.3v1.826H49Z" transform="translate(-4.185 -2.099)" fill="#53435c"/>
      <path id="Trazado_1011097" data-name="Trazado 1011097" d="M49,29h7.3v1.826H49Z" transform="translate(-4.185 -2.447)" fill="#53435c"/>
      <path id="Trazado_1011098" data-name="Trazado 1011098" d="M25.564,26.169a.913.913,0,0,0,.645-.267l1.826-1.826a.913.913,0,0,0,.267-.645V22.162a25.91,25.91,0,0,0,4.473-3.006l.623.623-1.18,1.18,1.291,1.291,1.183-1.18,1.18,1.18a.913.913,0,0,0,.645.267h2.738a.913.913,0,0,0,.855-1.234L37.58,14.529l1.566-1.566A3.495,3.495,0,0,0,34.2,8.02L32.638,9.589,25.883,7.057a.913.913,0,0,0-1.231.855v2.738a.913.913,0,0,0,.267.645l1.18,1.18-1.18,1.18,1.291,1.291,1.18-1.18.623.623a25.909,25.909,0,0,0-3.006,4.476H23.738a.913.913,0,0,0-.645.267l-1.826,1.826a.913.913,0,0,0,0,1.291L24.919,25.9a.913.913,0,0,0,.645.267Zm12.375-5.477H36.9l-2.751-2.754c.141-.136.292-.261.431-.4l1.588-1.588ZM26.477,10.273V9.23l4.747,1.778L29.635,12.6c-.139.139-.264.289-.4.431ZM24.116,20.692h1.448a.913.913,0,0,0,.817-.5,24.2,24.2,0,0,1,4.54-6.3l4.573-4.573a1.669,1.669,0,1,1,2.361,2.361l-4.573,4.573a24.2,24.2,0,0,1-6.3,4.54.913.913,0,0,0-.507.815v1.448l-.913.913L23.2,21.6Z" transform="translate(-1.744 -0.529)" fill="#53435c"/>
    </g>
  </g>
</svg>
