<svg xmlns="http://www.w3.org/2000/svg" width="84" height="84" viewBox="0 0 84 84">
  <g id="Grupo_1182399" data-name="Grupo 1182399" transform="translate(-186 -1357)">
    <rect id="Rectángulo_402006" data-name="Rectángulo 402006" width="84" height="84" rx="5" transform="translate(186 1357)" fill="#ff984a"/>
    <g id="Grupo_1184476" data-name="Grupo 1184476" transform="translate(198.782 1369.372)">
      <path id="Trazado_1011425" data-name="Trazado 1011425" d="M56.335,29.944H48.047V9.684a.921.921,0,0,0-.921-.921h-3.3l1.191-1.191a.921.921,0,1,0-1.3-1.3L40.949,9.033a.921.921,0,0,0,0,1.3L43.712,13.1a.921.921,0,1,0,1.3-1.3L43.823,10.6H46.2v19.34H14.893a.921.921,0,0,0,0,1.842h35a5.531,5.531,0,0,0,5.526,5.526V50.2a5.531,5.531,0,0,0-5.526,5.526H9.367A5.531,5.531,0,0,0,3.842,50.2V37.312a5.531,5.531,0,0,0,5.526-5.526.921.921,0,1,0,0-1.842H2.921A.921.921,0,0,0,2,30.865V56.651a.921.921,0,0,0,.921.921H56.335a.921.921,0,0,0,.921-.921V30.865A.921.921,0,0,0,56.335,29.944ZM3.842,31.786H7.526A3.684,3.684,0,0,1,3.842,35.47Zm0,20.26A3.684,3.684,0,0,1,7.526,55.73H3.842ZM51.73,31.786h3.684V35.47A3.684,3.684,0,0,1,51.73,31.786ZM55.414,55.73H51.73a3.684,3.684,0,0,1,3.684-3.684Z" transform="translate(0 -0.316)" fill="#53435c"/>
      <path id="Trazado_1011426" data-name="Trazado 1011426" d="M41.26,46.13A10.13,10.13,0,1,0,31.13,56.26,10.13,10.13,0,0,0,41.26,46.13Zm-18.419,0a8.288,8.288,0,1,1,8.288,8.288A8.288,8.288,0,0,1,22.842,46.13Z" transform="translate(-1.502 -2.688)" fill="#53435c"/>
      <path id="Trazado_1011427" data-name="Trazado 1011427" d="M30.763,38.921V40.81a3.216,3.216,0,0,0,.46,6.4h.921a1.381,1.381,0,0,1,0,2.763h-.921a1.381,1.381,0,0,1-1.381-1.381v-.23a.921.921,0,0,0-1.842,0v.23a3.218,3.218,0,0,0,2.763,3.176v1.889a.921.921,0,1,0,1.842,0V51.767a3.216,3.216,0,0,0-.46-6.4h-.921a1.381,1.381,0,1,1,0-2.763h.921a1.381,1.381,0,0,1,1.381,1.381v.23a.921.921,0,0,0,1.842,0v-.23A3.218,3.218,0,0,0,32.6,40.81V38.921a.921.921,0,1,0-1.842,0Z" transform="translate(-2.056 -2.846)" fill="#53435c"/>
      <path id="Trazado_1011428" data-name="Trazado 1011428" d="M31.832,2H29.954A1.826,1.826,0,0,0,28.13,3.823l-.022,2.3a8.056,8.056,0,0,0-1.458.622L25.018,5.111a1.826,1.826,0,0,0-2.579,0l-1.328,1.33a1.825,1.825,0,0,0,0,2.579l1.609,1.642a8.047,8.047,0,0,0-.593,1.473h-2.3A1.826,1.826,0,0,0,18,13.954v1.879a1.826,1.826,0,0,0,1.823,1.823l2.3.022a8.056,8.056,0,0,0,.622,1.458l-1.631,1.632a1.825,1.825,0,0,0,0,2.579l1.329,1.329a1.825,1.825,0,0,0,2.579,0l1.642-1.609a8.047,8.047,0,0,0,1.47.592v2.3a1.826,1.826,0,0,0,1.823,1.825h1.879a1.826,1.826,0,0,0,1.823-1.823l.022-2.3a8.092,8.092,0,0,0,1.459-.622l1.631,1.631a1.826,1.826,0,0,0,2.579,0l1.329-1.329a1.825,1.825,0,0,0,0-2.579l-1.61-1.638a8.047,8.047,0,0,0,.593-1.473h2.3a1.826,1.826,0,0,0,1.825-1.823V13.954a1.826,1.826,0,0,0-1.823-1.823l-2.3-.022a8.056,8.056,0,0,0-.622-1.458l1.631-1.632a1.825,1.825,0,0,0,0-2.579l-1.33-1.328a1.825,1.825,0,0,0-2.579,0L35.129,6.721a8.047,8.047,0,0,0-1.473-.593v-2.3A1.826,1.826,0,0,0,31.832,2Zm2.444,6.354a1.842,1.842,0,0,0,2.161-.311l1.605-1.63,1.329,1.3-1.629,1.63a1.842,1.842,0,0,0-.312,2.161,7.367,7.367,0,0,1,.48,1.157,1.842,1.842,0,0,0,1.748,1.308l2.286-.018v1.86H39.658a1.842,1.842,0,0,0-1.75,1.307,7.322,7.322,0,0,1-.48,1.156,1.842,1.842,0,0,0,.311,2.161l1.63,1.605-1.3,1.329-1.63-1.63a1.842,1.842,0,0,0-2.161-.311,7.368,7.368,0,0,1-1.157.48,1.842,1.842,0,0,0-1.3,1.748l.018,2.286-1.86.018v-2.3a1.842,1.842,0,0,0-1.307-1.75,7.322,7.322,0,0,1-1.156-.48,1.9,1.9,0,0,0-.879-.217,1.805,1.805,0,0,0-1.283.529l-1.6,1.63-1.329-1.3,1.629-1.63a1.842,1.842,0,0,0,.312-2.161,7.367,7.367,0,0,1-.48-1.157,1.842,1.842,0,0,0-1.748-1.307l-2.286.018-.018-1.86h2.3a1.842,1.842,0,0,0,1.75-1.307,7.322,7.322,0,0,1,.48-1.156,1.842,1.842,0,0,0-.311-2.161l-1.63-1.605,1.3-1.329,1.63,1.629a1.842,1.842,0,0,0,2.161.312,7.367,7.367,0,0,1,1.157-.48,1.842,1.842,0,0,0,1.307-1.748l-.018-2.286,1.86-.018v2.3a1.842,1.842,0,0,0,1.307,1.75,7.323,7.323,0,0,1,1.156.479Z" transform="translate(-1.265)" fill="#53435c"/>
      <path id="Trazado_1011429" data-name="Trazado 1011429" d="M25,15.447a6.455,6.455,0,0,0,6.447,6.447.921.921,0,0,0,0-1.842,4.6,4.6,0,1,1,4.6-4.6.921.921,0,0,0,1.842,0,6.447,6.447,0,0,0-12.893,0Z" transform="translate(-1.819 -0.553)" fill="#53435c"/>
      <path id="Trazado_1011430" data-name="Trazado 1011430" d="M36.017,18.728a4.612,4.612,0,0,1-1.289,1.289.921.921,0,1,0,1.013,1.534,6.422,6.422,0,0,0,1.808-1.807.921.921,0,1,0-1.534-1.019Z" transform="translate(-2.551 -1.29)" fill="#53435c"/>
      <path id="Trazado_1011431" data-name="Trazado 1011431" d="M58.451,22.53,57.26,23.721V2.921A.921.921,0,0,0,56.34,2H37.921a.921.921,0,0,0,0,1.842h17.5V23.721L54.228,22.53a.921.921,0,1,0-1.3,1.3L55.688,26.6a.921.921,0,0,0,1.3,0l2.763-2.763a.921.921,0,1,0-1.3-1.3Z" transform="translate(-2.767 0)" fill="#53435c"/>
      <path id="Trazado_1011432" data-name="Trazado 1011432" d="M24.1,2H5.684a.921.921,0,0,0-.921.921v20.8L3.572,22.53a.921.921,0,1,0-1.3,1.3L5.033,26.6a.921.921,0,0,0,1.3,0L9.1,23.833a.921.921,0,1,0-1.3-1.3L6.6,23.721V3.842H24.1A.921.921,0,0,0,24.1,2Z" transform="translate(0 0)" fill="#53435c"/>
      <path id="Trazado_1011433" data-name="Trazado 1011433" d="M15.033,13.1a.921.921,0,0,0,1.3,0L19.1,10.335a.921.921,0,0,0,0-1.3L16.335,6.27a.921.921,0,1,0-1.3,1.3l1.191,1.191h-3.3A.921.921,0,0,0,12,9.684V30.865a.921.921,0,1,0,1.842,0V10.6h2.382L15.033,11.8A.921.921,0,0,0,15.033,13.1Z" transform="translate(-0.791 -0.316)" fill="#53435c"/>
      <path id="Trazado_1011434" data-name="Trazado 1011434" d="M52.367,47.842a.921.921,0,0,0,0-1.842H45.921a.921.921,0,0,0,0,1.842Z" transform="translate(-3.4 -3.479)" fill="#53435c"/>
      <path id="Trazado_1011435" data-name="Trazado 1011435" d="M10,46.921a.921.921,0,0,0,.921.921h6.447a.921.921,0,0,0,0-1.842H10.921A.921.921,0,0,0,10,46.921Z" transform="translate(-0.633 -3.479)" fill="#53435c"/>
    </g>
  </g>
</svg>
