<svg xmlns="http://www.w3.org/2000/svg" xmlns:xlink="http://www.w3.org/1999/xlink" width="84" height="84.301" viewBox="0 0 84 84.301">
  <defs>
    <clipPath id="clip-path">
      <rect id="Rectángulo_457986" data-name="Rectángulo 457986" width="84" height="84.301" fill="#ff984a"/>
    </clipPath>
  </defs>
  <g id="Grupo_1182415" data-name="Grupo 1182415" transform="translate(-185.711 -3093)">
    <rect id="Rectángulo_457985" data-name="Rectángulo 457985" width="84" height="84" transform="translate(185.711 3093)" fill="#fff"/>
    <g id="Grupo_1182394" data-name="Grupo 1182394" transform="translate(185.711 3093)" clip-path="url(#clip-path)">
      <path id="Trazado_1005372" data-name="Trazado 1005372" d="M29.63,60.814a1.693,1.693,0,1,0,1.693,1.693,1.693,1.693,0,0,0-1.693-1.693m0,6.782a1.693,1.693,0,1,0,1.693,1.693A1.692,1.692,0,0,0,29.63,67.6m0-13.564a1.693,1.693,0,1,0,1.693,1.693,1.693,1.693,0,0,0-1.693-1.693m0-20.346a1.693,1.693,0,1,0,1.693,1.693,1.693,1.693,0,0,0-1.693-1.693m0,47.908a1.26,1.26,0,1,0,1.26,1.26,1.26,1.26,0,0,0-1.26-1.26m0-41.126a1.693,1.693,0,1,0,1.693,1.693,1.693,1.693,0,0,0-1.693-1.693m0,6.782a1.693,1.693,0,1,0,1.693,1.693,1.693,1.693,0,0,0-1.693-1.693m6.782-26.94a1.5,1.5,0,1,0,1.5,1.5,1.5,1.5,0,0,0-1.5-1.5m0,6.782a1.5,1.5,0,1,0,1.5,1.5,1.5,1.5,0,0,0-1.5-1.5m0,6.782a1.5,1.5,0,1,0,1.5,1.5,1.5,1.5,0,0,0-1.5-1.5m0,6.782a1.5,1.5,0,1,0,1.5,1.5,1.5,1.5,0,0,0-1.5-1.5M29.63,26.9A1.693,1.693,0,1,0,31.323,28.6,1.692,1.692,0,0,0,29.63,26.9M36.412,6.745a1.5,1.5,0,1,0,1.5,1.5,1.5,1.5,0,0,0-1.5-1.5m0,6.782a1.5,1.5,0,1,0,1.5,1.5,1.5,1.5,0,0,0-1.5-1.5m0-10.593a1.467,1.467,0,1,0-1.467-1.467,1.467,1.467,0,0,0,1.467,1.467M29.63,74.378a1.693,1.693,0,1,0,1.693,1.693,1.693,1.693,0,0,0-1.693-1.693M22.848,40.26a1.9,1.9,0,1,0,1.9,1.9,1.9,1.9,0,0,0-1.9-1.9m0-13.564a1.9,1.9,0,1,0,1.9,1.9,1.9,1.9,0,0,0-1.9-1.9m0-6.782a1.9,1.9,0,1,0,1.9,1.9,1.9,1.9,0,0,0-1.9-1.9m0,13.564a1.9,1.9,0,1,0,1.9,1.9,1.9,1.9,0,0,0-1.9-1.9M36.412,47.437a1.5,1.5,0,1,0,1.5,1.5,1.5,1.5,0,0,0-1.5-1.5M22.848,6.35a1.9,1.9,0,1,0,1.9,1.9,1.9,1.9,0,0,0-1.9-1.9M16.066,53.637a2.088,2.088,0,1,0,2.088,2.088,2.087,2.087,0,0,0-2.088-2.088m6.782-40.5a1.9,1.9,0,1,0,1.9,1.9,1.9,1.9,0,0,0-1.9-1.9m0,33.911a1.9,1.9,0,1,0,1.9,1.9,1.9,1.9,0,0,0-1.9-1.9M29.63,20.121a1.693,1.693,0,1,0,1.693,1.693,1.693,1.693,0,0,0-1.693-1.693m0-13.564a1.693,1.693,0,1,0,1.693,1.693A1.693,1.693,0,0,0,29.63,6.556M22.848,53.825a1.9,1.9,0,1,0,1.9,1.9,1.9,1.9,0,0,0-1.9-1.9M29.63,2.746a1.279,1.279,0,1,0-1.279-1.279A1.279,1.279,0,0,0,29.63,2.746m0,10.593a1.693,1.693,0,1,0,1.693,1.693,1.693,1.693,0,0,0-1.693-1.693M22.848,60.607a1.9,1.9,0,1,0,1.9,1.9,1.9,1.9,0,0,0-1.9-1.9m0,13.564a1.9,1.9,0,1,0,1.9,1.9,1.9,1.9,0,0,0-1.9-1.9m0-6.782a1.9,1.9,0,1,0,1.9,1.9,1.9,1.9,0,0,0-1.9-1.9M77.1,41.859a.3.3,0,1,0,.3.3.3.3,0,0,0-.3-.3m0-6.782a.3.3,0,1,0,.3.3.3.3,0,0,0-.3-.3m0-19.8a.244.244,0,1,0-.244-.244.245.245,0,0,0,.244.244m0,6.237a.3.3,0,1,0,.3.3.3.3,0,0,0-.3-.3m0,6.782a.3.3,0,1,0,.3.3.3.3,0,0,0-.3-.3m0,33.911a.3.3,0,1,0,.3.3.3.3,0,0,0-.3-.3m0,6.857a.226.226,0,1,0,.226.226.225.225,0,0,0-.226-.226M16.066,9.716A1.458,1.458,0,0,0,16.55,6.88c-.654.5-1.291,1.011-1.917,1.541a1.451,1.451,0,0,0,1.432,1.295m0,64.888A1.451,1.451,0,0,0,14.634,75.9c.625.53,1.262,1.046,1.917,1.541a1.458,1.458,0,0,0-.485-2.836M83.774,42.16a.113.113,0,1,0,.113-.113.113.113,0,0,0-.113.113m.019,13.564a.094.094,0,1,0,.094-.094.094.094,0,0,0-.094.094M84,35.378a.113.113,0,1,0-.113.113A.113.113,0,0,0,84,35.378M16.066,60.419a2.088,2.088,0,1,0,2.088,2.088,2.087,2.087,0,0,0-2.088-2.088m20.347-6.2a1.5,1.5,0,1,0,1.5,1.5,1.5,1.5,0,0,0-1.5-1.5m6.782,20.553a1.3,1.3,0,1,0,1.3,1.3,1.3,1.3,0,0,0-1.3-1.3M83.981,28.6a.094.094,0,1,0-.094.094.094.094,0,0,0,.094-.094M77.1,55.423a.3.3,0,1,0,.3.3.3.3,0,0,0-.3-.3m0-6.782a.3.3,0,1,0,.3.3.3.3,0,0,0-.3-.3m6.669.3a.113.113,0,1,0,.113-.113.113.113,0,0,0-.113.113M43.194,6.951a1.3,1.3,0,1,0,1.3,1.3,1.3,1.3,0,0,0-1.3-1.3m0,13.564a1.3,1.3,0,1,0,1.3,1.3,1.3,1.3,0,0,0-1.3-1.3m-6.782,54.05a1.5,1.5,0,1,0,1.5,1.5,1.5,1.5,0,0,0-1.5-1.5m6.782-60.832a1.3,1.3,0,1,0,1.3,1.3,1.3,1.3,0,0,0-1.3-1.3m0-13.564a1.3,1.3,0,1,0,1.3,1.3,1.3,1.3,0,0,0-1.3-1.3M36.412,81.4a1.448,1.448,0,1,0,1.448,1.448A1.448,1.448,0,0,0,36.412,81.4m0-20.4a1.5,1.5,0,1,0,1.5,1.5,1.5,1.5,0,0,0-1.5-1.5m0,6.782a1.5,1.5,0,1,0,1.5,1.5,1.5,1.5,0,0,0-1.5-1.5m6.782-13.357a1.3,1.3,0,1,0,1.3,1.3,1.3,1.3,0,0,0-1.3-1.3m0,6.782a1.3,1.3,0,1,0,1.3,1.3,1.3,1.3,0,0,0-1.3-1.3m0,6.782a1.3,1.3,0,1,0,1.3,1.3,1.3,1.3,0,0,0-1.3-1.3m0,13.583a1.279,1.279,0,1,0,1.279,1.279,1.279,1.279,0,0,0-1.279-1.279m0-54.276a1.3,1.3,0,1,0,1.3,1.3,1.3,1.3,0,0,0-1.3-1.3m0,20.347a1.3,1.3,0,1,0,1.3,1.3,1.3,1.3,0,0,0-1.3-1.3m0-13.564a1.3,1.3,0,1,0,1.3,1.3,1.3,1.3,0,0,0-1.3-1.3m0,6.782a1.3,1.3,0,1,0,1.3,1.3,1.3,1.3,0,0,0-1.3-1.3m6.782.188a1.11,1.11,0,1,0,1.11,1.109,1.11,1.11,0,0,0-1.11-1.109m20.346-6.18a.508.508,0,1,0,.508.508.508.508,0,0,0-.508-.508m0-6.782a.508.508,0,1,0,.508.508.508.508,0,0,0-.508-.508m0,13.564a.508.508,0,1,0,.508.508.508.508,0,0,0-.508-.508m0-20.347a.508.508,0,1,0,.508.508.508.508,0,0,0-.508-.508m0,27.129a.508.508,0,1,0,.508.508.508.508,0,0,0-.508-.508m-54.257-1.58a2.088,2.088,0,1,0,2.088,2.088,2.087,2.087,0,0,0-2.088-2.088M70.323,68.781a.508.508,0,1,0,.508.508.508.508,0,0,0-.508-.508m0-6.782a.508.508,0,1,0,.508.508A.508.508,0,0,0,70.323,62M63.541,48.227a.715.715,0,1,0,.714.715.715.715,0,0,0-.714-.715m0-13.564a.715.715,0,1,0,.714.715.715.715,0,0,0-.714-.715m0,6.782a.715.715,0,1,0,.714.715.715.715,0,0,0-.714-.715m6.782,34.268a.357.357,0,1,0,.357.357.357.357,0,0,0-.357-.357M63.541,27.881a.715.715,0,1,0,.714.715.715.715,0,0,0-.714-.715m0,33.911a.715.715,0,1,0,.714.715.715.715,0,0,0-.714-.715m0,6.782a.715.715,0,1,0,.714.715.715.715,0,0,0-.714-.715m0-47.475a.715.715,0,1,0,.714.715.715.715,0,0,0-.714-.715m0,54.257a.715.715,0,1,0,.714.715.715.715,0,0,0-.714-.715m0-20.347a.715.715,0,1,0,.714.715.715.715,0,0,0-.714-.715M2.5,39.659A2.5,2.5,0,1,0,5,42.16a2.5,2.5,0,0,0-2.5-2.5m0-1.855A2.426,2.426,0,1,0,.075,35.378,2.426,2.426,0,0,0,2.5,37.8M9.283,26.3A2.294,2.294,0,1,0,11.578,28.6,2.295,2.295,0,0,0,9.283,26.3M2.5,46.535a2.407,2.407,0,1,0,2.407,2.407A2.407,2.407,0,0,0,2.5,46.535m0-16.059a1.881,1.881,0,0,0,0-3.761,1.842,1.842,0,0,0-.824.21c-.3.827-.576,1.669-.831,2.518A1.865,1.865,0,0,0,2.5,30.476m0,23.405A1.831,1.831,0,0,0,.86,54.923c.245.813.506,1.62.8,2.413a1.8,1.8,0,0,0,.846.232,1.843,1.843,0,0,0,0-3.686M9.283,16.648A1.617,1.617,0,0,0,10.9,15.031a1.6,1.6,0,0,0-1.334-1.56c-.61.715-1.206,1.442-1.77,2.195a1.617,1.617,0,0,0,1.487.983m0,2.87a2.294,2.294,0,1,0,2.294,2.294,2.294,2.294,0,0,0-2.294-2.294m0,13.564a2.294,2.294,0,1,0,2.294,2.295,2.295,2.295,0,0,0-2.294-2.295m0,34.607a1.6,1.6,0,0,0-1.474.981c.556.741,1.142,1.458,1.743,2.162a1.577,1.577,0,0,0,1.329-1.544,1.6,1.6,0,0,0-1.6-1.6m0-14.26a2.294,2.294,0,1,0,2.294,2.294A2.294,2.294,0,0,0,9.283,53.43m61.039-44.8a.376.376,0,1,0-.376-.376.376.376,0,0,0,.376.376M9.283,39.865a2.294,2.294,0,1,0,2.294,2.294,2.294,2.294,0,0,0-2.294-2.294m0,20.346a2.294,2.294,0,1,0,2.294,2.295,2.295,2.295,0,0,0-2.294-2.295M70.323,14.523a.508.508,0,1,0,.508.508.508.508,0,0,0-.508-.508M9.283,46.648a2.294,2.294,0,1,0,2.294,2.294,2.295,2.295,0,0,0-2.294-2.294m61.039,8.569a.508.508,0,1,0,.508.508.508.508,0,0,0-.508-.508M49.976,20.7a1.11,1.11,0,1,0,1.11,1.11,1.11,1.11,0,0,0-1.11-1.11m0,6.782a1.11,1.11,0,1,0,1.11,1.11,1.11,1.11,0,0,0-1.11-1.11m0,6.782a1.11,1.11,0,1,0,1.11,1.11,1.11,1.11,0,0,0-1.11-1.11m0-31.729A1.072,1.072,0,1,0,48.9,1.467a1.072,1.072,0,0,0,1.072,1.072m0,11.383a1.11,1.11,0,1,0,1.11,1.11,1.11,1.11,0,0,0-1.11-1.11m0,47.475a1.11,1.11,0,1,0,1.11,1.11,1.11,1.11,0,0,0-1.11-1.11m0-6.782a1.11,1.11,0,1,0,1.11,1.11,1.11,1.11,0,0,0-1.11-1.11m0-6.782a1.11,1.11,0,1,0,1.11,1.11,1.11,1.11,0,0,0-1.11-1.11m-33.911-7.76a2.088,2.088,0,1,0,2.088,2.088,2.088,2.088,0,0,0-2.088-2.088m0-6.782a2.088,2.088,0,1,0,2.088,2.088,2.087,2.087,0,0,0-2.088-2.088M49.976,7.14a1.11,1.11,0,1,0,1.11,1.11,1.11,1.11,0,0,0-1.11-1.11M16.066,26.508A2.088,2.088,0,1,0,18.153,28.6a2.088,2.088,0,0,0-2.088-2.088M49.976,68.179a1.11,1.11,0,1,0,1.11,1.109,1.11,1.11,0,0,0-1.11-1.109M16.066,67.2a2.088,2.088,0,1,0,2.088,2.087A2.088,2.088,0,0,0,16.066,67.2m0-54.257a2.088,2.088,0,1,0,2.088,2.088,2.087,2.087,0,0,0-2.088-2.088m0,6.782a2.088,2.088,0,1,0,2.088,2.088,2.087,2.087,0,0,0-2.088-2.088m40.693,1.185a.9.9,0,1,0,.9.9.9.9,0,0,0-.9-.9m0,47.475a.9.9,0,1,0,.9.9.9.9,0,0,0-.9-.9m0-13.564a.9.9,0,1,0,.9.9.9.9,0,0,0-.9-.9m0,6.782a.9.9,0,1,0,.9.9.9.9,0,0,0-.9-.9m0-13.564a.9.9,0,1,0,.9.9.9.9,0,0,0-.9-.9m0-6.782a.9.9,0,1,0,.9.9.9.9,0,0,0-.9-.9m6.782-26.941a.715.715,0,1,0,.714.715.715.715,0,0,0-.714-.715M56.758,82.176a.677.677,0,1,0,.677.677.677.677,0,0,0-.677-.677m0-7.008a.9.9,0,1,0,.9.9.9.9,0,0,0-.9-.9m0-67.822a.9.9,0,1,0,.9.9.9.9,0,0,0-.9-.9M49.976,74.961a1.11,1.11,0,1,0,1.11,1.11,1.11,1.11,0,0,0-1.11-1.11m0,6.82a1.072,1.072,0,1,0,1.072,1.072,1.072,1.072,0,0,0-1.072-1.072m6.782-47.306a.9.9,0,1,0,.9.9.9.9,0,0,0-.9-.9m0-32.331a.677.677,0,1,0-.677-.677.677.677,0,0,0,.677.677m0,11.984a.9.9,0,1,0,.9.9.9.9,0,0,0-.9-.9m0,13.564a.9.9,0,1,0,.9.9.9.9,0,0,0-.9-.9M63.541,7.534a.715.715,0,1,0,.714.715.715.715,0,0,0-.714-.715" fill="#ff984a"/>
    </g>
  </g>
</svg>
