<svg xmlns="http://www.w3.org/2000/svg" width="160" height="160" viewBox="0 0 160 160">
  <g id="Grupo_1177469" data-name="Grupo 1177469" transform="translate(-383.746 -8399.579)">
    <circle id="Elipse_13609" data-name="Elipse 13609" cx="80" cy="80" r="80" transform="translate(383.746 8399.579)" fill="#fff"/>
    <g id="Grupo_1184108" data-name="Grupo 1184108" transform="translate(425.457 8441.294)">
      <path id="Trazado_1010819" data-name="Trazado 1010819" d="M74.375,65.955H70.767v-1.2a3.609,3.609,0,0,0-3.609-3.609h-1.2V55.129a1.2,1.2,0,0,0-1.2-1.2H57.535a1.2,1.2,0,0,0-1.2,1.2v6.014H53.926V55.129a1.2,1.2,0,0,0-1.2-1.2H45.506a1.2,1.2,0,0,0-1.2,1.2v6.014H41.9V55.129a1.2,1.2,0,0,0-1.2-1.2H33.478a1.2,1.2,0,0,0-1.2,1.2v6.014H29.869V55.129a1.2,1.2,0,0,0-1.2-1.2H21.449a1.2,1.2,0,0,0-1.2,1.2v6.014h-1.2a3.609,3.609,0,0,0-3.609,3.609v1.2H8.217V63.549h1.2a3.609,3.609,0,0,0,3.609-3.609V11.826A3.609,3.609,0,0,0,9.42,8.217h-1.2V2.2A1.2,1.2,0,0,0,7.014,1H2.2A1.2,1.2,0,0,0,1,2.2V74.375a1.2,1.2,0,0,0,1.2,1.2H74.375a1.2,1.2,0,0,0,1.2-1.2V67.158A1.2,1.2,0,0,0,74.375,65.955ZM58.738,56.332h4.811v4.811H58.738Zm-12.029,0h4.811v4.811H46.709Zm-12.029,0h4.811v4.811H34.68Zm-12.029,0h4.811v4.811H22.652Zm-4.811,8.42a1.2,1.2,0,0,1,1.2-1.2H67.158a1.2,1.2,0,0,1,1.2,1.2v1.2H17.84ZM9.42,10.623a1.2,1.2,0,0,1,1.2,1.2V59.941a1.2,1.2,0,0,1-1.2,1.2h-1.2V10.623ZM5.811,3.406V65.955H3.406V3.406ZM73.172,73.172H3.406V68.361H73.172Z" transform="translate(0 0.001)" fill="#53435c"/>
      <path id="Trazado_1010820" data-name="Trazado 1010820" d="M60.027,21.244a4.748,4.748,0,0,0,.682-2.429,4.811,4.811,0,1,0-7.653,3.862l-6.18,15.445a4.33,4.33,0,0,0-3.591,1.007l-6.995-5.252a4.819,4.819,0,1,0-8.575.6L22.245,39.95a4.748,4.748,0,0,0-2.433-.686,4.811,4.811,0,1,0,4.811,4.811,4.748,4.748,0,0,0-.682-2.429l5.471-5.471a4.691,4.691,0,0,0,5.413-.387l7,5.253a4.811,4.811,0,1,0,7.287-2.032L55.3,23.565a4.226,4.226,0,0,0,3.032-.621L63.8,28.415a4.748,4.748,0,0,0-.684,2.429,4.811,4.811,0,1,0,4.811-4.811,4.748,4.748,0,0,0-2.429.682ZM19.811,46.481a2.406,2.406,0,1,1,2.406-2.406A2.406,2.406,0,0,1,19.811,46.481ZM31.84,34.452a2.406,2.406,0,1,1,2.406-2.406A2.406,2.406,0,0,1,31.84,34.452ZM46.275,45.278a2.406,2.406,0,1,1,2.406-2.406A2.406,2.406,0,0,1,46.275,45.278ZM55.9,21.221A2.406,2.406,0,1,1,58.3,18.815,2.406,2.406,0,0,1,55.9,21.221Zm12.029,7.217a2.406,2.406,0,1,1-2.406,2.406A2.406,2.406,0,0,1,67.926,28.438Z" transform="translate(2.84 2.635)" fill="#53435c"/>
      <path id="Trazado_1010821" data-name="Trazado 1010821" d="M18.812,22.653A4.8,4.8,0,0,0,23.1,19.974l13.775,2.9a4.8,4.8,0,1,0,9.071-2.37L58.2,9.782a4.811,4.811,0,1,0-2.1-3.969,4.755,4.755,0,0,0,.529,2.148L44.377,18.683a4.779,4.779,0,0,0-7,1.837L23.6,17.62a4.8,4.8,0,1,0-4.789,5.033Zm42.1-19.246a2.406,2.406,0,1,1-2.406,2.406A2.406,2.406,0,0,1,60.912,3.407ZM41.666,20.247a2.406,2.406,0,1,1-2.406,2.406A2.406,2.406,0,0,1,41.666,20.247ZM18.812,15.435a2.406,2.406,0,1,1-2.406,2.406A2.406,2.406,0,0,1,18.812,15.435Z" transform="translate(2.637 0)" fill="#53435c"/>
    </g>
  </g>
</svg>
