<svg xmlns="http://www.w3.org/2000/svg" width="53" height="53" viewBox="0 0 53 53">
  <g id="Grupo_1184375" data-name="Grupo 1184375" transform="translate(-1 -1)">
    <path id="Trazado_1011237" data-name="Trazado 1011237" d="M16,21H14v1a3,3,0,0,0-3,3v1a3,3,0,0,0,3,3v3a1,1,0,0,1-1-1V30H11v1a3,3,0,0,0,3,3v1h2V34a3,3,0,0,0,3-3V30a3,3,0,0,0-3-3V24a1,1,0,0,1,1,1v1h2V25a3,3,0,0,0-3-3Zm1,9v1a1,1,0,0,1-1,1V29A1,1,0,0,1,17,30Zm-3-3a1,1,0,0,1-1-1V25a1,1,0,0,1,1-1Z" transform="translate(-1.667 -3.75)" fill="#53435c"/>
    <rect id="Rectángulo_459218" data-name="Rectángulo 459218" width="8" height="2" transform="translate(17.667 19.7)" fill="#53435c"/>
    <path id="Trazado_1011238" data-name="Trazado 1011238" d="M38,28A10,10,0,1,0,48,38,10,10,0,0,0,38,28Zm0,18a7.956,7.956,0,0,1-5.273-2H39V42H31.082a7.963,7.963,0,0,1-.819-2H39V38H30a8,8,0,1,1,8,8Z" transform="translate(-5.786 -5.786)" fill="#53435c"/>
    <path id="Trazado_1011239" data-name="Trazado 1011239" d="M53.041,48.413l-6.5-6.5a3.372,3.372,0,0,0-.591-4.01l-1.187-1.185A12.715,12.715,0,0,0,42.032,23.94V8.694a4.279,4.279,0,0,0-4.274-4.274H30.064V3.565A2.565,2.565,0,0,0,27.5,1H15.532a2.565,2.565,0,0,0-2.565,2.565v.855H5.274A4.279,4.279,0,0,0,1,8.694V49.726A4.279,4.279,0,0,0,5.274,54H37.758a4.279,4.279,0,0,0,4.274-4.274V46.66l6.381,6.381a3.273,3.273,0,1,0,4.628-4.628Zm-8.3-9.3a1.71,1.71,0,0,1,0,2.417l-3.212,3.212a1.71,1.71,0,0,1-2.417,0l-.691-.691a12.9,12.9,0,0,0,5.63-5.63ZM25.79,9.548v1.71H17.242V9.548Zm0,3.419v.855a.855.855,0,0,1-.855.855H18.1a.855.855,0,0,1-.855-.855v-.855ZM18.1,16.387h6.839A2.565,2.565,0,0,0,27.5,13.823v-.855h7.694v7.1A12.773,12.773,0,0,0,23.94,23.226H18.1v1.71h4.3a12.737,12.737,0,0,0-2.588,7.694H9.548v1.71H19.934a12.835,12.835,0,0,0,.35,1.71H9.548v1.71H20.884a12.823,12.823,0,0,0,14.309,7.437v1.966H7.839V12.968h7.694v.855A2.565,2.565,0,0,0,18.1,16.387ZM32.629,43.742A11.113,11.113,0,1,1,43.742,32.629,11.113,11.113,0,0,1,32.629,43.742ZM37.758,6.129a2.565,2.565,0,0,1,2.565,2.565v13.7a12.8,12.8,0,0,0-3.419-1.84V12.113a.855.855,0,0,0-.855-.855H27.5V9.548a2.565,2.565,0,0,0,2.565-2.565V6.129ZM14.677,3.565a.855.855,0,0,1,.855-.855H27.5a.855.855,0,0,1,.855.855V6.984a.855.855,0,0,1-.855.855H15.532a.855.855,0,0,1-.855-.855ZM40.322,49.726a2.565,2.565,0,0,1-2.565,2.565H5.274A2.565,2.565,0,0,1,2.71,49.726V8.694A2.565,2.565,0,0,1,5.274,6.129h7.694v.855a2.565,2.565,0,0,0,2.565,2.565v1.71H6.984a.855.855,0,0,0-.855.855v35.9a.855.855,0,0,0,.855.855H36.048a.855.855,0,0,0,.855-.855V44.95l1,1a3.4,3.4,0,0,0,2.417,1ZM50.727,52.29a1.573,1.573,0,0,1-1.105-.457l-6.381-6.381,2.211-2.211,6.381,6.381a1.563,1.563,0,0,1-1.105,2.668Z" fill="#53435c"/>
  </g>
</svg>
