<svg xmlns="http://www.w3.org/2000/svg" width="160" height="160" viewBox="0 0 160 160">
  <g id="Grupo_1183355" data-name="Grupo 1183355" transform="translate(-383.746 -8400)">
    <circle id="Elipse_13609" data-name="Elipse 13609" cx="80" cy="80" r="80" transform="translate(383.746 8400)" fill="#fff"/>
    <path id="Trazado_1010822" data-name="Trazado 1010822" d="M82.164,75.511H80.833V12.975a1.331,1.331,0,0,0-2.271-.941L36.925,53.671l-9.7-9.7a1.331,1.331,0,0,0-1.881,0l-9.7,9.7L8.983,47.018v-12.2L14.7,40.527a1.331,1.331,0,0,0,1.881,0l9.7-9.7,9.7,9.7a1.331,1.331,0,0,0,1.881,0L67.528,10.865v4.771h2.661V7.653a1.331,1.331,0,0,0-1.331-1.331H60.875V8.983h4.771L36.925,37.7l-9.7-9.7a1.331,1.331,0,0,0-1.881,0l-9.7,9.7L8.983,31.052V2.331A1.331,1.331,0,0,0,7.653,1H2.331A1.331,1.331,0,0,0,1,2.331V82.164a1.331,1.331,0,0,0,1.331,1.331H82.164a1.331,1.331,0,0,0,1.331-1.331V76.841A1.331,1.331,0,0,0,82.164,75.511Zm-3.992,0H70.189V24.17l7.983-7.983ZM16.967,56.1,24.95,48.12V75.511H16.967ZM27.611,48.12,35.594,56.1V75.511H27.611ZM38.255,56.1l7.983-7.983V75.511H38.255ZM48.9,75.511V45.46l7.983-7.983V75.511Zm10.644-40.7,7.983-7.983v48.68H59.544ZM14.306,56.1V75.511H8.983V50.781Zm66.528,24.73H3.661V3.661H6.322v73.18a1.331,1.331,0,0,0,1.331,1.331h73.18Z" transform="translate(421.21 8436.332)" fill="#53435c"/>
  </g>
</svg>
