<svg xmlns="http://www.w3.org/2000/svg" xmlns:xlink="http://www.w3.org/1999/xlink" width="291.711" height="237.569" viewBox="0 0 291.711 237.569">
  <defs>
    <clipPath id="clip-path">
      <rect id="Rectángulo_458866" data-name="Rectángulo 458866" width="201.286" height="203.202" fill="none"/>
    </clipPath>
  </defs>
  <g id="Grupo_1183498" data-name="Grupo 1183498" transform="translate(-1122.41 -1406)">
    <rect id="Rectángulo_458088" data-name="Rectángulo 458088" width="291.711" height="237.569" rx="10" transform="translate(1122.41 1406)" fill="#ff984a"/>
    <g id="Grupo_1183531" data-name="Grupo 1183531" transform="translate(1167.622 1423.184)">
      <g id="Grupo_1183530" data-name="Grupo 1183530" clip-path="url(#clip-path)">
        <path id="Trazado_1009992" data-name="Trazado 1009992" d="M152.734,104.62h-8.069a.394.394,0,0,1,0-.787h8.069a.394.394,0,0,1,0,.787" transform="translate(-89.079 -64.111)" fill="#2e186b"/>
        <path id="Trazado_1009993" data-name="Trazado 1009993" d="M340.219,41.992H301.673V228.708h38.546a16.643,16.643,0,0,0,16.628-16.643V58.62a16.639,16.639,0,0,0-16.628-16.628" transform="translate(-186.265 -25.927)" fill="#2e186b"/>
        <path id="Trazado_1009994" data-name="Trazado 1009994" d="M339.584,228.466H301.038a.394.394,0,0,1-.394-.394V41.357a.394.394,0,0,1,.394-.394h38.546a17.041,17.041,0,0,1,17.022,17.021V211.429a17.048,17.048,0,0,1-17.022,17.037m-38.153-.787h38.153a16.26,16.26,0,0,0,16.234-16.249V57.984A16.253,16.253,0,0,0,339.584,41.75H301.431Z" transform="translate(-185.629 -25.292)" fill="#2e186b"/>
        <path id="Trazado_1009995" data-name="Trazado 1009995" d="M223.588,58.62V212.065a16.643,16.643,0,0,1-16.625,16.644H118.979a16.647,16.647,0,0,1-16.641-16.644V58.62a16.641,16.641,0,0,1,16.641-16.629h87.985A16.637,16.637,0,0,1,223.588,58.62" transform="translate(-63.187 -25.927)" fill="#9654ff"/>
        <path id="Trazado_1009996" data-name="Trazado 1009996" d="M122,228.71h-3.02a16.646,16.646,0,0,1-16.64-16.644V58.62a16.64,16.64,0,0,1,16.64-16.628H122a16.64,16.64,0,0,0-16.64,16.628V212.065A16.646,16.646,0,0,0,122,228.71" transform="translate(-63.187 -25.927)" fill="#fff"/>
        <path id="Trazado_1009997" data-name="Trazado 1009997" d="M227.349,92.5V235.228a10.529,10.529,0,0,1-10.5,10.531H128.863a10.532,10.532,0,0,1-10.516-10.531V92.5a10.52,10.52,0,0,1,10.516-10.517h87.983a10.517,10.517,0,0,1,10.5,10.517" transform="translate(-73.072 -50.621)" fill="#fff"/>
        <path id="Trazado_1009998" data-name="Trazado 1009998" d="M225.531,86.593a10.457,10.457,0,0,0-6.22-2.043H131.325A10.516,10.516,0,0,0,120.81,95.065V237.79a10.5,10.5,0,0,0,1.815,5.913,10.519,10.519,0,0,1-4.275-8.472V92.506a10.515,10.515,0,0,1,10.515-10.515H216.85a10.48,10.48,0,0,1,8.68,4.6" transform="translate(-73.074 -50.624)" fill="#9654ff"/>
        <path id="Trazado_1009999" data-name="Trazado 1009999" d="M206.324,228.466H118.341a17.056,17.056,0,0,1-17.036-17.037V57.985a17.048,17.048,0,0,1,17.036-17.022h87.983a17.041,17.041,0,0,1,17.022,17.022V211.429a17.048,17.048,0,0,1-17.022,17.037M118.341,41.75a16.26,16.26,0,0,0-16.249,16.234V211.429a16.268,16.268,0,0,0,16.249,16.249h87.983a16.26,16.26,0,0,0,16.234-16.249V57.985A16.253,16.253,0,0,0,206.324,41.75Z" transform="translate(-62.55 -25.292)" fill="#2e186b"/>
        <path id="Trazado_1010000" data-name="Trazado 1010000" d="M216.212,245.517H128.228a10.93,10.93,0,0,1-10.91-10.925V91.868a10.923,10.923,0,0,1,10.91-10.911h87.983a10.916,10.916,0,0,1,10.9,10.911V234.592a10.923,10.923,0,0,1-10.9,10.925M128.228,81.744a10.134,10.134,0,0,0-10.123,10.123V234.592a10.142,10.142,0,0,0,10.123,10.137h87.983a10.134,10.134,0,0,0,10.108-10.137V91.868a10.127,10.127,0,0,0-10.108-10.123Z" transform="translate(-72.437 -49.986)" fill="#2e186b"/>
        <path id="Trazado_1010001" data-name="Trazado 1010001" d="M308.155,291.32v19.006a2.294,2.294,0,0,1-2.29,2.29h-8.372a2.3,2.3,0,0,1-2.3-2.29V291.32a2.306,2.306,0,0,1,2.3-2.289h8.372a2.3,2.3,0,0,1,2.29,2.289" transform="translate(-182.261 -178.459)" fill="#ff7af1"/>
        <path id="Trazado_1010002" data-name="Trazado 1010002" d="M359.5,190.931v57.411a2.294,2.294,0,0,1-2.29,2.29h-8.373a2.285,2.285,0,0,1-2.29-2.29V190.931a2.285,2.285,0,0,1,2.29-2.29h8.373a2.294,2.294,0,0,1,2.29,2.29" transform="translate(-213.971 -116.474)" fill="#ff7af1"/>
        <path id="Trazado_1010003" data-name="Trazado 1010003" d="M256.835,208.088v50.848a2.3,2.3,0,0,1-2.3,2.29h-8.372a2.294,2.294,0,0,1-2.29-2.29V208.088a2.294,2.294,0,0,1,2.29-2.29h8.372a2.3,2.3,0,0,1,2.3,2.29" transform="translate(-150.574 -127.068)" fill="#ff7af1"/>
        <path id="Trazado_1010004" data-name="Trazado 1010004" d="M154.182,272.447v26.226a2.284,2.284,0,0,1-2.29,2.29H143.52a2.285,2.285,0,0,1-2.29-2.29V272.447a2.285,2.285,0,0,1,2.29-2.29h8.372a2.284,2.284,0,0,1,2.29,2.29" transform="translate(-87.201 -166.805)" fill="#ff7af1"/>
        <path id="Trazado_1010005" data-name="Trazado 1010005" d="M205.5,244.309V281.3a2.285,2.285,0,0,1-2.29,2.29h-8.372a2.294,2.294,0,0,1-2.29-2.29V244.309a2.294,2.294,0,0,1,2.29-2.29h8.372a2.285,2.285,0,0,1,2.29,2.29" transform="translate(-118.887 -149.432)" fill="#ff7af1"/>
        <path id="Trazado_1010006" data-name="Trazado 1010006" d="M300.15,312.618h-2.657a2.3,2.3,0,0,1-2.3-2.291V291.32a2.306,2.306,0,0,1,2.3-2.287h2.657a2.306,2.306,0,0,0-2.3,2.287v19.006a2.3,2.3,0,0,0,2.3,2.291" transform="translate(-182.262 -178.46)" fill="#fff"/>
        <path id="Trazado_1010007" data-name="Trazado 1010007" d="M351.494,250.631h-2.657a2.285,2.285,0,0,1-2.287-2.291V190.931a2.282,2.282,0,0,1,2.287-2.291h2.657a2.282,2.282,0,0,0-2.287,2.291V248.34a2.285,2.285,0,0,0,2.287,2.291" transform="translate(-213.973 -116.474)" fill="#fff"/>
        <path id="Trazado_1010008" data-name="Trazado 1010008" d="M248.817,261.223h-2.657a2.3,2.3,0,0,1-2.287-2.291V208.085a2.3,2.3,0,0,1,2.287-2.291h2.657a2.3,2.3,0,0,0-2.287,2.291v50.847a2.3,2.3,0,0,0,2.287,2.291" transform="translate(-150.576 -127.065)" fill="#fff"/>
        <path id="Trazado_1010009" data-name="Trazado 1010009" d="M146.173,300.966h-2.657a2.288,2.288,0,0,1-2.291-2.291V272.448a2.285,2.285,0,0,1,2.291-2.287h2.657a2.285,2.285,0,0,0-2.291,2.287v26.226a2.289,2.289,0,0,0,2.291,2.291" transform="translate(-87.198 -166.808)" fill="#fff"/>
        <path id="Trazado_1010010" data-name="Trazado 1010010" d="M197.5,283.588H194.84a2.3,2.3,0,0,1-2.287-2.291V244.307a2.3,2.3,0,0,1,2.287-2.291H197.5a2.3,2.3,0,0,0-2.288,2.291V281.3a2.3,2.3,0,0,0,2.288,2.291" transform="translate(-118.89 -149.43)" fill="#fff"/>
        <path id="Trazado_1010011" data-name="Trazado 1010011" d="M305.231,312.374h-8.372a2.694,2.694,0,0,1-2.7-2.684V290.684a2.694,2.694,0,0,1,2.7-2.683h8.372a2.686,2.686,0,0,1,2.684,2.683V309.69a2.687,2.687,0,0,1-2.684,2.684m-8.372-23.586a1.906,1.906,0,0,0-1.911,1.9V309.69a1.906,1.906,0,0,0,1.911,1.9h8.372a1.9,1.9,0,0,0,1.9-1.9V290.684a1.9,1.9,0,0,0-1.9-1.9Z" transform="translate(-181.626 -177.823)" fill="#2e186b"/>
        <path id="Trazado_1010012" data-name="Trazado 1010012" d="M356.574,250.389H348.2a2.686,2.686,0,0,1-2.683-2.684V190.294a2.686,2.686,0,0,1,2.683-2.683h8.373a2.686,2.686,0,0,1,2.684,2.683v57.411a2.687,2.687,0,0,1-2.684,2.684M348.2,188.4a1.9,1.9,0,0,0-1.9,1.9v57.411a1.9,1.9,0,0,0,1.9,1.9h8.373a1.9,1.9,0,0,0,1.9-1.9V190.294a1.9,1.9,0,0,0-1.9-1.9Z" transform="translate(-213.336 -115.838)" fill="#2e186b"/>
        <path id="Trazado_1010013" data-name="Trazado 1010013" d="M253.9,260.984h-8.372a2.687,2.687,0,0,1-2.684-2.684V207.452a2.686,2.686,0,0,1,2.684-2.683H253.9a2.694,2.694,0,0,1,2.7,2.683V258.3a2.694,2.694,0,0,1-2.7,2.684m-8.372-55.427a1.9,1.9,0,0,0-1.9,1.9V258.3a1.9,1.9,0,0,0,1.9,1.9H253.9a1.906,1.906,0,0,0,1.911-1.9V207.452a1.906,1.906,0,0,0-1.911-1.9Z" transform="translate(-149.939 -126.432)" fill="#2e186b"/>
        <path id="Trazado_1010014" data-name="Trazado 1010014" d="M151.257,300.72h-8.372a2.687,2.687,0,0,1-2.684-2.684V271.811a2.687,2.687,0,0,1,2.684-2.684h8.372a2.687,2.687,0,0,1,2.683,2.684v26.226a2.686,2.686,0,0,1-2.683,2.684m-8.372-30.806a1.9,1.9,0,0,0-1.9,1.9v26.226a1.9,1.9,0,0,0,1.9,1.9h8.372a1.9,1.9,0,0,0,1.9-1.9V271.811a1.9,1.9,0,0,0-1.9-1.9Z" transform="translate(-86.566 -166.17)" fill="#2e186b"/>
        <path id="Trazado_1010015" data-name="Trazado 1010015" d="M202.576,283.348H194.2a2.687,2.687,0,0,1-2.684-2.684V243.673a2.686,2.686,0,0,1,2.684-2.683h8.372a2.687,2.687,0,0,1,2.684,2.683v36.991a2.687,2.687,0,0,1-2.684,2.684M194.2,241.777a1.9,1.9,0,0,0-1.9,1.9v36.991a1.9,1.9,0,0,0,1.9,1.9h8.372a1.9,1.9,0,0,0,1.9-1.9V243.673a1.9,1.9,0,0,0-1.9-1.9Z" transform="translate(-118.252 -148.797)" fill="#2e186b"/>
        <path id="Trazado_1010016" data-name="Trazado 1010016" d="M157.523,173.11a.394.394,0,0,1-.239-.707l39.273-29.9a.393.393,0,0,1,.507.025L216.415,160.5l21.9-22.335a.394.394,0,1,1,.562.551L216.71,161.324a.394.394,0,0,1-.549.013l-19.39-18.007-39.01,29.7a.391.391,0,0,1-.238.08" transform="translate(-97.017 -85.235)" fill="#2e186b"/>
        <path id="Trazado_1010017" data-name="Trazado 1010017" d="M360.411,143.63a.394.394,0,0,1-.394-.394v-5.2h-5.2a.394.394,0,0,1,0-.787h5.592a.394.394,0,0,1,.394.394v5.592a.394.394,0,0,1-.394.394" transform="translate(-218.836 -84.744)" fill="#2e186b"/>
        <path id="Trazado_1010018" data-name="Trazado 1010018" d="M195.728,104.62H178.567a.394.394,0,0,1,0-.787h17.161a.394.394,0,1,1,0,.787" transform="translate(-110.011 -64.111)" fill="#2e186b"/>
        <path id="Trazado_1010019" data-name="Trazado 1010019" d="M213.42,123.039h-6.2a.394.394,0,1,1,0-.787h6.2a.394.394,0,0,1,0,.787" transform="translate(-127.703 -75.483)" fill="#2e186b"/>
        <path id="Trazado_1010020" data-name="Trazado 1010020" d="M164.316,123.039h-19.65a.394.394,0,0,1,0-.787h19.65a.394.394,0,1,1,0,.787" transform="translate(-89.079 -75.483)" fill="#2e186b"/>
        <path id="Trazado_1010021" data-name="Trazado 1010021" d="M158.934,143.364H144.666a.394.394,0,0,1,0-.787h14.268a.394.394,0,0,1,0,.787" transform="translate(-89.079 -88.033)" fill="#2e186b"/>
        <path id="Trazado_1010022" data-name="Trazado 1010022" d="M217.077,383.858h-7.882a.394.394,0,1,1,0-.787h7.882a.394.394,0,0,1,0,.787" transform="translate(-128.922 -236.523)" fill="#2e186b"/>
        <path id="Trazado_1010023" data-name="Trazado 1010023" d="M271.035,383.858H241.761a.394.394,0,0,1,0-.787h29.275a.394.394,0,0,1,0,.787" transform="translate(-149.029 -236.523)" fill="#2e186b"/>
        <path id="Trazado_1010024" data-name="Trazado 1010024" d="M347.22,383.858H328.437a.394.394,0,0,1,0-.787H347.22a.394.394,0,1,1,0,.787" transform="translate(-202.547 -236.523)" fill="#2e186b"/>
        <path id="Trazado_1010025" data-name="Trazado 1010025" d="M235.693,400.15h-26.5a.394.394,0,1,1,0-.787h26.5a.394.394,0,1,1,0,.787" transform="translate(-128.922 -246.582)" fill="#2e186b"/>
        <path id="Trazado_1010026" data-name="Trazado 1010026" d="M314.385,400.15H288.159a.394.394,0,0,1,0-.787h26.226a.394.394,0,0,1,0,.787" transform="translate(-177.677 -246.582)" fill="#2e186b"/>
        <path id="Trazado_1010027" data-name="Trazado 1010027" d="M369.958,400.15h-4.7a.394.394,0,0,1,0-.787h4.7a.394.394,0,1,1,0,.787" transform="translate(-225.284 -246.582)" fill="#2e186b"/>
        <path id="Trazado_1010028" data-name="Trazado 1010028" d="M240.483,416.443H209.2a.394.394,0,0,1,0-.787h31.287a.394.394,0,1,1,0,.787" transform="translate(-128.923 -256.642)" fill="#2e186b"/>
        <path id="Trazado_1010029" data-name="Trazado 1010029" d="M308.114,416.443h-7.3a.394.394,0,1,1,0-.787h7.3a.394.394,0,1,1,0,.787" transform="translate(-185.494 -256.642)" fill="#2e186b"/>
        <path id="Trazado_1010030" data-name="Trazado 1010030" d="M147.809,56.431a3.312,3.312,0,1,1-3.312-3.312,3.312,3.312,0,0,1,3.312,3.312" transform="translate(-87.173 -32.798)" fill="#fff"/>
        <path id="Trazado_1010031" data-name="Trazado 1010031" d="M143.861,59.5a3.706,3.706,0,1,1,3.706-3.706,3.71,3.71,0,0,1-3.706,3.706m0-6.624A2.919,2.919,0,1,0,146.78,55.8a2.922,2.922,0,0,0-2.919-2.919" transform="translate(-86.537 -32.162)" fill="#2e186b"/>
        <path id="Trazado_1010032" data-name="Trazado 1010032" d="M174.866,58.124a2.263,2.263,0,1,1-2.263-2.263,2.263,2.263,0,0,1,2.263,2.263" transform="translate(-105.175 -34.491)" fill="#fff"/>
        <path id="Trazado_1010033" data-name="Trazado 1010033" d="M171.968,60.146a2.657,2.657,0,1,1,2.657-2.657,2.66,2.66,0,0,1-2.657,2.657m0-4.526a1.87,1.87,0,1,0,1.87,1.87,1.872,1.872,0,0,0-1.87-1.87" transform="translate(-104.539 -33.855)" fill="#2e186b"/>
        <path id="Trazado_1010034" data-name="Trazado 1010034" d="M148.977,395.344a8.76,8.76,0,1,1,4.578-16.231.394.394,0,1,1-.412.671,7.974,7.974,0,1,0,3.807,6.8,8.041,8.041,0,0,0-.138-1.483.394.394,0,1,1,.774-.145,8.768,8.768,0,0,1-8.609,10.388" transform="translate(-86.575 -233.283)" fill="#2e186b"/>
        <path id="Trazado_1010035" data-name="Trazado 1010035" d="M159.851,388.315a.393.393,0,0,1-.278-.115l-2.687-2.687a.394.394,0,0,1,.557-.557l2.409,2.409,9.427-9.426a.394.394,0,1,1,.557.557l-9.7,9.7a.394.394,0,0,1-.279.115" transform="translate(-96.796 -233.283)" fill="#2e186b"/>
        <path id="Trazado_1010036" data-name="Trazado 1010036" d="M217.077,444.584h-7.882a.394.394,0,1,1,0-.787h7.882a.394.394,0,0,1,0,.787" transform="translate(-128.922 -274.018)" fill="#2e186b"/>
        <path id="Trazado_1010037" data-name="Trazado 1010037" d="M271.035,444.584H241.761a.394.394,0,1,1,0-.787h29.275a.394.394,0,0,1,0,.787" transform="translate(-149.029 -274.018)" fill="#2e186b"/>
        <path id="Trazado_1010038" data-name="Trazado 1010038" d="M338.855,444.584H328.437a.394.394,0,0,1,0-.787h10.418a.394.394,0,1,1,0,.787" transform="translate(-202.547 -274.018)" fill="#2e186b"/>
        <path id="Trazado_1010039" data-name="Trazado 1010039" d="M235.693,460.876h-26.5a.394.394,0,1,1,0-.787h26.5a.394.394,0,1,1,0,.787" transform="translate(-128.922 -284.077)" fill="#2e186b"/>
        <path id="Trazado_1010040" data-name="Trazado 1010040" d="M314.385,460.876H288.159a.394.394,0,0,1,0-.787h26.226a.394.394,0,0,1,0,.787" transform="translate(-177.677 -284.077)" fill="#2e186b"/>
        <path id="Trazado_1010041" data-name="Trazado 1010041" d="M240.483,477.169H209.2a.394.394,0,0,1,0-.787h31.287a.394.394,0,0,1,0,.787" transform="translate(-128.923 -294.137)" fill="#2e186b"/>
        <path id="Trazado_1010042" data-name="Trazado 1010042" d="M308.114,477.169h-7.3a.394.394,0,1,1,0-.787h7.3a.394.394,0,1,1,0,.787" transform="translate(-185.494 -294.137)" fill="#2e186b"/>
        <path id="Trazado_1010043" data-name="Trazado 1010043" d="M148.977,456.07a8.76,8.76,0,1,1,4.578-16.231.394.394,0,1,1-.412.671,7.974,7.974,0,1,0,3.807,6.8,8.041,8.041,0,0,0-.138-1.483.394.394,0,1,1,.774-.145,8.768,8.768,0,0,1-8.609,10.388" transform="translate(-86.575 -270.777)" fill="#2e186b"/>
        <path id="Trazado_1010044" data-name="Trazado 1010044" d="M159.851,449.041a.392.392,0,0,1-.278-.115l-2.687-2.687a.394.394,0,0,1,.557-.557l2.409,2.409,9.427-9.427a.394.394,0,1,1,.557.557l-9.7,9.705a.393.393,0,0,1-.279.115" transform="translate(-96.796 -270.777)" fill="#2e186b"/>
        <path id="Trazado_1010045" data-name="Trazado 1010045" d="M447.688,475.644l-.169,8.62c-.132,6.684-10.942,11.895-24.148,11.635-.513-.01-1.02-.027-1.525-.059q-2.167-.109-4.212-.406a40.664,40.664,0,0,1-5.3-1.124c-.774-.221-1.525-.463-2.246-.726-6.34-2.3-10.464-6.07-10.382-10.26l.169-8.62c-.132,6.683,10.466,12.316,23.664,12.575s24.016-4.951,24.148-11.635" transform="translate(-246.793 -293.101)" fill="#ff7af1"/>
        <path id="Trazado_1010046" data-name="Trazado 1010046" d="M447.862,475.644l-.062,3.133c-.132,6.683-10.942,11.895-24.148,11.635s-23.8-5.892-23.664-12.575l.062-3.133c-.132,6.683,10.466,12.316,23.664,12.575s24.016-4.951,24.148-11.635" transform="translate(-246.967 -293.101)" fill="#fff"/>
        <path id="Trazado_1010047" data-name="Trazado 1010047" d="M429.234,506.935l-.143,7.248c-.774-.221-1.525-.463-2.246-.726l.129-6.566Z" transform="translate(-263.551 -312.974)" fill="#fff"/>
        <path id="Trazado_1010048" data-name="Trazado 1010048" d="M450.923,510.719l-.144,7.307c-1.444-.073-2.851-.21-4.212-.406l.137-6.984Z" transform="translate(-275.728 -315.287)" fill="#fff"/>
        <path id="Trazado_1010049" data-name="Trazado 1010049" d="M423.665,495.667q-.468,0-.94-.009a38.675,38.675,0,0,1-17.007-3.925c-4.608-2.449-7.108-5.664-7.042-9.052l.17-8.62a.394.394,0,0,1,.4-.386l47.809.94a.394.394,0,0,1,.386.4l-.169,8.62c-.132,6.73-10.637,12.03-23.608,12.03m-24.04-21.2-.161,8.227c-.061,3.077,2.292,6.04,6.623,8.342a37.887,37.887,0,0,0,16.653,3.832c12.976.261,23.619-4.792,23.746-11.249l.162-8.227Z" transform="translate(-246.157 -292.465)" fill="#2e186b"/>
        <path id="Trazado_1010050" data-name="Trazado 1010050" d="M447.958,456.851c-.132,6.686-10.94,11.895-24.143,11.635s-23.8-5.89-23.667-12.576,10.941-11.895,24.143-11.635,23.8,5.89,23.667,12.576" transform="translate(-247.066 -274.307)" fill="#fff"/>
        <path id="Trazado_1010051" data-name="Trazado 1010051" d="M453.783,468.62c-.48,3.873-7.5,6.832-16.014,6.665-7.248-.143-13.33-2.508-15.17-5.612.48-3.873,7.5-6.832,16.014-6.665,7.248.142,13.33,2.508,15.17,5.612" transform="translate(-260.929 -285.875)" fill="#ff7af1"/>
        <path id="Trazado_1010052" data-name="Trazado 1010052" d="M452.881,464.393a2.859,2.859,0,0,1-.029.359c-1.84-3.1-7.922-5.47-15.17-5.612-8.518-.168-15.534,2.792-16.014,6.665a3.777,3.777,0,0,1-.576-2.037c.08-4.05,7.261-7.2,16.035-7.024s15.833,3.6,15.754,7.649" transform="translate(-259.998 -282.007)" fill="#fff"/>
        <path id="Trazado_1010053" data-name="Trazado 1010053" d="M424.13,468.253q-.477,0-.958-.01c-13.4-.264-24.188-6.085-24.053-12.976.067-3.389,2.692-6.5,7.393-8.769a38.726,38.726,0,0,1,17.151-3.252,44.491,44.491,0,0,1,10.007,1.3.394.394,0,1,1-.193.763,43.7,43.7,0,0,0-9.829-1.276,37.831,37.831,0,0,0-16.794,3.174c-4.419,2.13-6.886,5-6.947,8.075-.127,6.458,10.317,11.919,23.281,12.174a37.869,37.869,0,0,0,16.794-3.174c4.419-2.13,6.887-5,6.947-8.075.067-3.362-2.812-6.632-7.9-8.972a.394.394,0,0,1,.329-.715c5.383,2.476,8.428,6.013,8.355,9.7-.067,3.389-2.692,6.5-7.393,8.769a38.11,38.11,0,0,1-16.194,3.261" transform="translate(-246.432 -273.672)" fill="#2e186b"/>
        <path id="Trazado_1010054" data-name="Trazado 1010054" d="M436.912,471.183c-.239,0-.477,0-.719-.007a27.976,27.976,0,0,1-11.362-2.41c-3.121-1.515-4.817-3.519-4.776-5.641s1.815-4.057,4.994-5.449a.394.394,0,1,1,.316.721c-2.881,1.261-4.487,2.946-4.522,4.743s1.5,3.544,4.332,4.917a27.179,27.179,0,0,0,11.033,2.331c8.552.168,15.563-2.81,15.639-6.638s-6.818-7.08-15.366-7.248a31.907,31.907,0,0,0-6.123.449.394.394,0,1,1-.136-.775,32.809,32.809,0,0,1,6.274-.461c9.134.18,16.223,3.716,16.138,8.05-.083,4.22-6.932,7.417-15.723,7.417" transform="translate(-259.358 -281.373)" fill="#2e186b"/>
        <path id="Trazado_1010055" data-name="Trazado 1010055" d="M420.547,425.093l-.169,8.62c-.132,6.684-10.942,11.895-24.148,11.635-.513-.01-1.02-.027-1.525-.059q-2.167-.109-4.212-.406a40.728,40.728,0,0,1-5.3-1.124c-.774-.221-1.525-.463-2.246-.727-6.34-2.3-10.464-6.07-10.382-10.26l.169-8.62c-.132,6.683,10.466,12.316,23.664,12.575s24.016-4.951,24.148-11.635" transform="translate(-230.035 -261.889)" fill="#ff7af1"/>
        <path id="Trazado_1010056" data-name="Trazado 1010056" d="M420.721,425.093l-.062,3.133c-.132,6.683-10.942,11.895-24.148,11.635s-23.8-5.892-23.664-12.575l.062-3.133c-.132,6.683,10.466,12.316,23.664,12.575s24.016-4.951,24.148-11.635" transform="translate(-230.21 -261.889)" fill="#fff"/>
        <path id="Trazado_1010057" data-name="Trazado 1010057" d="M402.093,456.383l-.143,7.248c-.773-.221-1.524-.463-2.246-.727l.129-6.566Z" transform="translate(-246.793 -281.762)" fill="#fff"/>
        <path id="Trazado_1010058" data-name="Trazado 1010058" d="M423.783,460.168l-.144,7.307c-1.444-.073-2.851-.21-4.212-.406l.137-6.984Z" transform="translate(-258.971 -284.074)" fill="#fff"/>
        <path id="Trazado_1010059" data-name="Trazado 1010059" d="M396.525,445.116q-.468,0-.94-.009c-13.4-.264-24.184-6.085-24.049-12.977l.17-8.621a.394.394,0,0,1,.4-.386l47.81.94a.394.394,0,0,1,.386.4l-.17,8.621c-.132,6.73-10.637,12.03-23.608,12.03m-24.04-21.2-.161,8.227c-.127,6.458,10.315,11.919,23.276,12.174s23.619-4.791,23.746-11.249l.162-8.227Z" transform="translate(-229.4 -261.253)" fill="#2e186b"/>
        <path id="Trazado_1010060" data-name="Trazado 1010060" d="M420.818,406.3c-.132,6.686-10.941,11.895-24.143,11.635s-23.8-5.89-23.667-12.576,10.941-11.895,24.143-11.635,23.8,5.89,23.667,12.576" transform="translate(-230.309 -243.095)" fill="#fff"/>
        <path id="Trazado_1010061" data-name="Trazado 1010061" d="M426.643,418.069c-.48,3.873-7.5,6.832-16.014,6.665-7.248-.143-13.33-2.508-15.17-5.612.48-3.873,7.5-6.832,16.014-6.665,7.248.142,13.33,2.508,15.17,5.612" transform="translate(-244.172 -254.663)" fill="#ff7af1"/>
        <path id="Trazado_1010062" data-name="Trazado 1010062" d="M425.74,413.842a2.935,2.935,0,0,1-.029.359c-1.84-3.1-7.922-5.47-15.17-5.612-8.518-.168-15.534,2.792-16.014,6.665a3.78,3.78,0,0,1-.577-2.037c.08-4.05,7.261-7.2,16.035-7.024s15.833,3.6,15.754,7.649" transform="translate(-243.24 -250.795)" fill="#fff"/>
        <path id="Trazado_1010063" data-name="Trazado 1010063" d="M396.989,417.7q-.477,0-.958-.01c-13.4-.264-24.188-6.085-24.053-12.977.067-3.389,2.692-6.5,7.393-8.769a38.75,38.75,0,0,1,17.152-3.252A44.518,44.518,0,0,1,406.53,394a.394.394,0,0,1-.193.764,43.7,43.7,0,0,0-9.828-1.276,37.874,37.874,0,0,0-16.795,3.174c-4.419,2.13-6.886,5-6.947,8.075-.127,6.458,10.317,11.919,23.281,12.174a37.857,37.857,0,0,0,16.794-3.174c4.42-2.13,6.887-5,6.947-8.076.066-3.362-2.813-6.632-7.9-8.971a.394.394,0,0,1,.329-.716c5.383,2.476,8.428,6.013,8.356,9.7-.067,3.389-2.692,6.5-7.393,8.769a38.1,38.1,0,0,1-16.194,3.262" transform="translate(-229.674 -242.46)" fill="#2e186b"/>
        <path id="Trazado_1010064" data-name="Trazado 1010064" d="M409.772,420.631q-.358,0-.72-.007a27.976,27.976,0,0,1-11.362-2.409c-3.121-1.516-4.817-3.519-4.776-5.641s1.815-4.057,4.994-5.449a.394.394,0,1,1,.316.721c-2.881,1.262-4.487,2.946-4.522,4.743s1.5,3.544,4.332,4.917a27.173,27.173,0,0,0,11.033,2.33c8.549.168,15.563-2.81,15.639-6.638.036-1.8-1.5-3.544-4.332-4.917a27.181,27.181,0,0,0-11.033-2.33,31.822,31.822,0,0,0-6.123.449.394.394,0,0,1-.136-.775,32.71,32.71,0,0,1,6.274-.461,27.972,27.972,0,0,1,11.362,2.409c3.121,1.516,4.817,3.519,4.775,5.641-.083,4.22-6.931,7.416-15.722,7.417" transform="translate(-242.6 -250.159)" fill="#2e186b"/>
        <path id="Trazado_1010065" data-name="Trazado 1010065" d="M107.256,425.8h-5.085v39.9h1.973a8.22,8.22,0,0,0,8.206-8.223V445.659a2.536,2.536,0,0,0,1.848-2.443v-10.47a6.947,6.947,0,0,0-6.942-6.942" transform="translate(-63.084 -262.908)" fill="#2e186b"/>
        <path id="Trazado_1010066" data-name="Trazado 1010066" d="M103.509,465.457h-1.973a.394.394,0,0,1-.394-.394v-39.9a.394.394,0,0,1,.394-.394h5.085a7.344,7.344,0,0,1,7.336,7.336V442.58a2.939,2.939,0,0,1-1.848,2.726v11.535a8.618,8.618,0,0,1-8.6,8.616m-1.58-.787h1.58a7.829,7.829,0,0,0,7.812-7.829V445.024a.394.394,0,0,1,.288-.379,2.146,2.146,0,0,0,1.56-2.064V432.111a6.556,6.556,0,0,0-6.548-6.549h-4.691Z" transform="translate(-62.449 -262.273)" fill="#2e186b"/>
        <path id="Trazado_1010067" data-name="Trazado 1010067" d="M50.252,454.048v20.865a8.218,8.218,0,0,1-8.21,8.223H14.156a8.221,8.221,0,0,1-8.223-8.223V454.048Z" transform="translate(-3.663 -280.347)" fill="#ff7af1"/>
        <rect id="Rectángulo_458865" data-name="Rectángulo 458865" width="44.318" height="5.297" transform="translate(2.27 178.998)" fill="#fff"/>
        <path id="Trazado_1010068" data-name="Trazado 1010068" d="M7.777,473.422H5.929v13.455A8.233,8.233,0,0,0,7.8,492.107a6.23,6.23,0,0,1-.028-.646Z" transform="translate(-3.661 -292.309)" fill="#fff"/>
        <path id="Trazado_1010069" data-name="Trazado 1010069" d="M49.617,448.806H5.3a.394.394,0,0,1-.394-.394v-3.1a.393.393,0,0,1,.394-.394H49.617a.394.394,0,0,1,.394.394v3.1a.394.394,0,0,1-.394.394m-43.925-.787H49.223v-2.311H5.692Z" transform="translate(-3.029 -274.711)" fill="#2e186b"/>
        <path id="Trazado_1010070" data-name="Trazado 1010070" d="M56.441,419.267a1.293,1.293,0,0,1-1.293-1.293v-2.828a1.537,1.537,0,0,0-1.535-1.535H41.893a1.537,1.537,0,0,0-1.536,1.535v2.828a1.293,1.293,0,1,1-2.586,0v-2.828a4.126,4.126,0,0,1,4.121-4.121H53.612a4.126,4.126,0,0,1,4.121,4.121v2.828a1.293,1.293,0,0,1-1.293,1.293" transform="translate(-23.322 -253.783)" fill="#9654ff"/>
        <path id="Trazado_1010071" data-name="Trazado 1010071" d="M57.734,415.142v1.2a4.125,4.125,0,0,0-4.122-4.122H41.9a4.125,4.125,0,0,0-4.122,4.122v-1.2A4.125,4.125,0,0,1,41.9,411.02H53.612a4.125,4.125,0,0,1,4.122,4.122" transform="translate(-23.323 -253.78)" fill="#fff"/>
        <path id="Trazado_1010072" data-name="Trazado 1010072" d="M55.805,419.025a1.688,1.688,0,0,1-1.686-1.687V414.51a1.143,1.143,0,0,0-1.142-1.142H41.258a1.143,1.143,0,0,0-1.142,1.142v2.828a1.687,1.687,0,1,1-3.373,0V414.51a4.52,4.52,0,0,1,4.515-4.515H52.977a4.52,4.52,0,0,1,4.515,4.515v2.828a1.689,1.689,0,0,1-1.687,1.687m-14.547-6.444H52.977a1.931,1.931,0,0,1,1.929,1.929v2.828a.9.9,0,1,0,1.8,0V414.51a3.732,3.732,0,0,0-3.728-3.728H41.258a3.732,3.732,0,0,0-3.728,3.728v2.828a.9.9,0,1,0,1.8,0V414.51a1.931,1.931,0,0,1,1.929-1.929" transform="translate(-22.687 -253.147)" fill="#2e186b"/>
        <path id="Trazado_1010073" data-name="Trazado 1010073" d="M41.407,482.894H13.522a8.626,8.626,0,0,1-8.617-8.616V453.413a.394.394,0,0,1,.394-.394H49.617a.394.394,0,0,1,.394.394v20.865a8.62,8.62,0,0,1-8.6,8.616M5.692,453.806v20.472a7.838,7.838,0,0,0,7.829,7.829H41.407a7.832,7.832,0,0,0,7.816-7.829V453.806Z" transform="translate(-3.029 -279.712)" fill="#2e186b"/>
        <path id="Trazado_1010074" data-name="Trazado 1010074" d="M49.137,432.745v10.471a2.538,2.538,0,0,1-2.538,2.538H3.665a2.529,2.529,0,0,1-2.527-2.538V432.745a6.937,6.937,0,0,1,6.93-6.94H42.2a6.946,6.946,0,0,1,6.94,6.94" transform="translate(-0.703 -262.909)" fill="#ff7af1"/>
        <path id="Trazado_1010075" data-name="Trazado 1010075" d="M49.142,432.746V434.8a6.945,6.945,0,0,0-6.942-6.937H8.073A6.936,6.936,0,0,0,1.142,434.8v-2.056A6.937,6.937,0,0,1,8.073,425.8H42.2a6.947,6.947,0,0,1,6.942,6.942" transform="translate(-0.705 -262.908)" fill="#fff"/>
        <path id="Trazado_1010076" data-name="Trazado 1010076" d="M45.965,445.513H30.783a.394.394,0,0,1,0-.787H45.965a2.146,2.146,0,0,0,2.144-2.144V432.11a6.554,6.554,0,0,0-6.547-6.547H7.433A6.549,6.549,0,0,0,.9,432.11v10.472a2.141,2.141,0,0,0,2.133,2.144H25.22a.394.394,0,0,1,0,.787H3.03a2.929,2.929,0,0,1-2.92-2.931V432.11a7.337,7.337,0,0,1,7.323-7.334H41.562A7.343,7.343,0,0,1,48.9,432.11v10.472a2.935,2.935,0,0,1-2.932,2.931" transform="translate(-0.068 -262.273)" fill="#2e186b"/>
        <path id="Trazado_1010077" data-name="Trazado 1010077" d="M52.312,439.275H16.757a.394.394,0,1,1,0-.787H52.312a.394.394,0,1,1,0,.787" transform="translate(-10.103 -270.74)" fill="#2e186b"/>
        <path id="Trazado_1010078" data-name="Trazado 1010078" d="M30.519,442.867a.394.394,0,0,1-.394-.394v-3.591a.394.394,0,0,1,.787,0v3.591a.394.394,0,0,1-.394.394" transform="translate(-18.6 -270.74)" fill="#2e186b"/>
        <path id="Trazado_1010079" data-name="Trazado 1010079" d="M26.691,469.926V473.3a2.252,2.252,0,0,1-4.5,0v-3.378a2.252,2.252,0,1,1,4.5,0" transform="translate(-13.699 -288.76)" fill="#9654ff"/>
        <path id="Trazado_1010080" data-name="Trazado 1010080" d="M25.034,475.472a2.125,2.125,0,0,1-.6.085,2.256,2.256,0,0,1-2.252-2.253v-3.375a2.252,2.252,0,0,1,2.252-2.253,2.126,2.126,0,0,1,.6.084,2.245,2.245,0,0,0-1.657,2.168V473.3a2.249,2.249,0,0,0,1.657,2.168" transform="translate(-13.695 -288.761)" fill="#fff"/>
        <path id="Trazado_1010081" data-name="Trazado 1010081" d="M23.8,475.313a2.648,2.648,0,0,1-2.645-2.645V469.29a2.645,2.645,0,1,1,5.291,0v3.378a2.648,2.648,0,0,1-2.645,2.645m0-7.881a1.86,1.86,0,0,0-1.858,1.858v3.378a1.858,1.858,0,0,0,3.716,0V469.29a1.851,1.851,0,0,0-1.858-1.858" transform="translate(-13.064 -288.125)" fill="#2e186b"/>
        <path id="Trazado_1010082" data-name="Trazado 1010082" d="M98.292,469.926V473.3a2.252,2.252,0,0,1-4.5,0v-3.378a2.252,2.252,0,1,1,4.5,0" transform="translate(-57.908 -288.76)" fill="#9654ff"/>
        <path id="Trazado_1010083" data-name="Trazado 1010083" d="M96.641,475.472a2.125,2.125,0,0,1-.6.085,2.256,2.256,0,0,1-2.252-2.253v-3.375a2.252,2.252,0,0,1,2.252-2.253,2.126,2.126,0,0,1,.6.084,2.245,2.245,0,0,0-1.657,2.168V473.3a2.249,2.249,0,0,0,1.657,2.168" transform="translate(-57.908 -288.761)" fill="#fff"/>
        <path id="Trazado_1010084" data-name="Trazado 1010084" d="M95.4,475.313a2.648,2.648,0,0,1-2.645-2.645V469.29a2.645,2.645,0,1,1,5.291,0v3.378a2.648,2.648,0,0,1-2.645,2.645m0-7.881a1.86,1.86,0,0,0-1.858,1.858v3.378a1.858,1.858,0,0,0,3.716,0V469.29a1.852,1.852,0,0,0-1.858-1.858" transform="translate(-57.273 -288.125)" fill="#2e186b"/>
        <path id="Trazado_1010085" data-name="Trazado 1010085" d="M65.831,482.892c-1.33,2.3-2.956,3.855-3.631,3.465s-.144-2.573,1.186-4.877,2.956-3.855,3.631-3.465.145,2.573-1.186,4.877" transform="translate(-38.224 -295.108)" fill="#fff"/>
        <path id="Trazado_1010086" data-name="Trazado 1010086" d="M11.214,32.064A6.684,6.684,0,0,1,17.9,25.383V14.164A17.9,17.9,0,0,0,.682,36.955l10.791-3.063a6.683,6.683,0,0,1-.259-1.827" transform="translate(0 -8.745)" fill="#2e186b"/>
        <path id="Trazado_1010087" data-name="Trazado 1010087" d="M64.692,32.064a17.9,17.9,0,0,0-17.9-17.9V25.383a6.679,6.679,0,0,1,3.545,12.345l5.953,9.507a17.883,17.883,0,0,0,8.4-15.171" transform="translate(-28.891 -8.745)" fill="#ff7af1"/>
        <path id="Trazado_1010088" data-name="Trazado 1010088" d="M19,70.592a6.682,6.682,0,0,1-6.428-4.859L1.783,68.8A17.9,17.9,0,0,0,28.5,79.076l-5.953-9.507A6.649,6.649,0,0,1,19,70.592" transform="translate(-1.101 -40.586)" fill="#9654ff"/>
        <path id="Trazado_1010089" data-name="Trazado 1010089" d="M483.843,77.583h-6.656V108.17h6.656a4.637,4.637,0,0,0,4.639-4.639V82.222a4.637,4.637,0,0,0-4.639-4.639" transform="translate(-294.634 -47.903)" fill="#2e186b"/>
        <path id="Trazado_1010090" data-name="Trazado 1010090" d="M483.207,107.928h-6.656a.394.394,0,0,1-.394-.394V76.947a.394.394,0,0,1,.394-.394h6.656a5.038,5.038,0,0,1,5.032,5.032V102.9a5.038,5.038,0,0,1-5.032,5.032m-6.262-.787h6.262a4.249,4.249,0,0,0,4.245-4.245V81.585a4.249,4.249,0,0,0-4.245-4.245h-6.262Z" transform="translate(-293.999 -47.267)" fill="#2e186b"/>
        <path id="Trazado_1010091" data-name="Trazado 1010091" d="M432.37,82.221v21.31a4.637,4.637,0,0,1-4.639,4.639H406.4a3.391,3.391,0,0,0-2.006.658l-7.616,5.622a2.071,2.071,0,0,1-3.3-1.665V82.221a4.636,4.636,0,0,1,4.639-4.638h29.617a4.636,4.636,0,0,1,4.639,4.638" transform="translate(-242.947 -47.903)" fill="#fff"/>
        <path id="Trazado_1010092" data-name="Trazado 1010092" d="M394.913,114.614a2.469,2.469,0,0,1-2.466-2.464V81.586a5.038,5.038,0,0,1,5.032-5.032H427.1a5.037,5.037,0,0,1,5.032,5.032V102.9a5.038,5.038,0,0,1-5.032,5.032H405.761a2.98,2.98,0,0,0-1.773.582l-7.615,5.621a2.458,2.458,0,0,1-1.46.482m2.566-37.273a4.25,4.25,0,0,0-4.245,4.245V112.15a1.677,1.677,0,0,0,2.672,1.348l7.615-5.621a3.764,3.764,0,0,1,2.24-.735H427.1a4.25,4.25,0,0,0,4.245-4.245V81.586a4.249,4.249,0,0,0-4.245-4.245Z" transform="translate(-242.312 -47.267)" fill="#2e186b"/>
        <path id="Trazado_1010093" data-name="Trazado 1010093" d="M415.833,113.219a4.561,4.561,0,0,1-4.556-4.556.394.394,0,0,1,.787,0,3.769,3.769,0,1,0,3.769-3.769,4.556,4.556,0,1,1,4.556-4.556.394.394,0,1,1-.787,0,3.769,3.769,0,1,0-3.769,3.768,4.556,4.556,0,0,1,0,9.112" transform="translate(-253.938 -59.14)" fill="#2e186b"/>
        <path id="Trazado_1010094" data-name="Trazado 1010094" d="M422.551,112.153a.394.394,0,0,1-.394-.394V91.641a.394.394,0,0,1,.787,0V111.76a.394.394,0,0,1-.394.394" transform="translate(-260.656 -56.339)" fill="#2e186b"/>
        <path id="Trazado_1010095" data-name="Trazado 1010095" d="M459.132,97.456H448.88a.394.394,0,0,1,0-.787h10.253a.394.394,0,1,1,0,.787" transform="translate(-276.913 -59.687)" fill="#2e186b"/>
        <path id="Trazado_1010096" data-name="Trazado 1010096" d="M459.132,111.372H448.88a.394.394,0,0,1,0-.787h10.253a.394.394,0,1,1,0,.787" transform="translate(-276.913 -68.279)" fill="#2e186b"/>
        <path id="Trazado_1010097" data-name="Trazado 1010097" d="M459.132,125.288H448.88a.394.394,0,0,1,0-.787h10.253a.394.394,0,1,1,0,.787" transform="translate(-276.913 -76.872)" fill="#2e186b"/>
        <path id="Trazado_1010098" data-name="Trazado 1010098" d="M454.447,139.2h-5.567a.394.394,0,1,1,0-.787h5.567a.394.394,0,0,1,0,.787" transform="translate(-276.913 -85.463)" fill="#2e186b"/>
        <path id="Trazado_1010099" data-name="Trazado 1010099" d="M277.9,9.461a.394.394,0,0,1-.283-.668L286.037.119a.394.394,0,0,1,.565.548l-8.419,8.675a.4.4,0,0,1-.283.119" transform="translate(-171.344 0)" fill="#2e186b"/>
        <path id="Trazado_1010100" data-name="Trazado 1010100" d="M254.35,13.057a.394.394,0,0,1-.283-.668l8.419-8.674a.394.394,0,1,1,.565.548l-8.419,8.674a.393.393,0,0,1-.283.119" transform="translate(-156.803 -2.22)" fill="#2e186b"/>
        <path id="Trazado_1010101" data-name="Trazado 1010101" d="M28.017,278.93a.394.394,0,0,1-.281-.669l10.658-10.885a.394.394,0,0,1,.563.551L28.3,278.811a.393.393,0,0,1-.281.118" transform="translate(-17.055 -165.015)" fill="#2e186b"/>
        <path id="Trazado_1010102" data-name="Trazado 1010102" d="M30.388,300.206a.393.393,0,0,1-.276-.674l5.9-5.783a.393.393,0,1,1,.551.562l-5.9,5.783a.391.391,0,0,1-.275.113" transform="translate(-18.52 -181.302)" fill="#2e186b"/>
        <path id="Trazado_1010103" data-name="Trazado 1010103" d="M472.344,332.222a.394.394,0,0,1-.278-.672l7.71-7.71a.394.394,0,0,1,.557.557l-7.71,7.711a.393.393,0,0,1-.279.115" transform="translate(-291.401 -199.88)" fill="#2e186b"/>
        <path id="Trazado_1010104" data-name="Trazado 1010104" d="M474.122,334.745a.394.394,0,0,1-.275-.676l13.833-13.493a.394.394,0,1,1,.55.564L474.4,334.634a.393.393,0,0,1-.275.112" transform="translate(-292.498 -197.868)" fill="#2e186b"/>
      </g>
    </g>
  </g>
</svg>
