<svg xmlns="http://www.w3.org/2000/svg" width="84" height="84" viewBox="0 0 84 84">
  <g id="Grupo_1183356" data-name="Grupo 1183356" transform="translate(-383.746 -8400)">
    <circle id="Elipse_13609" data-name="Elipse 13609" cx="42" cy="42" r="42" transform="translate(383.746 8400)" fill="#cfa9e6"/>
    <g id="Grupo_1184109" data-name="Grupo 1184109" transform="translate(400.407 8416.932)">
      <path id="Trazado_1010823" data-name="Trazado 1010823" d="M26.329,20.329a.776.776,0,0,1,.776.776h1.553a2.329,2.329,0,0,0-1.553-2.186V18H25.553v.919a2.324,2.324,0,0,0,.776,4.516.776.776,0,1,1-.776.776H24A2.329,2.329,0,0,0,25.553,26.4v.919h1.553V26.4a2.324,2.324,0,0,0-.776-4.516.776.776,0,1,1,0-1.553Z" transform="translate(-5.044 -3.801)" fill="#53435c"/>
      <path id="Trazado_1010824" data-name="Trazado 1010824" d="M32.514,1A13.127,13.127,0,0,0,22.437,5.7,13.19,13.19,0,1,0,33.274,27.364,13.193,13.193,0,0,0,32.514,1Zm8.5,12.423a8.5,8.5,0,0,0-1.941-4.685l2.195-2.195a11.578,11.578,0,0,1,2.852,6.88Zm-4.679,6.61c.035-.388.06-.776.06-1.175A13.19,13.19,0,0,0,30.13,7.647a6.971,6.971,0,0,1,6.207,12.385ZM31.7,18.081A8.5,8.5,0,0,0,29.757,13.4L31.952,11.2a11.578,11.578,0,0,1,2.852,6.88ZM17.736,25.417a8.5,8.5,0,0,0,4.685,1.942v3.106a11.578,11.578,0,0,1-6.88-2.853Zm6.238,1.942a8.5,8.5,0,0,0,4.685-1.941l2.195,2.195a11.578,11.578,0,0,1-6.88,2.852ZM23.2,25.845a6.988,6.988,0,1,1,6.988-6.988A6.988,6.988,0,0,1,23.2,25.845ZM37.976,7.64A8.5,8.5,0,0,0,33.291,5.7V2.592a11.578,11.578,0,0,1,6.88,2.853ZM31.738,5.712A8.484,8.484,0,0,0,28.4,6.733a13.092,13.092,0,0,0-3.863-1.009,11.55,11.55,0,0,1,7.2-3.127ZM28.659,12.3a8.5,8.5,0,0,0-4.685-1.942V7.251a11.578,11.578,0,0,1,6.88,2.853Zm-6.238-1.942A8.5,8.5,0,0,0,17.736,12.3L15.541,10.1a11.578,11.578,0,0,1,6.88-2.852Zm-7.978.845L16.638,13.4A8.5,8.5,0,0,0,14.7,18.081H11.591a11.578,11.578,0,0,1,2.853-6.88Zm-2.853,8.433H14.7a8.5,8.5,0,0,0,1.941,4.685l-2.195,2.195a11.578,11.578,0,0,1-2.852-6.88Zm20.361,6.88-2.195-2.195A8.5,8.5,0,0,0,31.7,19.634H34.8A11.578,11.578,0,0,1,31.952,26.514Zm4.057-4.524a8.554,8.554,0,0,0,1.977-1.225L40.2,22.977a11.561,11.561,0,0,1-5.712,2.692,13.086,13.086,0,0,0,1.523-3.679Zm5.28-.116-2.206-2.206a8.482,8.482,0,0,0,1.935-4.693h3.106a11.582,11.582,0,0,1-2.835,6.9Z" transform="translate(-1.912 0)" fill="#53435c"/>
      <path id="Trazado_1010825" data-name="Trazado 1010825" d="M47.683,55.293,34.189,44.639a.776.776,0,0,0-.961,0L22.8,52.831,2.3,39.166l-.862,1.292L22.405,54.433a.776.776,0,0,0,.911-.036l10.392-8.161,12.516,9.881H42.249v1.553H48.46a.776.776,0,0,0,.776-.776V50.683H47.684Z" transform="translate(0 -8.533)" fill="#53435c"/>
      <path id="Trazado_1010826" data-name="Trazado 1010826" d="M56,27h1.553v6.211H56Z" transform="translate(-12.199 -5.813)" fill="#53435c"/>
      <path id="Trazado_1010827" data-name="Trazado 1010827" d="M60,23h1.553v9.317H60Z" transform="translate(-13.093 -4.919)" fill="#53435c"/>
      <path id="Trazado_1010828" data-name="Trazado 1010828" d="M6,27H7.553v6.211H6Z" transform="translate(-1.019 -5.813)" fill="#53435c"/>
      <path id="Trazado_1010829" data-name="Trazado 1010829" d="M2,23H3.553v9.317H2Z" transform="translate(-0.125 -4.919)" fill="#53435c"/>
    </g>
  </g>
</svg>
