<svg xmlns="http://www.w3.org/2000/svg" width="112.961" height="53.562" viewBox="0 0 112.961 53.562">
  <g id="Grupo_1184432" data-name="Grupo 1184432" transform="translate(-529 -7865.732)">
    <g id="Grupo_1183476" data-name="Grupo 1183476" transform="translate(644.211 7922.5) rotate(180)">
      <path id="Trazado_1009090" data-name="Trazado 1009090" d="M29.406,3.581a1.06,1.06,0,0,1,.654.979V16.22h7.42a1.06,1.06,0,0,1,1.06,1.06V42.72a1.06,1.06,0,0,1-1.06,1.06H30.06V55.44a1.06,1.06,0,0,1-1.81.75L2.81,30.75a1.06,1.06,0,0,1,0-1.5L28.25,3.811a1.06,1.06,0,0,1,1.155-.23ZM5.059,30,27.94,52.881V42.72A1.06,1.06,0,0,1,29,41.66h7.42V18.34H29a1.06,1.06,0,0,1-1.06-1.06V7.119Z" transform="translate(0 0)" fill="#53435c" stroke="#53435c" stroke-width="0.5" fill-rule="evenodd"/>
      <path id="Trazado_1009091" data-name="Trazado 1009091" d="M27.56,9.5a1.06,1.06,0,0,1,1.06,1.06V36a1.06,1.06,0,1,1-2.12,0V10.56A1.06,1.06,0,0,1,27.56,9.5Z" transform="translate(26.88 6.72)" fill="#53435c" stroke="#53435c" stroke-width="0.5" fill-rule="evenodd"/>
      <path id="Trazado_1009092" data-name="Trazado 1009092" d="M23.56,9.5a1.06,1.06,0,0,1,1.06,1.06V36a1.06,1.06,0,1,1-2.12,0V10.56A1.06,1.06,0,0,1,23.56,9.5Z" transform="translate(22.4 6.72)" fill="#53435c" stroke="#53435c" stroke-width="0.5" fill-rule="evenodd"/>
    </g>
    <g id="Grupo_1184431" data-name="Grupo 1184431" transform="translate(520.2 7857.381)">
      <path id="Trazado_1011346" data-name="Trazado 1011346" d="M41.871,32a.73.73,0,0,0-.729.729v5.82a2.614,2.614,0,0,1-2.6,2.6H32.729a.73.73,0,0,0-.729.729.72.72,0,0,0,.729.718h5.82a4.066,4.066,0,0,0,4.062-4.062V32.729A.753.753,0,0,0,41.871,32Z" transform="translate(-20.714 -20.892)" fill="#53435c"/>
      <path id="Trazado_1011347" data-name="Trazado 1011347" d="M268.515,264.018l-5.187-5.187A11.684,11.684,0,1,0,241.4,253.2a11.691,11.691,0,0,0,11.693,11.682,11.727,11.727,0,0,0,5.627-1.447l5.187,5.187a3.254,3.254,0,0,0,2.3.954,3.21,3.21,0,0,0,2.3-.954A3.254,3.254,0,0,0,268.515,264.018Zm-22.656-3.569a10.231,10.231,0,0,1,14.468-14.468,10.231,10.231,0,1,1-14.468,14.468Zm21.628,7.148a1.818,1.818,0,0,1-2.551,0l-4.962-4.962a11.739,11.739,0,0,0,1.383-1.168,11.9,11.9,0,0,0,1.168-1.383l4.962,4.962A1.8,1.8,0,0,1,267.486,267.6Z" transform="translate(-207.671 -207.962)" fill="#53435c"/>
      <path id="Trazado_1011348" data-name="Trazado 1011348" d="M48.229,225.911a.73.73,0,0,0-.729.729v16.633a.73.73,0,0,0,.729.729h3.322a.73.73,0,0,0,.729-.729V226.629a.73.73,0,0,0-.729-.729Zm2.6,16.623H48.958V227.368h1.876Z" transform="translate(-34.552 -194.011)" fill="#53435c"/>
      <path id="Trazado_1011349" data-name="Trazado 1011349" d="M109.6,257.729v13.3a.73.73,0,0,0,.729.729h3.322a.73.73,0,0,0,.729-.729v-13.3a.73.73,0,0,0-.729-.729h-3.322A.723.723,0,0,0,109.6,257.729Zm1.458.729h1.876V270.3h-1.876Z" transform="translate(-89.997 -221.778)" fill="#53435c"/>
      <path id="Trazado_1011350" data-name="Trazado 1011350" d="M176.48,288.729a.73.73,0,0,0-.729-.729h-3.322a.73.73,0,0,0-.729.729v9.978a.73.73,0,0,0,.729.729h3.322a.73.73,0,0,0,.729-.729Zm-1.458,9.249h-1.876v-8.52h1.876Z" transform="translate(-145.441 -249.456)" fill="#53435c"/>
      <path id="Trazado_1011351" data-name="Trazado 1011351" d="M65.591,412.829a.73.73,0,0,0-.729-.729H48.229a.729.729,0,1,0,0,1.458H64.862A.737.737,0,0,0,65.591,412.829Z" transform="translate(-34.552 -360.255)" fill="#53435c"/>
      <path id="Trazado_1011352" data-name="Trazado 1011352" d="M48.229,443.111a.73.73,0,0,0-.729.729.72.72,0,0,0,.729.718h9.978a.729.729,0,0,0,0-1.458Z" transform="translate(-34.552 -387.933)" fill="#53435c"/>
      <path id="Trazado_1011353" data-name="Trazado 1011353" d="M203.619,55.709a8.2,8.2,0,1,0-8.209,8.22A8.217,8.217,0,0,0,203.619,55.709Zm-8.209,6.763a6.709,6.709,0,0,1-4.287-1.533c.922-.9,1.854-1.811,2.765-2.711.75-.739,1.243-1.211,1.811-1.779h6.42a6.758,6.758,0,0,1-6.709,6.023Zm6.709-7.481h-5.991V49A6.75,6.75,0,0,1,202.119,54.991Zm-7.438-6V55.4c-.654.632-2.647,2.594-4.576,4.491a6.7,6.7,0,0,1-1.458-4.18A6.793,6.793,0,0,1,194.681,48.99Z" transform="translate(-159.28 -34.731)" fill="#53435c"/>
      <path id="Trazado_1011354" data-name="Trazado 1011354" d="M287.633,316.08a2.39,2.39,0,1,0-2.39-2.39,2.327,2.327,0,0,0,.386,1.286l-1.393,1.425a2.438,2.438,0,0,0-1.951.225l-1.683-1.8a2.385,2.385,0,1,0-4.48-1.136,2.36,2.36,0,0,0,.525,1.468l-.472.5a2.5,2.5,0,0,0-.986-.214,2.39,2.39,0,1,0,2.39,2.39,2.431,2.431,0,0,0-.332-1.2l.622-.664a2.467,2.467,0,0,0,1.7-.161l1.758,1.876a2.43,2.43,0,0,0-.2.965,2.39,2.39,0,1,0,4.78,0,2.313,2.313,0,0,0-.461-1.393l1.35-1.372A1.72,1.72,0,0,0,287.633,316.08Zm0-3.322a.943.943,0,1,1-.943.943A.944.944,0,0,1,287.633,312.758Zm-9.153,0a.938.938,0,0,1,.4,1.79.958.958,0,0,1-.8-.032.924.924,0,0,1-.5-.815A.9.9,0,0,1,278.48,312.758Zm-3.322,6.023a.943.943,0,1,1,.943-.943A.944.944,0,0,1,275.158,318.781Zm8.317.836a.945.945,0,0,1-.943-.943.933.933,0,0,1,1.372-.815.931.931,0,0,1-.429,1.758Z" transform="translate(-235.706 -270.259)" fill="#53435c"/>
      <path id="Trazado_1011355" data-name="Trazado 1011355" d="M47.822,57.814a.734.734,0,0,0-.911.493,2.579,2.579,0,0,1-2.476,1.865H12.84a2.614,2.614,0,0,1-2.6-2.6V21.279l11.221-11.21H44.435a2.614,2.614,0,0,1,2.6,2.6V32.007a.729.729,0,1,0,1.458,0V12.662A4.066,4.066,0,0,0,44.435,8.6H21.157a.7.7,0,0,0-.514.214L9,20.464a.759.759,0,0,0-.2.514V57.557a4.066,4.066,0,0,0,4.062,4.062H44.457a4.038,4.038,0,0,0,3.88-2.9.762.762,0,0,0-.514-.9Z" fill="#53435c"/>
    </g>
  </g>
</svg>
