<svg xmlns="http://www.w3.org/2000/svg" width="98" height="98" viewBox="0 0 98 98">
  <g id="Grupo_1183373" data-name="Grupo 1183373" transform="translate(-289.609 -11611.898)">
    <g id="Grupo_1177473" data-name="Grupo 1177473" transform="translate(289.609 11611.898)">
      <ellipse id="Elipse_13609" data-name="Elipse 13609" cx="49" cy="49" rx="49" ry="49" transform="translate(0)" fill="#fff"/>
      <g id="Grupo_1184347" data-name="Grupo 1184347" transform="translate(25.066 19.819)">
        <path id="Trazado_1011166" data-name="Trazado 1011166" d="M19.237,55.018A3.523,3.523,0,0,1,15.715,51.5V30.242a1.174,1.174,0,0,0-1.174-1.174H9.032a3.523,3.523,0,0,1-2.754-5.72L21.18,4.671a3.523,3.523,0,0,1,5.507,0l14.9,18.677a3.523,3.523,0,0,1-2.754,5.72H33.328a1.174,1.174,0,0,0-1.174,1.174V51.5a3.523,3.523,0,0,1-3.523,3.523ZM13.366,51.5a5.871,5.871,0,0,0,5.871,5.871h9.394A5.871,5.871,0,0,0,34.5,51.5V31.416h4.334a5.871,5.871,0,0,0,4.589-9.533L28.523,3.206a5.871,5.871,0,0,0-9.179,0L4.443,21.883a5.871,5.871,0,0,0,4.589,9.533h4.334Z" transform="translate(0 0)" fill="#53435c" fill-rule="evenodd"/>
        <path id="Trazado_1011167" data-name="Trazado 1011167" d="M21.426,6.7a1.174,1.174,0,0,1,0,1.661L11.362,18.426A1.174,1.174,0,1,1,9.7,16.766L19.766,6.7a1.174,1.174,0,0,1,1.661,0Z" transform="translate(8.37 7.228)" fill="#53435c" fill-rule="evenodd"/>
        <path id="Trazado_1011168" data-name="Trazado 1011168" d="M12.355,10.361a1.006,1.006,0,1,0-1.007-1.006A1.006,1.006,0,0,0,12.355,10.361Zm0,2.348A3.355,3.355,0,1,0,9,9.355,3.355,3.355,0,0,0,12.355,12.71Z" transform="translate(7.889 6.747)" fill="#53435c" fill-rule="evenodd"/>
        <path id="Trazado_1011169" data-name="Trazado 1011169" d="M15.5,13.5A1.006,1.006,0,1,0,14.491,12.5,1.007,1.007,0,0,0,15.5,13.5Zm0,2.348A3.355,3.355,0,1,0,12.143,12.5,3.355,3.355,0,0,0,15.5,15.853Z" transform="translate(12.127 10.984)" fill="#53435c" fill-rule="evenodd"/>
      </g>
    </g>
  </g>
</svg>
