<svg xmlns="http://www.w3.org/2000/svg" xmlns:xlink="http://www.w3.org/1999/xlink" width="292" height="261" viewBox="0 0 292 261">
  <defs>
    <clipPath id="clip-path">
      <rect id="Rectángulo_458788" data-name="Rectángulo 458788" width="239.152" height="222.713" fill="none"/>
    </clipPath>
  </defs>
  <g id="Grupo_1182623" data-name="Grupo 1182623" transform="translate(-185.711 -8706)">
    <rect id="Rectángulo_458010" data-name="Rectángulo 458010" width="292" height="261" transform="translate(185.711 8706)" fill="#ff984a"/>
    <g id="Grupo_1183519" data-name="Grupo 1183519" transform="translate(212.135 8725.144)">
      <g id="Grupo_1183518" data-name="Grupo 1183518" clip-path="url(#clip-path)">
        <path id="Trazado_1009333" data-name="Trazado 1009333" d="M62.218,456.508H4.394a28.912,28.912,0,0,1,57.824,0" transform="translate(-2.407 -234.263)" fill="#9654ff"/>
        <path id="Trazado_1009334" data-name="Trazado 1009334" d="M476.031,403.5v-9.817h3.862v-9.831h-13.66V348.8h-16.48v64.538h33.267V403.5Z" transform="translate(-246.398 -191.09)" fill="#2e186b"/>
        <path id="Trazado_1009335" data-name="Trazado 1009335" d="M482.455,413.237H449.188a.465.465,0,0,1-.465-.465V348.233a.465.465,0,0,1,.465-.465h16.48a.465.465,0,0,1,.465.465v34.593h13.2a.465.465,0,0,1,.465.465v9.831a.465.465,0,0,1-.465.465h-3.4v8.887h6.523a.465.465,0,0,1,.465.465v9.831a.465.465,0,0,1-.465.465m-32.8-.931H481.99v-8.9h-6.523a.465.465,0,0,1-.465-.465v-9.817a.465.465,0,0,1,.465-.465h3.4v-8.9h-13.2a.465.465,0,0,1-.465-.465V348.7H449.654Z" transform="translate(-245.835 -190.526)" fill="#2e186b"/>
        <rect id="Rectángulo_458754" data-name="Rectángulo 458754" width="93.9" height="20.851" transform="translate(17.409 201.397)" fill="#ff7af1"/>
        <rect id="Rectángulo_458755" data-name="Rectángulo 458755" width="93.9" height="20.851" transform="translate(9.644 180.545)" fill="#ff7af1"/>
        <rect id="Rectángulo_458756" data-name="Rectángulo 458756" width="93.898" height="2.368" transform="translate(9.645 180.543)" fill="#fff"/>
        <path id="Trazado_1009336" data-name="Trazado 1009336" d="M114.666,420.06h-93.9a.465.465,0,0,1-.465-.465V398.744a.465.465,0,0,1,.465-.465h93.9a.465.465,0,0,1,.465.465v20.851a.465.465,0,0,1-.465.465m-93.435-.931H114.2V399.21H21.231Z" transform="translate(-11.121 -218.199)" fill="#2e186b"/>
        <path id="Trazado_1009337" data-name="Trazado 1009337" d="M107.728,431.444H39.43a.465.465,0,0,1,0-.931h68.3a.465.465,0,0,1,0,.931" transform="translate(-21.347 -235.858)" fill="#2e186b"/>
        <path id="Trazado_1009338" data-name="Trazado 1009338" d="M82.886,417.8H61.077a.465.465,0,1,1,0-.931H82.886a.465.465,0,1,1,0,.931" transform="translate(-33.207 -228.382)" fill="#2e186b"/>
        <path id="Trazado_1009339" data-name="Trazado 1009339" d="M175.788,416.621H163.66a.465.465,0,1,1,0-.931h12.127a.465.465,0,1,1,0,.931" transform="translate(-89.407 -227.738)" fill="#2e186b"/>
        <rect id="Rectángulo_458757" data-name="Rectángulo 458757" width="93.898" height="2.368" transform="translate(17.411 201.396)" fill="#fff"/>
        <path id="Trazado_1009340" data-name="Trazado 1009340" d="M131.841,466.176h-93.9a.466.466,0,0,1-.466-.465V444.859a.466.466,0,0,1,.466-.465h93.9a.465.465,0,0,1,.465.465V465.71a.465.465,0,0,1-.465.465m-93.435-.93h92.97V445.325H38.406Z" transform="translate(-20.531 -243.463)" fill="#2e186b"/>
        <path id="Trazado_1009341" data-name="Trazado 1009341" d="M124.9,477.559h-68.3a.465.465,0,0,1,0-.931h68.3a.465.465,0,0,1,0,.931" transform="translate(-30.757 -261.123)" fill="#2e186b"/>
        <path id="Trazado_1009342" data-name="Trazado 1009342" d="M100.062,463.913H78.253a.465.465,0,0,1,0-.931h21.808a.465.465,0,0,1,0,.931" transform="translate(-42.616 -253.647)" fill="#2e186b"/>
        <path id="Trazado_1009343" data-name="Trazado 1009343" d="M192.964,462.736H180.836a.465.465,0,0,1,0-.931h12.127a.465.465,0,0,1,0,.931" transform="translate(-98.817 -253.002)" fill="#2e186b"/>
        <path id="Trazado_1009344" data-name="Trazado 1009344" d="M107.728,431.444H39.43a.465.465,0,0,1,0-.931h68.3a.465.465,0,0,1,0,.931" transform="translate(-21.347 -235.858)" fill="#2e186b"/>
        <path id="Trazado_1009345" data-name="Trazado 1009345" d="M82.886,417.8H61.077a.465.465,0,1,1,0-.931H82.886a.465.465,0,1,1,0,.931" transform="translate(-33.207 -228.382)" fill="#2e186b"/>
        <path id="Trazado_1009346" data-name="Trazado 1009346" d="M175.788,416.621H163.66a.465.465,0,1,1,0-.931h12.127a.465.465,0,1,1,0,.931" transform="translate(-89.407 -227.738)" fill="#2e186b"/>
        <path id="Trazado_1009347" data-name="Trazado 1009347" d="M124.9,477.559h-68.3a.465.465,0,0,1,0-.931h68.3a.465.465,0,0,1,0,.931" transform="translate(-30.757 -261.123)" fill="#2e186b"/>
        <path id="Trazado_1009348" data-name="Trazado 1009348" d="M100.062,463.913H78.253a.465.465,0,0,1,0-.931h21.808a.465.465,0,0,1,0,.931" transform="translate(-42.616 -253.647)" fill="#2e186b"/>
        <path id="Trazado_1009349" data-name="Trazado 1009349" d="M192.964,462.736H180.836a.465.465,0,0,1,0-.931h12.127a.465.465,0,0,1,0,.931" transform="translate(-98.817 -253.002)" fill="#2e186b"/>
        <path id="Trazado_1009350" data-name="Trazado 1009350" d="M314.012,413.237H185.534a.465.465,0,0,1-.465-.465V348.229a.465.465,0,0,1,.465-.465H314.012a.465.465,0,0,1,.465.465v64.542a.465.465,0,0,1-.465.465M186,412.306H313.547V348.695H186Z" transform="translate(-101.391 -190.524)" fill="#2e186b"/>
        <path id="Trazado_1009351" data-name="Trazado 1009351" d="M305.184,415.326H214.353a.465.465,0,0,1-.465-.465,10.109,10.109,0,0,0-10.1-10.1.465.465,0,0,1-.465-.465V380.572a.465.465,0,0,1,.465-.465,10.109,10.109,0,0,0,10.1-10.1.465.465,0,0,1,.465-.465h90.831a.465.465,0,0,1,.465.465,10.109,10.109,0,0,0,10.1,10.1.465.465,0,0,1,.465.465V404.3a.465.465,0,0,1-.465.465,10.109,10.109,0,0,0-10.1,10.1.465.465,0,0,1-.465.465m-90.376-.931h89.92a11.043,11.043,0,0,1,10.553-10.554V381.028a11.043,11.043,0,0,1-10.553-10.554h-89.92a11.043,11.043,0,0,1-10.554,10.554v22.814A11.044,11.044,0,0,1,214.808,414.4" transform="translate(-111.392 -202.456)" fill="#2e186b"/>
        <path id="Trazado_1009352" data-name="Trazado 1009352" d="M311.862,393c0,12.386-8.55,22.426-19.1,22.426s-19.1-10.04-19.1-22.426,8.55-22.426,19.1-22.426,19.1,10.04,19.1,22.426" transform="translate(-149.931 -203.02)" fill="#2e186b"/>
        <path id="Trazado_1009353" data-name="Trazado 1009353" d="M237.916,406H226.4a.465.465,0,1,1,0-.931h11.515a.465.465,0,1,1,0,.931" transform="translate(-123.779 -221.919)" fill="#2e186b"/>
        <path id="Trazado_1009354" data-name="Trazado 1009354" d="M237.916,420.075H226.4a.465.465,0,1,1,0-.931h11.515a.465.465,0,1,1,0,.931" transform="translate(-123.779 -229.63)" fill="#2e186b"/>
        <path id="Trazado_1009355" data-name="Trazado 1009355" d="M232.158,434.148H226.4a.465.465,0,1,1,0-.931h5.758a.465.465,0,1,1,0,.931" transform="translate(-123.779 -237.34)" fill="#2e186b"/>
        <path id="Trazado_1009356" data-name="Trazado 1009356" d="M414.841,406H403.326a.465.465,0,0,1,0-.931h11.515a.465.465,0,0,1,0,.931" transform="translate(-220.709 -221.919)" fill="#2e186b"/>
        <path id="Trazado_1009357" data-name="Trazado 1009357" d="M414.841,420.075H403.326a.465.465,0,0,1,0-.931h11.515a.465.465,0,0,1,0,.931" transform="translate(-220.709 -229.63)" fill="#2e186b"/>
        <rect id="Rectángulo_458758" data-name="Rectángulo 458758" width="128.478" height="64.542" transform="translate(84.143 157.705)" fill="#ff7af1"/>
        <rect id="Rectángulo_458759" data-name="Rectángulo 458759" width="128.477" height="3.569" transform="translate(84.145 157.707)" fill="#fff"/>
        <path id="Trazado_1009358" data-name="Trazado 1009358" d="M305.874,374.177H214.792a10.562,10.562,0,0,1-10.438,8.934v23.725A10.56,10.56,0,0,1,214.917,417.4h90.832a10.56,10.56,0,0,1,10.563-10.563V383.111a10.562,10.562,0,0,1-10.438-8.934" transform="translate(-111.956 -204.994)" fill="#fff"/>
        <path id="Trazado_1009359" data-name="Trazado 1009359" d="M318.463,373.443a10.58,10.58,0,0,1-.4-2.87H227.234a10.562,10.562,0,0,1-.4,2.87Z" transform="translate(-124.274 -203.02)" fill="#ff7af1"/>
        <path id="Trazado_1009360" data-name="Trazado 1009360" d="M314.012,413.237H185.534a.465.465,0,0,1-.465-.465V348.229a.465.465,0,0,1,.465-.465H314.012a.465.465,0,0,1,.465.465v64.542a.465.465,0,0,1-.465.465M186,412.306H313.547V348.695H186Z" transform="translate(-101.391 -190.524)" fill="#2e186b"/>
        <path id="Trazado_1009361" data-name="Trazado 1009361" d="M305.185,415.326H214.353a.465.465,0,0,1-.465-.465,10.109,10.109,0,0,0-10.1-10.1.465.465,0,0,1-.465-.465V380.572a.465.465,0,0,1,.465-.465,10.109,10.109,0,0,0,10.1-10.1.465.465,0,0,1,.465-.465h11.175a.465.465,0,0,1,0,.931H214.809a11.043,11.043,0,0,1-10.554,10.554v22.814A11.043,11.043,0,0,1,214.809,414.4h89.92a11.043,11.043,0,0,1,10.553-10.554V381.028a11.043,11.043,0,0,1-10.553-10.554h-68.15a.465.465,0,1,1,0-.931h68.605a.465.465,0,0,1,.465.465,10.109,10.109,0,0,0,10.1,10.1.465.465,0,0,1,.465.465V404.3a.465.465,0,0,1-.465.465,10.109,10.109,0,0,0-10.1,10.1.465.465,0,0,1-.465.465" transform="translate(-111.392 -202.456)" fill="#2e186b"/>
        <path id="Trazado_1009362" data-name="Trazado 1009362" d="M311.862,393c0,12.386-8.55,22.426-19.1,22.426s-19.1-10.04-19.1-22.426,8.55-22.426,19.1-22.426,19.1,10.04,19.1,22.426" transform="translate(-149.931 -203.02)" fill="#2e186b"/>
        <path id="Trazado_1009363" data-name="Trazado 1009363" d="M237.916,406H226.4a.465.465,0,1,1,0-.931h11.515a.465.465,0,1,1,0,.931" transform="translate(-123.779 -221.919)" fill="#2e186b"/>
        <path id="Trazado_1009364" data-name="Trazado 1009364" d="M237.916,420.075H226.4a.465.465,0,1,1,0-.931h11.515a.465.465,0,1,1,0,.931" transform="translate(-123.779 -229.63)" fill="#2e186b"/>
        <path id="Trazado_1009365" data-name="Trazado 1009365" d="M232.158,434.148H226.4a.465.465,0,1,1,0-.931h5.758a.465.465,0,1,1,0,.931" transform="translate(-123.779 -237.34)" fill="#2e186b"/>
        <path id="Trazado_1009366" data-name="Trazado 1009366" d="M414.841,406H403.326a.465.465,0,0,1,0-.931h11.515a.465.465,0,0,1,0,.931" transform="translate(-220.709 -221.919)" fill="#2e186b"/>
        <path id="Trazado_1009367" data-name="Trazado 1009367" d="M414.841,420.075H403.326a.465.465,0,0,1,0-.931h11.515a.465.465,0,0,1,0,.931" transform="translate(-220.709 -229.63)" fill="#2e186b"/>
        <path id="Trazado_1009368" data-name="Trazado 1009368" d="M304.458,415.326c-10.786,0-19.561-10.269-19.561-22.891s8.775-22.891,19.561-22.891,19.561,10.269,19.561,22.891-8.775,22.891-19.561,22.891m0-44.852c-10.273,0-18.631,9.852-18.631,21.961s8.358,21.961,18.631,21.961,18.631-9.851,18.631-21.961-8.357-21.961-18.631-21.961" transform="translate(-156.082 -202.456)" fill="#2e186b"/>
        <path id="Trazado_1009369" data-name="Trazado 1009369" d="M324.119,393c0,12.386-8.55,22.426-19.1,22.426s-19.1-10.04-19.1-22.426,8.55-22.426,19.1-22.426,19.1,10.04,19.1,22.426" transform="translate(-156.646 -203.02)" fill="#ff7af1"/>
        <path id="Trazado_1009370" data-name="Trazado 1009370" d="M306.945,415.313a16.42,16.42,0,0,1-1.922.112c-10.548,0-19.1-10.041-19.1-22.426s8.547-22.426,19.1-22.426a16.427,16.427,0,0,1,1.922.112C297.3,371.81,289.767,381.371,289.767,393s7.533,21.189,17.178,22.315" transform="translate(-156.647 -203.019)" fill="#fff"/>
        <path id="Trazado_1009371" data-name="Trazado 1009371" d="M304.458,415.326c-10.786,0-19.561-10.269-19.561-22.891s8.775-22.891,19.561-22.891,19.561,10.269,19.561,22.891-8.775,22.891-19.561,22.891m0-44.852c-10.273,0-18.631,9.852-18.631,21.961s8.358,21.961,18.631,21.961,18.631-9.851,18.631-21.961-8.357-21.961-18.631-21.961" transform="translate(-156.082 -202.456)" fill="#2e186b"/>
        <path id="Trazado_1009372" data-name="Trazado 1009372" d="M120.855,420.06H107.663a.465.465,0,0,1-.465-.465V398.744a.465.465,0,0,1,.465-.465h13.191a.465.465,0,0,1,.465.465v20.851a.465.465,0,0,1-.465.465m-12.726-.931h12.261V399.21H108.129Z" transform="translate(-58.729 -218.199)" fill="#2e186b"/>
        <path id="Trazado_1009373" data-name="Trazado 1009373" d="M138.031,466.176H124.839a.465.465,0,0,1-.465-.465V444.859a.465.465,0,0,1,.465-.465h13.192a.465.465,0,0,1,.465.465V465.71a.465.465,0,0,1-.465.465m-12.726-.93h12.261V445.325H125.3Z" transform="translate(-68.139 -243.463)" fill="#2e186b"/>
        <rect id="Rectángulo_458760" data-name="Rectángulo 458760" width="13.191" height="20.851" transform="translate(48.934 180.545)" fill="#9654ff"/>
        <rect id="Rectángulo_458761" data-name="Rectángulo 458761" width="13.191" height="20.851" transform="translate(56.7 201.397)" fill="#9654ff"/>
        <rect id="Rectángulo_458762" data-name="Rectángulo 458762" width="5.602" height="20.851" transform="translate(60.495 201.397)" fill="#fff"/>
        <rect id="Rectángulo_458763" data-name="Rectángulo 458763" width="5.602" height="20.851" transform="translate(52.729 180.545)" fill="#fff"/>
        <path id="Trazado_1009374" data-name="Trazado 1009374" d="M120.855,420.06H107.663a.465.465,0,0,1-.465-.465V398.744a.465.465,0,0,1,.465-.465h13.191a.465.465,0,0,1,.465.465v20.851a.465.465,0,0,1-.465.465m-12.726-.931h12.261V399.21H108.129Z" transform="translate(-58.729 -218.199)" fill="#2e186b"/>
        <path id="Trazado_1009375" data-name="Trazado 1009375" d="M138.031,466.176H124.839a.465.465,0,0,1-.465-.465V444.859a.465.465,0,0,1,.465-.465h13.192a.465.465,0,0,1,.465.465V465.71a.465.465,0,0,1-.465.465m-12.726-.93h12.261V445.325H125.3Z" transform="translate(-68.139 -243.463)" fill="#2e186b"/>
        <rect id="Rectángulo_458764" data-name="Rectángulo 458764" width="37.707" height="9.831" transform="translate(191.702 212.416)" fill="#9654ff"/>
        <rect id="Rectángulo_458765" data-name="Rectángulo 458765" width="2.703" height="9.831" transform="translate(195.684 212.532)" fill="#fff"/>
        <rect id="Rectángulo_458766" data-name="Rectángulo 458766" width="5.12" height="9.831" transform="translate(200.926 212.532)" fill="#fff"/>
        <rect id="Rectángulo_458767" data-name="Rectángulo 458767" width="37.707" height="1.564" transform="translate(191.702 212.416)" fill="#fff"/>
        <path id="Trazado_1009376" data-name="Trazado 1009376" d="M461.126,479.528H423.419a.465.465,0,0,1-.465-.465v-9.831a.465.465,0,0,1,.465-.465h37.707a.465.465,0,0,1,.465.465v9.831a.465.465,0,0,1-.465.465m-37.241-.931h36.776v-8.9H423.885Z" transform="translate(-231.717 -256.815)" fill="#2e186b"/>
        <rect id="Rectángulo_458768" data-name="Rectángulo 458768" width="37.707" height="9.831" transform="translate(184.715 202.591)" fill="#9654ff"/>
        <rect id="Rectángulo_458769" data-name="Rectángulo 458769" width="37.707" height="1.564" transform="translate(184.715 202.591)" fill="#fff"/>
        <rect id="Rectángulo_458770" data-name="Rectángulo 458770" width="2.703" height="9.831" transform="translate(190.811 202.591)" fill="#fff"/>
        <rect id="Rectángulo_458771" data-name="Rectángulo 458771" width="5.12" height="9.831" transform="translate(196.134 202.706)" fill="#fff"/>
        <path id="Trazado_1009377" data-name="Trazado 1009377" d="M445.673,457.8H407.966a.465.465,0,0,1-.465-.465V447.5a.465.465,0,0,1,.465-.465h37.707a.465.465,0,0,1,.465.465v9.831a.465.465,0,0,1-.465.465m-37.241-.931h36.776v-8.9H408.432Z" transform="translate(-223.251 -244.911)" fill="#2e186b"/>
        <rect id="Rectángulo_458772" data-name="Rectángulo 458772" width="37.707" height="9.831" transform="translate(188.575 192.766)" fill="#9654ff"/>
        <rect id="Rectángulo_458773" data-name="Rectángulo 458773" width="2.703" height="9.831" transform="translate(193.459 192.766)" fill="#fff"/>
        <rect id="Rectángulo_458774" data-name="Rectángulo 458774" width="5.12" height="9.831" transform="translate(198.702 192.766)" fill="#fff"/>
        <rect id="Rectángulo_458775" data-name="Rectángulo 458775" width="37.707" height="1.564" transform="translate(188.575 192.766)" fill="#fff"/>
        <path id="Trazado_1009378" data-name="Trazado 1009378" d="M454.209,436.069H416.5a.465.465,0,0,1-.465-.465v-9.831a.465.465,0,0,1,.465-.465h37.707a.465.465,0,0,1,.465.465V435.6a.465.465,0,0,1-.465.465m-37.241-.931h36.776v-8.9H416.968Z" transform="translate(-227.928 -233.006)" fill="#2e186b"/>
        <path id="Trazado_1009379" data-name="Trazado 1009379" d="M238.686,491.437H.465a.465.465,0,1,1,0-.931H238.686a.465.465,0,1,1,0,.931" transform="translate(0 -268.726)" fill="#2e186b"/>
        <path id="Trazado_1009380" data-name="Trazado 1009380" d="M113.083,294.38a30.653,30.653,0,1,1-30.654-30.653,30.653,30.653,0,0,1,30.654,30.653" transform="translate(-28.366 -144.484)" fill="#fff"/>
        <path id="Trazado_1009381" data-name="Trazado 1009381" d="M115.035,263.8c.68-.046,1.36-.071,2.053-.071a30.612,30.612,0,0,1,25.328,13.386l-3.309,1.217A30.65,30.65,0,0,0,115.035,263.8" transform="translate(-63.022 -144.487)" fill="#ff7af1"/>
        <path id="Trazado_1009382" data-name="Trazado 1009382" d="M174.741,310.065a30.081,30.081,0,0,0-2.228-7.525l3.5-1.282a30.029,30.029,0,0,1,2.571,7.4Z" transform="translate(-94.512 -165.045)" fill="#ff7af1"/>
        <path id="Trazado_1009383" data-name="Trazado 1009383" d="M147.739,328.933a30.651,30.651,0,0,1-30.651,30.651c-.693,0-1.373-.026-2.053-.071a30.653,30.653,0,0,0,28.605-30.58c0-.22,0-.446-.007-.667l4.028-1.469q.078,1.059.078,2.137" transform="translate(-63.022 -179.037)" fill="#ff7af1"/>
        <path id="Trazado_1009384" data-name="Trazado 1009384" d="M81.866,324.935a31.119,31.119,0,1,1,31.118-31.119,31.154,31.154,0,0,1-31.118,31.119m0-61.307a30.188,30.188,0,1,0,30.188,30.188,30.222,30.222,0,0,0-30.188-30.188" transform="translate(-27.803 -143.92)" fill="#2e186b"/>
        <path id="Trazado_1009385" data-name="Trazado 1009385" d="M96.21,294.38a30.653,30.653,0,1,1-30.654-30.653A30.653,30.653,0,0,1,96.21,294.38" transform="translate(-19.122 -144.484)" fill="#fff"/>
        <path id="Trazado_1009386" data-name="Trazado 1009386" d="M98.278,306.216A20.885,20.885,0,1,1,77.392,285.33a20.886,20.886,0,0,1,20.886,20.886" transform="translate(-30.958 -156.319)" fill="#fff"/>
        <path id="Trazado_1009387" data-name="Trazado 1009387" d="M61.906,307.188a20.888,20.888,0,0,0,14.5,19.888,20.884,20.884,0,1,1,7.376-40.747c-.33-.02-.66-.026-.991-.026a20.887,20.887,0,0,0-20.886,20.886" transform="translate(-30.96 -156.32)" fill="#ff7af1"/>
        <path id="Trazado_1009388" data-name="Trazado 1009388" d="M76.828,327a21.351,21.351,0,1,1,21.351-21.35A21.375,21.375,0,0,1,76.828,327m0-41.771a20.42,20.42,0,1,0,20.42,20.42,20.443,20.443,0,0,0-20.42-20.42" transform="translate(-30.393 -155.756)" fill="#2e186b"/>
        <path id="Trazado_1009389" data-name="Trazado 1009389" d="M64.992,339.011a31.154,31.154,0,0,1-31.119-31.118A30.791,30.791,0,0,1,40.6,288.567a.465.465,0,1,1,.729.578A29.869,29.869,0,0,0,34.8,307.893a30.19,30.19,0,0,0,49.164,23.48.465.465,0,1,1,.585.723,31.191,31.191,0,0,1-19.561,6.915" transform="translate(-18.557 -157.996)" fill="#2e186b"/>
        <path id="Trazado_1009390" data-name="Trazado 1009390" d="M103,313.347a.465.465,0,0,1-.364-.755,29.867,29.867,0,0,0,6.548-18.775A30.222,30.222,0,0,0,79,263.629,29.866,29.866,0,0,0,60.188,270.2a.465.465,0,0,1-.58-.728A30.787,30.787,0,0,1,79,262.7a31.154,31.154,0,0,1,31.119,31.119,30.792,30.792,0,0,1-6.75,19.355.465.465,0,0,1-.364.175" transform="translate(-32.56 -143.92)" fill="#2e186b"/>
        <path id="Trazado_1009391" data-name="Trazado 1009391" d="M90.738,309.649a5.066,5.066,0,0,1,3.881-1.54v-1.652H95.8v1.627a5.845,5.845,0,0,1,3.794,1.46,4.729,4.729,0,0,1,1.385,3.4H98.8a3.7,3.7,0,0,0-.509-1.627A2.855,2.855,0,0,0,95.8,310v6.036a14.7,14.7,0,0,1,3.912,1.516A3.934,3.934,0,0,1,101.387,321q0,3.3-2.149,4.695a8.028,8.028,0,0,1-3.44,1.018v2.41h-1.18v-2.41q-3.614-.235-4.906-2.558A6.906,6.906,0,0,1,89,320.765h2.2a6.1,6.1,0,0,0,.534,2.484,3.3,3.3,0,0,0,2.857,1.577v-6.769a7.912,7.912,0,0,1-3.962-1.7,4.3,4.3,0,0,1-1.279-3.3,4.919,4.919,0,0,1,1.385-3.4m1.664,5.179a4.727,4.727,0,0,0,2.192.969v-5.838a2.838,2.838,0,0,0-2.316.994,3.232,3.232,0,0,0-.689,1.95,2.4,2.4,0,0,0,.813,1.925m6.328,8.508a3.439,3.439,0,0,0,.422-1.726,2.706,2.706,0,0,0-1.143-2.36,7.293,7.293,0,0,0-2.211-.894v6.533a3.245,3.245,0,0,0,2.931-1.553" transform="translate(-48.762 -167.894)" fill="#2e186b"/>
        <rect id="Rectángulo_458776" data-name="Rectángulo 458776" width="61.217" height="9.831" transform="translate(114.888 147.874)" fill="#9654ff"/>
        <rect id="Rectángulo_458777" data-name="Rectángulo 458777" width="4.412" height="9.831" transform="translate(121.264 147.874)" fill="#fff"/>
        <rect id="Rectángulo_458778" data-name="Rectángulo 458778" width="8.356" height="9.831" transform="translate(129.82 147.874)" fill="#fff"/>
        <rect id="Rectángulo_458779" data-name="Rectángulo 458779" width="61.217" height="1.564" transform="translate(114.888 147.874)" fill="#fff"/>
        <path id="Trazado_1009392" data-name="Trazado 1009392" d="M314.748,336.782H253.53a.465.465,0,0,1-.465-.465v-9.831a.465.465,0,0,1,.465-.465h61.218a.465.465,0,0,1,.465.465v9.831a.465.465,0,0,1-.465.465M254,335.851h60.287v-8.9H254Z" transform="translate(-138.643 -178.611)" fill="#2e186b"/>
        <rect id="Rectángulo_458780" data-name="Rectángulo 458780" width="61.217" height="9.831" transform="translate(103.544 138.049)" fill="#9654ff"/>
        <rect id="Rectángulo_458781" data-name="Rectángulo 458781" width="61.217" height="1.564" transform="translate(103.544 138.049)" fill="#fff"/>
        <rect id="Rectángulo_458782" data-name="Rectángulo 458782" width="4.412" height="9.831" transform="translate(113.442 138.049)" fill="#fff"/>
        <rect id="Rectángulo_458783" data-name="Rectángulo 458783" width="8.356" height="9.831" transform="translate(121.998 138.049)" fill="#fff"/>
        <path id="Trazado_1009393" data-name="Trazado 1009393" d="M289.66,315.053H228.442a.465.465,0,0,1-.465-.465v-9.831a.465.465,0,0,1,.465-.465H289.66a.465.465,0,0,1,.465.465v9.831a.465.465,0,0,1-.465.465m-60.752-.931h60.287v-8.9H228.908Z" transform="translate(-124.898 -166.707)" fill="#2e186b"/>
        <rect id="Rectángulo_458784" data-name="Rectángulo 458784" width="61.217" height="9.831" transform="translate(109.81 128.224)" fill="#9654ff"/>
        <rect id="Rectángulo_458785" data-name="Rectángulo 458785" width="4.412" height="9.831" transform="translate(117.763 128.224)" fill="#fff"/>
        <rect id="Rectángulo_458786" data-name="Rectángulo 458786" width="8.356" height="9.831" transform="translate(126.319 128.224)" fill="#fff"/>
        <rect id="Rectángulo_458787" data-name="Rectángulo 458787" width="61.217" height="1.564" transform="translate(109.81 128.224)" fill="#fff"/>
        <path id="Trazado_1009394" data-name="Trazado 1009394" d="M303.518,293.323H242.3a.465.465,0,0,1-.465-.465v-9.831a.465.465,0,0,1,.465-.465h18.169a.465.465,0,0,1,0,.931h-17.7v8.9h60.287v-8.9H267.913a.465.465,0,0,1,0-.931h35.6a.465.465,0,0,1,.465.465v9.831a.465.465,0,0,1-.465.465" transform="translate(-132.49 -154.802)" fill="#2e186b"/>
        <path id="Trazado_1009395" data-name="Trazado 1009395" d="M395.969,250.7a28.654,28.654,0,1,1-28.654-28.654A28.654,28.654,0,0,1,395.969,250.7" transform="translate(-185.536 -121.652)" fill="#fff"/>
        <path id="Trazado_1009396" data-name="Trazado 1009396" d="M397.793,222.122c.636-.043,1.271-.067,1.919-.067a28.618,28.618,0,0,1,23.676,12.513l-3.094,1.138a28.65,28.65,0,0,0-22.5-13.584" transform="translate(-217.933 -121.654)" fill="#ff7af1"/>
        <path id="Trazado_1009397" data-name="Trazado 1009397" d="M453.6,265.367a28.088,28.088,0,0,0-2.083-7.034l3.269-1.2a28.066,28.066,0,0,1,2.4,6.913Z" transform="translate(-247.368 -140.872)" fill="#ff7af1"/>
        <path id="Trazado_1009398" data-name="Trazado 1009398" d="M428.364,283a28.652,28.652,0,0,1-28.652,28.652c-.647,0-1.283-.024-1.919-.067A28.653,28.653,0,0,0,424.532,283c0-.206,0-.418-.006-.624l3.765-1.374q.073.99.072,2" transform="translate(-217.933 -153.95)" fill="#ff7af1"/>
        <path id="Trazado_1009399" data-name="Trazado 1009399" d="M366.751,279.261a29.119,29.119,0,1,1,29.119-29.12,29.152,29.152,0,0,1-29.119,29.12m0-57.308a28.189,28.189,0,1,0,28.189,28.189,28.22,28.22,0,0,0-28.189-28.189" transform="translate(-184.973 -121.088)" fill="#2e186b"/>
        <path id="Trazado_1009400" data-name="Trazado 1009400" d="M380.2,250.7a28.654,28.654,0,1,1-28.654-28.654A28.654,28.654,0,0,1,380.2,250.7" transform="translate(-176.896 -121.652)" fill="#fff"/>
        <path id="Trazado_1009401" data-name="Trazado 1009401" d="M382.129,261.768a19.523,19.523,0,1,1-19.523-19.523,19.523,19.523,0,0,1,19.523,19.523" transform="translate(-187.959 -132.715)" fill="#fff"/>
        <path id="Trazado_1009402" data-name="Trazado 1009402" d="M348.129,262.676a19.524,19.524,0,0,0,13.554,18.591,19.522,19.522,0,1,1,6.895-38.09c-.309-.019-.617-.024-.926-.024a19.525,19.525,0,0,0-19.523,19.523" transform="translate(-187.961 -132.715)" fill="#ff7af1"/>
        <path id="Trazado_1009403" data-name="Trazado 1009403" d="M362.042,281.192A19.988,19.988,0,1,1,382.03,261.2a20.011,20.011,0,0,1-19.988,19.988m0-39.046A19.058,19.058,0,1,0,381.1,261.2a19.08,19.08,0,0,0-19.058-19.058" transform="translate(-187.396 -132.151)" fill="#2e186b"/>
        <path id="Trazado_1009404" data-name="Trazado 1009404" d="M350.979,292.418A29.152,29.152,0,0,1,321.86,263.3a28.813,28.813,0,0,1,6.295-18.084.465.465,0,1,1,.729.578,27.892,27.892,0,0,0-6.093,17.506A28.19,28.19,0,0,0,368.7,285.224a.465.465,0,1,1,.585.723,29.183,29.183,0,0,1-18.3,6.471" transform="translate(-176.332 -134.245)" fill="#2e186b"/>
        <path id="Trazado_1009405" data-name="Trazado 1009405" d="M386.506,268.428a.466.466,0,0,1-.364-.755,27.89,27.89,0,0,0,6.114-17.532,28.221,28.221,0,0,0-28.189-28.189,27.886,27.886,0,0,0-17.562,6.138.465.465,0,0,1-.58-.727,28.805,28.805,0,0,1,18.142-6.341,29.152,29.152,0,0,1,29.119,29.119,28.813,28.813,0,0,1-6.316,18.112.465.465,0,0,1-.364.175" transform="translate(-189.421 -121.088)" fill="#2e186b"/>
        <path id="Trazado_1009406" data-name="Trazado 1009406" d="M375.082,264.978a4.735,4.735,0,0,1,3.628-1.44v-1.544h1.1v1.521a5.461,5.461,0,0,1,3.547,1.364,4.419,4.419,0,0,1,1.294,3.175h-2.032a3.453,3.453,0,0,0-.476-1.521,2.668,2.668,0,0,0-2.334-1.231v5.642a13.734,13.734,0,0,1,3.657,1.417,3.679,3.679,0,0,1,1.567,3.227,4.827,4.827,0,0,1-2.008,4.389,7.51,7.51,0,0,1-3.216.952v2.252h-1.1v-2.252q-3.378-.22-4.586-2.391a6.462,6.462,0,0,1-.661-3.17h2.055a5.7,5.7,0,0,0,.5,2.322,3.086,3.086,0,0,0,2.67,1.474v-6.327a7.4,7.4,0,0,1-3.7-1.59,4.015,4.015,0,0,1-1.2-3.089,4.6,4.6,0,0,1,1.294-3.181m1.556,4.841a4.415,4.415,0,0,0,2.049.906v-5.457a2.652,2.652,0,0,0-2.165.929,3.021,3.021,0,0,0-.644,1.823,2.24,2.24,0,0,0,.76,1.8m5.915,7.953a3.217,3.217,0,0,0,.395-1.614,2.53,2.53,0,0,0-1.068-2.206,6.825,6.825,0,0,0-2.067-.836v6.107a3.034,3.034,0,0,0,2.74-1.451" transform="translate(-204.603 -143.535)" fill="#2e186b"/>
        <path id="Trazado_1009407" data-name="Trazado 1009407" d="M314.56,395.3a5.762,5.762,0,0,1,4.413-1.751v-1.878h1.342v1.85a6.645,6.645,0,0,1,4.314,1.659,5.378,5.378,0,0,1,1.575,3.863h-2.472a4.2,4.2,0,0,0-.579-1.85,3.247,3.247,0,0,0-2.839-1.5v6.864a16.7,16.7,0,0,1,4.449,1.723,4.474,4.474,0,0,1,1.906,3.926q0,3.757-2.443,5.338a9.139,9.139,0,0,1-3.912,1.158v2.74h-1.342v-2.74q-4.109-.269-5.578-2.91a7.853,7.853,0,0,1-.805-3.855h2.5a6.929,6.929,0,0,0,.607,2.825,3.755,3.755,0,0,0,3.248,1.794v-7.7a9,9,0,0,1-4.505-1.935,4.882,4.882,0,0,1-1.455-3.756,5.6,5.6,0,0,1,1.574-3.87m1.893,5.889a5.374,5.374,0,0,0,2.493,1.1v-6.637a3.226,3.226,0,0,0-2.634,1.13,3.674,3.674,0,0,0-.784,2.217,2.726,2.726,0,0,0,.925,2.189m7.2,9.674a3.913,3.913,0,0,0,.48-1.963,3.077,3.077,0,0,0-1.3-2.683,8.276,8.276,0,0,0-2.513-1.017v7.428a3.69,3.69,0,0,0,3.333-1.765" transform="translate(-171.254 -214.579)" fill="#2e186b"/>
        <path id="Trazado_1009408" data-name="Trazado 1009408" d="M266.805,71.094h-11.98v61.391h11.98a9.559,9.559,0,0,0,9.563-9.563V80.649a9.558,9.558,0,0,0-9.563-9.555" transform="translate(-139.607 -38.949)" fill="#2e186b"/>
        <path id="Trazado_1009409" data-name="Trazado 1009409" d="M266.241,132.385h-11.98a.465.465,0,0,1-.465-.465V70.53a.466.466,0,0,1,.465-.466h11.98a10.036,10.036,0,0,1,10.028,10.021v42.272a10.039,10.039,0,0,1-10.028,10.028m-11.515-.931h11.515a9.107,9.107,0,0,0,9.1-9.1V80.085a9.1,9.1,0,0,0-9.1-9.09H254.727Z" transform="translate(-139.043 -38.385)" fill="#2e186b"/>
        <path id="Trazado_1009410" data-name="Trazado 1009410" d="M185.053,80.649v42.272a9.559,9.559,0,0,1-9.563,9.563h-7.566a3.126,3.126,0,0,0-2.665,1.5l-6.515,10.693a3.116,3.116,0,0,1-5.331,0L146.9,133.981a3.126,3.126,0,0,0-2.665-1.5H109.961a9.559,9.559,0,0,1-9.562-9.563V80.649a9.556,9.556,0,0,1,9.555-9.555H175.49a9.558,9.558,0,0,1,9.563,9.555" transform="translate(-55.004 -38.949)" fill="#fff"/>
        <path id="Trazado_1009411" data-name="Trazado 1009411" d="M155.515,146.077a3.558,3.558,0,0,1-3.063-1.726l-6.515-10.692a2.645,2.645,0,0,0-2.268-1.273H109.4A10.04,10.04,0,0,1,99.37,122.358v-8.021a.465.465,0,1,1,.931,0v8.021a9.108,9.108,0,0,0,9.1,9.1h34.27a3.571,3.571,0,0,1,3.062,1.718l6.516,10.694a2.651,2.651,0,0,0,4.536,0l6.516-10.694a3.571,3.571,0,0,1,3.062-1.719h7.566a9.108,9.108,0,0,0,9.1-9.1V80.085a9.1,9.1,0,0,0-9.1-9.09H109.39a9.1,9.1,0,0,0-9.09,9.09V103.54a.465.465,0,0,1-.931,0V80.085a10.032,10.032,0,0,1,10.02-10.02h65.536a10.035,10.035,0,0,1,10.028,10.02v42.272a10.04,10.04,0,0,1-10.028,10.028h-7.566a2.644,2.644,0,0,0-2.268,1.275l-6.515,10.691a3.558,3.558,0,0,1-3.063,1.725" transform="translate(-54.44 -38.385)" fill="#2e186b"/>
        <path id="Trazado_1009412" data-name="Trazado 1009412" d="M134.407,134.508a7.737,7.737,0,0,1-7.728-7.728.465.465,0,1,1,.931,0,6.8,6.8,0,1,0,6.8-6.8,7.728,7.728,0,1,1,7.728-7.728.465.465,0,0,1-.931,0,6.8,6.8,0,1,0-6.8,6.8,7.728,7.728,0,0,1,0,15.456" transform="translate(-69.402 -57.266)" fill="#2e186b"/>
        <path id="Trazado_1009413" data-name="Trazado 1009413" d="M143.207,133.866a.465.465,0,0,1-.465-.465V98.3a.465.465,0,0,1,.931,0V133.4a.465.465,0,0,1-.465.465" transform="translate(-78.202 -53.597)" fill="#2e186b"/>
        <path id="Trazado_1009414" data-name="Trazado 1009414" d="M217.2,106.765h-35.12a.465.465,0,1,1,0-.931H217.2a.465.465,0,1,1,0,.931" transform="translate(-99.497 -57.982)" fill="#2e186b"/>
        <path id="Trazado_1009415" data-name="Trazado 1009415" d="M217.2,127.31h-35.12a.465.465,0,0,1,0-.931H217.2a.465.465,0,1,1,0,.931" transform="translate(-99.497 -69.237)" fill="#2e186b"/>
        <path id="Trazado_1009416" data-name="Trazado 1009416" d="M217.2,147.855h-35.12a.465.465,0,0,1,0-.931H217.2a.465.465,0,1,1,0,.931" transform="translate(-99.497 -80.493)" fill="#2e186b"/>
        <path id="Trazado_1009417" data-name="Trazado 1009417" d="M201.323,168.4H182.079a.465.465,0,1,1,0-.931h19.244a.465.465,0,1,1,0,.931" transform="translate(-99.498 -91.749)" fill="#2e186b"/>
        <path id="Trazado_1009418" data-name="Trazado 1009418" d="M389.7,11.182a.466.466,0,0,1-.334-.789L399.311.141a.465.465,0,0,1,.668.648l-9.95,10.252a.465.465,0,0,1-.334.141" transform="translate(-213.241 0)" fill="#2e186b"/>
        <path id="Trazado_1009419" data-name="Trazado 1009419" d="M366.145,14.779a.466.466,0,0,1-.334-.789l9.951-10.252a.465.465,0,0,1,.668.648l-9.95,10.252a.466.466,0,0,1-.334.141" transform="translate(-200.339 -1.97)" fill="#2e186b"/>
        <path id="Trazado_1009420" data-name="Trazado 1009420" d="M20.409,220.451a.465.465,0,0,1-.332-.791l12.6-12.865a.465.465,0,0,1,.665.651l-12.6,12.865a.465.465,0,0,1-.332.14" transform="translate(-10.926 -113.217)" fill="#2e186b"/>
        <path id="Trazado_1009421" data-name="Trazado 1009421" d="M22.78,240.8a.465.465,0,0,1-.326-.8l6.968-6.835a.465.465,0,1,1,.652.665l-6.968,6.835a.466.466,0,0,1-.326.133" transform="translate(-12.225 -127.669)" fill="#2e186b"/>
        <path id="Trazado_1009422" data-name="Trazado 1009422" d="M487.845,240.707a.465.465,0,0,1-.329-.794l9.113-9.113a.465.465,0,1,1,.658.658l-9.113,9.113a.464.464,0,0,1-.329.136" transform="translate(-267.013 -126.37)" fill="#2e186b"/>
        <path id="Trazado_1009423" data-name="Trazado 1009423" d="M489.623,244.28a.465.465,0,0,1-.325-.8l16.349-15.947a.465.465,0,0,1,.65.666l-16.349,15.947a.465.465,0,0,1-.325.132" transform="translate(-267.987 -124.583)" fill="#2e186b"/>
        <path id="Trazado_1009424" data-name="Trazado 1009424" d="M299.826,10.845l-3.4,1.866a1.611,1.611,0,0,0-.675.675L293.866,16.8a1.68,1.68,0,0,1-2.958,0l-1.881-3.419a1.614,1.614,0,0,0-.675-.675l-3.4-1.866a1.693,1.693,0,0,1,0-2.973L288.352,6a1.612,1.612,0,0,0,.675-.675l1.881-3.418a1.68,1.68,0,0,1,2.958,0l1.881,3.418a1.609,1.609,0,0,0,.675.675l3.4,1.866a1.693,1.693,0,0,1,0,2.973" transform="translate(-155.626 -0.564)" fill="#9654ff"/>
        <path id="Trazado_1009425" data-name="Trazado 1009425" d="M453.376,178.29l-3,1.646a1.417,1.417,0,0,0-.6.595l-1.659,3.015a1.482,1.482,0,0,1-2.609,0l-1.659-3.015a1.422,1.422,0,0,0-.6-.595l-3-1.646a1.493,1.493,0,0,1,0-2.622l3-1.646a1.424,1.424,0,0,0,.6-.6l1.659-3.014a1.482,1.482,0,0,1,2.609,0l1.659,3.014a1.419,1.419,0,0,0,.6.6l3,1.646a1.493,1.493,0,0,1,0,2.622" transform="translate(-240.769 -92.935)" fill="#9654ff"/>
        <path id="Trazado_1009426" data-name="Trazado 1009426" d="M168.162,234.032l-3,1.646a1.42,1.42,0,0,0-.6.595l-1.659,3.015a1.482,1.482,0,0,1-2.609,0l-1.659-3.015a1.425,1.425,0,0,0-.6-.595l-3-1.646a1.493,1.493,0,0,1,0-2.622l3-1.646a1.424,1.424,0,0,0,.6-.6l1.659-3.014a1.482,1.482,0,0,1,2.609,0l1.659,3.014a1.419,1.419,0,0,0,.6.6l3,1.646a1.493,1.493,0,0,1,0,2.622" transform="translate(-84.513 -123.473)" fill="#9654ff"/>
        <path id="Trazado_1009427" data-name="Trazado 1009427" d="M10.8,351.357l-2.109,1.157a1,1,0,0,0-.418.418L7.107,355.05a1.041,1.041,0,0,1-1.833,0l-1.166-2.118a1,1,0,0,0-.418-.418L1.58,351.357a1.049,1.049,0,0,1,0-1.842l2.109-1.157a1,1,0,0,0,.418-.418l1.166-2.118a1.042,1.042,0,0,1,1.833,0l1.166,2.118a1,1,0,0,0,.418.418l2.109,1.157a1.049,1.049,0,0,1,0,1.842" transform="translate(-0.566 -189.16)" fill="#9654ff"/>
        <path id="Trazado_1009428" data-name="Trazado 1009428" d="M34.187,71.648l-3.333,1.828a1.575,1.575,0,0,0-.661.661l-1.842,3.348a1.645,1.645,0,0,1-2.9,0l-1.842-3.348a1.579,1.579,0,0,0-.661-.661l-3.333-1.828a1.658,1.658,0,0,1,0-2.911l3.333-1.828a1.581,1.581,0,0,0,.661-.661L25.454,62.9a1.645,1.645,0,0,1,2.9,0l1.842,3.347a1.577,1.577,0,0,0,.661.661l3.333,1.828a1.658,1.658,0,0,1,0,2.911" transform="translate(-10.274 -33.986)" fill="#9654ff"/>
        <path id="Trazado_1009429" data-name="Trazado 1009429" d="M509.948,321.73l-2.109,1.157a1,1,0,0,0-.418.418l-1.166,2.119a1.042,1.042,0,0,1-1.833,0l-1.166-2.119a1,1,0,0,0-.418-.418l-2.109-1.157a1.049,1.049,0,0,1,0-1.843l2.109-1.157a1,1,0,0,0,.418-.418l1.166-2.118a1.041,1.041,0,0,1,1.833,0l1.166,2.118a1,1,0,0,0,.418.418l2.109,1.157a1.049,1.049,0,0,1,0,1.843" transform="translate(-274.026 -172.928)" fill="#9654ff"/>
        <path id="Trazado_1009430" data-name="Trazado 1009430" d="M201.42,360.006c-1.716,5.021-3.712,8.884-4.458,8.629s.039-4.532,1.755-9.552,3.712-8.884,4.458-8.629-.039,4.532-1.755,9.552" transform="translate(-107.752 -191.991)" fill="#fff"/>
        <path id="Trazado_1009431" data-name="Trazado 1009431" d="M50.98,407.5c-.961,2.811-2.345,4.883-3.091,4.628s-.572-2.741.388-5.552,2.344-4.884,3.091-4.628.573,2.741-.388,5.552" transform="translate(-25.982 -220.195)" fill="#fff"/>
        <path id="Trazado_1009432" data-name="Trazado 1009432" d="M171.445,452.735c-.961,2.811-2.345,4.883-3.091,4.628s-.572-2.741.388-5.552,2.345-4.884,3.091-4.628.573,2.74-.388,5.552" transform="translate(-91.979 -244.98)" fill="#fff"/>
      </g>
    </g>
  </g>
</svg>
