<svg xmlns="http://www.w3.org/2000/svg" width="114.25" height="53.562" viewBox="0 0 114.25 53.562">
  <g id="Grupo_1184434" data-name="Grupo 1184434" transform="translate(-840.711 -7868.732)">
    <g id="Grupo_1183511" data-name="Grupo 1183511" transform="translate(957.211 7925.5) rotate(180)">
      <path id="Trazado_1009090" data-name="Trazado 1009090" d="M29.406,3.581a1.06,1.06,0,0,1,.654.979V16.22h7.42a1.06,1.06,0,0,1,1.06,1.06V42.72a1.06,1.06,0,0,1-1.06,1.06H30.06V55.44a1.06,1.06,0,0,1-1.81.75L2.81,30.75a1.06,1.06,0,0,1,0-1.5L28.25,3.811a1.06,1.06,0,0,1,1.155-.23ZM5.059,30,27.94,52.881V42.72A1.06,1.06,0,0,1,29,41.66h7.42V18.34H29a1.06,1.06,0,0,1-1.06-1.06V7.119Z" transform="translate(0 0)" fill="#53435c" stroke="#53435c" stroke-width="0.5" fill-rule="evenodd"/>
      <path id="Trazado_1009091" data-name="Trazado 1009091" d="M27.56,9.5a1.06,1.06,0,0,1,1.06,1.06V36a1.06,1.06,0,1,1-2.12,0V10.56A1.06,1.06,0,0,1,27.56,9.5Z" transform="translate(26.88 6.72)" fill="#53435c" stroke="#53435c" stroke-width="0.5" fill-rule="evenodd"/>
      <path id="Trazado_1009092" data-name="Trazado 1009092" d="M23.56,9.5a1.06,1.06,0,0,1,1.06,1.06V36a1.06,1.06,0,1,1-2.12,0V10.56A1.06,1.06,0,0,1,23.56,9.5Z" transform="translate(22.4 6.72)" fill="#53435c" stroke="#53435c" stroke-width="0.5" fill-rule="evenodd"/>
    </g>
    <g id="Grupo_1184433" data-name="Grupo 1184433" transform="translate(824.711 7853)">
      <path id="Trazado_1011356" data-name="Trazado 1011356" d="M68.117,16H29.25a.883.883,0,0,0-.883.883v3.167L25.512,17.2a4.082,4.082,0,0,0-5.773,0L17.2,19.738a4.082,4.082,0,0,0,0,5.773l9.922,9.922h-1.4a.883.883,0,0,0-.883.883v2.43q-.262.1-.518.22l-1.508-1.507a.883.883,0,0,0-1.249,0l-3.533,3.533a.883.883,0,0,0,0,1.249l1.508,1.507q-.117.256-.22.518h-2.43A.883.883,0,0,0,16,45.15v5.3a.883.883,0,0,0,.883.883h2.43q.1.262.22.518l-1.507,1.507a.883.883,0,0,0,0,1.249l3.533,3.533a.883.883,0,0,0,1.249,0l1.508-1.507q.256.117.518.22v7.73A4.422,4.422,0,0,0,29.25,69H64.583A4.422,4.422,0,0,0,69,64.583v-47.7A.883.883,0,0,0,68.117,16ZM36.392,30.575l-.959.959-8.909-8.909.959-.959Zm3.966,9.783-2.593-.707,1.886-1.886ZM35.8,39.115l-1.859-.507A6.194,6.194,0,0,1,31.87,37.6L37.6,31.87a6.194,6.194,0,0,1,1.012,2.073l.507,1.859Zm-15.9-13.4L25.717,19.9l.517.517-5.817,5.817Zm5.376-1.842,8.909,8.909-1.4,1.4-8.909-8.909Zm-6.83-2.887,2.543-2.543a2.315,2.315,0,0,1,3.275,0l.205.205L18.65,24.467l-.205-.205a2.315,2.315,0,0,1,0-3.275Zm4.18,5.537,8.909,8.909-.959.959-8.909-8.909Zm5.742,23.042a1.767,1.767,0,0,1,0-3.533Zm0-5.3a3.533,3.533,0,0,0,0,7.067V53.1a5.3,5.3,0,0,1,0-10.6Zm-3.8,10.517a.883.883,0,0,0-1.048.151l-1.333,1.333L19.9,53.983l1.333-1.333a.883.883,0,0,0,.151-1.048,7.882,7.882,0,0,1-.6-1.417.883.883,0,0,0-.843-.619H17.767V46.033h2.172a.883.883,0,0,0,.843-.619,7.882,7.882,0,0,1,.6-1.417.883.883,0,0,0-.151-1.048L19.9,41.617l2.284-2.284,1.333,1.333a.883.883,0,0,0,1.048.151,7.889,7.889,0,0,1,1.417-.6.883.883,0,0,0,.619-.843V37.2h1.767v3.533a7.067,7.067,0,0,0,0,14.133V58.4H26.6V56.228a.883.883,0,0,0-.619-.843,7.89,7.89,0,0,1-1.417-.6Zm4.686,12.45a2.653,2.653,0,0,1-2.65-2.65V60.167H60.167v4.417a4.394,4.394,0,0,0,.885,2.65ZM47.8,48.683a.883.883,0,1,1,.883.883.883.883,0,0,1-.883-.883Zm4.417,7.95V58.4H45.15V56.633Zm15.017,7.95a2.65,2.65,0,1,1-5.3,0v-5.3a.883.883,0,0,0-.883-.883H53.983V55.75a.883.883,0,0,0-.883-.883H49.567V51.181a2.663,2.663,0,0,0,1.615-1.615H53.1v2.65a.883.883,0,0,0,.883.883h8.833a.883.883,0,0,0,.883-.883V45.15a.883.883,0,0,0-.883-.883H53.983a.883.883,0,0,0-.883.883V47.8H51.181a2.65,2.65,0,0,0-5,0H44.267V45.15a.883.883,0,0,0-.883-.883H34.55a.883.883,0,0,0-.883.883v7.067a.883.883,0,0,0,.883.883h8.833a.883.883,0,0,0,.883-.883v-2.65h1.919A2.663,2.663,0,0,0,47.8,51.181v3.685H44.267a.883.883,0,0,0-.883.883V58.4H30.133V38.443a7.965,7.965,0,0,0,3.345,1.869l7.906,2.156a.88.88,0,0,0,.233.031H55.75a.883.883,0,0,0,.883-.883v-2.65h6.183a.883.883,0,0,0,.883-.883v-15.9a.883.883,0,0,0-.883-.883H55.75a.883.883,0,0,0-.883.883v18.55H42.291L41.328,37.2H50.45a.883.883,0,1,0,0-1.767h-9.6l-.482-1.767H50.45a.883.883,0,1,0,0-1.767H39.693a7.962,7.962,0,0,0-1.25-1.767h3.173a.883.883,0,1,0,0-1.767H38.083a.883.883,0,0,0-.827.574l-7.123-7.123V17.767h37.1ZM54.867,51.333v-5.3h7.067v5.3ZM42.5,46.033v5.3H35.433v-5.3ZM56.633,37.2V23.067h5.3V37.2Z" fill="#53435c"/>
      <path id="Trazado_1011357" data-name="Trazado 1011357" d="M224.883,65.767h3.533a.883.883,0,0,0,0-1.767h-3.533a.883.883,0,0,0,0,1.767Z" transform="translate(-185.033 -42.7)" fill="#53435c"/>
      <path id="Trazado_1011358" data-name="Trazado 1011358" d="M208.883,97.767H221.25a.883.883,0,0,0,0-1.767H208.883a.883.883,0,0,0,0,1.767Z" transform="translate(-170.8 -71.167)" fill="#53435c"/>
      <path id="Trazado_1011359" data-name="Trazado 1011359" d="M288.883,65.767h3.533a.883.883,0,0,0,0-1.767h-3.533a.883.883,0,0,0,0,1.767Z" transform="translate(-241.967 -42.7)" fill="#53435c"/>
      <path id="Trazado_1011360" data-name="Trazado 1011360" d="M278.183,128h-5.3a.883.883,0,1,0,0,1.767h5.3a.883.883,0,0,0,0-1.767Z" transform="translate(-227.733 -99.633)" fill="#53435c"/>
    </g>
  </g>
</svg>
