<svg xmlns="http://www.w3.org/2000/svg" width="52.995" height="53" viewBox="0 0 52.995 53">
  <g id="Grupo_1184435" data-name="Grupo 1184435" transform="translate(-2.998 -2.997)">
    <path id="Trazado_1011361" data-name="Trazado 1011361" d="M21.935,40.855a18.856,18.856,0,0,1-8.288-1.908,1.146,1.146,0,0,0-.813-.1l-5.19,1.44A2.44,2.44,0,0,1,4.6,37.437l1.1-5.221a1.173,1.173,0,0,0-.154-.819A18.812,18.812,0,0,1,3.127,19.735a18.947,18.947,0,1,1,21.67,20.9,19.541,19.541,0,0,1-2.862.216ZM13.1,36.291a3.769,3.769,0,0,1,1.652.387A16.449,16.449,0,1,0,7.734,30.13a3.69,3.69,0,0,1,.44,2.6L7.1,37.827l5.057-1.4a3.533,3.533,0,0,1,.941-.132Z" transform="translate(0 0)" fill="#53435c"/>
    <path id="Trazado_1011362" data-name="Trazado 1011362" d="M34.638,52.317a18.133,18.133,0,0,1-2.666-.2,17.592,17.592,0,0,1-14.837-15.2c-.042-.319-.071-.631-.085-.961a1.262,1.262,0,0,1,1.208-1.31,1.293,1.293,0,0,1,1.314,1.208c.011.252.033.495.067.747a15.063,15.063,0,0,0,12.7,13.012,15.291,15.291,0,0,0,8.945-1.351,3.464,3.464,0,0,1,2.473-.241L48.3,49.288,47.333,44.7a3.549,3.549,0,0,1,.413-2.469A15.028,15.028,0,0,0,49.686,32.9,15.277,15.277,0,0,0,35.819,19.57a1.262,1.262,0,1,1,.189-2.516A17.833,17.833,0,0,1,52.191,32.606a17.521,17.521,0,0,1-2.252,10.879,1.035,1.035,0,0,0-.134.7l1.021,4.844A2.36,2.36,0,0,1,47.9,51.794l-4.828-1.34a.973.973,0,0,0-.686.083,17.737,17.737,0,0,1-7.749,1.78Z" transform="translate(3.679 3.679)" fill="#53435c"/>
    <circle id="Elipse_16132" data-name="Elipse 16132" cx="1.893" cy="1.893" r="1.893" transform="translate(19.404 13.348)" fill="#53435c"/>
    <path id="Trazado_1011363" data-name="Trazado 1011363" d="M19.939,28.318a3.05,3.05,0,0,1-3.046-3.046V18.224h-.631a1.262,1.262,0,0,1,0-2.524h.631a2.524,2.524,0,0,1,2.524,2.524v7.048a.543.543,0,0,0,.891.37l.741-.739a1.262,1.262,0,0,1,1.784,1.785l-.739.738a3.065,3.065,0,0,1-2.154.892Z" transform="translate(3.142 3.326)" fill="#53435c"/>
    <path id="Trazado_1011364" data-name="Trazado 1011364" d="M37.571,31.524H31.262a1.262,1.262,0,0,1,0-2.524h6.309a1.262,1.262,0,0,1,0,2.524Z" transform="translate(7.069 6.808)" fill="#53435c"/>
    <path id="Trazado_1011365" data-name="Trazado 1011365" d="M38.356,36.524H28.262a1.262,1.262,0,1,1,0-2.524H38.356a1.262,1.262,0,1,1,0,2.524Z" transform="translate(6.284 8.117)" fill="#53435c"/>
  </g>
</svg>
