<svg xmlns="http://www.w3.org/2000/svg" xmlns:xlink="http://www.w3.org/1999/xlink" width="292" height="271.359" viewBox="0 0 292 271.359">
  <defs>
    <clipPath id="clip-path">
      <rect id="Rectángulo_458794" data-name="Rectángulo 458794" width="219.127" height="206.162" fill="none"/>
    </clipPath>
  </defs>
  <g id="Grupo_1183377" data-name="Grupo 1183377" transform="translate(-1121.711 -5186.428)">
    <rect id="Rectángulo_457995" data-name="Rectángulo 457995" width="292" height="271.359" rx="10" transform="translate(1121.711 5186.428)" fill="#ff984a"/>
    <g id="Grupo_1183523" data-name="Grupo 1183523" transform="translate(1158.147 5219.026)">
      <g id="Grupo_1183522" data-name="Grupo 1183522" clip-path="url(#clip-path)">
        <path id="Trazado_1009568" data-name="Trazado 1009568" d="M76.464,33.483a28.791,28.791,0,0,0-7.345.95V90.08a28.775,28.775,0,1,0,7.345-56.6" transform="translate(-41.53 -20.118)" fill="#2e186b"/>
        <path id="Trazado_1009569" data-name="Trazado 1009569" d="M75.846,90.822a29.274,29.274,0,0,1-7.45-.963.411.411,0,0,1-.306-.4V33.814a.411.411,0,0,1,.306-.4,29.186,29.186,0,1,1,7.45,57.4m-6.935-1.679a28.363,28.363,0,1,0,0-55.01Z" transform="translate(-40.911 -19.5)" fill="#2e186b"/>
        <path id="Trazado_1009570" data-name="Trazado 1009570" d="M58.576,62.256A28.774,28.774,0,1,1,29.8,33.483,28.773,28.773,0,0,1,58.576,62.256" transform="translate(-0.618 -20.118)" fill="#fff"/>
        <path id="Trazado_1009571" data-name="Trazado 1009571" d="M63.209,76.058a19.6,19.6,0,1,1-19.6-19.6,19.6,19.6,0,0,1,19.6,19.6" transform="translate(-14.42 -33.919)" fill="#fff"/>
        <path id="Trazado_1009572" data-name="Trazado 1009572" d="M29.068,76.97A19.606,19.606,0,0,0,42.679,95.639,19.6,19.6,0,1,1,49.6,57.39c-.31-.019-.62-.025-.93-.025a19.605,19.605,0,0,0-19.6,19.6" transform="translate(-14.423 -33.92)" fill="#ff7af1"/>
        <path id="Trazado_1009573" data-name="Trazado 1009573" d="M42.987,95.455A20.015,20.015,0,1,1,63,75.44,20.037,20.037,0,0,1,42.987,95.455m0-39.209A19.194,19.194,0,1,0,62.181,75.44,19.215,19.215,0,0,0,42.987,56.246" transform="translate(-13.803 -33.302)" fill="#2e186b"/>
        <path id="Trazado_1009574" data-name="Trazado 1009574" d="M29.184,107.236A29.218,29.218,0,0,1,0,78.051,28.877,28.877,0,0,1,6.309,59.927a.411.411,0,1,1,.643.511A28.063,28.063,0,0,0,.822,78.051a28.364,28.364,0,0,0,46.191,22.06.411.411,0,0,1,.517.639,29.253,29.253,0,0,1-18.345,6.485" transform="translate(0 -35.913)" fill="#2e186b"/>
        <path id="Trazado_1009575" data-name="Trazado 1009575" d="M68.044,79.944a.411.411,0,0,1-.321-.667,28.064,28.064,0,0,0,6.152-17.64A28.4,28.4,0,0,0,45.512,33.274a28.057,28.057,0,0,0-17.67,6.176.411.411,0,0,1-.512-.642,28.87,28.87,0,0,1,18.182-6.355A29.218,29.218,0,0,1,74.7,61.637a28.878,28.878,0,0,1-6.33,18.152.411.411,0,0,1-.322.155" transform="translate(-16.328 -19.499)" fill="#2e186b"/>
        <path id="Trazado_1009576" data-name="Trazado 1009576" d="M60.181,81.913a4.756,4.756,0,0,1,3.643-1.446v-1.55h1.108v1.527a5.485,5.485,0,0,1,3.562,1.37A4.436,4.436,0,0,1,69.793,85h-2.04a3.466,3.466,0,0,0-.478-1.527,2.68,2.68,0,0,0-2.343-1.236v5.666A13.793,13.793,0,0,1,68.6,89.328a3.693,3.693,0,0,1,1.574,3.241,4.846,4.846,0,0,1-2.017,4.407,7.533,7.533,0,0,1-3.229.956v2.262H63.824V97.931q-3.392-.222-4.6-2.4a6.484,6.484,0,0,1-.665-3.183h2.064a5.725,5.725,0,0,0,.5,2.332,3.1,3.1,0,0,0,2.682,1.48V89.806a7.425,7.425,0,0,1-3.719-1.6,4.031,4.031,0,0,1-1.2-3.1,4.616,4.616,0,0,1,1.3-3.194m1.562,4.861a4.432,4.432,0,0,0,2.058.909V82.2a2.664,2.664,0,0,0-2.174.933,3.032,3.032,0,0,0-.647,1.83,2.25,2.25,0,0,0,.764,1.807m5.94,7.986a3.231,3.231,0,0,0,.4-1.621,2.54,2.54,0,0,0-1.073-2.215,6.843,6.843,0,0,0-2.075-.839v6.132a3.046,3.046,0,0,0,2.751-1.457" transform="translate(-35.182 -47.417)" fill="#2e186b"/>
        <path id="Trazado_1009577" data-name="Trazado 1009577" d="M443.364,122.658H404.756V244.441h20.7a7.1,7.1,0,0,0,7.007-5.935l17.909-107.584a7.1,7.1,0,0,0-7-8.264" transform="translate(-243.194 -73.698)" fill="#2e186b"/>
        <path id="Trazado_1009578" data-name="Trazado 1009578" d="M424.833,244.234h-20.7a.411.411,0,0,1-.411-.411V122.04a.411.411,0,0,1,.411-.411h38.608a7.509,7.509,0,0,1,7.408,8.743L432.245,237.955a7.491,7.491,0,0,1-7.412,6.279m-20.284-.821h20.284a6.672,6.672,0,0,0,6.6-5.592l17.909-107.583a6.687,6.687,0,0,0-6.6-7.786h-38.2Z" transform="translate(-242.576 -73.08)" fill="#2e186b"/>
        <path id="Trazado_1009579" data-name="Trazado 1009579" d="M270.981,448.34h23.1l-6.572-30.259H270.981Z" transform="translate(-162.817 -251.201)" fill="#2e186b"/>
        <path id="Trazado_1009580" data-name="Trazado 1009580" d="M293.459,448.132h-23.1a.411.411,0,0,1-.411-.411V417.463a.411.411,0,0,1,.411-.411h16.525a.41.41,0,0,1,.4.324l6.572,30.259a.411.411,0,0,1-.4.5m-22.686-.821H292.95l-6.393-29.437H270.773Z" transform="translate(-162.198 -250.582)" fill="#2e186b"/>
        <path id="Trazado_1009581" data-name="Trazado 1009581" d="M297.774,486.341H270.98v11.622h34.666v-3.75a7.873,7.873,0,0,0-7.873-7.873" transform="translate(-162.816 -292.214)" fill="#2e186b"/>
        <path id="Trazado_1009582" data-name="Trazado 1009582" d="M305.029,497.756H270.363a.411.411,0,0,1-.411-.411V485.723a.411.411,0,0,1,.411-.411h26.794a8.293,8.293,0,0,1,8.283,8.284v3.749a.411.411,0,0,1-.411.411m-34.255-.821h33.845V493.6a7.471,7.471,0,0,0-7.462-7.462H270.773Z" transform="translate(-162.198 -291.596)" fill="#2e186b"/>
        <path id="Trazado_1009583" data-name="Trazado 1009583" d="M238.75,448.341h-38.2l-6.572-30.256h38.2Z" transform="translate(-116.55 -251.203)" fill="#fff"/>
        <path id="Trazado_1009584" data-name="Trazado 1009584" d="M205.479,448.341H200.55l-6.572-30.256h4.929Z" transform="translate(-116.55 -251.203)" fill="#9654ff"/>
        <path id="Trazado_1009585" data-name="Trazado 1009585" d="M238.131,448.133h-38.2a.411.411,0,0,1-.4-.323l-6.572-30.256a.411.411,0,0,1,.4-.5h38.2a.411.411,0,0,1,.4.323l6.572,30.256a.41.41,0,0,1-.4.5m-37.869-.821h37.359l-6.393-29.434H193.869Z" transform="translate(-115.932 -250.585)" fill="#2e186b"/>
        <path id="Trazado_1009586" data-name="Trazado 1009586" d="M222.7,130.922,204.795,238.506a7.1,7.1,0,0,1-7.008,5.935H48.036a7.1,7.1,0,0,1-7.007-8.269L58.942,128.589a7.1,7.1,0,0,1,7-5.931H215.7a7.1,7.1,0,0,1,7,8.264" transform="translate(-24.593 -73.698)" fill="#9654ff"/>
        <path id="Trazado_1009587" data-name="Trazado 1009587" d="M493.181,155.821l.711-4.268c-.016.173-.037.345-.065.518Z" transform="translate(-296.324 -91.059)" fill="#fff"/>
        <path id="Trazado_1009588" data-name="Trazado 1009588" d="M249.573,130.922l-.542,3.249c.329-4.116-3.487-7.817-7.693-7.817H91.582a7.1,7.1,0,0,0-5.931,3.2l.16-.965a7.1,7.1,0,0,1,7-5.931H242.57a7.1,7.1,0,0,1,7,8.264" transform="translate(-51.463 -73.698)" fill="#fff"/>
        <path id="Trazado_1009589" data-name="Trazado 1009589" d="M43.145,375.2l-2.116,12.708a7.1,7.1,0,0,0,7.007,8.269H197.787a7.1,7.1,0,0,0,7.008-5.935l2.5-15.042Z" transform="translate(-24.593 -225.439)" fill="#fff"/>
        <path id="Trazado_1009590" data-name="Trazado 1009590" d="M197.171,244.234H47.42a7.515,7.515,0,0,1-7.412-8.746L57.92,127.9a7.487,7.487,0,0,1,7.408-6.274h55.559a.411.411,0,1,1,0,.821H65.328a6.668,6.668,0,0,0-6.6,5.588L40.817,235.622a6.694,6.694,0,0,0,6.6,7.79H197.171a6.672,6.672,0,0,0,6.6-5.592l17.909-107.584a6.688,6.688,0,0,0-6.6-7.786H177.844a.411.411,0,1,1,0-.821h37.239a7.509,7.509,0,0,1,7.409,8.743L204.583,237.955a7.491,7.491,0,0,1-7.412,6.279" transform="translate(-23.977 -73.08)" fill="#2e186b"/>
        <rect id="Rectángulo_458791" data-name="Rectángulo 458791" width="8.763" height="7.257" transform="translate(131.577 163.595)" fill="#ff7af1"/>
        <path id="Trazado_1009591" data-name="Trazado 1009591" d="M197.171,395.974H47.42a7.515,7.515,0,0,1-7.412-8.746l2.116-12.709a.411.411,0,0,1,.405-.343H206.682a.411.411,0,0,1,.405.478l-2.5,15.042a7.491,7.491,0,0,1-7.413,6.279M42.877,375l-2.059,12.365a6.694,6.694,0,0,0,6.6,7.79H197.171a6.672,6.672,0,0,0,6.6-5.592L206.2,375Z" transform="translate(-23.977 -224.821)" fill="#2e186b"/>
        <path id="Trazado_1009592" data-name="Trazado 1009592" d="M223.006,494.215v3.75H148.525v-3.75a7.873,7.873,0,0,1,7.874-7.874h58.737a7.872,7.872,0,0,1,7.87,7.874" transform="translate(-89.24 -292.214)" fill="#fff"/>
        <path id="Trazado_1009593" data-name="Trazado 1009593" d="M161.193,486.341a7.873,7.873,0,0,0-7.874,7.874v3.75h-4.793v-3.75a7.873,7.873,0,0,1,7.874-7.874Z" transform="translate(-89.24 -292.214)" fill="#9654ff"/>
        <path id="Trazado_1009594" data-name="Trazado 1009594" d="M222.388,497.758H147.907a.411.411,0,0,1-.411-.411V493.6a8.294,8.294,0,0,1,8.285-8.285h58.737A8.292,8.292,0,0,1,222.8,493.6v3.75a.411.411,0,0,1-.411.411m-74.071-.821h73.66V493.6a7.47,7.47,0,0,0-7.459-7.463H155.781a7.472,7.472,0,0,0-7.463,7.463Z" transform="translate(-88.622 -291.596)" fill="#2e186b"/>
        <path id="Trazado_1009595" data-name="Trazado 1009595" d="M14.762,515.25H4.7a.411.411,0,0,1,0-.821H14.762a.411.411,0,0,1,0,.821" transform="translate(-2.576 -309.09)" fill="#2e186b"/>
        <path id="Trazado_1009596" data-name="Trazado 1009596" d="M254.058,515.25H69.7a.411.411,0,1,1,0-.821H254.058a.411.411,0,1,1,0,.821" transform="translate(-41.632 -309.09)" fill="#2e186b"/>
        <path id="Trazado_1009597" data-name="Trazado 1009597" d="M233.107,397.153a2.875,2.875,0,0,1-2.875,2.875H201.479a2.875,2.875,0,1,1,0-5.75h28.753a2.873,2.873,0,0,1,2.875,2.875" transform="translate(-119.33 -236.899)" fill="#9654ff"/>
        <path id="Trazado_1009598" data-name="Trazado 1009598" d="M241.229,303.711H142.285l1.322-11.561a14.47,14.47,0,0,1,4.459-8.894c6.87-6.488,13.961-1.824,17.474,1.382a10.917,10.917,0,0,0,10.927,1.932c13.624-5.16,20.831-30.354,20.831-30.354l18.874,1.975c-3.331,5.052-4.55,15.134-4.965,20.714a15.4,15.4,0,0,0,1.957,8.927c5.055,8.776,12.548,2.958,15.84-.324a10.426,10.426,0,0,1,6.054-2.893c13.572-1.641,6.17,19.1,6.17,19.1" transform="translate(-85.491 -153.945)" fill="#fff"/>
        <path id="Trazado_1009599" data-name="Trazado 1009599" d="M142.745,365.122l-.46,4.024h98.944a40.034,40.034,0,0,0,1.14-4.024Z" transform="translate(-85.491 -219.38)" fill="#ff7af1"/>
        <path id="Trazado_1009600" data-name="Trazado 1009600" d="M240.611,303.5H141.667a.411.411,0,0,1-.408-.457l1.322-11.561a14.8,14.8,0,0,1,4.584-9.146c7.068-6.673,14.332-2,18.034,1.376a10.53,10.53,0,0,0,10.5,1.852c13.278-5.029,20.51-29.833,20.582-30.083a.412.412,0,0,1,.438-.3l18.873,1.975a.411.411,0,0,1,.3.635c-3.307,5.015-4.489,15.009-4.9,20.519a15.023,15.023,0,0,0,1.9,8.691c1.506,2.615,3.351,4.084,5.482,4.367,3.778.506,7.707-2.777,9.713-4.777a10.82,10.82,0,0,1,6.293-3.01c3.1-.374,5.408.359,6.863,2.18,4.085,5.112-.077,16.959-.256,17.461a.41.41,0,0,1-.387.273m-98.483-.821h98.189c.6-1.8,3.771-12.05.295-16.4-1.265-1.583-3.326-2.214-6.121-1.876a10,10,0,0,0-5.814,2.777c-2.113,2.106-6.276,5.557-10.4,5.009-2.4-.319-4.445-1.924-6.085-4.772a15.839,15.839,0,0,1-2.011-9.163c.4-5.392,1.538-15.027,4.678-20.343l-17.88-1.872c-.937,3.127-8.015,25.382-20.983,30.294a11.382,11.382,0,0,1-11.35-2.013c-3.491-3.186-10.331-7.6-16.914-1.386a13.985,13.985,0,0,0-4.333,8.643Z" transform="translate(-84.873 -153.327)" fill="#2e186b"/>
        <path id="Trazado_1009601" data-name="Trazado 1009601" d="M208.641,173.382,181.2,181.927a2.664,2.664,0,0,1-3.24-3.594l13.4-31.367a17.233,17.233,0,0,1,12.857-10.2l10.406-1.835Z" transform="translate(-106.792 -81.073)" fill="#ff7af1"/>
        <path id="Trazado_1009602" data-name="Trazado 1009602" d="M214.3,136.985l-8.7,1.535a17.231,17.231,0,0,0-12.856,10.2l-13.4,31.367a2.616,2.616,0,0,0-.15,1.672,2.657,2.657,0,0,1-1.239-3.425l13.4-31.367a17.233,17.233,0,0,1,12.857-10.2l10.406-1.835Z" transform="translate(-106.792 -81.073)" fill="#fff"/>
        <path id="Trazado_1009603" data-name="Trazado 1009603" d="M354.166,198.052l20.946,19.679a2.664,2.664,0,0,0,4.485-1.817l1.659-34.068a17.231,17.231,0,0,0-7.106-14.792l-8.558-6.2Z" transform="translate(-212.798 -96.648)" fill="#ff7af1"/>
        <path id="Trazado_1009604" data-name="Trazado 1009604" d="M391.9,217.775a2.634,2.634,0,0,0,1.937-2.436l1.659-34.067a17.232,17.232,0,0,0-7.106-14.793l-6.37-4.615.309-1.009,8.558,6.2a17.232,17.232,0,0,1,7.106,14.793l-1.66,34.068a2.662,2.662,0,0,1-4.433,1.862" transform="translate(-229.535 -96.648)" fill="#fff"/>
        <path id="Trazado_1009605" data-name="Trazado 1009605" d="M285.516,268.537l-23.09-5.313a2.436,2.436,0,0,1-1.428-3.8l5.308-7.324a2.438,2.438,0,0,1,2.52-.94l16.209,3.73a2.432,2.432,0,0,1,1.851,1.946l1.573,8.908a2.432,2.432,0,0,1-2.943,2.8" transform="translate(-156.539 -150.868)" fill="#ff7af1"/>
        <path id="Trazado_1009606" data-name="Trazado 1009606" d="M271.395,251.748a2.438,2.438,0,0,0-2.52.94l-5.308,7.324a2.436,2.436,0,0,0,1.428,3.8l-2.573-.592a2.436,2.436,0,0,1-1.429-3.8L266.3,252.1a2.439,2.439,0,0,1,2.52-.94Z" transform="translate(-156.536 -150.868)" fill="#fff"/>
        <path id="Trazado_1009607" data-name="Trazado 1009607" d="M179.777,181.843a3.08,3.08,0,0,1-2.811-4.291l13.4-31.366a17.584,17.584,0,0,1,13.163-10.442l10.406-1.835a.411.411,0,0,1,.477.468l-5.98,38.45a.409.409,0,0,1-.283.329L180.706,181.7a3.111,3.111,0,0,1-.929.143m33.733-47.026-9.841,1.736a16.764,16.764,0,0,0-12.55,9.956l-13.4,31.367a2.254,2.254,0,0,0,2.74,3.041l27.2-8.469Zm-5.486,37.946h0Z" transform="translate(-106.176 -80.454)" fill="#2e186b"/>
        <path id="Trazado_1009608" data-name="Trazado 1009608" d="M376.3,218.249a3.044,3.044,0,0,1-2.093-.839l-20.946-19.678a.411.411,0,0,1-.111-.42l11.427-37.2a.41.41,0,0,1,.633-.212l8.558,6.2a17.583,17.583,0,0,1,7.275,15.145l-1.66,34.068a3.045,3.045,0,0,1-1.919,2.706,3.107,3.107,0,0,1-1.165.229m-22.289-20.941,20.759,19.5a2.253,2.253,0,0,0,3.794-1.536l1.66-34.068a16.764,16.764,0,0,0-6.937-14.44l-8.093-5.862Z" transform="translate(-212.179 -96.03)" fill="#2e186b"/>
        <path id="Trazado_1009609" data-name="Trazado 1009609" d="M285.449,268.391a2.868,2.868,0,0,1-.643-.073L261.717,263a2.847,2.847,0,0,1-1.669-4.445l5.308-7.324a2.844,2.844,0,0,1,2.944-1.1l16.209,3.73a2.841,2.841,0,0,1,2.163,2.274l1.573,8.908a2.843,2.843,0,0,1-2.8,3.342m-17.792-17.506a2.02,2.02,0,0,0-1.637.833l-5.308,7.324A2.025,2.025,0,0,0,261.9,262.2l23.09,5.313a2.021,2.021,0,0,0,2.446-2.325l-1.573-8.908a2.019,2.019,0,0,0-1.539-1.617l-16.209-3.73a2.05,2.05,0,0,0-.459-.052" transform="translate(-155.922 -150.249)" fill="#2e186b"/>
        <path id="Trazado_1009610" data-name="Trazado 1009610" d="M309.624,60.353c-4.377,19.022-13.7,40.232-22.925,50.212a3.284,3.284,0,0,1-3.149.978l-30.126-6.932a3.284,3.284,0,0,1-2.4-2.256c-3.936-13.008-3.05-36.159,1.327-55.182C258.222,21.636,279.425,7.13,288.88,1.807a5.871,5.871,0,0,1,7.712,1.775c6.173,8.919,18.908,31.235,13.032,56.771" transform="translate(-149.315 -0.63)" fill="#fff"/>
        <path id="Trazado_1009611" data-name="Trazado 1009611" d="M294.4,1.677a5.807,5.807,0,0,0-2.8.756c-9.455,5.323-30.658,19.829-36.534,45.366-4.377,19.023-5.264,42.171-1.328,55.183a3.287,3.287,0,0,0,2.4,2.254l-2.718-.626a3.294,3.294,0,0,1-2.406-2.255c-3.936-13.012-3.05-36.16,1.327-55.183,5.876-25.537,27.079-40.043,36.535-45.366a5.861,5.861,0,0,1,5.521-.13" transform="translate(-149.314 -0.63)" fill="#ff7af1"/>
        <path id="Trazado_1009612" data-name="Trazado 1009612" d="M340.576,23.555A87.9,87.9,0,0,0,330.291,3.581a5.871,5.871,0,0,0-7.712-1.774A87.8,87.8,0,0,0,304.6,15.276c12.207,6.456,24.183,8.928,35.979,8.279" transform="translate(-183.015 -0.63)" fill="#ff7af1"/>
        <path id="Trazado_1009613" data-name="Trazado 1009613" d="M329.46,2.625a5.835,5.835,0,0,0-4.557.509,87.884,87.884,0,0,0-17.879,13.374q-1.212-.587-2.426-1.233A87.861,87.861,0,0,1,322.579,1.806a5.862,5.862,0,0,1,6.88.818" transform="translate(-183.015 -0.63)" fill="#fff"/>
        <path id="Trazado_1009614" data-name="Trazado 1009614" d="M328.357,107.555a16.923,16.923,0,1,1-12.7-20.287,16.923,16.923,0,0,1,12.7,20.287" transform="translate(-177.212 -52.173)" fill="#2e186b"/>
        <path id="Trazado_1009615" data-name="Trazado 1009615" d="M311.276,120.478a17.466,17.466,0,0,1-3.92-.448,17.333,17.333,0,1,1,20.779-13l-.4-.092.4.092a17.351,17.351,0,0,1-16.859,13.453m-.065-33.858a16.564,16.564,0,1,0,3.735.427,16.625,16.625,0,0,0-3.735-.427" transform="translate(-176.589 -51.551)" fill="#2e186b"/>
        <path id="Trazado_1009616" data-name="Trazado 1009616" d="M283.643,111.405a3.635,3.635,0,0,1-.818-.093L252.7,104.38a3.708,3.708,0,0,1-2.705-2.538c-3.822-12.63-3.279-35.408,1.319-55.392C257.266,20.579,278.984,5.92,288.046.818a6.255,6.255,0,0,1,8.251,1.9c5.919,8.553,19.045,31.238,13.095,57.1-4.6,19.985-14.067,40.709-23.024,50.4a3.717,3.717,0,0,1-2.724,1.193M291.139.823a5.459,5.459,0,0,0-2.69.711c-8.967,5.048-30.456,19.548-36.336,45.1C247.544,66.493,247,89.1,250.78,101.6a2.882,2.882,0,0,0,2.1,1.975l30.126,6.933a2.883,2.883,0,0,0,2.755-.857c8.87-9.594,18.256-30.166,22.827-50.025,5.877-25.54-7.112-47.982-12.969-56.445A5.444,5.444,0,0,0,291.139.823m17.852,58.9h0Z" transform="translate(-148.682 0)" fill="#2e186b"/>
        <path id="Trazado_1009617" data-name="Trazado 1009617" d="M336.4,23.433a69.239,69.239,0,0,1-32.609-8.425.411.411,0,0,1-.1-.657A87.886,87.886,0,0,1,321.76.818a6.254,6.254,0,0,1,8.251,1.9,88,88,0,0,1,10.334,20.069.41.41,0,0,1-.364.548q-1.794.1-3.584.1m-31.724-8.888a67.735,67.735,0,0,0,34.71,8A87.252,87.252,0,0,0,329.336,3.184a5.437,5.437,0,0,0-7.172-1.651,87.145,87.145,0,0,0-17.491,13.011" transform="translate(-182.397 0)" fill="#2e186b"/>
        <path id="Trazado_1009618" data-name="Trazado 1009618" d="M323.411,100.43a16.923,16.923,0,1,1-12.7-20.286,16.923,16.923,0,0,1,12.7,20.286" transform="translate(-174.24 -47.892)" fill="#9654ff"/>
        <path id="Trazado_1009619" data-name="Trazado 1009619" d="M292.3,95.066a16.863,16.863,0,0,0,2.684,13.574,16.923,16.923,0,1,1,25.74-21.782A16.928,16.928,0,0,0,292.3,95.066" transform="translate(-174.238 -47.894)" fill="#fff"/>
        <path id="Trazado_1009620" data-name="Trazado 1009620" d="M306.337,113.359A17.337,17.337,0,1,1,323.2,99.906a17.351,17.351,0,0,1-16.859,13.453M306.3,79.505a16.521,16.521,0,1,0,3.7.423,16.541,16.541,0,0,0-3.7-.423M322.8,99.814h0Z" transform="translate(-173.624 -47.277)" fill="#2e186b"/>
        <path id="Trazado_1009621" data-name="Trazado 1009621" d="M300.908,217.728c-2.029,8.816-5.316,15.584-7.343,15.118s-2.025-7.991,0-16.807,5.316-15.584,7.343-15.118,2.025,7.991,0,16.807" transform="translate(-175.474 -120.708)" fill="#2e186b"/>
        <path id="Trazado_1009622" data-name="Trazado 1009622" d="M293.153,232.662a1.271,1.271,0,0,1-.285-.032c-2.644-.609-2.13-9.367-.3-17.3s5.195-16.036,7.835-15.426,2.13,9.367.3,17.3c-1.76,7.65-4.954,15.459-7.55,15.459m6.946-31.97c-1.426,0-4.576,5.443-6.735,14.822-2.219,9.642-1.677,16-.311,16.314s4.631-5.168,6.85-14.81,1.676-16,.311-16.314a.525.525,0,0,0-.116-.013" transform="translate(-174.868 -120.091)" fill="#2e186b"/>
        <path id="Trazado_1009623" data-name="Trazado 1009623" d="M430.474,371.9a34,34,0,1,1-34-34,34,34,0,0,1,34,34" transform="translate(-217.792 -203.027)" fill="#2e186b"/>
        <path id="Trazado_1009624" data-name="Trazado 1009624" d="M395.859,405.692a34.409,34.409,0,1,1,34.409-34.409,34.448,34.448,0,0,1-34.409,34.409m0-68a33.587,33.587,0,1,0,33.588,33.588A33.625,33.625,0,0,0,395.859,337.7" transform="translate(-217.174 -202.408)" fill="#2e186b"/>
        <path id="Trazado_1009625" data-name="Trazado 1009625" d="M417.684,371.9a34,34,0,1,1-34-34,34,34,0,0,1,34,34" transform="translate(-210.107 -203.027)" fill="#ff7af1"/>
        <path id="Trazado_1009626" data-name="Trazado 1009626" d="M408.705,348.887a33.995,33.995,0,0,0-48.035,48.034,34,34,0,1,1,48.035-48.034" transform="translate(-210.107 -203.026)" fill="#fff"/>
        <path id="Trazado_1009627" data-name="Trazado 1009627" d="M394.665,409.584a26.7,26.7,0,1,1,26.7-26.7,26.735,26.735,0,0,1-26.7,26.7" transform="translate(-221.086 -214.005)" fill="#fff"/>
        <path id="Trazado_1009628" data-name="Trazado 1009628" d="M414.195,364.687a26.69,26.69,0,0,0-37.7,37.751,26.693,26.693,0,1,1,37.7-37.751" transform="translate(-221.084 -214.005)" fill="#ff7af1"/>
        <path id="Trazado_1009629" data-name="Trazado 1009629" d="M405.643,413.27a19.411,19.411,0,1,1,19.411-19.411,19.433,19.433,0,0,1-19.411,19.411" transform="translate(-232.064 -224.983)" fill="#ff7af1"/>
        <path id="Trazado_1009630" data-name="Trazado 1009630" d="M405.643,413.27a19.411,19.411,0,1,1,19.411-19.411,19.433,19.433,0,0,1-19.411,19.411" transform="translate(-232.064 -224.983)" fill="#ff7af1"/>
        <path id="Trazado_1009631" data-name="Trazado 1009631" d="M420.04,380.858a19.4,19.4,0,0,0-27.4,27.4,19.4,19.4,0,1,1,27.4-27.4" transform="translate(-232.064 -224.983)" fill="#fff"/>
        <path id="Trazado_1009632" data-name="Trazado 1009632" d="M416.622,416.955a12.118,12.118,0,1,1,12.118-12.118,12.132,12.132,0,0,1-12.118,12.118" transform="translate(-243.043 -235.962)" fill="#fff"/>
        <path id="Trazado_1009633" data-name="Trazado 1009633" d="M425.577,396.679a12.114,12.114,0,0,0-16.556,17.592,12.115,12.115,0,1,1,16.556-17.592" transform="translate(-243.042 -235.962)" fill="#ff7af1"/>
        <path id="Trazado_1009634" data-name="Trazado 1009634" d="M394.046,409.377a27.117,27.117,0,0,1-7.35-53.219.411.411,0,1,1,.223.79,26.3,26.3,0,1,0,7.127-.981c-.517,0-1.041.016-1.557.046a.411.411,0,0,1-.048-.82c.532-.032,1.073-.047,1.605-.047a27.115,27.115,0,0,1,0,54.231" transform="translate(-220.467 -213.386)" fill="#2e186b"/>
        <path id="Trazado_1009635" data-name="Trazado 1009635" d="M405.024,413.063a19.822,19.822,0,1,1,19.822-19.822,19.844,19.844,0,0,1-19.822,19.822m0-38.822a19,19,0,1,0,19,19,19.022,19.022,0,0,0-19-19" transform="translate(-231.445 -224.366)" fill="#2e186b"/>
        <path id="Trazado_1009636" data-name="Trazado 1009636" d="M416,416.748a12.528,12.528,0,1,1,12.528-12.528A12.543,12.543,0,0,1,416,416.748m0-24.235a11.707,11.707,0,1,0,11.707,11.707A11.721,11.721,0,0,0,416,392.512" transform="translate(-242.424 -235.344)" fill="#2e186b"/>
        <path id="Trazado_1009637" data-name="Trazado 1009637" d="M383.067,405.692a34.409,34.409,0,1,1,34.409-34.409,34.448,34.448,0,0,1-34.409,34.409m0-68a33.587,33.587,0,1,0,33.587,33.588A33.625,33.625,0,0,0,383.067,337.7" transform="translate(-209.488 -202.408)" fill="#2e186b"/>
        <path id="Trazado_1009638" data-name="Trazado 1009638" d="M434.052,367.789a.411.411,0,0,1-.286-.706l37.642-36.417a.411.411,0,1,1,.571.59l-37.642,36.417a.409.409,0,0,1-.285.115" transform="translate(-260.549 -198.609)" fill="#2e186b"/>
        <path id="Trazado_1009639" data-name="Trazado 1009639" d="M520.1,332.057l-3.587,3.365a.538.538,0,0,1-.39.147l-3.8-.124a.549.549,0,0,1-.531-.566l.123-3.8a.548.548,0,0,1,.171-.382l3.586-3.361a.549.549,0,0,1,.926.416l-.089,2.7a.549.549,0,0,0,.531.566l2.7.089a.546.546,0,0,1,.357.946" transform="translate(-307.509 -196.589)" fill="#2e186b"/>
        <path id="Trazado_1009640" data-name="Trazado 1009640" d="M515.528,335.364h-.04l-3.792-.123a.947.947,0,0,1-.669-.3.957.957,0,0,1-.26-.685l.124-3.8a.952.952,0,0,1,.295-.663l3.591-3.367a.96.96,0,0,1,1.617.727l-.089,2.7a.138.138,0,0,0,.132.141l2.7.089a.957.957,0,0,1,.624,1.657l-3.587,3.365a.949.949,0,0,1-.649.258m-.095-8.379a.135.135,0,0,0-.094.04l-3.586,3.361a.135.135,0,0,0-.041.09l-.124,3.8a.138.138,0,0,0,.132.141l3.8.124a.139.139,0,0,0,.094-.034l3.589-3.366h0a.131.131,0,0,0,.036-.149.128.128,0,0,0-.123-.087l-2.7-.089a.946.946,0,0,1-.668-.3.958.958,0,0,1-.26-.685l.089-2.7a.132.132,0,0,0-.081-.129.147.147,0,0,0-.059-.013" transform="translate(-306.891 -195.973)" fill="#2e186b"/>
        <path id="Trazado_1009641" data-name="Trazado 1009641" d="M437.817,416.9H437.8l-3.889-.175a.411.411,0,0,1-.392-.429l.175-3.889a.418.418,0,0,1,.429-.392.41.41,0,0,1,.392.429l-.156,3.478,3.478.156a.411.411,0,0,1-.018.821" transform="translate(-260.475 -247.554)" fill="#2e186b"/>
        <rect id="Rectángulo_458792" data-name="Rectángulo 458792" width="42.427" height="37.986" transform="translate(6.165 141.843)" fill="#2e186b"/>
        <path id="Trazado_1009642" data-name="Trazado 1009642" d="M57.253,393.133H14.827a.411.411,0,0,1-.411-.411V354.736a.411.411,0,0,1,.411-.411H57.253a.411.411,0,0,1,.411.411v37.986a.411.411,0,0,1-.411.411m-42.016-.822H56.843V355.146H15.237Z" transform="translate(-8.662 -212.893)" fill="#2e186b"/>
        <rect id="Rectángulo_458793" data-name="Rectángulo 458793" width="42.427" height="37.986" transform="translate(1.847 141.843)" fill="#fff"/>
        <path id="Trazado_1009643" data-name="Trazado 1009643" d="M46.433,393.134H4a.411.411,0,0,1-.411-.411V367.7a.411.411,0,1,1,.821,0v24.616H46.023V355.146H4.414V359.4a.411.411,0,1,1-.821,0v-4.667A.411.411,0,0,1,4,354.325h42.43a.411.411,0,0,1,.411.411v37.988a.411.411,0,0,1-.411.411" transform="translate(-2.159 -212.893)" fill="#2e186b"/>
        <path id="Trazado_1009644" data-name="Trazado 1009644" d="M90.3,408.29v8.122a1.157,1.157,0,0,1-1.157,1.157H85.982a1.157,1.157,0,0,1-1.157-1.157V408.29a1.157,1.157,0,0,1,1.157-1.157h3.156A1.157,1.157,0,0,1,90.3,408.29" transform="translate(-50.966 -244.622)" fill="#9654ff"/>
        <path id="Trazado_1009645" data-name="Trazado 1009645" d="M67.692,385.051v17.4a1.157,1.157,0,0,1-1.157,1.157H63.376a1.157,1.157,0,0,1-1.157-1.157v-17.4a1.157,1.157,0,0,1,1.157-1.157h3.159a1.157,1.157,0,0,1,1.157,1.157" transform="translate(-37.384 -230.66)" fill="#9654ff"/>
        <path id="Trazado_1009646" data-name="Trazado 1009646" d="M22.484,395.057v13.4a1.159,1.159,0,0,1-1.16,1.157H18.168a1.157,1.157,0,0,1-1.157-1.157v-13.4a1.157,1.157,0,0,1,1.157-1.157h3.157a1.159,1.159,0,0,1,1.16,1.157" transform="translate(-10.221 -236.672)" fill="#9654ff"/>
        <path id="Trazado_1009647" data-name="Trazado 1009647" d="M45.088,373.754v21.907a1.157,1.157,0,0,1-1.157,1.157H40.775a1.157,1.157,0,0,1-1.157-1.157V373.754a1.157,1.157,0,0,1,1.157-1.157h3.157a1.157,1.157,0,0,1,1.157,1.157" transform="translate(-23.804 -223.872)" fill="#9654ff"/>
        <path id="Trazado_1009648" data-name="Trazado 1009648" d="M90.3,424.109v1.808a1.157,1.157,0,0,1-1.157,1.157H85.982a1.157,1.157,0,0,1-1.157-1.157v-1.808a1.157,1.157,0,0,1,1.157-1.157h3.156a1.157,1.157,0,0,1,1.157,1.157" transform="translate(-50.966 -254.127)" fill="#ff7af1"/>
        <path id="Trazado_1009649" data-name="Trazado 1009649" d="M67.692,400.87v11.084a1.157,1.157,0,0,1-1.157,1.157H63.376a1.157,1.157,0,0,1-1.157-1.157V400.87a1.157,1.157,0,0,1,1.157-1.157h3.159a1.157,1.157,0,0,1,1.157,1.157" transform="translate(-37.384 -240.164)" fill="#ff7af1"/>
        <path id="Trazado_1009650" data-name="Trazado 1009650" d="M22.484,410.876v7.09a1.159,1.159,0,0,1-1.16,1.157H18.168a1.157,1.157,0,0,1-1.157-1.157v-7.09a1.157,1.157,0,0,1,1.157-1.157h3.157a1.159,1.159,0,0,1,1.16,1.157" transform="translate(-10.221 -246.176)" fill="#ff7af1"/>
        <path id="Trazado_1009651" data-name="Trazado 1009651" d="M45.088,389.573v15.593a1.157,1.157,0,0,1-1.157,1.157H40.775a1.157,1.157,0,0,1-1.157-1.157V389.573a1.157,1.157,0,0,1,1.157-1.157h3.157a1.157,1.157,0,0,1,1.157,1.157" transform="translate(-23.804 -233.377)" fill="#ff7af1"/>
        <path id="Trazado_1009652" data-name="Trazado 1009652" d="M462.44,17.165a14.524,14.524,0,0,0-12.563,21.813h9.206v6.844a14.525,14.525,0,1,0,3.357-28.657" transform="translate(-269.127 -10.313)" fill="#2e186b"/>
        <path id="Trazado_1009653" data-name="Trazado 1009653" d="M461.822,46.005a14.944,14.944,0,0,1-3.452-.4.411.411,0,0,1-.316-.4V38.77h-8.8a.411.411,0,0,1-.355-.2,14.935,14.935,0,1,1,12.918,7.44m-2.946-1.131a14.116,14.116,0,1,0-9.378-6.926h8.967a.411.411,0,0,1,.411.411Z" transform="translate(-268.508 -9.695)" fill="#2e186b"/>
        <path id="Trazado_1009654" data-name="Trazado 1009654" d="M470.424,31.689a14.527,14.527,0,0,1-19.657,13.589,3.8,3.8,0,1,1-6.106-4.389,14.524,14.524,0,1,1,25.763-9.2" transform="translate(-265.196 -10.313)" fill="#fff"/>
        <path id="Trazado_1009655" data-name="Trazado 1009655" d="M446.8,47.1a4.273,4.273,0,0,1-.753-.067,4.209,4.209,0,0,1-2.536-6.779,14.909,14.909,0,1,1,6.823,4.906A4.184,4.184,0,0,1,446.8,47.1m8.484-30.147a14.112,14.112,0,0,0-10.92,23.053.412.412,0,0,1-.021.544,3.386,3.386,0,1,0,5.445,3.915.411.411,0,0,1,.51-.194,14.114,14.114,0,1,0,4.987-27.318" transform="translate(-264.578 -9.695)" fill="#2e186b"/>
        <path id="Trazado_1009656" data-name="Trazado 1009656" d="M473.779,44.434l-6.657,6.661a2.057,2.057,0,0,1-2.908,0l-3.2-3.2a2.054,2.054,0,1,1,2.9-2.9l1.75,1.746,5.2-5.2a2.055,2.055,0,0,1,2.908,2.9" transform="translate(-276.634 -24.591)" fill="#2e186b"/>
        <path id="Trazado_1009657" data-name="Trazado 1009657" d="M226.28,16.315a.411.411,0,0,1-.295-.7l8.785-9.05a.411.411,0,0,1,.59.572l-8.784,9.051a.41.41,0,0,1-.295.124" transform="translate(-135.712 -3.871)" fill="#2e186b"/>
        <path id="Trazado_1009658" data-name="Trazado 1009658" d="M202.73,19.911a.411.411,0,0,1-.295-.7l8.785-9.051a.411.411,0,0,1,.59.572l-8.784,9.051a.41.41,0,0,1-.295.125" transform="translate(-121.562 -6.032)" fill="#2e186b"/>
        <path id="Trazado_1009659" data-name="Trazado 1009659" d="M16.393,248.317a.411.411,0,0,1-.293-.7L27.22,236.262a.411.411,0,0,1,.587.575L16.686,248.194a.41.41,0,0,1-.293.123" transform="translate(-9.603 -141.882)" fill="#2e186b"/>
        <path id="Trazado_1009660" data-name="Trazado 1009660" d="M18.764,269.372a.411.411,0,0,1-.288-.7l6.152-6.034a.411.411,0,0,1,.575.587l-6.152,6.034a.411.411,0,0,1-.288.117" transform="translate(-11.027 -157.731)" fill="#2e186b"/>
        <path id="Trazado_1009661" data-name="Trazado 1009661" d="M509.387,278.127a.411.411,0,0,1-.291-.7l8.045-8.045a.411.411,0,1,1,.581.581l-8.045,8.045a.41.41,0,0,1-.291.12" transform="translate(-305.814 -161.783)" fill="#2e186b"/>
        <path id="Trazado_1009662" data-name="Trazado 1009662" d="M511.165,280.9a.411.411,0,0,1-.287-.7l14.434-14.078a.411.411,0,1,1,.574.588l-14.434,14.079a.412.412,0,0,1-.287.117" transform="translate(-306.882 -159.824)" fill="#2e186b"/>
        <path id="Trazado_1009663" data-name="Trazado 1009663" d="M145.437,135.088c-3.316,5.131-6.608,8.9-7.353,8.419s1.338-5.032,4.654-10.163,6.608-8.9,7.353-8.419-1.338,5.032-4.654,10.163" transform="translate(-82.876 -75.035)" fill="#fff"/>
        <path id="Trazado_1009664" data-name="Trazado 1009664" d="M125.93,264.9c-3.316,5.131-6.608,8.9-7.353,8.419s1.338-5.032,4.654-10.163,6.608-8.9,7.353-8.419-1.338,5.032-4.654,10.163" transform="translate(-71.156 -153.03)" fill="#fff"/>
        <path id="Trazado_1009665" data-name="Trazado 1009665" d="M449.384,164.478c-3.316,5.131-6.608,8.9-7.353,8.419s1.338-5.032,4.654-10.163,6.608-8.9,7.353-8.419-1.338,5.032-4.654,10.163" transform="translate(-265.5 -92.694)" fill="#fff"/>
        <path id="Trazado_1009666" data-name="Trazado 1009666" d="M255.659,333.608c-3.316,5.131-6.608,8.9-7.353,8.419s1.338-5.032,4.654-10.163,6.608-8.9,7.353-8.419-1.338,5.032-4.654,10.163" transform="translate(-149.102 -194.314)" fill="#ff7af1"/>
      </g>
    </g>
  </g>
</svg>
