<svg id="Grupo_1184336" data-name="Grupo 1184336" xmlns="http://www.w3.org/2000/svg" xmlns:xlink="http://www.w3.org/1999/xlink" width="180" height="154.42" viewBox="0 0 180 154.42">
  <defs>
    <clipPath id="clip-path">
      <rect id="Rectángulo_459215" data-name="Rectángulo 459215" width="180" height="154.42" fill="none"/>
    </clipPath>
    <clipPath id="clip-path-4">
      <rect id="Rectángulo_459145" data-name="Rectángulo 459145" width="17.022" height="28.879" fill="none"/>
    </clipPath>
    <clipPath id="clip-path-5">
      <rect id="Rectángulo_459146" data-name="Rectángulo 459146" width="19.795" height="43.105" fill="none"/>
    </clipPath>
    <clipPath id="clip-path-6">
      <rect id="Rectángulo_459147" data-name="Rectángulo 459147" width="17.406" height="22.23" fill="none"/>
    </clipPath>
    <clipPath id="clip-path-7">
      <rect id="Rectángulo_459148" data-name="Rectángulo 459148" width="12.024" height="20.4" fill="none"/>
    </clipPath>
    <clipPath id="clip-path-8">
      <rect id="Rectángulo_459149" data-name="Rectángulo 459149" width="15.324" height="30.009" fill="none"/>
    </clipPath>
    <clipPath id="clip-path-9">
      <rect id="Rectángulo_459150" data-name="Rectángulo 459150" width="15.869" height="1.905" fill="none"/>
    </clipPath>
    <clipPath id="clip-path-11">
      <rect id="Rectángulo_459152" data-name="Rectángulo 459152" width="19.794" height="43.105" fill="none"/>
    </clipPath>
    <clipPath id="clip-path-16">
      <rect id="Rectángulo_459157" data-name="Rectángulo 459157" width="3.648" height="2.972" fill="none"/>
    </clipPath>
    <clipPath id="clip-path-17">
      <rect id="Rectángulo_459158" data-name="Rectángulo 459158" width="11.719" height="6.243" fill="none"/>
    </clipPath>
    <clipPath id="clip-path-18">
      <rect id="Rectángulo_459159" data-name="Rectángulo 459159" width="13.625" height="13.625" fill="none"/>
    </clipPath>
    <clipPath id="clip-path-19">
      <rect id="Rectángulo_459160" data-name="Rectángulo 459160" width="15.092" height="15.092" fill="none"/>
    </clipPath>
    <clipPath id="clip-path-20">
      <rect id="Rectángulo_459161" data-name="Rectángulo 459161" width="19.453" height="20.548" fill="none"/>
    </clipPath>
    <clipPath id="clip-path-21">
      <rect id="Rectángulo_459162" data-name="Rectángulo 459162" width="33.146" height="20.578" fill="none"/>
    </clipPath>
    <clipPath id="clip-path-22">
      <rect id="Rectángulo_459167" data-name="Rectángulo 459167" width="54.402" height="62.852" fill="none"/>
    </clipPath>
    <clipPath id="clip-path-23">
      <rect id="Rectángulo_459169" data-name="Rectángulo 459169" width="4.906" height="4.906" fill="none"/>
    </clipPath>
    <clipPath id="clip-path-43">
      <rect id="Rectángulo_459208" data-name="Rectángulo 459208" width="3.363" height="4.716" fill="none"/>
    </clipPath>
    <clipPath id="clip-path-44">
      <rect id="Rectángulo_459209" data-name="Rectángulo 459209" width="19.238" height="37.839" fill="none"/>
    </clipPath>
    <clipPath id="clip-path-45">
      <rect id="Rectángulo_459210" data-name="Rectángulo 459210" width="1.913" height="2.644" fill="none"/>
    </clipPath>
    <clipPath id="clip-path-46">
      <rect id="Rectángulo_459211" data-name="Rectángulo 459211" width="5.669" height="4.938" fill="none"/>
    </clipPath>
    <clipPath id="clip-path-47">
      <rect id="Rectángulo_459212" data-name="Rectángulo 459212" width="1.783" height="0.777" fill="none"/>
    </clipPath>
  </defs>
  <g id="Grupo_1184335" data-name="Grupo 1184335" clip-path="url(#clip-path)">
    <g id="Grupo_1184334" data-name="Grupo 1184334">
      <g id="Grupo_1184333" data-name="Grupo 1184333" clip-path="url(#clip-path)">
        <g id="Grupo_1184197" data-name="Grupo 1184197" opacity="0.1">
          <g id="Grupo_1184196" data-name="Grupo 1184196">
            <g id="Grupo_1184195" data-name="Grupo 1184195" clip-path="url(#clip-path)">
              <path id="Trazado_1010963" data-name="Trazado 1010963" d="M6.081,47.655a32.277,32.277,0,0,0-5.546,11.8C-1.536,68.642,2.488,79.7,11.321,82.962c7.6,2.806,17.178-.364,23.5,4.706,3.755,3.01,5.138,8.385,4.059,13.075s-4.315,8.681-8.242,11.462c-3.258,2.308-6.981,3.868-10.389,5.948s-6.626,4.866-7.974,8.624c-3,8.357,6.95,15.26,13.18,18.668,8.288,4.534,17.762,6.537,27.061,7.676a174.353,174.353,0,0,0,82.7-9.839c10.778-4.092,21.293-9.4,29.686-17.3s14.522-18.672,15.064-30.187c.439-9.312-3.3-19.246-11.174-24.234-3.815-2.417-8.294-3.537-12.375-5.471s-8.033-5.094-8.946-9.517c-.872-4.227,1.245-8.495,3.787-11.983,3.4-4.661,7.66-8.664,10.818-13.489s5.152-10.914,3.308-16.379C163.009,7.678,155.26,4.052,148.038,2.3,128.864-2.34,108.7.771,89.466,5.162c-26.074,5.953-52.312,14.6-72.909,31.662A60.415,60.415,0,0,0,6.081,47.655" transform="translate(0 0)" fill="#517aef"/>
            </g>
          </g>
        </g>
        <path id="Trazado_1010964" data-name="Trazado 1010964" d="M32.878,388.792a5.777,5.777,0,0,0,3.078,1.39,3.741,3.741,0,0,1,1.509.536,1.185,1.185,0,0,1,.452,1.413c-.25.481-.885.623-1.225,1.046a1.489,1.489,0,0,0,.362,1.962,4.334,4.334,0,0,0,2.041.776,26.814,26.814,0,0,0,6.808.731,11.338,11.338,0,0,0,2.255-.37q.2-.055.394-.116a7.9,7.9,0,0,0,3.5-2.157,13.386,13.386,0,0,0,1.638-2.448l1.079-1.9c.61-1.075.809-1.668.641-2.04-.324-.717-1.531-.485-2.049-1.466a1.845,1.845,0,0,1-.187-.678c-.2-1.521,1-2.112.952-3.348a2.715,2.715,0,0,0-2.036-2.488c-.674-.052-1.465.236-1.957-.226-.815-.766.436-2.289-.206-3.205-.6-.853-2.108-.237-2.88-.935-1.039-.939.356-3.045-.711-3.952-1.039-.885-2.789.736-3.929-.016-1.187-.783-.175-3.055-1.341-3.869-.906-.634-2.166.287-3.237.011-.938-.242-1.4-1.293-2.2-1.842a2.3,2.3,0,0,0-3.518,2.54,8.828,8.828,0,0,0,.952,1.734,1.94,1.94,0,0,1,.175,1.885c-.522.875-2.008.882-2.351,1.842-.306.86.575,1.655,1.369,2.1s1.744,1.069,1.655,1.977c-.116,1.187-1.94,1.66-1.986,2.852-.031.794.752,1.34,1.418,1.773s1.387,1.125,1.16,1.887-1.246.957-1.831,1.518a2.271,2.271,0,0,0,.2,3.08" transform="translate(-20.642 -244.506)" fill="#90abf3"/>
        <g id="Grupo_1184200" data-name="Grupo 1184200" transform="translate(13.932 122.892)" opacity="0.5">
          <g id="Grupo_1184199" data-name="Grupo 1184199">
            <g id="Grupo_1184198" data-name="Grupo 1184198" clip-path="url(#clip-path-4)">
              <path id="Trazado_1010965" data-name="Trazado 1010965" d="M43.967,390.408l2.107.7,3.714,1.233,3.645,1.209q.393,1.072.76,2.152.291.858.564,1.721l-1.228-.132-2.7-.289-2.715-.291a.205.205,0,1,0-.018.41l.317.034,2.5.268,2.511.269,1.256.135.215.023q.446,1.428.846,2.868.2-.054.394-.116-.4-1.452-.855-2.891l.04-.045.426-.476,1.681-1.878,1.688-1.886a.211.211,0,0,0,.009-.29.206.206,0,0,0-.29-.009l-.867.968L56.437,395.8l-1.3,1.454q-.386-1.212-.8-2.413-.251-.719-.514-1.434l.814-1.348,1.524-2.523L57.686,387a.205.205,0,1,0-.347-.218l-.866,1.433-1.524,2.524-1.314,2.176q-.771-2.065-1.637-4.094-.313-.733-.639-1.46l.549-1.11,1.044-2.108L54,382.037a.21.21,0,0,0-.065-.283.205.205,0,0,0-.283.065l-.591,1.194-1.044,2.108-.872,1.761q-.9-1.976-1.885-3.909-.206-.4-.416-.8l.5-.841,1-1.673,1-1.673a.205.205,0,0,0-.348-.218l-.564.943-1,1.673-.816,1.364q-1.138-2.148-2.388-4.236.1-.353.19-.707l.758-2.823a.21.21,0,0,0-.134-.257.207.207,0,0,0-.257.135q-.107.4-.214.8l-.635,2.367q-1.576-2.6-3.319-5.09c-.149-.214-.513-.021-.362.195s.309.444.462.667q1.462,2.127,2.8,4.335l-.246-.1-2.851-1.112a.206.206,0,0,0-.123.392l.8.31,2.771,1.081q.146.243.291.487,1.052,1.784,2.026,3.613l-.768-.258-2.227-.747-2.227-.748a.206.206,0,0,0-.123.392l1.252.42,2.227.748,2.145.72q.394.751.773,1.507.792,1.58,1.524,3.19l-1.134-.291-2.8-.719-2.81-.722a.21.21,0,0,0-.257.135.207.207,0,0,0,.135.257l1.581.406,2.8.719,2.7.694q.485,1.082.942,2.175.7,1.674,1.334,3.374l-1.705-.566-3.714-1.232-3.741-1.241a.205.205,0,1,0-.123.392" transform="translate(-42.154 -371.838)" fill="#646794"/>
            </g>
          </g>
        </g>
        <path id="Trazado_1010966" data-name="Trazado 1010966" d="M53.854,353.173A8,8,0,0,0,57.58,356a5.181,5.181,0,0,1,1.872,1.19,1.642,1.642,0,0,1,.174,2.048c-.486.572-1.387.568-1.977,1.033a2.062,2.062,0,0,0-.118,2.761,6,6,0,0,0,2.515,1.679,37.154,37.154,0,0,0,8.965,3.09,15.738,15.738,0,0,0,3.159.2q.284-.012.568-.035a10.932,10.932,0,0,0,5.4-1.83,18.544,18.544,0,0,0,2.968-2.8l2.043-2.232c1.156-1.263,1.608-2,1.5-2.556-.215-1.069-1.916-1.128-2.313-2.613a2.551,2.551,0,0,1-.043-.973c.2-2.116,2.008-2.541,2.319-4.226.277-1.5-.619-3.564-1.98-3.989-.893-.279-2.051-.134-2.573-.91-.864-1.286,1.295-2.955.713-4.391-.542-1.336-2.773-.972-3.6-2.152-1.113-1.588,1.42-4,.261-5.556-1.13-1.516-3.993.132-5.3-1.235-1.361-1.423.707-4.177-.615-5.637-1.028-1.135-3.013-.282-4.373-.985-1.191-.616-1.494-2.179-2.4-3.166a3.19,3.19,0,0,0-5.534,2.343,12.232,12.232,0,0,0,.749,2.635,2.687,2.687,0,0,1-.345,2.6c-.975,1.02-2.984.57-3.742,1.76-.68,1.067.264,2.412,1.2,3.264s2.024,1.981,1.623,3.181c-.523,1.567-3.132,1.642-3.562,3.238-.287,1.062.6,2.041,1.367,2.831s1.524,1.948.984,2.906c-.552.977-1.978.907-2.94,1.484-1.358.814-1.5,2.862-.683,4.219" transform="translate(-35.718 -215.375)" fill="#646794"/>
        <g id="Grupo_1184203" data-name="Grupo 1184203" transform="translate(23.604 109.518)" opacity="0.5">
          <g id="Grupo_1184202" data-name="Grupo 1184202">
            <g id="Grupo_1184201" data-name="Grupo 1184201" clip-path="url(#clip-path-5)">
              <path id="Trazado_1010967" data-name="Trazado 1010967" d="M71.56,356.921l2.629,1.6,4.634,2.812,4.547,2.759q.2,1.568.362,3.141.128,1.247.23,2.5l-1.617-.557-3.56-1.225-3.575-1.231a.284.284,0,0,0-.151.548l.417.144,3.292,1.133,3.307,1.139,1.654.569.283.1q.161,2.065.256,4.134.285-.012.568-.035-.1-2.086-.26-4.168l.068-.048.722-.511,2.849-2.016,2.862-2.025a.292.292,0,0,0,.1-.389.285.285,0,0,0-.389-.1l-1.469,1.04-2.591,1.833-2.206,1.561q-.147-1.755-.341-3.507-.117-1.049-.251-2.095l1.516-1.568,2.837-2.936,2.85-2.95a.284.284,0,0,0-.4-.4l-1.612,1.667-2.837,2.936L83.836,363.3q-.4-3.027-.945-6.033-.2-1.086-.411-2.168l1.084-1.328,2.06-2.524,2.06-2.524a.292.292,0,0,0,0-.4.285.285,0,0,0-.4,0l-1.167,1.429-2.06,2.524-1.721,2.108q-.6-2.945-1.338-5.86-.153-.608-.314-1.214l.939-.98,1.868-1.949,1.868-1.95a.285.285,0,1,0-.4-.4l-1.053,1.1-1.867,1.95-1.523,1.59q-.874-3.252-1.915-6.455l.474-.9,1.9-3.577a.29.29,0,0,0-.1-.388.286.286,0,0,0-.389.1l-.536,1.011-1.588,3q-1.326-3.994-2.908-7.9c-.136-.335-.686-.187-.548.151s.28.695.418,1.043q1.317,3.324,2.445,6.718l-.3-.206-3.505-2.382a.285.285,0,0,0-.287.491l.979.665,3.406,2.315c.081.249.162.5.242.748q.87,2.733,1.619,5.5l-.957-.586-2.776-1.7-2.776-1.7a.285.285,0,0,0-.287.491l1.561.953,2.776,1.7,2.673,1.634q.3,1.134.578,2.273.582,2.379,1.072,4.778l-1.441-.744-3.558-1.836L73.2,350.034a.29.29,0,0,0-.388.1.286.286,0,0,0,.1.389l2.009,1.037,3.558,1.836,3.435,1.772q.321,1.611.6,3.228.429,2.476.759,4.967l-2.128-1.291-4.634-2.811-4.667-2.831a.284.284,0,1,0-.287.491" transform="translate(-71.421 -331.371)" fill="#4f545d"/>
            </g>
          </g>
        </g>
        <path id="Trazado_1010968" data-name="Trazado 1010968" d="M87.388,409.77a4.077,4.077,0,0,0,2.174.982,2.648,2.648,0,0,1,1.066.379.838.838,0,0,1,.319,1c-.176.34-.625.44-.866.739a1.051,1.051,0,0,0,.256,1.386,3.057,3.057,0,0,0,1.441.548,18.95,18.95,0,0,0,4.809.517,8.017,8.017,0,0,0,1.593-.261q.14-.038.279-.082a5.577,5.577,0,0,0,2.476-1.524,9.451,9.451,0,0,0,1.157-1.729l.762-1.342c.431-.759.572-1.179.453-1.441-.229-.507-1.081-.343-1.447-1.036a1.292,1.292,0,0,1-.132-.479c-.142-1.075.709-1.492.672-2.365a1.918,1.918,0,0,0-1.438-1.758c-.476-.037-1.035.167-1.383-.16-.576-.541.308-1.617-.145-2.264-.421-.6-1.489-.168-2.035-.66-.734-.663.252-2.151-.5-2.792-.734-.625-1.97.52-2.775-.011-.838-.553-.124-2.158-.947-2.733-.64-.448-1.53.2-2.286.008-.663-.171-.991-.913-1.554-1.3a1.627,1.627,0,0,0-2.485,1.794,6.232,6.232,0,0,0,.672,1.225,1.37,1.37,0,0,1,.124,1.331c-.369.618-1.419.623-1.66,1.3-.216.607.406,1.169.967,1.487s1.232.755,1.169,1.4c-.082.839-1.37,1.173-1.4,2.015-.022.561.531.947,1,1.252s.98.8.82,1.333-.88.676-1.293,1.072a1.6,1.6,0,0,0,.14,2.176" transform="translate(-57.538 -263.187)" fill="#90abf3"/>
        <g id="Grupo_1184206" data-name="Grupo 1184206" transform="translate(28.404 129.923)" opacity="0.2">
          <g id="Grupo_1184205" data-name="Grupo 1184205">
            <g id="Grupo_1184204" data-name="Grupo 1184204" clip-path="url(#clip-path-6)">
              <path id="Trazado_1010969" data-name="Trazado 1010969" d="M87.388,409.77a4.077,4.077,0,0,0,2.174.982,2.648,2.648,0,0,1,1.066.379.838.838,0,0,1,.319,1c-.176.34-.625.44-.866.739a1.051,1.051,0,0,0,.256,1.386,3.057,3.057,0,0,0,1.441.548,18.95,18.95,0,0,0,4.809.517,8.017,8.017,0,0,0,1.593-.261q.14-.038.279-.082a5.577,5.577,0,0,0,2.476-1.524,9.451,9.451,0,0,0,1.157-1.729l.762-1.342c.431-.759.572-1.179.453-1.441-.229-.507-1.081-.343-1.447-1.036a1.292,1.292,0,0,1-.132-.479c-.142-1.075.709-1.492.672-2.365a1.918,1.918,0,0,0-1.438-1.758c-.476-.037-1.035.167-1.383-.16-.576-.541.308-1.617-.145-2.264-.421-.6-1.489-.168-2.035-.66-.734-.663.252-2.151-.5-2.792-.734-.625-1.97.52-2.775-.011-.838-.553-.124-2.158-.947-2.733-.64-.448-1.53.2-2.286.008-.663-.171-.991-.913-1.554-1.3a1.627,1.627,0,0,0-2.485,1.794,6.232,6.232,0,0,0,.672,1.225,1.37,1.37,0,0,1,.124,1.331c-.369.618-1.419.623-1.66,1.3-.216.607.406,1.169.967,1.487s1.232.755,1.169,1.4c-.082.839-1.37,1.173-1.4,2.015-.022.561.531.947,1,1.252s.98.8.82,1.333-.88.676-1.293,1.072a1.6,1.6,0,0,0,.14,2.176" transform="translate(-85.942 -393.11)" fill="#4f545d"/>
            </g>
          </g>
        </g>
        <g id="Grupo_1184209" data-name="Grupo 1184209" transform="translate(31.047 131.471)" opacity="0.5">
          <g id="Grupo_1184208" data-name="Grupo 1184208">
            <g id="Grupo_1184207" data-name="Grupo 1184207" clip-path="url(#clip-path-7)">
              <path id="Trazado_1010970" data-name="Trazado 1010970" d="M105.2,424.373a.036.036,0,0,1-.016-.071.036.036,0,0,1,.016.071" transform="translate(-101.452 -415.541)" fill="#38a891"/>
              <path id="Trazado_1010971" data-name="Trazado 1010971" d="M95.221,410.911l1.489.494,2.624.871,2.575.854q.278.757.537,1.521.205.606.4,1.216l-.867-.093-1.91-.2-1.918-.206a.145.145,0,0,0-.013.29l.224.024,1.766.189,1.774.19.887.095.152.017q.315,1.008.6,2.026.14-.038.279-.082-.286-1.026-.6-2.043l.028-.032.3-.336,1.187-1.326,1.193-1.332a.15.15,0,0,0,.006-.205.145.145,0,0,0-.2-.006l-.612.684-1.08,1.206-.919,1.027q-.273-.856-.568-1.7-.177-.508-.363-1.013l.575-.953,1.077-1.782,1.081-1.791a.145.145,0,0,0-.246-.154l-.611,1.013-1.077,1.782-.928,1.537q-.545-1.459-1.156-2.892-.221-.518-.451-1.031l.388-.784.737-1.489.737-1.489a.149.149,0,0,0-.046-.2.146.146,0,0,0-.2.046l-.417.843-.737,1.489-.616,1.244q-.634-1.4-1.332-2.762-.145-.285-.294-.568l.355-.594.707-1.182.707-1.182a.148.148,0,0,0-.046-.2.146.146,0,0,0-.2.046l-.4.666-.707,1.182-.576.964q-.8-1.518-1.687-2.992l.134-.5.535-1.994a.148.148,0,0,0-.095-.182.146.146,0,0,0-.182.1l-.151.563q-.224.836-.449,1.672-1.113-1.835-2.344-3.6c-.105-.151-.362-.015-.255.137s.218.314.327.471q1.033,1.5,1.98,3.062l-.174-.068-2.014-.785a.145.145,0,0,0-.087.277l.563.219,1.957.764c.068.114.137.229.2.344q.744,1.26,1.431,2.552l-.543-.182-1.573-.528L94.51,403.6a.145.145,0,0,0-.087.277l.884.3,1.573.528,1.515.509q.278.53.546,1.065.56,1.116,1.076,2.253l-.8-.206-1.978-.508-1.985-.51a.148.148,0,0,0-.181.095.146.146,0,0,0,.095.182l1.117.287,1.978.508,1.909.49q.343.764.666,1.536.495,1.182.943,2.383l-1.2-.4-2.624-.871-2.642-.877a.145.145,0,1,0-.087.277" transform="translate(-93.941 -397.794)" fill="#646794"/>
            </g>
          </g>
        </g>
        <path id="Trazado_1010972" data-name="Trazado 1010972" d="M131.114,388.561a5.772,5.772,0,0,1-2.933,1.675,3.745,3.745,0,0,0-1.452.677,1.185,1.185,0,0,0-.316,1.45c.294.455.94.537,1.319.925a1.489,1.489,0,0,1-.175,1.988,4.333,4.333,0,0,1-1.958.966,26.819,26.819,0,0,1-6.708,1.372,11.357,11.357,0,0,1-2.28-.155q-.2-.035-.4-.078a7.893,7.893,0,0,1-3.693-1.816,13.366,13.366,0,0,1-1.862-2.282l-1.254-1.79c-.709-1.013-.963-1.584-.831-1.971.254-.745,1.478-.628,1.9-1.654a1.833,1.833,0,0,0,.122-.692c.056-1.534-1.2-2.008-1.264-3.243a2.715,2.715,0,0,1,1.792-2.67c.666-.116,1.481.1,1.927-.411.739-.84-.65-2.237-.1-3.21.513-.905,2.076-.436,2.779-1.2.946-1.033-.642-3,.333-4,.951-.98,2.846.468,3.91-.388,1.108-.891-.114-3.057.969-3.978.842-.716,2.184.081,3.223-.3.911-.329,1.274-1.419,2.016-2.041a2.3,2.3,0,0,1,3.743,2.2,8.844,8.844,0,0,1-.783,1.816,1.94,1.94,0,0,0,0,1.893c.6.822,2.083.688,2.514,1.611.387.828-.415,1.7-1.164,2.225s-1.635,1.229-1.46,2.125c.228,1.171,2.088,1.469,2.247,2.652.106.788-.622,1.405-1.244,1.9s-1.274,1.252-.977,1.988,1.331.835,1.966,1.338a2.27,2.27,0,0,1,.094,3.085" transform="translate(-72.663 -244.507)" fill="#90abf3"/>
        <g id="Grupo_1184212" data-name="Grupo 1184212" transform="translate(39.821 122.942)" opacity="0.5">
          <g id="Grupo_1184211" data-name="Grupo 1184211">
            <g id="Grupo_1184210" data-name="Grupo 1184210" clip-path="url(#clip-path-8)">
              <path id="Trazado_1010973" data-name="Trazado 1010973" d="M135.356,390.621l-2.032.9-3.581,1.578-3.514,1.549q-.29,1.1-.553,2.215-.209.881-.4,1.766l1.21-.247,2.664-.544,2.675-.546a.205.205,0,0,1,.057.407l-.312.063-2.463.5-2.474.505-1.237.253-.212.043q-.308,1.464-.57,2.935c-.135-.023-.27-.05-.4-.078q.265-1.484.577-2.96l-.045-.041-.469-.433-1.851-1.71-1.859-1.718a.211.211,0,0,1-.036-.288.206.206,0,0,1,.288-.036l.955.882,1.683,1.556,1.433,1.324q.27-1.243.573-2.479.182-.74.376-1.476l-.938-1.265-1.756-2.368-1.764-2.379a.205.205,0,1,1,.326-.25l1,1.345,1.756,2.368,1.514,2.041q.572-2.129,1.242-4.23.242-.76.5-1.514l-.652-1.053-1.239-2-1.238-2a.211.211,0,0,1,.038-.288.206.206,0,0,1,.288.038l.7,1.133,1.239,2,1.034,1.671q.706-2.052,1.507-4.07.167-.42.338-.839l-.58-.79-1.154-1.571-1.154-1.571a.205.205,0,0,1,.326-.25l.651.886,1.154,1.571.942,1.281q.93-2.246,1.976-4.442l-.256-.686-1.021-2.739a.21.21,0,0,1,.109-.269.206.206,0,0,1,.269.109l.289.774.856,2.3q1.324-2.735,2.822-5.381c.129-.227.509-.07.378.16s-.265.471-.4.708q-1.254,2.256-2.38,4.581l.236-.119,2.733-1.377a.205.205,0,0,1,.159.379l-.763.384-2.656,1.338c-.081.17-.163.341-.243.512q-.879,1.875-1.675,3.789l.74-.33,2.147-.955,2.147-.955a.206.206,0,0,1,.16.379l-1.207.536-2.147.955-2.067.919q-.321.784-.627,1.574-.639,1.648-1.215,3.32l1.1-.4,2.719-.981,2.729-.984a.209.209,0,0,1,.269.109.206.206,0,0,1-.109.269l-1.535.554-2.719.981-2.625.947q-.38,1.123-.732,2.255-.539,1.733-1.009,3.485l1.644-.725,3.581-1.578,3.606-1.59a.205.205,0,1,1,.16.378" transform="translate(-120.486 -371.989)" fill="#646794"/>
            </g>
          </g>
        </g>
        <path id="Trazado_1010974" data-name="Trazado 1010974" d="M53.351,459.415h38.33a1.9,1.9,0,0,0-1.906-1.9H55.257a1.905,1.905,0,0,0-1.906,1.9" transform="translate(-35.719 -306.303)" fill="#90abf3"/>
        <g id="Grupo_1184215" data-name="Grupo 1184215" transform="translate(17.632 151.206)" opacity="0.2">
          <g id="Grupo_1184214" data-name="Grupo 1184214">
            <g id="Grupo_1184213" data-name="Grupo 1184213" clip-path="url(#clip-path-9)">
              <path id="Trazado_1010975" data-name="Trazado 1010975" d="M53.351,459.415H69.22a1.9,1.9,0,0,0-1.9-1.9H55.257a1.905,1.905,0,0,0-1.906,1.9" transform="translate(-53.351 -457.51)" fill="#4f545d"/>
            </g>
          </g>
        </g>
        <path id="Trazado_1010976" data-name="Trazado 1010976" d="M344.691,388.792a5.777,5.777,0,0,0,3.078,1.39,3.741,3.741,0,0,1,1.509.536,1.185,1.185,0,0,1,.452,1.413c-.25.481-.885.623-1.225,1.046a1.489,1.489,0,0,0,.362,1.962,4.334,4.334,0,0,0,2.04.776,26.814,26.814,0,0,0,6.808.731,11.338,11.338,0,0,0,2.255-.37q.2-.055.394-.116a7.9,7.9,0,0,0,3.5-2.157,13.386,13.386,0,0,0,1.638-2.448l1.079-1.9c.61-1.075.809-1.668.641-2.04-.324-.717-1.531-.485-2.049-1.466a1.845,1.845,0,0,1-.187-.678c-.2-1.521,1-2.112.952-3.348a2.715,2.715,0,0,0-2.036-2.488c-.674-.052-1.465.236-1.957-.226-.815-.766.436-2.289-.206-3.205-.6-.853-2.108-.237-2.88-.935-1.039-.939.356-3.045-.711-3.952-1.039-.885-2.789.736-3.929-.016-1.187-.783-.176-3.055-1.341-3.869-.906-.634-2.166.287-3.237.011-.938-.242-1.4-1.293-2.2-1.842a2.3,2.3,0,0,0-3.518,2.54,8.828,8.828,0,0,0,.952,1.734,1.94,1.94,0,0,1,.175,1.885c-.522.875-2.008.882-2.35,1.842-.306.86.575,1.655,1.369,2.1s1.744,1.069,1.655,1.977c-.116,1.187-1.94,1.66-1.986,2.852-.031.794.752,1.34,1.418,1.773s1.387,1.125,1.16,1.887-1.246.957-1.831,1.518a2.271,2.271,0,0,0,.2,3.08" transform="translate(-229.401 -244.506)" fill="#90abf3"/>
        <g id="Grupo_1184218" data-name="Grupo 1184218" transform="translate(116.986 122.892)" opacity="0.5">
          <g id="Grupo_1184217" data-name="Grupo 1184217">
            <g id="Grupo_1184216" data-name="Grupo 1184216" clip-path="url(#clip-path-4)">
              <path id="Trazado_1010977" data-name="Trazado 1010977" d="M355.78,390.408l2.107.7,3.714,1.233,3.645,1.209q.393,1.072.76,2.152.291.858.564,1.721l-1.228-.132-2.7-.289-2.715-.291a.205.205,0,1,0-.018.41l.317.034,2.5.268,2.511.269,1.256.135.215.023q.446,1.428.846,2.868.2-.054.394-.116-.4-1.452-.855-2.891l.04-.045.426-.476,1.681-1.878,1.688-1.886a.211.211,0,0,0,.009-.29.206.206,0,0,0-.29-.009l-.867.968L368.25,395.8l-1.3,1.454q-.386-1.212-.8-2.413-.251-.719-.514-1.434l.814-1.348,1.524-2.523L369.5,387a.205.205,0,1,0-.347-.218l-.866,1.433-1.524,2.524-1.314,2.176q-.771-2.065-1.637-4.094-.313-.733-.639-1.46l.549-1.11,1.044-2.108,1.044-2.108a.21.21,0,0,0-.065-.283.205.205,0,0,0-.283.065l-.591,1.194-1.044,2.108-.872,1.761q-.9-1.976-1.885-3.909-.206-.4-.416-.8l.5-.841,1-1.673,1-1.673a.205.205,0,0,0-.348-.218l-.564.943-1,1.673-.816,1.364q-1.138-2.148-2.388-4.236.1-.353.19-.707l.758-2.823a.21.21,0,0,0-.134-.257.207.207,0,0,0-.257.135q-.107.4-.214.8l-.635,2.367q-1.576-2.6-3.319-5.09c-.149-.214-.513-.021-.362.195s.309.444.462.667q1.462,2.127,2.8,4.335l-.246-.1-2.851-1.112a.206.206,0,0,0-.123.392l.8.31,2.771,1.081q.145.243.291.487,1.052,1.784,2.026,3.613l-.768-.258L357,380.8l-2.227-.748a.206.206,0,0,0-.123.392l1.252.42,2.227.748,2.145.72q.393.751.773,1.507.792,1.58,1.524,3.19l-1.134-.291-2.8-.719-2.81-.722a.21.21,0,0,0-.257.135.207.207,0,0,0,.134.257l1.581.406,2.8.719,2.7.694q.485,1.082.942,2.175.7,1.674,1.334,3.374l-1.705-.566-3.714-1.232-3.741-1.241a.205.205,0,1,0-.123.392" transform="translate(-353.967 -371.838)" fill="#646794"/>
            </g>
          </g>
        </g>
        <path id="Trazado_1010978" data-name="Trazado 1010978" d="M365.667,353.173A8,8,0,0,0,369.393,356a5.18,5.18,0,0,1,1.872,1.19,1.642,1.642,0,0,1,.174,2.048c-.486.572-1.387.568-1.977,1.033a2.062,2.062,0,0,0-.118,2.761,6,6,0,0,0,2.515,1.679,37.154,37.154,0,0,0,8.965,3.09,15.737,15.737,0,0,0,3.159.2c.189-.008.379-.02.568-.035a10.932,10.932,0,0,0,5.4-1.83,18.542,18.542,0,0,0,2.968-2.8l2.043-2.232c1.156-1.263,1.608-2,1.5-2.556-.215-1.069-1.916-1.128-2.313-2.613a2.55,2.55,0,0,1-.043-.973c.2-2.116,2.008-2.541,2.319-4.226.277-1.5-.619-3.564-1.98-3.989-.893-.279-2.051-.134-2.573-.91-.864-1.286,1.295-2.955.713-4.391-.542-1.336-2.773-.972-3.6-2.152-1.113-1.588,1.421-4,.261-5.556-1.13-1.516-3.993.132-5.3-1.235-1.361-1.423.707-4.177-.615-5.637-1.027-1.135-3.013-.282-4.373-.985-1.191-.616-1.494-2.179-2.4-3.166a3.19,3.19,0,0,0-5.534,2.343,12.231,12.231,0,0,0,.749,2.635,2.687,2.687,0,0,1-.345,2.6c-.975,1.02-2.984.57-3.742,1.76-.68,1.067.264,2.412,1.2,3.264s2.024,1.981,1.623,3.181c-.523,1.567-3.132,1.642-3.562,3.238-.287,1.062.6,2.041,1.367,2.831s1.524,1.948.984,2.906c-.552.977-1.978.907-2.94,1.484-1.358.814-1.5,2.862-.683,4.219" transform="translate(-244.478 -215.375)" fill="#646794"/>
        <g id="Grupo_1184221" data-name="Grupo 1184221" transform="translate(126.658 109.518)" opacity="0.5">
          <g id="Grupo_1184220" data-name="Grupo 1184220">
            <g id="Grupo_1184219" data-name="Grupo 1184219" clip-path="url(#clip-path-11)">
              <path id="Trazado_1010979" data-name="Trazado 1010979" d="M383.373,356.921l2.629,1.6,4.634,2.812,4.547,2.759q.2,1.568.362,3.141.128,1.247.23,2.5l-1.617-.557-3.56-1.225-3.575-1.231a.284.284,0,0,0-.151.548l.418.144,3.292,1.133,3.307,1.139,1.654.569.283.1q.161,2.065.256,4.134.285-.012.568-.035-.1-2.086-.26-4.168l.068-.048.722-.511,2.849-2.016,2.862-2.025a.292.292,0,0,0,.1-.389.285.285,0,0,0-.389-.1l-1.469,1.04-2.591,1.833-2.206,1.561q-.147-1.755-.341-3.507-.116-1.049-.251-2.095l1.516-1.568,2.837-2.936,2.85-2.95a.284.284,0,0,0-.4-.4l-1.611,1.667-2.837,2.936-2.447,2.532q-.4-3.027-.945-6.033-.2-1.086-.411-2.168l1.084-1.328,2.06-2.524,2.06-2.524a.292.292,0,0,0,0-.4.285.285,0,0,0-.4,0l-1.167,1.429-2.06,2.524-1.721,2.108q-.6-2.945-1.338-5.86-.153-.608-.314-1.214l.939-.98,1.868-1.949,1.868-1.95a.285.285,0,1,0-.4-.4l-1.053,1.1-1.867,1.95-1.523,1.59q-.874-3.252-1.915-6.455l.474-.9,1.9-3.577a.29.29,0,0,0-.1-.388.286.286,0,0,0-.389.1l-.536,1.011-1.588,3q-1.326-3.994-2.908-7.9c-.136-.335-.686-.187-.548.151s.28.695.418,1.043q1.317,3.324,2.445,6.718l-.3-.206-3.505-2.382a.285.285,0,0,0-.287.491l.979.665,3.406,2.315c.081.249.162.5.242.748q.87,2.733,1.619,5.5l-.957-.586-2.776-1.7-2.776-1.7a.285.285,0,0,0-.287.491l1.561.953,2.776,1.7,2.673,1.634q.3,1.134.578,2.273.581,2.379,1.072,4.778l-1.441-.744-3.558-1.836-3.571-1.843a.29.29,0,0,0-.388.1.286.286,0,0,0,.1.389l2.009,1.037,3.558,1.836,3.435,1.772q.321,1.611.6,3.228.429,2.476.759,4.967l-2.128-1.291-4.634-2.811-4.667-2.831a.284.284,0,0,0-.287.491" transform="translate(-383.234 -331.371)" fill="#4f545d"/>
            </g>
          </g>
        </g>
        <path id="Trazado_1010980" data-name="Trazado 1010980" d="M399.2,409.77a4.077,4.077,0,0,0,2.174.982,2.648,2.648,0,0,1,1.066.379.838.838,0,0,1,.319,1c-.176.34-.625.44-.866.739a1.051,1.051,0,0,0,.256,1.386,3.058,3.058,0,0,0,1.441.548,18.95,18.95,0,0,0,4.809.517,8.016,8.016,0,0,0,1.593-.261q.14-.038.279-.082a5.577,5.577,0,0,0,2.476-1.524,9.451,9.451,0,0,0,1.157-1.729l.762-1.342c.431-.759.572-1.179.453-1.441-.229-.507-1.081-.343-1.447-1.036a1.293,1.293,0,0,1-.132-.479c-.142-1.075.709-1.492.672-2.365a1.918,1.918,0,0,0-1.438-1.758c-.476-.037-1.035.167-1.383-.16-.576-.541.308-1.617-.145-2.264-.421-.6-1.489-.168-2.035-.66-.734-.663.251-2.151-.5-2.792-.734-.625-1.97.52-2.775-.011-.839-.553-.124-2.158-.947-2.733-.64-.448-1.53.2-2.286.008-.663-.171-.991-.913-1.554-1.3a1.627,1.627,0,0,0-2.485,1.794,6.232,6.232,0,0,0,.672,1.225,1.37,1.37,0,0,1,.124,1.331c-.369.618-1.419.623-1.66,1.3-.216.607.406,1.169.967,1.487s1.232.755,1.169,1.4c-.082.839-1.37,1.173-1.4,2.015-.022.561.531.947,1,1.252s.98.8.82,1.333-.88.676-1.293,1.072a1.6,1.6,0,0,0,.14,2.176" transform="translate(-266.298 -263.187)" fill="#90abf3"/>
        <g id="Grupo_1184224" data-name="Grupo 1184224" transform="translate(131.458 129.923)" opacity="0.2">
          <g id="Grupo_1184223" data-name="Grupo 1184223">
            <g id="Grupo_1184222" data-name="Grupo 1184222" clip-path="url(#clip-path-6)">
              <path id="Trazado_1010981" data-name="Trazado 1010981" d="M399.2,409.77a4.077,4.077,0,0,0,2.174.982,2.648,2.648,0,0,1,1.066.379.838.838,0,0,1,.319,1c-.176.34-.625.44-.866.739a1.051,1.051,0,0,0,.256,1.386,3.058,3.058,0,0,0,1.441.548,18.95,18.95,0,0,0,4.809.517,8.016,8.016,0,0,0,1.593-.261q.14-.038.279-.082a5.577,5.577,0,0,0,2.476-1.524,9.451,9.451,0,0,0,1.157-1.729l.762-1.342c.431-.759.572-1.179.453-1.441-.229-.507-1.081-.343-1.447-1.036a1.293,1.293,0,0,1-.132-.479c-.142-1.075.709-1.492.672-2.365a1.918,1.918,0,0,0-1.438-1.758c-.476-.037-1.035.167-1.383-.16-.576-.541.308-1.617-.145-2.264-.421-.6-1.489-.168-2.035-.66-.734-.663.251-2.151-.5-2.792-.734-.625-1.97.52-2.775-.011-.839-.553-.124-2.158-.947-2.733-.64-.448-1.53.2-2.286.008-.663-.171-.991-.913-1.554-1.3a1.627,1.627,0,0,0-2.485,1.794,6.232,6.232,0,0,0,.672,1.225,1.37,1.37,0,0,1,.124,1.331c-.369.618-1.419.623-1.66,1.3-.216.607.406,1.169.967,1.487s1.232.755,1.169,1.4c-.082.839-1.37,1.173-1.4,2.015-.022.561.531.947,1,1.252s.98.8.82,1.333-.88.676-1.293,1.072a1.6,1.6,0,0,0,.14,2.176" transform="translate(-397.756 -393.11)" fill="#4f545d"/>
            </g>
          </g>
        </g>
        <g id="Grupo_1184227" data-name="Grupo 1184227" transform="translate(134.101 131.471)" opacity="0.5">
          <g id="Grupo_1184226" data-name="Grupo 1184226">
            <g id="Grupo_1184225" data-name="Grupo 1184225" clip-path="url(#clip-path-7)">
              <path id="Trazado_1010982" data-name="Trazado 1010982" d="M417.017,424.373A.036.036,0,0,1,417,424.3a.036.036,0,0,1,.016.071" transform="translate(-413.266 -415.541)" fill="#38a891"/>
              <path id="Trazado_1010983" data-name="Trazado 1010983" d="M407.035,410.911l1.489.494,2.624.871,2.575.854q.278.757.537,1.521.205.606.4,1.216l-.867-.093-1.91-.2-1.918-.206a.145.145,0,1,0-.013.29l.224.024,1.766.189,1.774.19.887.095.152.017q.315,1.008.6,2.026.14-.038.279-.082-.286-1.026-.6-2.043l.028-.032.3-.336,1.187-1.326,1.193-1.332a.15.15,0,0,0,.006-.205.145.145,0,0,0-.2-.006l-.612.684-1.08,1.206-.919,1.027q-.273-.856-.568-1.7-.177-.508-.363-1.013l.575-.953,1.077-1.782,1.081-1.791a.145.145,0,1,0-.246-.154l-.611,1.013-1.077,1.782-.928,1.537q-.545-1.459-1.156-2.892-.221-.518-.451-1.031l.388-.784.737-1.489.737-1.489a.149.149,0,0,0-.046-.2.146.146,0,0,0-.2.046l-.417.843-.737,1.489-.616,1.244q-.634-1.4-1.332-2.762-.145-.285-.294-.568l.355-.594.707-1.182.707-1.182a.148.148,0,0,0-.046-.2.146.146,0,0,0-.2.046l-.4.666-.707,1.182-.576.964q-.8-1.518-1.687-2.992l.134-.5.535-1.994a.148.148,0,0,0-.095-.182.146.146,0,0,0-.182.1l-.151.563q-.224.836-.449,1.672-1.113-1.835-2.344-3.6c-.106-.151-.363-.015-.255.137s.218.314.327.471q1.033,1.5,1.98,3.062l-.174-.068-2.014-.785a.145.145,0,0,0-.087.277l.563.219,1.957.764c.068.114.137.229.205.344q.743,1.26,1.431,2.552l-.543-.182-1.573-.528-1.573-.528a.145.145,0,0,0-.087.277l.884.3,1.573.528,1.515.509q.278.53.546,1.065.56,1.116,1.076,2.253l-.8-.206-1.978-.508-1.985-.51a.148.148,0,0,0-.181.095.146.146,0,0,0,.095.182l1.117.287,1.978.508,1.909.49q.343.764.666,1.536.495,1.182.943,2.383l-1.205-.4-2.624-.871-2.642-.877a.145.145,0,1,0-.087.277" transform="translate(-405.754 -397.794)" fill="#646794"/>
            </g>
          </g>
        </g>
        <path id="Trazado_1010984" data-name="Trazado 1010984" d="M442.927,388.561a5.772,5.772,0,0,1-2.933,1.675,3.745,3.745,0,0,0-1.452.677,1.185,1.185,0,0,0-.316,1.45c.294.455.94.537,1.319.925a1.489,1.489,0,0,1-.175,1.988,4.334,4.334,0,0,1-1.958.966,26.819,26.819,0,0,1-6.708,1.372,11.357,11.357,0,0,1-2.28-.155q-.2-.035-.4-.078a7.893,7.893,0,0,1-3.693-1.816,13.384,13.384,0,0,1-1.862-2.282l-1.254-1.79c-.709-1.013-.963-1.584-.831-1.971.254-.745,1.478-.628,1.9-1.654a1.831,1.831,0,0,0,.122-.692c.056-1.534-1.2-2.008-1.264-3.243a2.715,2.715,0,0,1,1.792-2.67c.666-.116,1.481.1,1.927-.411.739-.84-.65-2.237-.1-3.21.513-.905,2.076-.436,2.779-1.2.946-1.033-.642-3,.334-4,.951-.98,2.846.468,3.91-.388,1.108-.891-.114-3.057.969-3.978.842-.716,2.184.081,3.223-.3.91-.329,1.274-1.419,2.016-2.041a2.3,2.3,0,0,1,3.743,2.2,8.839,8.839,0,0,1-.783,1.816,1.94,1.94,0,0,0,0,1.893c.6.822,2.083.688,2.514,1.611.387.828-.415,1.7-1.164,2.225s-1.635,1.229-1.461,2.125c.228,1.171,2.088,1.469,2.247,2.652.106.788-.622,1.405-1.244,1.9s-1.274,1.252-.977,1.988,1.331.835,1.966,1.338a2.27,2.27,0,0,1,.094,3.085" transform="translate(-281.422 -244.507)" fill="#90abf3"/>
        <g id="Grupo_1184230" data-name="Grupo 1184230" transform="translate(142.874 122.942)" opacity="0.5">
          <g id="Grupo_1184229" data-name="Grupo 1184229">
            <g id="Grupo_1184228" data-name="Grupo 1184228" clip-path="url(#clip-path-8)">
              <path id="Trazado_1010985" data-name="Trazado 1010985" d="M447.169,390.621l-2.032.9-3.581,1.578-3.514,1.549q-.29,1.1-.553,2.215-.209.881-.4,1.766l1.21-.247,2.664-.544,2.675-.546a.205.205,0,0,1,.057.407l-.312.063-2.463.5-2.474.505-1.237.253-.212.043q-.308,1.464-.57,2.935c-.135-.023-.27-.05-.4-.078q.265-1.484.577-2.96l-.044-.041-.469-.433-1.851-1.71-1.859-1.718a.211.211,0,0,1-.036-.288.206.206,0,0,1,.288-.036l.955.882,1.683,1.556L436.7,398.5q.27-1.243.573-2.479.182-.74.376-1.476l-.938-1.265-1.756-2.368-1.764-2.379a.205.205,0,1,1,.326-.25l1,1.345,1.756,2.368,1.514,2.041q.572-2.129,1.242-4.23.242-.76.5-1.514l-.652-1.053-1.239-2-1.238-2a.211.211,0,0,1,.038-.288.206.206,0,0,1,.288.038l.7,1.133,1.239,2,1.034,1.671q.706-2.052,1.507-4.07.167-.42.338-.839l-.58-.79-1.154-1.571-1.154-1.571a.205.205,0,0,1,.326-.25l.651.886,1.154,1.571.942,1.281q.93-2.246,1.976-4.442l-.256-.686-1.021-2.739a.21.21,0,0,1,.109-.269.206.206,0,0,1,.269.109l.289.774.856,2.3q1.324-2.735,2.822-5.381c.129-.227.509-.07.378.16s-.265.471-.4.708q-1.254,2.256-2.38,4.581l.236-.119,2.733-1.377a.205.205,0,0,1,.159.379l-.763.384-2.656,1.338q-.122.255-.243.512-.879,1.875-1.675,3.789l.74-.33,2.147-.955,2.147-.955a.206.206,0,0,1,.16.379l-1.207.536-2.147.955-2.067.919q-.321.784-.627,1.574-.639,1.648-1.215,3.32l1.1-.4,2.719-.981,2.729-.984a.209.209,0,0,1,.269.109.206.206,0,0,1-.109.269l-1.535.554-2.719.981-2.625.947q-.38,1.123-.732,2.255-.539,1.733-1.009,3.485l1.644-.725,3.581-1.578,3.606-1.59a.205.205,0,0,1,.16.378" transform="translate(-432.299 -371.989)" fill="#646794"/>
            </g>
          </g>
        </g>
        <path id="Trazado_1010986" data-name="Trazado 1010986" d="M365.164,459.415h38.33a1.9,1.9,0,0,0-1.906-1.9H367.07a1.905,1.905,0,0,0-1.906,1.9" transform="translate(-244.478 -306.303)" fill="#90abf3"/>
        <g id="Grupo_1184233" data-name="Grupo 1184233" transform="translate(120.686 151.206)" opacity="0.2">
          <g id="Grupo_1184232" data-name="Grupo 1184232">
            <g id="Grupo_1184231" data-name="Grupo 1184231" clip-path="url(#clip-path-9)">
              <path id="Trazado_1010987" data-name="Trazado 1010987" d="M365.164,459.415h15.869a1.9,1.9,0,0,0-1.9-1.9H367.07a1.905,1.905,0,0,0-1.906,1.9" transform="translate(-365.164 -457.51)" fill="#4f545d"/>
            </g>
          </g>
        </g>
        <path id="Trazado_1010988" data-name="Trazado 1010988" d="M126.458,74.437l-6.733,1.695-6.733,1.694,1.746,2.737,1.251,3L121.224,79Z" transform="translate(-75.649 -49.836)" fill="#fdfcf6"/>
        <path id="Trazado_1010989" data-name="Trazado 1010989" d="M115.8,83.465l-.021,0a.091.091,0,0,1-.064-.054l-1.248-2.989-1.742-2.731a.092.092,0,0,1,.055-.138l13.466-3.39a.092.092,0,0,1,.083.158l-10.468,9.123a.093.093,0,0,1-.06.022M112.952,77.7l1.678,2.63a.07.07,0,0,1,.007.014l1.2,2.879,10.084-8.788Z" transform="translate(-75.462 -49.649)" fill="#0c232b"/>
        <path id="Trazado_1010990" data-name="Trazado 1010990" d="M130.094,74.437l-8.023,9.214-1.4-1-2.244-1.972Z" transform="translate(-79.285 -49.836)" fill="#fdfcf6"/>
        <path id="Trazado_1010991" data-name="Trazado 1010991" d="M121.886,83.557a.092.092,0,0,1-.053-.017l-1.4-1-.008-.006-2.244-1.972a.092.092,0,0,1,.018-.15l11.671-6.243a.092.092,0,0,1,.112.141l-8.023,9.214a.093.093,0,0,1-.069.031m-1.347-1.163,1.333.948,7.64-8.775L118.4,80.512Z" transform="translate(-79.099 -49.65)" fill="#0c232b"/>
        <g id="Grupo_1184236" data-name="Grupo 1184236" transform="translate(39.139 30.844)" opacity="0.5">
          <g id="Grupo_1184235" data-name="Grupo 1184235">
            <g id="Grupo_1184234" data-name="Grupo 1184234" clip-path="url(#clip-path-16)">
              <path id="Trazado_1010992" data-name="Trazado 1010992" d="M122.071,96.3l-1.4-1-1.041.908-.979-2.345-.223-.535Z" transform="translate(-118.423 -93.326)" fill="#517aef"/>
            </g>
          </g>
        </g>
        <g id="Grupo_1184239" data-name="Grupo 1184239" transform="translate(39.09 24.601)" opacity="0.3">
          <g id="Grupo_1184238" data-name="Grupo 1184238">
            <g id="Grupo_1184237" data-name="Grupo 1184237" clip-path="url(#clip-path-17)">
              <path id="Trazado_1010993" data-name="Trazado 1010993" d="M130,74.437l-11.719,6.126.049.116L130,74.437" transform="translate(-118.277 -74.437)" fill="#174959"/>
            </g>
          </g>
        </g>
        <path id="Trazado_1010994" data-name="Trazado 1010994" d="M435.814,72.222a7.861,7.861,0,1,1-7.861-7.861,7.861,7.861,0,0,1,7.861,7.861" transform="translate(-281.252 -43.09)" fill="#517aef"/>
        <g id="Grupo_1184242" data-name="Grupo 1184242" transform="translate(139.888 22.32)" opacity="0.4">
          <g id="Grupo_1184241" data-name="Grupo 1184241">
            <g id="Grupo_1184240" data-name="Grupo 1184240" clip-path="url(#clip-path-18)">
              <path id="Trazado_1010995" data-name="Trazado 1010995" d="M430.077,81.157a6.813,6.813,0,1,1,6.813-6.813,6.82,6.82,0,0,1-6.813,6.813" transform="translate(-423.264 -67.532)" fill="#90abf3"/>
            </g>
          </g>
        </g>
        <path id="Trazado_1010996" data-name="Trazado 1010996" d="M436.384,73.376h1.174v.591a7.868,7.868,0,0,1,.9.3.577.577,0,0,0,.166-.168.326.326,0,0,1,.276-.163h.345l.124-.005q.1.011.132.152c0,.007.014.06.041.157l.318,1.323c0,.022.014.058.027.109a2.815,2.815,0,0,1,.118.51q0,.125-.394.125a2.806,2.806,0,0,1-.456-.019q-.069-.019-.228-.274a3.009,3.009,0,0,0-1.374-1.275v2.137a7.169,7.169,0,0,1,2.282,1.535,2.4,2.4,0,0,1,.549,1.557,1.923,1.923,0,0,1-.4,1.269,2.551,2.551,0,0,1-.943.721,4.39,4.39,0,0,1-1.481.293v.889h-1.174v-.982a5.847,5.847,0,0,1-.753-.282.622.622,0,0,0-.255-.087q-.152,0-.269.233a.338.338,0,0,1-.159.171,2.31,2.31,0,0,1-.511.03q-.131,0-.186-.26l-.421-1.92a1.4,1.4,0,0,1-.035-.179q0-.19.463-.19a.958.958,0,0,1,.466.071,2.516,2.516,0,0,1,.383.472,3.083,3.083,0,0,0,1.277,1.188V78.892q-2.8-1.231-2.8-2.94a1.925,1.925,0,0,1,.228-.979,2.089,2.089,0,0,1,.822-.724,3.821,3.821,0,0,1,1.747-.353Zm-.007,2.983V74.482a1.167,1.167,0,0,0-.759.231.644.644,0,0,0-.283.491q0,.6,1.043,1.155m1.188,3.124v2.11q1.036-.125,1.036-.879,0-.672-1.036-1.231" transform="translate(-290.288 -49.125)" fill="#90abf3"/>
        <path id="Trazado_1010997" data-name="Trazado 1010997" d="M413,162.3a8.707,8.707,0,1,1-8.707-8.707A8.707,8.707,0,0,1,413,162.3" transform="translate(-264.846 -102.827)" fill="#517aef"/>
        <g id="Grupo_1184245" data-name="Grupo 1184245" transform="translate(131.902 51.922)" opacity="0.4">
          <g id="Grupo_1184244" data-name="Grupo 1184244">
            <g id="Grupo_1184243" data-name="Grupo 1184243" clip-path="url(#clip-path-19)">
              <path id="Trazado_1010998" data-name="Trazado 1010998" d="M406.647,172.193a7.546,7.546,0,1,1,7.546-7.546,7.554,7.554,0,0,1-7.546,7.546" transform="translate(-399.101 -157.101)" fill="#90abf3"/>
            </g>
          </g>
        </g>
        <path id="Trazado_1010999" data-name="Trazado 1010999" d="M413.632,163.573h1.3v.655a8.649,8.649,0,0,1,1,.331.639.639,0,0,0,.183-.186.361.361,0,0,1,.306-.18h.382l.138-.006c.076.008.125.064.145.168q0,.012.046.174l.352,1.466c0,.024.015.064.03.12a3.128,3.128,0,0,1,.13.565q0,.138-.436.138a3.131,3.131,0,0,1-.505-.021q-.076-.021-.252-.3a3.338,3.338,0,0,0-1.522-1.412v2.367a7.938,7.938,0,0,1,2.528,1.7,2.664,2.664,0,0,1,.608,1.724,2.129,2.129,0,0,1-.444,1.406,2.824,2.824,0,0,1-1.044.8,4.865,4.865,0,0,1-1.641.325v.985h-1.3V173.3a6.43,6.43,0,0,1-.834-.313.686.686,0,0,0-.283-.1q-.169,0-.3.258a.375.375,0,0,1-.176.189,2.577,2.577,0,0,1-.566.033q-.145,0-.207-.289l-.466-2.127a1.512,1.512,0,0,1-.038-.2q0-.21.513-.21a1.057,1.057,0,0,1,.516.078,2.8,2.8,0,0,1,.425.522,3.412,3.412,0,0,0,1.415,1.316v-2.781q-3.105-1.364-3.105-3.256a2.135,2.135,0,0,1,.253-1.084,2.318,2.318,0,0,1,.91-.8,4.231,4.231,0,0,1,1.935-.39Zm-.008,3.3V164.8a1.292,1.292,0,0,0-.841.255.714.714,0,0,0-.314.544q0,.661,1.155,1.279m1.316,3.461v2.337q1.147-.138,1.147-.973,0-.745-1.147-1.364" transform="translate(-274.853 -109.512)" fill="#90abf3"/>
        <path id="Trazado_1011000" data-name="Trazado 1011000" d="M397.386,76.662V97.21h19.453a20.578,20.578,0,0,0-19.453-20.548" transform="translate(-266.05 -51.325)" fill="#fdfcf6"/>
        <path id="Trazado_1011001" data-name="Trazado 1011001" d="M416.653,97.116H397.2a.092.092,0,0,1-.092-.092V76.476a.091.091,0,0,1,.029-.066.094.094,0,0,1,.068-.025,20.67,20.67,0,0,1,19.539,20.639.092.092,0,0,1-.091.092m-19.361-.183h19.269a20.486,20.486,0,0,0-19.269-20.359Z" transform="translate(-265.864 -51.14)" fill="#0c232b"/>
        <g id="Grupo_1184248" data-name="Grupo 1184248" transform="translate(131.336 25.337)" opacity="0.2">
          <g id="Grupo_1184247" data-name="Grupo 1184247">
            <g id="Grupo_1184246" data-name="Grupo 1184246" clip-path="url(#clip-path-20)">
              <path id="Trazado_1011002" data-name="Trazado 1011002" d="M397.386,76.662V97.21h19.453a20.578,20.578,0,0,0-19.453-20.548" transform="translate(-397.386 -76.662)" fill="#517aef"/>
            </g>
          </g>
        </g>
        <path id="Trazado_1011003" data-name="Trazado 1011003" d="M196.294,96.392v88.042h46.731a19.76,19.76,0,0,0,17.328-10.289h0a19.632,19.632,0,0,0,2.4-9.44V101.632c.058-1.014-.338-12.287,3.788-17.026.876-1.033,2.979-3.062,7.461-3.839a20.468,20.468,0,0,0-11.249-4.1H216.024a19.73,19.73,0,0,0-19.73,19.73" transform="translate(-131.419 -51.325)" fill="#fdfcf6"/>
        <path id="Trazado_1011004" data-name="Trazado 1011004" d="M242.839,184.34H196.108a.092.092,0,0,1-.092-.092V96.206a19.821,19.821,0,0,1,19.821-19.821h46.731a20.557,20.557,0,0,1,11.3,4.123.092.092,0,0,1-.04.164,12.213,12.213,0,0,0-7.407,3.808c-2.445,2.809-3.709,8.312-3.757,16.357,0,.3,0,.509-.009.615v63.066A19.837,19.837,0,0,1,260.25,174l0,.006a19.9,19.9,0,0,1-9.159,8.543,19.655,19.655,0,0,1-8.249,1.793m-46.639-.183h46.639a19.472,19.472,0,0,0,8.173-1.777,19.72,19.72,0,0,0,9.072-8.46l0-.005a19.653,19.653,0,0,0,2.39-9.4V101.447c.006-.106.007-.318.009-.611a54.625,54.625,0,0,1,.506-7.611c.6-4.061,1.709-7.043,3.295-8.865a12.284,12.284,0,0,1,7.306-3.831,20.374,20.374,0,0,0-11.029-3.96H215.837A19.66,19.66,0,0,0,196.2,96.206Z" transform="translate(-131.233 -51.14)" fill="#0c232b"/>
        <g id="Grupo_1184251" data-name="Grupo 1184251" transform="translate(95.788 112.53)" opacity="0.2">
          <g id="Grupo_1184250" data-name="Grupo 1184250">
            <g id="Grupo_1184249" data-name="Grupo 1184249" clip-path="url(#clip-path-21)">
              <path id="Trazado_1011005" data-name="Trazado 1011005" d="M289.829,361.065h15.818a19.76,19.76,0,0,0,17.328-10.289s-13.876,7.445-21.3-10.289h-5.738c-2.2,4.219-4.327,12.268-6.107,20.579" transform="translate(-289.829 -340.486)" fill="#517aef"/>
            </g>
          </g>
        </g>
        <path id="Trazado_1011006" data-name="Trazado 1011006" d="M137.011,340.486a20.514,20.514,0,0,0,6.028,14.552q.247.246.5.484l.111.1.085.078.16.144.136.12.038.033.147.128.03.025.138.116.052.043.117.1.077.063.125.1.052.041.108.086.125.1.061.046.1.078.11.083.053.039.146.107.008.006.183.131.191.134c.113.078.226.155.341.231q.217.144.439.283l.147.091.151.092.144.087.166.1.178.1.028.016.158.088.07.039.128.069.082.044.156.082.032.017.164.084.077.039.13.065.083.041.158.076.213.1c.091.042.181.083.272.124l.158.07.3.129.3.124q.137.055.275.107l.216.081.21.076.018.006.219.077.225.076.187.06.076.024.191.059.229.068.226.064.01,0q.227.063.457.121l.233.058.234.055c.235.054.471.1.708.149s.477.087.718.125l.241.036.242.033.243.03.235.027h.015l.239.024.22.02.049,0,.221.017.235.016.034,0,.226.012.243.01h.022l.212.006.243,0,.266,0h45.745a19.652,19.652,0,0,0,8.211-1.785,20.6,20.6,0,0,1-12.184-18.794Z" transform="translate(-91.729 -227.956)" fill="#eedeca"/>
        <path id="Trazado_1011007" data-name="Trazado 1011007" d="M137.011,340.486a20.514,20.514,0,0,0,6.028,14.552q.247.246.5.484l.111.1.085.078.16.144.136.12.038.033.147.128.03.025.138.116.052.043.117.1.077.063.125.1.052.041.108.086.125.1.061.046.1.078.11.083.053.039.146.107.008.006.183.131.191.134c.113.078.226.155.341.231q.217.144.439.283l.147.091.151.092.144.087.166.1.178.1.028.016.158.088.07.039.128.069.082.044.156.082.032.017.164.084.077.039.13.065.083.041.158.076.213.1c.091.042.181.083.272.124l.158.07.3.129.3.124q.137.055.275.107l.216.081.21.076.018.006.219.077.225.076.187.06.076.024.191.059.229.068.226.064.01,0q.227.063.457.121l.233.058.234.055c.235.054.471.1.708.149s.477.087.718.125l.241.036.242.033.243.03.235.027h.015l.239.024.22.02.049,0,.221.017.235.016.034,0,.226.012.243.01h.022l.212.006.243,0,.266,0h45.745a19.652,19.652,0,0,0,8.211-1.785,20.6,20.6,0,0,1-12.184-18.794Z" transform="translate(-91.729 -227.956)" fill="#fdfcf6"/>
        <path id="Trazado_1011008" data-name="Trazado 1011008" d="M203.15,360.97H157.4l-.267,0-.244,0c-.071,0-.142,0-.213-.006h-.024l-.242-.01-.227-.012-.032,0-.238-.016-.222-.017-.049,0-.222-.02-.24-.024h-.013l-.238-.027-.244-.03-.243-.033-.242-.036c-.237-.037-.48-.079-.72-.125s-.467-.094-.712-.15l-.214-.05-.033-.008-.223-.056c-.146-.037-.3-.078-.459-.122l-.008,0-.229-.065-.23-.068-.192-.06-.079-.025-.185-.06-.227-.076-.22-.077-.02-.007-.209-.076-.217-.081c-.092-.035-.184-.071-.276-.108l-.305-.124-.3-.129-.159-.071c-.091-.04-.182-.082-.273-.124l-.214-.1-.112-.054-.071-.035-.058-.029-.131-.065-.076-.039-.166-.085-.012-.006-.023-.013-.154-.081-.082-.044c-.045-.024-.087-.047-.129-.07l-.07-.038-.136-.076-.051-.029-.179-.1-.166-.1-.146-.088-.152-.093-.147-.091c-.149-.093-.3-.189-.441-.284-.1-.069-.217-.145-.343-.232l-.192-.134-.184-.132,0,0-.15-.11-.034-.025-.018-.013-.111-.084-.1-.079-.061-.047-.126-.1-.109-.086-.052-.041-.125-.1-.078-.063-.118-.1-.052-.043-.138-.117-.03-.025-.147-.128-.038-.033-.136-.12-.16-.144,0,0-.081-.075-.112-.1c-.17-.159-.339-.323-.5-.487a20.537,20.537,0,0,1-6.054-14.616.092.092,0,0,1,.092-.092h62.352a.092.092,0,0,1,.092.092,20.51,20.51,0,0,0,12.129,18.71.092.092,0,0,1,0,.167,19.656,19.656,0,0,1-8.249,1.793m-46.466-.2.213.007.242,0,.265,0H203.15a19.468,19.468,0,0,0,7.989-1.693,20.691,20.691,0,0,1-12.053-18.7H136.918a20.352,20.352,0,0,0,6,14.395c.162.163.331.325.5.483l.11.1.08.074,0,0,.158.143.136.119.037.032.148.128.028.024.138.117.047.04,0,0,.116.1.077.063.124.1.051.04.108.086c.042.034.084.066.125.1l.059.046.1.078.109.082.018.013.033.024.146.108.005,0,.185.133.19.133c.125.087.236.162.339.23.142.095.289.189.437.282l.146.09.151.093.144.086.165.1.177.1.05.028.135.075.069.038.125.068.084.045.156.082.02.011.013.007.162.083.206.1.059.029.07.034.111.053.212.1c.09.042.18.083.271.123l.157.07.3.128.3.123c.091.037.182.072.273.107l.215.081.209.076.018.007.218.076.225.076.186.06.074.023.192.06.225.067.227.065.013,0c.156.043.308.084.452.12l.221.055.032.008.212.05c.243.055.48.105.705.148s.479.087.714.124l.239.036.241.033.242.03.234.027h.013l.239.024.22.02.049,0,.221.017.234.016.035,0,.223.012.242.01h.019" transform="translate(-91.544 -227.77)" fill="#0c232b"/>
        <g id="Grupo_1184254" data-name="Grupo 1184254" transform="translate(70.218 41.905)" opacity="0.4">
          <g id="Grupo_1184253" data-name="Grupo 1184253">
            <g id="Grupo_1184252" data-name="Grupo 1184252" clip-path="url(#clip-path-22)">
              <path id="Trazado_1011009" data-name="Trazado 1011009" d="M264.13,132.558h32.515a2.882,2.882,0,0,0,0-5.764H264.13a2.882,2.882,0,0,0,0,5.764" transform="translate(-245.124 -126.794)" fill="#90abf3"/>
              <path id="Trazado_1011010" data-name="Trazado 1011010" d="M296.643,161.341H264.129a2.882,2.882,0,0,0,0,5.764h32.515a2.882,2.882,0,0,0,0-5.764" transform="translate(-245.123 -149.923)" fill="#90abf3"/>
              <path id="Trazado_1011011" data-name="Trazado 1011011" d="M296.643,195.888H264.129a2.882,2.882,0,0,0,0,5.764h32.515a2.882,2.882,0,0,0,0-5.764" transform="translate(-245.123 -173.052)" fill="#90abf3"/>
              <path id="Trazado_1011012" data-name="Trazado 1011012" d="M296.643,230.435H264.129a2.882,2.882,0,0,0,0,5.764h32.515a2.882,2.882,0,0,0,0-5.764" transform="translate(-245.123 -196.182)" fill="#90abf3"/>
              <path id="Trazado_1011013" data-name="Trazado 1011013" d="M296.643,264.982H264.129a2.882,2.882,0,0,0,0,5.764h32.515a2.882,2.882,0,0,0,0-5.764" transform="translate(-245.123 -219.311)" fill="#90abf3"/>
              <path id="Trazado_1011014" data-name="Trazado 1011014" d="M287.345,299.529H264.129a2.882,2.882,0,1,0,0,5.764h23.216a2.882,2.882,0,0,0,0-5.764" transform="translate(-245.123 -242.44)" fill="#90abf3"/>
              <rect id="Rectángulo_459163" data-name="Rectángulo 459163" width="11.209" height="11.514" transform="translate(0 0.843)" fill="#90abf3"/>
              <rect id="Rectángulo_459164" data-name="Rectángulo 459164" width="11.209" height="11.514" transform="translate(0 17.394)" fill="#90abf3"/>
              <rect id="Rectángulo_459165" data-name="Rectángulo 459165" width="11.209" height="11.514" transform="translate(0 33.945)" fill="#90abf3"/>
              <rect id="Rectángulo_459166" data-name="Rectángulo 459166" width="11.209" height="11.514" transform="translate(0 50.495)" fill="#90abf3"/>
            </g>
          </g>
        </g>
        <path id="Trazado_1011015" data-name="Trazado 1011015" d="M62.632,129.631H33.112A1.369,1.369,0,0,0,31.743,131v30.893a1.369,1.369,0,0,0,1.369,1.369h29.52A1.369,1.369,0,0,0,64,161.893V131a1.369,1.369,0,0,0-1.369-1.369" transform="translate(-21.252 -86.788)" fill="#517aef"/>
        <path id="Trazado_1011016" data-name="Trazado 1011016" d="M69.9,129.631H40.382A1.369,1.369,0,0,0,39.013,131v29.52a1.369,1.369,0,0,0,1.369,1.369H69.9a1.369,1.369,0,0,0,1.369-1.369V131a1.369,1.369,0,0,0-1.369-1.369" transform="translate(-26.119 -86.788)" fill="#cde2f0"/>
        <path id="Trazado_1011017" data-name="Trazado 1011017" d="M39.8,120.953a2.875,2.875,0,0,0-2.986,2.87h1.1a1.776,1.776,0,1,1,2.209,1.722.555.555,0,0,0-.433.533v.007a.547.547,0,0,0,.681.529,2.872,2.872,0,0,0-.567-5.66" transform="translate(-24.644 -80.976)" fill="#517aef"/>
        <path id="Trazado_1011018" data-name="Trazado 1011018" d="M59.984,120.953A2.875,2.875,0,0,0,57,123.823h1.1a1.776,1.776,0,1,1,2.209,1.722.555.555,0,0,0-.433.533v.007a.547.547,0,0,0,.681.529,2.872,2.872,0,0,0-.567-5.66" transform="translate(-38.16 -80.976)" fill="#517aef"/>
        <path id="Trazado_1011019" data-name="Trazado 1011019" d="M80.172,120.953a2.875,2.875,0,0,0-2.986,2.87h1.1a1.776,1.776,0,1,1,2.209,1.722.555.555,0,0,0-.433.533v.007a.547.547,0,0,0,.681.529,2.872,2.872,0,0,0-.567-5.66" transform="translate(-51.676 -80.976)" fill="#517aef"/>
        <path id="Trazado_1011020" data-name="Trazado 1011020" d="M100.36,120.953a2.875,2.875,0,0,0-2.986,2.87h1.1a1.776,1.776,0,1,1,2.209,1.722.555.555,0,0,0-.433.533v.007a.547.547,0,0,0,.681.529,2.872,2.872,0,0,0-.567-5.66" transform="translate(-65.192 -80.976)" fill="#517aef"/>
        <path id="Trazado_1011021" data-name="Trazado 1011021" d="M120.547,120.953a2.875,2.875,0,0,0-2.986,2.87h1.1a1.776,1.776,0,1,1,2.209,1.722.555.555,0,0,0-.433.533v.007a.547.547,0,0,0,.681.529,2.872,2.872,0,0,0-.567-5.66" transform="translate(-78.707 -80.976)" fill="#517aef"/>
        <g id="Grupo_1184257" data-name="Grupo 1184257" transform="translate(15.002 48.064)" opacity="0.4">
          <g id="Grupo_1184256" data-name="Grupo 1184256">
            <g id="Grupo_1184255" data-name="Grupo 1184255" clip-path="url(#clip-path-23)">
              <rect id="Rectángulo_459168" data-name="Rectángulo 459168" width="4.906" height="4.906" transform="translate(0)" fill="#90abf3"/>
            </g>
          </g>
        </g>
        <g id="Grupo_1184260" data-name="Grupo 1184260" transform="translate(20.791 48.064)" opacity="0.4">
          <g id="Grupo_1184259" data-name="Grupo 1184259">
            <g id="Grupo_1184258" data-name="Grupo 1184258" clip-path="url(#clip-path-23)">
              <rect id="Rectángulo_459170" data-name="Rectángulo 459170" width="4.906" height="4.906" transform="translate(0)" fill="#90abf3"/>
            </g>
          </g>
        </g>
        <g id="Grupo_1184263" data-name="Grupo 1184263" transform="translate(26.732 48.064)" opacity="0.4">
          <g id="Grupo_1184262" data-name="Grupo 1184262">
            <g id="Grupo_1184261" data-name="Grupo 1184261" clip-path="url(#clip-path-23)">
              <rect id="Rectángulo_459172" data-name="Rectángulo 459172" width="4.906" height="4.906" transform="translate(0)" fill="#90abf3"/>
            </g>
          </g>
        </g>
        <g id="Grupo_1184266" data-name="Grupo 1184266" transform="translate(32.674 48.064)" opacity="0.4">
          <g id="Grupo_1184265" data-name="Grupo 1184265">
            <g id="Grupo_1184264" data-name="Grupo 1184264" clip-path="url(#clip-path-23)">
              <rect id="Rectángulo_459174" data-name="Rectángulo 459174" width="4.906" height="4.906" transform="translate(0)" fill="#90abf3"/>
            </g>
          </g>
        </g>
        <g id="Grupo_1184269" data-name="Grupo 1184269" transform="translate(38.615 48.064)" opacity="0.3">
          <g id="Grupo_1184268" data-name="Grupo 1184268">
            <g id="Grupo_1184267" data-name="Grupo 1184267" clip-path="url(#clip-path-23)">
              <rect id="Rectángulo_459176" data-name="Rectángulo 459176" width="4.906" height="4.906" fill="#90abf3"/>
            </g>
          </g>
        </g>
        <g id="Grupo_1184272" data-name="Grupo 1184272" transform="translate(15.002 54.095)" opacity="0.4">
          <g id="Grupo_1184271" data-name="Grupo 1184271">
            <g id="Grupo_1184270" data-name="Grupo 1184270" clip-path="url(#clip-path-23)">
              <rect id="Rectángulo_459178" data-name="Rectángulo 459178" width="4.906" height="4.906" transform="translate(0 0)" fill="#90abf3"/>
            </g>
          </g>
        </g>
        <g id="Grupo_1184275" data-name="Grupo 1184275" transform="translate(20.791 54.095)" opacity="0.4">
          <g id="Grupo_1184274" data-name="Grupo 1184274">
            <g id="Grupo_1184273" data-name="Grupo 1184273" clip-path="url(#clip-path-23)">
              <rect id="Rectángulo_459180" data-name="Rectángulo 459180" width="4.906" height="4.906" transform="translate(0 0)" fill="#90abf3"/>
            </g>
          </g>
        </g>
        <g id="Grupo_1184278" data-name="Grupo 1184278" transform="translate(26.732 54.095)" opacity="0.8">
          <g id="Grupo_1184277" data-name="Grupo 1184277">
            <g id="Grupo_1184276" data-name="Grupo 1184276" clip-path="url(#clip-path-23)">
              <rect id="Rectángulo_459182" data-name="Rectángulo 459182" width="4.906" height="4.906" transform="translate(0 0)" fill="#517aef"/>
            </g>
          </g>
        </g>
        <g id="Grupo_1184281" data-name="Grupo 1184281" transform="translate(32.674 54.095)" opacity="0.4">
          <g id="Grupo_1184280" data-name="Grupo 1184280">
            <g id="Grupo_1184279" data-name="Grupo 1184279" clip-path="url(#clip-path-23)">
              <rect id="Rectángulo_459184" data-name="Rectángulo 459184" width="4.906" height="4.906" transform="translate(0 0)" fill="#90abf3"/>
            </g>
          </g>
        </g>
        <g id="Grupo_1184284" data-name="Grupo 1184284" transform="translate(38.615 54.095)" opacity="0.4">
          <g id="Grupo_1184283" data-name="Grupo 1184283">
            <g id="Grupo_1184282" data-name="Grupo 1184282" clip-path="url(#clip-path-23)">
              <rect id="Rectángulo_459186" data-name="Rectángulo 459186" width="4.906" height="4.906" transform="translate(0 0)" fill="#90abf3"/>
            </g>
          </g>
        </g>
        <g id="Grupo_1184287" data-name="Grupo 1184287" transform="translate(15.002 60.127)" opacity="0.4">
          <g id="Grupo_1184286" data-name="Grupo 1184286">
            <g id="Grupo_1184285" data-name="Grupo 1184285" clip-path="url(#clip-path-23)">
              <rect id="Rectángulo_459188" data-name="Rectángulo 459188" width="4.906" height="4.906" transform="translate(0)" fill="#90abf3"/>
            </g>
          </g>
        </g>
        <g id="Grupo_1184290" data-name="Grupo 1184290" transform="translate(20.791 60.127)" opacity="0.4">
          <g id="Grupo_1184289" data-name="Grupo 1184289">
            <g id="Grupo_1184288" data-name="Grupo 1184288" clip-path="url(#clip-path-23)">
              <rect id="Rectángulo_459190" data-name="Rectángulo 459190" width="4.906" height="4.906" transform="translate(0)" fill="#90abf3"/>
            </g>
          </g>
        </g>
        <g id="Grupo_1184293" data-name="Grupo 1184293" transform="translate(26.732 60.127)" opacity="0.3">
          <g id="Grupo_1184292" data-name="Grupo 1184292">
            <g id="Grupo_1184291" data-name="Grupo 1184291" clip-path="url(#clip-path-23)">
              <rect id="Rectángulo_459192" data-name="Rectángulo 459192" width="4.906" height="4.906" transform="translate(0)" fill="#90abf3"/>
            </g>
          </g>
        </g>
        <g id="Grupo_1184296" data-name="Grupo 1184296" transform="translate(32.674 60.127)" opacity="0.4">
          <g id="Grupo_1184295" data-name="Grupo 1184295">
            <g id="Grupo_1184294" data-name="Grupo 1184294" clip-path="url(#clip-path-23)">
              <rect id="Rectángulo_459194" data-name="Rectángulo 459194" width="4.906" height="4.906" transform="translate(0)" fill="#90abf3"/>
            </g>
          </g>
        </g>
        <g id="Grupo_1184299" data-name="Grupo 1184299" transform="translate(38.615 60.127)" opacity="0.4">
          <g id="Grupo_1184298" data-name="Grupo 1184298">
            <g id="Grupo_1184297" data-name="Grupo 1184297" clip-path="url(#clip-path-23)">
              <rect id="Rectángulo_459196" data-name="Rectángulo 459196" width="4.906" height="4.906" fill="#90abf3"/>
            </g>
          </g>
        </g>
        <g id="Grupo_1184302" data-name="Grupo 1184302" transform="translate(15.002 66.158)" opacity="0.4">
          <g id="Grupo_1184301" data-name="Grupo 1184301">
            <g id="Grupo_1184300" data-name="Grupo 1184300" clip-path="url(#clip-path-23)">
              <rect id="Rectángulo_459198" data-name="Rectángulo 459198" width="4.906" height="4.906" transform="translate(0)" fill="#90abf3"/>
            </g>
          </g>
        </g>
        <g id="Grupo_1184305" data-name="Grupo 1184305" transform="translate(20.791 66.158)" opacity="0.4">
          <g id="Grupo_1184304" data-name="Grupo 1184304">
            <g id="Grupo_1184303" data-name="Grupo 1184303" clip-path="url(#clip-path-23)">
              <rect id="Rectángulo_459200" data-name="Rectángulo 459200" width="4.906" height="4.906" transform="translate(0)" fill="#90abf3"/>
            </g>
          </g>
        </g>
        <g id="Grupo_1184308" data-name="Grupo 1184308" transform="translate(26.732 66.158)" opacity="0.4">
          <g id="Grupo_1184307" data-name="Grupo 1184307">
            <g id="Grupo_1184306" data-name="Grupo 1184306" clip-path="url(#clip-path-23)">
              <rect id="Rectángulo_459202" data-name="Rectángulo 459202" width="4.906" height="4.906" transform="translate(0)" fill="#90abf3"/>
            </g>
          </g>
        </g>
        <g id="Grupo_1184311" data-name="Grupo 1184311" transform="translate(32.674 66.158)" opacity="0.4">
          <g id="Grupo_1184310" data-name="Grupo 1184310">
            <g id="Grupo_1184309" data-name="Grupo 1184309" clip-path="url(#clip-path-23)">
              <rect id="Rectángulo_459204" data-name="Rectángulo 459204" width="4.906" height="4.906" transform="translate(0)" fill="#90abf3"/>
            </g>
          </g>
        </g>
        <g id="Grupo_1184314" data-name="Grupo 1184314" transform="translate(38.615 66.158)" opacity="0.4">
          <g id="Grupo_1184313" data-name="Grupo 1184313">
            <g id="Grupo_1184312" data-name="Grupo 1184312" clip-path="url(#clip-path-23)">
              <rect id="Rectángulo_459206" data-name="Rectángulo 459206" width="4.906" height="4.906" fill="#90abf3"/>
            </g>
          </g>
        </g>
        <path id="Trazado_1011022" data-name="Trazado 1011022" d="M386.4,239.343h-32.4a3.71,3.71,0,0,0-3.71,3.71V256.22a3.71,3.71,0,0,0,3.71,3.711h32.4a3.71,3.71,0,0,0,3.71-3.711V243.053a3.71,3.71,0,0,0-3.71-3.71" transform="translate(-234.524 -160.24)" fill="#90abf3"/>
        <path id="Trazado_1011023" data-name="Trazado 1011023" d="M367.1,257.572v4.739h4.739v.959H367.1v4.874h-.959V263.27h-4.72v-.959h4.72v-4.739Z" transform="translate(-241.972 -172.445)" fill="#517aef"/>
        <path id="Trazado_1011024" data-name="Trazado 1011024" d="M420.911,254.232c0-2.13-1.132-3.569-3.089-3.569-2.034,0-3.051,1.708-3.051,3.607,0,2.015,1.017,3.569,3.013,3.569,2.129,0,3.128-1.65,3.128-3.607m-5.181,0c0-1.688.825-2.667,2.072-2.667,1.381,0,2.149,1.074,2.149,2.667,0,1.612-.767,2.706-2.091,2.706-1.4,0-2.13-1.152-2.13-2.706" transform="translate(-277.69 -167.819)" fill="#517aef"/>
        <path id="Trazado_1011025" data-name="Trazado 1011025" d="M444.121,268.6c-2.053,0-3.051,1.708-3.051,3.607,0,1.919.979,3.569,3.013,3.569,2.149,0,3.128-1.669,3.128-3.607,0-2.13-1.094-3.569-3.089-3.569m.038,6.274c-1.4,0-2.13-1.171-2.13-2.706,0-1.611.864-2.667,2.072-2.667,1.381,0,2.149,1.094,2.149,2.667,0,1.612-.767,2.706-2.091,2.706" transform="translate(-295.297 -179.829)" fill="#517aef"/>
        <path id="Trazado_1011026" data-name="Trazado 1011026" d="M431.244,251.36l-8.519,12.625H423.8l8.5-12.625Z" transform="translate(-283.015 -168.286)" fill="#517aef"/>
        <path id="Trazado_1011027" data-name="Trazado 1011027" d="M455.279,289.77h-1.146a.439.439,0,0,1,0-.877h1.146a2.709,2.709,0,0,0,2.706-2.706v-1.142a.439.439,0,1,1,.877,0v1.142a3.587,3.587,0,0,1-3.583,3.583" transform="translate(-303.749 -190.544)" fill="#517aef"/>
        <path id="Trazado_1011028" data-name="Trazado 1011028" d="M351.658,246.675a.438.438,0,0,1-.439-.439v-1.5a3.587,3.587,0,0,1,3.583-3.583h2a.439.439,0,0,1,0,.878h-2a2.709,2.709,0,0,0-2.706,2.706v1.5a.439.439,0,0,1-.439.439" transform="translate(-235.141 -161.455)" fill="#517aef"/>
        <path id="Trazado_1011029" data-name="Trazado 1011029" d="M347.91,395.177l-5.778-28.147a2.11,2.11,0,0,0-2.067-1.685H322.755a2.109,2.109,0,0,0-2.07,1.7l-5.522,28.146a2.11,2.11,0,0,0,2.07,2.516h28.611a2.109,2.109,0,0,0,2.066-2.534" transform="translate(-210.975 -244.599)" fill="#517aef"/>
        <path id="Trazado_1011030" data-name="Trazado 1011030" d="M331.449,367.358a2.109,2.109,0,0,0-2.107-2.012H307.176a2.109,2.109,0,0,0-2.07,1.7L299.584,395.2a2.109,2.109,0,0,0,2.07,2.515h28.989a2.109,2.109,0,0,0,2.107-2.206Z" transform="translate(-200.545 -244.6)" fill="#90abf3"/>
        <path id="Trazado_1011031" data-name="Trazado 1011031" d="M347.674,345.916a.767.767,0,0,1-.767-.767v-5.772a6.326,6.326,0,0,0-12.653,0v5.772a.768.768,0,0,1-1.535,0v-5.772a7.861,7.861,0,1,1,15.723,0v5.772a.767.767,0,0,1-.767.767" transform="translate(-222.756 -221.95)" fill="#517aef"/>
        <path id="Trazado_1011032" data-name="Trazado 1011032" d="M249.764,196.243c.736-.685.533-.792,1.3-1.457.324-.28.686-.544.652-.868a.7.7,0,0,0-.356-.464.945.945,0,0,0-.014-.38.654.654,0,0,0-.242-.432c-.084-.052-.176-.065-.206-.145-.015-.04,0-.068.006-.107a1.024,1.024,0,0,0-.2-.8.735.735,0,0,0-.758,0c.05-.15.136-.478-.018-.65-.2-.229-.809-.16-1.431.328a1.627,1.627,0,0,0-1.047.015,1.7,1.7,0,0,0-.8.734c-.752,1.169-1.439,2.436-1.677,2.88-1.311,1.041-1.654,1.414-1.7,1.548a1.246,1.246,0,0,0-.251.477,1.636,1.636,0,0,0-.05.515A2.178,2.178,0,0,0,244,199.218c1.593-1.608,2.521-1.925,3.086-1.874a2.52,2.52,0,0,0,1.1-.087,3.6,3.6,0,0,0,1.571-1.014" transform="translate(-162.673 -127.75)" fill="#fdfcf6"/>
        <path id="Trazado_1011033" data-name="Trazado 1011033" d="M243.857,199.129h-.038a2.194,2.194,0,0,1-1.117-1.87,1.73,1.73,0,0,1,.053-.543,1.231,1.231,0,0,1,.249-.485l.008-.011c.053-.134.308-.453,1.707-1.566.331-.617.98-1.8,1.671-2.869a1.8,1.8,0,0,1,.844-.769,1.685,1.685,0,0,1,1.061-.03c.664-.5,1.291-.544,1.519-.288a.636.636,0,0,1,.086.559.723.723,0,0,1,.68.077,1.1,1.1,0,0,1,.229.887.357.357,0,0,1-.008.041.13.13,0,0,0,0,.021c.007.02.031.032.082.056a.751.751,0,0,1,.087.045.733.733,0,0,1,.283.488,1.033,1.033,0,0,1,.023.358.725.725,0,0,1,.349.5c.036.336-.275.6-.575.855l-.108.092a3.39,3.39,0,0,0-.665.729,3.952,3.952,0,0,1-.634.726,3.679,3.679,0,0,1-1.576,1.025l-.028.009a2.555,2.555,0,0,1-1.093.1l-.047,0c-.72-.065-1.734.557-3.012,1.847Zm3.933-8.031a1.335,1.335,0,0,0-.488.088,1.614,1.614,0,0,0-.757.7c-.694,1.079-1.346,2.263-1.673,2.873l-.009.017-.015.012c-1.383,1.1-1.638,1.414-1.666,1.5a.164.164,0,0,1-.034.054,1.068,1.068,0,0,0-.215.414l0,.006a1.559,1.559,0,0,0-.047.483,2.105,2.105,0,0,0,.919,1.675c1.313-1.315,2.331-1.92,3.109-1.85l.049,0a2.347,2.347,0,0,0,1.017-.088l.028-.009a3.525,3.525,0,0,0,1.508-.985,3.777,3.777,0,0,0,.609-.7,3.547,3.547,0,0,1,.7-.762l.109-.093c.276-.234.537-.456.512-.7a.593.593,0,0,0-.315-.4l-.05-.033.01-.059a.845.845,0,0,0-.012-.343.58.58,0,0,0-.2-.375.644.644,0,0,0-.068-.035.294.294,0,0,1-.176-.156.2.2,0,0,1,0-.128.218.218,0,0,0,0-.023.937.937,0,0,0-.165-.723.654.654,0,0,0-.66.017l-.195.093.068-.2c.041-.123.123-.423,0-.56-.151-.169-.689-.145-1.306.339l-.037.029-.045-.013a1.756,1.756,0,0,0-.5-.076" transform="translate(-162.487 -127.568)" fill="#0c232b"/>
        <g id="Grupo_1184317" data-name="Grupo 1184317" transform="translate(83.943 64.014)" opacity="0.2">
          <g id="Grupo_1184316" data-name="Grupo 1184316">
            <g id="Grupo_1184315" data-name="Grupo 1184315" clip-path="url(#clip-path-43)">
              <path id="Trazado_1011034" data-name="Trazado 1011034" d="M256.5,194.894c-.046-.126-.1-.248-.153-.367-.04-.086-.087-.175-.139-.265l.718-.51a4.612,4.612,0,0,0-1.186-.04h0a1.914,1.914,0,0,0-.273.057,1.522,1.522,0,0,0-.4.178,4.311,4.311,0,0,0-.672.692c-.08.1-.182.216-.264.329-.019.026-.037.052-.053.077,0,0-.026.04-.047.077-.116.2.067.585.067.585.288.605-.265,1.985.285,2.51.47.448,1.5,0,2.44-.358.219-.083.4-.163.532-.225a2.813,2.813,0,0,1-1.409.186c-.079-.027-.223-.076-.26-.2a.316.316,0,0,1,.062-.256,1.309,1.309,0,0,1-.413.031.405.405,0,0,1-.186-.045.338.338,0,0,1-.055-.55.286.286,0,0,1-.377-.3c.032-.162.2-.256.339-.337q.105-.059.207-.123c.074.132.146.266.229.39a2.4,2.4,0,0,0,.472.524c.143.116.343.224.515.1a.711.711,0,0,0,.225-.428,1.843,1.843,0,0,0,.044-.343,3.746,3.746,0,0,0-.229-1.339c.063-.076.125-.155.185-.236Zm-1.426.174.984-.7c.021.037.041.073.06.109a3.777,3.777,0,0,1,.235.542,5.894,5.894,0,0,1-1.067.7,2.052,2.052,0,0,0-.186-.256,1.341,1.341,0,0,0-.245-.222,1.493,1.493,0,0,1,.218-.178m-.242.715a.313.313,0,0,1-.081-.387c.023.016.046.034.069.053a1.522,1.522,0,0,1,.3.349.331.331,0,0,1-.285-.015m1.729.3a1.583,1.583,0,0,1-.083.664.332.332,0,0,1-.114.165c-.072.044-.156,0-.218-.046a1.861,1.861,0,0,1-.449-.457,4.982,4.982,0,0,1-.282-.465,5.227,5.227,0,0,0,.965-.84,3.922,3.922,0,0,1,.181.978" transform="translate(-253.988 -193.688)" fill="#517aef"/>
            </g>
          </g>
        </g>
        <path id="Trazado_1011035" data-name="Trazado 1011035" d="M258.821,171.948a.551.551,0,0,0-.637.447l-2.521,14.423a.55.55,0,0,0,1.084.189l2.521-14.423a.55.55,0,0,0-.447-.637" transform="translate(-171.161 -115.114)" fill="#517aef"/>
        <path id="Trazado_1011036" data-name="Trazado 1011036" d="M254.041,194.828c.092.21.358.075.756.335.572.374.566,1.011,1.241,1.577.086.072.223.176.352.14.188-.053.249-.368.273-.487.158-.807-.42-2.876-1.4-2.9" transform="translate(-170.081 -129.543)" fill="#fdfcf6"/>
        <path id="Trazado_1011037" data-name="Trazado 1011037" d="M256.15,196.794a.6.6,0,0,1-.356-.169,2.858,2.858,0,0,1-.679-.883,1.737,1.737,0,0,0-.553-.687,1.157,1.157,0,0,0-.455-.172c-.138-.027-.269-.053-.335-.2a.092.092,0,0,1,.168-.073c.024.056.062.069.2.1a1.329,1.329,0,0,1,.521.2,1.906,1.906,0,0,1,.613.751,2.671,2.671,0,0,0,.636.832c.048.041.176.148.269.122s.158-.165.207-.416a3.662,3.662,0,0,0-.662-2.4.885.885,0,0,0-.646-.392.092.092,0,0,1,0-.183,1.055,1.055,0,0,1,.785.46,3.887,3.887,0,0,1,.7,2.55c-.026.134-.1.49-.338.558a.292.292,0,0,1-.08.011" transform="translate(-169.895 -129.358)" fill="#0c232b"/>
        <path id="Trazado_1011038" data-name="Trazado 1011038" d="M261.695,199.847a13.938,13.938,0,0,1-1.346,1.014c-.362.24-.713.448-1.046.628" transform="translate(-173.604 -133.798)" fill="#fdfcf6"/>
        <path id="Trazado_1011039" data-name="Trazado 1011039" d="M259.116,201.4a.092.092,0,0,1-.044-.172c.354-.192.7-.4,1.039-.624a13.864,13.864,0,0,0,1.337-1.007.092.092,0,0,1,.119.139,14.043,14.043,0,0,1-1.355,1.021c-.34.225-.694.438-1.053.633a.09.09,0,0,1-.044.011" transform="translate(-173.417 -133.612)" fill="#0c232b"/>
        <path id="Trazado_1011040" data-name="Trazado 1011040" d="M263.019,197.606l-1.13.67" transform="translate(-175.335 -132.297)" fill="#fdfcf6"/>
        <path id="Trazado_1011041" data-name="Trazado 1011041" d="M261.7,198.182a.091.091,0,0,1-.047-.17l1.13-.67a.092.092,0,1,1,.094.158l-1.13.67a.088.088,0,0,1-.047.013" transform="translate(-175.15 -132.112)" fill="#0c232b"/>
        <line id="Línea_3331" data-name="Línea 3331" x1="0.528" y2="0.343" transform="translate(85.045 66.784)" fill="#fdfcf6"/>
        <path id="Trazado_1011042" data-name="Trazado 1011042" d="M257.139,202.321a.092.092,0,0,1-.05-.169l.528-.343a.092.092,0,0,1,.1.154l-.528.343a.09.09,0,0,1-.05.015" transform="translate(-172.094 -135.101)" fill="#0c232b"/>
        <path id="Trazado_1011043" data-name="Trazado 1011043" d="M261.353,196.654l.709-.441" transform="translate(-174.976 -131.365)" fill="#fdfcf6"/>
        <path id="Trazado_1011044" data-name="Trazado 1011044" d="M261.167,196.56a.092.092,0,0,1-.049-.17l.71-.441a.092.092,0,0,1,.1.156l-.709.44a.089.089,0,0,1-.048.014" transform="translate(-174.79 -131.179)" fill="#0c232b"/>
        <path id="Trazado_1011045" data-name="Trazado 1011045" d="M261.415,193.883l-.717.51" transform="translate(-174.537 -129.805)" fill="#fdfcf6"/>
        <path id="Trazado_1011046" data-name="Trazado 1011046" d="M260.511,194.3a.092.092,0,0,1-.053-.167l.717-.509a.092.092,0,1,1,.106.149l-.718.51a.091.091,0,0,1-.053.017" transform="translate(-174.351 -129.619)" fill="#0c232b"/>
        <path id="Trazado_1011047" data-name="Trazado 1011047" d="M158.706,444.943h.314a2.213,2.213,0,0,0,2.206-2.206v-2.645a2.213,2.213,0,0,0-2.206-2.206h-.314a2.213,2.213,0,0,0-2.206,2.206v2.645a2.213,2.213,0,0,0,2.206,2.206" transform="translate(-104.777 -293.164)" fill="#fdfcf6"/>
        <path id="Trazado_1011048" data-name="Trazado 1011048" d="M160.308,444.848h-3.26a.826.826,0,0,1-.825-.825v-5.59a.826.826,0,0,1,.825-.825h3.26a.826.826,0,0,1,.825.825v5.59a.826.826,0,0,1-.825.825m-3.26-7.057a.643.643,0,0,0-.642.642v5.59a.642.642,0,0,0,.642.642h3.26a.642.642,0,0,0,.642-.642v-5.59a.643.643,0,0,0-.642-.642Z" transform="translate(-104.591 -292.978)" fill="#0c232b"/>
        <path id="Trazado_1011049" data-name="Trazado 1011049" d="M151.544,452.035H141.7a.974.974,0,0,1-.7-.513.885.885,0,0,1,0-.576,1.768,1.768,0,0,1,.609-.891c.835-.7,1.281-.739,2.227-1.422,1.119-.809,1.3-1.327,1.314-1.444a1.012,1.012,0,0,1,.153-.393.889.889,0,0,1,.092-.106,2.236,2.236,0,0,1,1.82-.056,4.507,4.507,0,0,1,1.043.446c1.295,1.274,1.869,1.472,2.131,1.316.378-.225.223-1.263.526-1.316a.31.31,0,0,1,.279.177,12.644,12.644,0,0,1,.723,3.689c.011.108.02.207.025.287l.023.3a.429.429,0,0,1-.42.5" transform="translate(-94.366 -298.923)" fill="#0c232b"/>
        <path id="Trazado_1011050" data-name="Trazado 1011050" d="M155.366,279.106l-.05,1.685-.038,1.685c-.024,1.123-.056,2.246-.075,3.37l-.109,6.74q-.087,6.741-.122,13.482c-.011,2.247-.028,4.494-.031,6.742l-.012,3.371,0,3.372v5.9l0,.843.019,3.373.01,1.687.018,1.687-13-.359c.542-4.465.943-8.935,1.3-13.407l.258-3.354.224-3.356c.158-2.237.273-4.475.4-6.713.25-4.476.415-8.955.524-13.434l.058-3.36c.01-.56.009-1.12.013-1.68l.009-1.68,0-.42,0-.42,0-.84c0-.56,0-1.12-.013-1.68l-.029-1.681-.022-.84q-.01-.42-.027-.84Z" transform="translate(-95.056 -186.776)" fill="#8ea0c7"/>
        <path id="Trazado_1011051" data-name="Trazado 1011051" d="M203.181,444.943h-.314a2.213,2.213,0,0,1-2.206-2.206v-2.645a2.213,2.213,0,0,1,2.206-2.206h.314a2.213,2.213,0,0,1,2.206,2.206v2.645a2.213,2.213,0,0,1-2.206,2.206" transform="translate(-134.342 -293.164)" fill="#fdfcf6"/>
        <path id="Trazado_1011052" data-name="Trazado 1011052" d="M204.467,444.848h-3.26a.826.826,0,0,1-.826-.825v-5.59a.826.826,0,0,1,.826-.825h3.26a.826.826,0,0,1,.825.825v5.59a.826.826,0,0,1-.825.825m-3.26-7.057a.642.642,0,0,0-.642.642v5.59a.642.642,0,0,0,.642.642h3.26a.643.643,0,0,0,.642-.642v-5.59a.643.643,0,0,0-.642-.642Z" transform="translate(-134.156 -292.978)" fill="#0c232b"/>
        <path id="Trazado_1011053" data-name="Trazado 1011053" d="M197.595,452.035h12.729a.975.975,0,0,0,.7-.513.885.885,0,0,0,0-.576,1.766,1.766,0,0,0-.609-.891c-.835-.7-6.406-2.75-6.424-2.867a1.013,1.013,0,0,0-.153-.393.889.889,0,0,0-.092-.106,2.236,2.236,0,0,0-1.82-.056,4.507,4.507,0,0,0-1.043.446c-1.295,1.274-1.869,1.472-2.131,1.316-.378-.225-.223-1.263-.526-1.316a.31.31,0,0,0-.279.177,12.644,12.644,0,0,0-.723,3.689c-.011.108-.02.207-.025.287l-.023.3a.429.429,0,0,0,.42.5" transform="translate(-132.005 -298.923)" fill="#0c232b"/>
        <path id="Trazado_1011054" data-name="Trazado 1011054" d="M197.712,278.988l-.01,1.678,0,1.678,0,1.677c0,.559,0,1.118.009,1.678l.091,6.709q.127,6.708.364,13.415c.08,2.235.157,4.471.254,6.706l.142,3.352.164,3.351.169,3.351.086,1.676.043.837.049.837.2,3.35.1,1.675.114,1.674-13,.387c.285-4.5.448-9,.584-13.495l.1-3.371.071-3.37c.058-2.247.078-4.493.112-6.739.068-4.492.071-8.982.037-13.471l-.045-3.367-.074-3.366-.01-.421-.014-.421-.027-.841c-.019-.561-.034-1.122-.056-1.683l-.071-1.683-.042-.841q-.021-.421-.047-.841Z" transform="translate(-124.861 -186.783)" fill="#8ea0c7"/>
        <path id="Trazado_1011055" data-name="Trazado 1011055" d="M156.3,126.107a6.985,6.985,0,0,1-1.6,1.831,8.208,8.208,0,0,1-1.768,1.091c-2.7,1.246-4.67.2-7.612.116a10.927,10.927,0,0,0-4.186.652c-2.475.909-4,2.483-5.751,2.863a3.608,3.608,0,0,1-1.833-.077,4.839,4.839,0,0,1-1.16-.526c-4.009-2.465-6.12-10.783-3.5-13.511,1.369-1.423,2.9-.157,6.213-1.015,4.349-1.127,6.137-4.46,8.249-7.227,1.4-1.83,2.934-3.414,5.448-3.948,3.85-.818,8.382,1.165,9.237,3.727.377,1.131-.2,1.647-.775,3.508-.1.32-.2.681-.289,1.091h0a14.754,14.754,0,0,0-.354,2.559q-.012.256-.015.5c0,.112,0,.222,0,.331.036,3.414,1.257,5.433-.3,8.032" transform="translate(-85.518 -71.08)" fill="#0c232b"/>
        <path id="Trazado_1011056" data-name="Trazado 1011056" d="M146.628,259.912a22.062,22.062,0,0,0,1.365,6.474q.053.124.108.249l.064.141c.013.028.025.056.04.084a14.254,14.254,0,0,0,1.1,1.944q.131.193.271.385l.064.087c.028.039.057.077.086.115a10.933,10.933,0,0,0,3.015,2.76c.075.046.151.09.227.134a8.719,8.719,0,0,0,1.789.768c.083.025.166.048.249.071a8.111,8.111,0,0,0,1.932.273l.191,0,.232,0,4.4.086c5.647.11,10.371-5.677,10.814-13.071a.744.744,0,0,0-.227-.584l0,0a.729.729,0,0,0-.488-.2l-10.407-.2-.163,0-4.126-.081-10.529-1.579v.007c-.042.884-.025,1.617,0,2.14" transform="translate(-98.151 -172.574)" fill="#8ea0c7"/>
        <path id="Trazado_1011057" data-name="Trazado 1011057" d="M204.983,171.183l4.96,9.85-1.459-1.648,9.616,8.591.06.054a2.706,2.706,0,0,1-3.045,4.423L203.7,186.557a2.938,2.938,0,0,1-1.281-1.294l-.178-.354-4.96-9.85a4.31,4.31,0,0,1,7.7-3.878" transform="translate(-131.773 -113.019)" fill="#517aef"/>
        <path id="Trazado_1011058" data-name="Trazado 1011058" d="M146.679,191.372v.007a6.433,6.433,0,0,0,.165,1.406,6.545,6.545,0,0,0,4.38,4.768c.49.15,1,.294,1.538.425l.148.037.15.036c.1.023.2.047.3.068.122.028.246.055.37.081l.257.053.317.063.3.055.037.007.244.042.077.013c.106.019.212.036.319.053h0l.093.015.24.035.269.038.119.016.291.037a29.17,29.17,0,0,0,13.51-1.562,3.945,3.945,0,0,0,2.595-3.624v0c0-.044,0-.088,0-.132q-.114-9.327-.226-18.655-.038-3.119-.075-6.238c0-.075,0-.149,0-.224-.01-5.155-3.77-9.37-8.492-9.46l-5.693-.109-1.162-.022a8.187,8.187,0,0,0-5.583,2.089l-.1.087a9.868,9.868,0,0,0-3.162,6.828c0,.019,0,.037,0,.055s0,.045,0,.067q0,.112-.007.225-.1,1.993-.208,3.986,0,.092-.009.178c-.008.166-.016.316-.024.454,0,.051-.005.1-.008.154,0,.1-.01.194-.015.283,0,.067-.007.132-.011.2,0,.042,0,.083-.007.124s0,.081-.006.121c0,.059-.006.117-.01.175s-.006.121-.009.183c0,.039,0,.079-.007.118s0,.07-.006.1c0,.009,0,.018,0,.026s0,.013,0,.02l0,.035c0,.006,0,.01,0,.015,0,.021,0,.037,0,.048s0,.013,0,.014,0,.009,0,.018q-.438,8.394-.877,16.787c-.007.13-.01.26-.009.388" transform="translate(-98.202 -106.181)" fill="#517aef"/>
        <g id="Grupo_1184320" data-name="Grupo 1184320" transform="translate(48.477 54.481)" opacity="0.1">
          <g id="Grupo_1184319" data-name="Grupo 1184319">
            <g id="Grupo_1184318" data-name="Grupo 1184318" clip-path="url(#clip-path-44)">
              <path id="Trazado_1011059" data-name="Trazado 1011059" d="M146.679,195.555v.007a6.433,6.433,0,0,0,.165,1.406,6.546,6.546,0,0,0,4.38,4.768c.49.15,1,.293,1.538.425l.148.037.15.036c.1.023.2.047.3.068.122.028.246.055.37.081l.257.053.317.063.3.055.037.007.244.042.077.013c.106.019.212.036.319.053h0l.093.015c.1-1.069,2.348-3.117,5.962-5.466l0,0c1.351-.879,2.893-1.8,4.583-2.727-9.714-6.333-10.413-11.945-10.478-13.716a26.6,26.6,0,0,1,1.384-9.941l-5.658-5.96-.024-.026-.074.113c-2.393,3.663-3.084,5.664-3.162,6.828,0,.019,0,.037,0,.055s0,.045,0,.067,0,.084-.007.225q-.1,1.993-.208,3.986c0,.061-.006.12-.009.178-.008.166-.016.316-.024.454,0,.053-.005.1-.008.154,0,.1-.01.194-.015.283,0,.067-.007.132-.011.195,0,.042,0,.083-.007.124s0,.081-.006.121c0,.059-.006.117-.01.175s-.006.121-.009.183c0,.039,0,.079-.007.118s0,.07-.006.1c0,.009,0,.018,0,.026s0,.013,0,.02l0,.035c0,.006,0,.01,0,.015,0,.021,0,.037,0,.048s0,.013,0,.014,0,.009,0,.018q-.438,8.394-.877,16.787c-.007.13-.01.26-.009.388" transform="translate(-146.679 -164.845)" fill="#0c232b"/>
            </g>
          </g>
        </g>
        <path id="Trazado_1011060" data-name="Trazado 1011060" d="M152.5,170.091c-.168.238-.334.473-.49.715s-.308.484-.449.731-.271.5-.4.751-.247.507-.356.766a13.3,13.3,0,0,0-.9,3.2q-.06.408-.09.818t-.038.816a11.462,11.462,0,0,0,.1,1.61,9.99,9.99,0,0,0,.873,2.987,8.844,8.844,0,0,0,.763,1.3c.072.1.148.2.224.3s.155.194.231.294l.057.075.061.072.121.146c.041.049.085.094.127.142s.083.1.129.141c.091.09.177.186.271.275l.139.136.145.132c.095.091.2.171.3.258.051.043.1.082.157.124s.1.086.158.125c.109.079.214.165.329.239l.169.117.174.111c.115.076.236.146.355.22s.245.139.369.208l.19.1.095.05.1.046.194.1c.065.032.132.059.2.09.264.122.54.224.818.332a14.226,14.226,0,0,0,1.752.509c.3.066.612.118.925.173s.631.091.952.116c.08.006.161.016.242.024l.243.018c.163.014.327.019.491.026s.33.01.5.016c.084,0,.166,0,.25,0l.253,0,.324,0a2.7,2.7,0,0,1,.941,5.225,16.936,16.936,0,0,1-5.425,1.119,17.315,17.315,0,0,1-5.718-.71,17.732,17.732,0,0,1-2.779-1.116,14.848,14.848,0,0,1-1.322-.763l-.322-.21-.316-.221c-.212-.146-.416-.305-.622-.462a14.076,14.076,0,0,1-2.248-2.165q-.5-.6-.942-1.246t-.817-1.322q-.375-.678-.687-1.382t-.559-1.428a18.754,18.754,0,0,1-.734-2.944,19.127,19.127,0,0,1-.033-5.957q.106-.734.276-1.455c.112-.48.238-.957.384-1.426s.307-.934.484-1.391.378-.9.589-1.346a19.478,19.478,0,0,1,1.455-2.536c.274-.4.557-.8.859-1.175s.614-.747.941-1.1a4.311,4.311,0,0,1,6.689,5.409Z" transform="translate(-94.227 -109.201)" fill="#517aef"/>
        <path id="Trazado_1011061" data-name="Trazado 1011061" d="M238.364,187.653l-.8-.069.056-.65a1.432,1.432,0,0,0-2.853-.245l-.056.65-.8-.069a2.244,2.244,0,0,0-2.428,2.043l-.04.462,8.924.767.04-.462a2.244,2.244,0,0,0-2.043-2.428" transform="translate(-154.951 -124.112)" fill="#646794"/>
        <path id="Trazado_1011062" data-name="Trazado 1011062" d="M231.958,197.143l-13.353-1.148a1.331,1.331,0,0,0-1.44,1.212l-1.674,19.469a1.331,1.331,0,0,0,1.212,1.44l13.353,1.148a1.33,1.33,0,0,0,1.44-1.212l1.674-19.469a1.331,1.331,0,0,0-1.212-1.44" transform="translate(-144.268 -131.216)" fill="#0c232b"/>
        <path id="Trazado_1011063" data-name="Trazado 1011063" d="M202.746,234.273a2.117,2.117,0,0,0,1.9,1.692,5.311,5.311,0,0,0,2.037-.483c.96-.325,1.971-.483,2.928-.818,1.608-.564,3.041-1.619,4.712-1.952.146-.029.32-.075.362-.217.055-.183-.161-.332-.349-.368a3.841,3.841,0,0,0-.971.028,1.815,1.815,0,0,1-.483-.02,1.051,1.051,0,0,1-.229-.074c-.189-.087.038-.31.11-.4a2.69,2.69,0,0,1,.456-.428c.336-.256.71-.461,1.038-.728.068-.056.134-.113.2-.175l.026-.025c.118-.119.242-.245.23-.368a.213.213,0,0,0-.07-.131c-.2-.174-.811.2-1.053.342-.466.282-.654.486-1.248.813-.189.1-.413.217-.461.161-.013-.015-.021-.054.055-.178.3-.49.453-.736,2.177-2.205a.343.343,0,0,0,.1-.14.357.357,0,0,0,.021-.209.362.362,0,0,0-.26-.262.44.44,0,0,0-.325.074,6.972,6.972,0,0,0-.875.6c-.669.566-.9.685-1.13.922a2.568,2.568,0,0,1-.282.243c-.037.029-.162.165-.222.134a.058.058,0,0,1-.024-.031,18.562,18.562,0,0,1,1.227-2.516.544.544,0,0,0,.065-.439.319.319,0,0,0-.19-.176c-.031-.008-.155-.036-.339.13-.763.687-1.161,1.7-1.892,2.421a.688.688,0,0,1-.472.247.6.6,0,0,1-.361-.172,4.119,4.119,0,0,1-.871-1.93.946.946,0,0,0-.3-.489.433.433,0,0,0-.541.035,1.1,1.1,0,0,0-.165.593c-.049.456.006.916-.033,1.373a3.279,3.279,0,0,1-.894,1.89,2.988,2.988,0,0,1-1.3.7c-.586.137-.849.011-1.335.242a1.659,1.659,0,0,0-.685.656,2.317,2.317,0,0,0-.281,1.639" transform="translate(-135.709 -151.932)" fill="#fdfcf6"/>
        <path id="Trazado_1011064" data-name="Trazado 1011064" d="M204.614,235.877c-.055,0-.109,0-.164-.006a2.209,2.209,0,0,1-1.98-1.765,2.407,2.407,0,0,1,.292-1.7,1.746,1.746,0,0,1,.724-.692,1.858,1.858,0,0,1,.768-.172,3.228,3.228,0,0,0,.585-.076,2.918,2.918,0,0,0,1.256-.676,3.2,3.2,0,0,0,.866-1.831c.018-.212.015-.431.013-.642a6.139,6.139,0,0,1,.02-.733l0-.048a1.032,1.032,0,0,1,.186-.6.525.525,0,0,1,.66-.045,1.024,1.024,0,0,1,.332.534c.051.153.1.312.14.467a2.849,2.849,0,0,0,.7,1.424.5.5,0,0,0,.3.149.606.606,0,0,0,.4-.221,7.088,7.088,0,0,0,.881-1.146,6.533,6.533,0,0,1,1.014-1.277.459.459,0,0,1,.423-.15.408.408,0,0,1,.252.229.633.633,0,0,1-.068.517c-.033.063-.095.178-.174.326-.259.481-.906,1.681-1.026,2.045l.044-.039c.016-.014.029-.026.038-.033a2.5,2.5,0,0,0,.272-.234,3.521,3.521,0,0,1,.427-.359c.164-.125.388-.3.711-.569a7.026,7.026,0,0,1,.887-.609.524.524,0,0,1,.393-.084.452.452,0,0,1,.327.331.468.468,0,0,1-.15.44c-1.714,1.46-1.862,1.7-2.159,2.183l-.021.037a2.322,2.322,0,0,0,.305-.148,6.768,6.768,0,0,0,.749-.479c.147-.1.3-.213.5-.333.451-.272.942-.525,1.161-.332a.306.306,0,0,1,.1.191c.017.166-.128.313-.255.442l-.024.024c-.064.063-.13.122-.205.183-.184.15-.383.281-.576.408-.155.1-.316.209-.465.322a2.593,2.593,0,0,0-.441.413l-.03.036c-.127.147-.137.193-.132.208a.046.046,0,0,0,.02.013.945.945,0,0,0,.209.067,1.756,1.756,0,0,0,.458.018c.082-.006.166-.015.248-.023a2.585,2.585,0,0,1,.746,0,.6.6,0,0,1,.386.242.294.294,0,0,1,.034.243c-.062.207-.312.257-.432.281a11.394,11.394,0,0,0-2.782,1.091,17,17,0,0,1-1.918.857c-.5.174-1.016.3-1.517.427-.467.116-.95.235-1.412.391-.121.041-.242.085-.363.128a4.628,4.628,0,0,1-1.546.365m-1.964-1.808a2.026,2.026,0,0,0,1.814,1.619,4.047,4.047,0,0,0,1.634-.349c.122-.044.245-.088.367-.129.469-.159.955-.279,1.426-.4.5-.123,1.011-.251,1.5-.422a16.837,16.837,0,0,0,1.9-.848,11.537,11.537,0,0,1,2.828-1.107c.13-.026.265-.064.292-.154a.11.11,0,0,0-.015-.095.412.412,0,0,0-.263-.156,2.393,2.393,0,0,0-.693.006c-.083.009-.17.018-.255.023a1.933,1.933,0,0,1-.507-.021,1.121,1.121,0,0,1-.25-.081.2.2,0,0,1-.122-.141c-.029-.134.092-.274.173-.367l.027-.032a2.765,2.765,0,0,1,.472-.443c.154-.117.317-.225.475-.329.189-.125.384-.254.561-.4.071-.058.133-.113.19-.169l.024-.024c.095-.1.212-.215.2-.295a.127.127,0,0,0-.039-.072c-.056-.048-.252-.067-.945.351-.193.117-.335.218-.486.325a6.9,6.9,0,0,1-.767.49c-.314.173-.489.242-.575.14-.065-.078-.013-.188.047-.285.307-.5.46-.748,2.2-2.227a.258.258,0,0,0,.071-.1.269.269,0,0,0,.019-.161.272.272,0,0,0-.193-.193.355.355,0,0,0-.256.064,6.864,6.864,0,0,0-.862.592c-.326.276-.552.449-.718.575a3.393,3.393,0,0,0-.406.341,2.645,2.645,0,0,1-.292.252l-.026.023c-.076.069-.19.174-.3.12a.151.151,0,0,1-.067-.081c-.043-.119.109-.5,1.06-2.267.079-.147.14-.261.173-.323a.463.463,0,0,0,.062-.361.224.224,0,0,0-.127-.123.315.315,0,0,0-.255.109,6.388,6.388,0,0,0-.984,1.242,7.252,7.252,0,0,1-.905,1.176.768.768,0,0,1-.539.273.675.675,0,0,1-.418-.195,2.98,2.98,0,0,1-.759-1.512c-.044-.152-.088-.31-.138-.459a.867.867,0,0,0-.265-.444.34.34,0,0,0-.422.026.943.943,0,0,0-.134.488l-.005.05a6.009,6.009,0,0,0-.019.711c0,.216.006.439-.013.66a3.41,3.41,0,0,1-.923,1.949,3.065,3.065,0,0,1-1.34.721,3.449,3.449,0,0,1-.616.081,1.667,1.667,0,0,0-.7.154,1.563,1.563,0,0,0-.646.621,2.22,2.22,0,0,0-.27,1.573" transform="translate(-135.523 -151.746)" fill="#0c232b"/>
        <path id="Trazado_1011065" data-name="Trazado 1011065" d="M177.257,116.387a4.2,4.2,0,0,1,3.586-4.521l4.106-.356a4.235,4.235,0,0,1,4.341,4.1c.128,1.023.566,5.094-.979,8.232a5.647,5.647,0,0,1-2.335,2.714,4.8,4.8,0,0,1-1.745.538,3.284,3.284,0,0,1-.929.072l-.356,1.461a2.909,2.909,0,0,1-5.693-1.175c.011-.067.025-.134.042-.2l.952-3.91a7.256,7.256,0,0,1-.609-2.473l-.1-1.138a1.414,1.414,0,0,1-.142-.027,1.674,1.674,0,0,1-1.108-2.083,1.834,1.834,0,0,1,.968-1.233" transform="translate(-117.988 -74.648)" fill="#fdfcf6"/>
        <path id="Trazado_1011066" data-name="Trazado 1011066" d="M179.938,130.754a3.02,3.02,0,0,1-.715-.087,3,3,0,0,1-2.248-3.418c.012-.068.026-.138.043-.207l.945-3.88a7.347,7.347,0,0,1-.6-2.476l-.092-1.065c-.027,0-.053-.01-.078-.017a1.569,1.569,0,0,1-1.015-.81,2,2,0,0,1,.8-2.651,4.287,4.287,0,0,1,3.672-4.556l4.106-.356a3.83,3.83,0,0,1,2.981,1.083,4.808,4.808,0,0,1,1.459,3.1c.188,1.5.468,5.323-.988,8.281a5.765,5.765,0,0,1-2.374,2.754,4.887,4.887,0,0,1-1.773.548,3.375,3.375,0,0,1-.874.077l-.338,1.387a3,3,0,0,1-2.91,2.292m5.136-19.352q-.152,0-.3.013l-4.106.355a4.113,4.113,0,0,0-3.5,4.426l0,.06-.054.026a1.754,1.754,0,0,0-.918,1.172,1.775,1.775,0,0,0,.144,1.255,1.388,1.388,0,0,0,.9.718c.041.01.085.018.133.025l.072.01.105,1.211a7.16,7.16,0,0,0,.6,2.443l.013.028-.96,3.941c-.016.065-.029.13-.04.195a2.817,2.817,0,0,0,5.514,1.139l.374-1.536.077,0a3.215,3.215,0,0,0,.9-.07l.01,0a4.7,4.7,0,0,0,1.712-.528,5.6,5.6,0,0,0,2.3-2.674c1.434-2.913,1.156-6.691.97-8.181a4.628,4.628,0,0,0-1.4-2.985,3.679,3.679,0,0,0-2.535-1.047" transform="translate(-117.801 -74.461)" fill="#0c232b"/>
        <g id="Grupo_1184323" data-name="Grupo 1184323" transform="translate(58.754 42.014)" opacity="0.2">
          <g id="Grupo_1184322" data-name="Grupo 1184322">
            <g id="Grupo_1184321" data-name="Grupo 1184321" clip-path="url(#clip-path-45)">
              <path id="Trazado_1011067" data-name="Trazado 1011067" d="M177.821,128.658a1.261,1.261,0,0,1,.31-1.206,1.037,1.037,0,0,1,1.186-.22,1.049,1.049,0,0,1,.125,1.475c-.124.106-.273.106-.328.25-.073.194.144.339.079.535a.541.541,0,0,1-.486.276.667.667,0,0,1-.646-.346c-.156-.5,1.075-1.065.923-1.508a.57.57,0,0,0-.677-.245c-.434.161-.442,1-.487.99" transform="translate(-177.775 -127.123)" fill="#517aef"/>
            </g>
          </g>
        </g>
        <g id="Grupo_1184326" data-name="Grupo 1184326" transform="translate(59.264 48.693)" opacity="0.1">
          <g id="Grupo_1184325" data-name="Grupo 1184325">
            <g id="Grupo_1184324" data-name="Grupo 1184324" clip-path="url(#clip-path-46)">
              <path id="Trazado_1011068" data-name="Trazado 1011068" d="M180.312,147.332l-.952,3.91q-.024.1-.041.2a5.186,5.186,0,0,0,3.309.789,4.6,4.6,0,0,0,2.36-1.116c-.107-.018-.213-.04-.318-.065a7.049,7.049,0,0,1-2.793-1.574,6.3,6.3,0,0,1-1.565-2.146" transform="translate(-179.318 -147.332)" fill="#517aef"/>
            </g>
          </g>
        </g>
        <path id="Trazado_1011069" data-name="Trazado 1011069" d="M209.455,132.106c-.086.351-.314.6-.51.549s-.287-.371-.2-.722.314-.6.51-.549.287.371.2.722" transform="translate(-139.732 -87.958)" fill="#0c232b"/>
        <path id="Trazado_1011070" data-name="Trazado 1011070" d="M199.993,129.8c-.086.351-.314.6-.51.549s-.287-.371-.2-.722.314-.6.51-.549.287.371.2.722" transform="translate(-133.397 -86.415)" fill="#0c232b"/>
        <path id="Trazado_1011071" data-name="Trazado 1011071" d="M199.745,142.957a1.644,1.644,0,0,1-.972,1,.93.93,0,0,1-.522.019,1.223,1.223,0,0,1-.79-1.259,1.993,1.993,0,0,1,.036-.388,1.922,1.922,0,0,0,1.046.719,1.971,1.971,0,0,0,1.2-.1" transform="translate(-132.201 -95.293)" fill="#0c232b"/>
        <path id="Trazado_1011072" data-name="Trazado 1011072" d="M198.774,144.746a.934.934,0,0,1-.522.02,1.223,1.223,0,0,1-.79-1.259,2.036,2.036,0,0,1,.787.429,1.981,1.981,0,0,1,.525.811" transform="translate(-132.202 -96.078)" fill="#8ea0c7"/>
        <path id="Trazado_1011073" data-name="Trazado 1011073" d="M210.072,126.672a1.509,1.509,0,0,1,1.346.5c.262.338.267.782.185.809s-.22-.431-.738-.85a5.291,5.291,0,0,0-.794-.454" transform="translate(-140.643 -84.788)" fill="#0c232b"/>
        <path id="Trazado_1011074" data-name="Trazado 1011074" d="M199.295,124.5a1.509,1.509,0,0,0-1.423-.179c-.388.18-.6.572-.536.633s.394-.282,1.046-.416a5.3,5.3,0,0,1,.914-.038" transform="translate(-132.109 -83.162)" fill="#0c232b"/>
        <g id="Grupo_1184329" data-name="Grupo 1184329" transform="translate(63.32 44.365)" opacity="0.2">
          <g id="Grupo_1184328" data-name="Grupo 1184328">
            <g id="Grupo_1184327" data-name="Grupo 1184327" clip-path="url(#clip-path-47)">
              <path id="Trazado_1011075" data-name="Trazado 1011075" d="M193.369,134.841c-.043.178-.476.226-.967.107s-.853-.361-.809-.539.476-.226.966-.106.853.361.809.539" transform="translate(-191.589 -134.236)" fill="#517aef"/>
            </g>
          </g>
        </g>
        <g id="Grupo_1184332" data-name="Grupo 1184332" transform="translate(69.608 45.896)" opacity="0.2">
          <g id="Grupo_1184331" data-name="Grupo 1184331">
            <g id="Grupo_1184330" data-name="Grupo 1184330" clip-path="url(#clip-path-47)">
              <path id="Trazado_1011076" data-name="Trazado 1011076" d="M212.395,139.474c-.043.178-.476.226-.967.106s-.853-.361-.809-.539.476-.226.966-.106.853.361.809.539" transform="translate(-210.615 -138.869)" fill="#517aef"/>
            </g>
          </g>
        </g>
        <path id="Trazado_1011077" data-name="Trazado 1011077" d="M189.537,111.276c-.161.515-1.043.653-1.667.752a5.532,5.532,0,0,1-2.443-.168,6.029,6.029,0,0,1-3.2-2.551,4.166,4.166,0,0,1-.9,3.1,4.056,4.056,0,0,1-2.168,1.22c-2.127.516-3.433-.7-4.047-.174-.5.429-.467,1.788,1.432,5.559a10.48,10.48,0,0,1-2.427-6.77,9.041,9.041,0,0,1,.287-1.96,9.032,9.032,0,0,1,5.448-3.947c4.759-1.068,8.257,2.6,8.727,3.1.3.314,1.146,1.239.958,1.839" transform="translate(-116.568 -71.066)" fill="#0c232b"/>
        <path id="Trazado_1011078" data-name="Trazado 1011078" d="M179.494,135.914a.613.613,0,1,1-.45-.74.613.613,0,0,1,.45.74" transform="translate(-119.363 -90.487)" fill="#587aeb"/>
        <path id="Trazado_1011079" data-name="Trazado 1011079" d="M205.1,137.546h0a1.018,1.018,0,0,1-.672-.287.092.092,0,1,1,.125-.135.835.835,0,0,0,.547.238h0a.848.848,0,0,0,.617-.3.782.782,0,0,0,.224-.578.434.434,0,0,0-.172-.32c-.11-.057-.246.006-.377.067s-.265.123-.385.061c-.165-.086-.285-.35.072-1.652a.092.092,0,0,1,.177.049c-.349,1.271-.2,1.424-.164,1.441s.136-.024.222-.064a.492.492,0,0,1,.808.4.965.965,0,0,1-.269.72,1.032,1.032,0,0,1-.754.364" transform="translate(-136.844 -90.094)" fill="#0c232b"/>
      </g>
    </g>
  </g>
</svg>
