<svg xmlns="http://www.w3.org/2000/svg" width="483.871" height="256.443" viewBox="0 0 483.871 256.443">
  <g id="Grupo_1184508" data-name="Grupo 1184508" transform="translate(-558.453 -7614)">
    <g id="Grupo_1183413" data-name="Grupo 1183413" transform="translate(575.042 7634.45)">
      <g id="Grupo_1183409" data-name="Grupo 1183409" transform="translate(63.314 0)">
        <path id="Trazado_1009058" data-name="Trazado 1009058" d="M319.711,118.786a221.367,221.367,0,0,0-157.06,65l157.06,157.06Z" transform="translate(-156.883 -114.706)" fill="#fbded8"/>
        <path id="Trazado_1009059" data-name="Trazado 1009059" d="M326.077,352.317,159.169,185.407l2.884-2.884A224.681,224.681,0,0,1,322,116.323h4.08V352.317ZM170.735,185.433,317.917,332.617V124.52A216.433,216.433,0,0,0,170.735,185.433Z" transform="translate(-159.169 -116.323)" fill="#fff"/>
      </g>
      <g id="Grupo_1183410" data-name="Grupo 1183410" transform="translate(222.062)">
        <path id="Trazado_1009060" data-name="Trazado 1009060" d="M414.522,183.789a221.364,221.364,0,0,0-157.06-65V340.85Z" transform="translate(-253.382 -114.706)" fill="#cfa9e6"/>
        <path id="Trazado_1009061" data-name="Trazado 1009061" d="M255,352.317V116.323h4.08a224.678,224.678,0,0,1,159.944,66.2l2.884,2.884Zm8.16-227.8v208.1L410.343,185.431A216.446,216.446,0,0,0,263.159,124.52Z" transform="translate(-254.999 -116.323)" fill="#fff"/>
      </g>
      <g id="Grupo_1183411" data-name="Grupo 1183411" transform="translate(0 63.312)">
        <path id="Trazado_1009062" data-name="Trazado 1009062" d="M188.415,158.026a221.364,221.364,0,0,0-65,157.06H345.476Z" transform="translate(-119.332 -152.255)" fill="#cfa9e6"/>
        <path id="Trazado_1009063" data-name="Trazado 1009063" d="M356.943,321.452H120.949v-4.08a224.693,224.693,0,0,1,66.2-159.944l2.886-2.886Zm-227.8-8.159h208.1L190.059,166.11A216.433,216.433,0,0,0,129.146,313.293Z" transform="translate(-120.949 -154.542)" fill="#fff"/>
      </g>
      <g id="Grupo_1183412" data-name="Grupo 1183412" transform="translate(216.292 63.312)">
        <path id="Trazado_1009064" data-name="Trazado 1009064" d="M479.526,315.085a221.367,221.367,0,0,0-65-157.06l-157.06,157.06Z" transform="translate(-247.612 -152.255)" fill="#fbded8"/>
        <path id="Trazado_1009065" data-name="Trazado 1009065" d="M487.51,321.452H251.516l166.91-166.91,2.886,2.886a224.693,224.693,0,0,1,66.2,159.944Zm-216.292-8.159h208.1A216.434,216.434,0,0,0,418.4,166.11Z" transform="translate(-251.516 -154.542)" fill="#fff"/>
      </g>
    </g>
    <path id="Trazado_1009066" data-name="Trazado 1009066" d="M361.916,223.407a94.648,94.648,0,0,0-161.589,66.942H389.62A94.346,94.346,0,0,0,361.916,223.407Z" transform="translate(506.209 7570.243)" fill="#fff"/>
    <g id="Grupo_1183416" data-name="Grupo 1183416" transform="translate(547.218 7734.524)">
      <circle id="Elipse_16107" data-name="Elipse 16107" cx="39.077" cy="39.077" r="39.077" transform="translate(11.235 6.277)" fill="#fff"/>
      <circle id="Elipse_16108" data-name="Elipse 16108" cx="33.058" cy="33.058" r="33.058" transform="translate(17.253 12.295)" fill="#cfa9e6"/>
      <g id="Grupo_1183424" data-name="Grupo 1183424" transform="translate(34.781 29.354)">
        <path id="Trazado_1009067" data-name="Trazado 1009067" d="M247.111,282.654a.611.611,0,0,0-.611.611v3.743a.611.611,0,0,0,.611.611h2.363a.611.611,0,0,0,0-1.221h-1.752v-3.132A.611.611,0,0,0,247.111,282.654Z" transform="translate(-231.581 -265.077)" fill="#53435c"/>
        <path id="Trazado_1009068" data-name="Trazado 1009068" d="M28.1,3.467h-2.76V2.743a2.247,2.247,0,0,0-4.493,0v.725H17.777V2.743a2.247,2.247,0,0,0-4.493,0v.725H10.218V2.743a2.248,2.248,0,0,0-4.5,0v.725H2.964A2.965,2.965,0,0,0,0,6.426v7.663a.611.611,0,1,0,1.221,0V10.9H29.839V23.7A1.742,1.742,0,0,1,28.1,25.442H24.452A9.586,9.586,0,1,0,5.939,21.931a9.5,9.5,0,0,0,.669,3.511H2.964a1.742,1.742,0,0,1-1.743-1.737V19.648a.611.611,0,0,0-1.221,0V23.7a2.965,2.965,0,0,0,2.964,2.958H7.2a9.6,9.6,0,0,0,16.667,0H28.1A2.965,2.965,0,0,0,31.06,23.7V6.426A2.965,2.965,0,0,0,28.1,3.467ZM15.53,30.278a8.348,8.348,0,1,1,8.37-8.348A8.368,8.368,0,0,1,15.53,30.278ZM22.064,2.743a1.025,1.025,0,0,1,2.051,0V5.413a1.025,1.025,0,0,1-2.051,0Zm-7.559,0a1.025,1.025,0,0,1,2.051,0V5.413a1.025,1.025,0,0,1-2.051,0Zm-7.561,0A1.026,1.026,0,0,1,9,2.743V5.413a1.026,1.026,0,0,1-2.053,0ZM1.221,9.676V6.426A1.742,1.742,0,0,1,2.964,4.689H5.723v.725a2.248,2.248,0,0,0,4.5,0V4.689h3.066v.725a2.247,2.247,0,0,0,4.493,0V4.689h3.066v.725a2.247,2.247,0,0,0,4.493,0V4.689H28.1a1.742,1.742,0,0,1,1.743,1.737v3.25Z" transform="translate(0)" fill="#53435c"/>
        <path id="Trazado_1009069" data-name="Trazado 1009069" d="M.611,261.969a.611.611,0,0,0,.611-.611v-.012a.611.611,0,1,0-1.221,0v.012A.611.611,0,0,0,.611,261.969Z" transform="translate(0 -244.485)" fill="#53435c"/>
        <path id="Trazado_1009070" data-name="Trazado 1009070" d="M154.553,244.9a.611.611,0,1,0-1.209.168,5.8,5.8,0,0,1-10.565,4.012,5.775,5.775,0,0,1,1.6-8.021,5.849,5.849,0,0,1,6.169-.175.611.611,0,0,0,.618-1.053,7.034,7.034,0,0,0-7.465.212,7.01,7.01,0,1,0,10.855,4.856Z" transform="translate(-132.07 -223.932)" fill="#53435c"/>
        <path id="Trazado_1009071" data-name="Trazado 1009071" d="M334.618,286.742a.611.611,0,1,0,1.017-.676l-.007-.011a.611.611,0,1,0-1.017.676Z" transform="translate(-314.262 -268.016)" fill="#53435c"/>
      </g>
    </g>
    <g id="Grupo_1183418" data-name="Grupo 1183418" transform="translate(952.937 7734.524)">
      <circle id="Elipse_16110" data-name="Elipse 16110" cx="39.077" cy="39.077" r="39.077" transform="translate(11.235 6.277)" fill="#fff"/>
      <circle id="Elipse_16111" data-name="Elipse 16111" cx="33.058" cy="33.058" r="33.058" transform="translate(17.253 12.295)" fill="#fbded8"/>
      <path id="Trazado_1009077" data-name="Trazado 1009077" d="M54.52,43.429a6.725,6.725,0,1,0-6.725,6.725,6.732,6.732,0,0,0,6.725-6.725Zm-6.725,5.489a5.489,5.489,0,1,1,5.489-5.489A5.5,5.5,0,0,1,47.795,48.917Zm11.122,6.848-3.222-5.581c.208-.1.422-.2.633-.3a3.936,3.936,0,0,0,2.342-1.955,3.949,3.949,0,0,0-.276-3.046,6.728,6.728,0,0,1-.435-1.459,6.845,6.845,0,0,1,.437-1.466,3.937,3.937,0,0,0,.274-3.039,3.948,3.948,0,0,0-2.348-1.959,6.729,6.729,0,0,1-1.34-.724,6.844,6.844,0,0,1-.728-1.346A3.937,3.937,0,0,0,52.3,32.553a3.949,3.949,0,0,0-3.045.276c-.286.109-.564.214-.841.3v-6.4a.618.618,0,0,0-.491-.6L35.834,23.571a.619.619,0,0,0-.255,0L23.491,26.118a.618.618,0,0,0-.491.6V38.518a14.414,14.414,0,0,0,3.8,9.476A15.242,15.242,0,0,0,35.611,53a.62.62,0,0,0,.1.007A.611.611,0,0,0,35.8,53a13.363,13.363,0,0,0,2.937-.818l-2.066,3.579a.618.618,0,0,0,.57.926l2.912-.163,1.315,2.6a.618.618,0,0,0,.534.339h.017a.618.618,0,0,0,.535-.309l2.764-4.788a10.409,10.409,0,0,0,1.016-.346,6.722,6.722,0,0,1,1.459-.435,6.841,6.841,0,0,1,1.466.437,10.39,10.39,0,0,0,1.009.344l2.765,4.788a.618.618,0,0,0,.535.309h.017a.618.618,0,0,0,.534-.339l1.315-2.6,2.912.163a.618.618,0,0,0,.57-.926Zm-23.211-4c-6.228-1.029-11.47-7.074-11.47-13.25V27.224l11.47-2.417,11.47,2.417v5.9c-.287-.085-.57-.192-.848-.3a7.35,7.35,0,0,0-1.47-.443V29.606a.618.618,0,0,0-.491-.6l-8.535-1.8a.619.619,0,0,0-.255,0L27.044,29a.618.618,0,0,0-.491.6v8.912a10.84,10.84,0,0,0,2.721,6.9,11.923,11.923,0,0,0,6.3,3.963.619.619,0,0,0,.269,0,10.153,10.153,0,0,0,1.69-.541,5.67,5.67,0,0,0,1.736,1.051c.215.1.425.191.627.293l-.061.106a12.652,12.652,0,0,1-4.127,1.478Zm1.488-9.8a6.723,6.723,0,0,1,.436,1.459,6.847,6.847,0,0,1-.437,1.466,4.087,4.087,0,0,0-.332,2.884,8.877,8.877,0,0,1-1.155.366c-4.305-1.035-7.917-5.41-7.917-9.627V30.107l7.917-1.668,7.917,1.668v2.332a2.775,2.775,0,0,0-.333.114A3.949,3.949,0,0,0,41.331,34.9a6.724,6.724,0,0,1-.724,1.34,6.839,6.839,0,0,1-1.346.728,3.937,3.937,0,0,0-2.342,1.955A3.948,3.948,0,0,0,37.195,41.969Zm4.862,15.585-.982-1.944a.618.618,0,0,0-.586-.339l-2.175.122,2.541-4.4a9.919,9.919,0,0,1,.479.97A3.937,3.937,0,0,0,43.29,54.3a2.735,2.735,0,0,0,.549.163Zm5.808-5.2a.616.616,0,0,0-.14,0,7.547,7.547,0,0,0-1.829.517c-.914.348-1.507.548-2.133.289s-.9-.817-1.3-1.706a7.562,7.562,0,0,0-.931-1.665.623.623,0,0,0-.1-.1,7.547,7.547,0,0,0-1.659-.928c-.893-.4-1.453-.678-1.712-1.3s-.059-1.215.287-2.126a7.56,7.56,0,0,0,.519-1.836.616.616,0,0,0,0-.14,7.547,7.547,0,0,0-.517-1.829c-.348-.915-.548-1.507-.289-2.133s.817-.9,1.707-1.3a7.562,7.562,0,0,0,1.665-.931.614.614,0,0,0,.1-.1,7.551,7.551,0,0,0,.928-1.659c.4-.893.678-1.453,1.3-1.712a1.52,1.52,0,0,1,.594-.118,4.585,4.585,0,0,1,1.532.405,7.559,7.559,0,0,0,1.836.519.616.616,0,0,0,.14,0,7.547,7.547,0,0,0,1.829-.517c.915-.348,1.507-.548,2.133-.289s.9.817,1.3,1.707a7.56,7.56,0,0,0,.931,1.665.617.617,0,0,0,.1.1,7.549,7.549,0,0,0,1.659.927c.893.4,1.453.678,1.712,1.3s.06,1.215-.287,2.126a7.56,7.56,0,0,0-.519,1.836.616.616,0,0,0,0,.14,7.545,7.545,0,0,0,.517,1.829c.348.915.548,1.507.289,2.133s-.817.9-1.706,1.3a7.567,7.567,0,0,0-1.665.931.617.617,0,0,0-.1.1,7.551,7.551,0,0,0-.928,1.659c-.4.893-.678,1.453-1.3,1.712s-1.215.06-2.126-.287a7.556,7.556,0,0,0-1.836-.519ZM55.1,55.271a.618.618,0,0,0-.586.339l-.982,1.944L51.75,54.467A2.741,2.741,0,0,0,52.3,54.3a3.949,3.949,0,0,0,1.959-2.348,9.919,9.919,0,0,1,.475-.964l2.541,4.4Zm-3.837-14.3a.618.618,0,0,1,0,.874l-4.043,4.043a.618.618,0,0,1-.874,0l-2.021-2.021a.618.618,0,1,1,.874-.874l1.584,1.584L50.39,40.97a.618.618,0,0,1,.874,0Z" transform="translate(9.312 3.839)" fill="#53435c"/>
    </g>
    <g id="Grupo_1183419" data-name="Grupo 1183419" transform="translate(664.917 7615.398)">
      <circle id="Elipse_16113" data-name="Elipse 16113" cx="39.077" cy="39.077" r="39.077" transform="translate(11.235 6.275)" fill="#fff"/>
      <circle id="Elipse_16114" data-name="Elipse 16114" cx="33.058" cy="33.058" r="33.058" transform="translate(12.392 72.688) rotate(-80.782)" fill="#fbded8"/>
      <path id="Trazado_1009072" data-name="Trazado 1009072" d="M71.647,6.167,66.712.355a1.006,1.006,0,0,0-1.534,0L60.242,6.168a1.006,1.006,0,0,0,.767,1.657H62.66V20.974a12.034,12.034,0,0,0-5.269-3.126V12.168h1.651a1.006,1.006,0,0,0,.767-1.657L54.874,4.7a1.006,1.006,0,0,0-1.534,0l-4.935,5.812a1.006,1.006,0,0,0,.767,1.657h1.651v5.679a12.035,12.035,0,0,0-5.269,3.126V16.512H47.2a1.006,1.006,0,0,0,.767-1.657L43.036,9.043a1.006,1.006,0,0,0-1.534,0l-4.935,5.813a1.006,1.006,0,0,0,.767,1.657h1.651V23.5a1.366,1.366,0,0,0,1.364,1.364h2.629a12.025,12.025,0,1,0,22.258,0h2.629A1.366,1.366,0,0,0,69.229,23.5V7.824H70.88a1.006,1.006,0,0,0,.767-1.657ZM51.47,10.873H49.8L54.107,5.8l4.31,5.077H56.744a.648.648,0,0,0-.648.648v6.037a12.039,12.039,0,0,0-3.978,0V11.521A.648.648,0,0,0,51.47,10.873ZM40.35,23.568a.071.071,0,0,1-.069-.069V15.865a.648.648,0,0,0-.648-.648H37.959l4.31-5.077,4.311,5.077H44.906a.648.648,0,0,0-.648.648v6.661a12.056,12.056,0,0,0-.655,1.042ZM54.107,40.147a10.73,10.73,0,1,1,10.73-10.73A10.742,10.742,0,0,1,54.107,40.147ZM68.581,6.529a.648.648,0,0,0-.648.648V23.5a.071.071,0,0,1-.069.069H64.61a12.043,12.043,0,0,0-.655-1.042V7.177a.648.648,0,0,0-.648-.648H61.634l4.31-5.077,4.31,5.077Zm-10.873,24.4h0a2.8,2.8,0,0,0,0,5.6h0a2.8,2.8,0,0,0,0-5.6Zm1.064,3.862a1.494,1.494,0,0,1-1.063.441h0a1.5,1.5,0,0,1,0-3.008h0a1.5,1.5,0,0,1,1.064,2.567Zm-8.266-6.885a2.8,2.8,0,0,0,0-5.6h0a2.8,2.8,0,0,0,0,5.6Zm-1.5-2.8a1.505,1.505,0,0,1,1.5-1.5h0a1.5,1.5,0,0,1,0,3.008h0a1.506,1.506,0,0,1-1.5-1.5Zm9.728-.966L50.667,35.37a.648.648,0,1,1-1.052-.755l8.063-11.229a.648.648,0,1,1,1.052.755Z" transform="translate(-3.795 24.63)" fill="#53435c"/>
    </g>
    <g id="Grupo_1183421" data-name="Grupo 1183421" transform="translate(830.308 7614)">
      <circle id="Elipse_16116" data-name="Elipse 16116" cx="39.077" cy="39.077" r="39.077" transform="translate(11.235 7.673)" fill="#fff"/>
      <circle id="Elipse_16117" data-name="Elipse 16117" cx="33.058" cy="33.058" r="33.058" transform="translate(3.145 46.751) rotate(-45)" fill="#cfa9e6"/>
      <g id="Grupo_1183425" data-name="Grupo 1183425" transform="translate(-52.143 25)">
        <path id="Trazado_1009073" data-name="Trazado 1009073" d="M193.168,312.59a1.965,1.965,0,1,0-1.965,1.965A1.967,1.967,0,0,0,193.168,312.59Zm-2.65,0a.685.685,0,1,1,.685.685A.686.686,0,0,1,190.518,312.59Z" transform="translate(-92.34 -284.129)" fill="#53435c"/>
        <path id="Trazado_1009074" data-name="Trazado 1009074" d="M191.2,66.056a1.965,1.965,0,1,0-1.965-1.965A1.967,1.967,0,0,0,191.2,66.056Zm0-2.65a.685.685,0,1,1-.685.685A.686.686,0,0,1,191.2,63.406Z" transform="translate(-92.34 -56.828)" fill="#53435c"/>
        <path id="Trazado_1009075" data-name="Trazado 1009075" d="M165.3,185.078h.766a.64.64,0,1,0,0-1.279h-.777a1.965,1.965,0,0,0-3.91.276v.728a.685.685,0,0,1-1.37,0v-.65a.561.561,0,0,1,.4-.534.64.64,0,1,0-.368-1.225,1.823,1.823,0,0,0-1.275,1.406h-.791a.64.64,0,0,0,0,1.279h.777a1.965,1.965,0,0,0,3.91-.276v-.728a.685.685,0,1,1,1.37,0v.821a.554.554,0,0,1-.4.534.64.64,0,0,0,.368,1.225A1.824,1.824,0,0,0,165.3,185.078Z" transform="translate(-63.155 -166.576)" fill="#53435c"/>
        <path id="Trazado_1009076" data-name="Trazado 1009076" d="M115.838,26.536a.64.64,0,0,0-.806-.41.631.631,0,0,0-.41.806c2.083,5.68.292,8.637-2.076,12.531a3.115,3.115,0,0,0-.411,1.619v1.311h-9.319a3.566,3.566,0,0,0-1.632-3.362,2.129,2.129,0,0,1-1.017-1.808V33.576a2.1,2.1,0,0,1,.62-1.5l2.36-2.36a3.374,3.374,0,0,0,.994-2.4V21.959a2.025,2.025,0,0,1,2.01-2.132,2.166,2.166,0,0,1,2.009,2.01v5.3a.64.64,0,0,0,.187.452l1.325,1.325a.64.64,0,1,0,.9-.9l-1.137-1.138v-12l2.748,4.581,1.57,4.827a.64.64,0,0,0,1.217-.4s-1.627-4.986-1.652-5.027l-3.883-6.472V.64A.64.64,0,0,0,108.8,0h-8.543a.64.64,0,0,0,0,1.279h7.9V19.234a3.277,3.277,0,0,0-1.371-.625V5.939a.64.64,0,0,0-.64-.64,2.01,2.01,0,0,1-2.01-2.01.64.64,0,0,0-.64-.64H94.155a.64.64,0,0,0-.64.64A2.055,2.055,0,0,1,91.577,5.3a.64.64,0,0,0-.64.64V24.174a.64.64,0,1,0,1.279,0V21.112C94.728,23.99,99.508,24.451,102.86,23v4.323a2.1,2.1,0,0,1-.62,1.5,18.611,18.611,0,0,0-2.851,2.98H94.8a3.265,3.265,0,0,0-2.587-2.588V26.962a.64.64,0,1,0-1.279,0v2.823a.64.64,0,0,0,.64.64,2,2,0,0,1,2.008,1.951q-.014.495.641.7h4.7a8.2,8.2,0,0,0-.037,1.37H89.568V1.28h7.9A.64.64,0,0,0,97.47,0H88.928a.64.64,0,0,0-.64.64V35.084a.64.64,0,0,0,.64.64h9.959v1.5a3.416,3.416,0,0,0,1.632,2.9,2.116,2.116,0,0,1,1.017,1.808v1.1a.64.64,0,0,0,.64.64h10.6a.64.64,0,0,0,.64-.64V41.082a1.886,1.886,0,0,1,.256-1.009c2.665-4.22,4.485-7.234,2.168-13.537ZM92.217,6.516a3.291,3.291,0,0,0,2.528-2.587h8.177a3.3,3.3,0,0,0,2.588,2.588v8.095c-3.175-3.639-10.117-3.638-13.293,0Zm0,11.346c0-2.569,2.982-4.66,6.646-4.66,2.759,0,7.425,1.8,6.555,5.427a3.3,3.3,0,0,0-2.548,2.942,8.616,8.616,0,0,1-4.008.95c-3.665,0-6.646-2.09-6.646-4.659Z" fill="#53435c"/>
      </g>
    </g>
    <g id="Grupo_1184507" data-name="Grupo 1184507">
      <path id="Trazado_1011460" data-name="Trazado 1011460" d="M22.785,18.657a10.653,10.653,0,0,1-3.612.563,7.351,7.351,0,0,1-3.472-.769,5.265,5.265,0,0,1-2.228-2.188,6.765,6.765,0,0,1-.769-3.274,7.207,7.207,0,0,1,.861-3.551A5.957,5.957,0,0,1,16,7.034a7.512,7.512,0,0,1,3.621-.848,12.586,12.586,0,0,1,3.164.4v3.507A4.465,4.465,0,0,0,21.528,9.6a6.282,6.282,0,0,0-1.477-.176,3.305,3.305,0,0,0-2.439.888,3.245,3.245,0,0,0-.892,2.408,3.189,3.189,0,0,0,.892,2.386A3.261,3.261,0,0,0,20,15.977a6.191,6.191,0,0,0,2.786-.7Zm11.628-4.315a4.687,4.687,0,0,1-1.375,3.577,5.375,5.375,0,0,1-3.845,1.3,5.4,5.4,0,0,1-3.819-1.27,4.546,4.546,0,0,1-1.367-3.5,4.692,4.692,0,0,1,.642-2.487,4.172,4.172,0,0,1,1.828-1.617A6.311,6.311,0,0,1,29.21,9.78a6.113,6.113,0,0,1,2.773.589A4.286,4.286,0,0,1,33.785,12,4.452,4.452,0,0,1,34.413,14.342Zm-3.8.018q0-1.837-1.406-1.837T27.8,14.447q0,2.03,1.424,2.03Q30.616,16.478,30.616,14.359ZM41.646,19V14.087a2.184,2.184,0,0,0-.25-1.2.915.915,0,0,0-.813-.365.88.88,0,0,0-.756.378,1.613,1.613,0,0,0-.272.967V19H35.811V10h3.744v1.406h.035a3.177,3.177,0,0,1,1.2-1.2,3.29,3.29,0,0,1,1.644-.426q2.953,0,2.953,3.727V19ZM53.09,19V17.954h-.035a3.089,3.089,0,0,1-1.169.927,3.331,3.331,0,0,1-1.424.338,3.663,3.663,0,0,1-2.03-.567,3.443,3.443,0,0,1-1.314-1.586,6.106,6.106,0,0,1-.435-2.408,5.925,5.925,0,0,1,.519-2.54A4.059,4.059,0,0,1,48.66,10.4,3.769,3.769,0,0,1,50.77,9.78a3.193,3.193,0,0,1,1.024.158,2.77,2.77,0,0,1,.817.426,1.273,1.273,0,0,1,.444.532h.035V5.676h3.744V19Zm.079-4.772a1.974,1.974,0,0,0-.356-1.257,1.2,1.2,0,0,0-1.951.11,2.593,2.593,0,0,0-.382,1.49q0,1.907,1.318,1.907a1.173,1.173,0,0,0,1-.514,2.531,2.531,0,0,0,.374-1.5ZM62.6,7.574a1.608,1.608,0,0,1-.576,1.283,2.252,2.252,0,0,1-1.516.492,2.2,2.2,0,0,1-1.5-.51,1.612,1.612,0,0,1-.584-1.266,1.561,1.561,0,0,1,.567-1.252,2.639,2.639,0,0,1,3.032,0A1.551,1.551,0,0,1,62.6,7.574ZM58.636,19V10H62.38v9ZM71.6,18.745a3.529,3.529,0,0,1-1.134.343,10.719,10.719,0,0,1-1.784.132,5.488,5.488,0,0,1-2.544-.576A4.2,4.2,0,0,1,64.4,17.031a4.478,4.478,0,0,1-.615-2.329,5.1,5.1,0,0,1,.655-2.65,4.268,4.268,0,0,1,1.868-1.687,6.407,6.407,0,0,1,2.813-.584,9.839,9.839,0,0,1,1.578.114,2.411,2.411,0,0,1,.9.264v2.918a2.6,2.6,0,0,0-.809-.387,3.248,3.248,0,0,0-.976-.167,2.375,2.375,0,0,0-1.666.523,1.9,1.9,0,0,0-.567,1.472,1.868,1.868,0,0,0,.558,1.446,2.177,2.177,0,0,0,1.534.514,3.82,3.82,0,0,0,1.925-.5ZM77.058,7.574a1.608,1.608,0,0,1-.576,1.283,2.252,2.252,0,0,1-1.516.492,2.2,2.2,0,0,1-1.5-.51,1.612,1.612,0,0,1-.584-1.266,1.561,1.561,0,0,1,.567-1.252,2.639,2.639,0,0,1,3.032,0A1.551,1.551,0,0,1,77.058,7.574ZM73.094,19V10h3.744v9ZM88.65,14.342a4.687,4.687,0,0,1-1.375,3.577,6.355,6.355,0,0,1-7.664.031,4.546,4.546,0,0,1-1.367-3.5,4.692,4.692,0,0,1,.642-2.487,4.172,4.172,0,0,1,1.828-1.617,6.311,6.311,0,0,1,2.733-.562,6.113,6.113,0,0,1,2.773.589A4.286,4.286,0,0,1,88.022,12,4.452,4.452,0,0,1,88.65,14.342Zm-3.8.018q0-1.837-1.406-1.837t-1.406,1.925q0,2.03,1.424,2.03Q84.854,16.478,84.854,14.359ZM95.884,19V14.087a2.184,2.184,0,0,0-.25-1.2.915.915,0,0,0-.813-.365.88.88,0,0,0-.756.378,1.613,1.613,0,0,0-.272.967V19H90.048V10h3.744v1.406h.035a3.177,3.177,0,0,1,1.2-1.2,3.29,3.29,0,0,1,1.644-.426q2.953,0,2.953,3.727V19Zm8.657-3.437a1.265,1.265,0,0,0,.668.91,3.012,3.012,0,0,0,1.512.33,6.226,6.226,0,0,0,2.479-.5v2.373a8.908,8.908,0,0,1-3.3.545,5.214,5.214,0,0,1-3.665-1.2,4.277,4.277,0,0,1-1.31-3.313,5.467,5.467,0,0,1,.576-2.558,4.142,4.142,0,0,1,1.705-1.736,5.038,5.038,0,0,1,2.492-.628,4.9,4.9,0,0,1,2.391.545,3.63,3.63,0,0,1,1.507,1.529,4.906,4.906,0,0,1,.514,2.3v1.406Zm2.25-1.96q0-1.556-1.116-1.556a.944.944,0,0,0-.782.426,2.127,2.127,0,0,0-.369,1.129Zm11.918,2.408a2.749,2.749,0,0,1-1.165,2.369,5.474,5.474,0,0,1-3.248.839,11.291,11.291,0,0,1-1.5-.123,9.257,9.257,0,0,1-1.455-.3V16.17a7.162,7.162,0,0,0,2.777.738q1.1,0,1.1-.571a.451.451,0,0,0-.255-.391,9.009,9.009,0,0,0-1.336-.514,3.773,3.773,0,0,1-1.74-1,2.382,2.382,0,0,1-.545-1.626,2.594,2.594,0,0,1,1.112-2.21,5.216,5.216,0,0,1,3.125-.813,9.931,9.931,0,0,1,2.5.343v2.522a7.549,7.549,0,0,0-1.213-.4,4.9,4.9,0,0,0-1.107-.158,1.205,1.205,0,0,0-.589.123.379.379,0,0,0-.22.343.478.478,0,0,0,.237.413,4.2,4.2,0,0,0,.949.378,4.4,4.4,0,0,1,1.978,1.037A2.272,2.272,0,0,1,118.709,16.012ZM131.1,19V17.954h-.035a3.089,3.089,0,0,1-1.169.927,3.331,3.331,0,0,1-1.424.338,3.663,3.663,0,0,1-2.03-.567,3.443,3.443,0,0,1-1.314-1.586,6.106,6.106,0,0,1-.435-2.408,5.925,5.925,0,0,1,.519-2.54,4.059,4.059,0,0,1,1.459-1.723,3.769,3.769,0,0,1,2.109-.615,3.193,3.193,0,0,1,1.024.158,2.77,2.77,0,0,1,.817.426,1.273,1.273,0,0,1,.444.532h.035V5.676h3.744V19Zm.079-4.772a1.974,1.974,0,0,0-.356-1.257,1.2,1.2,0,0,0-1.951.11,2.593,2.593,0,0,0-.382,1.49q0,1.907,1.318,1.907a1.173,1.173,0,0,0,1-.514,2.531,2.531,0,0,0,.374-1.5Zm8.692,1.336a1.265,1.265,0,0,0,.668.91,3.012,3.012,0,0,0,1.512.33,6.226,6.226,0,0,0,2.479-.5v2.373a8.908,8.908,0,0,1-3.3.545,5.214,5.214,0,0,1-3.665-1.2,4.277,4.277,0,0,1-1.31-3.313,5.467,5.467,0,0,1,.576-2.558,4.142,4.142,0,0,1,1.705-1.736,5.038,5.038,0,0,1,2.492-.628,4.9,4.9,0,0,1,2.391.545,3.63,3.63,0,0,1,1.507,1.529,4.906,4.906,0,0,1,.514,2.3v1.406Zm2.25-1.96q0-1.556-1.116-1.556a.944.944,0,0,0-.782.426,2.127,2.127,0,0,0-.369,1.129ZM15.7,34.228a6.4,6.4,0,0,1-.5,2.61A4.046,4.046,0,0,1,13.785,38.6a3.564,3.564,0,0,1-2.057.624,2.755,2.755,0,0,1-2.4-1.151H9.294V43.14H5.55V30H9.294v1.222h.035a3.171,3.171,0,0,1,1.16-1.059,3.364,3.364,0,0,1,1.617-.382,3.215,3.215,0,0,1,2.667,1.16A5.147,5.147,0,0,1,15.7,34.228Zm-3.8.114a2.346,2.346,0,0,0-.33-1.336,1.237,1.237,0,0,0-1.982.026,2.341,2.341,0,0,0-.369,1.4v.176a2.562,2.562,0,0,0,.316,1.362,1.044,1.044,0,0,0,.949.51,1.182,1.182,0,0,0,1.046-.558A2.849,2.849,0,0,0,11.9,34.342ZM22.1,39V37.629h-.035a2.944,2.944,0,0,1-2.742,1.591,2.625,2.625,0,0,1-2-.756,2.808,2.808,0,0,1-.721-2.021q0-2.654,3.261-3.076l2.232-.29a.851.851,0,0,0-.4-.721,1.8,1.8,0,0,0-1.063-.281,7,7,0,0,0-3.19.861V30.5a8.535,8.535,0,0,1,1.828-.519,10.639,10.639,0,0,1,1.881-.2,4.722,4.722,0,0,1,3.327.98,4.368,4.368,0,0,1,1.033,3.274V39Zm-2.215-3.059a.83.83,0,0,0,.233.606.888.888,0,0,0,.664.237,1.18,1.18,0,0,0,.954-.439,1.7,1.7,0,0,0,.365-1.125v-.343l-1.266.176Q19.885,35.212,19.885,35.941Zm17.077,1.8a5.116,5.116,0,0,1-1.63,4.039,6.962,6.962,0,0,1-4.759,1.446,9.93,9.93,0,0,1-1.635-.132,4.5,4.5,0,0,1-1.134-.3V39.861a5.656,5.656,0,0,0,2.663.773,3.122,3.122,0,0,0,2.013-.606,1.959,1.959,0,0,0,.756-1.608v-.554H33.2a2.909,2.909,0,0,1-1.112.984,3.23,3.23,0,0,1-1.516.369,3.4,3.4,0,0,1-2.751-1.208,5.045,5.045,0,0,1-1.011-3.335,5.964,5.964,0,0,1,.527-2.575,4.018,4.018,0,0,1,1.468-1.718,3.769,3.769,0,0,1,2.074-.6,2.6,2.6,0,0,1,2.32,1.151h.035V30h3.727Zm-3.665-3.5a2.02,2.02,0,0,0-.356-1.257A1.13,1.13,0,0,0,32,32.522a1.163,1.163,0,0,0-1.011.563,2.656,2.656,0,0,0-.378,1.5,2.6,2.6,0,0,0,.316,1.38,1.092,1.092,0,0,0,1,.51,1.161,1.161,0,0,0,1.006-.523,2.408,2.408,0,0,0,.365-1.4Zm15.478.1A4.687,4.687,0,0,1,47.4,37.919a5.375,5.375,0,0,1-3.845,1.3,5.4,5.4,0,0,1-3.819-1.27,4.546,4.546,0,0,1-1.367-3.5,4.692,4.692,0,0,1,.642-2.487,4.172,4.172,0,0,1,1.828-1.617,6.311,6.311,0,0,1,2.733-.562,6.113,6.113,0,0,1,2.773.589A4.286,4.286,0,0,1,48.146,32,4.452,4.452,0,0,1,48.774,34.342Zm-3.8.018q0-1.837-1.406-1.837t-1.406,1.925q0,2.03,1.424,2.03Q44.978,36.478,44.978,34.359Zm17.508,1.652a2.749,2.749,0,0,1-1.165,2.369,5.474,5.474,0,0,1-3.248.839,11.291,11.291,0,0,1-1.5-.123,9.257,9.257,0,0,1-1.455-.3V36.17a7.162,7.162,0,0,0,2.777.738q1.1,0,1.1-.571a.451.451,0,0,0-.255-.391,9.009,9.009,0,0,0-1.336-.514,3.773,3.773,0,0,1-1.74-1A2.382,2.382,0,0,1,55.12,32.8a2.594,2.594,0,0,1,1.112-2.21,5.216,5.216,0,0,1,3.125-.813,9.931,9.931,0,0,1,2.5.343v2.522a7.549,7.549,0,0,0-1.213-.4,4.9,4.9,0,0,0-1.107-.158,1.205,1.205,0,0,0-.589.123.379.379,0,0,0-.22.343.478.478,0,0,0,.237.413,4.2,4.2,0,0,0,.949.378,4.4,4.4,0,0,1,1.978,1.037A2.272,2.272,0,0,1,62.485,36.012Zm11.391-1.67A4.687,4.687,0,0,1,72.5,37.919a6.355,6.355,0,0,1-7.664.031,4.546,4.546,0,0,1-1.367-3.5,4.692,4.692,0,0,1,.642-2.487,4.172,4.172,0,0,1,1.828-1.617,6.311,6.311,0,0,1,2.733-.562,6.113,6.113,0,0,1,2.773.589A4.286,4.286,0,0,1,73.248,32,4.452,4.452,0,0,1,73.876,34.342Zm-3.8.018q0-1.837-1.406-1.837t-1.406,1.925q0,2.03,1.424,2.03Q70.079,36.478,70.079,34.359Zm12.507,1.652a2.749,2.749,0,0,1-1.165,2.369,5.474,5.474,0,0,1-3.248.839,11.291,11.291,0,0,1-1.5-.123,9.257,9.257,0,0,1-1.455-.3V36.17A7.162,7.162,0,0,0,78,36.908q1.1,0,1.1-.571a.451.451,0,0,0-.255-.391,9.009,9.009,0,0,0-1.336-.514,3.773,3.773,0,0,1-1.74-1,2.382,2.382,0,0,1-.545-1.626,2.594,2.594,0,0,1,1.112-2.21,5.216,5.216,0,0,1,3.125-.813,9.931,9.931,0,0,1,2.5.343v2.522a7.549,7.549,0,0,0-1.213-.4,4.9,4.9,0,0,0-1.107-.158,1.205,1.205,0,0,0-.589.123.379.379,0,0,0-.22.343.478.478,0,0,0,.237.413,4.2,4.2,0,0,0,.949.378,4.4,4.4,0,0,1,1.978,1.037A2.272,2.272,0,0,1,82.586,36.012ZM90.3,38.877a3.648,3.648,0,0,1-.835.233,7.634,7.634,0,0,1-1.4.11,3.357,3.357,0,0,1-2.448-.861,3.269,3.269,0,0,1-.883-2.452V32.593H83.324V30h1.415V28.233l3.691-1.02V30H90.3v2.593H88.431v2.7q0,1.187.94,1.187a2.551,2.551,0,0,0,.932-.193ZM94.7,35.563a1.265,1.265,0,0,0,.668.91,3.012,3.012,0,0,0,1.512.33,6.226,6.226,0,0,0,2.479-.5v2.373a8.908,8.908,0,0,1-3.3.545,5.214,5.214,0,0,1-3.665-1.2,4.277,4.277,0,0,1-1.31-3.313,5.467,5.467,0,0,1,.576-2.558,4.142,4.142,0,0,1,1.705-1.736,5.038,5.038,0,0,1,2.492-.628,4.9,4.9,0,0,1,2.391.545,3.63,3.63,0,0,1,1.507,1.529,4.906,4.906,0,0,1,.514,2.3v1.406Zm2.25-1.96q0-1.556-1.116-1.556a.944.944,0,0,0-.782.426A2.127,2.127,0,0,0,94.68,33.6ZM107.389,39V34.087a2.184,2.184,0,0,0-.25-1.2.915.915,0,0,0-.813-.365.88.88,0,0,0-.756.378,1.613,1.613,0,0,0-.272.967V39h-3.744V30H105.3v1.406h.035a3.177,3.177,0,0,1,1.2-1.2,3.29,3.29,0,0,1,1.644-.426q2.953,0,2.953,3.727V39Zm9.4-11.426a1.608,1.608,0,0,1-.576,1.283,2.252,2.252,0,0,1-1.516.492,2.2,2.2,0,0,1-1.5-.51,1.612,1.612,0,0,1-.584-1.266,1.561,1.561,0,0,1,.567-1.252,2.639,2.639,0,0,1,3.032,0A1.551,1.551,0,0,1,116.784,27.574ZM112.82,39V30h3.744v9Zm15.7-4.772a6.586,6.586,0,0,1-.488,2.615,3.975,3.975,0,0,1-1.384,1.758,3.486,3.486,0,0,1-2.03.62,3.2,3.2,0,0,1-1.49-.321,2.683,2.683,0,0,1-.98-.831h-.035V39h-3.744V25.676h3.744v5.546h.035a3.083,3.083,0,0,1,1.191-1.055,3.567,3.567,0,0,1,1.657-.387,3.157,3.157,0,0,1,2.615,1.134A5.2,5.2,0,0,1,128.518,34.228Zm-3.8.114a2.234,2.234,0,0,0-.347-1.362,1.25,1.25,0,0,0-1.951.022,1.933,1.933,0,0,0-.382,1.244v.545a2,2,0,0,0,.343,1.23,1.094,1.094,0,0,0,.923.457,1.182,1.182,0,0,0,1.046-.558A2.849,2.849,0,0,0,124.721,34.342Zm5.2,4.658V25.676h3.744V39Zm8.771-3.437a1.265,1.265,0,0,0,.668.91,3.012,3.012,0,0,0,1.512.33,6.226,6.226,0,0,0,2.479-.5v2.373a8.908,8.908,0,0,1-3.3.545,5.214,5.214,0,0,1-3.665-1.2,4.277,4.277,0,0,1-1.31-3.313,5.467,5.467,0,0,1,.576-2.558,4.142,4.142,0,0,1,1.705-1.736,5.038,5.038,0,0,1,2.492-.628,4.9,4.9,0,0,1,2.391.545,3.63,3.63,0,0,1,1.507,1.529,4.906,4.906,0,0,1,.514,2.3v1.406Zm2.25-1.96q0-1.556-1.116-1.556a.944.944,0,0,0-.782.426,2.127,2.127,0,0,0-.369,1.129Zm11.918,2.408A2.749,2.749,0,0,1,151.7,38.38a5.474,5.474,0,0,1-3.248.839,11.291,11.291,0,0,1-1.5-.123,9.257,9.257,0,0,1-1.455-.3V36.17a7.162,7.162,0,0,0,2.777.738q1.1,0,1.1-.571a.451.451,0,0,0-.255-.391,9.009,9.009,0,0,0-1.336-.514,3.773,3.773,0,0,1-1.74-1A2.382,2.382,0,0,1,145.5,32.8a2.594,2.594,0,0,1,1.112-2.21,5.216,5.216,0,0,1,3.125-.813,9.931,9.931,0,0,1,2.5.343v2.522a7.549,7.549,0,0,0-1.213-.4,4.9,4.9,0,0,0-1.107-.158,1.205,1.205,0,0,0-.589.123.379.379,0,0,0-.22.343.478.478,0,0,0,.237.413,4.2,4.2,0,0,0,.949.378,4.4,4.4,0,0,1,1.978,1.037A2.272,2.272,0,0,1,152.863,36.012Z" transform="translate(722.614 7809.878)" fill="#12263f"/>
      <path id="Trazado_1011461" data-name="Trazado 1011461" d="M20.533,10.554a4.1,4.1,0,0,1-.655,2.294A4.267,4.267,0,0,1,18.01,14.4a6.78,6.78,0,0,1-2.821.549h-1.16V19h-3.8V6.4H15.4a6.119,6.119,0,0,1,3.9,1.011A3.83,3.83,0,0,1,20.533,10.554Zm-4.017.132a1.477,1.477,0,0,0-.448-1.169,1.937,1.937,0,0,0-1.318-.4h-.721v3.111h.853Q16.516,12.232,16.516,10.686ZM21.693,19V5.676h3.744V19Zm10.538,0V17.629H32.2a2.944,2.944,0,0,1-2.742,1.591,2.625,2.625,0,0,1-2-.756,2.808,2.808,0,0,1-.721-2.021q0-2.654,3.261-3.076l2.232-.29a.851.851,0,0,0-.4-.721,1.8,1.8,0,0,0-1.063-.281,7,7,0,0,0-3.19.861V10.5a8.535,8.535,0,0,1,1.828-.519,10.639,10.639,0,0,1,1.881-.2,4.722,4.722,0,0,1,3.327.98,4.368,4.368,0,0,1,1.033,3.274V19Zm-2.215-3.059a.83.83,0,0,0,.233.606.888.888,0,0,0,.664.237,1.18,1.18,0,0,0,.954-.439,1.7,1.7,0,0,0,.365-1.125v-.343l-1.266.176Q30.016,15.212,30.016,15.941Zm11.558.466h3.709V19H36.661V17.269L40.7,12.593H37.039V10H45.2v2.127Zm14.933-2.065a4.687,4.687,0,0,1-1.375,3.577,5.375,5.375,0,0,1-3.845,1.3,5.4,5.4,0,0,1-3.819-1.27,4.546,4.546,0,0,1-1.367-3.5,4.692,4.692,0,0,1,.642-2.487,4.172,4.172,0,0,1,1.828-1.617A6.311,6.311,0,0,1,51.3,9.78a6.113,6.113,0,0,1,2.773.589A4.286,4.286,0,0,1,55.878,12,4.452,4.452,0,0,1,56.506,14.342Zm-3.8.018q0-1.837-1.406-1.837T49.9,14.447q0,2.03,1.424,2.03Q52.709,16.478,52.709,14.359Z" transform="translate(629.453 7814)" fill="#12263f"/>
      <path id="Trazado_1011462" data-name="Trazado 1011462" d="M20.44,9.367V19H16.626V9.367H13.1V6.4H24.009V9.367ZM30.17,19V17.629h-.035a2.944,2.944,0,0,1-2.742,1.591,2.625,2.625,0,0,1-2-.756,2.808,2.808,0,0,1-.721-2.021q0-2.654,3.261-3.076l2.232-.29a.851.851,0,0,0-.4-.721,1.8,1.8,0,0,0-1.063-.281,7,7,0,0,0-3.19.861V10.5a8.535,8.535,0,0,1,1.828-.519,10.639,10.639,0,0,1,1.881-.2,4.722,4.722,0,0,1,3.327.98,4.368,4.368,0,0,1,1.033,3.274V19Zm-2.215-3.059a.83.83,0,0,0,.233.606.888.888,0,0,0,.664.237,1.18,1.18,0,0,0,.954-.439,1.7,1.7,0,0,0,.365-1.125v-.343l-1.266.176Q27.955,15.212,27.955,15.941Zm14.634.07a2.749,2.749,0,0,1-1.165,2.369,5.474,5.474,0,0,1-3.248.839,11.291,11.291,0,0,1-1.5-.123,9.257,9.257,0,0,1-1.455-.3V16.17A7.162,7.162,0,0,0,38,16.908q1.1,0,1.1-.571a.451.451,0,0,0-.255-.391,9.009,9.009,0,0,0-1.336-.514,3.773,3.773,0,0,1-1.74-1,2.382,2.382,0,0,1-.545-1.626,2.594,2.594,0,0,1,1.112-2.21A5.216,5.216,0,0,1,39.46,9.78a9.931,9.931,0,0,1,2.5.343v2.522a7.549,7.549,0,0,0-1.213-.4,4.9,4.9,0,0,0-1.107-.158,1.205,1.205,0,0,0-.589.123.379.379,0,0,0-.22.343.478.478,0,0,0,.237.413,4.2,4.2,0,0,0,.949.378,4.4,4.4,0,0,1,1.978,1.037A2.272,2.272,0,0,1,42.589,16.012ZM48.961,19V17.629h-.035a2.944,2.944,0,0,1-2.742,1.591,2.625,2.625,0,0,1-2-.756,2.808,2.808,0,0,1-.721-2.021q0-2.654,3.261-3.076l2.232-.29a.851.851,0,0,0-.4-.721,1.8,1.8,0,0,0-1.063-.281,7,7,0,0,0-3.19.861V10.5a8.535,8.535,0,0,1,1.828-.519,10.639,10.639,0,0,1,1.881-.2,4.722,4.722,0,0,1,3.327.98,4.368,4.368,0,0,1,1.033,3.274V19Zm-2.215-3.059a.83.83,0,0,0,.233.606.888.888,0,0,0,.664.237,1.18,1.18,0,0,0,.954-.439,1.7,1.7,0,0,0,.365-1.125v-.343l-1.266.176Q46.746,15.212,46.746,15.941Z" transform="translate(714.453 7730)" fill="#12263f"/>
      <path id="Trazado_1011463" data-name="Trazado 1011463" d="M17.808,18.657a10.653,10.653,0,0,1-3.612.563,7.351,7.351,0,0,1-3.472-.769A5.265,5.265,0,0,1,8.5,16.262a6.765,6.765,0,0,1-.769-3.274,7.207,7.207,0,0,1,.861-3.551,5.957,5.957,0,0,1,2.435-2.4,7.512,7.512,0,0,1,3.621-.848,12.586,12.586,0,0,1,3.164.4v3.507A4.465,4.465,0,0,0,16.551,9.6a6.282,6.282,0,0,0-1.477-.176,3.305,3.305,0,0,0-2.439.888,3.245,3.245,0,0,0-.892,2.408,3.189,3.189,0,0,0,.892,2.386,3.261,3.261,0,0,0,2.386.875,6.191,6.191,0,0,0,2.786-.7ZM25.156,19V17.611h-.035a4.926,4.926,0,0,1-.839.94,3.23,3.23,0,0,1-.844.483,2.983,2.983,0,0,1-1.094.185,2.722,2.722,0,0,1-2.25-.958,4.429,4.429,0,0,1-.773-2.83V10h3.744v5.15q0,1.327.993,1.327a.972.972,0,0,0,.822-.36,1.642,1.642,0,0,0,.277-1.02V10H28.9v9ZM40.7,14.342a4.687,4.687,0,0,1-1.375,3.577,5.375,5.375,0,0,1-3.845,1.3,5.4,5.4,0,0,1-3.819-1.27,4.546,4.546,0,0,1-1.367-3.5,4.692,4.692,0,0,1,.642-2.487,4.172,4.172,0,0,1,1.828-1.617A6.311,6.311,0,0,1,35.5,9.78a6.113,6.113,0,0,1,2.773.589A4.286,4.286,0,0,1,40.075,12,4.452,4.452,0,0,1,40.7,14.342Zm-3.8.018q0-1.837-1.406-1.837t-1.406,1.925q0,2.03,1.424,2.03Q36.907,16.478,36.907,14.359Zm11.531,4.518a3.648,3.648,0,0,1-.835.233,7.634,7.634,0,0,1-1.4.11,3.357,3.357,0,0,1-2.448-.861,3.269,3.269,0,0,1-.883-2.452V12.593H41.459V10h1.415V8.233l3.691-1.02V10h1.872v2.593H46.566v2.7q0,1.187.94,1.187a2.551,2.551,0,0,0,.932-.193ZM54.6,19V17.629h-.035a2.944,2.944,0,0,1-2.742,1.591,2.625,2.625,0,0,1-2-.756,2.808,2.808,0,0,1-.721-2.021q0-2.654,3.261-3.076l2.232-.29a.851.851,0,0,0-.4-.721,1.8,1.8,0,0,0-1.063-.281,7,7,0,0,0-3.19.861V10.5a8.535,8.535,0,0,1,1.828-.519,10.639,10.639,0,0,1,1.881-.2,4.722,4.722,0,0,1,3.327.98,4.368,4.368,0,0,1,1.033,3.274V19Zm-2.215-3.059a.83.83,0,0,0,.233.606.888.888,0,0,0,.664.237,1.18,1.18,0,0,0,.954-.439,1.7,1.7,0,0,0,.365-1.125v-.343l-1.266.176Q52.384,15.212,52.384,15.941Z" transform="translate(828.453 7730)" fill="#12263f"/>
      <path id="Trazado_1011464" data-name="Trazado 1011464" d="M17.5,18.174a8.127,8.127,0,0,1-2.127.725,12.21,12.21,0,0,1-2.7.321,7.285,7.285,0,0,1-5.115-1.657,5.994,5.994,0,0,1-1.8-4.645,6.92,6.92,0,0,1,.91-3.56A5.9,5.9,0,0,1,9.232,6.994a8.766,8.766,0,0,1,3.894-.809,14.489,14.489,0,0,1,3.507.466V9.965a7.456,7.456,0,0,0-1.67-.549,9.275,9.275,0,0,0-1.749-.154,3.341,3.341,0,0,0-2.492.94,3.52,3.52,0,0,0-.927,2.584,3.609,3.609,0,0,0,.778,2.461,2.739,2.739,0,0,0,2.175.888,4.709,4.709,0,0,0,.958-.07v-1.8H11.289V11.389H17.5ZM24.2,19V17.629h-.035a2.944,2.944,0,0,1-2.742,1.591,2.625,2.625,0,0,1-2-.756,2.808,2.808,0,0,1-.721-2.021q0-2.654,3.261-3.076l2.232-.29a.851.851,0,0,0-.4-.721,1.8,1.8,0,0,0-1.063-.281,7,7,0,0,0-3.19.861V10.5a8.535,8.535,0,0,1,1.828-.519,10.639,10.639,0,0,1,1.881-.2,4.722,4.722,0,0,1,3.327.98,4.368,4.368,0,0,1,1.033,3.274V19Zm-2.215-3.059a.83.83,0,0,0,.233.606.888.888,0,0,0,.664.237,1.18,1.18,0,0,0,.954-.439,1.7,1.7,0,0,0,.365-1.125v-.343l-1.266.176Q21.985,15.212,21.985,15.941Zm14.089-2.733a3.6,3.6,0,0,0-1.169-.255q-1.854,0-1.854,2.145V19H29.307V10h3.744v1.582h.035a2.81,2.81,0,0,1,.976-1.3,2.506,2.506,0,0,1,1.477-.444,1.269,1.269,0,0,1,.536.105ZM42.147,19V17.629h-.035A2.944,2.944,0,0,1,39.37,19.22a2.625,2.625,0,0,1-2-.756,2.808,2.808,0,0,1-.721-2.021q0-2.654,3.261-3.076l2.232-.29a.851.851,0,0,0-.4-.721,1.8,1.8,0,0,0-1.063-.281,7,7,0,0,0-3.19.861V10.5a8.535,8.535,0,0,1,1.828-.519,10.639,10.639,0,0,1,1.881-.2,4.722,4.722,0,0,1,3.327.98,4.368,4.368,0,0,1,1.033,3.274V19Zm-2.215-3.059a.83.83,0,0,0,.233.606.888.888,0,0,0,.664.237,1.18,1.18,0,0,0,.954-.439,1.7,1.7,0,0,0,.365-1.125v-.343l-1.266.176Q39.933,15.212,39.933,15.941ZM53.09,19V14.087a2.184,2.184,0,0,0-.25-1.2.915.915,0,0,0-.813-.365.88.88,0,0,0-.756.378,1.613,1.613,0,0,0-.272.967V19H47.254V10H51v1.406h.035a3.177,3.177,0,0,1,1.2-1.2,3.29,3.29,0,0,1,1.644-.426q2.953,0,2.953,3.727V19Zm11.769-.123a3.648,3.648,0,0,1-.835.233,7.634,7.634,0,0,1-1.4.11,3.357,3.357,0,0,1-2.448-.861,3.269,3.269,0,0,1-.883-2.452V12.593H57.88V10h1.415V8.233l3.691-1.02V10h1.872v2.593H62.986v2.7q0,1.187.94,1.187a2.551,2.551,0,0,0,.932-.193ZM66.027,19V10h3.744v9ZM68.365,8.576H65.72l2.628-2.821h3.146ZM76.565,19V17.629H76.53a2.944,2.944,0,0,1-2.742,1.591,2.625,2.625,0,0,1-2-.756,2.808,2.808,0,0,1-.721-2.021q0-2.654,3.261-3.076l2.232-.29a.851.851,0,0,0-.4-.721,1.8,1.8,0,0,0-1.063-.281,7,7,0,0,0-3.19.861V10.5a8.535,8.535,0,0,1,1.828-.519,10.639,10.639,0,0,1,1.881-.2,4.722,4.722,0,0,1,3.327.98,4.368,4.368,0,0,1,1.033,3.274V19Zm-2.215-3.059a.83.83,0,0,0,.233.606.888.888,0,0,0,.664.237,1.18,1.18,0,0,0,.954-.439,1.7,1.7,0,0,0,.365-1.125v-.343l-1.266.176Q74.351,15.212,74.351,15.941Z" transform="translate(891.453 7814)" fill="#12263f"/>
    </g>
  </g>
</svg>
