<svg xmlns="http://www.w3.org/2000/svg" width="400" height="781" viewBox="0 0 400 781">
  <g id="Grupo_1184509" data-name="Grupo 1184509" transform="translate(5770 4215)">
    <rect id="Rectángulo_458613" data-name="Rectángulo 458613" width="400" height="781" rx="10" transform="translate(-5770 -4215)" fill="#fdf2ef"/>
    <text id="Plazo:_corresponde_al_tiempo_otorgado_para_pagar_la_obligación._Puede_ampliarse_para_reducir_el_valor_de_la_cuota_siempre_que_el_nuevo_periodo_sea_viable_para_la_entidad_y_para_el_deudor._Tasa:_es_el_porcentaje_de_interés_aplicado_al_crédito._En_una_rees" data-name="Plazo: corresponde al tiempo otorgado para pagar la obligación. Puede ampliarse para reducir el valor de la cuota, siempre que el nuevo periodo sea viable para la entidad y para el deudor.

Tasa: es el porcentaje de interés aplicado al crédito. En una rees" transform="translate(-5739 -3943.787)" fill="#12263f" font-size="16" font-family="SegoeUI-Bold, Segoe UI" letter-spacing="0.003em" font-weight="700"><tspan x="0" y="17">Plazo: </tspan><tspan y="17" font-family="SegoeUI, Segoe UI" font-weight="400">corresponde al tiempo otorgado para </tspan><tspan x="0" y="41" font-family="SegoeUI, Segoe UI" font-weight="400">pagar la obligación. Puede ampliarse para </tspan><tspan x="0" y="65" font-family="SegoeUI, Segoe UI" font-weight="400">reducir el valor de la cuota, siempre que el </tspan><tspan x="0" y="89" font-family="SegoeUI, Segoe UI" font-weight="400">nuevo periodo sea viable para la entidad y para </tspan><tspan x="0" y="113" font-family="SegoeUI, Segoe UI" font-weight="400">el deudor.</tspan><tspan font-family="SegoeUI, Segoe UI" font-weight="400"><tspan x="0" y="137"></tspan></tspan><tspan x="0" y="161">Tasa:</tspan><tspan y="161" xml:space="preserve" font-family="SegoeUI, Segoe UI" font-weight="400"> es el porcentaje de interés aplicado al </tspan><tspan x="0" y="185" font-family="SegoeUI, Segoe UI" font-weight="400">crédito. En una reestructuración puede </tspan><tspan x="0" y="209" font-family="SegoeUI, Segoe UI" font-weight="400">revisarse según las políticas institucionales, los </tspan><tspan x="0" y="233" font-family="SegoeUI, Segoe UI" font-weight="400">límites legales y el nivel de riesgo del deudor.</tspan><tspan font-family="SegoeUI, Segoe UI" font-weight="400"><tspan x="0" y="257"></tspan></tspan><tspan x="0" y="281">Cuota:</tspan><tspan y="281" xml:space="preserve" font-family="SegoeUI, Segoe UI" font-weight="400"> es el valor periódico que debe pagar el </tspan><tspan x="0" y="305" font-family="SegoeUI, Segoe UI" font-weight="400">deudor. Debe ajustarse a su capacidad real de </tspan><tspan x="0" y="329" font-family="SegoeUI, Segoe UI" font-weight="400">pago para evitar nuevos incumplimientos.</tspan><tspan font-family="SegoeUI, Segoe UI" font-weight="400"><tspan x="0" y="353"></tspan></tspan><tspan x="0" y="377">Garantía: </tspan><tspan y="377" font-family="SegoeUI, Segoe UI" font-weight="400">es el respaldo que protege la </tspan><tspan x="0" y="401" font-family="SegoeUI, Segoe UI" font-weight="400">obligación. Puede mantenerse, actualizarse o </tspan><tspan x="0" y="425" font-family="SegoeUI, Segoe UI" font-weight="400">reforzarse cuando el nivel de riesgo del crédito </tspan><tspan x="0" y="449" font-family="SegoeUI, Segoe UI" font-weight="400">lo exige.</tspan></text>
    <g id="Grupo_1183413" data-name="Grupo 1183413" transform="translate(-5725.518 -4176.845)">
      <g id="Grupo_1183409" data-name="Grupo 1183409" transform="translate(43.824 0)">
        <path id="Trazado_1009058" data-name="Trazado 1009058" d="M271.364,118.786A153.224,153.224,0,0,0,162.651,163.78L271.364,272.492Z" transform="translate(-158.658 -115.962)" fill="#fbded8"/>
        <path id="Trazado_1009059" data-name="Trazado 1009059" d="M274.7,279.671,159.169,164.141l2-2a155.517,155.517,0,0,1,110.709-45.821H274.7V279.671ZM167.175,164.159,269.05,266.035V122A149.809,149.809,0,0,0,167.175,164.159Z" transform="translate(-159.169 -116.323)" fill="#fff"/>
      </g>
      <g id="Grupo_1183410" data-name="Grupo 1183410" transform="translate(153.705)">
        <path id="Trazado_1009060" data-name="Trazado 1009060" d="M366.175,163.78a153.222,153.222,0,0,0-108.713-44.994V272.492Z" transform="translate(-254.638 -115.962)" fill="#cfa9e6"/>
        <path id="Trazado_1009061" data-name="Trazado 1009061" d="M255,279.671V116.323h2.824a155.516,155.516,0,0,1,110.709,45.821l2,2ZM260.647,122V266.034L362.524,164.158A149.818,149.818,0,0,0,260.647,122Z" transform="translate(-254.999 -116.323)" fill="#fff"/>
      </g>
      <g id="Grupo_1183411" data-name="Grupo 1183411" transform="translate(0 43.823)">
        <path id="Trazado_1009062" data-name="Trazado 1009062" d="M168.406,158.026a153.222,153.222,0,0,0-44.994,108.713H277.118Z" transform="translate(-120.588 -154.031)" fill="#cfa9e6"/>
        <path id="Trazado_1009063" data-name="Trazado 1009063" d="M284.3,270.072H120.949v-2.824a155.526,155.526,0,0,1,45.82-110.709l2-2Zm-157.675-5.647H270.66L168.785,162.549A149.809,149.809,0,0,0,126.623,264.425Z" transform="translate(-120.949 -154.542)" fill="#fff"/>
      </g>
      <g id="Grupo_1183412" data-name="Grupo 1183412" transform="translate(149.711 43.823)">
        <path id="Trazado_1009064" data-name="Trazado 1009064" d="M411.168,266.738a153.224,153.224,0,0,0-44.994-108.713L257.462,266.738Z" transform="translate(-250.644 -154.031)" fill="#fbded8"/>
        <path id="Trazado_1009065" data-name="Trazado 1009065" d="M414.864,270.072H251.516l115.53-115.53,2,2a155.526,155.526,0,0,1,45.82,110.709Zm-149.711-5.647H409.191a149.81,149.81,0,0,0-42.161-101.876Z" transform="translate(-251.516 -154.542)" fill="#fff"/>
      </g>
    </g>
    <path id="Trazado_1009066" data-name="Trazado 1009066" d="M312.174,214.878a65.512,65.512,0,0,0-111.847,46.335H331.351A65.3,65.3,0,0,0,312.174,214.878Z" transform="translate(-5834.828 -4281.529)" fill="#fff"/>
    <g id="Grupo_1183416" data-name="Grupo 1183416" transform="translate(-5737 -4103.231)">
      <circle id="Elipse_16107" data-name="Elipse 16107" cx="27.048" cy="27.048" r="27.048" transform="translate(0 0)" fill="#fff"/>
      <circle id="Elipse_16108" data-name="Elipse 16108" cx="22.882" cy="22.882" r="22.882" transform="translate(4.166 4.166)" fill="#cfa9e6"/>
      <g id="Grupo_1183424" data-name="Grupo 1183424" transform="translate(16.298 16.319)">
        <path id="Trazado_1009067" data-name="Trazado 1009067" d="M246.923,282.654a.423.423,0,0,0-.423.423v2.591a.423.423,0,0,0,.423.423h1.635a.423.423,0,0,0,0-.845h-1.213v-2.168A.423.423,0,0,0,246.923,282.654Z" transform="translate(-236.173 -270.833)" fill="#53435c"/>
        <path id="Trazado_1009068" data-name="Trazado 1009068" d="M19.447,2.554h-1.91v-.5a1.555,1.555,0,0,0-3.11,0v.5H12.3v-.5a1.555,1.555,0,0,0-3.11,0v.5H7.072v-.5a1.556,1.556,0,0,0-3.111,0v.5H2.052A2.052,2.052,0,0,0,0,4.6v5.3a.423.423,0,0,0,.845,0V7.7H20.654v8.865a1.206,1.206,0,0,1-1.207,1.2H16.925a6.635,6.635,0,1,0-12.814-2.43,6.575,6.575,0,0,0,.463,2.43H2.052a1.206,1.206,0,0,1-1.207-1.2V13.754a.423.423,0,0,0-.845,0v2.808A2.052,2.052,0,0,0,2.052,18.61H4.981a6.644,6.644,0,0,0,11.536,0h2.929A2.052,2.052,0,0,0,21.5,16.562V4.6a2.052,2.052,0,0,0-2.052-2.048Zm-8.7,18.558a5.778,5.778,0,1,1,5.793-5.778A5.792,5.792,0,0,1,10.749,21.112Zm4.522-19.06a.71.71,0,0,1,1.42,0V3.9a.71.71,0,0,1-1.42,0Zm-5.232,0a.71.71,0,0,1,1.42,0V3.9a.71.71,0,0,1-1.42,0Zm-5.233,0a.71.71,0,0,1,1.421,0V3.9a.71.71,0,0,1-1.421,0ZM.845,6.851V4.6A1.206,1.206,0,0,1,2.052,3.4H3.961v.5a1.556,1.556,0,0,0,3.111,0V3.4H9.195v.5a1.555,1.555,0,0,0,3.11,0V3.4h2.122v.5a1.555,1.555,0,0,0,3.11,0V3.4h1.91a1.206,1.206,0,0,1,1.206,1.2V6.851Z" transform="translate(0 -0.5)" fill="#53435c"/>
        <path id="Trazado_1009069" data-name="Trazado 1009069" d="M.423,261.59a.423.423,0,0,0,.423-.423v-.008a.423.423,0,1,0-.845,0v.008A.423.423,0,0,0,.423,261.59Z" transform="translate(0 -249.834)" fill="#53435c"/>
        <path id="Trazado_1009070" data-name="Trazado 1009070" d="M150.251,243.038a.423.423,0,1,0-.837.117,4.016,4.016,0,0,1-7.313,2.777,4,4,0,0,1,1.106-5.552,4.048,4.048,0,0,1,4.27-.121.423.423,0,1,0,.428-.729,4.869,4.869,0,0,0-5.167.147,4.852,4.852,0,1,0,7.513,3.361Z" transform="translate(-134.689 -228.873)" fill="#53435c"/>
        <path id="Trazado_1009071" data-name="Trazado 1009071" d="M334.584,286.447a.423.423,0,0,0,.7-.468l0-.007a.423.423,0,1,0-.7.468Z" transform="translate(-320.495 -273.831)" fill="#53435c"/>
      </g>
    </g>
    <g id="Grupo_1183418" data-name="Grupo 1183418" transform="translate(-5456.173 -4103.231)">
      <circle id="Elipse_16110" data-name="Elipse 16110" cx="27.048" cy="27.048" r="27.048" transform="translate(0 0)" fill="#fff"/>
      <circle id="Elipse_16111" data-name="Elipse 16111" cx="22.882" cy="22.882" r="22.882" transform="translate(4.166 4.166)" fill="#fbded8"/>
      <path id="Trazado_1009077" data-name="Trazado 1009077" d="M44.817,37.312a4.655,4.655,0,1,0-4.655,4.655,4.66,4.66,0,0,0,4.655-4.655Zm-4.655,3.8a3.8,3.8,0,1,1,3.8-3.8A3.8,3.8,0,0,1,40.162,41.111Zm7.7,4.74-2.23-3.863c.144-.073.292-.139.438-.2A2.725,2.725,0,0,0,47.69,40.43a2.733,2.733,0,0,0-.191-2.108,4.657,4.657,0,0,1-.3-1.01,4.738,4.738,0,0,1,.3-1.015,2.725,2.725,0,0,0,.19-2.1,2.733,2.733,0,0,0-1.625-1.356,4.658,4.658,0,0,1-.927-.5,4.737,4.737,0,0,1-.5-.931,2.725,2.725,0,0,0-1.353-1.621,2.733,2.733,0,0,0-2.108.191c-.2.075-.39.148-.582.205V25.748a.428.428,0,0,0-.34-.419l-8.367-1.763a.428.428,0,0,0-.176,0L23.34,25.33a.428.428,0,0,0-.34.419v8.164a9.977,9.977,0,0,0,2.633,6.559,10.55,10.55,0,0,0,6.1,3.468.429.429,0,0,0,.066.005.423.423,0,0,0,.066-.005,9.249,9.249,0,0,0,2.033-.567l-1.43,2.477a.428.428,0,0,0,.394.641l2.016-.113.91,1.8a.428.428,0,0,0,.37.235h.012a.428.428,0,0,0,.37-.214l1.913-3.314a7.205,7.205,0,0,0,.7-.24,4.653,4.653,0,0,1,1.01-.3,4.735,4.735,0,0,1,1.015.3,7.191,7.191,0,0,0,.7.238L43.789,48.2a.428.428,0,0,0,.37.214h.012a.428.428,0,0,0,.37-.235l.91-1.8,2.016.113a.428.428,0,0,0,.394-.641ZM31.8,43.084a9.82,9.82,0,0,1-7.939-9.172V26.1L31.8,24.422,39.734,26.1V30.18c-.2-.059-.394-.133-.587-.206a5.087,5.087,0,0,0-1.017-.306V27.744a.428.428,0,0,0-.34-.419L31.883,26.08a.428.428,0,0,0-.176,0L25.8,27.325a.428.428,0,0,0-.34.419v6.169a7.5,7.5,0,0,0,1.883,4.777A8.252,8.252,0,0,0,31.7,41.432a.429.429,0,0,0,.187,0,7.028,7.028,0,0,0,1.17-.375,3.925,3.925,0,0,0,1.2.728c.149.067.294.132.434.2l-.042.074A8.758,8.758,0,0,1,31.8,43.084Zm1.03-6.783a4.653,4.653,0,0,1,.3,1.01,4.739,4.739,0,0,1-.3,1.015,2.829,2.829,0,0,0-.23,2,6.145,6.145,0,0,1-.8.253,7.4,7.4,0,0,1-5.48-6.663V28.091l5.48-1.155,5.48,1.155v1.614a1.921,1.921,0,0,0-.231.079,2.733,2.733,0,0,0-1.356,1.626,4.654,4.654,0,0,1-.5.927,4.733,4.733,0,0,1-.931.5,2.725,2.725,0,0,0-1.621,1.353A2.733,2.733,0,0,0,32.825,36.3Zm3.365,10.787-.679-1.346a.428.428,0,0,0-.406-.234l-1.505.084,1.759-3.047a6.865,6.865,0,0,1,.332.672,2.725,2.725,0,0,0,1.353,1.621,1.893,1.893,0,0,0,.38.113Zm4.02-3.6a.426.426,0,0,0-.1,0,5.224,5.224,0,0,0-1.266.358c-.633.241-1.043.379-1.476.2s-.624-.566-.9-1.181a5.234,5.234,0,0,0-.645-1.152.431.431,0,0,0-.069-.069A5.224,5.224,0,0,0,34.61,41c-.618-.277-1.006-.469-1.185-.9s-.041-.841.2-1.472a5.233,5.233,0,0,0,.359-1.271.426.426,0,0,0,0-.1A5.224,5.224,0,0,0,33.625,36c-.241-.633-.379-1.043-.2-1.476s.566-.624,1.181-.9a5.234,5.234,0,0,0,1.152-.645.425.425,0,0,0,.069-.069,5.227,5.227,0,0,0,.642-1.148c.277-.618.469-1.006.9-1.185a1.052,1.052,0,0,1,.411-.082,3.174,3.174,0,0,1,1.06.281,5.232,5.232,0,0,0,1.271.359.426.426,0,0,0,.1,0,5.224,5.224,0,0,0,1.266-.358c.633-.241,1.043-.379,1.476-.2s.624.566.9,1.181a5.232,5.232,0,0,0,.645,1.152.427.427,0,0,0,.069.069,5.226,5.226,0,0,0,1.148.642c.618.277,1.006.469,1.185.9s.041.841-.2,1.472a5.233,5.233,0,0,0-.359,1.271.426.426,0,0,0,0,.1,5.223,5.223,0,0,0,.358,1.266c.241.633.379,1.043.2,1.476s-.566.624-1.181.9a5.238,5.238,0,0,0-1.152.645.427.427,0,0,0-.069.069,5.227,5.227,0,0,0-.642,1.148c-.277.618-.469,1.006-.9,1.185s-.841.041-1.472-.2a5.23,5.23,0,0,0-1.271-.359Zm5.008,2.018a.428.428,0,0,0-.406.234l-.679,1.346L42.9,44.952a1.9,1.9,0,0,0,.38-.113,2.733,2.733,0,0,0,1.356-1.626,6.866,6.866,0,0,1,.329-.668l1.759,3.047Zm-2.656-9.9a.428.428,0,0,1,0,.6l-2.8,2.8a.428.428,0,0,1-.6,0l-1.4-1.4a.428.428,0,1,1,.6-.6l1.1,1.1,2.5-2.5a.428.428,0,0,1,.6,0Z" transform="translate(-8.411 -8.939)" fill="#53435c"/>
    </g>
    <g id="Grupo_1183419" data-name="Grupo 1183419" transform="translate(-5655.532 -4185.689)">
      <circle id="Elipse_16113" data-name="Elipse 16113" cx="27.048" cy="27.048" r="27.048" transform="translate(0 0)" fill="#fff"/>
      <circle id="Elipse_16114" data-name="Elipse 16114" cx="22.882" cy="22.882" r="22.882" transform="translate(0.801 45.969) rotate(-80.782)" fill="#fbded8"/>
      <path id="Trazado_1009072" data-name="Trazado 1009072" d="M60.774,4.269,57.358.246a.7.7,0,0,0-1.062,0L52.88,4.269a.7.7,0,0,0,.531,1.147h1.143v9.1a8.33,8.33,0,0,0-3.647-2.164V8.423h1.143a.7.7,0,0,0,.531-1.147L49.164,3.252a.7.7,0,0,0-1.062,0L44.687,7.276a.7.7,0,0,0,.531,1.147H46.36v3.931a8.33,8.33,0,0,0-3.647,2.164V11.429h1.143a.7.7,0,0,0,.531-1.147L40.971,6.259a.7.7,0,0,0-1.062,0l-3.416,4.023a.7.7,0,0,0,.531,1.147h1.143v4.836a.946.946,0,0,0,.944.944H40.93a8.324,8.324,0,1,0,15.406,0h1.819a.945.945,0,0,0,.944-.944V5.416h1.143a.7.7,0,0,0,.531-1.147ZM46.809,7.526H45.65l2.984-3.514,2.984,3.514H50.458a.448.448,0,0,0-.448.448v4.178a8.333,8.333,0,0,0-2.753,0V7.974A.448.448,0,0,0,46.809,7.526Zm-7.7,8.787a.049.049,0,0,1-.048-.048V10.981a.448.448,0,0,0-.448-.448H37.456L40.44,7.019l2.984,3.514H42.265a.448.448,0,0,0-.448.448v4.61a8.345,8.345,0,0,0-.453.722Zm9.522,11.476a7.427,7.427,0,1,1,7.427-7.427A7.435,7.435,0,0,1,48.634,27.789ZM58.652,4.519a.448.448,0,0,0-.448.448v11.3a.049.049,0,0,1-.048.048H55.9a8.337,8.337,0,0,0-.453-.722V4.968A.448.448,0,0,0,55,4.519H53.844l2.984-3.514,2.984,3.514ZM51.126,21.408h0a1.937,1.937,0,0,0,0,3.875h0a1.937,1.937,0,0,0,0-3.875Zm.736,2.673a1.034,1.034,0,0,1-.736.305h0a1.041,1.041,0,0,1,0-2.082h0a1.041,1.041,0,0,1,.736,1.777Zm-5.721-4.766a1.937,1.937,0,0,0,0-3.875h0a1.937,1.937,0,0,0,0,3.875ZM45.1,17.379a1.042,1.042,0,0,1,1.041-1.041h0a1.041,1.041,0,0,1,0,2.082h0A1.042,1.042,0,0,1,45.1,17.379Zm6.734-.669-5.581,7.773a.448.448,0,1,1-.728-.523l5.581-7.773a.448.448,0,1,1,.728.523Z" transform="translate(-21.586 12.705)" fill="#53435c"/>
    </g>
    <g id="Grupo_1183421" data-name="Grupo 1183421" transform="translate(-5546.653 -4191)">
      <circle id="Elipse_16116" data-name="Elipse 16116" cx="27.048" cy="27.048" r="27.048" transform="translate(5.599 5.311)" fill="#fff"/>
      <circle id="Elipse_16117" data-name="Elipse 16117" cx="22.882" cy="22.882" r="22.882" transform="translate(0 32.36) rotate(-45)" fill="#cfa9e6"/>
      <g id="Grupo_1183425" data-name="Grupo 1183425" transform="translate(22.842 17.304)">
        <path id="Trazado_1009073" data-name="Trazado 1009073" d="M191.959,311.985a1.36,1.36,0,1,0-1.36,1.36A1.361,1.361,0,0,0,191.959,311.985Zm-1.834,0a.474.474,0,1,1,.474.474A.475.475,0,0,1,190.125,311.985Z" transform="translate(-183.279 -292.285)" fill="#53435c"/>
        <path id="Trazado_1009074" data-name="Trazado 1009074" d="M190.6,64.847a1.36,1.36,0,1,0-1.36-1.36A1.361,1.361,0,0,0,190.6,64.847Zm0-1.834a.474.474,0,1,1-.474.474A.475.475,0,0,1,190.6,63.013Z" transform="translate(-183.279 -58.459)" fill="#53435c"/>
        <path id="Trazado_1009075" data-name="Trazado 1009075" d="M162.846,184.164h.53a.443.443,0,1,0,0-.886h-.538a1.36,1.36,0,0,0-2.706.191v.5a.474.474,0,0,1-.948,0v-.45a.388.388,0,0,1,.275-.369.443.443,0,1,0-.254-.848,1.262,1.262,0,0,0-.883.973h-.547a.443.443,0,0,0,0,.886h.538a1.36,1.36,0,0,0,2.706-.191v-.5a.474.474,0,1,1,.948,0v.568a.383.383,0,0,1-.275.369.443.443,0,0,0,.255.848A1.262,1.262,0,0,0,162.846,184.164Z" transform="translate(-153.256 -171.358)" fill="#53435c"/>
        <path id="Trazado_1009076" data-name="Trazado 1009076" d="M107.357,18.368a.443.443,0,0,0-.558-.284.437.437,0,0,0-.284.558c1.442,3.932.2,5.979-1.437,8.674a2.156,2.156,0,0,0-.285,1.121v.907h-6.45a2.468,2.468,0,0,0-1.13-2.327,1.474,1.474,0,0,1-.7-1.252V23.24a1.456,1.456,0,0,1,.429-1.035l1.634-1.634a2.335,2.335,0,0,0,.688-1.662V15.2a1.4,1.4,0,0,1,1.392-1.476,1.5,1.5,0,0,1,1.391,1.391v3.668a.443.443,0,0,0,.13.313l.917.917a.443.443,0,1,0,.626-.626l-.787-.787v-8.3l1.9,3.171,1.087,3.341a.443.443,0,0,0,.842-.274s-1.127-3.451-1.144-3.48l-2.688-4.48V.443A.443.443,0,0,0,102.486,0H96.573a.443.443,0,0,0,0,.886h5.47V13.314a2.268,2.268,0,0,0-.949-.432V4.111a.443.443,0,0,0-.443-.443A1.392,1.392,0,0,1,99.26,2.277a.443.443,0,0,0-.443-.443H92.349a.443.443,0,0,0-.443.443,1.422,1.422,0,0,1-1.341,1.392.443.443,0,0,0-.443.443V16.732a.443.443,0,0,0,.886,0V14.613c1.738,1.992,5.047,2.311,7.367,1.3v2.992a1.456,1.456,0,0,1-.429,1.036,12.882,12.882,0,0,0-1.974,2.063H92.8a2.26,2.26,0,0,0-1.791-1.792V18.662a.443.443,0,0,0-.886,0v1.954a.443.443,0,0,0,.443.443,1.383,1.383,0,0,1,1.39,1.351q-.01.342.444.483h3.251a5.674,5.674,0,0,0-.025.948h-6.45V.886h5.47a.443.443,0,1,0,0-.886H88.731a.443.443,0,0,0-.443.443V24.284a.443.443,0,0,0,.443.443h6.893v1.038a2.364,2.364,0,0,0,1.13,2.009,1.465,1.465,0,0,1,.7,1.252v.761a.443.443,0,0,0,.443.443h7.336a.443.443,0,0,0,.443-.443v-1.35a1.305,1.305,0,0,1,.177-.7c1.845-2.921,3.1-5.007,1.5-9.37ZM91.007,4.51a2.278,2.278,0,0,0,1.75-1.791h5.66a2.281,2.281,0,0,0,1.791,1.792v5.6a6.547,6.547,0,0,0-9.2,0Zm0,7.854c0-1.778,2.064-3.225,4.6-3.225,1.91,0,5.14,1.247,4.537,3.756a2.282,2.282,0,0,0-1.763,2.037,5.964,5.964,0,0,1-2.774.657c-2.537,0-4.6-1.447-4.6-3.225Z" transform="translate(-88.288 0)" fill="#53435c"/>
      </g>
    </g>
    <g id="Grupo_1184508" data-name="Grupo 1184508">
      <path id="Trazado_1011465" data-name="Trazado 1011465" d="M58.72,18.657a10.653,10.653,0,0,1-3.612.563,7.351,7.351,0,0,1-3.472-.769,5.265,5.265,0,0,1-2.228-2.188,6.765,6.765,0,0,1-.769-3.274A7.207,7.207,0,0,1,49.5,9.438a5.957,5.957,0,0,1,2.435-2.4,7.512,7.512,0,0,1,3.621-.848,12.586,12.586,0,0,1,3.164.4v3.507A4.465,4.465,0,0,0,57.464,9.6a6.282,6.282,0,0,0-1.477-.176,3.305,3.305,0,0,0-2.439.888,3.245,3.245,0,0,0-.892,2.408,3.189,3.189,0,0,0,.892,2.386,3.261,3.261,0,0,0,2.386.875,6.191,6.191,0,0,0,2.786-.7Zm11.628-4.315a4.687,4.687,0,0,1-1.375,3.577,5.375,5.375,0,0,1-3.845,1.3,5.4,5.4,0,0,1-3.819-1.27,4.546,4.546,0,0,1-1.367-3.5,4.692,4.692,0,0,1,.642-2.487,4.172,4.172,0,0,1,1.828-1.617,6.311,6.311,0,0,1,2.733-.562,6.113,6.113,0,0,1,2.773.589A4.286,4.286,0,0,1,69.72,12,4.452,4.452,0,0,1,70.348,14.342Zm-3.8.018q0-1.837-1.406-1.837t-1.406,1.925q0,2.03,1.424,2.03Q66.552,16.478,66.552,14.359ZM77.582,19V14.087a2.184,2.184,0,0,0-.25-1.2.915.915,0,0,0-.813-.365.88.88,0,0,0-.756.378,1.613,1.613,0,0,0-.272.967V19H71.746V10H75.49v1.406h.035a3.177,3.177,0,0,1,1.2-1.2,3.29,3.29,0,0,1,1.644-.426q2.953,0,2.953,3.727V19Zm11.443,0V17.954H88.99a3.089,3.089,0,0,1-1.169.927,3.331,3.331,0,0,1-1.424.338,3.663,3.663,0,0,1-2.03-.567,3.443,3.443,0,0,1-1.314-1.586,6.106,6.106,0,0,1-.435-2.408,5.925,5.925,0,0,1,.519-2.54A4.059,4.059,0,0,1,84.6,10.4,3.769,3.769,0,0,1,86.7,9.78a3.193,3.193,0,0,1,1.024.158,2.77,2.77,0,0,1,.817.426,1.273,1.273,0,0,1,.444.532h.035V5.676h3.744V19Zm.079-4.772a1.974,1.974,0,0,0-.356-1.257,1.2,1.2,0,0,0-1.951.11,2.593,2.593,0,0,0-.382,1.49q0,1.907,1.318,1.907a1.173,1.173,0,0,0,1-.514,2.531,2.531,0,0,0,.374-1.5Zm9.431-6.653a1.608,1.608,0,0,1-.576,1.283,2.252,2.252,0,0,1-1.516.492,2.2,2.2,0,0,1-1.5-.51,1.612,1.612,0,0,1-.584-1.266,1.561,1.561,0,0,1,.567-1.252,2.639,2.639,0,0,1,3.032,0A1.551,1.551,0,0,1,98.535,7.574ZM94.571,19V10h3.744v9Zm12.964-.255a3.529,3.529,0,0,1-1.134.343,10.719,10.719,0,0,1-1.784.132,5.488,5.488,0,0,1-2.544-.576,4.2,4.2,0,0,1-1.736-1.613,4.478,4.478,0,0,1-.615-2.329,5.1,5.1,0,0,1,.655-2.65,4.268,4.268,0,0,1,1.868-1.687,6.407,6.407,0,0,1,2.813-.584,9.839,9.839,0,0,1,1.578.114,2.411,2.411,0,0,1,.9.264v2.918a2.6,2.6,0,0,0-.809-.387,3.248,3.248,0,0,0-.976-.167,2.375,2.375,0,0,0-1.666.523,1.9,1.9,0,0,0-.567,1.472,1.868,1.868,0,0,0,.558,1.446,2.177,2.177,0,0,0,1.534.514,3.82,3.82,0,0,0,1.925-.5Zm5.458-11.171a1.608,1.608,0,0,1-.576,1.283,2.252,2.252,0,0,1-1.516.492,2.2,2.2,0,0,1-1.5-.51,1.612,1.612,0,0,1-.584-1.266,1.561,1.561,0,0,1,.567-1.252,2.639,2.639,0,0,1,3.032,0A1.551,1.551,0,0,1,112.993,7.574ZM109.029,19V10h3.744v9Zm15.557-4.658a4.687,4.687,0,0,1-1.375,3.577,6.355,6.355,0,0,1-7.664.031,4.546,4.546,0,0,1-1.367-3.5,4.692,4.692,0,0,1,.642-2.487,4.172,4.172,0,0,1,1.828-1.617,6.311,6.311,0,0,1,2.733-.562,6.113,6.113,0,0,1,2.773.589,4.286,4.286,0,0,1,1.8,1.635A4.452,4.452,0,0,1,124.586,14.342Zm-3.8.018q0-1.837-1.406-1.837t-1.406,1.925q0,2.03,1.424,2.03Q120.789,16.478,120.789,14.359ZM131.819,19V14.087a2.184,2.184,0,0,0-.25-1.2.915.915,0,0,0-.813-.365A.88.88,0,0,0,130,12.9a1.613,1.613,0,0,0-.272.967V19h-3.744V10h3.744v1.406h.035a3.177,3.177,0,0,1,1.2-1.2,3.29,3.29,0,0,1,1.644-.426q2.953,0,2.953,3.727V19Zm8.657-3.437a1.265,1.265,0,0,0,.668.91,3.012,3.012,0,0,0,1.512.33,6.226,6.226,0,0,0,2.479-.5v2.373a8.908,8.908,0,0,1-3.3.545,5.214,5.214,0,0,1-3.665-1.2,4.277,4.277,0,0,1-1.31-3.313,5.467,5.467,0,0,1,.576-2.558,4.142,4.142,0,0,1,1.705-1.736,5.038,5.038,0,0,1,2.492-.628,4.9,4.9,0,0,1,2.391.545,3.63,3.63,0,0,1,1.507,1.529,4.906,4.906,0,0,1,.514,2.3v1.406Zm2.25-1.96q0-1.556-1.116-1.556a.944.944,0,0,0-.782.426,2.127,2.127,0,0,0-.369,1.129Zm11.918,2.408a2.749,2.749,0,0,1-1.165,2.369,5.474,5.474,0,0,1-3.248.839,11.291,11.291,0,0,1-1.5-.123,9.257,9.257,0,0,1-1.455-.3V16.17a7.162,7.162,0,0,0,2.777.738q1.1,0,1.1-.571a.451.451,0,0,0-.255-.391,9.009,9.009,0,0,0-1.336-.514,3.773,3.773,0,0,1-1.74-1,2.382,2.382,0,0,1-.545-1.626,2.594,2.594,0,0,1,1.112-2.21,5.216,5.216,0,0,1,3.125-.813,9.931,9.931,0,0,1,2.5.343v2.522a7.549,7.549,0,0,0-1.213-.4,4.9,4.9,0,0,0-1.107-.158,1.205,1.205,0,0,0-.589.123.379.379,0,0,0-.22.343.478.478,0,0,0,.237.413,4.2,4.2,0,0,0,.949.378,4.4,4.4,0,0,1,1.978,1.037A2.272,2.272,0,0,1,154.644,16.012ZM167.037,19V17.954H167a3.089,3.089,0,0,1-1.169.927,3.331,3.331,0,0,1-1.424.338,3.663,3.663,0,0,1-2.03-.567,3.443,3.443,0,0,1-1.314-1.586,6.106,6.106,0,0,1-.435-2.408,5.925,5.925,0,0,1,.519-2.54,4.059,4.059,0,0,1,1.459-1.723,3.769,3.769,0,0,1,2.109-.615,3.193,3.193,0,0,1,1.024.158,2.77,2.77,0,0,1,.817.426A1.273,1.273,0,0,1,167,10.9h.035V5.676h3.744V19Zm.079-4.772a1.974,1.974,0,0,0-.356-1.257,1.2,1.2,0,0,0-1.951.11,2.593,2.593,0,0,0-.382,1.49q0,1.907,1.318,1.907a1.173,1.173,0,0,0,1-.514,2.531,2.531,0,0,0,.374-1.5Zm8.692,1.336a1.265,1.265,0,0,0,.668.91,3.012,3.012,0,0,0,1.512.33,6.226,6.226,0,0,0,2.479-.5v2.373a8.908,8.908,0,0,1-3.3.545,5.214,5.214,0,0,1-3.665-1.2,4.277,4.277,0,0,1-1.31-3.313,5.467,5.467,0,0,1,.576-2.558,4.142,4.142,0,0,1,1.705-1.736,5.038,5.038,0,0,1,2.492-.628,4.9,4.9,0,0,1,2.391.545,3.63,3.63,0,0,1,1.507,1.529,4.906,4.906,0,0,1,.514,2.3v1.406Zm2.25-1.96q0-1.556-1.116-1.556a.944.944,0,0,0-.782.426,2.127,2.127,0,0,0-.369,1.129Zm19.758.624a6.4,6.4,0,0,1-.5,2.61A4.046,4.046,0,0,1,195.9,18.6a3.564,3.564,0,0,1-2.057.624,2.755,2.755,0,0,1-2.4-1.151h-.035V23.14h-3.744V10h3.744v1.222h.035a3.171,3.171,0,0,1,1.16-1.059,3.364,3.364,0,0,1,1.617-.382,3.215,3.215,0,0,1,2.667,1.16A5.147,5.147,0,0,1,197.816,14.228Zm-3.8.114a2.346,2.346,0,0,0-.33-1.336,1.237,1.237,0,0,0-1.982.026,2.341,2.341,0,0,0-.369,1.4v.176a2.562,2.562,0,0,0,.316,1.362,1.044,1.044,0,0,0,.949.51,1.182,1.182,0,0,0,1.046-.558A2.849,2.849,0,0,0,194.019,14.342ZM204.215,19V17.629h-.035a2.944,2.944,0,0,1-2.742,1.591,2.625,2.625,0,0,1-2-.756,2.808,2.808,0,0,1-.721-2.021q0-2.654,3.261-3.076l2.232-.29a.851.851,0,0,0-.4-.721,1.8,1.8,0,0,0-1.063-.281,7,7,0,0,0-3.19.861V10.5a8.535,8.535,0,0,1,1.828-.519,10.639,10.639,0,0,1,1.881-.2,4.722,4.722,0,0,1,3.327.98,4.368,4.368,0,0,1,1.033,3.274V19ZM202,15.941a.83.83,0,0,0,.233.606.888.888,0,0,0,.664.237,1.18,1.18,0,0,0,.954-.439,1.7,1.7,0,0,0,.365-1.125v-.343l-1.266.176Q202,15.212,202,15.941Zm17.077,1.8a5.116,5.116,0,0,1-1.63,4.039,6.962,6.962,0,0,1-4.759,1.446,9.93,9.93,0,0,1-1.635-.132,4.5,4.5,0,0,1-1.134-.3V19.861a5.656,5.656,0,0,0,2.663.773,3.122,3.122,0,0,0,2.013-.606,1.959,1.959,0,0,0,.756-1.608v-.554h-.035a2.909,2.909,0,0,1-1.112.984,3.23,3.23,0,0,1-1.516.369,3.4,3.4,0,0,1-2.751-1.208,5.045,5.045,0,0,1-1.011-3.335,5.964,5.964,0,0,1,.527-2.575,4.018,4.018,0,0,1,1.468-1.718,3.769,3.769,0,0,1,2.074-.6,2.6,2.6,0,0,1,2.32,1.151h.035V10h3.727Zm-3.665-3.5a2.02,2.02,0,0,0-.356-1.257,1.13,1.13,0,0,0-.945-.466,1.163,1.163,0,0,0-1.011.563,2.656,2.656,0,0,0-.378,1.5,2.6,2.6,0,0,0,.316,1.38,1.092,1.092,0,0,0,1,.51,1.161,1.161,0,0,0,1.006-.523,2.408,2.408,0,0,0,.365-1.4Zm15.478.1a4.687,4.687,0,0,1-1.375,3.577,6.355,6.355,0,0,1-7.664.031,4.546,4.546,0,0,1-1.367-3.5,4.692,4.692,0,0,1,.642-2.487,4.172,4.172,0,0,1,1.828-1.617,6.311,6.311,0,0,1,2.733-.562,6.113,6.113,0,0,1,2.773.589,4.286,4.286,0,0,1,1.8,1.635A4.452,4.452,0,0,1,230.889,14.342Zm-3.8.018q0-1.837-1.406-1.837t-1.406,1.925q0,2.03,1.424,2.03Q227.093,16.478,227.093,14.359ZM98.421,36.012a2.749,2.749,0,0,1-1.165,2.369,5.474,5.474,0,0,1-3.248.839,11.291,11.291,0,0,1-1.5-.123,9.257,9.257,0,0,1-1.455-.3V36.17a7.162,7.162,0,0,0,2.777.738q1.1,0,1.1-.571a.451.451,0,0,0-.255-.391,9.009,9.009,0,0,0-1.336-.514,3.773,3.773,0,0,1-1.74-1,2.382,2.382,0,0,1-.545-1.626,2.594,2.594,0,0,1,1.112-2.21,5.216,5.216,0,0,1,3.125-.813,9.931,9.931,0,0,1,2.5.343v2.522a7.549,7.549,0,0,0-1.213-.4,4.9,4.9,0,0,0-1.107-.158,1.205,1.205,0,0,0-.589.123.379.379,0,0,0-.22.343.478.478,0,0,0,.237.413,4.2,4.2,0,0,0,.949.378,4.4,4.4,0,0,1,1.978,1.037A2.272,2.272,0,0,1,98.421,36.012Zm11.391-1.67a4.687,4.687,0,0,1-1.375,3.577,6.355,6.355,0,0,1-7.664.031,4.546,4.546,0,0,1-1.367-3.5,4.692,4.692,0,0,1,.642-2.487,4.172,4.172,0,0,1,1.828-1.617,6.311,6.311,0,0,1,2.733-.562,6.113,6.113,0,0,1,2.773.589,4.286,4.286,0,0,1,1.8,1.635A4.452,4.452,0,0,1,109.811,34.342Zm-3.8.018q0-1.837-1.406-1.837T103.2,34.447q0,2.03,1.424,2.03Q106.014,36.478,106.014,34.359Zm12.507,1.652a2.749,2.749,0,0,1-1.165,2.369,5.474,5.474,0,0,1-3.248.839,11.291,11.291,0,0,1-1.5-.123,9.257,9.257,0,0,1-1.455-.3V36.17a7.162,7.162,0,0,0,2.777.738q1.1,0,1.1-.571a.451.451,0,0,0-.255-.391,9.009,9.009,0,0,0-1.336-.514,3.773,3.773,0,0,1-1.74-1,2.382,2.382,0,0,1-.545-1.626,2.594,2.594,0,0,1,1.112-2.21,5.216,5.216,0,0,1,3.125-.813,9.931,9.931,0,0,1,2.5.343v2.522a7.549,7.549,0,0,0-1.213-.4,4.9,4.9,0,0,0-1.107-.158,1.205,1.205,0,0,0-.589.123.379.379,0,0,0-.22.343.478.478,0,0,0,.237.413,4.2,4.2,0,0,0,.949.378,4.4,4.4,0,0,1,1.978,1.037A2.272,2.272,0,0,1,118.521,36.012Zm7.717,2.865a3.648,3.648,0,0,1-.835.233,7.634,7.634,0,0,1-1.4.11,3.357,3.357,0,0,1-2.448-.861,3.269,3.269,0,0,1-.883-2.452V32.593H119.26V30h1.415V28.233l3.691-1.02V30h1.872v2.593h-1.872v2.7q0,1.187.94,1.187a2.551,2.551,0,0,0,.932-.193Zm4.395-3.313a1.265,1.265,0,0,0,.668.91,3.012,3.012,0,0,0,1.512.33,6.226,6.226,0,0,0,2.479-.5v2.373a8.908,8.908,0,0,1-3.3.545,5.214,5.214,0,0,1-3.665-1.2,4.277,4.277,0,0,1-1.31-3.313,5.467,5.467,0,0,1,.576-2.558,4.142,4.142,0,0,1,1.705-1.736,5.038,5.038,0,0,1,2.492-.628,4.9,4.9,0,0,1,2.391.545,3.63,3.63,0,0,1,1.507,1.529,4.906,4.906,0,0,1,.514,2.3v1.406Zm2.25-1.96q0-1.556-1.116-1.556a.944.944,0,0,0-.782.426,2.127,2.127,0,0,0-.369,1.129ZM143.324,39V34.087a2.184,2.184,0,0,0-.25-1.2.915.915,0,0,0-.813-.365.88.88,0,0,0-.756.378,1.613,1.613,0,0,0-.272.967V39h-3.744V30h3.744v1.406h.035a3.177,3.177,0,0,1,1.2-1.2,3.29,3.29,0,0,1,1.644-.426q2.953,0,2.953,3.727V39Zm9.4-11.426a1.608,1.608,0,0,1-.576,1.283,2.252,2.252,0,0,1-1.516.492,2.2,2.2,0,0,1-1.5-.51,1.612,1.612,0,0,1-.584-1.266,1.561,1.561,0,0,1,.567-1.252,2.639,2.639,0,0,1,3.032,0A1.551,1.551,0,0,1,152.719,27.574ZM148.756,39V30H152.5v9Zm15.7-4.772a6.586,6.586,0,0,1-.488,2.615,3.975,3.975,0,0,1-1.384,1.758,3.486,3.486,0,0,1-2.03.62,3.2,3.2,0,0,1-1.49-.321,2.683,2.683,0,0,1-.98-.831h-.035V39H154.3V25.676h3.744v5.546h.035a3.083,3.083,0,0,1,1.191-1.055,3.567,3.567,0,0,1,1.657-.387,3.157,3.157,0,0,1,2.615,1.134A5.2,5.2,0,0,1,164.453,34.228Zm-3.8.114a2.234,2.234,0,0,0-.347-1.362,1.25,1.25,0,0,0-1.951.022,1.933,1.933,0,0,0-.382,1.244v.545a2,2,0,0,0,.343,1.23,1.094,1.094,0,0,0,.923.457,1.182,1.182,0,0,0,1.046-.558A2.849,2.849,0,0,0,160.656,34.342Zm5.2,4.658V25.676H169.6V39Zm8.771-3.437a1.265,1.265,0,0,0,.668.91,3.012,3.012,0,0,0,1.512.33,6.226,6.226,0,0,0,2.479-.5v2.373a8.908,8.908,0,0,1-3.3.545,5.214,5.214,0,0,1-3.665-1.2,4.277,4.277,0,0,1-1.31-3.313,5.467,5.467,0,0,1,.576-2.558,4.142,4.142,0,0,1,1.705-1.736,5.038,5.038,0,0,1,2.492-.628,4.9,4.9,0,0,1,2.391.545,3.63,3.63,0,0,1,1.507,1.529,4.906,4.906,0,0,1,.514,2.3v1.406Zm2.25-1.96q0-1.556-1.116-1.556a.944.944,0,0,0-.782.426,2.127,2.127,0,0,0-.369,1.129ZM188.8,36.012a2.749,2.749,0,0,1-1.165,2.369,5.474,5.474,0,0,1-3.248.839,11.291,11.291,0,0,1-1.5-.123,9.257,9.257,0,0,1-1.455-.3V36.17a7.162,7.162,0,0,0,2.777.738q1.1,0,1.1-.571a.451.451,0,0,0-.255-.391,9.009,9.009,0,0,0-1.336-.514,3.773,3.773,0,0,1-1.74-1,2.382,2.382,0,0,1-.545-1.626,2.594,2.594,0,0,1,1.112-2.21,5.216,5.216,0,0,1,3.125-.813,9.931,9.931,0,0,1,2.5.343v2.522a7.549,7.549,0,0,0-1.213-.4,4.9,4.9,0,0,0-1.107-.158,1.205,1.205,0,0,0-.589.123.379.379,0,0,0-.22.343.478.478,0,0,0,.237.413,4.2,4.2,0,0,0,.949.378,4.4,4.4,0,0,1,1.978,1.037A2.272,2.272,0,0,1,188.8,36.012Z" transform="translate(-5708.62 -4003.419)" fill="#12263f"/>
      <path id="Trazado_1011466" data-name="Trazado 1011466" d="M11.918,9.492a3.644,3.644,0,0,1-.582,2.039,3.793,3.793,0,0,1-1.66,1.379,6.027,6.027,0,0,1-2.508.488H6.137V17H2.762V5.8H7.355a5.439,5.439,0,0,1,3.465.9A3.4,3.4,0,0,1,11.918,9.492Zm-3.57.117a1.313,1.313,0,0,0-.4-1.039,1.722,1.722,0,0,0-1.172-.352H6.137v2.766h.758Q8.348,10.984,8.348,9.609ZM12.949,17V5.156h3.328V17Zm9.367,0V15.781h-.031A2.617,2.617,0,0,1,19.848,17.2a2.334,2.334,0,0,1-1.773-.672,2.5,2.5,0,0,1-.641-1.8q0-2.359,2.9-2.734l1.984-.258a.757.757,0,0,0-.352-.641,1.6,1.6,0,0,0-.945-.25,6.226,6.226,0,0,0-2.836.766V9.445a7.587,7.587,0,0,1,1.625-.461A9.457,9.457,0,0,1,21.48,8.8a4.2,4.2,0,0,1,2.957.871,3.883,3.883,0,0,1,.918,2.91V17Zm-1.969-2.719a.737.737,0,0,0,.207.539.789.789,0,0,0,.59.211,1.049,1.049,0,0,0,.848-.391,1.513,1.513,0,0,0,.324-1v-.3l-1.125.156Q20.348,13.633,20.348,14.281Zm10.273.414h3.3V17H26.254V15.461L29.848,11.3H26.59V9h7.258v1.891Zm13.273-1.836a4.166,4.166,0,0,1-1.223,3.18A4.778,4.778,0,0,1,39.254,17.2a4.8,4.8,0,0,1-3.395-1.129,4.041,4.041,0,0,1-1.215-3.113,4.171,4.171,0,0,1,.57-2.211A3.709,3.709,0,0,1,36.84,9.3a5.61,5.61,0,0,1,2.43-.5,5.434,5.434,0,0,1,2.465.523,3.81,3.81,0,0,1,1.6,1.453A3.957,3.957,0,0,1,43.895,12.859Zm-3.375.016q0-1.633-1.25-1.633t-1.25,1.711q0,1.8,1.266,1.8Q40.52,14.758,40.52,12.875Z" transform="translate(-5688 -4053)" fill="#12263f"/>
      <path id="Trazado_1011467" data-name="Trazado 1011467" d="M11.836,8.438V17H8.445V8.438H5.313V5.8h9.7V8.438ZM20.484,17V15.781h-.031A2.617,2.617,0,0,1,18.016,17.2a2.334,2.334,0,0,1-1.773-.672,2.5,2.5,0,0,1-.641-1.8q0-2.359,2.9-2.734l1.984-.258a.757.757,0,0,0-.352-.641,1.6,1.6,0,0,0-.945-.25,6.226,6.226,0,0,0-2.836.766V9.445a7.587,7.587,0,0,1,1.625-.461,9.457,9.457,0,0,1,1.672-.18,4.2,4.2,0,0,1,2.957.871,3.883,3.883,0,0,1,.918,2.91V17Zm-1.969-2.719a.737.737,0,0,0,.207.539.789.789,0,0,0,.59.211,1.049,1.049,0,0,0,.848-.391,1.513,1.513,0,0,0,.324-1v-.3l-1.125.156Q18.516,13.633,18.516,14.281Zm13.008.063a2.444,2.444,0,0,1-1.035,2.105A4.866,4.866,0,0,1,27.6,17.2a10.037,10.037,0,0,1-1.332-.109,8.229,8.229,0,0,1-1.293-.266V14.484a6.366,6.366,0,0,0,2.469.656q.977,0,.977-.508a.4.4,0,0,0-.227-.348,8.008,8.008,0,0,0-1.187-.457,3.353,3.353,0,0,1-1.547-.891,2.118,2.118,0,0,1-.484-1.445,2.306,2.306,0,0,1,.988-1.965A4.637,4.637,0,0,1,28.742,8.8a8.828,8.828,0,0,1,2.219.3v2.242A6.71,6.71,0,0,0,29.883,11a4.355,4.355,0,0,0-.984-.141,1.072,1.072,0,0,0-.523.109.336.336,0,0,0-.2.3.425.425,0,0,0,.211.367,3.731,3.731,0,0,0,.844.336,3.915,3.915,0,0,1,1.758.922A2.02,2.02,0,0,1,31.523,14.344ZM37.188,17V15.781h-.031A2.617,2.617,0,0,1,34.719,17.2a2.334,2.334,0,0,1-1.773-.672,2.5,2.5,0,0,1-.641-1.8q0-2.359,2.9-2.734l1.984-.258a.757.757,0,0,0-.352-.641,1.6,1.6,0,0,0-.945-.25,6.226,6.226,0,0,0-2.836.766V9.445a7.587,7.587,0,0,1,1.625-.461,9.457,9.457,0,0,1,1.672-.18,4.2,4.2,0,0,1,2.957.871,3.883,3.883,0,0,1,.918,2.91V17Zm-1.969-2.719a.737.737,0,0,0,.207.539.789.789,0,0,0,.59.211,1.049,1.049,0,0,0,.848-.391,1.513,1.513,0,0,0,.324-1v-.3l-1.125.156Q35.219,13.633,35.219,14.281Z" transform="translate(-5629 -4111)" fill="#12263f"/>
      <path id="Trazado_1011468" data-name="Trazado 1011468" d="M14.5,16.7a9.469,9.469,0,0,1-3.211.5A6.534,6.534,0,0,1,8.2,16.512a4.68,4.68,0,0,1-1.98-1.945,6.013,6.013,0,0,1-.684-2.91A6.406,6.406,0,0,1,6.3,8.5,5.3,5.3,0,0,1,8.465,6.363a6.677,6.677,0,0,1,3.219-.754,11.187,11.187,0,0,1,2.813.352V9.078a3.969,3.969,0,0,0-1.117-.437,5.584,5.584,0,0,0-1.312-.156A2.938,2.938,0,0,0,9.9,9.273a2.884,2.884,0,0,0-.793,2.141A2.834,2.834,0,0,0,9.9,13.535a2.9,2.9,0,0,0,2.121.777,5.5,5.5,0,0,0,2.477-.625Zm6.531.3V15.766H21a4.379,4.379,0,0,1-.746.836,2.871,2.871,0,0,1-.75.43,2.652,2.652,0,0,1-.973.164,2.42,2.42,0,0,1-2-.852,3.937,3.937,0,0,1-.687-2.516V9h3.328v4.578q0,1.18.883,1.18a.864.864,0,0,0,.73-.32,1.46,1.46,0,0,0,.246-.906V9h3.328v8Zm13.82-4.141a4.166,4.166,0,0,1-1.223,3.18A4.778,4.778,0,0,1,30.207,17.2a4.8,4.8,0,0,1-3.395-1.129A4.041,4.041,0,0,1,25.6,12.953a4.171,4.171,0,0,1,.57-2.211A3.709,3.709,0,0,1,27.793,9.3a5.61,5.61,0,0,1,2.43-.5,5.434,5.434,0,0,1,2.465.523,3.81,3.81,0,0,1,1.6,1.453A3.957,3.957,0,0,1,34.848,12.859Zm-3.375.016q0-1.633-1.25-1.633t-1.25,1.711q0,1.8,1.266,1.8Q31.473,14.758,31.473,12.875Zm10.25,4.016a3.242,3.242,0,0,1-.742.207,6.786,6.786,0,0,1-1.242.1,2.984,2.984,0,0,1-2.176-.766,2.906,2.906,0,0,1-.785-2.18V11.3H35.52V9h1.258V7.43l3.281-.906V9h1.664v2.3H40.059v2.4q0,1.055.836,1.055a2.268,2.268,0,0,0,.828-.172ZM47.2,17V15.781h-.031A2.617,2.617,0,0,1,44.73,17.2a2.334,2.334,0,0,1-1.773-.672,2.5,2.5,0,0,1-.641-1.8q0-2.359,2.9-2.734l1.984-.258a.757.757,0,0,0-.352-.641,1.6,1.6,0,0,0-.945-.25,6.226,6.226,0,0,0-2.836.766V9.445a7.587,7.587,0,0,1,1.625-.461,9.457,9.457,0,0,1,1.672-.18,4.2,4.2,0,0,1,2.957.871,3.883,3.883,0,0,1,.918,2.91V17ZM45.23,14.281a.737.737,0,0,0,.207.539.789.789,0,0,0,.59.211,1.049,1.049,0,0,0,.848-.391,1.513,1.513,0,0,0,.324-1v-.3l-1.125.156Q45.23,13.633,45.23,14.281Z" transform="translate(-5555 -4111)" fill="#12263f"/>
      <path id="Trazado_1011469" data-name="Trazado 1011469" d="M17.336,16.266a7.224,7.224,0,0,1-1.891.645,10.854,10.854,0,0,1-2.4.285A6.476,6.476,0,0,1,8.5,15.723a5.328,5.328,0,0,1-1.6-4.129A6.151,6.151,0,0,1,7.707,8.43a5.248,5.248,0,0,1,2.277-2.1,7.792,7.792,0,0,1,3.461-.719,12.879,12.879,0,0,1,3.117.414V8.969a6.628,6.628,0,0,0-1.484-.488,8.245,8.245,0,0,0-1.555-.137,2.97,2.97,0,0,0-2.215.836,3.129,3.129,0,0,0-.824,2.3,3.208,3.208,0,0,0,.691,2.188,2.435,2.435,0,0,0,1.934.789,4.186,4.186,0,0,0,.852-.062v-1.6H11.813V10.234h5.523ZM23.289,17V15.781h-.031A2.617,2.617,0,0,1,20.82,17.2a2.334,2.334,0,0,1-1.773-.672,2.5,2.5,0,0,1-.641-1.8q0-2.359,2.9-2.734l1.984-.258a.757.757,0,0,0-.352-.641,1.6,1.6,0,0,0-.945-.25,6.226,6.226,0,0,0-2.836.766V9.445a7.587,7.587,0,0,1,1.625-.461,9.457,9.457,0,0,1,1.672-.18,4.2,4.2,0,0,1,2.957.871,3.883,3.883,0,0,1,.918,2.91V17ZM21.32,14.281a.737.737,0,0,0,.207.539.789.789,0,0,0,.59.211,1.049,1.049,0,0,0,.848-.391,1.513,1.513,0,0,0,.324-1v-.3l-1.125.156Q21.32,13.633,21.32,14.281Zm12.523-2.43a3.2,3.2,0,0,0-1.039-.227q-1.648,0-1.648,1.906V17H27.828V9h3.328v1.406h.031a2.5,2.5,0,0,1,.867-1.152,2.228,2.228,0,0,1,1.313-.395,1.128,1.128,0,0,1,.477.094ZM39.242,17V15.781h-.031A2.617,2.617,0,0,1,36.773,17.2,2.334,2.334,0,0,1,35,16.523a2.5,2.5,0,0,1-.641-1.8q0-2.359,2.9-2.734l1.984-.258a.757.757,0,0,0-.352-.641,1.6,1.6,0,0,0-.945-.25,6.226,6.226,0,0,0-2.836.766V9.445a7.587,7.587,0,0,1,1.625-.461,9.457,9.457,0,0,1,1.672-.18,4.2,4.2,0,0,1,2.957.871,3.883,3.883,0,0,1,.918,2.91V17Zm-1.969-2.719a.737.737,0,0,0,.207.539.789.789,0,0,0,.59.211,1.049,1.049,0,0,0,.848-.391,1.513,1.513,0,0,0,.324-1v-.3l-1.125.156Q37.273,13.633,37.273,14.281ZM48.969,17V12.633a1.942,1.942,0,0,0-.223-1.066.814.814,0,0,0-.723-.324.782.782,0,0,0-.672.336,1.434,1.434,0,0,0-.242.859V17H43.781V9h3.328v1.25h.031a2.824,2.824,0,0,1,1.07-1.066A2.924,2.924,0,0,1,49.672,8.8q2.625,0,2.625,3.313V17Zm10.461-.109a3.242,3.242,0,0,1-.742.207,6.786,6.786,0,0,1-1.242.1,2.984,2.984,0,0,1-2.176-.766,2.906,2.906,0,0,1-.785-2.18V11.3H53.227V9h1.258V7.43l3.281-.906V9H59.43v2.3H57.766v2.4q0,1.055.836,1.055a2.268,2.268,0,0,0,.828-.172ZM60.469,17V9H63.8v8Zm2.078-9.266H60.2l2.336-2.508h2.8ZM69.836,17V15.781H69.8A2.617,2.617,0,0,1,67.367,17.2a2.334,2.334,0,0,1-1.773-.672,2.5,2.5,0,0,1-.641-1.8q0-2.359,2.9-2.734l1.984-.258a.757.757,0,0,0-.352-.641,1.6,1.6,0,0,0-.945-.25,6.226,6.226,0,0,0-2.836.766V9.445a7.587,7.587,0,0,1,1.625-.461A9.457,9.457,0,0,1,69,8.8a4.2,4.2,0,0,1,2.957.871,3.883,3.883,0,0,1,.918,2.91V17Zm-1.969-2.719a.737.737,0,0,0,.207.539.789.789,0,0,0,.59.211,1.049,1.049,0,0,0,.848-.391,1.513,1.513,0,0,0,.324-1v-.3l-1.125.156Q67.867,13.633,67.867,14.281Z" transform="translate(-5517 -4053)" fill="#12263f"/>
    </g>
  </g>
</svg>
