<svg xmlns="http://www.w3.org/2000/svg" width="128" height="128" viewBox="0 0 128 128">
  <g id="Grupo_1183458" data-name="Grupo 1183458" transform="translate(-381.746 -8402)">
    <path id="Trazado_997402" data-name="Trazado 997402" d="M64,0A64,64,0,1,1,0,64,64,64,0,0,1,64,0Z" transform="translate(381.746 8402)" fill="#7be888"/>
    <g id="Grupo_1184387" data-name="Grupo 1184387" transform="translate(412.742 8433.123)">
      <path id="Trazado_1011256" data-name="Trazado 1011256" d="M92.52,8.042a1.278,1.278,0,0,0-.9-.374H78.58a14.057,14.057,0,1,0-2.407,16.153c2.605,3.639,5.893,6.85,12.059,6.85h5.411L108.6,45.632a1.278,1.278,0,0,0,2.182-.9V26.837a1.278,1.278,0,0,0-.374-.9ZM66.057,25.559A11.5,11.5,0,1,1,76.6,9.457a11.378,11.378,0,0,1,.886,3.322H73.725a1.278,1.278,0,0,0-1.278,1.278,6.415,6.415,0,0,0,3.58,5.739A11.443,11.443,0,0,1,66.057,25.559Zm42.172,16.084L97.175,30.588a1.277,1.277,0,0,0-.447-2.474h-8.5c-5.335,0-7.96-2.825-10.4-6.378a14.009,14.009,0,0,0,.751-1.3c.084,0,.169.006.254.006h2.139a8.966,8.966,0,0,0,8.085,5.112,1.278,1.278,0,1,0,0-2.556,6.4,6.4,0,0,1-6.027-4.26,1.278,1.278,0,0,0-1.2-.852H78.837a3.834,3.834,0,0,1-3.613-2.556H89.06a1.278,1.278,0,1,0,0-2.556h-9a13.918,13.918,0,0,0-.471-2.556h11.5l17.143,17.143Z" transform="translate(-45.355)" fill="#53435c"/>
      <path id="Trazado_1011257" data-name="Trazado 1011257" d="M135.446,47.614a1.278,1.278,0,0,1-.013-2.556h.009a2.055,2.055,0,0,1,1.386.668,1.278,1.278,0,1,0,1.777-1.837,4.926,4.926,0,0,0-1.9-1.184V41.278a1.278,1.278,0,1,0-2.556,0v1.453a3.833,3.833,0,0,0,1.3,7.439,1.278,1.278,0,0,1,0,2.556h-.012a2.286,2.286,0,0,1-1.648-.965,1.278,1.278,0,0,0-1.959,1.642,5.3,5.3,0,0,0,2.317,1.659v1.552a1.278,1.278,0,0,0,2.556,0V55.072a3.835,3.835,0,0,0-1.256-7.458Z" transform="translate(-114.722 -34.888)" fill="#53435c"/>
      <path id="Trazado_1011258" data-name="Trazado 1011258" d="M129.833,246a1.278,1.278,0,0,0-1.278,1.278v5.349l-.374-.374a1.278,1.278,0,1,0-1.807,1.807l2.556,2.556a1.278,1.278,0,0,0,1.807,0l2.556-2.556a1.278,1.278,0,0,0-1.807-1.807l-.374.374v-5.349A1.278,1.278,0,0,0,129.833,246Z" transform="translate(-109.897 -214.563)" fill="#53435c"/>
      <circle id="Elipse_16123" data-name="Elipse 16123" cx="1.278" cy="1.278" r="1.278" transform="translate(17.38 62.875)" fill="#53435c"/>
      <path id="Trazado_1011259" data-name="Trazado 1011259" d="M9.3,357.112H1.278A1.278,1.278,0,0,0,0,358.39v12.779a1.278,1.278,0,0,0,1.278,1.278H12.907a1.278,1.278,0,0,0,0-2.556H2.556V359.666H8.527a9.044,9.044,0,0,0-.092,1.279,1.278,1.278,0,0,0,2.556,0,6.382,6.382,0,0,1,6.39-6.391h8.727a3.84,3.84,0,0,1-3.615,2.557H17.38A1.278,1.278,0,0,0,16.1,358.39a6.4,6.4,0,0,0,6.39,6.388H34.668l.026,0a1.274,1.274,0,0,0,.9-.374l6.172-6.172.014-.016a3.85,3.85,0,0,1,4.448-.635L36.2,369.891H24.409a1.278,1.278,0,0,0,0,2.556h12.4a1.278,1.278,0,0,0,.991-.471l11.254-13.808a1.278,1.278,0,0,0-.087-1.711,6.414,6.414,0,0,0-8.093-.775,6.4,6.4,0,0,0-8.139.745l-5.8,5.8H22.492a3.84,3.84,0,0,1-3.615-2.556h3.615a6.4,6.4,0,0,0,6.39-6.39A1.278,1.278,0,0,0,27.6,352H17.38A8.964,8.964,0,0,0,9.3,357.112Zm25.244,1.122a3.841,3.841,0,0,1,4.361-.749l-4.739,4.739H30.551Z" transform="translate(0 -307.016)" fill="#53435c"/>
    </g>
  </g>
</svg>
