<svg xmlns="http://www.w3.org/2000/svg" xmlns:xlink="http://www.w3.org/1999/xlink" width="292" height="188" viewBox="0 0 292 188">
  <defs>
    <clipPath id="clip-path">
      <rect id="Rectángulo_458790" data-name="Rectángulo 458790" width="171.547" height="162.073" fill="none"/>
    </clipPath>
  </defs>
  <g id="Grupo_1182629" data-name="Grupo 1182629" transform="translate(-1121.453 -4068)">
    <rect id="Rectángulo_457995" data-name="Rectángulo 457995" width="292" height="188" rx="10" transform="translate(1121.453 4068)" fill="#ff984a"/>
    <g id="Grupo_1183521" data-name="Grupo 1183521" transform="translate(1181.68 4080.963)">
      <g id="Grupo_1183520" data-name="Grupo 1183520" clip-path="url(#clip-path)">
        <path id="Trazado_1009433" data-name="Trazado 1009433" d="M44.958,165.266l-1-.219a.94.94,0,0,1-.693-.675,11.571,11.571,0,0,0-1.075-2.578.944.944,0,0,1,.011-.965l.552-.88a.785.785,0,0,0-.1-.965l-2.04-2.04a.785.785,0,0,0-.965-.1l-.87.548a.943.943,0,0,1-.969.014,11.508,11.508,0,0,0-2.574-1.064.944.944,0,0,1-.679-.693l-.226-1.008a.765.765,0,0,0-.753-.6h-2.9a.768.768,0,0,0-.75.6l-.23,1.008a.944.944,0,0,1-.679.693,11.362,11.362,0,0,0-2.563,1.061.974.974,0,0,1-.376.116v2.831H22.262V176.2h5.229v1.837a11.212,11.212,0,0,0,1.539.556.946.946,0,0,1,.675.7l.223,1a.775.775,0,0,0,.757.611h2.9a.774.774,0,0,0,.753-.611l.219-1a.948.948,0,0,1,.679-.7A11.377,11.377,0,0,0,37.8,177.53a.942.942,0,0,1,.972.011l.877.555a.77.77,0,0,0,.958-.106l2.047-2.047a.78.78,0,0,0,.1-.962l-.548-.87a.935.935,0,0,1-.011-.969,11.531,11.531,0,0,0,1.071-2.57.932.932,0,0,1,.7-.679l.993-.223a.764.764,0,0,0,.6-.746v-2.91a.768.768,0,0,0-.6-.749m-12.827,8.068a5.864,5.864,0,1,1,5.862-5.866,5.867,5.867,0,0,1-5.862,5.866" transform="translate(-15.079 -104.34)" fill="#2e186b"/>
        <path id="Trazado_1009434" data-name="Trazado 1009434" d="M32.884,180.535h-2.9a1.114,1.114,0,0,1-1.081-.873l-.222-1a.613.613,0,0,0-.442-.449,11.7,11.7,0,0,1-1.582-.571.332.332,0,0,1-.2-.3v-1.505h-4.9a.332.332,0,0,1-.332-.332V159.651a.332.332,0,0,1,.332-.332h3.486v-2.5a.332.332,0,0,1,.294-.33.644.644,0,0,0,.249-.074,11.728,11.728,0,0,1,2.639-1.092.612.612,0,0,0,.444-.447l.23-1.007a1.106,1.106,0,0,1,1.073-.859h2.9a1.1,1.1,0,0,1,1.078.865l.225,1a.612.612,0,0,0,.443.445,11.863,11.863,0,0,1,2.65,1.1.608.608,0,0,0,.629-.006l.87-.548a1.117,1.117,0,0,1,1.371.139l2.047,2.047a1.12,1.12,0,0,1,.144,1.379l-.55.878a.616.616,0,0,0,0,.627,11.924,11.924,0,0,1,1.1,2.65.611.611,0,0,0,.448.441l.994.219h0a1.107,1.107,0,0,1,.861,1.073v2.91a1.091,1.091,0,0,1-.861,1.07l-.993.223a.6.6,0,0,0-.448.442,11.886,11.886,0,0,1-1.1,2.647.6.6,0,0,0,0,.626l.549.871a1.11,1.11,0,0,1-.14,1.369l-2.052,2.052a1.108,1.108,0,0,1-1.372.151l-.875-.554a.612.612,0,0,0-.63,0,11.764,11.764,0,0,1-2.646,1.1.62.62,0,0,0-.444.451l-.219.994a1.1,1.1,0,0,1-1.077.872m-5.757-3.411a10.805,10.805,0,0,0,1.3.454,1.277,1.277,0,0,1,.911.945l.222,1a.442.442,0,0,0,.433.352h2.9a.444.444,0,0,0,.428-.347l.22-1a1.285,1.285,0,0,1,.913-.945,11.076,11.076,0,0,0,2.5-1.033,1.274,1.274,0,0,1,1.313.019l.878.555a.44.44,0,0,0,.546-.06l2.047-2.047a.447.447,0,0,0,.054-.548l-.549-.871a1.266,1.266,0,0,1-.018-1.31,11.211,11.211,0,0,0,1.04-2.5,1.262,1.262,0,0,1,.946-.913l.991-.222a.432.432,0,0,0,.342-.422v-2.91a.438.438,0,0,0-.341-.425l-1-.219a1.273,1.273,0,0,1-.942-.912,11.261,11.261,0,0,0-1.044-2.5,1.281,1.281,0,0,1,.018-1.3l.552-.881a.456.456,0,0,0-.059-.56l-2.034-2.034a.453.453,0,0,0-.552-.054l-.871.549a1.28,1.28,0,0,1-1.307.023,11.182,11.182,0,0,0-2.5-1.034,1.274,1.274,0,0,1-.914-.939l-.226-1.009a.435.435,0,0,0-.429-.342h-2.9a.439.439,0,0,0-.426.341l-.23,1.009a1.274,1.274,0,0,1-.915.94,11.044,11.044,0,0,0-2.487,1.029,1.163,1.163,0,0,1-.207.093v2.564a.332.332,0,0,1-.332.332H21.9v15.19h4.9a.332.332,0,0,1,.332.332Zm4.307-4.155a6.2,6.2,0,1,1,6.194-6.2,6.2,6.2,0,0,1-6.194,6.2m0-11.728a5.532,5.532,0,1,0,5.53,5.53,5.538,5.538,0,0,0-5.53-5.53" transform="translate(-14.383 -103.643)" fill="#2e186b"/>
        <path id="Trazado_1009435" data-name="Trazado 1009435" d="M30.966,165.266l-1-.219a.94.94,0,0,1-.693-.675,11.572,11.572,0,0,0-1.075-2.578.944.944,0,0,1,.011-.965l.552-.88a.786.786,0,0,0-.1-.965l-2.04-2.04a.785.785,0,0,0-.965-.1l-.87.548a.943.943,0,0,1-.969.014,11.514,11.514,0,0,0-2.574-1.064.944.944,0,0,1-.679-.693l-.226-1.008a.765.765,0,0,0-.753-.6h-2.9a.768.768,0,0,0-.75.6l-.229,1.008a.945.945,0,0,1-.679.693,11.366,11.366,0,0,0-2.563,1.061.934.934,0,0,1-.969-.01l-.87-.548a.786.786,0,0,0-.965.1l-2.04,2.04a.791.791,0,0,0-.106.976l.548.856a.94.94,0,0,1,.014.976,11.391,11.391,0,0,0-1.068,2.577.943.943,0,0,1-.7.679l-1,.223a.768.768,0,0,0-.6.75v2.892a.783.783,0,0,0,.612.763l.993.219a.932.932,0,0,1,.7.679,11.164,11.164,0,0,0,1.064,2.567.932.932,0,0,1-.011.976l-.551.866a.781.781,0,0,0,.109.961l2.04,2.044a.787.787,0,0,0,.965.109l.87-.555a.942.942,0,0,1,.972-.014,11.5,11.5,0,0,0,2.571,1.068.944.944,0,0,1,.675.7l.223,1a.775.775,0,0,0,.757.611h2.9a.774.774,0,0,0,.753-.611l.219-1a.95.95,0,0,1,.679-.7,11.39,11.39,0,0,0,2.571-1.064.941.941,0,0,1,.972.01l.877.555a.77.77,0,0,0,.958-.106l2.047-2.047a.78.78,0,0,0,.1-.961l-.548-.87a.935.935,0,0,1-.011-.969,11.525,11.525,0,0,0,1.071-2.57.933.933,0,0,1,.7-.679l.993-.223a.765.765,0,0,0,.6-.746v-2.91a.768.768,0,0,0-.6-.749M18.14,173.334A5.864,5.864,0,1,1,24,167.468a5.866,5.866,0,0,1-5.862,5.865" transform="translate(-3.189 -104.34)" fill="#fff"/>
        <path id="Trazado_1009436" data-name="Trazado 1009436" d="M18.892,180.535H16a1.114,1.114,0,0,1-1.081-.873l-.222-1a.613.613,0,0,0-.442-.449,11.833,11.833,0,0,1-2.643-1.1.611.611,0,0,0-.63,0l-.87.555a1.119,1.119,0,0,1-1.372-.148l-2.047-2.05a1.113,1.113,0,0,1-.154-1.375l.551-.866a.6.6,0,0,0,0-.63,11.535,11.535,0,0,1-1.1-2.645.6.6,0,0,0-.447-.443l-.995-.22a1.111,1.111,0,0,1-.872-1.088v-2.892a1.093,1.093,0,0,1,.865-1.074l1-.223a.612.612,0,0,0,.448-.442,11.774,11.774,0,0,1,1.1-2.654.605.605,0,0,0,0-.633l-.548-.856a1.122,1.122,0,0,1,.149-1.388l2.042-2.041a1.121,1.121,0,0,1,1.379-.144l.868.547a.6.6,0,0,0,.627,0,11.717,11.717,0,0,1,2.639-1.092.613.613,0,0,0,.444-.447l.229-1.007a1.107,1.107,0,0,1,1.073-.859h2.9a1.1,1.1,0,0,1,1.078.865l.225,1a.611.611,0,0,0,.442.445,11.854,11.854,0,0,1,2.65,1.1.608.608,0,0,0,.629-.006l.87-.548a1.117,1.117,0,0,1,1.371.139l2.047,2.047a1.12,1.12,0,0,1,.144,1.379l-.55.878a.616.616,0,0,0,0,.627,11.938,11.938,0,0,1,1.1,2.65.61.61,0,0,0,.448.441l.994.219h0a1.107,1.107,0,0,1,.861,1.074v2.91a1.091,1.091,0,0,1-.861,1.07l-.993.223a.6.6,0,0,0-.449.442,11.867,11.867,0,0,1-1.1,2.647.6.6,0,0,0,0,.626l.549.871a1.109,1.109,0,0,1-.141,1.369l-2.052,2.052a1.108,1.108,0,0,1-1.372.151l-.875-.554a.613.613,0,0,0-.63,0,11.778,11.778,0,0,1-2.646,1.1.62.62,0,0,0-.444.451l-.218.994a1.1,1.1,0,0,1-1.078.872m-7.6-4.165a1.314,1.314,0,0,1,.644.171,11.162,11.162,0,0,0,2.5,1.037,1.277,1.277,0,0,1,.911.945l.222,1a.441.441,0,0,0,.433.352h2.9a.444.444,0,0,0,.428-.347l.22-1a1.286,1.286,0,0,1,.913-.945,11.078,11.078,0,0,0,2.5-1.033,1.275,1.275,0,0,1,1.313.019l.877.555a.441.441,0,0,0,.546-.06l2.047-2.047a.446.446,0,0,0,.054-.548l-.549-.872a1.267,1.267,0,0,1-.018-1.31,11.192,11.192,0,0,0,1.04-2.5,1.263,1.263,0,0,1,.946-.914l.991-.222a.431.431,0,0,0,.342-.422v-2.91a.438.438,0,0,0-.341-.425l-1-.219a1.273,1.273,0,0,1-.942-.912,11.258,11.258,0,0,0-1.044-2.5,1.281,1.281,0,0,1,.018-1.305l.551-.88a.455.455,0,0,0-.059-.56l-2.034-2.034a.453.453,0,0,0-.552-.054l-.871.549a1.28,1.28,0,0,1-1.308.023,11.171,11.171,0,0,0-2.5-1.034,1.274,1.274,0,0,1-.914-.939l-.226-1.009a.435.435,0,0,0-.429-.342h-2.9a.438.438,0,0,0-.426.341l-.23,1.009a1.275,1.275,0,0,1-.915.94,11.044,11.044,0,0,0-2.487,1.029,1.265,1.265,0,0,1-1.311-.02l-.868-.547a.456.456,0,0,0-.56.059L7.159,158.52a.457.457,0,0,0-.059.565l.546.852a1.275,1.275,0,0,1,.024,1.318,11.106,11.106,0,0,0-1.037,2.5,1.276,1.276,0,0,1-.943.913l-1,.223a.434.434,0,0,0-.345.426v2.892a.45.45,0,0,0,.353.44l.991.219a1.263,1.263,0,0,1,.946.916,10.855,10.855,0,0,0,1.032,2.489,1.261,1.261,0,0,1-.02,1.32l-.551.865a.45.45,0,0,0,.069.553L9.2,177.055a.453.453,0,0,0,.551.065l.87-.555a1.242,1.242,0,0,1,.67-.194m6.152-3.4a6.2,6.2,0,1,1,6.194-6.2,6.2,6.2,0,0,1-6.194,6.2m0-11.728a5.532,5.532,0,1,0,5.53,5.53,5.538,5.538,0,0,0-5.53-5.53" transform="translate(-2.492 -103.643)" fill="#2e186b"/>
        <rect id="Rectángulo_458789" data-name="Rectángulo 458789" width="45.353" height="40.602" transform="translate(125.861 0.333)" fill="#fff"/>
        <path id="Trazado_1009437" data-name="Trazado 1009437" d="M434.749,41.269H406.582a.332.332,0,1,1,0-.664h27.834V.664h-44.69V40.6h10.136a.332.332,0,1,1,0,.664H389.4a.332.332,0,0,1-.332-.332V.332A.332.332,0,0,1,389.4,0h45.354a.332.332,0,0,1,.332.332v40.6a.332.332,0,0,1-.332.332" transform="translate(-263.534)" fill="#2e186b"/>
        <path id="Trazado_1009438" data-name="Trazado 1009438" d="M499.93,59.446v8.681a1.237,1.237,0,0,1-1.237,1.237H495.32a1.237,1.237,0,0,1-1.237-1.237V59.446a1.237,1.237,0,0,1,1.237-1.237h3.374a1.237,1.237,0,0,1,1.237,1.237" transform="translate(-334.67 -39.428)" fill="#9654ff"/>
        <path id="Trazado_1009439" data-name="Trazado 1009439" d="M470.037,28.714v18.6a1.237,1.237,0,0,1-1.237,1.237h-3.377a1.237,1.237,0,0,1-1.237-1.237v-18.6a1.237,1.237,0,0,1,1.237-1.237H468.8a1.237,1.237,0,0,1,1.237,1.237" transform="translate(-314.419 -18.612)" fill="#9654ff"/>
        <path id="Trazado_1009440" data-name="Trazado 1009440" d="M410.255,41.946V56.274a1.239,1.239,0,0,1-1.239,1.236h-3.374a1.236,1.236,0,0,1-1.237-1.236V41.946a1.237,1.237,0,0,1,1.237-1.237h3.374a1.239,1.239,0,0,1,1.239,1.237" transform="translate(-273.926 -27.574)" fill="#9654ff"/>
        <path id="Trazado_1009441" data-name="Trazado 1009441" d="M440.148,13.775V37.192a1.237,1.237,0,0,1-1.237,1.237h-3.374a1.237,1.237,0,0,1-1.237-1.237V13.775a1.237,1.237,0,0,1,1.237-1.237h3.374a1.237,1.237,0,0,1,1.237,1.237" transform="translate(-294.176 -8.493)" fill="#9654ff"/>
        <path id="Trazado_1009442" data-name="Trazado 1009442" d="M499.93,80.365V82.3a1.237,1.237,0,0,1-1.237,1.237H495.32a1.237,1.237,0,0,1-1.237-1.237V80.365a1.237,1.237,0,0,1,1.237-1.237h3.374a1.237,1.237,0,0,1,1.237,1.237" transform="translate(-334.67 -53.598)" fill="#ff7af1"/>
        <path id="Trazado_1009443" data-name="Trazado 1009443" d="M470.037,49.633V61.48a1.237,1.237,0,0,1-1.237,1.237h-3.377a1.237,1.237,0,0,1-1.237-1.237V49.633a1.237,1.237,0,0,1,1.237-1.237H468.8a1.237,1.237,0,0,1,1.237,1.237" transform="translate(-314.419 -32.781)" fill="#ff7af1"/>
        <path id="Trazado_1009444" data-name="Trazado 1009444" d="M410.255,62.865v7.578a1.239,1.239,0,0,1-1.239,1.237h-3.374a1.236,1.236,0,0,1-1.237-1.237V62.865a1.237,1.237,0,0,1,1.237-1.237h3.374a1.239,1.239,0,0,1,1.239,1.237" transform="translate(-273.926 -41.744)" fill="#ff7af1"/>
        <path id="Trazado_1009445" data-name="Trazado 1009445" d="M440.148,34.694V51.361a1.237,1.237,0,0,1-1.237,1.237h-3.374a1.237,1.237,0,0,1-1.237-1.237V34.694a1.237,1.237,0,0,1,1.237-1.237h3.374a1.237,1.237,0,0,1,1.237,1.237" transform="translate(-294.176 -22.662)" fill="#ff7af1"/>
        <path id="Trazado_1009446" data-name="Trazado 1009446" d="M411.659,185.617,397.674,113.58l-2.431-12.517a5.121,5.121,0,0,0-5.036-4.157h-7.336v94.83h23.734a5.157,5.157,0,0,0,5.053-6.119" transform="translate(-259.34 -65.64)" fill="#2e186b"/>
        <path id="Trazado_1009447" data-name="Trazado 1009447" d="M405.908,191.371H382.174a.332.332,0,0,1-.332-.332V96.209a.332.332,0,0,1,.332-.332h7.336a5.468,5.468,0,0,1,5.363,4.426l16.415,84.553v0a5.489,5.489,0,0,1-5.379,6.513m-23.4-.664h23.4a4.825,4.825,0,0,0,4.727-5.725l-16.415-84.552a4.8,4.8,0,0,0-4.711-3.888h-7Z" transform="translate(-258.643 -64.943)" fill="#2e186b"/>
        <path id="Trazado_1009448" data-name="Trazado 1009448" d="M197.314,191.739H98.656L80.845,96.908H180.917a5.12,5.12,0,0,1,5.035,4.155l16.414,84.555a5.155,5.155,0,0,1-5.052,6.121" transform="translate(-54.761 -65.641)" fill="#fff"/>
        <path id="Trazado_1009449" data-name="Trazado 1009449" d="M89.782,144.489l.686,3.652h104.42l-.709-3.652Z" transform="translate(-60.814 -97.87)" fill="#9654ff"/>
        <path id="Trazado_1009450" data-name="Trazado 1009450" d="M100.982,191.736H98.658L80.848,96.906h2.324Z" transform="translate(-54.763 -65.64)" fill="#9654ff"/>
        <path id="Trazado_1009451" data-name="Trazado 1009451" d="M188.384,113.582H83.967L80.846,96.909H180.918a5.119,5.119,0,0,1,5.035,4.155Z" transform="translate(-54.761 -65.642)" fill="#9654ff"/>
        <path id="Trazado_1009452" data-name="Trazado 1009452" d="M183.354,98.9H83.282l2.749,14.682H83.969L80.848,96.906H180.921a5.1,5.1,0,0,1,4.3,2.344,5.083,5.083,0,0,0-1.869-.352" transform="translate(-54.763 -65.64)" fill="#fff"/>
        <path id="Trazado_1009453" data-name="Trazado 1009453" d="M57.822,191.739H25.7a5.139,5.139,0,0,1-5.017-6.242L40.011,96.908Z" transform="translate(-13.927 -65.641)" fill="#9654ff"/>
        <path id="Trazado_1009454" data-name="Trazado 1009454" d="M28.686,191.736H25.7a5.138,5.138,0,0,1-5.017-6.238l19.33-88.592,1.381,7.361L23.669,185.5a5.139,5.139,0,0,0,5.017,6.238" transform="translate(-13.926 -65.64)" fill="#fff"/>
        <path id="Trazado_1009455" data-name="Trazado 1009455" d="M312.48,181.271h-8.315a1.159,1.159,0,0,1-1.141-.951l-1.364-7.378a1.161,1.161,0,0,1,1.142-1.371h8.315a1.16,1.16,0,0,1,1.141.951l1.364,7.378a1.163,1.163,0,0,1-1.142,1.371" transform="translate(-204.318 -116.214)" fill="#fff"/>
        <path id="Trazado_1009456" data-name="Trazado 1009456" d="M281.292,334.826a1.161,1.161,0,0,1-1.142,1.371h-8.314a1.162,1.162,0,0,1-1.142-.951l-1.364-7.374a1.164,1.164,0,0,1,1.141-1.375h8.318a1.156,1.156,0,0,1,1.138.951Z" transform="translate(-182.42 -221.154)" fill="#fff"/>
        <path id="Trazado_1009457" data-name="Trazado 1009457" d="M153.456,284.559h-8.318a1.162,1.162,0,0,1-1.141-.951l-1.361-7.378a1.158,1.158,0,0,1,1.142-1.371h8.315a1.162,1.162,0,0,1,1.141.951l1.364,7.378a1.162,1.162,0,0,1-1.141,1.371" transform="translate(-96.602 -186.177)" fill="#fff"/>
        <path id="Trazado_1009458" data-name="Trazado 1009458" d="M202.545,232.91h-8.315a1.162,1.162,0,0,1-1.141-.951l-1.364-7.375a1.164,1.164,0,0,1,1.142-1.374h8.318a1.162,1.162,0,0,1,1.142.951l1.36,7.378a1.157,1.157,0,0,1-1.141,1.371" transform="translate(-129.853 -151.192)" fill="#fff"/>
        <path id="Trazado_1009459" data-name="Trazado 1009459" d="M143.547,232.91h-8.318a1.156,1.156,0,0,1-1.138-.951l-1.364-7.375a1.162,1.162,0,0,1,1.142-1.374h8.315a1.162,1.162,0,0,1,1.141.951l1.364,7.378a1.161,1.161,0,0,1-1.141,1.371" transform="translate(-89.89 -151.192)" fill="#fff"/>
        <path id="Trazado_1009460" data-name="Trazado 1009460" d="M212.456,284.559h-8.315a1.162,1.162,0,0,1-1.141-.951l-1.364-7.378a1.161,1.161,0,0,1,1.142-1.371h8.314a1.157,1.157,0,0,1,1.142.951l1.364,7.378a1.162,1.162,0,0,1-1.141,1.371" transform="translate(-136.566 -186.177)" fill="#fff"/>
        <path id="Trazado_1009461" data-name="Trazado 1009461" d="M222.291,334.826a1.161,1.161,0,0,1-1.141,1.371h-8.318a1.162,1.162,0,0,1-1.142-.951l-1.36-7.374a1.161,1.161,0,0,1,1.141-1.375h8.315a1.162,1.162,0,0,1,1.142.951Z" transform="translate(-142.455 -221.154)" fill="#fff"/>
        <path id="Trazado_1009462" data-name="Trazado 1009462" d="M253.477,181.271h-8.315a1.162,1.162,0,0,1-1.141-.951l-1.361-7.378a1.158,1.158,0,0,1,1.142-1.371h8.314a1.163,1.163,0,0,1,1.142.951l1.36,7.378a1.159,1.159,0,0,1-1.141,1.371" transform="translate(-164.353 -116.214)" fill="#fff"/>
        <path id="Trazado_1009463" data-name="Trazado 1009463" d="M320.552,232.91h-8.315a1.162,1.162,0,0,1-1.141-.951l-1.364-7.375a1.164,1.164,0,0,1,1.142-1.374h8.318a1.162,1.162,0,0,1,1.141.951l1.36,7.378a1.157,1.157,0,0,1-1.141,1.371" transform="translate(-209.786 -151.192)" fill="#fff"/>
        <path id="Trazado_1009464" data-name="Trazado 1009464" d="M330.463,284.559h-8.315a1.162,1.162,0,0,1-1.141-.951l-1.364-7.378a1.161,1.161,0,0,1,1.142-1.371H329.1a1.157,1.157,0,0,1,1.141.951l1.364,7.378a1.162,1.162,0,0,1-1.141,1.371" transform="translate(-216.499 -186.177)" fill="#fff"/>
        <path id="Trazado_1009465" data-name="Trazado 1009465" d="M379.561,232.91h-8.315a1.157,1.157,0,0,1-1.141-.951l-1.364-7.375a1.164,1.164,0,0,1,1.142-1.374H378.2a1.162,1.162,0,0,1,1.141.951l1.364,7.378a1.161,1.161,0,0,1-1.142,1.371" transform="translate(-249.756 -151.192)" fill="#fff"/>
        <path id="Trazado_1009466" data-name="Trazado 1009466" d="M163.285,334.826a1.161,1.161,0,0,1-1.142,1.371H153.83a1.162,1.162,0,0,1-1.142-.951l-1.364-7.374a1.164,1.164,0,0,1,1.141-1.375h8.315a1.157,1.157,0,0,1,1.142.951Z" transform="translate(-102.487 -221.154)" fill="#fff"/>
        <path id="Trazado_1009467" data-name="Trazado 1009467" d="M371.487,181.271h-8.318a1.162,1.162,0,0,1-1.141-.951l-1.361-7.378a1.158,1.158,0,0,1,1.142-1.371h8.314a1.162,1.162,0,0,1,1.142.951l1.36,7.378a1.158,1.158,0,0,1-1.138,1.371" transform="translate(-244.286 -116.214)" fill="#fff"/>
        <path id="Trazado_1009468" data-name="Trazado 1009468" d="M261.554,232.91H253.24a1.157,1.157,0,0,1-1.141-.951l-1.364-7.375a1.164,1.164,0,0,1,1.142-1.374h8.315a1.162,1.162,0,0,1,1.141.951l1.364,7.378a1.161,1.161,0,0,1-1.142,1.371" transform="translate(-169.823 -151.192)" fill="#fff"/>
        <path id="Trazado_1009469" data-name="Trazado 1009469" d="M271.463,284.559h-8.318a1.162,1.162,0,0,1-1.141-.951l-1.361-7.378a1.158,1.158,0,0,1,1.142-1.371H270.1a1.162,1.162,0,0,1,1.141.951l1.364,7.378a1.162,1.162,0,0,1-1.141,1.371" transform="translate(-176.534 -186.177)" fill="#fff"/>
        <path id="Trazado_1009470" data-name="Trazado 1009470" d="M303.653,174.106l1.325,7.165h-.81a1.158,1.158,0,0,1-1.142-.95l-1.364-7.378a1.163,1.163,0,0,1,1.142-1.371h8.314a1.16,1.16,0,0,1,1.142.95l.04.212h-7.5a1.163,1.163,0,0,0-1.142,1.371" transform="translate(-204.319 -116.216)" fill="#9654ff"/>
        <path id="Trazado_1009471" data-name="Trazado 1009471" d="M271.32,329.032l1.324,7.165h-.81a1.166,1.166,0,0,1-1.142-.953l-1.365-7.374a1.165,1.165,0,0,1,1.142-1.374h8.316a1.155,1.155,0,0,1,1.139.95l.04.213h-7.5a1.166,1.166,0,0,0-1.142,1.374" transform="translate(-182.418 -221.153)" fill="#9654ff"/>
        <path id="Trazado_1009472" data-name="Trazado 1009472" d="M144.631,277.391l1.318,7.168h-.81a1.166,1.166,0,0,1-1.142-.953l-1.358-7.377a1.155,1.155,0,0,1,1.139-1.371h8.317a1.156,1.156,0,0,1,1.139.95l.04.213h-7.5a1.155,1.155,0,0,0-1.139,1.371" transform="translate(-96.603 -186.176)" fill="#9654ff"/>
        <path id="Trazado_1009473" data-name="Trazado 1009473" d="M193.719,225.747l1.325,7.161h-.813a1.157,1.157,0,0,1-1.139-.95l-1.364-7.374a1.162,1.162,0,0,1,1.142-1.374h8.317a1.163,1.163,0,0,1,1.142.95l.04.213h-7.507a1.162,1.162,0,0,0-1.142,1.374" transform="translate(-129.854 -151.192)" fill="#9654ff"/>
        <path id="Trazado_1009474" data-name="Trazado 1009474" d="M134.716,225.747l1.325,7.161h-.813a1.157,1.157,0,0,1-1.139-.95l-1.364-7.374a1.164,1.164,0,0,1,1.142-1.374h8.314a1.161,1.161,0,0,1,1.142.95l.04.213h-7.5a1.164,1.164,0,0,0-1.142,1.374" transform="translate(-89.888 -151.192)" fill="#9654ff"/>
        <path id="Trazado_1009475" data-name="Trazado 1009475" d="M203.63,277.391l1.325,7.168h-.81a1.163,1.163,0,0,1-1.142-.953l-1.364-7.377a1.163,1.163,0,0,1,1.142-1.371h8.314a1.158,1.158,0,0,1,1.142.95l.04.213h-7.5a1.163,1.163,0,0,0-1.142,1.371" transform="translate(-136.568 -186.176)" fill="#9654ff"/>
        <path id="Trazado_1009476" data-name="Trazado 1009476" d="M212.324,329.032l1.321,7.165h-.81a1.164,1.164,0,0,1-1.142-.953l-1.361-7.374a1.162,1.162,0,0,1,1.142-1.374h8.314a1.163,1.163,0,0,1,1.142.95l.04.213h-7.5a1.162,1.162,0,0,0-1.142,1.374" transform="translate(-142.456 -221.153)" fill="#9654ff"/>
        <path id="Trazado_1009477" data-name="Trazado 1009477" d="M244.654,174.106l1.322,7.165h-.814a1.157,1.157,0,0,1-1.139-.95l-1.361-7.378a1.156,1.156,0,0,1,1.142-1.371h8.314a1.163,1.163,0,0,1,1.142.95l.04.212h-7.5a1.156,1.156,0,0,0-1.142,1.371" transform="translate(-164.354 -116.216)" fill="#9654ff"/>
        <path id="Trazado_1009478" data-name="Trazado 1009478" d="M311.721,225.747l1.325,7.161h-.81a1.163,1.163,0,0,1-1.142-.95l-1.364-7.374a1.165,1.165,0,0,1,1.142-1.374h8.32a1.16,1.16,0,0,1,1.139.95l.04.213h-7.507a1.166,1.166,0,0,0-1.142,1.374" transform="translate(-209.783 -151.192)" fill="#9654ff"/>
        <path id="Trazado_1009479" data-name="Trazado 1009479" d="M321.638,277.391l1.322,7.168h-.81a1.166,1.166,0,0,1-1.142-.953l-1.361-7.377a1.159,1.159,0,0,1,1.139-1.371H329.1a1.151,1.151,0,0,1,1.139.95l.04.213h-7.5a1.159,1.159,0,0,0-1.139,1.371" transform="translate(-216.5 -186.176)" fill="#9654ff"/>
        <path id="Trazado_1009480" data-name="Trazado 1009480" d="M370.734,225.747l1.325,7.161h-.813a1.152,1.152,0,0,1-1.139-.95l-1.364-7.374a1.162,1.162,0,0,1,1.142-1.374H378.2a1.163,1.163,0,0,1,1.142.95l.04.213h-7.5a1.162,1.162,0,0,0-1.142,1.374" transform="translate(-249.756 -151.192)" fill="#9654ff"/>
        <path id="Trazado_1009481" data-name="Trazado 1009481" d="M153.319,329.032l1.322,7.165h-.81a1.166,1.166,0,0,1-1.142-.953l-1.361-7.374a1.161,1.161,0,0,1,1.139-1.374h8.317a1.151,1.151,0,0,1,1.139.95l.04.213h-7.5a1.161,1.161,0,0,0-1.139,1.374" transform="translate(-102.489 -221.153)" fill="#9654ff"/>
        <path id="Trazado_1009482" data-name="Trazado 1009482" d="M362.656,174.106l1.322,7.165h-.81a1.163,1.163,0,0,1-1.142-.95l-1.361-7.378a1.159,1.159,0,0,1,1.142-1.371h8.314a1.161,1.161,0,0,1,1.142.95l.04.212h-7.5a1.159,1.159,0,0,0-1.142,1.371" transform="translate(-244.284 -116.216)" fill="#9654ff"/>
        <path id="Trazado_1009483" data-name="Trazado 1009483" d="M252.726,225.747l1.325,7.161h-.81a1.155,1.155,0,0,1-1.142-.95l-1.364-7.374a1.165,1.165,0,0,1,1.142-1.374h8.314a1.163,1.163,0,0,1,1.142.95l.04.213h-7.5a1.166,1.166,0,0,0-1.142,1.374" transform="translate(-169.823 -151.192)" fill="#9654ff"/>
        <path id="Trazado_1009484" data-name="Trazado 1009484" d="M262.633,277.391l1.322,7.168h-.81a1.166,1.166,0,0,1-1.142-.953l-1.361-7.377a1.159,1.159,0,0,1,1.142-1.371H270.1a1.16,1.16,0,0,1,1.142.95l.04.213h-7.5a1.159,1.159,0,0,0-1.142,1.371" transform="translate(-176.533 -186.176)" fill="#9654ff"/>
        <path id="Trazado_1009485" data-name="Trazado 1009485" d="M196.617,191.375H97.959a.332.332,0,0,1-.326-.271L79.821,96.273a.332.332,0,0,1,.327-.393H180.22a5.467,5.467,0,0,1,5.361,4.424L202,184.858a5.487,5.487,0,0,1-5.378,6.516m-98.383-.664h98.383a4.823,4.823,0,0,0,4.726-5.727L184.929,100.43a4.8,4.8,0,0,0-4.709-3.886H80.548Z" transform="translate(-54.064 -64.945)" fill="#2e186b"/>
        <path id="Trazado_1009486" data-name="Trazado 1009486" d="M187.686,113.217H83.269a.332.332,0,0,1-.327-.271L79.821,96.273a.332.332,0,0,1,.327-.393H180.22a5.467,5.467,0,0,1,5.361,4.424l2.431,12.517a.332.332,0,0,1-.326.4m-104.142-.664H187.283l-2.354-12.122a4.8,4.8,0,0,0-4.709-3.886H80.548Z" transform="translate(-54.064 -64.945)" fill="#2e186b"/>
        <path id="Trazado_1009487" data-name="Trazado 1009487" d="M57.127,191.375H25a5.471,5.471,0,0,1-5.342-6.645L38.991,96.141a.332.332,0,0,1,.651.009l17.811,94.831a.332.332,0,0,1-.326.393M39.291,97.881l-18.98,86.991A4.807,4.807,0,0,0,25,190.711H56.727Z" transform="translate(-13.231 -64.945)" fill="#2e186b"/>
        <path id="Trazado_1009488" data-name="Trazado 1009488" d="M110.028,81.693a.332.332,0,1,1,0-.664,8.737,8.737,0,1,0-8.189-8.72,9.33,9.33,0,0,0,.125,1.527.332.332,0,0,1-.655.109,9.981,9.981,0,0,1-.134-1.636,8.868,8.868,0,1,1,8.853,9.384" transform="translate(-68.531 -42.623)" fill="#2e186b"/>
        <path id="Trazado_1009489" data-name="Trazado 1009489" d="M185.57,81.693a.332.332,0,0,1,0-.664,8.737,8.737,0,1,0-8.189-8.72,9.329,9.329,0,0,0,.125,1.527.332.332,0,0,1-.655.109,9.981,9.981,0,0,1-.134-1.636,8.868,8.868,0,1,1,8.853,9.384" transform="translate(-119.7 -42.623)" fill="#2e186b"/>
        <path id="Trazado_1009490" data-name="Trazado 1009490" d="M261.112,81.693a.332.332,0,0,1,0-.664,8.737,8.737,0,1,0-8.189-8.72,9.355,9.355,0,0,0,.125,1.527.332.332,0,0,1-.655.108,9.992,9.992,0,0,1-.134-1.636,8.868,8.868,0,1,1,8.853,9.384" transform="translate(-170.869 -42.623)" fill="#2e186b"/>
        <path id="Trazado_1009491" data-name="Trazado 1009491" d="M311.784,180.906h-8.315A1.494,1.494,0,0,1,302,179.684l-1.364-7.378a1.494,1.494,0,0,1,1.468-1.764h8.315a1.494,1.494,0,0,1,1.468,1.222l1.364,7.379a1.5,1.5,0,0,1-1.468,1.763m-9.678-9.7a.829.829,0,0,0-.815.979l1.364,7.378a.83.83,0,0,0,.815.679h8.315a.831.831,0,0,0,.815-.979l-1.364-7.378a.83.83,0,0,0-.815-.679Z" transform="translate(-203.621 -115.517)" fill="#2e186b"/>
        <path id="Trazado_1009492" data-name="Trazado 1009492" d="M279.454,335.832H271.14a1.494,1.494,0,0,1-1.468-1.222l-1.364-7.375a1.5,1.5,0,0,1,1.468-1.767h8.318a1.486,1.486,0,0,1,1.465,1.224l1.364,7.376h0a1.493,1.493,0,0,1-1.468,1.763m-9.678-9.7a.832.832,0,0,0-.815.983l1.364,7.374a.83.83,0,0,0,.815.679h8.314a.829.829,0,0,0,.815-.979l-1.364-7.378a.824.824,0,0,0-.811-.679Z" transform="translate(-181.723 -220.457)" fill="#2e186b"/>
        <path id="Trazado_1009493" data-name="Trazado 1009493" d="M152.76,284.194h-8.318a1.5,1.5,0,0,1-1.468-1.222l-1.36-7.379a1.489,1.489,0,0,1,1.468-1.763H151.4a1.494,1.494,0,0,1,1.468,1.222l1.364,7.379a1.495,1.495,0,0,1-1.468,1.763m-9.678-9.7a.825.825,0,0,0-.815.978l1.361,7.379a.83.83,0,0,0,.815.679h8.318a.831.831,0,0,0,.815-.979l-1.364-7.378a.83.83,0,0,0-.815-.679Z" transform="translate(-95.905 -185.48)" fill="#2e186b"/>
        <path id="Trazado_1009494" data-name="Trazado 1009494" d="M201.849,232.544h-8.315a1.494,1.494,0,0,1-1.468-1.222l-1.364-7.375a1.5,1.5,0,0,1,1.468-1.767h8.318a1.494,1.494,0,0,1,1.468,1.222l1.361,7.379a1.489,1.489,0,0,1-1.468,1.763m-9.678-9.7a.832.832,0,0,0-.815.983l1.364,7.374a.829.829,0,0,0,.815.679h8.315a.825.825,0,0,0,.815-.977l-1.361-7.38a.83.83,0,0,0-.815-.679Z" transform="translate(-129.156 -150.495)" fill="#2e186b"/>
        <path id="Trazado_1009495" data-name="Trazado 1009495" d="M142.85,232.544h-8.318a1.486,1.486,0,0,1-1.465-1.224l-1.363-7.373a1.494,1.494,0,0,1,1.468-1.767h8.315a1.494,1.494,0,0,1,1.468,1.222l1.364,7.379a1.493,1.493,0,0,1-1.468,1.763m-9.678-9.7a.83.83,0,0,0-.815.983l1.364,7.374a.823.823,0,0,0,.811.679h8.318a.829.829,0,0,0,.815-.979l-1.364-7.378a.83.83,0,0,0-.815-.679Z" transform="translate(-89.193 -150.495)" fill="#2e186b"/>
        <path id="Trazado_1009496" data-name="Trazado 1009496" d="M211.76,284.194h-8.314a1.5,1.5,0,0,1-1.468-1.222l-1.364-7.378a1.494,1.494,0,0,1,1.468-1.764H210.4a1.488,1.488,0,0,1,1.468,1.224l1.364,7.376a1.495,1.495,0,0,1-1.468,1.763m-9.678-9.7a.829.829,0,0,0-.815.979l1.364,7.378a.83.83,0,0,0,.815.679h8.314a.83.83,0,0,0,.815-.979l-1.364-7.378a.825.825,0,0,0-.815-.679Z" transform="translate(-135.87 -185.48)" fill="#2e186b"/>
        <path id="Trazado_1009497" data-name="Trazado 1009497" d="M220.454,335.832h-8.318a1.494,1.494,0,0,1-1.468-1.222l-1.36-7.375a1.492,1.492,0,0,1,1.468-1.767h8.315a1.494,1.494,0,0,1,1.468,1.222l1.364,7.378h0a1.493,1.493,0,0,1-1.468,1.763m-9.678-9.7a.828.828,0,0,0-.815.981l1.361,7.376a.83.83,0,0,0,.815.679h8.318a.83.83,0,0,0,.815-.979l-1.364-7.378a.83.83,0,0,0-.815-.679Z" transform="translate(-141.758 -220.457)" fill="#2e186b"/>
        <path id="Trazado_1009498" data-name="Trazado 1009498" d="M252.78,180.906h-8.314A1.5,1.5,0,0,1,243,179.684l-1.36-7.379a1.489,1.489,0,0,1,1.468-1.763h8.315a1.5,1.5,0,0,1,1.468,1.222l1.36,7.379a1.491,1.491,0,0,1-1.468,1.763m-9.675-9.7a.825.825,0,0,0-.815.978l1.361,7.379a.83.83,0,0,0,.815.679h8.314a.827.827,0,0,0,.815-.977l-1.361-7.38a.83.83,0,0,0-.815-.679Z" transform="translate(-163.657 -115.517)" fill="#2e186b"/>
        <path id="Trazado_1009499" data-name="Trazado 1009499" d="M319.855,232.544H311.54a1.494,1.494,0,0,1-1.468-1.222l-1.364-7.375a1.5,1.5,0,0,1,1.468-1.767h8.318a1.494,1.494,0,0,1,1.468,1.222l1.361,7.379a1.489,1.489,0,0,1-1.468,1.763m-9.678-9.7a.832.832,0,0,0-.815.983l1.364,7.374a.829.829,0,0,0,.815.679h8.315a.825.825,0,0,0,.815-.977l-1.361-7.38a.83.83,0,0,0-.815-.679Z" transform="translate(-209.088 -150.495)" fill="#2e186b"/>
        <path id="Trazado_1009500" data-name="Trazado 1009500" d="M329.767,284.194h-8.315a1.494,1.494,0,0,1-1.468-1.222l-1.364-7.378a1.494,1.494,0,0,1,1.468-1.764H328.4a1.488,1.488,0,0,1,1.468,1.224l1.364,7.376a1.5,1.5,0,0,1-1.468,1.763m-9.678-9.7a.829.829,0,0,0-.815.979l1.364,7.378a.83.83,0,0,0,.815.679h8.315a.831.831,0,0,0,.815-.979l-1.364-7.378a.825.825,0,0,0-.815-.679Z" transform="translate(-215.802 -185.48)" fill="#2e186b"/>
        <path id="Trazado_1009501" data-name="Trazado 1009501" d="M378.864,232.544h-8.315a1.488,1.488,0,0,1-1.468-1.224l-1.364-7.373a1.5,1.5,0,0,1,1.468-1.767H377.5a1.494,1.494,0,0,1,1.468,1.222l1.364,7.379a1.493,1.493,0,0,1-1.468,1.763m-9.678-9.7a.832.832,0,0,0-.815.983l1.364,7.374a.825.825,0,0,0,.815.679h8.315a.829.829,0,0,0,.815-.979l-1.364-7.378a.83.83,0,0,0-.815-.679Z" transform="translate(-249.058 -150.495)" fill="#2e186b"/>
        <path id="Trazado_1009502" data-name="Trazado 1009502" d="M161.447,335.832h-8.314a1.494,1.494,0,0,1-1.468-1.222l-1.364-7.375a1.5,1.5,0,0,1,1.468-1.767h8.315a1.488,1.488,0,0,1,1.468,1.224l1.364,7.376h0a1.493,1.493,0,0,1-1.468,1.763m-9.678-9.7a.832.832,0,0,0-.815.983l1.364,7.374a.83.83,0,0,0,.815.679h8.314a.829.829,0,0,0,.815-.979l-1.364-7.378a.826.826,0,0,0-.815-.679Z" transform="translate(-101.79 -220.457)" fill="#2e186b"/>
        <path id="Trazado_1009503" data-name="Trazado 1009503" d="M370.791,180.906h-8.318A1.494,1.494,0,0,1,361,179.684l-1.361-7.379a1.489,1.489,0,0,1,1.468-1.763h8.315a1.494,1.494,0,0,1,1.468,1.222l1.361,7.379a1.491,1.491,0,0,1-1.465,1.763m-9.678-9.7a.829.829,0,0,0-.64.3.82.82,0,0,0-.175.678l1.361,7.379a.83.83,0,0,0,.815.679h8.318a.827.827,0,0,0,.812-.977l-1.361-7.38a.83.83,0,0,0-.815-.679Z" transform="translate(-243.589 -115.517)" fill="#2e186b"/>
        <path id="Trazado_1009504" data-name="Trazado 1009504" d="M260.858,232.544h-8.315a1.488,1.488,0,0,1-1.468-1.224l-1.364-7.373a1.5,1.5,0,0,1,1.468-1.767h8.315a1.494,1.494,0,0,1,1.468,1.222l1.364,7.379a1.493,1.493,0,0,1-1.468,1.763m-9.678-9.7a.832.832,0,0,0-.815.983l1.364,7.374a.825.825,0,0,0,.815.679h8.315a.829.829,0,0,0,.815-.979l-1.364-7.378a.83.83,0,0,0-.815-.679Z" transform="translate(-169.126 -150.495)" fill="#2e186b"/>
        <path id="Trazado_1009505" data-name="Trazado 1009505" d="M270.767,284.194h-8.318a1.5,1.5,0,0,1-1.468-1.222l-1.36-7.379a1.489,1.489,0,0,1,1.468-1.763H269.4a1.494,1.494,0,0,1,1.468,1.222l1.364,7.379a1.495,1.495,0,0,1-1.468,1.763m-9.678-9.7a.825.825,0,0,0-.815.978l1.361,7.379a.83.83,0,0,0,.815.679h8.318a.831.831,0,0,0,.815-.979l-1.364-7.378a.83.83,0,0,0-.815-.679Z" transform="translate(-175.838 -185.48)" fill="#2e186b"/>
        <path id="Trazado_1009506" data-name="Trazado 1009506" d="M336.655,81.693a.332.332,0,0,1,0-.664,8.737,8.737,0,1,0-8.189-8.72,9.379,9.379,0,0,0,.125,1.527.332.332,0,0,1-.655.108,10.016,10.016,0,0,1-.134-1.636,8.868,8.868,0,1,1,8.853,9.384" transform="translate(-222.038 -42.623)" fill="#2e186b"/>
        <path id="Trazado_1009507" data-name="Trazado 1009507" d="M126.065,115.2a2.319,2.319,0,1,1-2.319-2.319,2.319,2.319,0,0,1,2.319,2.319" transform="translate(-82.249 -76.458)" fill="#2e186b"/>
        <path id="Trazado_1009508" data-name="Trazado 1009508" d="M123.05,117.152A2.651,2.651,0,1,1,125.7,114.5a2.654,2.654,0,0,1-2.651,2.651m0-4.638a1.987,1.987,0,1,0,1.987,1.987,1.989,1.989,0,0,0-1.987-1.987" transform="translate(-81.553 -75.762)" fill="#2e186b"/>
        <path id="Trazado_1009509" data-name="Trazado 1009509" d="M201.608,115.2a2.319,2.319,0,1,1-2.319-2.319,2.319,2.319,0,0,1,2.319,2.319" transform="translate(-133.419 -76.458)" fill="#2e186b"/>
        <path id="Trazado_1009510" data-name="Trazado 1009510" d="M198.592,117.152a2.651,2.651,0,1,1,2.651-2.651,2.654,2.654,0,0,1-2.651,2.651m0-4.638a1.987,1.987,0,1,0,1.987,1.987,1.989,1.989,0,0,0-1.987-1.987" transform="translate(-132.722 -75.762)" fill="#2e186b"/>
        <path id="Trazado_1009511" data-name="Trazado 1009511" d="M277.15,115.2a2.319,2.319,0,1,1-2.319-2.319,2.319,2.319,0,0,1,2.319,2.319" transform="translate(-184.587 -76.458)" fill="#2e186b"/>
        <path id="Trazado_1009512" data-name="Trazado 1009512" d="M274.134,117.152a2.651,2.651,0,1,1,2.651-2.651,2.654,2.654,0,0,1-2.651,2.651m0-4.638a1.987,1.987,0,1,0,1.987,1.987,1.989,1.989,0,0,0-1.987-1.987" transform="translate(-183.89 -75.762)" fill="#2e186b"/>
        <path id="Trazado_1009513" data-name="Trazado 1009513" d="M352.693,115.2a2.319,2.319,0,1,1-2.319-2.319,2.319,2.319,0,0,1,2.319,2.319" transform="translate(-235.757 -76.458)" fill="#2e186b"/>
        <path id="Trazado_1009514" data-name="Trazado 1009514" d="M349.677,117.152a2.651,2.651,0,1,1,2.651-2.651,2.654,2.654,0,0,1-2.651,2.651m0-4.638a1.987,1.987,0,1,0,1.987,1.987,1.989,1.989,0,0,0-1.987-1.987" transform="translate(-235.06 -75.762)" fill="#2e186b"/>
        <path id="Trazado_1009515" data-name="Trazado 1009515" d="M66.076,438.117l-.137,6.995c-.107,5.423-8.879,9.652-19.595,9.441-.417-.008-.827-.022-1.238-.048q-1.758-.088-3.418-.329a33.047,33.047,0,0,1-4.3-.912c-.628-.179-1.237-.376-1.823-.59-5.145-1.864-8.491-4.926-8.424-8.325l.138-6.995c-.107,5.423,8.492,9.994,19.2,10.2s19.488-4.018,19.595-9.441" transform="translate(-18.384 -296.244)" fill="#ff7af1"/>
        <path id="Trazado_1009516" data-name="Trazado 1009516" d="M66.26,438.117l-.05,2.542c-.107,5.423-8.879,9.652-19.595,9.441s-19.309-4.781-19.2-10.2l.05-2.542c-.107,5.423,8.492,9.994,19.2,10.2s19.488-4.018,19.595-9.441" transform="translate(-18.568 -296.244)" fill="#fff"/>
        <path id="Trazado_1009517" data-name="Trazado 1009517" d="M55.192,468.357l-.116,5.882c-.628-.179-1.237-.376-1.823-.589l.1-5.328Z" transform="translate(-36.072 -317.219)" fill="#fff"/>
        <path id="Trazado_1009518" data-name="Trazado 1009518" d="M75.764,471.992l-.116,5.929q-1.758-.088-3.418-.329l.112-5.668Z" transform="translate(-48.925 -319.661)" fill="#fff"/>
        <path id="Trazado_1009519" data-name="Trazado 1009519" d="M46.4,454.195c-.254,0-.508,0-.763-.007-10.877-.214-19.636-4.943-19.526-10.542l.137-7a.338.338,0,0,1,.339-.325l38.794.763a.332.332,0,0,1,.326.338l-.137,6.995c-.108,5.468-8.637,9.774-19.169,9.774m-19.494-17.2-.131,6.663c-.1,5.233,8.364,9.659,18.875,9.866s19.153-3.883,19.256-9.116l.131-6.663Z" transform="translate(-17.688 -295.546)" fill="#2e186b"/>
        <path id="Trazado_1009520" data-name="Trazado 1009520" d="M66.363,418.28c-.107,5.425-8.878,9.652-19.59,9.441s-19.311-4.779-19.2-10.2,8.878-9.652,19.59-9.441,19.311,4.779,19.2,10.2" transform="translate(-18.673 -276.407)" fill="#fff"/>
        <path id="Trazado_1009521" data-name="Trazado 1009521" d="M74.473,430.654c-.389,3.143-6.083,5.544-12.994,5.408-5.882-.115-10.817-2.035-12.31-4.554.389-3.143,6.082-5.544,12.994-5.408,5.881.116,10.817,2.035,12.31,4.554" transform="translate(-33.306 -288.617)" fill="#ff7af1"/>
        <path id="Trazado_1009522" data-name="Trazado 1009522" d="M73.514,426.281a2.3,2.3,0,0,1-.024.292c-1.493-2.519-6.428-4.438-12.31-4.554-6.912-.136-12.6,2.265-12.994,5.408a3.064,3.064,0,0,1-.468-1.653c.065-3.286,5.892-5.84,13.012-5.7S73.578,423,73.514,426.281" transform="translate(-32.322 -284.536)" fill="#fff"/>
        <path id="Trazado_1009523" data-name="Trazado 1009523" d="M46.847,427.364q-.388,0-.777-.008a31.409,31.409,0,0,1-13.809-3.185c-3.744-1.989-5.775-4.6-5.721-7.357s2.187-5.286,6.006-7.126a31.416,31.416,0,0,1,13.923-2.64,36.132,36.132,0,0,1,8.122,1.055.332.332,0,1,1-.163.644,35.467,35.467,0,0,0-7.972-1.035,30.744,30.744,0,0,0-13.622,2.574c-3.582,1.726-5.581,4.049-5.63,6.541s1.857,4.892,5.368,6.758a30.743,30.743,0,0,0,13.51,3.108A30.762,30.762,0,0,0,59.7,424.118c3.581-1.726,5.581-4.049,5.63-6.541.054-2.723-2.279-5.372-6.4-7.268a.332.332,0,0,1,.277-.6c4.372,2.011,6.846,4.885,6.787,7.885-.054,2.755-2.187,5.286-6.006,7.127a30.934,30.934,0,0,1-13.146,2.648" transform="translate(-17.976 -275.71)" fill="#2e186b"/>
        <path id="Trazado_1009524" data-name="Trazado 1009524" d="M60.374,431.621q-.29,0-.583-.006c-7.419-.146-13.176-3.021-13.107-6.545.034-1.727,1.476-3.3,4.06-4.433a.332.332,0,0,1,.266.608c-2.333,1.021-3.633,2.384-3.662,3.838-.061,3.1,5.527,5.732,12.456,5.869s12.616-2.275,12.677-5.374c.029-1.453-1.217-2.866-3.508-3.979a22.042,22.042,0,0,0-8.948-1.89,25.968,25.968,0,0,0-4.966.364.332.332,0,1,1-.115-.654,26.588,26.588,0,0,1,5.094-.374A22.71,22.71,0,0,1,69.262,421c2.537,1.232,3.916,2.862,3.882,4.589-.067,3.431-5.63,6.031-12.771,6.031" transform="translate(-31.621 -283.838)" fill="#2e186b"/>
        <path id="Trazado_1009525" data-name="Trazado 1009525" d="M39.964,389.481l-.137,6.995c-.107,5.423-8.879,9.652-19.595,9.441-.417-.008-.827-.022-1.238-.048-1.172-.059-2.313-.171-3.418-.329a32.986,32.986,0,0,1-4.3-.913c-.628-.179-1.237-.376-1.823-.589-5.145-1.864-8.491-4.926-8.424-8.325l.138-6.995c-.107,5.423,8.492,9.993,19.2,10.2s19.488-4.018,19.595-9.441" transform="translate(-0.697 -263.3)" fill="#ff7af1"/>
        <path id="Trazado_1009526" data-name="Trazado 1009526" d="M40.148,389.481l-.05,2.542c-.107,5.423-8.879,9.652-19.595,9.441S1.2,396.683,1.3,391.26l.05-2.542c-.107,5.423,8.492,9.993,19.2,10.2s19.488-4.018,19.595-9.441" transform="translate(-0.881 -263.3)" fill="#fff"/>
        <path id="Trazado_1009527" data-name="Trazado 1009527" d="M29.079,419.721l-.116,5.881c-.628-.179-1.237-.376-1.823-.589l.1-5.328Z" transform="translate(-18.384 -284.276)" fill="#fff"/>
        <path id="Trazado_1009528" data-name="Trazado 1009528" d="M49.652,423.355l-.116,5.929q-1.758-.088-3.418-.329l.112-5.668Z" transform="translate(-31.238 -286.716)" fill="#fff"/>
        <path id="Trazado_1009529" data-name="Trazado 1009529" d="M20.3,405.559q-.388,0-.778-.008a31.4,31.4,0,0,1-13.805-3.186c-3.743-1.989-5.775-4.6-5.72-7.357l.137-6.995a.339.339,0,0,1,.339-.326l38.794.763a.332.332,0,0,1,.326.338l-.137,6.995c-.054,2.755-2.187,5.286-6.006,7.126A30.936,30.936,0,0,1,20.3,405.559M.8,388.359l-.131,6.663c-.049,2.491,1.857,4.891,5.368,6.757a30.726,30.726,0,0,0,13.507,3.108,30.74,30.74,0,0,0,13.625-2.575c3.582-1.726,5.581-4.049,5.63-6.541l.131-6.663Z" transform="translate(0 -262.603)" fill="#2e186b"/>
        <path id="Trazado_1009530" data-name="Trazado 1009530" d="M40.251,369.643c-.107,5.425-8.878,9.652-19.59,9.441s-19.311-4.779-19.2-10.2,8.878-9.652,19.59-9.441,19.311,4.779,19.2,10.2" transform="translate(-0.986 -243.463)" fill="#fff"/>
        <path id="Trazado_1009531" data-name="Trazado 1009531" d="M48.36,382.018c-.389,3.143-6.083,5.544-12.994,5.408-5.882-.116-10.816-2.035-12.31-4.554.389-3.143,6.082-5.544,12.994-5.408,5.881.116,10.817,2.035,12.31,4.554" transform="translate(-15.618 -255.673)" fill="#ff7af1"/>
        <path id="Trazado_1009532" data-name="Trazado 1009532" d="M47.4,377.644a2.3,2.3,0,0,1-.024.291c-1.493-2.519-6.428-4.438-12.31-4.554-6.912-.136-12.6,2.265-12.994,5.408a3.065,3.065,0,0,1-.468-1.653c.065-3.286,5.892-5.839,13.012-5.7s12.848,2.921,12.783,6.207" transform="translate(-14.634 -251.591)" fill="#fff"/>
        <path id="Trazado_1009533" data-name="Trazado 1009533" d="M20.735,378.728q-.388,0-.777-.008C9.079,378.506.318,373.777.428,368.177c.055-2.755,2.187-5.286,6.006-7.126a31.41,31.41,0,0,1,13.923-2.64,36.131,36.131,0,0,1,8.122,1.055.332.332,0,1,1-.163.644,35.458,35.458,0,0,0-7.972-1.035,30.736,30.736,0,0,0-13.622,2.574c-3.582,1.726-5.581,4.049-5.63,6.541-.1,5.233,8.366,9.659,18.879,9.866a30.746,30.746,0,0,0,13.622-2.574c3.581-1.726,5.581-4.049,5.63-6.541.054-2.723-2.279-5.372-6.4-7.268a.332.332,0,0,1,.277-.6c4.372,2.011,6.847,4.885,6.787,7.884-.054,2.755-2.187,5.286-6.006,7.127a30.934,30.934,0,0,1-13.146,2.648" transform="translate(-0.289 -242.766)" fill="#2e186b"/>
        <path id="Trazado_1009534" data-name="Trazado 1009534" d="M34.261,382.984q-.29,0-.583-.006a22.71,22.71,0,0,1-9.225-1.956c-2.537-1.232-3.916-2.862-3.882-4.589s1.476-3.3,4.059-4.433a.332.332,0,1,1,.267.608c-2.333,1.022-3.633,2.384-3.662,3.838s1.217,2.866,3.508,3.979a22.042,22.042,0,0,0,8.948,1.89c6.925.134,12.616-2.275,12.677-5.374s-5.527-5.732-12.456-5.868a25.969,25.969,0,0,0-4.966.364.332.332,0,0,1-.115-.654,26.619,26.619,0,0,1,5.094-.374c7.419.146,13.176,3.021,13.107,6.546-.067,3.431-5.63,6.031-12.771,6.031" transform="translate(-13.933 -250.894)" fill="#2e186b"/>
        <path id="Trazado_1009535" data-name="Trazado 1009535" d="M29.99,28.046a1.5,1.5,0,0,1-.891-.294l-4.308-3.181a1.578,1.578,0,0,0-.938-.307H6.2a2.959,2.959,0,0,1-2.956-2.956V9.252A2.959,2.959,0,0,1,6.2,6.3H28.539A2.96,2.96,0,0,1,31.5,9.252V26.543a1.507,1.507,0,0,1-1.5,1.5M6.2,6.96A2.3,2.3,0,0,0,3.905,9.252V21.308A2.3,2.3,0,0,0,6.2,23.6H23.854a2.236,2.236,0,0,1,1.331.437l4.309,3.181a.839.839,0,0,0,1.337-.675V9.252A2.3,2.3,0,0,0,28.539,6.96Z" transform="translate(-2.195 -4.265)" fill="#2e186b"/>
        <path id="Trazado_1009536" data-name="Trazado 1009536" d="M64.213,29.278a2.69,2.69,0,0,1-2.687-2.687.332.332,0,0,1,.664,0,2.023,2.023,0,1,0,2.023-2.022A2.687,2.687,0,1,1,66.9,21.882a.332.332,0,0,1-.664,0A2.023,2.023,0,1,0,64.213,23.9a2.687,2.687,0,1,1,0,5.373" transform="translate(-41.675 -13.002)" fill="#2e186b"/>
        <path id="Trazado_1009537" data-name="Trazado 1009537" d="M69.156,28.2a.332.332,0,0,1-.332-.332V16.485a.332.332,0,0,1,.664,0V27.867a.332.332,0,0,1-.332.332" transform="translate(-46.618 -10.941)" fill="#2e186b"/>
        <path id="Trazado_1009538" data-name="Trazado 1009538" d="M27.59,20.453H16.2a.332.332,0,1,1,0-.664H27.59a.332.332,0,1,1,0,.664" transform="translate(-10.75 -13.404)" fill="#2e186b"/>
        <path id="Trazado_1009539" data-name="Trazado 1009539" d="M27.59,29.788H16.2a.332.332,0,1,1,0-.664H27.59a.332.332,0,1,1,0,.664" transform="translate(-10.75 -19.727)" fill="#2e186b"/>
        <path id="Trazado_1009540" data-name="Trazado 1009540" d="M27.59,39.123H16.2a.332.332,0,1,1,0-.664H27.59a.332.332,0,1,1,0,.664" transform="translate(-10.75 -26.05)" fill="#2e186b"/>
        <path id="Trazado_1009541" data-name="Trazado 1009541" d="M38.4,48.457H32.157a.332.332,0,1,1,0-.664H38.4a.332.332,0,0,1,0,.664" transform="translate(-21.557 -32.373)" fill="#2e186b"/>
        <path id="Trazado_1009542" data-name="Trazado 1009542" d="M400.127,340.378a30.954,30.954,0,1,1-30.954-30.953,30.954,30.954,0,0,1,30.954,30.953" transform="translate(-229.095 -209.591)" fill="#2e186b"/>
        <path id="Trazado_1009543" data-name="Trazado 1009543" d="M368.477,370.967a31.285,31.285,0,1,1,31.286-31.286,31.321,31.321,0,0,1-31.286,31.286m0-61.907A30.621,30.621,0,1,0,399.1,339.681a30.656,30.656,0,0,0-30.622-30.621" transform="translate(-228.399 -208.894)" fill="#2e186b"/>
        <path id="Trazado_1009544" data-name="Trazado 1009544" d="M385.721,340.378a30.953,30.953,0,1,1-30.954-30.953,30.954,30.954,0,0,1,30.954,30.953" transform="translate(-219.337 -209.591)" fill="#ff7af1"/>
        <path id="Trazado_1009545" data-name="Trazado 1009545" d="M377.545,319.425a30.951,30.951,0,0,0-43.733,43.733,30.951,30.951,0,1,1,43.733-43.733" transform="translate(-219.336 -209.591)" fill="#fff"/>
        <path id="Trazado_1009546" data-name="Trazado 1009546" d="M368.708,378.632a24.313,24.313,0,1,1,24.313-24.313,24.341,24.341,0,0,1-24.313,24.313" transform="translate(-233.278 -223.531)" fill="#fff"/>
        <path id="Trazado_1009547" data-name="Trazado 1009547" d="M386.489,337.754a24.3,24.3,0,0,0-34.32,34.37,24.3,24.3,0,1,1,34.32-34.37" transform="translate(-233.276 -223.531)" fill="#ff7af1"/>
        <path id="Trazado_1009548" data-name="Trazado 1009548" d="M382.649,385.932a17.673,17.673,0,1,1,17.673-17.673,17.693,17.693,0,0,1-17.673,17.673" transform="translate(-247.218 -237.471)" fill="#ff7af1"/>
        <path id="Trazado_1009549" data-name="Trazado 1009549" d="M382.649,385.932a17.673,17.673,0,1,1,17.673-17.673,17.693,17.693,0,0,1-17.673,17.673" transform="translate(-247.218 -237.471)" fill="#ff7af1"/>
        <path id="Trazado_1009550" data-name="Trazado 1009550" d="M395.755,356.423a17.66,17.66,0,0,0-24.944,24.944,17.662,17.662,0,1,1,24.944-24.944" transform="translate(-247.217 -237.471)" fill="#fff"/>
        <path id="Trazado_1009551" data-name="Trazado 1009551" d="M396.589,393.233A11.033,11.033,0,1,1,407.621,382.2a11.045,11.045,0,0,1-11.033,11.033" transform="translate(-261.158 -251.412)" fill="#fff"/>
        <path id="Trazado_1009552" data-name="Trazado 1009552" d="M404.742,374.773a11.029,11.029,0,0,0-15.074,16.016,11.03,11.03,0,1,1,15.074-16.016" transform="translate(-261.158 -251.412)" fill="#ff7af1"/>
        <path id="Trazado_1009553" data-name="Trazado 1009553" d="M368.011,378.267a24.645,24.645,0,1,1,24.645-24.645,24.673,24.673,0,0,1-24.645,24.645m0-48.626a23.981,23.981,0,1,0,23.981,23.981,24.008,24.008,0,0,0-23.981-23.981" transform="translate(-232.581 -222.834)" fill="#2e186b"/>
        <path id="Trazado_1009554" data-name="Trazado 1009554" d="M381.952,385.567a18,18,0,1,1,18-18,18.025,18.025,0,0,1-18,18m0-35.346a17.341,17.341,0,1,0,17.341,17.341,17.36,17.36,0,0,0-17.341-17.341" transform="translate(-246.521 -236.774)" fill="#2e186b"/>
        <path id="Trazado_1009555" data-name="Trazado 1009555" d="M395.892,392.867A11.365,11.365,0,1,1,407.256,381.5a11.378,11.378,0,0,1-11.365,11.365m0-22.065a10.7,10.7,0,1,0,10.7,10.7,10.713,10.713,0,0,0-10.7-10.7" transform="translate(-260.461 -250.715)" fill="#2e186b"/>
        <path id="Trazado_1009556" data-name="Trazado 1009556" d="M354.07,370.967a31.285,31.285,0,1,1,31.286-31.286,31.321,31.321,0,0,1-31.286,31.286m0-61.907a30.621,30.621,0,1,0,30.622,30.621A30.656,30.656,0,0,0,354.07,309.06" transform="translate(-218.64 -208.894)" fill="#2e186b"/>
        <path id="Trazado_1009557" data-name="Trazado 1009557" d="M419.052,319.036a.332.332,0,0,1-.285-.5l24.439-40.946a.332.332,0,0,1,.57.34l-24.439,40.946a.332.332,0,0,1-.286.162" transform="translate(-283.622 -187.916)" fill="#2e186b"/>
        <path id="Trazado_1009558" data-name="Trazado 1009558" d="M486.124,278.877l-2.354,3.809a.489.489,0,0,1-.308.222l-3.366.792a.5.5,0,0,1-.6-.371l-.793-3.366a.5.5,0,0,1,.06-.377l2.354-3.806a.5.5,0,0,1,.913.146l.562,2.394a.5.5,0,0,0,.6.371l2.394-.562a.5.5,0,0,1,.538.747" transform="translate(-324.242 -186.641)" fill="#2e186b"/>
        <path id="Trazado_1009559" data-name="Trazado 1009559" d="M479.282,283.348a.834.834,0,0,1-.807-.639l-.793-3.367a.828.828,0,0,1,.1-.622l2.357-3.811a.832.832,0,0,1,1.518.243l.563,2.4a.166.166,0,0,0,.2.124l2.4-.563a.83.83,0,0,1,.9,1.245l-2.354,3.809a.821.821,0,0,1-.518.371l-3.363.792a.82.82,0,0,1-.193.023m1.561-8.171a.161.161,0,0,0-.142.081l-2.353,3.805a.164.164,0,0,0-.02.121l.794,3.37a.17.17,0,0,0,.076.1.161.161,0,0,0,.124.02l3.368-.793a.159.159,0,0,0,.1-.072L485.144,278h0a.161.161,0,0,0-.006-.186.159.159,0,0,0-.173-.064l-2.4.563a.832.832,0,0,1-1-.616l-.563-2.4a.162.162,0,0,0-.137-.126l-.029,0" transform="translate(-323.544 -185.942)" fill="#2e186b"/>
        <path id="Trazado_1009560" data-name="Trazado 1009560" d="M417.292,397.735a.332.332,0,0,1-.324-.26l-.77-3.459a.332.332,0,1,1,.648-.144l.7,3.135,3.135-.7a.332.332,0,1,1,.144.648l-3.459.77a.333.333,0,0,1-.073.008" transform="translate(-281.909 -266.615)" fill="#2e186b"/>
        <path id="Trazado_1009561" data-name="Trazado 1009561" d="M264.57,228.936a.329.329,0,0,1-.235-.1l-2.767-2.767a.332.332,0,1,1,.469-.469l2.532,2.532,6.5-6.5a.332.332,0,0,1,.469.469l-6.734,6.734a.33.33,0,0,1-.235.1" transform="translate(-177.109 -150.059)" fill="#2e186b"/>
        <path id="Trazado_1009562" data-name="Trazado 1009562" d="M271.985,8.331a.332.332,0,0,1-.238-.563l7.1-7.316a.332.332,0,0,1,.477.463l-7.1,7.316a.331.331,0,0,1-.238.1" transform="translate(-184.005 -0.238)" fill="#2e186b"/>
        <path id="Trazado_1009563" data-name="Trazado 1009563" d="M248.435,11.927a.332.332,0,0,1-.238-.563l7.1-7.316a.332.332,0,0,1,.477.463l-7.1,7.316a.332.332,0,0,1-.238.1" transform="translate(-168.054 -2.674)" fill="#2e186b"/>
        <path id="Trazado_1009564" data-name="Trazado 1009564" d="M203.506,434.057a.332.332,0,0,1-.237-.564l8.989-9.181a.332.332,0,1,1,.474.465l-8.989,9.181a.33.33,0,0,1-.237.1" transform="translate(-137.621 -287.342)" fill="#2e186b"/>
        <path id="Trazado_1009565" data-name="Trazado 1009565" d="M205.877,456.132a.332.332,0,0,1-.233-.569l4.973-4.877a.332.332,0,0,1,.465.474l-4.973,4.877a.332.332,0,0,1-.233.095" transform="translate(-139.227 -305.21)" fill="#2e186b"/>
        <path id="Trazado_1009566" data-name="Trazado 1009566" d="M466.368,178.365a.332.332,0,0,1-.235-.567l6.5-6.5a.332.332,0,0,1,.469.469l-6.5,6.5a.33.33,0,0,1-.235.1" transform="translate(-315.671 -115.962)" fill="#2e186b"/>
        <path id="Trazado_1009567" data-name="Trazado 1009567" d="M468.147,179.982a.332.332,0,0,1-.232-.57l11.667-11.38a.332.332,0,0,1,.464.475l-11.667,11.38a.332.332,0,0,1-.232.094" transform="translate(-316.876 -113.754)" fill="#2e186b"/>
      </g>
    </g>
  </g>
</svg>
