<svg xmlns="http://www.w3.org/2000/svg" width="84" height="84" viewBox="0 0 84 84">
  <g id="Grupo_1182483" data-name="Grupo 1182483" transform="translate(-383.746 -8400)">
    <circle id="Elipse_13609" data-name="Elipse 13609" cx="42" cy="42" r="42" transform="translate(383.746 8400)" fill="#cfa9e6"/>
    <g id="Grupo_1183282" data-name="Grupo 1183282" transform="translate(353.743 8411.494)">
      <path id="Trazado_1008792" data-name="Trazado 1008792" d="M63.847,268.961H58.56v-8.782a.894.894,0,0,0-.894-.894H48.9c0-.034-.005-.069-.005-.1V239a.894.894,0,0,0-1.787,0v20.178a3.28,3.28,0,0,0,.966,2.335l8.252,8.263a3.28,3.28,0,0,0,2.338.969h5.181a.894.894,0,0,0,0-1.787ZM56.773,267.7l-6.614-6.622h6.614Z" transform="translate(0 -209.736)" fill="#53435c"/>
      <path id="Trazado_1008793" data-name="Trazado 1008793" d="M96,35.971a.894.894,0,0,0,.894-.894V32.771a2.567,2.567,0,0,0-2.564-2.564h-.454v-2.6a8,8,0,0,0-3.689-6.732V6.69a1.413,1.413,0,0,0-1.412-1.411H76.954a2.618,2.618,0,0,0-2.3-1.373h-3.9a3.813,3.813,0,1,0-7.624,0h-3.9a2.616,2.616,0,0,0-2.3,1.373H51.936A1.413,1.413,0,0,0,50.524,6.69v2h-2a1.413,1.413,0,0,0-1.411,1.412V25.1a.894.894,0,1,0,1.787,0V10.481h7.717v.464A1.355,1.355,0,0,0,57.967,12.3h4.464a.894.894,0,0,0,0-1.787H58.4V6.522a.829.829,0,0,1,.827-.828H74.653a.829.829,0,0,1,.828.828v3.988H66.6a.894.894,0,1,0,0,1.787h9.313a1.355,1.355,0,0,0,1.354-1.354v-.463h7.717v9.18a7.942,7.942,0,0,0-3.416,1.215V19.441a1.377,1.377,0,0,0-1.376-1.376H53.121a1.377,1.377,0,0,0-1.376,1.376v5.551a1.377,1.377,0,0,0,1.376,1.376H77.979a8.021,8.021,0,0,0-.1,1.239v2.6h-.455a2.567,2.567,0,0,0-2.564,2.564V45.84A2.567,2.567,0,0,0,77.427,48.4h7.559v10.82H68.018a.894.894,0,1,0,0,1.787H85.361A1.413,1.413,0,0,0,86.773,59.6v-2h2a1.413,1.413,0,0,0,1.412-1.411V48.4h4.143A2.567,2.567,0,0,0,96.9,45.84V39.248a.894.894,0,1,0-1.787,0V45.84a.778.778,0,0,1-.777.777h-2.2a3.168,3.168,0,0,0-2.324-3l-1.366-.377v-1.2a4.309,4.309,0,0,0,1.442-3.211v-.865a4.008,4.008,0,0,0-8.016,0v.865a4.309,4.309,0,0,0,1.442,3.211v1.2l-1.366.377a3.168,3.168,0,0,0-2.324,3h-2.2a.778.778,0,0,1-.777-.777V32.771a.778.778,0,0,1,.777-.777h16.9a.778.778,0,0,1,.777.777v2.306a.894.894,0,0,0,.894.894ZM56.615,8.693h-4.3V7.067h4.3Zm8.3-4.787v-.1a2.026,2.026,0,1,1,4.049.1ZM88.4,55.81H86.773V48.4H88.4V55.81ZM83.659,37.964a2.221,2.221,0,0,1,4.442,0v.865a2.518,2.518,0,0,1-1.273,2.186l-.388.221a1.139,1.139,0,0,1-1.119,0l-.389-.221h0a2.518,2.518,0,0,1-1.273-2.186v-.865Zm-1.839,7.73a1.386,1.386,0,0,1,.6-.349l1.559-.431a1.529,1.529,0,0,0,1.118-1.47v-.381a2.919,2.919,0,0,0,1.557,0v.381a1.529,1.529,0,0,0,1.119,1.47l1.559.431a1.379,1.379,0,0,1,1.011,1.272H81.412A1.391,1.391,0,0,1,81.82,45.694Zm-4.551-37V7.067H88.4V20.02a7.935,7.935,0,0,0-1.627-.358V10.105a1.413,1.413,0,0,0-1.411-1.412ZM53.533,24.581V19.853H79.782v2.574s0,.009,0,.013a8.007,8.007,0,0,0-1.3,2.14Zm31.452,5.626h-1.9v-2.6a2.8,2.8,0,0,1,1.9-2.644v5.243Zm3.685,0h-1.9V24.963a2.8,2.8,0,0,1,1.9,2.644Zm3.419,0H90.458v-2.6a4.579,4.579,0,1,0-9.158,0v2.6H79.67v-2.6a6.21,6.21,0,0,1,12.419,0v2.6Z" transform="translate(0 0)" fill="#53435c"/>
      <path id="Trazado_1008794" data-name="Trazado 1008794" d="M180.3,405.287l.727,1.246a1.639,1.639,0,0,0,1.421.82h.007a1.639,1.639,0,0,0,1.421-.808L185,404.668l.5.774a4.1,4.1,0,0,0,5.862,1.085l.445-.325a.894.894,0,1,0-1.054-1.443l-.445.325a2.312,2.312,0,0,1-3.306-.612l-.924-1.43a1.3,1.3,0,0,0-2.215.041l-1.4,2.352-.726-1.244a1.494,1.494,0,0,0-1.65-.693l-1.69.428q-.044-.177-.1-.353a3.138,3.138,0,0,0-5.053-1.476l-.229.2a.894.894,0,1,0,1.166,1.355l.23-.2a1.35,1.35,0,0,1,2.174.635q.044.145.079.292a6.841,6.841,0,0,0-3.58,2.7,2.437,2.437,0,0,0,1.108,3.614,2.69,2.69,0,0,0,3.311-1.083,7.441,7.441,0,0,0,1.107-3.9Zm-4.321,3.389a.908.908,0,0,1-1.117.366.649.649,0,0,1-.3-.963,5.058,5.058,0,0,1,2.229-1.844A5.65,5.65,0,0,1,175.983,408.676Z" transform="translate(-110.6 -353.511)" fill="#53435c"/>
      <path id="Trazado_1008795" data-name="Trazado 1008795" d="M188.81,349.44H180.95a.894.894,0,1,0,0,1.787h7.861a.894.894,0,0,0,0-1.787Z" transform="translate(-117.103 -307.799)" fill="#53435c"/>
      <path id="Trazado_1008796" data-name="Trazado 1008796" d="M89.088,351.227h6.783a.894.894,0,1,0,0-1.787H89.088a.894.894,0,1,0,0,1.787Z" transform="translate(-36.188 -307.799)" fill="#53435c"/>
      <path id="Trazado_1008797" data-name="Trazado 1008797" d="M89.088,306.143H107.9a.894.894,0,0,0,0-1.788H89.088a.894.894,0,0,0,0,1.788Z" transform="translate(-36.188 -268.088)" fill="#53435c"/>
      <path id="Trazado_1008798" data-name="Trazado 1008798" d="M89.088,261.061h6.969a.894.894,0,0,0,0-1.788H89.088a.894.894,0,0,0,0,1.788Z" transform="translate(-36.188 -228.377)" fill="#53435c"/>
    </g>
  </g>
</svg>
