<svg xmlns="http://www.w3.org/2000/svg" xmlns:xlink="http://www.w3.org/1999/xlink" width="292" height="212" viewBox="0 0 292 212">
  <defs>
    <clipPath id="clip-path">
      <rect id="Rectángulo_458724" data-name="Rectángulo 458724" width="164.162" height="166.413" fill="none"/>
    </clipPath>
  </defs>
  <g id="Grupo_1182542" data-name="Grupo 1182542" transform="translate(-184.63 -735)">
    <rect id="Rectángulo_457978" data-name="Rectángulo 457978" width="292" height="212" transform="translate(184.63 735)" fill="#cfa9e6"/>
    <g id="Grupo_1183514" data-name="Grupo 1183514" transform="translate(248.549 757.793)">
      <rect id="Rectángulo_458722" data-name="Rectángulo 458722" width="31.663" height="28.349" transform="translate(0.316 4.687)" fill="#fff"/>
      <g id="Grupo_1183513" data-name="Grupo 1183513">
        <g id="Grupo_1183512" data-name="Grupo 1183512" clip-path="url(#clip-path)">
          <path id="Trazado_1009095" data-name="Trazado 1009095" d="M31.98,43.279H.315A.315.315,0,0,1,0,42.965V14.615A.315.315,0,0,1,.315,14.3H31.98a.315.315,0,0,1,.315.315v28.35a.315.315,0,0,1-.315.315M.629,42.65H31.665V14.929H.629Z" transform="translate(0 -9.928)" fill="#2e186b"/>
          <path id="Trazado_1009096" data-name="Trazado 1009096" d="M81.731,58.322v6.061a.863.863,0,0,1-.863.863H78.511a.863.863,0,0,1-.863-.863V58.322a.863.863,0,0,1,.863-.863h2.356a.863.863,0,0,1,.863.863" transform="translate(-53.908 -39.891)" fill="#9654ff"/>
          <path id="Trazado_1009097" data-name="Trazado 1009097" d="M59.706,35.679V48.664a.863.863,0,0,1-.863.863H56.485a.863.863,0,0,1-.863-.863V35.679a.863.863,0,0,1,.863-.863h2.358a.863.863,0,0,1,.863.863" transform="translate(-38.616 -24.171)" fill="#9654ff"/>
          <path id="Trazado_1009098" data-name="Trazado 1009098" d="M15.659,45.428v10a.865.865,0,0,1-.865.863H12.438a.863.863,0,0,1-.863-.863v-10a.863.863,0,0,1,.863-.863h2.356a.865.865,0,0,1,.865.863" transform="translate(-8.036 -30.94)" fill="#9654ff"/>
          <path id="Trazado_1009099" data-name="Trazado 1009099" d="M37.684,24.672v16.35a.863.863,0,0,1-.863.863H34.464a.863.863,0,0,1-.863-.863V24.672a.863.863,0,0,1,.863-.863H36.82a.863.863,0,0,1,.863.863" transform="translate(-23.328 -16.53)" fill="#9654ff"/>
          <path id="Trazado_1009100" data-name="Trazado 1009100" d="M81.731,73.735v1.349a.863.863,0,0,1-.863.863H78.511a.863.863,0,0,1-.863-.863V73.735a.863.863,0,0,1,.863-.863h2.356a.863.863,0,0,1,.863.863" transform="translate(-53.908 -50.592)" fill="#ff7af1"/>
          <path id="Trazado_1009101" data-name="Trazado 1009101" d="M59.706,51.092v8.272a.863.863,0,0,1-.863.863H56.485a.863.863,0,0,1-.863-.863V51.092a.863.863,0,0,1,.863-.863h2.358a.863.863,0,0,1,.863.863" transform="translate(-38.616 -34.872)" fill="#ff7af1"/>
          <path id="Trazado_1009102" data-name="Trazado 1009102" d="M15.659,60.841v5.291a.865.865,0,0,1-.865.863H12.438a.863.863,0,0,1-.863-.863V60.841a.863.863,0,0,1,.863-.863h2.356a.865.865,0,0,1,.865.863" transform="translate(-8.036 -41.64)" fill="#ff7af1"/>
          <path id="Trazado_1009103" data-name="Trazado 1009103" d="M37.684,40.085V51.723a.863.863,0,0,1-.863.863H34.464a.863.863,0,0,1-.863-.863V40.085a.863.863,0,0,1,.863-.863H36.82a.863.863,0,0,1,.863.863" transform="translate(-23.328 -27.23)" fill="#ff7af1"/>
          <path id="Trazado_1009104" data-name="Trazado 1009104" d="M448.6,23.857c-.353,1.939-3.282,2.951-4.169,4.6-.918,1.706-.171,4.7-1.544,6.011s-4.351.432-6.078,1.264c-1.709.824-2.858,3.7-4.779,3.962-1.853.25-3.721-2.2-5.66-2.554s-4.55,1.284-6.2.4c-1.706-.918-1.768-4.018-3.078-5.391s-4.411-1.6-5.243-3.323c-.824-1.709.93-4.25.671-6.17-.25-1.853-2.636-3.831-2.283-5.77s3.282-2.951,4.169-4.6c.918-1.706.171-4.7,1.544-6.011s4.351-.432,6.078-1.264c1.709-.824,2.858-3.7,4.779-3.962,1.853-.25,3.721,2.2,5.66,2.554s4.55-1.284,6.2-.4c1.706.918,1.768,4.018,3.078,5.391s4.411,1.6,5.243,3.323c.824,1.709-.93,4.25-.671,6.17.25,1.853,2.636,3.831,2.283,5.77" transform="translate(-284.791 -0.714)" fill="#fff"/>
          <path id="Trazado_1009105" data-name="Trazado 1009105" d="M431.051,39.31a5.917,5.917,0,0,1-3.024-1.336c-.33-.222-.671-.451-1-.649a.315.315,0,1,1,.32-.541c.349.207.7.441,1.035.668,1.021.687,1.986,1.336,2.9,1.213.966-.13,1.777-1.08,2.56-2a7.3,7.3,0,0,1,2.124-1.935,7.377,7.377,0,0,1,2.868-.464c1.253-.043,2.436-.084,3.129-.745s.779-1.823.88-3.064a7.474,7.474,0,0,1,.6-2.868,7.187,7.187,0,0,1,2-2c.962-.747,1.956-1.519,2.135-2.5s-.48-2.057-1.117-3.095a7.192,7.192,0,0,1-1.168-2.577,7.469,7.469,0,0,1,.445-2.9c.342-1.2.665-2.328.255-3.178s-1.509-1.317-2.666-1.8A7.386,7.386,0,0,1,440.8,8.1,7.312,7.312,0,0,1,439.5,5.538c-.41-1.136-.834-2.31-1.693-2.772-.81-.436-1.942-.168-3.14.115A7.552,7.552,0,0,1,431.7,3.2a7.557,7.557,0,0,1-2.664-1.338c-1.021-.687-1.986-1.336-2.9-1.213-.966.13-1.776,1.08-2.56,2a7.3,7.3,0,0,1-2.124,1.935,7.371,7.371,0,0,1-2.868.464c-1.253.043-2.436.084-3.129.745s-.779,1.823-.88,3.064a7.469,7.469,0,0,1-.6,2.868,7.191,7.191,0,0,1-2,2c-.962.747-1.956,1.519-2.136,2.5s.48,2.057,1.117,3.095a7.193,7.193,0,0,1,1.168,2.577,7.47,7.47,0,0,1-.445,2.9c-.342,1.2-.665,2.328-.255,3.178s1.509,1.317,2.666,1.8a7.381,7.381,0,0,1,2.521,1.444,7.311,7.311,0,0,1,1.307,2.56c.121.335.246.682.38,1a.315.315,0,0,1-.581.242c-.14-.336-.268-.69-.391-1.032a6.785,6.785,0,0,0-1.17-2.339,6.97,6.97,0,0,0-2.307-1.3c-1.215-.505-2.471-1.028-2.991-2.106s-.142-2.366.217-3.624a7.059,7.059,0,0,0,.426-2.64,6.68,6.68,0,0,0-1.081-2.332c-.7-1.138-1.422-2.316-1.2-3.537s1.313-2.068,2.369-2.888a6.679,6.679,0,0,0,1.833-1.8,7.062,7.062,0,0,0,.53-2.621c.107-1.3.217-2.652,1.073-3.468s2.226-.873,3.541-.919a6.965,6.965,0,0,0,2.617-.4A6.786,6.786,0,0,0,423.1,2.234c.86-1.008,1.75-2.051,2.954-2.213,1.15-.156,2.259.592,3.333,1.315a7.142,7.142,0,0,0,2.425,1.241,7.14,7.14,0,0,0,2.706-.308c1.259-.3,2.562-.607,3.583-.057,1.07.576,1.536,1.866,1.986,3.112a6.789,6.789,0,0,0,1.17,2.339,6.968,6.968,0,0,0,2.308,1.3c1.215.505,2.471,1.028,2.991,2.107s.142,2.366-.217,3.624a7.052,7.052,0,0,0-.426,2.64A6.679,6.679,0,0,0,447,19.663c.7,1.139,1.422,2.316,1.2,3.537s-1.313,2.068-2.369,2.888a6.678,6.678,0,0,0-1.833,1.8,7.056,7.056,0,0,0-.53,2.621c-.107,1.3-.217,2.652-1.073,3.468s-2.226.873-3.541.918a6.963,6.963,0,0,0-2.617.4,6.786,6.786,0,0,0-1.919,1.777c-.86,1.008-1.75,2.051-2.954,2.214a2.352,2.352,0,0,1-.31.02" transform="translate(-284.076 0)" fill="#2e186b"/>
          <path id="Trazado_1009106" data-name="Trazado 1009106" d="M457.869,39.605a11.8,11.8,0,1,1-9.5-13.717,11.8,11.8,0,0,1,9.5,13.717" transform="translate(-301.63 -17.84)" fill="#fff"/>
          <path id="Trazado_1009107" data-name="Trazado 1009107" d="M445.568,48.9q-.19,0-.38-.006a.314.314,0,0,1-.3-.324.318.318,0,0,1,.324-.3,11.479,11.479,0,1,0-6.4-2.185.315.315,0,0,1-.37.509,12.113,12.113,0,1,1,7.127,2.311" transform="translate(-300.927 -17.128)" fill="#2e186b"/>
          <path id="Trazado_1009108" data-name="Trazado 1009108" d="M466.734,46.109l-1.049-.191-8.88,10.97-.061.075,1.049.191,8.88-10.97Z" transform="translate(-317.098 -31.879)" fill="#2e186b"/>
          <path id="Trazado_1009109" data-name="Trazado 1009109" d="M480.312,67.594a2.99,2.99,0,1,0,.485,2.239,2.895,2.895,0,0,0-.485-2.239m-.806,2a1.686,1.686,0,1,1-.273-1.256,1.626,1.626,0,0,1,.273,1.256" transform="translate(-329.666 -46.029)" fill="#2e186b"/>
          <path id="Trazado_1009110" data-name="Trazado 1009110" d="M457.579,46.181a3,3,0,1,0-1.242,1.925,2.91,2.91,0,0,0,1.242-1.925m-1.291-.235a1.686,1.686,0,1,1-.273-1.257,1.627,1.627,0,0,1,.273,1.257" transform="translate(-313.547 -29.602)" fill="#2e186b"/>
          <path id="Trazado_1009111" data-name="Trazado 1009111" d="M391.34,55.385l-11.151-.011-.14,141.011,11.151.011a10.072,10.072,0,0,0,10.079-10.059l.12-120.893A10.069,10.069,0,0,0,391.34,55.385" transform="translate(-263.852 -38.444)" fill="#2e186b"/>
          <path id="Trazado_1009112" data-name="Trazado 1009112" d="M390.5,196h-.01l-11.151-.011a.315.315,0,0,1-.314-.315l.14-141.011a.315.315,0,0,1,.315-.314h0l11.151.011A10.386,10.386,0,0,1,401,64.73l-.12,120.893A10.4,10.4,0,0,1,390.5,196m-10.846-.64,10.836.011h.01a9.765,9.765,0,0,0,9.755-9.745l.12-120.893a9.756,9.756,0,0,0-9.745-9.744l-10.836-.011Z" transform="translate(-263.138 -37.729)" fill="#2e186b"/>
          <path id="Trazado_1009113" data-name="Trazado 1009113" d="M193.175,65.26l-.12,120.893a10.072,10.072,0,0,1-10.079,10.059l-77.821-.077a10.059,10.059,0,0,1-10.059-10.079l.12-120.893a10.055,10.055,0,0,1,10.079-10.039l77.821.077A10.068,10.068,0,0,1,193.175,65.26" transform="translate(-66.02 -38.27)" fill="#fff"/>
          <path id="Trazado_1009114" data-name="Trazado 1009114" d="M107.388,196.137l-2.235,0a10.059,10.059,0,0,1-10.06-10.078l.12-120.893a10.056,10.056,0,0,1,10.08-10.039l2.235,0a10.056,10.056,0,0,0-10.08,10.04l-.12,120.893a10.059,10.059,0,0,0,10.06,10.077" transform="translate(-66.018 -38.271)" fill="#ff7af1"/>
          <path id="Trazado_1009115" data-name="Trazado 1009115" d="M193.33,101.352l.036-36.092A10.068,10.068,0,0,0,183.306,55.2l-77.821-.077A10.055,10.055,0,0,0,95.406,65.163l-.036,36.092" transform="translate(-66.211 -38.27)" fill="#ff7af1"/>
          <path id="Trazado_1009116" data-name="Trazado 1009116" d="M191.9,60.024a10.049,10.049,0,0,0-6.358-2.266l-77.821-.077A10.055,10.055,0,0,0,97.636,67.72L97.6,101.258l-2.235,0L95.4,65.164a10.056,10.056,0,0,1,10.08-10.039L183.3,55.2a10.085,10.085,0,0,1,8.59,4.822" transform="translate(-66.21 -38.271)" fill="#fff"/>
          <path id="Trazado_1009117" data-name="Trazado 1009117" d="M206.413,84.832l-.023,23.327A3.384,3.384,0,0,1,203,111.54l-70.7-.07a3.384,3.384,0,0,1-3.379-3.388l.023-23.327a3.384,3.384,0,0,1,3.386-3.382l70.7.07a3.384,3.384,0,0,1,3.379,3.389" transform="translate(-89.509 -56.494)" fill="#fff"/>
          <path id="Trazado_1009118" data-name="Trazado 1009118" d="M206.415,84.832v.39a3.187,3.187,0,0,0-.376-.021l-70.7-.07a3.382,3.382,0,0,0-3.383,3.382l-.023,22.935a3.382,3.382,0,0,1-3-3.368l.023-23.325a3.382,3.382,0,0,1,3.383-3.382l70.7.07a3.382,3.382,0,0,1,3.377,3.389" transform="translate(-89.512 -56.494)" fill="#ff7af1"/>
          <path id="Trazado_1009119" data-name="Trazado 1009119" d="M182.271,195.813h-.011l-77.821-.077a10.374,10.374,0,0,1-10.374-10.394l.12-120.893A10.386,10.386,0,0,1,104.568,54.1h.011l77.821.077a10.383,10.383,0,0,1,10.374,10.374h0l-.12,120.893a10.387,10.387,0,0,1-10.383,10.374m-77.7-141.088a9.755,9.755,0,0,0-9.755,9.725l-.12,120.893a9.745,9.745,0,0,0,9.745,9.764l77.821.077a9.758,9.758,0,0,0,9.764-9.745l.12-120.893A9.754,9.754,0,0,0,182.4,54.8l-77.821-.077Z" transform="translate(-65.305 -37.556)" fill="#2e186b"/>
          <path id="Trazado_1009120" data-name="Trazado 1009120" d="M192.614,100.952h0l-71.908-.071a.315.315,0,0,1,0-.629h0l71.593.071.035-35.777a9.753,9.753,0,0,0-9.745-9.744l-77.821-.077h-.01A9.756,9.756,0,0,0,95,64.449l-.035,35.777,14.086.014a.315.315,0,0,1,0,.629h0l-14.4-.014a.315.315,0,0,1-.314-.315l.036-36.092A10.386,10.386,0,0,1,104.76,54.1h.01l77.821.077a10.383,10.383,0,0,1,10.374,10.374l-.036,36.092a.314.314,0,0,1-.315.314" transform="translate(-65.496 -37.556)" fill="#2e186b"/>
          <path id="Trazado_1009121" data-name="Trazado 1009121" d="M202.293,111.141h0l-70.7-.07a3.7,3.7,0,0,1-3.693-3.7l.023-23.327a3.7,3.7,0,0,1,3.7-3.7h0l41.491.041a.315.315,0,0,1,0,.629h0l-41.491-.041h0a3.073,3.073,0,0,0-3.068,3.068l-.023,23.327a3.069,3.069,0,0,0,3.064,3.073l70.7.07h0a3.073,3.073,0,0,0,3.068-3.068l.023-23.327a3.073,3.073,0,0,0-3.064-3.074l-21.551-.021a.315.315,0,0,1,0-.63h0l21.551.021a3.7,3.7,0,0,1,3.693,3.7l-.023,23.327a3.7,3.7,0,0,1-3.7,3.7" transform="translate(-88.794 -55.779)" fill="#2e186b"/>
          <path id="Trazado_1009122" data-name="Trazado 1009122" d="M144.643,236.624a5.417,5.417,0,0,1-5.429,5.419l-6.174-.006a5.43,5.43,0,0,1-5.419-5.429,5.522,5.522,0,0,1,1.59-3.836,5.394,5.394,0,0,1,3.839-1.583l6.174.006a5.43,5.43,0,0,1,5.419,5.429" transform="translate(-88.602 -160.505)" fill="#fff"/>
          <path id="Trazado_1009123" data-name="Trazado 1009123" d="M144.641,236.623a4.863,4.863,0,0,1-.054.746,5.428,5.428,0,0,0-5.364-4.688l-6.175-.006a5.408,5.408,0,0,0-3.841,1.582,5.576,5.576,0,0,0-1.536,3.1,5.406,5.406,0,0,1-.053-.749,5.542,5.542,0,0,1,1.59-3.838,5.407,5.407,0,0,1,3.841-1.582l6.175.006a5.431,5.431,0,0,1,5.417,5.431" transform="translate(-88.6 -160.503)" fill="#9654ff"/>
          <path id="Trazado_1009124" data-name="Trazado 1009124" d="M213.406,236.692a5.417,5.417,0,0,1-5.429,5.419l-6.174-.006a5.43,5.43,0,0,1-5.419-5.429,5.523,5.523,0,0,1,1.59-3.836,5.394,5.394,0,0,1,3.839-1.583l6.174.006a5.43,5.43,0,0,1,5.419,5.429" transform="translate(-136.341 -160.552)" fill="#fff"/>
          <path id="Trazado_1009125" data-name="Trazado 1009125" d="M213.407,236.691a4.857,4.857,0,0,1-.054.746,5.429,5.429,0,0,0-5.367-4.688l-6.175-.006a5.407,5.407,0,0,0-3.838,1.582,5.556,5.556,0,0,0-1.536,3.1,5.408,5.408,0,0,1-.053-.749,5.527,5.527,0,0,1,1.59-3.838,5.405,5.405,0,0,1,3.838-1.582l6.174.006a5.432,5.432,0,0,1,5.42,5.431" transform="translate(-136.341 -160.55)" fill="#9654ff"/>
          <path id="Trazado_1009126" data-name="Trazado 1009126" d="M282.169,236.76a5.417,5.417,0,0,1-5.429,5.419l-6.174-.006a5.431,5.431,0,0,1-5.419-5.429,5.523,5.523,0,0,1,1.59-3.836,5.394,5.394,0,0,1,3.839-1.583l6.174.006a5.43,5.43,0,0,1,5.419,5.429" transform="translate(-184.08 -160.599)" fill="#fff"/>
          <path id="Trazado_1009127" data-name="Trazado 1009127" d="M282.163,236.76a4.857,4.857,0,0,1-.054.746,5.426,5.426,0,0,0-5.364-4.688l-6.175-.006a5.4,5.4,0,0,0-3.838,1.582,5.582,5.582,0,0,0-1.539,3.1,5.361,5.361,0,0,1-.053-.749,5.531,5.531,0,0,1,1.593-3.838,5.4,5.4,0,0,1,3.838-1.582l6.175.006a5.429,5.429,0,0,1,5.417,5.431" transform="translate(-184.076 -160.598)" fill="#9654ff"/>
          <path id="Trazado_1009128" data-name="Trazado 1009128" d="M351.8,334.323l-.007,7.488a3.44,3.44,0,0,1-3.433,3.426l-7.5-.008a3.422,3.422,0,0,1-3.405-3.433l.008-7.488a3.408,3.408,0,0,1,3.412-3.426l7.5.008a3.426,3.426,0,0,1,3.427,3.433" transform="translate(-234.274 -229.717)" fill="#ff7af1"/>
          <path id="Trazado_1009129" data-name="Trazado 1009129" d="M351.382,332.685a3.417,3.417,0,0,0-1.451-.324l-7.5-.008a3.41,3.41,0,0,0-3.414,3.426l-.007,7.488a3.429,3.429,0,0,0,.415,1.646,3.437,3.437,0,0,1-1.981-3.117l.007-7.488a3.41,3.41,0,0,1,3.414-3.429l7.5.007a3.433,3.433,0,0,1,3.016,1.8" transform="translate(-234.271 -229.715)" fill="#fff"/>
          <path id="Trazado_1009130" data-name="Trazado 1009130" d="M350.883,393.782l-.024,24.29a3.267,3.267,0,0,1-3.283,3.278l-6.968-.007a3.281,3.281,0,0,1-3.277-3.284l.024-24.29a3.294,3.294,0,0,1,3.283-3.277l6.968.007a3.28,3.28,0,0,1,3.277,3.283" transform="translate(-234.195 -271.102)" fill="#9654ff"/>
          <path id="Trazado_1009131" data-name="Trazado 1009131" d="M350.383,392.046a3.236,3.236,0,0,0-.611-.057l-6.968-.007a3.3,3.3,0,0,0-3.285,3.278l-.024,24.288a3.281,3.281,0,0,0,.49,1.734,3.279,3.279,0,0,1-2.658-3.225l.024-24.288a3.3,3.3,0,0,1,3.285-3.278l6.968.007a3.263,3.263,0,0,1,2.779,1.548" transform="translate(-234.193 -271.101)" fill="#fff"/>
          <path id="Trazado_1009132" data-name="Trazado 1009132" d="M138.5,241.643H138.5l-6.174-.006a5.745,5.745,0,0,1-5.733-5.744,5.862,5.862,0,0,1,1.68-4.056,5.7,5.7,0,0,1,4.058-1.677h.006l6.174.006a5.739,5.739,0,1,1-.005,11.477m-6.174-10.854a5.078,5.078,0,0,0-3.611,1.491,5.226,5.226,0,0,0-1.5,3.614,5.115,5.115,0,0,0,5.1,5.114l6.174.006h.005a5.109,5.109,0,0,0,0-10.219l-6.174-.006Zm11.6,5.121h0Z" transform="translate(-87.887 -159.79)" fill="#2e186b"/>
          <path id="Trazado_1009133" data-name="Trazado 1009133" d="M207.268,241.711h-.006l-6.174-.006a5.745,5.745,0,0,1-5.733-5.744,5.862,5.862,0,0,1,1.68-4.056,5.705,5.705,0,0,1,4.058-1.677h.006l6.174.006a5.739,5.739,0,1,1-.005,11.477m-6.175-10.854a5.077,5.077,0,0,0-3.611,1.491,5.225,5.225,0,0,0-1.5,3.614,5.115,5.115,0,0,0,5.1,5.114l6.174.006h.005a5.109,5.109,0,0,0,0-10.219l-6.174-.006Zm11.6,5.121h0Z" transform="translate(-135.626 -159.838)" fill="#2e186b"/>
          <path id="Trazado_1009134" data-name="Trazado 1009134" d="M276.03,241.78h-.006l-6.174-.006a5.745,5.745,0,0,1-5.733-5.745,5.862,5.862,0,0,1,1.68-4.056,5.706,5.706,0,0,1,4.058-1.677h.006l6.174.006a5.739,5.739,0,1,1-.006,11.477m-6.174-10.854a5.079,5.079,0,0,0-3.611,1.491,5.227,5.227,0,0,0-1.5,3.614,5.115,5.115,0,0,0,5.1,5.114l6.174.006h.005a5.109,5.109,0,0,0,0-10.219l-6.174-.006Zm11.6,5.121h0Z" transform="translate(-183.365 -159.885)" fill="#2e186b"/>
          <path id="Trazado_1009135" data-name="Trazado 1009135" d="M144.18,290.994a8.827,8.827,0,1,1-8.819-8.836,8.828,8.828,0,0,1,8.819,8.836" transform="translate(-87.841 -195.89)" fill="#fff"/>
          <path id="Trazado_1009136" data-name="Trazado 1009136" d="M144.1,366.657a8.827,8.827,0,1,1-8.819-8.836,8.827,8.827,0,0,1,8.819,8.836" transform="translate(-87.789 -248.42)" fill="#fff"/>
          <path id="Trazado_1009137" data-name="Trazado 1009137" d="M212.943,291.062a8.827,8.827,0,1,1-8.819-8.836,8.827,8.827,0,0,1,8.819,8.836" transform="translate(-135.58 -195.938)" fill="#fff"/>
          <path id="Trazado_1009138" data-name="Trazado 1009138" d="M212.868,366.726a8.827,8.827,0,1,1-8.819-8.836,8.827,8.827,0,0,1,8.819,8.836" transform="translate(-135.528 -248.468)" fill="#fff"/>
          <path id="Trazado_1009139" data-name="Trazado 1009139" d="M212.793,442.389a8.827,8.827,0,1,1-8.819-8.836,8.827,8.827,0,0,1,8.819,8.836" transform="translate(-135.476 -300.997)" fill="#fff"/>
          <path id="Trazado_1009140" data-name="Trazado 1009140" d="M281.706,291.13a8.827,8.827,0,1,1-8.819-8.836,8.827,8.827,0,0,1,8.819,8.836" transform="translate(-183.319 -195.985)" fill="#fff"/>
          <path id="Trazado_1009141" data-name="Trazado 1009141" d="M281.631,366.794a8.827,8.827,0,1,1-8.819-8.836,8.827,8.827,0,0,1,8.819,8.836" transform="translate(-183.267 -248.515)" fill="#fff"/>
          <path id="Trazado_1009142" data-name="Trazado 1009142" d="M281.556,442.457a8.827,8.827,0,1,1-8.819-8.836,8.827,8.827,0,0,1,8.819,8.836" transform="translate(-183.215 -301.045)" fill="#fff"/>
          <path id="Trazado_1009143" data-name="Trazado 1009143" d="M144.18,290.994a8.827,8.827,0,1,1-8.819-8.836,8.828,8.828,0,0,1,8.819,8.836" transform="translate(-87.841 -195.89)" fill="#fff"/>
          <path id="Trazado_1009144" data-name="Trazado 1009144" d="M144.1,366.657a8.827,8.827,0,1,1-8.819-8.836,8.827,8.827,0,0,1,8.819,8.836" transform="translate(-87.789 -248.42)" fill="#fff"/>
          <path id="Trazado_1009145" data-name="Trazado 1009145" d="M212.943,291.062a8.827,8.827,0,1,1-8.819-8.836,8.827,8.827,0,0,1,8.819,8.836" transform="translate(-135.58 -195.938)" fill="#fff"/>
          <path id="Trazado_1009146" data-name="Trazado 1009146" d="M212.868,366.726a8.827,8.827,0,1,1-8.819-8.836,8.827,8.827,0,0,1,8.819,8.836" transform="translate(-135.528 -248.468)" fill="#fff"/>
          <path id="Trazado_1009147" data-name="Trazado 1009147" d="M212.793,442.389a8.827,8.827,0,1,1-8.819-8.836,8.827,8.827,0,0,1,8.819,8.836" transform="translate(-135.476 -300.997)" fill="#fff"/>
          <path id="Trazado_1009148" data-name="Trazado 1009148" d="M281.706,291.13a8.827,8.827,0,1,1-8.819-8.836,8.827,8.827,0,0,1,8.819,8.836" transform="translate(-183.319 -195.985)" fill="#fff"/>
          <path id="Trazado_1009149" data-name="Trazado 1009149" d="M281.631,366.794a8.827,8.827,0,1,1-8.819-8.836,8.827,8.827,0,0,1,8.819,8.836" transform="translate(-183.267 -248.515)" fill="#fff"/>
          <path id="Trazado_1009150" data-name="Trazado 1009150" d="M281.556,442.457a8.827,8.827,0,1,1-8.819-8.836,8.827,8.827,0,0,1,8.819,8.836" transform="translate(-183.215 -301.045)" fill="#fff"/>
          <path id="Trazado_1009151" data-name="Trazado 1009151" d="M142.148,285.358a8.721,8.721,0,0,0-4.675-1.349,8.828,8.828,0,0,0-6.813,14.455,8.827,8.827,0,1,1,11.488-13.106" transform="translate(-87.838 -195.89)" fill="#9654ff"/>
          <path id="Trazado_1009152" data-name="Trazado 1009152" d="M142.072,361.023a8.722,8.722,0,0,0-4.675-1.349,8.825,8.825,0,0,0-6.806,14.458,8.826,8.826,0,1,1,11.482-13.109" transform="translate(-87.785 -248.421)" fill="#9654ff"/>
          <path id="Trazado_1009153" data-name="Trazado 1009153" d="M210.918,285.425a8.826,8.826,0,0,0-11.488,13.106,8.827,8.827,0,1,1,11.488-13.106" transform="translate(-135.58 -195.937)" fill="#9654ff"/>
          <path id="Trazado_1009154" data-name="Trazado 1009154" d="M210.843,361.091A8.825,8.825,0,0,0,199.362,374.2a8.828,8.828,0,1,1,11.482-13.112" transform="translate(-135.528 -248.469)" fill="#9654ff"/>
          <path id="Trazado_1009155" data-name="Trazado 1009155" d="M210.762,436.75a8.825,8.825,0,0,0-11.482,13.109,8.825,8.825,0,1,1,11.482-13.109" transform="translate(-135.476 -301)" fill="#9654ff"/>
          <path id="Trazado_1009156" data-name="Trazado 1009156" d="M279.681,285.493A8.825,8.825,0,0,0,268.2,298.6a8.826,8.826,0,1,1,11.485-13.106" transform="translate(-183.322 -195.984)" fill="#9654ff"/>
          <path id="Trazado_1009157" data-name="Trazado 1009157" d="M279.606,361.159a8.824,8.824,0,0,0-11.478,13.112,8.827,8.827,0,1,1,11.478-13.112" transform="translate(-183.269 -248.516)" fill="#9654ff"/>
          <path id="Trazado_1009158" data-name="Trazado 1009158" d="M279.526,436.819a8.825,8.825,0,0,0-11.479,13.109,8.824,8.824,0,1,1,11.479-13.109" transform="translate(-183.218 -301.047)" fill="#9654ff"/>
          <path id="Trazado_1009159" data-name="Trazado 1009159" d="M134.638,299.413h-.009a9.142,9.142,0,0,1,.009-18.284h.009a9.142,9.142,0,0,1-.009,18.284m0-17.655a8.513,8.513,0,0,0-.008,17.026h.009a8.513,8.513,0,0,0,.008-17.026Zm8.828,8.522h0Z" transform="translate(-87.127 -195.176)" fill="#2e186b"/>
          <path id="Trazado_1009160" data-name="Trazado 1009160" d="M134.563,375.076h-.009a9.142,9.142,0,0,1,.009-18.284h.009a9.142,9.142,0,0,1-.009,18.284m0-17.655a8.513,8.513,0,0,0-.008,17.026h.009a8.513,8.513,0,0,0,.008-17.026Zm8.828,8.522h0Z" transform="translate(-87.074 -247.706)" fill="#2e186b"/>
          <path id="Trazado_1009161" data-name="Trazado 1009161" d="M203.4,299.481h-.009A9.142,9.142,0,0,1,203.4,281.2h.009a9.142,9.142,0,0,1-.009,18.284m0-17.655a8.513,8.513,0,0,0-.008,17.026h.009a8.513,8.513,0,0,0,.008-17.026Zm8.828,8.522h0Z" transform="translate(-134.866 -195.223)" fill="#2e186b"/>
          <path id="Trazado_1009162" data-name="Trazado 1009162" d="M203.326,375.145h-.009a9.142,9.142,0,0,1,.009-18.284h.009a9.142,9.142,0,0,1-.009,18.284m0-17.654a8.513,8.513,0,0,0-.008,17.026h.009a8.513,8.513,0,0,0,.008-17.026Zm8.828,8.521h0Z" transform="translate(-134.814 -247.753)" fill="#2e186b"/>
          <path id="Trazado_1009163" data-name="Trazado 1009163" d="M203.251,450.808h-.009a9.142,9.142,0,0,1,.009-18.284h.009a9.142,9.142,0,0,1-.009,18.284m0-17.655a8.513,8.513,0,0,0-.008,17.026h.009a8.513,8.513,0,0,0,.008-17.026Z" transform="translate(-134.762 -300.283)" fill="#2e186b"/>
          <path id="Trazado_1009164" data-name="Trazado 1009164" d="M144.242,442.389a8.827,8.827,0,1,1-8.819-8.836,8.827,8.827,0,0,1,8.819,8.836" transform="translate(-87.884 -300.997)" fill="#fff"/>
          <path id="Trazado_1009165" data-name="Trazado 1009165" d="M144.242,442.389a8.827,8.827,0,1,1-8.819-8.836,8.827,8.827,0,0,1,8.819,8.836" transform="translate(-87.884 -300.997)" fill="#fff"/>
          <path id="Trazado_1009166" data-name="Trazado 1009166" d="M142.211,436.75a8.825,8.825,0,0,0-11.482,13.109,8.825,8.825,0,1,1,11.482-13.109" transform="translate(-87.884 -301)" fill="#9654ff"/>
          <path id="Trazado_1009167" data-name="Trazado 1009167" d="M134.7,450.808h-.009a9.142,9.142,0,0,1,.009-18.284h.009a9.142,9.142,0,0,1-.009,18.284m0-17.655a8.513,8.513,0,0,0-.008,17.026h.009a8.513,8.513,0,0,0,.008-17.026Z" transform="translate(-87.17 -300.283)" fill="#2e186b"/>
          <path id="Trazado_1009168" data-name="Trazado 1009168" d="M272.164,299.549h-.009a9.142,9.142,0,0,1,.009-18.284h.009a9.142,9.142,0,0,1-.009,18.284m0-17.655a8.513,8.513,0,0,0-.008,17.026h.009a8.513,8.513,0,0,0,.008-17.026Zm8.828,8.522h0Z" transform="translate(-182.605 -195.27)" fill="#2e186b"/>
          <path id="Trazado_1009169" data-name="Trazado 1009169" d="M272.089,375.212h-.009a9.142,9.142,0,0,1,.009-18.284h.009a9.142,9.142,0,0,1-.009,18.284m0-17.654a8.513,8.513,0,0,0-.008,17.025h.009a8.513,8.513,0,0,0,.008-17.025Zm8.828,8.521h0Z" transform="translate(-182.553 -247.8)" fill="#2e186b"/>
          <path id="Trazado_1009170" data-name="Trazado 1009170" d="M272.014,450.876H272a9.142,9.142,0,0,1,.009-18.284h.009a9.142,9.142,0,0,1-.009,18.284m0-17.655a8.513,8.513,0,0,0-.008,17.026h.009a8.513,8.513,0,0,0,.008-17.026Z" transform="translate(-182.501 -300.33)" fill="#2e186b"/>
          <path id="Trazado_1009171" data-name="Trazado 1009171" d="M351.866,234.831l-.02,19.681a3.44,3.44,0,0,1-3.434,3.426l-7.5-.008A3.422,3.422,0,0,1,337.5,254.5l.02-19.681a3.408,3.408,0,0,1,3.412-3.426l7.5.008a3.426,3.426,0,0,1,3.427,3.433" transform="translate(-234.315 -160.644)" fill="#fff"/>
          <path id="Trazado_1009172" data-name="Trazado 1009172" d="M351.641,233.614a3.406,3.406,0,0,0-1.482-.337l-7.5-.007a3.411,3.411,0,0,0-3.414,3.429l-.02,19.68a3.4,3.4,0,0,0,.221,1.217,3.43,3.43,0,0,1-1.943-3.1l.02-19.68a3.41,3.41,0,0,1,3.414-3.429l7.5.007a3.422,3.422,0,0,1,3.2,2.219" transform="translate(-234.312 -160.643)" fill="#9654ff"/>
          <path id="Trazado_1009173" data-name="Trazado 1009173" d="M347.7,257.539h0l-7.5-.008a3.687,3.687,0,0,1-2.634-1.1,3.732,3.732,0,0,1-1.086-2.645l.02-19.681a3.739,3.739,0,0,1,3.723-3.741h0l7.5.008a3.749,3.749,0,0,1,3.741,3.748l-.02,19.681a3.749,3.749,0,0,1-3.745,3.741m-7.484-26.549a3.108,3.108,0,0,0-3.094,3.112l-.019,19.681a3.106,3.106,0,0,0,.9,2.2,3.06,3.06,0,0,0,2.188.917l7.5.008h0a3.119,3.119,0,0,0,3.116-3.112l.02-19.681A3.119,3.119,0,0,0,347.724,231l-7.5-.008Zm10.934,3.126h0Z" transform="translate(-233.6 -159.93)" fill="#2e186b"/>
          <path id="Trazado_1009174" data-name="Trazado 1009174" d="M347.643,344.837h0l-7.5-.007a3.738,3.738,0,0,1-3.72-3.748l.007-7.488a3.732,3.732,0,0,1,1.091-2.651,3.693,3.693,0,0,1,2.632-1.09h0l7.5.008a3.749,3.749,0,0,1,3.741,3.748l-.008,7.488a3.749,3.749,0,0,1-3.745,3.741m-7.5-14.355a3.067,3.067,0,0,0-2.187.9,3.106,3.106,0,0,0-.907,2.207l-.007,7.488a3.109,3.109,0,0,0,3.091,3.118l7.5.007h0a3.119,3.119,0,0,0,3.116-3.112l.008-7.488a3.119,3.119,0,0,0-3.112-3.118l-7.5-.008Zm10.934,3.126h0Z" transform="translate(-233.559 -229.003)" fill="#2e186b"/>
          <path id="Trazado_1009175" data-name="Trazado 1009175" d="M346.865,420.951h0l-6.968-.007a3.595,3.595,0,0,1-3.591-3.6l.024-24.29a3.609,3.609,0,0,1,3.595-3.591h0l6.968.007a3.594,3.594,0,0,1,3.591,3.6l-.024,24.29a3.581,3.581,0,0,1-3.594,3.592m-6.944-30.858a2.979,2.979,0,0,0-2.965,2.963l-.024,24.29a2.966,2.966,0,0,0,2.963,2.969l6.968.007h0a2.952,2.952,0,0,0,2.965-2.963l.024-24.29a2.965,2.965,0,0,0-2.962-2.968l-6.968-.007Z" transform="translate(-233.481 -270.388)" fill="#2e186b"/>
          <path id="Trazado_1009176" data-name="Trazado 1009176" d="M172.52,114.191l.014-1.117a5.932,5.932,0,0,0,2.21-.488,2.533,2.533,0,0,0,.952-1.694l1.151.014-.142,11.551-1.556-.02.1-8.213Z" transform="translate(-119.773 -76.988)" fill="#2e186b"/>
          <path id="Trazado_1009177" data-name="Trazado 1009177" d="M199.522,119.958a5.02,5.02,0,0,1,2.127-1.991l1.566-.88a7.308,7.308,0,0,0,1.479-1.019,2.263,2.263,0,0,0,.1-3.146,2.213,2.213,0,0,0-1.613-.615,2.117,2.117,0,0,0-2.088,1.109,4.059,4.059,0,0,0-.361,1.681l-1.482-.018a5.207,5.207,0,0,1,.589-2.464,3.508,3.508,0,0,1,3.366-1.644,3.442,3.442,0,0,1,3.789,3.522,3.26,3.26,0,0,1-1.009,2.369,9.6,9.6,0,0,1-2.05,1.368l-1.117.6a7.2,7.2,0,0,0-1.258.819,3.037,3.037,0,0,0-1.04,1.551l6.334.078-.017,1.377-7.963-.1a6.766,6.766,0,0,1,.652-2.6" transform="translate(-138.067 -77.041)" fill="#2e186b"/>
          <path id="Trazado_1009178" data-name="Trazado 1009178" d="M233.9,123.039l.035-2.835-5.087-.062.017-1.426,5.4-7.306,1.231.015-.093,7.526,1.709.021-.016,1.272-1.709-.021-.035,2.835Zm.026-4.107.065-5.257-3.783,5.212Z" transform="translate(-158.876 -77.347)" fill="#2e186b"/>
          <path id="Trazado_1009179" data-name="Trazado 1009179" d="M260.911,120.816a2.022,2.022,0,0,0,1.137,1.74,2.8,2.8,0,0,0,1.2.258,2.25,2.25,0,0,0,1.93-.8,2.965,2.965,0,0,0,.646-1.823,2.394,2.394,0,0,0-.718-1.889,2.573,2.573,0,0,0-1.77-.686,2.681,2.681,0,0,0-1.3.276,2.768,2.768,0,0,0-.929.8l-1.263-.088.96-6.235,6.027.074-.017,1.409-4.933-.061-.534,3.218a3.614,3.614,0,0,1,.775-.452,3.9,3.9,0,0,1,1.5-.249,3.836,3.836,0,0,1,2.693,1.062,3.4,3.4,0,0,1,1.078,2.622,4.479,4.479,0,0,1-1.052,2.887,3.931,3.931,0,0,1-3.26,1.216,4.133,4.133,0,0,1-2.5-.829A3.163,3.163,0,0,1,259.4,120.8Z" transform="translate(-180.088 -78.01)" fill="#2e186b"/>
          <rect id="Rectángulo_458723" data-name="Rectángulo 458723" width="1.766" height="1.693" transform="matrix(0.012, -1, 1, 0.012, 89.381, 45.868)" fill="#2e186b"/>
          <path id="Trazado_1009180" data-name="Trazado 1009180" d="M311.974,114.286a8.3,8.3,0,0,1,.729,3.938,9.455,9.455,0,0,1-.753,3.9,3.45,3.45,0,0,1-3.365,2.178,3.342,3.342,0,0,1-3.088-1.852,8.311,8.311,0,0,1-.8-4.077,10.045,10.045,0,0,1,.552-3.388,3.492,3.492,0,0,1,3.491-2.6,3.428,3.428,0,0,1,3.234,1.895M310.413,122a7.271,7.271,0,0,0,.718-3.734,9.244,9.244,0,0,0-.446-3.258,1.849,1.849,0,0,0-1.871-1.3,1.974,1.974,0,0,0-1.9,1.188,8.364,8.364,0,0,0-.639,3.561,8.764,8.764,0,0,0,.346,2.856,2.069,2.069,0,0,0,3.791.686" transform="translate(-211.538 -78.028)" fill="#2e186b"/>
          <path id="Trazado_1009181" data-name="Trazado 1009181" d="M342.151,114.656a8.3,8.3,0,0,1,.729,3.938,9.465,9.465,0,0,1-.753,3.9,3.45,3.45,0,0,1-3.365,2.178,3.341,3.341,0,0,1-3.088-1.853,8.309,8.309,0,0,1-.8-4.077,10.047,10.047,0,0,1,.552-3.388,3.492,3.492,0,0,1,3.491-2.6,3.428,3.428,0,0,1,3.234,1.895m-1.561,7.71a7.271,7.271,0,0,0,.718-3.734,9.245,9.245,0,0,0-.446-3.259,1.849,1.849,0,0,0-1.871-1.3,1.973,1.973,0,0,0-1.9,1.188,8.362,8.362,0,0,0-.639,3.561,8.753,8.753,0,0,0,.345,2.856,2.069,2.069,0,0,0,3.791.687" transform="translate(-232.488 -78.285)" fill="#2e186b"/>
          <path id="Trazado_1009182" data-name="Trazado 1009182" d="M407.282,481.253l-.149,7.58c-.116,5.877-9.621,10.459-21.233,10.231-.452-.009-.9-.024-1.341-.052q-1.905-.1-3.7-.357a35.783,35.783,0,0,1-4.66-.989c-.68-.194-1.341-.407-1.975-.639-5.575-2.02-9.2-5.338-9.129-9.021l.149-7.58c-.116,5.877,9.2,10.83,20.809,11.058s21.118-4.354,21.234-10.231" transform="translate(-253.466 -333.539)" fill="#ff7af1"/>
          <path id="Trazado_1009183" data-name="Trazado 1009183" d="M407.5,481.253l-.054,2.755c-.116,5.877-9.622,10.459-21.234,10.231s-20.924-5.181-20.808-11.058l.054-2.755c-.116,5.877,9.2,10.83,20.809,11.058s21.118-4.354,21.233-10.231" transform="translate(-253.682 -333.539)" fill="#fff"/>
          <path id="Trazado_1009184" data-name="Trazado 1009184" d="M397.051,515.878l-.125,6.374c-.68-.194-1.341-.407-1.975-.639l.113-5.774Z" transform="translate(-274.198 -358.125)" fill="#fff"/>
          <path id="Trazado_1009185" data-name="Trazado 1009185" d="M420.481,520.033l-.126,6.425q-1.905-.1-3.7-.357l.121-6.142Z" transform="translate(-289.263 -360.986)" fill="#fff"/>
          <path id="Trazado_1009186" data-name="Trazado 1009186" d="M386.005,498.672q-.412,0-.827-.008c-11.762-.231-21.234-5.336-21.115-11.379l.149-7.58a.318.318,0,0,1,.321-.308l42.04.827a.314.314,0,0,1,.309.32l-.149,7.58c-.116,5.9-9.339,10.548-20.727,10.548m-21.171-18.64-.143,7.266c-.112,5.7,9.083,10.512,20.5,10.737s20.8-4.227,20.912-9.923l.143-7.265Z" transform="translate(-252.752 -332.824)" fill="#2e186b"/>
          <path id="Trazado_1009187" data-name="Trazado 1009187" d="M407.618,458c-.116,5.879-9.62,10.459-21.229,10.231s-20.926-5.179-20.811-11.058,9.62-10.459,21.229-10.231,20.926,5.179,20.811,11.058" transform="translate(-253.805 -310.289)" fill="#fff"/>
          <path id="Trazado_1009188" data-name="Trazado 1009188" d="M417.7,472.491c-.422,3.406-6.591,6.008-14.081,5.86-6.374-.125-11.721-2.205-13.339-4.935.422-3.406,6.591-6.008,14.081-5.86,6.374.125,11.722,2.205,13.34,4.935" transform="translate(-270.955 -324.601)" fill="#ff7af1"/>
          <path id="Trazado_1009189" data-name="Trazado 1009189" d="M416.573,467.39a2.5,2.5,0,0,1-.026.316c-1.618-2.729-6.965-4.81-13.339-4.935-7.49-.147-13.659,2.455-14.081,5.86a3.323,3.323,0,0,1-.507-1.791c.07-3.561,6.385-6.328,14.1-6.176s13.923,3.165,13.853,6.726" transform="translate(-269.802 -319.816)" fill="#fff"/>
          <path id="Trazado_1009190" data-name="Trazado 1009190" d="M386.51,467.843q-.42,0-.841-.008a33.99,33.99,0,0,1-14.944-3.447c-4.041-2.147-6.234-4.964-6.175-7.932.119-6.043,9.782-10.77,21.55-10.539a39.074,39.074,0,0,1,8.792,1.142.315.315,0,1,1-.154.61,38.478,38.478,0,0,0-8.65-1.123c-11.422-.223-20.8,4.227-20.908,9.923-.054,2.719,2.021,5.334,5.841,7.364a36.687,36.687,0,0,0,29.442.579c3.9-1.878,6.073-4.41,6.127-7.128.058-2.97-2.48-5.856-6.963-7.918a.315.315,0,0,1,.263-.572c4.721,2.172,7.392,5.271,7.329,8.5-.058,2.968-2.361,5.7-6.483,7.683a33.471,33.471,0,0,1-14.226,2.865" transform="translate(-253.09 -309.575)" fill="#2e186b"/>
          <path id="Trazado_1009191" data-name="Trazado 1009191" d="M402.359,473.174q-.306,0-.615-.006c-8.014-.157-14.234-3.253-14.159-7.047.037-1.853,1.589-3.544,4.372-4.763a.315.315,0,1,1,.252.576c-2.545,1.114-3.964,2.606-4,4.2-.067,3.384,6.008,6.257,13.542,6.405a23.9,23.9,0,0,0,9.788-1.669c2.545-1.114,3.964-2.606,4-4.2.067-3.384-6.008-6.257-13.542-6.405a28.181,28.181,0,0,0-5.391.4.315.315,0,0,1-.108-.62,28.841,28.841,0,0,1,5.511-.4c8.014.157,14.234,3.253,14.159,7.047-.036,1.853-1.589,3.544-4.372,4.763a24.125,24.125,0,0,1-9.438,1.727" transform="translate(-269.083 -319.102)" fill="#2e186b"/>
          <path id="Trazado_1009192" data-name="Trazado 1009192" d="M432.472,425.634l-.149,7.58c-.116,5.877-9.621,10.459-21.233,10.231-.452-.009-.9-.024-1.341-.052q-1.905-.1-3.7-.357a35.784,35.784,0,0,1-4.66-.989c-.68-.194-1.341-.407-1.975-.639-5.575-2.02-9.2-5.338-9.129-9.021l.149-7.58c-.116,5.877,9.2,10.83,20.809,11.058s21.118-4.354,21.234-10.231" transform="translate(-270.955 -294.926)" fill="#ff7af1"/>
          <path id="Trazado_1009193" data-name="Trazado 1009193" d="M432.688,425.634l-.054,2.755c-.116,5.877-9.622,10.459-21.234,10.231s-20.924-5.181-20.808-11.058l.054-2.755c-.116,5.877,9.2,10.83,20.809,11.058s21.118-4.354,21.233-10.231" transform="translate(-271.17 -294.926)" fill="#fff"/>
          <path id="Trazado_1009194" data-name="Trazado 1009194" d="M422.241,460.259l-.125,6.373c-.68-.194-1.341-.407-1.975-.639l.113-5.774Z" transform="translate(-291.686 -319.511)" fill="#fff"/>
          <path id="Trazado_1009195" data-name="Trazado 1009195" d="M445.671,464.414l-.126,6.425c-1.27-.064-2.507-.185-3.7-.357l.121-6.142Z" transform="translate(-306.752 -322.372)" fill="#fff"/>
          <path id="Trazado_1009196" data-name="Trazado 1009196" d="M411.208,443.052q-.42,0-.841-.008a33.979,33.979,0,0,1-14.94-3.447c-4.04-2.147-6.233-4.964-6.175-7.931l.149-7.58a.314.314,0,0,1,.1-.22.3.3,0,0,1,.224-.088l42.04.827a.315.315,0,0,1,.309.321l-.149,7.58c-.058,2.968-2.361,5.7-6.483,7.682a33.485,33.485,0,0,1-14.23,2.865m-21.185-18.64-.143,7.265c-.053,2.718,2.021,5.333,5.841,7.363a36.68,36.68,0,0,0,29.443.579c3.9-1.878,6.074-4.409,6.127-7.127l.143-7.266Z" transform="translate(-270.24 -294.21)" fill="#2e186b"/>
          <path id="Trazado_1009197" data-name="Trazado 1009197" d="M432.808,402.384c-.116,5.879-9.62,10.459-21.229,10.231s-20.926-5.179-20.811-11.058S400.389,391.1,412,391.326s20.926,5.179,20.811,11.058" transform="translate(-271.293 -271.676)" fill="#fff"/>
          <path id="Trazado_1009198" data-name="Trazado 1009198" d="M442.891,416.872c-.422,3.406-6.591,6.008-14.081,5.86-6.374-.125-11.722-2.205-13.339-4.935.422-3.406,6.591-6.008,14.081-5.86,6.374.125,11.722,2.205,13.34,4.935" transform="translate(-288.444 -285.987)" fill="#ff7af1"/>
          <path id="Trazado_1009199" data-name="Trazado 1009199" d="M441.763,411.772a2.515,2.515,0,0,1-.026.316c-1.618-2.73-6.965-4.809-13.339-4.935-7.49-.147-13.659,2.455-14.081,5.86a3.323,3.323,0,0,1-.507-1.791c.07-3.561,6.385-6.328,14.1-6.176s13.923,3.165,13.853,6.726" transform="translate(-287.291 -281.202)" fill="#fff"/>
          <path id="Trazado_1009200" data-name="Trazado 1009200" d="M411.685,412.223c-.275,0-.55,0-.827-.008-11.764-.231-21.238-5.336-21.119-11.378s9.783-10.771,21.55-10.539a39.116,39.116,0,0,1,8.792,1.142.315.315,0,1,1-.154.61,38.469,38.469,0,0,0-8.65-1.123c-11.418-.224-20.8,4.227-20.908,9.923s9.085,10.512,20.5,10.737c.276.005.552.008.826.008,11.041,0,19.973-4.373,20.082-9.931.059-2.97-2.479-5.856-6.963-7.918a.315.315,0,0,1,.264-.572c4.721,2.172,7.392,5.271,7.329,8.5-.116,5.9-9.337,10.547-20.723,10.548" transform="translate(-270.579 -270.961)" fill="#2e186b"/>
          <path id="Trazado_1009201" data-name="Trazado 1009201" d="M427.548,417.554c-.2,0-.409,0-.615-.006-8.014-.157-14.234-3.253-14.159-7.047.036-1.853,1.589-3.544,4.372-4.763a.315.315,0,0,1,.252.576c-2.545,1.114-3.964,2.606-4,4.2-.067,3.384,6.008,6.257,13.542,6.406a23.934,23.934,0,0,0,9.789-1.669c2.545-1.114,3.964-2.606,4-4.2.066-3.384-6.008-6.257-13.542-6.405a28.152,28.152,0,0,0-5.39.4.315.315,0,0,1-.108-.62,28.762,28.762,0,0,1,5.511-.4c8.014.157,14.234,3.253,14.159,7.047-.037,1.853-1.589,3.544-4.372,4.763a24.126,24.126,0,0,1-9.438,1.727" transform="translate(-286.571 -280.488)" fill="#2e186b"/>
          <path id="Trazado_1009202" data-name="Trazado 1009202" d="M279.547,21.1a.315.315,0,0,1-.226-.534l6.729-6.932a.315.315,0,0,1,.452.438L279.773,21a.315.315,0,0,1-.226.1" transform="translate(-193.859 -9.397)" fill="#2e186b"/>
          <path id="Trazado_1009203" data-name="Trazado 1009203" d="M256,24.693a.315.315,0,0,1-.226-.534l6.729-6.932a.315.315,0,0,1,.452.438L256.223,24.6a.314.314,0,0,1-.226.1" transform="translate(-177.509 -11.894)" fill="#2e186b"/>
          <path id="Trazado_1009204" data-name="Trazado 1009204" d="M21.486,232.585a.315.315,0,0,1-.225-.535l8.518-8.7a.315.315,0,0,1,.449.44l-8.518,8.7a.313.313,0,0,1-.225.094" transform="translate(-14.698 -154.998)" fill="#2e186b"/>
          <path id="Trazado_1009205" data-name="Trazado 1009205" d="M23.856,254.886a.315.315,0,0,1-.22-.539l4.712-4.621a.315.315,0,0,1,.441.449L24.077,254.8a.315.315,0,0,1-.22.09" transform="translate(-16.344 -173.311)" fill="#2e186b"/>
          <path id="Trazado_1009206" data-name="Trazado 1009206" d="M473.04,314.138a.315.315,0,0,1-.223-.537l6.162-6.162a.315.315,0,0,1,.445.445l-6.162,6.162a.314.314,0,0,1-.223.092" transform="translate(-328.193 -213.378)" fill="#2e186b"/>
          <path id="Trazado_1009207" data-name="Trazado 1009207" d="M474.819,315.5a.315.315,0,0,1-.22-.54l11.056-10.784a.315.315,0,0,1,.439.45L475.039,315.41a.313.313,0,0,1-.22.089" transform="translate(-329.428 -211.114)" fill="#2e186b"/>
          <path id="Trazado_1009208" data-name="Trazado 1009208" d="M87.792,383.5H83.938a5.3,5.3,0,0,0,0-10.6h-.972a13.739,13.739,0,0,0-18.192-8.857v54.134H87.792a4.749,4.749,0,0,0,4.748-4.748V388.248a4.747,4.747,0,0,0-4.748-4.748" transform="translate(-44.97 -252.077)" fill="#2e186b"/>
          <path id="Trazado_1009209" data-name="Trazado 1009209" d="M87.078,417.775H64.061a.315.315,0,0,1-.315-.315V363.326a.314.314,0,0,1,.2-.293,13.965,13.965,0,0,1,5.146-.975,14.128,14.128,0,0,1,13.393,9.81h.74a5.618,5.618,0,0,1,3.966,9.586,5.715,5.715,0,0,1-1.388,1.017h1.276a5.068,5.068,0,0,1,5.062,5.062v25.179a5.068,5.068,0,0,1-5.062,5.062m-22.7-.629h22.7a4.438,4.438,0,0,0,4.433-4.433V387.534a4.438,4.438,0,0,0-4.433-4.433H83.224a.315.315,0,0,1,0-.629,4.987,4.987,0,0,0,0-9.974h-.972a.314.314,0,0,1-.3-.225,13.493,13.493,0,0,0-12.859-9.585,13.346,13.346,0,0,0-4.716.854Z" transform="translate(-44.256 -251.362)" fill="#2e186b"/>
          <path id="Trazado_1009210" data-name="Trazado 1009210" d="M42.768,400.472a5.292,5.292,0,0,1-5.291,5.3H7.795a5.3,5.3,0,0,1,0-10.6H37.477a5.3,5.3,0,0,1,5.291,5.3" transform="translate(-1.734 -274.353)" fill="#fff"/>
          <path id="Trazado_1009211" data-name="Trazado 1009211" d="M42.768,400.468a5.479,5.479,0,0,1-.057.79,5.3,5.3,0,0,0-5.235-4.515H7.8a5.314,5.314,0,0,0-5.242,4.512,5.437,5.437,0,0,1-.057-.787,5.307,5.307,0,0,1,5.3-5.3H37.477a5.3,5.3,0,0,1,5.292,5.3" transform="translate(-1.734 -274.35)" fill="#ff7af1"/>
          <path id="Trazado_1009212" data-name="Trazado 1009212" d="M36.762,405.376H7.079a5.614,5.614,0,0,1-3.967-9.586,5.548,5.548,0,0,1,3.967-1.646H36.762a5.616,5.616,0,0,1,0,11.231m-29.683-10.6A4.989,4.989,0,0,0,2.1,399.757a4.992,4.992,0,0,0,4.983,4.99H36.762a4.986,4.986,0,0,0,0-9.973Z" transform="translate(-1.018 -273.638)" fill="#2e186b"/>
          <path id="Trazado_1009213" data-name="Trazado 1009213" d="M53.245,376.812a13.725,13.725,0,1,1-13.727-13.724,13.725,13.725,0,0,1,13.727,13.724" transform="translate(-17.908 -252.077)" fill="#fff"/>
          <path id="Trazado_1009214" data-name="Trazado 1009214" d="M58.8,386.742a9.352,9.352,0,1,1-9.354-9.35,9.353,9.353,0,0,1,9.354,9.35" transform="translate(-27.839 -262.007)" fill="#fff"/>
          <path id="Trazado_1009215" data-name="Trazado 1009215" d="M42.518,387.176a9.352,9.352,0,0,0,6.492,8.9,9.351,9.351,0,1,1,3.3-18.244c-.148-.009-.3-.012-.444-.012a9.352,9.352,0,0,0-9.351,9.351" transform="translate(-27.842 -262.006)" fill="#9654ff"/>
          <path id="Trazado_1009216" data-name="Trazado 1009216" d="M48.737,395.691a9.666,9.666,0,1,1,9.666-9.666,9.677,9.677,0,0,1-9.666,9.666m0-18.7a9.037,9.037,0,1,0,9.037,9.037,9.047,9.047,0,0,0-9.037-9.037" transform="translate(-27.125 -261.291)" fill="#2e186b"/>
          <path id="Trazado_1009217" data-name="Trazado 1009217" d="M38.806,401.945a14.055,14.055,0,0,1-14.039-14.039,13.892,13.892,0,0,1,3.035-8.719.315.315,0,1,1,.493.391,13.27,13.27,0,0,0-2.9,8.328,13.411,13.411,0,0,0,21.839,10.43.315.315,0,0,1,.4.489,14.072,14.072,0,0,1-8.825,3.12" transform="translate(-17.195 -263.171)" fill="#2e186b"/>
          <path id="Trazado_1009218" data-name="Trazado 1009218" d="M61.3,384.946a.315.315,0,0,1-.246-.51,13.268,13.268,0,0,0,2.909-8.34,13.425,13.425,0,0,0-13.41-13.41,13.266,13.266,0,0,0-8.354,2.92.315.315,0,1,1-.392-.492,13.89,13.89,0,0,1,8.747-3.057A14.055,14.055,0,0,1,64.594,376.1a13.891,13.891,0,0,1-3.045,8.732.314.314,0,0,1-.246.119" transform="translate(-28.943 -251.36)" fill="#2e186b"/>
          <path id="Trazado_1009219" data-name="Trazado 1009219" d="M62.395,392.807a2.268,2.268,0,0,1,1.738-.689v-.74h.528v.728a2.616,2.616,0,0,1,1.7.653,2.117,2.117,0,0,1,.62,1.521h-.973a1.652,1.652,0,0,0-.228-.729,1.278,1.278,0,0,0-1.117-.589v2.7a6.582,6.582,0,0,1,1.752.678,1.762,1.762,0,0,1,.751,1.546,2.312,2.312,0,0,1-.962,2.1,3.6,3.6,0,0,1-1.54.456v1.079h-.528v-1.079a2.487,2.487,0,0,1-2.2-1.146,3.088,3.088,0,0,1-.317-1.518H62.6a2.734,2.734,0,0,0,.239,1.112,1.478,1.478,0,0,0,1.279.706v-3.031a3.542,3.542,0,0,1-1.774-.762,1.923,1.923,0,0,1-.573-1.479,2.2,2.2,0,0,1,.62-1.524m.745,2.319a2.118,2.118,0,0,0,.981.434v-2.613a1.27,1.27,0,0,0-1.037.445,1.446,1.446,0,0,0-.308.873,1.073,1.073,0,0,0,.364.862m2.833,3.809a1.541,1.541,0,0,0,.189-.773,1.211,1.211,0,0,0-.512-1.057,3.26,3.26,0,0,0-.99-.4v2.925a1.452,1.452,0,0,0,1.312-.695" transform="translate(-42.779 -271.717)" fill="#2e186b"/>
          <path id="Trazado_1009220" data-name="Trazado 1009220" d="M46.078,422.553v25.179a4.748,4.748,0,0,1-4.748,4.748H7.245A4.748,4.748,0,0,1,2.5,447.732V412.5a5.3,5.3,0,0,0,5.3,5.3H41.33a4.748,4.748,0,0,1,4.748,4.748" transform="translate(-1.734 -286.382)" fill="#ff7af1"/>
          <path id="Trazado_1009221" data-name="Trazado 1009221" d="M3.859,450.074a4.487,4.487,0,0,0,.135,1.114,4.719,4.719,0,0,1-1.5-3.458V412.5a5.282,5.282,0,0,0,1.362,3.549Z" transform="translate(-1.734 -286.381)" fill="#fff"/>
          <path id="Trazado_1009222" data-name="Trazado 1009222" d="M49.472,429.953a4.712,4.712,0,0,0-3.25-1.29H12.687a5.3,5.3,0,0,1-5.107-3.9,5.264,5.264,0,0,0,3.744,1.554H44.859a4.745,4.745,0,0,1,4.612,3.634" transform="translate(-5.262 -294.896)" fill="#fff"/>
          <path id="Trazado_1009223" data-name="Trazado 1009223" d="M109.614,467.987v10.738H96.048a2.035,2.035,0,0,1-2.035-2.035v-6.668a2.035,2.035,0,0,1,2.035-2.035Z" transform="translate(-65.269 -324.904)" fill="#fff"/>
          <path id="Trazado_1009224" data-name="Trazado 1009224" d="M109.612,467.985v.985H96.319a1.4,1.4,0,0,0-1.4,1.4V478.3a.734.734,0,0,0,0,.082,2.035,2.035,0,0,1-.909-1.7v-6.667a2.037,2.037,0,0,1,2.036-2.036Z" transform="translate(-65.267 -324.902)" fill="#ff7af1"/>
          <path id="Trazado_1009225" data-name="Trazado 1009225" d="M106.549,481.177a1.92,1.92,0,1,1-1.92-1.92,1.924,1.924,0,0,1,1.92,1.92" transform="translate(-71.307 -332.728)" fill="#ff7af1"/>
          <path id="Trazado_1009226" data-name="Trazado 1009226" d="M106.546,481.175a1.841,1.841,0,0,1-.057.459,1.917,1.917,0,0,0-3.725,0,1.7,1.7,0,0,1-.06-.459,1.921,1.921,0,1,1,3.842,0" transform="translate(-71.303 -332.725)" fill="#fff"/>
          <path id="Trazado_1009227" data-name="Trazado 1009227" d="M40.616,452.081H6.531a5.068,5.068,0,0,1-5.063-5.063v-5.711a.315.315,0,1,1,.629,0v5.711a4.439,4.439,0,0,0,4.434,4.434H40.616a4.439,4.439,0,0,0,4.434-4.434V421.839a4.439,4.439,0,0,0-4.434-4.434H7.08A5.618,5.618,0,0,1,2.1,414.37v21.352a.315.315,0,0,1-.629,0V411.787a.315.315,0,1,1,.629,0,4.992,4.992,0,0,0,4.983,4.99H40.616a5.068,5.068,0,0,1,5.063,5.063v25.179a5.068,5.068,0,0,1-5.063,5.063" transform="translate(-1.019 -285.668)" fill="#2e186b"/>
          <path id="Trazado_1009228" data-name="Trazado 1009228" d="M108.9,478.325H95.333a2.352,2.352,0,0,1-2.35-2.35v-6.668a2.352,2.352,0,0,1,2.35-2.35H108.9a.315.315,0,0,1,.315.315V478.01a.315.315,0,0,1-.315.315M95.333,467.587a1.722,1.722,0,0,0-1.72,1.72v6.668a1.722,1.722,0,0,0,1.72,1.72h13.251V467.587Z" transform="translate(-64.554 -324.189)" fill="#2e186b"/>
          <path id="Trazado_1009229" data-name="Trazado 1009229" d="M103.915,482.7a2.238,2.238,0,1,1,2.234-2.241,2.24,2.24,0,0,1-2.234,2.241m0-3.846a1.608,1.608,0,1,0,1.605,1.605,1.607,1.607,0,0,0-1.605-1.605" transform="translate(-70.593 -332.013)" fill="#2e186b"/>
          <path id="Trazado_1009230" data-name="Trazado 1009230" d="M372.7,62.335c-1.177,1.327-2.471,2.1-2.889,1.731s.2-1.747,1.374-3.074,2.47-2.1,2.888-1.731-.2,1.747-1.374,3.074" transform="translate(-256.652 -41.078)" fill="#fff"/>
          <path id="Trazado_1009231" data-name="Trazado 1009231" d="M75.033,438.242c-1.938,2.185-3.849,3.655-4.267,3.284s.814-2.443,2.752-4.628,3.848-3.655,4.267-3.284-.814,2.443-2.752,4.628" transform="translate(-49.073 -301)" fill="#fff"/>
          <path id="Trazado_1009232" data-name="Trazado 1009232" d="M456.978,413.888c-1.938,2.185-3.849,3.655-4.267,3.284s.814-2.443,2.752-4.628,3.848-3.655,4.267-3.284-.814,2.443-2.752,4.628" transform="translate(-314.241 -284.092)" fill="#fff"/>
        </g>
      </g>
    </g>
  </g>
</svg>
