<svg xmlns="http://www.w3.org/2000/svg" width="128" height="128" viewBox="0 0 128 128">
  <g id="Grupo_1184393" data-name="Grupo 1184393" transform="translate(-383.746 -8400)">
    <circle id="Elipse_13609" data-name="Elipse 13609" cx="64" cy="64" r="64" transform="translate(383.746 8400)" fill="#7be888"/>
    <g id="Grupo_1184389" data-name="Grupo 1184389" transform="translate(407.742 8423.97)">
      <g id="Grupo_1184388" data-name="Grupo 1184388" transform="translate(0 0.031)">
        <path id="Trazado_1011260" data-name="Trazado 1011260" d="M371.541,70.9a1.172,1.172,0,0,0,1.172-1.172V61.077a1.172,1.172,0,0,0-2.345,0v8.651A1.172,1.172,0,0,0,371.541,70.9Z" transform="translate(-312.479 -50.554)" fill="#53435c"/>
        <path id="Trazado_1011261" data-name="Trazado 1011261" d="M371.756,143.952a1.173,1.173,0,0,0,0,2.345A1.173,1.173,0,0,0,371.756,143.952Z" transform="translate(-312.694 -121.457)" fill="#53435c"/>
        <path id="Trazado_1011262" data-name="Trazado 1011262" d="M192.726,146.2a1.172,1.172,0,0,0,1.172-1.172v-1.721a1.172,1.172,0,0,0-2.345,0v1.721A1.172,1.172,0,0,0,192.726,146.2Z" transform="translate(-161.614 -119.933)" fill="#53435c"/>
        <path id="Trazado_1011263" data-name="Trazado 1011263" d="M127.948,162.654a1.214,1.214,0,0,0,1.6.429,1.172,1.172,0,0,0,.429-1.6l-.86-1.49a1.172,1.172,0,0,0-2.03,1.172Z" transform="translate(-107.091 -134.495)" fill="#53435c"/>
        <path id="Trazado_1011264" data-name="Trazado 1011264" d="M82.872,207.729l-1.49-.86a1.172,1.172,0,1,0-1.172,2.03l1.49.86a1.214,1.214,0,0,0,1.6-.429A1.172,1.172,0,0,0,82.872,207.729Z" transform="translate(-67.178 -174.407)" fill="#53435c"/>
        <path id="Trazado_1011265" data-name="Trazado 1011265" d="M81.7,330.611l-1.49.86a1.172,1.172,0,0,0-.429,1.6,1.214,1.214,0,0,0,1.6.429l1.49-.86a1.172,1.172,0,1,0-1.172-2.03Z" transform="translate(-67.178 -278.807)" fill="#53435c"/>
        <path id="Trazado_1011266" data-name="Trazado 1011266" d="M129.55,373.889a1.172,1.172,0,0,0-1.6.429l-.86,1.49a1.172,1.172,0,0,0,.429,1.6,1.214,1.214,0,0,0,1.6-.429l.86-1.49A1.172,1.172,0,0,0,129.55,373.889Z" transform="translate(-107.091 -315.321)" fill="#53435c"/>
        <path id="Trazado_1011267" data-name="Trazado 1011267" d="M309.791,272.509a1.172,1.172,0,0,0,1.172,1.172h1.721a1.172,1.172,0,0,0,0-2.345h-1.721A1.172,1.172,0,0,0,309.791,272.509Z" transform="translate(-261.37 -228.931)" fill="#53435c"/>
        <path id="Trazado_1011268" data-name="Trazado 1011268" d="M295.708,209.761l1.49-.86a1.172,1.172,0,1,0-1.172-2.03l-1.49.86a1.172,1.172,0,0,0-.429,1.6A1.309,1.309,0,0,0,295.708,209.761Z" transform="translate(-248.004 -174.408)" fill="#53435c"/>
        <path id="Trazado_1011269" data-name="Trazado 1011269" d="M251.258,163.083a1.214,1.214,0,0,0,1.6-.429l.86-1.49a1.172,1.172,0,1,0-2.03-1.172l-.86,1.49A1.172,1.172,0,0,0,251.258,163.083Z" transform="translate(-211.491 -134.495)" fill="#53435c"/>
        <path id="Trazado_1011270" data-name="Trazado 1011270" d="M178.369,215.738a3.821,3.821,0,0,0,2.836-6.357l4.771-8.147a1.172,1.172,0,1,0-2.023-1.185l-4.774,8.151a3.812,3.812,0,1,0-.81,7.537Zm0-5.28a1.468,1.468,0,1,1-1.468,1.468A1.469,1.469,0,0,1,178.369,210.458Z" transform="translate(-147.273 -168.296)" fill="#53435c"/>
        <path id="Trazado_1011271" data-name="Trazado 1011271" d="M75.409,51.468H61.238a31.27,31.27,0,0,0-2.045-21.293H72.545a3.465,3.465,0,0,0,2.974-5.157L62.036,1.718a3.466,3.466,0,0,0-5.948,0l-8.84,15.276A30.921,30.921,0,0,0,35.7,12.816v-2.6h.691a3.335,3.335,0,1,0,0-6.67H25.837a3.335,3.335,0,1,0,0,6.67h.691v2.6a30.746,30.746,0,0,0-8.315,2.463,1.173,1.173,0,0,0,.975,2.132c22.187-10.136,46.294,10.6,39.62,34.058H56.367c5.426-16.6-7.742-34.586-25.254-34.3A26.471,26.471,0,0,0,4.67,43.609C4.438,56.582,14.9,68.436,27.769,69.841V72.2C1.84,68.953-6.9,36.034,14.1,20.4a1.173,1.173,0,0,0-1.389-1.889,31.1,31.1,0,0,0-4.335,46.34A31.024,31.024,0,0,0,27.769,74.56v.87a4.6,4.6,0,0,0,4.6,4.6H75.409a4.6,4.6,0,0,0,4.6-4.6V56.067A4.6,4.6,0,0,0,75.409,51.468ZM24.846,6.88a.992.992,0,0,1,.99-.99H36.389a.991.991,0,0,1,0,1.981H25.837A.992.992,0,0,1,24.846,6.88Zm4.026,5.679V10.215h4.48v2.344A31.583,31.583,0,0,0,28.873,12.559ZM49.207,18.29l8.911-15.4a1.1,1.1,0,0,1,1.89,0l13.483,23.3a1.1,1.1,0,0,1-.945,1.638H57.939A31.373,31.373,0,0,0,49.207,18.29ZM30.113,62.255a9.7,9.7,0,0,0,8.442-8.442H69.221a9.7,9.7,0,0,0,8.442,8.442v6.988a9.7,9.7,0,0,0-8.442,8.442H38.555a9.7,9.7,0,0,0-8.442-8.442Zm0-2.366V56.067a2.258,2.258,0,0,1,2.255-2.255h3.821A7.36,7.36,0,0,1,30.113,59.889Zm47.551-3.822v3.821a7.36,7.36,0,0,1-6.077-6.076h3.821a2.258,2.258,0,0,1,2.255,2.255ZM13.4,59.949c-14.188-15.255-3.139-40.5,17.712-40.438C47.4,19.3,59.4,36.157,53.9,51.468H32.368a4.6,4.6,0,0,0-4.6,4.6V67.476A24.019,24.019,0,0,1,13.4,59.949ZM30.113,75.43V71.608a7.36,7.36,0,0,1,6.077,6.077H32.368A2.258,2.258,0,0,1,30.113,75.43Zm45.3,2.255H71.587a7.361,7.361,0,0,1,6.077-6.077V75.43A2.258,2.258,0,0,1,75.409,77.685Z" transform="translate(0 -0.031)" fill="#53435c"/>
        <path id="Trazado_1011272" data-name="Trazado 1011272" d="M294.071,378.848a9.343,9.343,0,0,0,3.962-.874,1.172,1.172,0,1,0-.987-2.127,7.125,7.125,0,1,1,3.534-3.628,1.172,1.172,0,0,0,2.151.933,9.5,9.5,0,0,0-8.66-13.236C281.547,360.436,281.549,378.33,294.071,378.848Z" transform="translate(-240.183 -303.665)" fill="#53435c"/>
        <path id="Trazado_1011273" data-name="Trazado 1011273" d="M327.518,394.2a1.259,1.259,0,0,0,1.172-1.317,3.247,3.247,0,0,0,2.017-2.487,2.931,2.931,0,0,0-1.98-3.321c-.279-.1-1.971-.535-1.748-1.139.166-.448.97-.353,1.27-.151,0,0,.979.785,1.658.033a1.2,1.2,0,0,0-.065-1.753,3.163,3.163,0,0,0-1.153-.64,1.173,1.173,0,1,0-2.345.068,2.806,2.806,0,0,0-1.7,2.107,2.54,2.54,0,0,0,.852,2.5,8.815,8.815,0,0,0,2.443,1.187.6.6,0,0,1,.453.722.89.89,0,0,1-.886.758,1.758,1.758,0,0,1-1.316-.339,1.172,1.172,0,0,0-1.287,1.96,3.993,3.993,0,0,0,1.439.636A1.24,1.24,0,0,0,327.518,394.2Z" transform="translate(-273.677 -322.505)" fill="#53435c"/>
      </g>
      <path id="Trazado_1011274" data-name="Trazado 1011274" d="M66.42,272.509a1.172,1.172,0,0,0-1.172-1.172H63.527a1.172,1.172,0,0,0,0,2.345h1.721A1.172,1.172,0,0,0,66.42,272.509Z" transform="translate(-52.616 -228.9)" fill="#53435c"/>
    </g>
  </g>
</svg>
