<svg xmlns="http://www.w3.org/2000/svg" width="128" height="128" viewBox="0 0 128 128">
  <g id="Grupo_1182491" data-name="Grupo 1182491" transform="translate(-383.746 -8400)">
    <path id="Trazado_997401" data-name="Trazado 997401" d="M64,0A64,64,0,1,1,0,64,64,64,0,0,1,64,0Z" transform="translate(383.746 8400)" fill="#cfa9e6"/>
    <g id="Grupo_1184397" data-name="Grupo 1184397" transform="translate(412.163 8411.32)">
      <path id="Trazado_1011293" data-name="Trazado 1011293" d="M68.046,76.034H66.98V47.256a3.437,3.437,0,0,0-3.433-3.433H59.859V39.891a10.056,10.056,0,1,0-8.813-9.978,9.993,9.993,0,0,0,.911,4.175H13.436V31.757a1.087,1.087,0,0,1,1.086-1.086H47.211a1.042,1.042,0,0,0,0-2.085H14.522a3.174,3.174,0,0,0-3.171,3.171V43.823H7.664a3.437,3.437,0,0,0-3.433,3.433V76.034H3.121A3.125,3.125,0,0,0,0,79.154v3.228A3.124,3.124,0,0,0,3.121,85.5H68.046a3.124,3.124,0,0,0,3.121-3.121V79.154a3.124,3.124,0,0,0-3.121-3.121Zm-4.5-30.126a1.35,1.35,0,0,1,1.348,1.348V76.034H59.859V45.908ZM46.531,78.119a2.721,2.721,0,0,1-2.508,1.674H27.188a2.721,2.721,0,0,1-2.508-1.674ZM61.1,21.941a7.973,7.973,0,1,1-7.972,7.973A7.982,7.982,0,0,1,61.1,21.941ZM6.315,47.256a1.35,1.35,0,0,1,1.348-1.348h4.73a1.042,1.042,0,0,0,1.042-1.042V36.174h39.8A10.1,10.1,0,0,0,57.774,39.4V76.034H13.436V49.741a1.042,1.042,0,1,0-2.085,0V76.034H6.315ZM69.082,82.382a1.037,1.037,0,0,1-1.036,1.036H3.121a1.037,1.037,0,0,1-1.036-1.036V79.154a1.037,1.037,0,0,1,1.036-1.036H22.5a4.809,4.809,0,0,0,4.686,3.759H44.022a4.809,4.809,0,0,0,4.686-3.759H68.046a1.037,1.037,0,0,1,1.036,1.036Z" fill="#53435c"/>
      <path id="Trazado_1011294" data-name="Trazado 1011294" d="M201.149,181.517a3.2,3.2,0,0,0,3.2-3.2V164.173a3.2,3.2,0,0,0-6.393,0V178.32A3.2,3.2,0,0,0,201.149,181.517Zm-1.112-17.344a1.112,1.112,0,0,1,2.224,0V178.32a1.112,1.112,0,1,1-2.224,0Z" transform="translate(-170.437 -121.505)" fill="#53435c"/>
      <path id="Trazado_1011295" data-name="Trazado 1011295" d="M270.326,237.348a3.2,3.2,0,0,0,3.2-3.2v-5.134a3.2,3.2,0,0,0-6.393,0v5.134A3.2,3.2,0,0,0,270.326,237.348Zm-1.112-8.331a1.112,1.112,0,0,1,2.224,0v5.134a1.112,1.112,0,1,1-2.224,0Z" transform="translate(-229.999 -177.336)" fill="#53435c"/>
      <path id="Trazado_1011296" data-name="Trazado 1011296" d="M133.2,207.812a3.2,3.2,0,0,0,3.2-3.2v-9.9a3.2,3.2,0,0,0-6.393,0v9.9A3.2,3.2,0,0,0,133.2,207.812Zm-1.112-13.1a1.112,1.112,0,0,1,2.224,0v9.9a1.112,1.112,0,1,1-2.224,0Z" transform="translate(-111.936 -147.801)" fill="#53435c"/>
      <path id="Trazado_1011297" data-name="Trazado 1011297" d="M339.5,207.812a3.2,3.2,0,0,0,3.2-3.2v-9.9a3.2,3.2,0,1,0-6.393,0v9.9A3.2,3.2,0,0,0,339.5,207.812Zm-1.112-13.1a1.112,1.112,0,1,1,2.223,0v9.9a1.112,1.112,0,1,1-2.223,0Z" transform="translate(-289.562 -147.801)" fill="#53435c"/>
      <path id="Trazado_1011298" data-name="Trazado 1011298" d="M418,59.921a3.784,3.784,0,0,0,1.476.614v.077a1.071,1.071,0,0,0,1.01,1.086,1.043,1.043,0,0,0,1.074-1.042V60.42a3.175,3.175,0,0,0,2.04-2.436,2.813,2.813,0,0,0-1.909-3.186,7.337,7.337,0,0,1-1.835-.846.421.421,0,0,1-.049-.35.613.613,0,0,1,.392-.485,1.274,1.274,0,0,1,1.174.174l.1.072a1.042,1.042,0,1,0,1.181-1.717,3.623,3.623,0,0,0-1.1-.548v-.063a1.071,1.071,0,0,0-1.01-1.086,1.043,1.043,0,0,0-1.074,1.042v.17a2.682,2.682,0,0,0-1.717,2.053,2.416,2.416,0,0,0,.811,2.377,8.8,8.8,0,0,0,2.427,1.171.731.731,0,0,1,.548.874,1.041,1.041,0,0,1-1.033.878,1.9,1.9,0,0,1-1.409-.365,1.042,1.042,0,0,0-1.505.41A1.068,1.068,0,0,0,418,59.921Z" transform="translate(-359.459 -25.911)" fill="#53435c"/>
      <path id="Trazado_1011299" data-name="Trazado 1011299" d="M133.815,339.1a5.609,5.609,0,1,0-5.609-5.609A5.615,5.615,0,0,0,133.815,339.1Zm3.513-5.346a3.545,3.545,0,0,1-2.47,3.1v-6.732A3.545,3.545,0,0,1,137.327,333.758Zm-4.555-3.629v6.732a3.524,3.524,0,0,1,0-6.732Z" transform="translate(-110.386 -265.215)" fill="#53435c"/>
      <path id="Trazado_1011300" data-name="Trazado 1011300" d="M325.921,350.019h2.949a1.042,1.042,0,1,0,0-2.085h-2.949a1.042,1.042,0,1,0,0,2.085Z" transform="translate(-279.721 -282.476)" fill="#53435c"/>
      <path id="Trazado_1011301" data-name="Trazado 1011301" d="M325.921,378.739h5.9a1.042,1.042,0,0,0,0-2.085h-5.9a1.042,1.042,0,1,0,0,2.085Z" transform="translate(-279.721 -307.204)" fill="#53435c"/>
      <path id="Trazado_1011302" data-name="Trazado 1011302" d="M234.324,327.887a5.609,5.609,0,1,0,5.609,5.609A5.615,5.615,0,0,0,234.324,327.887Zm1.042,2.242a3.554,3.554,0,0,1,2.324,2.324h-2.324Zm-1.042,6.89a3.524,3.524,0,0,1-1.042-6.89V333.5a1.042,1.042,0,0,0,1.042,1.042h3.366A3.53,3.53,0,0,1,234.324,337.019Z" transform="translate(-196.924 -265.215)" fill="#53435c"/>
    </g>
  </g>
</svg>
