<svg xmlns="http://www.w3.org/2000/svg" xmlns:xlink="http://www.w3.org/1999/xlink" width="1020" height="227" viewBox="0 0 1020 227">
  <defs>
    <clipPath id="clip-path">
      <rect id="Rectángulo_33824" data-name="Rectángulo 33824" width="1020" height="227" transform="translate(180 4246.831)" fill="#fff7da"/>
    </clipPath>
  </defs>
  <g id="Enmascarar_grupo_54" data-name="Enmascarar grupo 54" transform="translate(-180 -4246.831)" clip-path="url(#clip-path)">
    <g id="Grupo_80387" data-name="Grupo 80387" transform="translate(45.294 4018.188)">
      <g id="Grupo_80274" data-name="Grupo 80274">
        <rect id="Rectángulo_33830" data-name="Rectángulo 33830" width="1290" height="969" transform="translate(-0.293 -0.358)" fill="#ffe0c8"/>
        <circle id="Elipse_4713" data-name="Elipse 4713" cx="109.952" cy="109.952" r="109.952" transform="translate(790.8 271.48) rotate(-45)" fill="#fff5ec"/>
        <path id="Trazado_113782" data-name="Trazado 113782" d="M109.908,139.916C70.453,187.212,51.269,249.766,43.691,311.4,29.527,426.7,68.045,551.885,185.9,596.032c65.452,24.518,135.382,25.679,199.393,55.78,101.52,47.734,175.04,150.217,295.814,153,140.572,3.241,244.224-142.643,185.744-277.3-17.78-40.939-55.714-77.884-84.435-102.133-33.876-28.6-73.978-39.556-113.859-57.054-73.381-32.192-93.181-115.34-127.184-180.144C464.6,41.829,242.776,8.023,124.649,123.92A214.864,214.864,0,0,0,109.908,139.916Z" transform="translate(198.805 50.904)" fill="#fff5ec"/>
      </g>
      <g id="_422635575_4794abd1-44e6-40ee-a860-d2665f6bb630" data-name="422635575_4794abd1-44e6-40ee-a860-d2665f6bb630" transform="translate(392.785 178.075)">
        <g id="Layer_1" transform="translate(54.062 62.681)">
          <g id="Grupo_1183128" data-name="Grupo 1183128" transform="translate(0)">
            <path id="Trazado_1007647" data-name="Trazado 1007647" d="M336.906,141.815a9.328,9.328,0,0,0,5.181,2.534,76.959,76.959,0,0,0,10.81.253l17.413-.016h61.558l.073,23.4c.794-2.576-.457-5.826.479-8.362.058-5.01-.063-10.024.013-15.032,3.195-.058,6.068-.842,8.333-3.218a11.092,11.092,0,0,0,2.7-4.48c.6-2.736.408-5.782.41-8.571l0-10.053c0-9.379.279-18.867-.032-28.237-.1-3-.521-5.384-2.8-7.536a7.738,7.738,0,0,0-5.163-2.273c-.218.007-.434.027-.651.05,1.313.611,2.845.579,4.081,1.381a8.2,8.2,0,0,1,3.809,5c.522,2.225.2,5.139.2,7.443l-.007,13.75.013,17.707c0,3.058.191,6.263-.077,9.306a9.346,9.346,0,0,1-1.423,4.578,10.454,10.454,0,0,1-6.414,4.505c-2.821.581-7.482.209-10.463.211l-21.976.012-39.568.01-12.924,0c-2.178,0-4.415.1-6.587-.031a11.207,11.207,0,0,1-5.594-1.642,8.841,8.841,0,0,1-3.525-5.369c-.6-3.222-.232-7.032-.22-10.317l0-18.193-.007-13.846c0-2.131-.2-4.4.005-6.514a8.639,8.639,0,0,1,1.488-4.133,8.9,8.9,0,0,1,5.85-3.475c3.286-.514,6.98-.224,10.313-.224l18.469.007,63.135.027a7.944,7.944,0,0,1,4.272-1.805c2.158-.194,4.386-.1,6.554-.105l11.031,0,34.06,0h23.637c3.951,0,8.336-.37,12.235.178a8.92,8.92,0,0,1,5.771,3.712,8.3,8.3,0,0,1,1.541,4.147c.33,4.55,0,10.34.005,15.017l-.02,33.773.028,23.478c0,2.806.285,7.594-.094,10.174-.012.085-.043.206-.061.285l.079.156.386.326.016-58.827q-.006-7.994.074-15.989a63.55,63.55,0,0,0-.078-9.037,9.135,9.135,0,0,0-2.286-4.632,9.542,9.542,0,0,0-5.311-2.981c-3.545-.566-7.512-.218-11.115-.209l-19.359,0H459.214c-6.847-.008-13.766-.251-20.6.045-2.3.1-3.959,1.576-6.128,1.962a16.915,16.915,0,0,1-3.411-.059c-6.122-.17-12.3,0-18.424,0H373.5l-19.648-.008a95.411,95.411,0,0,0-11.561.2,9.539,9.539,0,0,0-5.412,2.367c-2.415,2.322-2.8,4.673-2.818,7.864l.034,31.364-.047,8.8a33.394,33.394,0,0,0,.152,5.726,9.992,9.992,0,0,0,2.707,5.436h0Z" transform="translate(-265.102 -74.238)" fill="#ae7e7a"/>
            <path id="Trazado_1007648" data-name="Trazado 1007648" d="M437.826,96.672c.3.135.469.173.573.5.359,1.154.262,30.447.155,33.437a3.882,3.882,0,0,1-.3,1.761,2.607,2.607,0,0,1-1.682.372h-20c-2.9,0-11.426.459-13.847-.39a2.484,2.484,0,0,1-.316-.735c-.582-2.226-.278-5.084-.27-7.387q.017-6.4.1-12.8c.023-4.125-.275-8.408.043-12.512a4.69,4.69,0,0,1,.579-2.191,2.674,2.674,0,0,1,1.586-.51c4.74-.064,31.261-.493,33.373.447Zm-57.545,34.86a1.556,1.556,0,0,1-.872,1.2c-6.846.122-13.7.02-20.553.031-4.235.006-8.609.248-12.831-.033a4.027,4.027,0,0,1-2.106-.487,8.955,8.955,0,0,1-.425-2.814c-.245-6.394.009-12.9.054-19.3.024-3.452-.237-6.949-.113-10.394a7.546,7.546,0,0,1,.288-2.112,2.025,2.025,0,0,1,1.237-1.238c2.384-.194,4.833-.091,7.224-.091h12.736l8.7-.025a31.385,31.385,0,0,1,4.944.1,2.26,2.26,0,0,1,1.529,1.057,3.166,3.166,0,0,1,.28,1.5c.249,6.745-.023,13.6,0,20.354.009,3.029.422,9.664-.085,12.26h0Zm82.935,10.209V125.576c-1.177.012-2.36.037-3.537,0a8.707,8.707,0,0,1-6.277-2.734,7.28,7.28,0,0,1-2-5.184c.142-2.729,1.629-4.311,3.556-6.021-.361-3.779-.689-8.845,1.138-12.248,1.95-3.632,5.654-5.905,9.51-7.05a9.507,9.507,0,0,1,2.178-6.424,8.977,8.977,0,0,1,6.242-2.8c5.223-.343,11.819,2.8,13.855,7.824.428,1.055.843,4.887.951,5.05a3.888,3.888,0,0,0,.584.519c4.1,3.777,6.444,8.69,8.836,13.625a6.737,6.737,0,0,1,4.671,2.381A6.186,6.186,0,0,1,504,117.251a8.806,8.806,0,0,1-3.844,5.792c-.815.59-2.587,1.177-2.968,1.486a.767.767,0,0,0-.235.452c1.133,5.085,1.673,10.769-1.259,15.374a16.31,16.31,0,0,1-4.943,4.709,21.015,21.015,0,0,1-.1,3.516c2.666.638,5.386,1.037,8.058,1.663,10.458,2.452,20.612,6.2,28.744,13.442,2.415,2.149,4.339,4.685,6.627,6.919.018-.079.049-.2.061-.285.378-2.58.091-7.367.094-10.174l-.028-23.478.02-33.773c-.006-4.677.324-10.467-.005-15.017a8.3,8.3,0,0,0-1.541-4.147,8.92,8.92,0,0,0-5.771-3.712c-3.9-.548-8.284-.182-12.235-.178H491.044l-34.06-.005-11.031,0c-2.168,0-4.4-.089-6.554.105a7.946,7.946,0,0,0-4.272,1.805l-63.135-.027-18.469-.007c-3.333,0-7.027-.29-10.313.224a8.9,8.9,0,0,0-5.85,3.475,8.637,8.637,0,0,0-1.488,4.133c-.21,2.11-.007,4.382-.005,6.514l.007,13.846,0,18.193c-.011,3.284-.38,7.094.22,10.317a8.843,8.843,0,0,0,3.525,5.369,11.208,11.208,0,0,0,5.594,1.642c2.172.136,4.409.03,6.587.031l12.924,0,39.568-.01,21.976-.012c2.981,0,7.642.37,10.463-.211a10.454,10.454,0,0,0,6.414-4.505,9.345,9.345,0,0,0,1.423-4.578c.268-3.043.078-6.247.077-9.306l-.013-17.707.007-13.75c0-2.3.32-5.218-.2-7.443a8.2,8.2,0,0,0-3.809-5c-1.237-.8-2.769-.77-4.081-1.381.217-.023.433-.044.651-.05a7.738,7.738,0,0,1,5.163,2.273c2.283,2.153,2.7,4.541,2.8,7.536.311,9.37.031,18.857.032,28.237l0,10.053c0,2.79.192,5.835-.41,8.571a11.1,11.1,0,0,1-2.7,4.48c-2.265,2.377-5.138,3.16-8.333,3.218-.076,5.008.046,10.023-.013,15.032,9.991-6.51,17.878-9.553,29.486-11.793a63.543,63.543,0,0,0-.009-7.374h0Z" transform="translate(-266.42 -75.525)" fill="#f8f8f8"/>
            <path id="Trazado_1007649" data-name="Trazado 1007649" d="M1204.366,96.4a10.85,10.85,0,0,1,.572-3.882,13.1,13.1,0,0,1,1-1.574,8.246,8.246,0,0,1,5.629-3.249c2.284-.309,7.012.008,9.539.013l22.142,0,47.515.013c5.933.011,11.917-.191,17.843-.056a8.22,8.22,0,0,1,3.623.733,8.31,8.31,0,0,1,4.269,4.525,9.338,9.338,0,0,1,.544,2.548c.139,2.907-.006,5.881-.006,8.8v17.978l0,13.915c0,2.224.159,4.541-.007,6.755a8.672,8.672,0,0,1-.826,3.206,9.105,9.105,0,0,1-5.6,4.484c-5.07.941-10.561.5-15.711.5l-24.715,0-36.775.023c-6.421.007-13.009.312-19.407-.053a12.487,12.487,0,0,1-4.853-1.2,9.494,9.494,0,0,1-4.471-5.262c-.632-2.273-.317-5.408-.311-7.783l.159-15.843c.011-8.184-.42-16.4-.143-24.587h0Zm-.14,48a9.575,9.575,0,0,0,4.4,5.67,12.233,12.233,0,0,0,5.59,1.339c6.633.379,13.43.068,20.081.07l38.369.021,23.53-.006c4.455,0,9.177.357,13.585-.3a9.525,9.525,0,0,0,6.478-4.27,7.7,7.7,0,0,0,1.217-3.715c.254-2.775.076-5.674.073-8.465l-.013-15.507.019-16.3c0-2.838.4-6.36-.263-9.09a8.868,8.868,0,0,0-4.166-5.423,8.025,8.025,0,0,0-3.769-1.164c-2.212-.121-4.463.024-6.679.04-3.374.024-6.75-.039-10.125-.035l-32.833,0-32.244,0c-5.519,0-11.181-.2-16.682.083a9.4,9.4,0,0,0-5.9,4.386,8.378,8.378,0,0,0-.88,4.038c-.2,4.482.154,9.062.146,13.564l-.051,21.429c-.038,3.319-.579,10.864.123,13.636h0Z" transform="translate(-920.878 -81.16)" fill="#b29b9e"/>
            <path id="Trazado_1007650" data-name="Trazado 1007650" d="M1213.274,105.015a3.061,3.061,0,0,1,1.417-2.088c6.126-.343,12.437-.06,18.581-.063,2.973,0,13.273-.4,15.608.264a1.833,1.833,0,0,1,.944.937,4.142,4.142,0,0,1,.311,1.69c.125,3.339.214,31.48-.232,32.664a1.7,1.7,0,0,1-1.022,1.067c-7.036.167-14.113.01-21.154.018-4.043,0-8.68.333-12.627-.064a1.5,1.5,0,0,1-1.242-.61,3.5,3.5,0,0,1-.593-1.879c-.157-1.994-.046-4.064-.039-6.065l0-10.528-.029-9.87a44.776,44.776,0,0,1,.08-5.474h0Zm58.71,5.55c0-1.861-.1-3.8.076-5.657a2.738,2.738,0,0,1,1.35-1.982c6.359-.274,12.813-.048,19.182-.059,4.509-.008,9.705-.337,14.143.061a2.346,2.346,0,0,1,1.749.8,4.729,4.729,0,0,1,.489,2.268c.316,5.807-.022,11.8-.034,17.625-.006,2.787.35,12.63-.176,14.731a1.556,1.556,0,0,1-.842,1.18l-21.593,0c-4.063.006-8.259.225-12.3-.035-.385-.025-1.055-.041-1.333-.336a3.168,3.168,0,0,1-.636-1.9c-.169-2.009-.078-4.077-.078-6.093l.011-10.529,0-10.068h0Zm-66.1,35.162a9.5,9.5,0,0,0,4.471,5.262,12.488,12.488,0,0,0,4.853,1.2c6.4.365,12.986.061,19.408.053l36.775-.023,24.715,0c5.15,0,10.641.442,15.711-.5a9.1,9.1,0,0,0,5.6-4.484,8.675,8.675,0,0,0,.826-3.206c.166-2.214.008-4.531.007-6.755l0-13.915V105.384c0-2.915.145-5.888.006-8.8a9.358,9.358,0,0,0-.544-2.548,8.31,8.31,0,0,0-4.268-4.525,8.214,8.214,0,0,0-3.623-.733c-5.926-.135-11.911.067-17.843.056l-47.514-.013-22.142,0c-2.527,0-7.255-.322-9.539-.013a8.246,8.246,0,0,0-5.629,3.249,13.1,13.1,0,0,0-1,1.574,10.85,10.85,0,0,0-.571,3.882c-.277,8.184.155,16.4.143,24.587l-.159,15.843c-.005,2.376-.321,5.51.311,7.783h0Z" transform="translate(-922.097 -82.276)" fill="#f8f8f8"/>
            <path id="Trazado_1007651" data-name="Trazado 1007651" d="M823.344,121.688c5.547.856,4.043,5.4,5.509,7.164.306.367.523.353.958.382.484-.266.606-.332.758-.9a14.687,14.687,0,0,0,.084-3.739c-.034-2.16-.557-12.12.291-13.449a1.592,1.592,0,0,1,.866-.613c1.083-.129,3.229,1.433,4.375,1.771a14.193,14.193,0,0,0,3.882.48c3.83,0,8.3-1.245,11.1-3.97.436-.424,1-1.5,1.545-1.651l.416.3a19.38,19.38,0,0,1,3.493,7.838c-1.507.176-5.719-.222-6.687.968a2.042,2.042,0,0,0-.354,1.479,1.443,1.443,0,0,0,.764,1.007c1.48.824,5.481-.125,7.154-.332.226,1.456.526,2.94.655,4.406a16.962,16.962,0,0,1,4.363-2.361c-2.393-4.935-4.731-9.848-8.836-13.625a3.879,3.879,0,0,1-.584-.519c-.108-.163-.523-3.995-.951-5.05-2.036-5.028-8.631-8.167-13.855-7.824a8.977,8.977,0,0,0-6.242,2.8,9.506,9.506,0,0,0-2.178,6.424c-3.857,1.144-7.561,3.417-9.51,7.05-1.827,3.4-1.5,8.469-1.138,12.248,1.482-.088,2.555-.527,4.12-.285h0Z" transform="translate(-630.69 -85.857)" fill="#422038"/>
            <path id="Trazado_1007652" data-name="Trazado 1007652" d="M817.165,173.724c-.6-.509-6.906-6.4-6.948-6.5a2.9,2.9,0,0,1-.059-.6,4.373,4.373,0,0,1,1,.654c1.271,1.114,6.75,5.654,6.837,6.992a4.564,4.564,0,0,1-.832-.539h0Zm-5.136.18a2.282,2.282,0,0,1-.932-1.02,2.035,2.035,0,0,1,.8-1.11,1.07,1.07,0,0,1,.274.143c.353.257.376.573.468.966a1.42,1.42,0,0,1-.609,1.022h0Zm14.35-13.623c1.189-1.05,3.608-1.1,5.138-1.425a2.418,2.418,0,0,1,.964.008,2.287,2.287,0,0,1,1.259,1.278,1.053,1.053,0,0,1-.174.835c-.863,1.159-4.173,1.447-5.573,1.713a1.234,1.234,0,0,1-1-.052,1.817,1.817,0,0,1-.879-1.148,1.466,1.466,0,0,1,.265-1.21h0Zm5.379,10.186a2.49,2.49,0,0,1-.938-.407,2.7,2.7,0,0,1-.871-1.784,4.211,4.211,0,0,1,.792-3.077,6.8,6.8,0,0,1,1.02.164,2.3,2.3,0,0,1,.9,1.615,4.738,4.738,0,0,1-.9,3.489Zm11.247-5.832a2.2,2.2,0,0,1,.989.444,3.164,3.164,0,0,1,.758,2.18,3.9,3.9,0,0,1-1.2,2.968,1.823,1.823,0,0,1-.54-.287,3.435,3.435,0,0,1-1.026-2.407,3.664,3.664,0,0,1,1.02-2.9h0Zm11.4,1.843a1.379,1.379,0,0,1,.178.342c-1.157,1.758-3.523,3.3-5.175,4.634l-.173-.287c.428-1.187,4.023-3.8,5.17-4.689h0Zm-9.437,31.008q-.388.172-.781.33a15.155,15.155,0,0,1-11.809-.066c-4.774-2.053-8.71-6.887-10.579-11.677a10.743,10.743,0,0,1,.13-8.395,8.257,8.257,0,0,1,3.216-3.66c6.5-4.042,12.468,2.854,18.151.643l.173-.068c-1.5-3.889-5.147-7.655-6.963-11.63l.063-.135c1.43,1.188,6.382,9.346,7.444,11.354.056-.025.113-.049.169-.075,1.1-.507,2.389-2.207,3.787-1.76,1.282.411,2.223,2.686,2.729,3.827a8.618,8.618,0,0,1,.471,1.229.769.769,0,0,1,.235-.452c.381-.31,2.153-.9,2.968-1.486a8.807,8.807,0,0,0,3.844-5.792,6.186,6.186,0,0,0-1.082-4.735,6.736,6.736,0,0,0-4.671-2.381,16.967,16.967,0,0,0-4.364,2.361c-.129-1.466-.429-2.951-.655-4.406-1.673.206-5.674,1.156-7.154.332a1.443,1.443,0,0,1-.764-1.007,2.041,2.041,0,0,1,.354-1.479c.967-1.19,5.179-.792,6.687-.968a19.377,19.377,0,0,0-3.493-7.838l-.416-.3c-.544.152-1.109,1.227-1.545,1.651-2.8,2.725-7.271,3.974-11.1,3.97a14.19,14.19,0,0,1-3.882-.48c-1.146-.338-3.291-1.9-4.375-1.771a1.59,1.59,0,0,0-.866.613c-.848,1.328-.325,11.289-.291,13.449a14.661,14.661,0,0,1-.084,3.739c-.153.569-.274.635-.758.9-.434-.029-.652-.015-.958-.382-1.466-1.762.038-6.308-5.509-7.164-1.565-.242-2.638.2-4.12.285-1.927,1.71-3.414,3.292-3.556,6.021a7.28,7.28,0,0,0,2,5.184A8.708,8.708,0,0,0,813.89,178c1.177.032,2.36.008,3.537,0v16.165a63.6,63.6,0,0,1,.009,7.374l.116,0c1.4.743,10.855,11.858,13.521,14.29a4.626,4.626,0,0,1,.238-.5c.36-.642,13.116-14.183,13.134-14.193a2.417,2.417,0,0,1,.423-.126,20.986,20.986,0,0,0,.1-3.516h0Z" transform="translate(-620.633 -127.946)" fill="#e59e7e"/>
            <path id="Trazado_1007653" data-name="Trazado 1007653" d="M889.69,191.913a1.233,1.233,0,0,0,1,.052c1.4-.267,4.71-.554,5.573-1.713a1.053,1.053,0,0,0,.174-.835,2.287,2.287,0,0,0-1.259-1.278,2.418,2.418,0,0,0-.964-.008c-1.531.321-3.95.374-5.138,1.425a1.466,1.466,0,0,0-.265,1.21,1.816,1.816,0,0,0,.879,1.148h0Z" transform="translate(-683.329 -157.22)" fill="#422038"/>
            <path id="Trazado_1007654" data-name="Trazado 1007654" d="M938.6,216.3l.066-.534c-1.062-2.008-6.014-10.166-7.444-11.354l-.063.135c1.815,3.975,5.466,7.74,6.963,11.63l.235.249.243-.125h0Z" transform="translate(-715.288 -169.526)" fill="#140809"/>
            <path id="Trazado_1007655" data-name="Trazado 1007655" d="M954.435,217.056a1.826,1.826,0,0,0,.54.287,3.9,3.9,0,0,0,1.2-2.968,3.166,3.166,0,0,0-.758-2.18,2.194,2.194,0,0,0-.989-.445,3.663,3.663,0,0,0-1.02,2.9,3.434,3.434,0,0,0,1.026,2.407h0Z" transform="translate(-732.057 -175.061)" fill="#422038"/>
            <path id="Trazado_1007656" data-name="Trazado 1007656" d="M906.22,214.207a6.836,6.836,0,0,0-1.02-.164,4.213,4.213,0,0,0-.792,3.077,2.7,2.7,0,0,0,.871,1.784,2.49,2.49,0,0,0,.938.407,4.739,4.739,0,0,0,.9-3.489,2.3,2.3,0,0,0-.9-1.615Z" transform="translate(-695.092 -176.79)" fill="#422038"/>
            <path id="Trazado_1007657" data-name="Trazado 1007657" d="M988.22,219.58a1.381,1.381,0,0,0-.178-.342c-1.146.893-4.742,3.5-5.17,4.689l.173.287c1.651-1.332,4.017-2.876,5.175-4.634h0Z" transform="translate(-754.274 -180.706)" fill="#140809"/>
            <path id="Trazado_1007658" data-name="Trazado 1007658" d="M825.117,220.456a4.36,4.36,0,0,0-1-.654,2.887,2.887,0,0,0,.059.6c.042.1,6.348,5.995,6.948,6.5a4.563,4.563,0,0,0,.832.539c-.088-1.338-5.567-5.878-6.837-6.992h0Z" transform="translate(-634.589 -181.131)" fill="#140809"/>
            <path id="Trazado_1007659" data-name="Trazado 1007659" d="M829,240.9a1.074,1.074,0,0,0-.274-.143,2.036,2.036,0,0,0-.8,1.11,2.281,2.281,0,0,0,.932,1.02,1.421,1.421,0,0,0,.609-1.022c-.092-.393-.115-.708-.468-.966h0Z" transform="translate(-637.465 -196.927)" fill="#140809"/>
            <path id="Trazado_1007660" data-name="Trazado 1007660" d="M887.65,252.878a6.69,6.69,0,0,1-3.195,1.8,4.805,4.805,0,0,1-3.715-.788,6.715,6.715,0,0,1-2.616-4.759c3.8.52,7.523.462,11.335.633a10.645,10.645,0,0,1-1.81,3.118Zm7.505-10.019c-1.4-.447-2.689,1.253-3.787,1.76-.056.026-.112.05-.169.075l-.066.534-.243.125-.235-.249-.173.068c-5.683,2.211-11.653-4.685-18.151-.643a8.257,8.257,0,0,0-3.216,3.66,10.742,10.742,0,0,0-.13,8.395c1.869,4.791,5.8,9.625,10.579,11.677a15.154,15.154,0,0,0,11.809.066q.394-.158.781-.33a16.313,16.313,0,0,0,4.943-4.709c2.932-4.6,2.392-10.289,1.259-15.374a8.693,8.693,0,0,0-.471-1.229c-.507-1.141-1.447-3.416-2.729-3.827h0Z" transform="translate(-667.821 -198.457)" fill="#422038"/>
            <path id="Trazado_1007661" data-name="Trazado 1007661" d="M911.155,273.314a4.806,4.806,0,0,0,3.715.788,6.688,6.688,0,0,0,3.195-1.8,10.641,10.641,0,0,0,1.81-3.118c-3.812-.17-7.538-.113-11.335-.633a6.714,6.714,0,0,0,2.615,4.759Z" transform="translate(-698.235 -217.885)" fill="#f8f8f8"/>
            <path id="Trazado_1007662" data-name="Trazado 1007662" d="M1286.379,370.481c-.548,1.689-1.886,3.157-2.543,4.825-1.227,3.113-1.712,6.481-3.174,9.513-1.124,2.33-2.957,4.409-3.667,6.92-1.108,3.919.864,7.894-.345,11.675-1.073,3.358-4.21,5.4-4.621,9.109-.483,4.359,2.679,7.99,2.175,12.221-.665,5.58-4.375,9.1-1.459,14.98a13.715,13.715,0,0,0,2.287,3.2c5.52-6.975,13.8-11.227,22.461-12.678,3.136-.593,6.47.217,9.622-.173,4.715-.584,1.329-4.075,2.978-6.21a1.376,1.376,0,0,1-.223-.406c-.26-.9-.195-8.2.144-8.925-2.81-.565-5.448-.477-8.12-1.783a12.217,12.217,0,0,1-6.409-7.725,25.483,25.483,0,0,1-1.164-5.173c-.367-3.142-.535-13.447.9-16.006.238-.425.591-.41,1.029-.53a1.05,1.05,0,0,1-.739-.253,1.785,1.785,0,0,1-.012-.738,3.125,3.125,0,0,1,1.643-2.1,1.891,1.891,0,0,1,.572-1.459,70.644,70.644,0,0,1,8.119-8.772c4.3,6.826,13.78,14.218,21.709,15.976a12.646,12.646,0,0,0,1.56.246c2.4-1.447,4.64-2.591,7.535-1.9a5.953,5.953,0,0,1,3.771,2.874,8.467,8.467,0,0,1,.81,6.382,8.278,8.278,0,0,1-3.864,4.989q-.5.277-1.021.526c-.131,8.034.064,16.073-.013,24.109,2.606,0,11.261-.348,13.215.267l.141.226a38.6,38.6,0,0,1,7.056-.518,11.537,11.537,0,0,0-2.235-.151c.237-3.342,2.328-6.266,2.315-9.533-.016-3.935-2.934-6.433-4.036-9.951-1.217-3.884,1.02-8.015-.187-12.053-.937-3.134-3.576-5.162-5.032-7.987-1.535-2.978-1.656-6.257-2.711-9.377-.421-1.245-1.43-2.357-1.763-3.6-.019-.068-.034-.136-.051-.2,4.241.066,16.112-.574,19.349.456a9.4,9.4,0,0,1,3.693,2.482,6.994,6.994,0,0,1,1.959,3.466,46.262,46.262,0,0,1,.165,7.115l-.013,12.3-.012,21.074c0,3.7.151,7.471-.011,11.166,0,.057-.007.115-.01.173l.35.229c.055-.509.067-1.037.072-1.549.124-11.634.012-23.28.008-34.915l.019-9.049a36.881,36.881,0,0,0-.215-6.882,7.526,7.526,0,0,0-2.182-3.547,9.244,9.244,0,0,0-4.1-2.543c-3.412-.97-14.98-.425-19.259-.448-.9-.255-2.518-2.743-3.245-3.525a27.526,27.526,0,0,0-7.261-5.16c-12.8-6.579-28.825-6.152-40.1,3.232-1.076.9-5.2,5.423-5.762,5.582-.034.01-.07.016-.1.023l.037.374c-.01.035-.021.07-.031.105h0Z" transform="translate(-971.971 -284.348)" fill="#ae7e7a"/>
            <path id="Trazado_1007663" data-name="Trazado 1007663" d="M909.336,373.828a4.651,4.651,0,0,0-.238.5c1.037-.69,13.262-13.725,13.8-14.821a2.421,2.421,0,0,0-.423.126c-.018.01-12.775,13.551-13.134,14.193h0Z" transform="translate(-698.656 -286.454)" fill="#ad4e33"/>
            <path id="Trazado_1007664" data-name="Trazado 1007664" d="M912.353,395.463a1.686,1.686,0,1,1-.441-1.641,1.685,1.685,0,0,1,.441,1.641h0Zm-2.379-11.435a1.655,1.655,0,1,1-.773,2.2,1.655,1.655,0,0,1,.773-2.2h0Zm54.32-2.338-.079-.156c-2.288-2.234-4.212-4.77-6.627-6.919-8.132-7.237-18.286-10.991-28.744-13.442-2.671-.626-5.391-1.025-8.058-1.663-.534,1.1-12.758,14.131-13.8,14.821,4,3.08,8.2,6.516,11.222,10.6,2.724-5.105,5.218-10.341,7.8-15.518.981-1.966,2.3-5.39,3.671-6.923-.508,2.433-4.124,8.757-5.387,11.258-1.984,3.931-3.83,7.986-5.951,11.841-1.818-1.989-9.1-10.278-11.531-10.513a1.232,1.232,0,0,0-.394.947,65.031,65.031,0,0,0-.027,7.018c.006,5.781.132,11.593-.009,17.372a28.269,28.269,0,0,0,3.9.019l8.636-.032,26.739.031c3.117-.012,9.58.354,12.346-.457a9.062,9.062,0,0,0,5.182-4.121c.072-1.187.884-2.256,1.034-3.448.432-3.439.105-7.238.076-10.715h0Z" transform="translate(-696.547 -286.454)" fill="#faaa5a"/>
            <path id="Trazado_1007665" data-name="Trazado 1007665" d="M767.655,383.284a45.734,45.734,0,0,1-4.4,4.145,59.962,59.962,0,0,1-3.317-5.684q-3.311-5.691-6.481-11.463c-.9-1.625-2.182-3.161-2.739-4.948l.128-.063c1.306,1.315,2.661,4.391,3.659,6.139Q759,379.154,763.308,387c3.695-3.737,7.516-7.3,11.381-10.863-1.486-1.373-12.678-13.318-13.088-14.47l-.116,0c-11.609,2.24-19.5,5.283-29.486,11.793-.935,2.537.316,5.786-.479,8.362-.014,3.787-.538,10.172.556,13.6a9.559,9.559,0,0,0,2.35,3.769,8.986,8.986,0,0,0,4.424,2.481c4.226.934,9.868.428,14.272.423l21.057,0-.009-25q-3.287,3.066-6.514,6.195h0Z" transform="translate(-564.68 -288.08)" fill="#faaa5a"/>
            <path id="Trazado_1007666" data-name="Trazado 1007666" d="M833.741,384.667a65.031,65.031,0,0,1,.027-7.018,1.231,1.231,0,0,1,.394-.947c2.428.235,9.713,8.523,11.531,10.513,2.121-3.856,3.966-7.911,5.951-11.841,1.263-2.5,4.878-8.825,5.387-11.258-1.368,1.533-2.69,4.956-3.671,6.923-2.583,5.177-5.077,10.413-7.8,15.518-3.021-4.083-7.221-7.519-11.222-10.6-2.665-2.432-12.123-13.547-13.521-14.29.41,1.152,11.6,13.1,13.088,14.47-3.864,3.559-7.686,7.126-11.381,10.863q-4.312-7.845-8.806-15.589c-1-1.748-2.353-4.824-3.659-6.139l-.128.063c.557,1.787,1.837,3.323,2.739,4.948q3.169,5.772,6.481,11.463a59.962,59.962,0,0,0,3.317,5.684,45.766,45.766,0,0,0,4.4-4.145q3.227-3.13,6.514-6.195l.009,25,.338-.052c.141-5.778.015-11.591.009-17.372h0Z" transform="translate(-623.896 -288.08)" fill="#be6537"/>
            <path id="Trazado_1007667" data-name="Trazado 1007667" d="M351.151,410.706a14.925,14.925,0,0,0,1.764,11.72,21.93,21.93,0,0,0,2.2,3.14c-3.508,3.044-6.508,5.9-6.893,10.815a17.446,17.446,0,0,0,4.445,12.983,28.019,28.019,0,0,0,13.248,8.647,46.413,46.413,0,0,0,5.844.884l.4-.113a1.991,1.991,0,0,0,.249-.316c.216-.43,0-23.156.028-25.752a13.141,13.141,0,0,1-4.775.424,8.338,8.338,0,0,1-5.557-3.277,8.658,8.658,0,0,1-1.817-6.448,6.149,6.149,0,0,1,2.5-4.141,5.9,5.9,0,0,1,4.5-.9,8.265,8.265,0,0,1,5.212,3.158,21.358,21.358,0,0,0,4.132-1.371c6.665-2.932,13.015-8.05,15.719-14.976a48.309,48.309,0,0,1,9.5,9.723c-1.42.18-3.637.294-4.53,1.606a1.258,1.258,0,0,0-.233,1.1,1.7,1.7,0,0,0,.752.644c1.586.785,3.947-.242,5.495-.753a8.272,8.272,0,0,0,1.061,2.939,17,17,0,0,0,3.479-10.359c.01-5.18-2.083-9.17-5.674-12.747a3.9,3.9,0,0,1-.532-.615c-1.112-.63-2.225-1.284-3.381-1.828-7.671-3.611-18.452-3.011-26.444-.842-2.626.713-5.128,1.827-7.689,2.74l-.717.416c-5.209,3.034-10.676,7.417-12.3,13.5h0Z" transform="translate(-275.783 -311.177)" fill="#422038"/>
            <path id="Trazado_1007668" data-name="Trazado 1007668" d="M334.59,450.1l.009-20.187c0-3.529-.149-7.112.012-10.632A9.2,9.2,0,0,1,337.5,412.7c2.8-2.5,6.62-2.246,10.12-2.221,1.73.012,3.468-.012,5.194.088l.717-.416c-1.851-.144-3.717-.108-5.572-.113-3.689-.011-7.54-.27-10.536,2.3a9.687,9.687,0,0,0-3.234,6.519c-.249,3.858-.063,7.832-.061,11.7l.006,21.8.008,26.349c0,4.751-.159,9.565.058,14.309a10.2,10.2,0,0,0,.483-.946c-.43-13.951-.1-28-.092-41.961h0Z" transform="translate(-265.147 -324.535)" fill="#ae7e7a"/>
            <path id="Trazado_1007669" data-name="Trazado 1007669" d="M566.124,410.688c.96-.466,8.292-.3,9.6-.184a9.5,9.5,0,0,1,2.345.481,8.6,8.6,0,0,1,4.829,4.272,9.987,9.987,0,0,1,.867,4.4,4.233,4.233,0,0,1,.2,1.838q0-1.709.111-3.415c0-.051,0-.1,0-.152a8.14,8.14,0,0,0-2.611-5.242c-2.967-2.782-6.4-2.674-10.194-2.665-1.89,0-3.788-.02-5.677.056a3.9,3.9,0,0,0,.532.615h0Z" transform="translate(-439.695 -324.529)" fill="#ae7e7a"/>
            <path id="Trazado_1007670" data-name="Trazado 1007670" d="M1232.875,510.078a.535.535,0,0,0-.061-.39,1.879,1.879,0,0,1-.249-.695c-.083-1.779.125-3.695.156-5.489q.123-6.647.15-13.3l-.12-61.97c.008-2.657-.3-9.15.294-11.372a9.991,9.991,0,0,1,2.485-4.136,8.7,8.7,0,0,1,4.05-2.233c3.155-.76,13.323-.3,17.086-.256l-.037-.374c-1.694-.435-14.4-.286-16.543.018a7.573,7.573,0,0,0-2.86,1.017,9.778,9.778,0,0,0-4.611,5.994c-.678,2.751-.34,6.878-.357,9.746q-.036,11.338.059,22.676l-.039,60.567.415.287.184-.093h0Z" transform="translate(-942.227 -324.212)" fill="#f1dbcc"/>
            <path id="Trazado_1007671" data-name="Trazado 1007671" d="M1400.563,433.84a4.011,4.011,0,0,1,2.517,1.006,1.924,1.924,0,0,1,.72,1.392,1.985,1.985,0,0,1-.468,1.46,3.133,3.133,0,0,1-1.538,1.839,2.443,2.443,0,0,1-1.866.215,2.108,2.108,0,0,1-1.129-.913c-.017-.03-.028-.063-.043-.093a2.24,2.24,0,0,1-.391-.216,1.294,1.294,0,0,1-.586-1.02c-.162-1.949,2.359-4.782,3.653-6.139,1.156-1.212,2.959-3.045,4.726-3.087l.033.2c-.479.68-1.688.925-2.381,1.435a22.141,22.141,0,0,0-3.743,3.867c.165.016.329.036.494.05h0Zm-9.291,4.9a2.829,2.829,0,0,1-1.5,1.7,67.608,67.608,0,0,1-6.79.018,4.329,4.329,0,0,1-1.072-.906,2.494,2.494,0,0,1-.547-1.974,2.752,2.752,0,0,1,1.521-1.837,59.732,59.732,0,0,1,7.162-.013,7.237,7.237,0,0,1,.737.9,2.673,2.673,0,0,1,.492,2.114h0Zm-10.994-5.471c-.042,0-.084,0-.125,0a1.5,1.5,0,0,1-1.264-.63c-.737-1.042-.572-3.817-.217-4.972.17-.555.614-.7,1.075-.965a2.043,2.043,0,0,1,1.069.5,3.513,3.513,0,0,1,.8,2.5,4.411,4.411,0,0,1-1.341,3.558h0Zm-3.578,11.656a3.911,3.911,0,0,1-2.852,1.218,3.361,3.361,0,0,1-2.39-1.277,12.284,12.284,0,0,1-1.242-4.487,11.573,11.573,0,0,0,1.8.586c2.46.5,4.718-1.128,6.636-2.428l.233.387c-.081,2.249-.5,4.368-2.184,6h0Zm-8.011-7.048a1.712,1.712,0,0,1-.309-.787c-.247-1.855,2.1-2.355,2.98-3.661,1.046-1.55,1.056-4.6,1.337-6.462l.339.334a9.56,9.56,0,0,1-.274,2.816,10.188,10.188,0,0,1-.775,3.22c-.715,1.208-3.018,2.146-3.1,3.572a2.716,2.716,0,0,0,1.208,1.357c1.354.64,2.459-.57,3.607-1.041l.27.247c-.118.121-.237.24-.364.349a3.78,3.78,0,0,1-2.99.951,2.752,2.752,0,0,1-1.932-.9h0Zm-2.434-5.219a2.7,2.7,0,0,1-1.042-1.917,6.154,6.154,0,0,1,.787-4.015,2.787,2.787,0,0,1,1.493.136,2.427,2.427,0,0,1,1,1.627,6.712,6.712,0,0,1-.573,4.283,3.023,3.023,0,0,1-1.667-.114Zm12.429-11.456c1.543-.13,3.881.009,5.18.956a1.264,1.264,0,0,1,.555.976,2.377,2.377,0,0,1-.741,1.274,13.375,13.375,0,0,1-4.846-.839,1.359,1.359,0,0,1-.868-.986,2.851,2.851,0,0,1,.72-1.382h0Zm27.28,53.777c.661-1.013,1.142-2.138,1.835-3.135,2.625-3.779,6.306-6,10.566-7.479l-.141-.226c-1.955-.615-10.609-.265-13.215-.267.077-8.036-.118-16.075.013-24.109q.517-.248,1.021-.526a8.278,8.278,0,0,0,3.864-4.989,8.467,8.467,0,0,0-.81-6.382,5.953,5.953,0,0,0-3.771-2.874c-2.9-.694-5.133.45-7.535,1.9a12.674,12.674,0,0,1-1.56-.246c-7.93-1.758-17.409-9.15-21.709-15.976a70.656,70.656,0,0,0-8.119,8.772,1.89,1.89,0,0,0-.572,1.459c1.471-.24,2.739-.361,4.005.6a1.014,1.014,0,0,1,.356.489,1.505,1.505,0,0,1-.795,1.047c-1.332.891-2.988.518-4.458.963-.438.119-.791.1-1.029.53-1.437,2.559-1.269,12.863-.9,16.006a25.47,25.47,0,0,0,1.164,5.173,12.217,12.217,0,0,0,6.409,7.725c2.672,1.306,5.31,1.218,8.12,1.783a33,33,0,0,0,12.848-1.739c-2.622,3.735-9.016,8.15-12.77,11.07-1.649,2.135,1.736,5.626-2.978,6.21-3.152.39-6.485-.42-9.622.173q1.9,9.741,4.468,19.333a42.8,42.8,0,0,0,2.314,7.658,7.137,7.137,0,0,0,2.493,2.867,6.515,6.515,0,0,0,4.93.913,4.645,4.645,0,0,0,2.119-1.024c2.239-1.906,4.082-4.65,5.966-6.912,4.617-5.541,9.091-11.245,14.188-16.359.574-.576,1.907-2.142,2.706-2.225l.358-.418.242.224h0Z" transform="translate(-1040.657 -325.018)" fill="#e59e7e"/>
            <path id="Trazado_1007672" data-name="Trazado 1007672" d="M362.966,473.96c-.118-.272-.343-.276-.609-.376a46.4,46.4,0,0,1-5.844-.884,28.022,28.022,0,0,1-13.248-8.647,17.446,17.446,0,0,1-4.445-12.983c.385-4.919,3.385-7.77,6.893-10.815a21.878,21.878,0,0,1-2.2-3.14,14.925,14.925,0,0,1-1.764-11.72c1.623-6.082,7.09-10.465,12.3-13.5-1.727-.1-3.465-.076-5.194-.088-3.5-.025-7.317-.283-10.12,2.221a9.2,9.2,0,0,0-2.887,6.585c-.161,3.52-.014,7.1-.012,10.632l-.009,20.187c-.007,13.962-.338,28.01.092,41.961.637-.8,1.162-1.777,1.76-2.621a38.749,38.749,0,0,1,5.695-6.528,41.017,41.017,0,0,1,15.367-8.35,13.007,13.007,0,0,1,4.34-.949,2.446,2.446,0,0,0-.114-.988h0Z" transform="translate(-266.381 -325.868)" fill="#f8f8f8"/>
            <path id="Trazado_1007673" data-name="Trazado 1007673" d="M561.617,448.218l-.013-17.863c0-3.17-.162-6.429.07-9.585a9.988,9.988,0,0,0-.867-4.4,8.6,8.6,0,0,0-4.829-4.272,9.5,9.5,0,0,0-2.345-.481c-1.306-.111-8.638-.282-9.6.184,3.591,3.577,5.684,7.566,5.674,12.747a17,17,0,0,1-3.479,10.359c-.522,1.264-.343,3.11-.336,4.467.042,7.532,1.612,17-6.986,20.529a11.763,11.763,0,0,1-2.443.64c-.119,5.036-.268,10.171-.091,15.2.644.44,1.36.86,1.959,1.354,12.868,7.667,14.719,12.339,19.749,26.018.793,2.159,2.174,6.292,3.487,8,.28-20.956.05-41.948.047-62.909h0Z" transform="translate(-417.606 -325.646)" fill="#f8f8f8"/>
            <path id="Trazado_1007674" data-name="Trazado 1007674" d="M1244.739,484.226a13.707,13.707,0,0,1-2.287-3.2c-2.915-5.879.794-9.4,1.459-14.98.5-4.231-2.657-7.863-2.175-12.221.411-3.714,3.548-5.751,4.621-9.109,1.208-3.781-.764-7.756.345-11.675.71-2.511,2.542-4.591,3.667-6.92,1.462-3.031,1.947-6.4,3.174-9.513.657-1.668,2-3.136,2.543-4.825.011-.035.021-.07.031-.105-3.763-.04-13.931-.5-17.086.256a8.694,8.694,0,0,0-4.05,2.233,10,10,0,0,0-2.485,4.136c-.595,2.223-.286,8.715-.294,11.372l.12,61.97q-.026,6.649-.15,13.3c-.031,1.795-.239,3.71-.156,5.489a1.878,1.878,0,0,0,.249.695.535.535,0,0,1,.061.39l-.184.093-.415-.287c-.148.392-.4.808-.186,1.225a3.428,3.428,0,0,0,.486.612c1.317-3.575,2.644-7.138,3.905-10.733,2.566-7.319,4-11.94,8.807-18.2h0Z" transform="translate(-941.676 -325.647)" fill="#f8f8f8"/>
            <path id="Trazado_1007675" data-name="Trazado 1007675" d="M1586.835,469.625c.161-3.7.014-7.466.011-11.166l.012-21.074.013-12.3a46.279,46.279,0,0,0-.165-7.115,7,7,0,0,0-1.959-3.466,9.393,9.393,0,0,0-3.693-2.482c-3.237-1.029-15.108-.389-19.349-.456.017.068.032.136.051.2.333,1.241,1.342,2.353,1.763,3.6,1.055,3.119,1.176,6.4,2.711,9.377,1.456,2.826,4.1,4.853,5.032,7.987,1.207,4.038-1.03,8.17.187,12.053,1.1,3.518,4.02,6.016,4.036,9.951.013,3.267-2.078,6.191-2.315,9.533a11.55,11.55,0,0,1,2.235.151c4.519.324,8.043,2.577,11.419,5.382,0-.058.008-.115.01-.173h0Z" transform="translate(-1190.644 -325.592)" fill="#f8f8f8"/>
            <path id="Trazado_1007676" data-name="Trazado 1007676" d="M639.03,444.346c-.233,3.156-.073,6.416-.07,9.585l.013,17.863c0,20.96.233,41.952-.047,62.909l.555,1.125,0-67.075.019-17.379c0-2.751.307-5.909-.16-8.6q-.116,1.705-.11,3.415a4.232,4.232,0,0,0-.2-1.838h0Z" transform="translate(-494.962 -349.222)" fill="#b29b9e"/>
            <path id="Trazado_1007677" data-name="Trazado 1007677" d="M419.474,484.606a33,33,0,0,0,11.872,1.067l0,6.755c-.69.025-10.732-6.8-11.869-7.823h0Zm-2.6-11.683a2.836,2.836,0,0,1-1.932-1.216,2.364,2.364,0,0,1-.126-1.906,3.068,3.068,0,0,1,1.96-1.63c2-.033,4.735-.389,6.612.4a2.3,2.3,0,0,1,1.343,1.267,2.8,2.8,0,0,1-.22,2.107,2.428,2.428,0,0,1-1.737.995,21.643,21.643,0,0,1-5.9-.019h0Zm4.951-15.415c.753-1.308,3.844-1.731,5.216-2.092a2.427,2.427,0,0,1,.31.121,2.054,2.054,0,0,1,1.036,1.206,1.35,1.35,0,0,1-.09,1.085c-.734,1.314-3.742,1.824-5.143,2.23l-.487-.045a1.825,1.825,0,0,1-.919-1.122,1.644,1.644,0,0,1,.077-1.383h0Zm3.011,8.128a2.924,2.924,0,0,1-.188-2.278,2.334,2.334,0,0,1,1.3-1.542,2.272,2.272,0,0,1,1.624.909,2.812,2.812,0,0,1,.481,2.206,2.411,2.411,0,0,1-1.33,1.788,5.337,5.337,0,0,1-.762-.11,1.825,1.825,0,0,1-1.121-.973h0Zm12.436,6.428a8.05,8.05,0,0,1-1.855,4.213,5.917,5.917,0,0,1-3.438,1.543,5.52,5.52,0,0,1-4.036-1.444,5.976,5.976,0,0,1-2-4.29c3.773-.1,7.555-.043,11.329-.021h0Zm-3.657-6.1c.624.949,1.875,1.368,2.4,2.259.205.349.108.5.018.855a4.922,4.922,0,0,1-2.635,1.359l-.175-.284c.333-.481,1.476-.7,2.055-.962.164-.277.251-.33.089-.65-.285-.564-1.077-1.094-1.507-1.586-1.35-1.547-2.871-4.343-2.95-6.448.913.527,1.918,4.262,2.705,5.458h0Zm2.556-3.289c.276-.724.723-.895,1.386-1.185.092.014.184.03.276.048a1.968,1.968,0,0,1,1.453,1,2.7,2.7,0,0,1,.229,2.059,2.529,2.529,0,0,1-1.311,1.66,3.985,3.985,0,0,1-.916-.16,2.263,2.263,0,0,1-1.072-1.114,2.82,2.82,0,0,1-.045-2.31h0Zm-29.5,6.241c-.343-.327.479-2.652-.477-3.93-1.134-1.517-4.873-3.329-5.323-4.2a9.259,9.259,0,0,1,3.271,1.617c1.386,1,3.08,2.57,3.3,4.375a2.634,2.634,0,0,1-.776,2.139h0Zm24.851,16.6a11.763,11.763,0,0,0,2.443-.64c8.6-3.525,7.028-13,6.986-20.529-.007-1.357-.186-3.2.336-4.467a8.271,8.271,0,0,1-1.061-2.939c-1.548.511-3.909,1.538-5.495.753a1.7,1.7,0,0,1-.752-.644,1.258,1.258,0,0,1,.233-1.1c.893-1.312,3.11-1.426,4.53-1.606a48.319,48.319,0,0,0-9.5-9.723c-2.7,6.927-9.055,12.044-15.719,14.976a21.356,21.356,0,0,1-4.132,1.371,8.266,8.266,0,0,0-5.212-3.158,5.906,5.906,0,0,0-4.5.9,6.148,6.148,0,0,0-2.5,4.141,8.657,8.657,0,0,0,1.817,6.448,8.337,8.337,0,0,0,5.557,3.277,13.141,13.141,0,0,0,4.775-.424c-.025,2.6.188,25.321-.028,25.752a1.973,1.973,0,0,1-.249.316l-.4.113c.266.1.491.1.609.376a2.446,2.446,0,0,1,.114.988c.328,1.044,2.816,2.249,3.82,2.772,4.8,2.5,10.59,4.394,15.98,2.714a7.034,7.034,0,0,0,4.23-3.108c-.6-.494-1.315-.914-1.959-1.354-.177-5.033-.028-10.167.091-15.2h0Z" transform="translate(-312.657 -350.616)" fill="#ae7e7a"/>
            <path id="Trazado_1007678" data-name="Trazado 1007678" d="M1138.453,460.346c-.15,1.192-.962,2.261-1.034,3.448,2.337-3.389,1.565-9.8,1.5-13.837l-.386-.326c.029,3.477.356,7.276-.076,10.715Z" transform="translate(-870.783 -354.395)" fill="#be6537"/>
            <path id="Trazado_1007679" data-name="Trazado 1007679" d="M1374.485,452.8a1.012,1.012,0,0,0-.356-.489c-1.266-.956-2.534-.835-4.005-.6a3.127,3.127,0,0,0-1.643,2.1,1.782,1.782,0,0,0,.013.738,1.049,1.049,0,0,0,.739.253c1.47-.444,3.126-.071,4.458-.963a1.5,1.5,0,0,0,.795-1.047Z" transform="translate(-1044.95 -355.837)" fill="#422038"/>
            <path id="Trazado_1007680" data-name="Trazado 1007680" d="M1425.422,455.709a13.374,13.374,0,0,0,4.846.839,2.38,2.38,0,0,0,.741-1.274,1.264,1.264,0,0,0-.555-.976c-1.3-.947-3.637-1.086-5.18-.956a2.848,2.848,0,0,0-.72,1.382,1.358,1.358,0,0,0,.868.986h0Z" transform="translate(-1087.249 -357.16)" fill="#422038"/>
            <path id="Trazado_1007681" data-name="Trazado 1007681" d="M919.789,461.61a1.655,1.655,0,1,0-2.2-.789,1.655,1.655,0,0,0,2.2.789h0Z" transform="translate(-704.94 -361.046)" fill="#3a1211"/>
            <path id="Trazado_1007682" data-name="Trazado 1007682" d="M1375.841,477.568a2.427,2.427,0,0,0-1-1.627,2.786,2.786,0,0,0-1.493-.136,6.153,6.153,0,0,0-.787,4.015,2.7,2.7,0,0,0,1.042,1.917,3.027,3.027,0,0,0,1.667.114,6.712,6.712,0,0,0,.573-4.283Z" transform="translate(-1048.002 -374.101)" fill="#422038"/>
            <path id="Trazado_1007683" data-name="Trazado 1007683" d="M1428.659,476.33a2.043,2.043,0,0,0-1.069-.5c-.461.263-.905.409-1.075.965-.355,1.155-.52,3.931.217,4.972a1.5,1.5,0,0,0,1.264.63c.041,0,.083,0,.125,0a4.41,4.41,0,0,0,1.341-3.558,3.514,3.514,0,0,0-.8-2.5h0Z" transform="translate(-1088.499 -374.143)" fill="#422038"/>
            <path id="Trazado_1007684" data-name="Trazado 1007684" d="M1390.793,487.749c.128-.11.246-.229.364-.349l-.27-.247c-1.148.471-2.253,1.681-3.607,1.041a2.719,2.719,0,0,1-1.208-1.357c.08-1.426,2.383-2.363,3.1-3.572a10.188,10.188,0,0,0,.775-3.22,9.559,9.559,0,0,0,.274-2.816l-.339-.334c-.282,1.866-.292,4.912-1.337,6.462-.881,1.306-3.228,1.806-2.98,3.661a1.71,1.71,0,0,0,.309.787,2.753,2.753,0,0,0,1.932.9,3.78,3.78,0,0,0,2.99-.951h0Z" transform="translate(-1057.84 -374.948)" fill="#140809"/>
            <path id="Trazado_1007685" data-name="Trazado 1007685" d="M1511.072,483.9c.693-.51,1.9-.756,2.381-1.435l-.033-.2c-1.767.042-3.57,1.875-4.726,3.087-1.294,1.357-3.816,4.19-3.653,6.139a1.294,1.294,0,0,0,.586,1.02,2.257,2.257,0,0,0,.391.216,4.8,4.8,0,0,1-.36-.972c-.262-1.211.639-2.4,1.264-3.343.88-.027,2.017-.156,2.729.481a4.208,4.208,0,0,1,.942,2.786,1.986,1.986,0,0,0,.468-1.46,1.924,1.924,0,0,0-.72-1.392,4.011,4.011,0,0,0-2.517-1.006c-.165-.014-.329-.034-.494-.05a22.137,22.137,0,0,1,3.743-3.867h0Z" transform="translate(-1147.92 -378.992)" fill="#140809"/>
            <path id="Trazado_1007686" data-name="Trazado 1007686" d="M497.859,493.082l.487.045c1.4-.406,4.409-.916,5.143-2.23a1.35,1.35,0,0,0,.09-1.085,2.054,2.054,0,0,0-1.036-1.206,2.409,2.409,0,0,0-.31-.121c-1.372.361-4.463.785-5.216,2.092a1.644,1.644,0,0,0-.077,1.383,1.825,1.825,0,0,0,.919,1.122h0Z" transform="translate(-387.852 -383.686)" fill="#422038"/>
            <path id="Trazado_1007687" data-name="Trazado 1007687" d="M918.664,497.009a1.686,1.686,0,1,0,1.645.424,1.686,1.686,0,0,0-1.645-.424h0Z" transform="translate(-704.944 -390.065)" fill="#3a1211"/>
            <path id="Trazado_1007688" data-name="Trazado 1007688" d="M1508.7,507.143c-.625.948-1.527,2.132-1.264,3.343a4.8,4.8,0,0,0,.36.972c.014.031.026.063.043.093a2.107,2.107,0,0,0,1.129.913,2.442,2.442,0,0,0,1.866-.215,3.134,3.134,0,0,0,1.538-1.839,4.207,4.207,0,0,0-.942-2.786c-.712-.637-1.848-.509-2.729-.481h0Z" transform="translate(-1149.699 -397.73)" fill="#f1dbcc"/>
            <path id="Trazado_1007689" data-name="Trazado 1007689" d="M538.975,517.215c.162.32.075.374-.089.65-.579.258-1.722.48-2.055.962l.175.284a4.923,4.923,0,0,0,2.635-1.359c.09-.356.187-.505-.018-.855-.524-.891-1.775-1.31-2.4-2.259-.787-1.2-1.793-4.931-2.705-5.458.079,2.106,1.6,4.9,2.95,6.448.43.493,1.221,1.023,1.507,1.586h0Z" transform="translate(-416.269 -399.288)" fill="#140809"/>
            <path id="Trazado_1007690" data-name="Trazado 1007690" d="M415.733,511.937a9.253,9.253,0,0,0-3.271-1.617c.45.87,4.189,2.682,5.323,4.2.956,1.278.133,3.6.477,3.93a2.634,2.634,0,0,0,.776-2.139c-.224-1.805-1.918-3.371-3.3-4.375h0Z" transform="translate(-324.253 -400.147)" fill="#140809"/>
            <path id="Trazado_1007691" data-name="Trazado 1007691" d="M1446.929,512.172a59.8,59.8,0,0,0-7.162.013,2.752,2.752,0,0,0-1.521,1.837,2.494,2.494,0,0,0,.547,1.974,4.331,4.331,0,0,0,1.072.906,67.626,67.626,0,0,0,6.79-.018,2.829,2.829,0,0,0,1.5-1.7,2.671,2.671,0,0,0-.492-2.114,7.247,7.247,0,0,0-.737-.9h0Z" transform="translate(-1097.543 -401.466)" fill="#faaa5a"/>
            <path id="Trazado_1007692" data-name="Trazado 1007692" d="M556.322,517.789a3.989,3.989,0,0,0,.916.16,2.529,2.529,0,0,0,1.311-1.66,2.7,2.7,0,0,0-.229-2.059,1.968,1.968,0,0,0-1.453-1c-.091-.018-.184-.034-.276-.048-.663.291-1.109.462-1.386,1.185a2.819,2.819,0,0,0,.045,2.31,2.263,2.263,0,0,0,1.072,1.114h0Z" transform="translate(-431.694 -402.303)" fill="#422038"/>
            <path id="Trazado_1007693" data-name="Trazado 1007693" d="M512.033,517.6a2.814,2.814,0,0,0-.481-2.206,2.271,2.271,0,0,0-1.624-.909,2.334,2.334,0,0,0-1.3,1.542,2.924,2.924,0,0,0,.188,2.278,1.824,1.824,0,0,0,1.121.973,5.335,5.335,0,0,0,.762.109,2.41,2.41,0,0,0,1.33-1.788Z" transform="translate(-396.644 -403.291)" fill="#422038"/>
            <path id="Trazado_1007694" data-name="Trazado 1007694" d="M1394.875,526.336a11.619,11.619,0,0,1-1.8-.586,12.278,12.278,0,0,0,1.242,4.487,3.362,3.362,0,0,0,2.39,1.277,3.91,3.91,0,0,0,2.852-1.218c1.682-1.633,2.1-3.752,2.184-6l-.233-.387c-1.918,1.3-4.175,2.925-6.636,2.428h0Z" transform="translate(-1063.517 -410.391)" fill="#f8f8f8"/>
            <path id="Trazado_1007695" data-name="Trazado 1007695" d="M478.383,543.759a2.8,2.8,0,0,0,.22-2.107,2.3,2.3,0,0,0-1.343-1.267c-1.877-.791-4.616-.434-6.612-.4a3.068,3.068,0,0,0-1.96,1.63,2.364,2.364,0,0,0,.126,1.906,2.837,2.837,0,0,0,1.932,1.216,21.626,21.626,0,0,0,5.9.019,2.428,2.428,0,0,0,1.737-.995h0Z" transform="translate(-366.533 -422.428)" fill="#824a4b"/>
            <path id="Trazado_1007696" data-name="Trazado 1007696" d="M516.335,560.329a5.52,5.52,0,0,0,4.036,1.444,5.916,5.916,0,0,0,3.438-1.543,8.049,8.049,0,0,0,1.855-4.213c-3.774-.022-7.555-.081-11.329.021a5.977,5.977,0,0,0,2,4.29h0Z" transform="translate(-401.052 -434.57)" fill="#f8f8f8"/>
            <path id="Trazado_1007697" data-name="Trazado 1007697" d="M1045.321,583.378l-.041.108c-.492,1.261-1.208,2.443-1.727,3.705-1.861,4.521-1.11,8.4.762,12.737q3.724,8.539,7.635,17c1.072,2.288,2.359,4.517,3.357,6.831.014-.055.029-.11.043-.164.833-3.367-.612-25.967.447-26.857.187,1.889.083,3.871.087,5.773v10.666c0,2.1.3,9.1-.138,10.8l-.184.215.029.24.629.17c2.713-5.156,5.073-10.583,7.451-15.9.927-2.074,1.857-5.024,3.127-6.857a2.614,2.614,0,0,1,.545-1.27,21.471,21.471,0,0,1,.933-3.141,13.775,13.775,0,0,0-.375-10.412,15.142,15.142,0,0,0-8.088-8.215,11.3,11.3,0,0,0-11.755,2.019c-.6.522-1.476,1.7-2.181,1.964-.063.023-.127.042-.191.064-.114.248-.115.4-.364.529h0Z" transform="translate(-799.209 -451.147)" fill="#7c9d8c"/>
            <path id="Trazado_1007698" data-name="Trazado 1007698" d="M1439.475,584.568a33,33,0,0,1-12.849,1.739c-.339.724-.4,8.028-.144,8.925a1.374,1.374,0,0,0,.223.406c3.754-2.92,10.149-7.335,12.77-11.07Z" transform="translate(-1088.582 -456.121)" fill="#422038"/>
            <path id="Trazado_1007699" data-name="Trazado 1007699" d="M736.312,600.536a7.877,7.877,0,0,1,4.106-2.239,59.326,59.326,0,0,1,8.743-.228l14.426,0,48.769.039c.249-.13.25-.281.364-.529l-50.564,0-13.538,0a44.609,44.609,0,0,0-8.007.238,9.51,9.51,0,0,0-4.584,2.488,10.675,10.675,0,0,0-2.57,4.894l.354.276a9.289,9.289,0,0,1,2.5-4.935h0Z" transform="translate(-566.244 -465.881)" fill="#ae7e7a"/>
            <path id="Trazado_1007700" data-name="Trazado 1007700" d="M731.807,655.778a65.221,65.221,0,0,0,.578,11.5,8,8,0,0,0,2.449,4.149.859.859,0,0,0,.284-.081c-.306-6.027-.178-13.356-.019-19.442l-.132-.182q-.92-.048-1.839-.112l0-.108-.02-13.279c0-2.949-.327-6.269.3-9.156a9.452,9.452,0,0,1,2.435-4.676,7.681,7.681,0,0,1,3.4-2.011c3.638-1.034,13.652-.515,17.87-.5.007-2.016-.357-5.478,1.238-7.044,1.226-1.2,5.031-.9,6.7-.9l9.191.019a39.94,39.94,0,0,1,5.231.116,4.962,4.962,0,0,1,2.7,1.017c1.3,1.465.779,4.949.766,6.8,3.494.037,7-.029,10.49-.044a31.647,31.647,0,0,1,6.76.28,9.228,9.228,0,0,1,3.962,1.907,8.449,8.449,0,0,1,2.951,5.977c.038.047.075.1.114.143a26.612,26.612,0,0,0,3.021,1.678c4.187,2.7,7.632,7.881,7.443,13-.119,3.235-1.038,6.4-1.148,9.66-.082,2.425.408,7.441-.128,9.487l-.045,1.618a26.153,26.153,0,0,0,4.481.118q-.177-12.5.078-25.009l-.029-.24-.255-.432c-1-2.313-2.285-4.542-3.357-6.831q-3.91-8.456-7.634-17c-1.872-4.34-2.623-8.216-.762-12.737.52-1.262,1.235-2.444,1.727-3.705l.041-.108-48.769-.039-14.426,0a59.343,59.343,0,0,0-8.743.228,7.875,7.875,0,0,0-4.106,2.239,9.287,9.287,0,0,0-2.5,4.935c-.628,5.131.263,11.005-.764,15.861a31.3,31.3,0,0,0-.055,5.3l.114,10.607c.038,2.546-.175,5.1-.123,7.638a1.926,1.926,0,0,0,.224,1.09c.639,2.6.336,5.588.306,8.26h0Z" transform="translate(-564.538 -467.432)" fill="#f8f8f8"/>
            <path id="Trazado_1007701" data-name="Trazado 1007701" d="M488.063,607.089c1.137,1.026,11.179,7.848,11.869,7.823l0-6.755a33,33,0,0,1-11.872-1.067h0Z" transform="translate(-381.247 -473.099)" fill="#422038"/>
            <path id="Trazado_1007702" data-name="Trazado 1007702" d="M1552.809,626.731a38.624,38.624,0,0,0-7.056.518c-4.26,1.478-7.941,3.7-10.566,7.479-.693,1-1.174,2.122-1.835,3.135a19.719,19.719,0,0,0-1.624,5.615c.194,3.254.061,6.575.058,9.839l-.018,17.8,35.317.057c.988.029,1.984-.032,2.972-.065.213-3.943.052-7.97.053-11.921,0-5.708.616-13.615-1.028-19.015a23.925,23.925,0,0,0-4.507-7.833l-.349-.229c-3.375-2.8-6.9-5.058-11.419-5.382h0Z" transform="translate(-1168.045 -487.907)" fill="#422038"/>
            <path id="Trazado_1007703" data-name="Trazado 1007703" d="M732.1,629l-.354-.276c-1.06,4.865-.262,11.067-.411,16.137,1.028-4.856.136-10.731.764-15.861Z" transform="translate(-564.529 -489.407)" fill="#f1dbcc"/>
            <path id="Trazado_1007704" data-name="Trazado 1007704" d="M1095.183,670.646V659.98c0-1.9.1-3.884-.087-5.773-1.06.89.386,23.49-.447,26.857-.014.055-.029.109-.043.164l.255.432.184-.215c.434-1.7.135-8.7.138-10.8h0Z" transform="translate(-838.507 -508.62)" fill="#727571"/>
            <path id="Trazado_1007705" data-name="Trazado 1007705" d="M628.594,719.255c-7.542.2-15.139.025-22.687.022H540.215c-3.536,0-7.659.336-11.136-.112l-.423-.008c-1.434.456-4.629.107-6.232.034a3.01,3.01,0,0,1-.375-1.263l-.128,1.1c-.671.6-4.845.221-5.945.2a14.3,14.3,0,0,1,1.362-4.592c3.289-6.508,11.786-11.369,18.436-13.654,1.884-.647,3.879-.942,5.771-1.559l.137-.046a17.286,17.286,0,0,1,1.029-8.209c1.576-4.073,5.912-9.987,8.381-13.911q2.778-4.5,5.652-8.936c.61-.958,1.117-2.011,1.765-2.938.2-.283.336-.535.677-.614.149.4.019.6-.152.966a46.766,46.766,0,0,1-3.416,5.342c-2.087,3.237-4.071,6.539-6.134,9.791-2.2,3.465-5.225,7.306-6.493,11.206a21.417,21.417,0,0,0-.758,7.305c1.715.218,3.962-.331,5.7-.547q6.667-.821,13.321-1.748c4.6-.612,9.227-1.073,13.834-1.655,7.36-.929,14.7-1.955,22.085-2.668-.263-5.154-.045-10.425-.045-15.59,0-3.872-.313-8.061.136-11.9a18.286,18.286,0,0,1,1.54-5.535c-.8.082-2.132,1.649-2.706,2.225-5.1,5.114-9.571,10.818-14.188,16.359-1.884,2.261-3.727,5.005-5.966,6.912a4.646,4.646,0,0,1-2.119,1.024,6.514,6.514,0,0,1-4.93-.913,7.137,7.137,0,0,1-2.493-2.867,42.789,42.789,0,0,1-2.314-7.658q-2.566-9.587-4.468-19.333c-8.666,1.451-16.941,5.7-22.461,12.678-4.806,6.258-6.241,10.879-8.807,18.2-1.261,3.6-2.588,7.158-3.9,10.733-1.339,4.093-2.685,8.33-4.4,12.275-1.764,4.054-4.216,4.763-4.6,9.875-5.629.009-11.263.059-16.891,0l-17.4-.006-9.659.034a10.048,10.048,0,0,0,4.207-6.523c.078-4.942.246-9.979-.046-14.914-.942-1.213-2.435-3.054-3.986-3.44-2.572.437-5.617.142-8.242.144q-9.836.054-19.671-.164c-.1,2.344.215,4.753-.045,7.083a4.013,4.013,0,0,1-1.392,2.894,4.262,4.262,0,0,1-6.067-1.639,53.318,53.318,0,0,1-.124-8.48c-4.218-.057-29.154.884-31.465-.174-.159,6.086-.287,13.415.019,19.442l.16.868a9.641,9.641,0,0,0,3.566,5.1c-6.139-.611-12.522.025-18.7-.121-6.742-.249-13.625-.026-20.376.031-2.6.021-6.093.389-8.6-.088-.223.076-.256.024-.473-.045-.862.447-22.121.213-24.69.042l-.249-.31c-.14.168-.156.277-.381.3-9.243.132-18.5.035-27.739.038-4.413,0-9.172-.309-13.549.185a2.539,2.539,0,0,0-.727,1.007,1.3,1.3,0,0,0,.134,1.022,2.1,2.1,0,0,0,1.259.8c2.017.622,11.7.151,14.647.15l40.336,0,174.036.011c19.285.027,38.587-.205,57.871-.01l38.4.029,13.292.022c1.716.01,3.459.146,5.169.1a3.713,3.713,0,0,0,1.725-.383,1.471,1.471,0,0,0,.736-1.06,1.428,1.428,0,0,0-.3-1.22c-.962-1.132-9.7-.685-11.645-.712h0Z" transform="translate(-234.103 -509.58)" fill="#422038"/>
            <path id="Trazado_1007706" data-name="Trazado 1007706" d="M768.68,664.016l8.684-.027a26.418,26.418,0,0,1,4.917.126,3.516,3.516,0,0,1,.218,1.869l-8.64-.006a35.758,35.758,0,0,1-4.977-.106,3.4,3.4,0,0,1-.2-1.856h0Zm-20.263,31.338,16.08.028a48.9,48.9,0,0,0,7.638-.194c.12-.52.191-1.12.683-1.422,1.362-.833,4.143-.668,5.625-.221a1.493,1.493,0,0,1,.98.689,4.192,4.192,0,0,1,.367,1.1l18.029.085a81.727,81.727,0,0,0,9.4-.092c-2-2.339-4.6-4.2-5.343-7.369a14.45,14.45,0,0,1,1.992-10.382c1.514-2.419,3.784-4.169,6.769-3.818a5.552,5.552,0,0,0,1.862.23c.067-.019.133-.043.2-.065a8.45,8.45,0,0,0-2.951-5.977,9.223,9.223,0,0,0-3.962-1.907,31.635,31.635,0,0,0-6.76-.28c-3.495.014-7,.081-10.49.044.013-1.849.533-5.333-.766-6.8a4.96,4.96,0,0,0-2.7-1.017,39.929,39.929,0,0,0-5.231-.116l-9.191-.019c-1.667,0-5.471-.308-6.7.9-1.6,1.566-1.231,5.028-1.238,7.044-4.218-.013-14.232-.532-17.87.5a7.68,7.68,0,0,0-3.4,2.011A9.457,9.457,0,0,0,739,672.982c-.624,2.887-.3,6.206-.3,9.156l.02,13.279,0,.108a69.469,69.469,0,0,1,9.688-.171h0Z" transform="translate(-570.137 -511.343)" fill="#422038"/>
            <path id="Trazado_1007707" data-name="Trazado 1007707" d="M306.9,729.033c9.244,0,18.5.095,27.739-.038a35.283,35.283,0,0,1-.741-5.545l-.973-9.957c-.612-6.349-1.578-12.8-1.921-19.161a5.967,5.967,0,0,1,.083-1.638l-.011-.013.015,0c.02-.089.035-.179.064-.268l.182.209-.246.06c0,.005,0,.011,0,.016a1.257,1.257,0,0,1,.418.719c.506,3.3.592,6.756.929,10.093l2.586,25.185.249.31c2.569.17,23.828.405,24.69-.042a95.1,95.1,0,0,1,3.627-10.3c1.746-4.362,4.167-9.125,4.457-13.863.229-3.728-3.584-18.75-3.288-19.685.326.13.333.21.475.538.948,2.192,1.316,6.176,1.787,8.674.595,3.156,1.568,6.3,1.578,9.537.019,5.634-3.237,11.673-5.254,16.828q-1.586,4.113-2.91,8.318c2.5.477,6,.109,8.6.088,6.75-.056,13.634-.279,20.376-.031a43.317,43.317,0,0,0-2.833-6.179l-4.864-9.807a64.283,64.283,0,0,1-3.393-7.172l-.555-1.125c-1.313-1.712-2.694-5.846-3.487-8-5.03-13.679-6.881-18.352-19.749-26.018a7.033,7.033,0,0,1-4.23,3.108c-5.39,1.68-11.178-.212-15.98-2.714-1-.523-3.492-1.728-3.82-2.772a13.009,13.009,0,0,0-4.34.949,41.02,41.02,0,0,0-15.367,8.35,38.748,38.748,0,0,0-5.695,6.528c-.6.844-1.123,1.824-1.76,2.621a10.077,10.077,0,0,1-.483.946,80.013,80.013,0,0,0-3.134,8.194c-1.326,4.447-2.1,9.057-3.193,13.564-1.331,5.465-3.039,11.032-3.92,16.583a4.13,4.13,0,0,0,.04,2.181,3.321,3.321,0,0,0,.71.922c4.376-.493,9.136-.183,13.549-.185h0Z" transform="translate(-233.794 -519.299)" fill="#faaa5a"/>
            <path id="Trazado_1007708" data-name="Trazado 1007708" d="M1141.334,674.731c.357,4.3-.244,8.735.223,12.991l.259-.222c.33-5.491.158-12.156.029-17.715a2.613,2.613,0,0,0-.545,1.27l.035,3.676h0Z" transform="translate(-873.708 -520.364)" fill="#824a4b"/>
            <path id="Trazado_1007709" data-name="Trazado 1007709" d="M1529.16,704.5c.434-1.163.138-19.4.132-22.216a25.405,25.405,0,0,1,.108-5.392,19.713,19.713,0,0,1,1.624-5.615l-.242-.224-.358.418a18.288,18.288,0,0,0-1.54,5.535c-.448,3.835-.137,8.024-.136,11.9,0,5.165-.219,10.436.045,15.59a.775.775,0,0,0,.367.008h0Z" transform="translate(-1165.717 -521.321)" fill="#f8f8f8"/>
            <path id="Trazado_1007710" data-name="Trazado 1007710" d="M1096.662,708.048q.025,7.232-.051,14.465a5.505,5.505,0,0,0,2.868-.253,3.441,3.441,0,0,1,.306-1.275c-.178-2.506.038-5.108.054-7.625.025-3.792-.52-9.817.486-13.319,1.123-3.912,3.835-6.359,7.288-8.258-.089-4.372-.105-8.792,0-13.163l-.035-3.676c-1.27,1.833-2.2,4.783-3.127,6.857-2.378,5.319-4.739,10.747-7.451,15.9-.685,3.287-.345,6.985-.338,10.343h0Z" transform="translate(-839.989 -524.254)" fill="#f8f8f8"/>
            <path id="Trazado_1007711" data-name="Trazado 1007711" d="M865.838,684.719l8.64.006a3.513,3.513,0,0,0-.218-1.869,26.4,26.4,0,0,0-4.917-.126l-8.684.027a3.4,3.4,0,0,0,.2,1.856,35.711,35.711,0,0,0,4.977.106h0Z" transform="translate(-662.117 -530.084)" fill="#f8f8f8"/>
            <path id="Trazado_1007712" data-name="Trazado 1007712" d="M1117.242,689.88c-.106,4.371-.089,8.791,0,13.162-3.453,1.9-6.165,4.346-7.288,8.258-1.006,3.5-.461,9.527-.486,13.319-.016,2.517-.232,5.119-.054,7.625l.138-.2a81.431,81.431,0,0,0,4.3-7.791q2.337-4.321,4.789-8.58a37.781,37.781,0,0,1,3.1-5.093l.042.02a26.38,26.38,0,0,1-2.649,5.054c-1.668,2.933-9.021,15.312-9.264,17.528a61.318,61.318,0,0,0,7.382-5.35l.511-.4c2.494-2.479,7.093-5.176,8.864-7.978a13.91,13.91,0,0,0,1.355-10.347c-.545-2.383-1.692-4.962-3.85-6.293-2.174-1.341-4.078-.686-6.407-.163l-.259.222c-.466-4.256.134-8.693-.223-12.991h0Z" transform="translate(-849.616 -535.514)" fill="#7c9d8c"/>
            <path id="Trazado_1007713" data-name="Trazado 1007713" d="M1304.619,720.493c1.268-3.9,4.3-7.74,6.493-11.206,2.063-3.252,4.047-6.554,6.134-9.791a46.843,46.843,0,0,0,3.416-5.342c.171-.371.3-.571.152-.966-.341.078-.48.331-.677.614-.649.927-1.156,1.98-1.765,2.938q-2.872,4.438-5.652,8.936c-2.47,3.925-6.805,9.838-8.381,13.911a17.281,17.281,0,0,0-1.029,8.209l.552,0a21.418,21.418,0,0,1,.758-7.305h0Z" transform="translate(-995.729 -538.008)" fill="#f8f8f8"/>
            <path id="Trazado_1007714" data-name="Trazado 1007714" d="M1281.193,704.617c0-3.264.136-6.585-.058-9.839a25.412,25.412,0,0,0-.108,5.392c.006,2.813.3,21.053-.132,22.216a.775.775,0,0,1-.368-.008c-7.384.713-14.725,1.739-22.085,2.668-4.607.582-9.23,1.044-13.834,1.655q-6.654.926-13.321,1.748c-1.742.216-3.989.765-5.7.547l-.552,0-.137.046c-1.892.617-3.888.912-5.771,1.559-6.651,2.285-15.147,7.146-18.436,13.654a14.3,14.3,0,0,0-1.362,4.592c1.1.024,5.274.4,5.945-.2l.128-1.1c.8-3.7,3.773-6.34,6.846-8.326,3.1-2,7.2-3.857,10.914-4.075l.365.147c-.483.593-4.327,1.326-5.332,1.655-4.282,1.4-9.8,4.823-11.729,9.006a11.507,11.507,0,0,0-.689,2.856c1.6.073,4.8.422,6.231-.034a6.431,6.431,0,0,1,3.079-4.027c2.013-1.387,7.408-3.652,9.911-3.43l.307.22c-1.511,1.549-10.466.93-12.874,7.246,3.477.448,7.6.111,11.136.111h65.692c7.548,0,15.145.181,22.687-.022a3.959,3.959,0,0,1-1.4-.231c.135-.335,2.636-1.791,3.217-2.38a9.666,9.666,0,0,0,2.5-4.4c.636-2.554.3-5.684.287-8.308l-.057-11.09-35.317-.057.018-17.8h0Z" transform="translate(-917.453 -539.206)" fill="#e59e7e"/>
            <path id="Trazado_1007715" data-name="Trazado 1007715" d="M1004.809,748.452c3.039,2.621,5.588,5.7,8.537,8.4.281-.517.372-.589.281-1.16-1.822-4.719-3.544-9.519-5.56-14.156-1.531-3.523-3.426-6.932-4.791-10.519,1.9,1.337,9.077,20.583,10.6,24.213.243.546.922.88,1.032,1.36.535-2.047.046-7.063.127-9.487.11-3.26,1.029-6.425,1.148-9.66.189-5.122-3.256-10.3-7.443-13a26.672,26.672,0,0,1-3.021-1.678c-.039-.046-.076-.1-.114-.143-.066.021-.132.046-.2.065a5.552,5.552,0,0,1-1.862-.23c-2.985-.352-5.255,1.4-6.769,3.818a14.451,14.451,0,0,0-1.992,10.382c.74,3.166,3.34,5.03,5.343,7.369l.481.828c1.551.385,3.044,2.226,3.986,3.44.292,4.936.125,9.972.046,14.914.626-2.138.2-12.038.174-14.747h0Z" transform="translate(-763.036 -560.033)" fill="#7c9d8c"/>
            <path id="Trazado_1007716" data-name="Trazado 1007716" d="M575.306,755.126c-.011-3.236-.983-6.382-1.578-9.537-.471-2.5-.839-6.482-1.787-8.674-.142-.328-.149-.408-.475-.538-.3.935,3.517,15.958,3.288,19.685-.29,4.738-2.711,9.5-4.457,13.863a95.189,95.189,0,0,0-3.627,10.3c.216.068.25.121.473.045q1.324-4.2,2.91-8.318c2.016-5.155,5.273-11.194,5.254-16.828h0Z" transform="translate(-440.506 -570.567)" fill="#140809"/>
            <path id="Trazado_1007717" data-name="Trazado 1007717" d="M1030.17,757.38c1.365,3.587,3.259,7,4.791,10.519,2.017,4.638,3.739,9.437,5.56,14.156l.246-.462c-1.52-3.63-8.694-22.876-10.6-24.213h0Z" transform="translate(-789.93 -586.401)" fill="#575151"/>
            <path id="Trazado_1007718" data-name="Trazado 1007718" d="M449.445,766.041c-.028.09-.044.179-.064.268l.246-.06-.182-.209h0Z" transform="translate(-352.085 -592.93)" fill="#140809"/>
            <path id="Trazado_1007719" data-name="Trazado 1007719" d="M449.47,767.916a1.256,1.256,0,0,0-.418-.719,5.96,5.96,0,0,0-.083,1.638c.343,6.36,1.308,12.812,1.921,19.161l.973,9.957a35.285,35.285,0,0,0,.741,5.545c.225-.026.241-.135.382-.3L450.4,778.009c-.337-3.337-.424-6.789-.929-10.093h0Z" transform="translate(-351.76 -593.801)" fill="#140809"/>
            <path id="Trazado_1007720" data-name="Trazado 1007720" d="M449.321,767.135l.011.013c0-.005,0-.011,0-.016l-.015,0Z" transform="translate(-352.04 -593.752)" fill="#140809"/>
            <path id="Trazado_1007721" data-name="Trazado 1007721" d="M1095.585,777.243c-.007-3.359-.347-7.056.338-10.344l-.629-.17q-.255,12.5-.078,25.009l.319-.031q.076-7.232.051-14.465Z" transform="translate(-838.912 -593.449)" fill="#b29b9e"/>
            <path id="Trazado_1007722" data-name="Trazado 1007722" d="M1108.6,796.973l.547-.385c.242-2.216,7.6-14.595,9.264-17.528a26.372,26.372,0,0,0,2.649-5.054l-.042-.02a37.783,37.783,0,0,0-3.1,5.093q-2.452,4.258-4.789,8.58a81.458,81.458,0,0,1-4.3,7.791l-.138.2a3.441,3.441,0,0,0-.306,1.275l.213.047h0Z" transform="translate(-848.894 -598.92)" fill="#575151"/>
            <path id="Trazado_1007723" data-name="Trazado 1007723" d="M732.123,802.638c.031-2.672.333-5.655-.306-8.26.108,5.544-.767,14.674.449,19.746l.112.481.323-.463a65.2,65.2,0,0,1-.578-11.5h0Z" transform="translate(-564.854 -614.293)" fill="#f1dbcc"/>
            <path id="Trazado_1007724" data-name="Trazado 1007724" d="M881.826,802.533a1.493,1.493,0,0,0-.98-.689c-1.482-.447-4.263-.612-5.625.221-.492.3-.563.9-.683,1.422l.029.806a53.315,53.315,0,0,0,.124,8.48,4.262,4.262,0,0,0,6.067,1.639,4.014,4.014,0,0,0,1.392-2.894c.259-2.33-.051-4.74.045-7.083l0-.8a4.185,4.185,0,0,0-.367-1.1h0Z" transform="translate(-672.541 -619.642)" fill="#faaa5a"/>
            <path id="Trazado_1007725" data-name="Trazado 1007725" d="M764.824,809.844l-16.08-.028a69.507,69.507,0,0,0-9.688.171q.918.065,1.839.112l.132.182c2.311,1.058,27.247.117,31.465.174l-.029-.806a48.928,48.928,0,0,1-7.638.194h0Z" transform="translate(-570.465 -625.806)" fill="#b29b9e"/>
            <path id="Trazado_1007726" data-name="Trazado 1007726" d="M923.916,810.311l-18.029-.085,0,.8q9.834.218,19.671.164c2.624,0,5.67.293,8.242-.144l-.481-.828a81.7,81.7,0,0,1-9.4.092h0Z" transform="translate(-696.236 -626.235)" fill="#857381"/>
            <path id="Trazado_1007727" data-name="Trazado 1007727" d="M1027.638,847.268c-2.627-2.432-2.727-5.848-2.865-9.183,2.663.026,5.382.143,8.037-.082l-1.295-1.369c-2.949-2.7-5.5-5.775-8.537-8.4.024,2.709.452,12.609-.174,14.747a10.047,10.047,0,0,1-4.207,6.523l9.659-.034a25.193,25.193,0,0,1,2.952-.161,10.362,10.362,0,0,1-3.57-2.046h0Z" transform="translate(-781.206 -639.819)" fill="#f8f8f8"/>
            <path id="Trazado_1007728" data-name="Trazado 1007728" d="M1141.667,848.226a50.009,50.009,0,0,0,.071-5.78l-.511.4c-.007,1.351-.349,4.263.441,5.378Z" transform="translate(-873.593 -650.53)" fill="#824a4b"/>
            <path id="Trazado_1007729" data-name="Trazado 1007729" d="M1117.184,844.08a61.31,61.31,0,0,1-7.382,5.35l-.547.385c2.262.636,5.527.208,7.821-.178a1.76,1.76,0,0,1,.452-.008l.1-.172c-.789-1.115-.448-4.027-.441-5.378h0Z" transform="translate(-849.551 -651.762)" fill="#f8f8f8"/>
            <path id="Trazado_1007730" data-name="Trazado 1007730" d="M1071.607,855.761l-.246.462c.091.571,0,.643-.281,1.16l1.295,1.369.219-.013.045-1.618c-.109-.48-.789-.814-1.032-1.36h0Z" transform="translate(-820.771 -660.568)" fill="#727571"/>
            <path id="Trazado_1007731" data-name="Trazado 1007731" d="M1236.793,860.617c1.006-.328,4.85-1.061,5.332-1.655l-.365-.147c-3.714.218-7.814,2.072-10.914,4.075-3.073,1.986-6.042,4.624-6.846,8.326a3.01,3.01,0,0,0,.375,1.263,11.512,11.512,0,0,1,.689-2.856c1.929-4.183,7.447-7.608,11.729-9.006h0Z" transform="translate(-936.055 -662.87)" fill="#140809"/>
            <path id="Trazado_1007732" data-name="Trazado 1007732" d="M1067.645,866.605c-2.295.385-5.559.813-7.821.178l-.213-.047a5.5,5.5,0,0,1-2.868.253l-.319.031a26.149,26.149,0,0,1-4.481-.118l-.219.013c-2.655.225-5.373.108-8.037.082.138,3.335.238,6.75,2.865,9.183a10.361,10.361,0,0,0,3.57,2.046,25.193,25.193,0,0,0-2.952.161l17.4.006-2.291-.155a14.608,14.608,0,0,0,3.774-2.646c2.413-2.536,2.148-5.748,2.039-8.992a1.763,1.763,0,0,0-.452.008h0Z" transform="translate(-800.12 -668.73)" fill="#faaa5a"/>
            <path id="Trazado_1007733" data-name="Trazado 1007733" d="M737.493,878.831a8,8,0,0,1-2.449-4.149l-.323.463a8.31,8.31,0,0,0,2.858,4.09.923.923,0,0,1,.358.384l-.161-.868a.858.858,0,0,1-.284.081h0Z" transform="translate(-567.197 -674.832)" fill="#857381"/>
            <path id="Trazado_1007734" data-name="Trazado 1007734" d="M1264.141,884.069l-.307-.22c-2.5-.222-7.9,2.043-9.911,3.43a6.432,6.432,0,0,0-3.079,4.028l.423.008c2.408-6.315,11.362-5.7,12.874-7.246Z" transform="translate(-956.292 -681.731)" fill="#140809"/>
            <rect id="Rectángulo_458535" data-name="Rectángulo 458535" width="37.144" height="37.144" transform="translate(76.969 20.689)" fill="#f0ad4a"/>
            <circle id="Elipse_16057" data-name="Elipse 16057" cx="8.079" cy="8.079" r="8.079" transform="translate(87.462 31.182)" fill="#fff"/>
            <rect id="Rectángulo_458536" data-name="Rectángulo 458536" width="37.144" height="37.144" transform="translate(135.139 20.689)" fill="#90ab9e"/>
            <circle id="Elipse_16058" data-name="Elipse 16058" cx="8.079" cy="8.079" r="8.079" transform="translate(145.854 31.182)" fill="#fff"/>
            <g id="Grupo_1183118" data-name="Grupo 1183118" transform="translate(291.024 20.325)">
              <rect id="Rectángulo_458537" data-name="Rectángulo 458537" width="37.144" height="37.144" fill="#90ab9e"/>
              <circle id="Elipse_16059" data-name="Elipse 16059" cx="8.079" cy="8.079" r="8.079" transform="translate(10.715 10.493)" fill="#fff"/>
            </g>
            <rect id="Rectángulo_458538" data-name="Rectángulo 458538" width="37.144" height="37.144" transform="translate(349.859 20.343)" fill="#f0ad4a"/>
            <circle id="Elipse_16060" data-name="Elipse 16060" cx="8.079" cy="8.079" r="8.079" transform="translate(360.352 30.836)" fill="#fff"/>
            <g id="Grupo_1183119" data-name="Grupo 1183119" transform="translate(443.695 177.964)">
              <rect id="Rectángulo_458539" data-name="Rectángulo 458539" width="15.674" height="15.674" fill="#f0ad4a"/>
              <circle id="Elipse_16061" data-name="Elipse 16061" cx="3.409" cy="3.409" r="3.409" transform="translate(4.427 4.428)" fill="#fff"/>
            </g>
            <g id="Grupo_1183120" data-name="Grupo 1183120" transform="translate(42.973 56.31)">
              <rect id="Rectángulo_458540" data-name="Rectángulo 458540" width="15.674" height="15.674" transform="translate(0)" fill="#f0ad4a"/>
              <circle id="Elipse_16062" data-name="Elipse 16062" cx="3.409" cy="3.409" r="3.409" transform="translate(4.428 4.428)" fill="#fff"/>
            </g>
            <g id="Grupo_1183121" data-name="Grupo 1183121" transform="translate(448.426 65.749)">
              <rect id="Rectángulo_458541" data-name="Rectángulo 458541" width="15.674" height="15.674" fill="#f0ad4a"/>
              <circle id="Elipse_16063" data-name="Elipse 16063" cx="3.409" cy="3.409" r="3.409" transform="translate(4.427 4.428)" fill="#fff"/>
            </g>
            <g id="Grupo_1183122" data-name="Grupo 1183122" transform="translate(18.572 101.739)">
              <rect id="Rectángulo_458542" data-name="Rectángulo 458542" width="24.401" height="24.401" fill="#f0ad4a"/>
              <circle id="Elipse_16064" data-name="Elipse 16064" cx="5.307" cy="5.307" r="5.307" transform="translate(6.893 6.893)" fill="#fff"/>
            </g>
            <g id="Grupo_1183123" data-name="Grupo 1183123" transform="translate(445.384 8.124)">
              <rect id="Rectángulo_458543" data-name="Rectángulo 458543" width="21.757" height="21.757" fill="#f0ad4a"/>
              <circle id="Elipse_16065" data-name="Elipse 16065" cx="4.732" cy="4.732" r="4.732" transform="translate(6.146 6.146)" fill="#fff"/>
            </g>
            <g id="Grupo_1183124" data-name="Grupo 1183124" transform="translate(0 178.116)">
              <rect id="Rectángulo_458544" data-name="Rectángulo 458544" width="37.144" height="37.144" fill="#90ab9e"/>
              <circle id="Elipse_16066" data-name="Elipse 16066" cx="8.079" cy="8.079" r="8.079" transform="translate(10.714 10.493)" fill="#fff"/>
            </g>
            <g id="Grupo_1183125" data-name="Grupo 1183125" transform="translate(406.462 74.975)">
              <rect id="Rectángulo_458545" data-name="Rectángulo 458545" width="16.249" height="16.249" fill="#90ab9e"/>
              <circle id="Elipse_16067" data-name="Elipse 16067" cx="3.534" cy="3.534" r="3.534" transform="translate(4.686 4.59)" fill="#fff"/>
            </g>
            <g id="Grupo_1183126" data-name="Grupo 1183126" transform="translate(2.59)">
              <rect id="Rectángulo_458546" data-name="Rectángulo 458546" width="16.249" height="16.249" fill="#90ab9e"/>
              <circle id="Elipse_16068" data-name="Elipse 16068" cx="3.534" cy="3.534" r="3.534" transform="translate(4.687 4.59)" fill="#fff"/>
            </g>
            <g id="Grupo_1183127" data-name="Grupo 1183127" transform="translate(414.587 109.536)">
              <rect id="Rectángulo_458547" data-name="Rectángulo 458547" width="34.259" height="34.259" fill="#90ab9e"/>
              <circle id="Elipse_16069" data-name="Elipse 16069" cx="7.452" cy="7.452" r="7.452" transform="translate(9.88 9.678)" fill="#fff"/>
            </g>
          </g>
        </g>
      </g>
    </g>
  </g>
</svg>
