<svg xmlns="http://www.w3.org/2000/svg" width="98" height="98" viewBox="0 0 98 98">
  <g id="Grupo_1177474" data-name="Grupo 1177474" transform="translate(-289.609 -11611.898)">
    <g id="Grupo_1177473" data-name="Grupo 1177473" transform="translate(289.609 11611.898)">
      <ellipse id="Elipse_13609" data-name="Elipse 13609" cx="49" cy="49" rx="49" ry="49" transform="translate(0)" fill="#fff"/>
      <g id="Grupo_1184105" data-name="Grupo 1184105" transform="translate(23.669 23.668)">
        <path id="Trazado_1010802" data-name="Trazado 1010802" d="M43.153,13.788a.785.785,0,0,0-.555-.23H27.686V8.064a.785.785,0,0,0-.23-.555L21.177,1.23A.785.785,0,0,0,20.622,1H1.785A.785.785,0,0,0,1,1.785V33.18a.785.785,0,0,0,.785.785H22.976V48.877a.785.785,0,0,0,.785.785H48.877a.785.785,0,0,0,.785-.785V20.622a.785.785,0,0,0-.23-.555Zm.23,2.45,3.6,3.6h-3.6ZM21.407,3.68l3.6,3.6h-3.6Zm1.57,10.663h-10.2v1.57h10.2v1.57H4.139v1.57H22.976v1.57H4.139v1.57H22.976v1.57H4.139v1.57H22.976V26.9H4.139v1.57H22.976v3.924H2.57V2.57H19.837V8.064a.785.785,0,0,0,.785.785h5.494v4.709H23.761A.785.785,0,0,0,22.976,14.343Zm1.57,33.75V15.128H41.813v5.494a.785.785,0,0,0,.785.785h5.494V48.092Z" fill="#53435c"/>
        <path id="Trazado_1010803" data-name="Trazado 1010803" d="M36.355,32.2v.785h1.57V32.2a2.355,2.355,0,0,0,2.355-2.355v-.785a2.355,2.355,0,0,0-2.355-2.355V24.355a.785.785,0,0,1,.785.785v.785h1.57v-.785a2.355,2.355,0,0,0-2.355-2.355V22h-1.57v.785A2.355,2.355,0,0,0,34,25.139v.785a2.355,2.355,0,0,0,2.355,2.355v2.355a.785.785,0,0,1-.785-.785v-.785H34v.785A2.355,2.355,0,0,0,36.355,32.2Zm-.785-6.279v-.785a.785.785,0,0,1,.785-.785v2.355A.785.785,0,0,1,35.57,25.924Zm2.355,2.355a.785.785,0,0,1,.785.785v.785a.785.785,0,0,1-.785.785Z" transform="translate(-7.099 -4.518)" fill="#53435c"/>
        <path id="Trazado_1010804" data-name="Trazado 1010804" d="M46,30h5.494v1.57H46Z" transform="translate(-9.681 -6.239)" fill="#53435c"/>
        <path id="Trazado_1010805" data-name="Trazado 1010805" d="M55,30h3.139v1.57H55Z" transform="translate(-11.617 -6.239)" fill="#53435c"/>
        <path id="Trazado_1010806" data-name="Trazado 1010806" d="M44,34H55.773v1.57H44Z" transform="translate(-9.25 -7.099)" fill="#53435c"/>
        <path id="Trazado_1010807" data-name="Trazado 1010807" d="M33,38H53.407v1.57H33Z" transform="translate(-6.884 -7.96)" fill="#53435c"/>
        <path id="Trazado_1010808" data-name="Trazado 1010808" d="M33,42H53.407v1.57H33Z" transform="translate(-6.884 -8.82)" fill="#53435c"/>
        <path id="Trazado_1010809" data-name="Trazado 1010809" d="M33,46H53.407v1.57H33Z" transform="translate(-6.884 -9.681)" fill="#53435c"/>
        <path id="Trazado_1010810" data-name="Trazado 1010810" d="M33,50H53.407v1.57H33Z" transform="translate(-6.884 -10.541)" fill="#53435c"/>
        <path id="Trazado_1010811" data-name="Trazado 1010811" d="M9.924,6.785V6H8.355v.785A2.355,2.355,0,0,0,6,9.139v.785a2.355,2.355,0,0,0,2.355,2.355v2.355a.785.785,0,0,1-.785-.785v-.785H6v.785A2.355,2.355,0,0,0,8.355,16.2v.785h1.57V16.2a2.355,2.355,0,0,0,2.355-2.355v-.785a2.355,2.355,0,0,0-2.355-2.355V8.355a.785.785,0,0,1,.785.785v.785h1.57V9.139A2.355,2.355,0,0,0,9.924,6.785Zm.785,6.279v.785a.785.785,0,0,1-.785.785V12.279A.785.785,0,0,1,10.709,13.064ZM8.355,10.709a.785.785,0,0,1-.785-.785V9.139a.785.785,0,0,1,.785-.785Z" transform="translate(-1.076 -1.076)" fill="#53435c"/>
        <path id="Trazado_1010812" data-name="Trazado 1010812" d="M18,14h5.494v1.57H18Z" transform="translate(-3.657 -2.797)" fill="#53435c"/>
        <path id="Trazado_1010813" data-name="Trazado 1010813" d="M27,14h3.139v1.57H27Z" transform="translate(-5.593 -2.797)" fill="#53435c"/>
        <path id="Trazado_1010814" data-name="Trazado 1010814" d="M44.769,11.8a.785.785,0,0,0,1.3-.6V9.634h.314A12.361,12.361,0,0,1,56.417,14.8a.785.785,0,0,0,1.421-.456A11,11,0,0,0,46.849,3.355h-.785V1.785a.785.785,0,0,0-1.3-.6L39.275,5.9a.785.785,0,0,0,0,1.191Zm-.275-8.308V4.14a.785.785,0,0,0,.785.785h1.57a9.437,9.437,0,0,1,9.091,6.952,13.939,13.939,0,0,0-9.562-3.813h-1.1a.785.785,0,0,0-.785.785V9.5l-3.5-3Z" transform="translate(-8.175 0)" fill="#53435c"/>
        <path id="Trazado_1010815" data-name="Trazado 1010815" d="M16.068,48.33a.785.785,0,0,0-1.3.6V50.5h-.314A12.361,12.361,0,0,1,4.421,45.33.785.785,0,0,0,3,45.786,11,11,0,0,0,13.988,56.774h.785v1.57a.785.785,0,0,0,1.3.6l5.494-4.709a.785.785,0,0,0,0-1.191Zm.275,8.308v-.648a.785.785,0,0,0-.785-.785h-1.57A9.437,9.437,0,0,1,4.9,48.252a13.939,13.939,0,0,0,9.562,3.813h1.1a.785.785,0,0,0,.785-.785v-.648l3.5,3Z" transform="translate(-0.43 -9.467)" fill="#53435c"/>
      </g>
    </g>
  </g>
</svg>
