<svg xmlns="http://www.w3.org/2000/svg" width="98" height="98" viewBox="0 0 98 98">
  <g id="Grupo_1177476" data-name="Grupo 1177476" transform="translate(-289.609 -11611.898)">
    <g id="Grupo_1177473" data-name="Grupo 1177473" transform="translate(289.609 11611.898)">
      <ellipse id="Elipse_13609" data-name="Elipse 13609" cx="49" cy="49" rx="49" ry="49" transform="translate(0)" fill="#fff"/>
      <g id="Grupo_1184107" data-name="Grupo 1184107" transform="translate(22.717 22.72)">
        <path id="Trazado_1010816" data-name="Trazado 1010816" d="M50.751,45.042H48.3v-.816a2.447,2.447,0,0,0-2.447-2.447h-.816V37.7a.816.816,0,0,0-.816-.816H39.333a.816.816,0,0,0-.816.816v4.078H36.886V37.7a.816.816,0,0,0-.816-.816H31.177a.816.816,0,0,0-.816.816v4.078H28.73V37.7a.816.816,0,0,0-.816-.816H23.021a.816.816,0,0,0-.816.816v4.078H20.574V37.7a.816.816,0,0,0-.816-.816H14.865a.816.816,0,0,0-.816.816v4.078h-.816a2.447,2.447,0,0,0-2.447,2.447v.816H5.894V43.411h.816a2.447,2.447,0,0,0,2.447-2.447V8.34A2.447,2.447,0,0,0,6.709,5.894H5.894V1.816A.816.816,0,0,0,5.078,1H1.816A.816.816,0,0,0,1,1.816V50.751a.816.816,0,0,0,.816.816H50.751a.816.816,0,0,0,.816-.816V45.857A.816.816,0,0,0,50.751,45.042Zm-10.6-6.525h3.262v3.262H40.148Zm-8.156,0h3.262v3.262H31.992Zm-8.156,0H27.1v3.262H23.836Zm-8.156,0h3.262v3.262H15.681Zm-3.262,5.709a.816.816,0,0,1,.816-.816H45.857a.816.816,0,0,1,.816.816v.816H12.418ZM6.709,7.525a.816.816,0,0,1,.816.816V40.964a.816.816,0,0,1-.816.816H5.894V7.525ZM4.262,2.631V45.042H2.631V2.631Zm45.673,47.3H2.631V46.673h47.3Z" transform="translate(0 -0.001)" fill="#53435c"/>
        <path id="Trazado_1010817" data-name="Trazado 1010817" d="M45.53,18.906a3.219,3.219,0,0,0,.462-1.647A3.262,3.262,0,1,0,40.8,19.878L36.613,30.35a2.936,2.936,0,0,0-2.435.683l-4.743-3.561a3.267,3.267,0,1,0-5.814.408l-3.709,3.709a3.219,3.219,0,0,0-1.65-.465,3.262,3.262,0,1,0,3.262,3.262,3.219,3.219,0,0,0-.462-1.647l3.709-3.709a3.181,3.181,0,0,0,3.67-.263l4.746,3.562a3.262,3.262,0,1,0,4.941-1.378L42.322,20.48a2.865,2.865,0,0,0,2.056-.421l3.709,3.709a3.219,3.219,0,0,0-.464,1.647,3.262,3.262,0,1,0,3.262-3.262,3.219,3.219,0,0,0-1.647.462ZM18.262,36.018a1.631,1.631,0,1,1,1.631-1.631A1.631,1.631,0,0,1,18.262,36.018Zm8.156-8.156a1.631,1.631,0,1,1,1.631-1.631A1.631,1.631,0,0,1,26.418,27.862Zm9.787,7.34a1.631,1.631,0,1,1,1.631-1.631A1.631,1.631,0,0,1,36.205,35.2ZM42.73,18.89a1.631,1.631,0,1,1,1.631-1.631A1.631,1.631,0,0,1,42.73,18.89Zm8.156,4.894a1.631,1.631,0,1,1-1.631,1.631A1.631,1.631,0,0,1,50.886,23.784Z" transform="translate(-2.582 -2.395)" fill="#53435c"/>
        <path id="Trazado_1010818" data-name="Trazado 1010818" d="M17.262,15.68a3.255,3.255,0,0,0,2.909-1.816l9.34,1.966a3.256,3.256,0,1,0,6.15-1.607l8.308-7.27a3.262,3.262,0,1,0-1.424-2.691A3.224,3.224,0,0,0,42.9,5.718L34.6,12.988a3.24,3.24,0,0,0-4.748,1.245l-9.34-1.966a3.257,3.257,0,1,0-3.247,3.412ZM45.808,2.63a1.631,1.631,0,1,1-1.631,1.631A1.631,1.631,0,0,1,45.808,2.63ZM32.758,14.049a1.631,1.631,0,1,1-1.631,1.631A1.631,1.631,0,0,1,32.758,14.049Zm-15.5-3.262a1.631,1.631,0,1,1-1.631,1.631A1.631,1.631,0,0,1,17.262,10.786Z" transform="translate(-2.397 0)" fill="#53435c"/>
      </g>
    </g>
  </g>
</svg>
