<svg xmlns="http://www.w3.org/2000/svg" width="128" height="128" viewBox="0 0 128 128">
  <g id="Grupo_1182491" data-name="Grupo 1182491" transform="translate(-384.199 -8399.752)">
    <path id="Trazado_997401" data-name="Trazado 997401" d="M64,0A64,64,0,1,1,0,64,64,64,0,0,1,64,0Z" transform="translate(384.199 8399.752)" fill="#7be888"/>
    <g id="Grupo_1184340" data-name="Grupo 1184340" transform="translate(409.437 8429.752)">
      <path id="Trazado_1011111" data-name="Trazado 1011111" d="M180.9,36.848a4.416,4.416,0,1,0,4.416,4.416A4.421,4.421,0,0,0,180.9,36.848Zm0,6.826a2.41,2.41,0,1,1,2.41-2.41A2.413,2.413,0,0,1,180.9,43.674Z" transform="translate(-148.749 -31.919)" fill="#53435c"/>
      <path id="Trazado_1011112" data-name="Trazado 1011112" d="M65.833,184.251h5.853a4.4,4.4,0,0,0,4.4-4.4V174a4.4,4.4,0,0,0-4.4-4.4H65.833a4.4,4.4,0,0,0-4.4,4.4v5.853A4.4,4.4,0,0,0,65.833,184.251ZM63.444,174a2.392,2.392,0,0,1,2.389-2.389h5.853A2.391,2.391,0,0,1,74.075,174v5.853a2.392,2.392,0,0,1-2.389,2.389H65.833a2.391,2.391,0,0,1-2.389-2.389Z" transform="translate(-49.095 -146.922)" fill="#53435c"/>
      <path id="Trazado_1011113" data-name="Trazado 1011113" d="M88.836,204.633a1,1,0,0,0,.774.365l.064,0a1,1,0,0,0,.785-.467l3.5-5.564a1,1,0,0,0-1.7-1.068L89.5,202.285l-1.454-1.765A1,1,0,1,0,86.5,201.8Z" transform="translate(-70.605 -171.021)" fill="#53435c"/>
      <path id="Trazado_1011114" data-name="Trazado 1011114" d="M190.416,199.891h15.627a1,1,0,1,0,0-2.006H190.416a1,1,0,1,0,0,2.006Z" transform="translate(-159.953 -171.417)" fill="#53435c"/>
      <path id="Trazado_1011115" data-name="Trazado 1011115" d="M190.416,237.815h7.814a1,1,0,1,0,0-2.006h-7.814a1,1,0,1,0,0,2.006Z" transform="translate(-159.953 -204.268)" fill="#53435c"/>
      <path id="Trazado_1011116" data-name="Trazado 1011116" d="M61.438,322.662a4.4,4.4,0,0,0,4.4,4.4h5.853a4.4,4.4,0,0,0,4.4-4.4v-5.853a4.4,4.4,0,0,0-4.4-4.4H65.833a4.4,4.4,0,0,0-4.4,4.4Zm2.006-5.853a2.392,2.392,0,0,1,2.389-2.389h5.853a2.392,2.392,0,0,1,2.389,2.389v5.853a2.392,2.392,0,0,1-2.389,2.389H65.833a2.391,2.391,0,0,1-2.389-2.389Z" transform="translate(-49.095 -270.627)" fill="#53435c"/>
      <path id="Trazado_1011117" data-name="Trazado 1011117" d="M88.836,347.439a1,1,0,0,0,.774.365l.064,0a1,1,0,0,0,.785-.467l3.5-5.564a1,1,0,0,0-1.7-1.068L89.5,345.091l-1.454-1.765A1,1,0,0,0,86.5,344.6Z" transform="translate(-70.605 -294.726)" fill="#53435c"/>
      <path id="Trazado_1011118" data-name="Trazado 1011118" d="M198.23,380.621a1,1,0,1,0,0-2.006h-7.814a1,1,0,1,0,0,2.006Z" transform="translate(-159.953 -327.973)" fill="#53435c"/>
      <path id="Trazado_1011119" data-name="Trazado 1011119" d="M69.825,17.465a4.267,4.267,0,0,0-1.262-.685l2.813-4.293A3.567,3.567,0,0,0,70.591,7.7a3.585,3.585,0,0,0-4.838.375L64.672,9.232A1,1,0,1,0,66.139,10.6l1.081-1.158A1.581,1.581,0,0,1,69.7,11.387l-5.439,8.3L60.452,16.7,63.4,13.534a1,1,0,0,0-1.467-1.368l-2.651,2.843A10.172,10.172,0,0,0,49.4,7.091H47.432a6.685,6.685,0,0,0-4.593-1.824H40.555a9.345,9.345,0,0,0-16.817,0H21.454a6.685,6.685,0,0,0-4.593,1.824H14.89A10.139,10.139,0,0,0,4.762,17.218V58.354A10.139,10.139,0,0,0,14.89,68.482h2.333a1,1,0,0,0,0-2.006H14.89a8.131,8.131,0,0,1-8.122-8.122V17.218A8.13,8.13,0,0,1,14.89,9.1h.5a6.709,6.709,0,0,0,6.061,9.592H42.839A6.709,6.709,0,0,0,48.9,9.1h.5a8.155,8.155,0,0,1,7.919,6.322,3,3,0,0,0-2.342,4.143L38.027,41.17a4.926,4.926,0,0,0-1.022,3.655,5.033,5.033,0,0,0,.148.745H30.463a1,1,0,0,0,0,2.006h7.565l-.61.778A1,1,0,1,0,39,49.592l.723-.922a4.9,4.9,0,0,0,2.2.519,5.023,5.023,0,0,0,.6-.037,4.926,4.926,0,0,0,3.306-1.862L57.248,32.735c.088.086.181.168.277.247V58.354a8.13,8.13,0,0,1-8.12,8.122H21.235a1,1,0,0,0,0,2.006H49.4A10.139,10.139,0,0,0,59.531,58.354V33.9a4.276,4.276,0,0,0,4.06-1.573l6.957-8.868a4.266,4.266,0,0,0-.723-5.99Zm-26.987-.782H21.454a4.705,4.705,0,1,1,0-9.41h2.938a1,1,0,0,0,.932-.633,7.338,7.338,0,0,1,13.644,0,1,1,0,0,0,.932.633h2.938a4.705,4.705,0,1,1,0,9.41Zm14.12,1.089a.993.993,0,0,1,1.4-.168L63.88,21.94h0A.994.994,0,1,1,62.653,23.5l-5.526-4.336a.994.994,0,0,1-.168-1.4ZM46.03,43.783,44.5,42.58,55.474,28.59A1,1,0,1,0,53.9,27.352L42.919,41.342l-1.533-1.2L56.329,21.093l4.644,3.643Zm-3.748,3.378a2.952,2.952,0,0,1-2.676-4.752l.542-.691,4.644,3.644-.542.691A2.932,2.932,0,0,1,42.281,47.161ZM68.97,22.217l-6.957,8.868a2.252,2.252,0,0,1-3.511.052l4.28-5.455a3,3,0,0,0,2.98-4.625L67.39,18.57a2.261,2.261,0,0,1,1.58,3.647Z" fill="#53435c"/>
    </g>
  </g>
</svg>
