<svg xmlns="http://www.w3.org/2000/svg" width="128" height="128" viewBox="0 0 128 128">
  <g id="Grupo_1182451" data-name="Grupo 1182451" transform="translate(-72.746 -7992)">
    <g id="Elipse_13628" data-name="Elipse 13628" transform="translate(72.746 7992)" fill="#fdf3e6" stroke="#ff984a" stroke-width="6">
      <circle cx="64" cy="64" r="64" stroke="none"/>
      <circle cx="64" cy="64" r="61" fill="none"/>
    </g>
    <g id="Grupo_1183331" data-name="Grupo 1183331" transform="translate(104.859 8023.572)">
      <g id="Grupo_1183329" data-name="Grupo 1183329">
        <g id="Grupo_1183318" data-name="Grupo 1183318">
          <path id="Trazado_1008828" data-name="Trazado 1008828" d="M55.78,28.02l-2.29-1.36a11.91,11.91,0,0,1-1.84.77L51,30H45l-.65-2.57a11.909,11.909,0,0,1-1.84-.77l-2.29,1.36L38.2,26H24V62H58V25.8Z" fill="#f0d0b4"/>
        </g>
        <g id="Grupo_1183319" data-name="Grupo 1183319">
          <circle id="Elipse_16090" data-name="Elipse 16090" cx="2" cy="2" r="2" transform="translate(48 52)" fill="#b4dd7f"/>
        </g>
        <g id="Grupo_1183320" data-name="Grupo 1183320">
          <circle id="Elipse_16091" data-name="Elipse 16091" cx="2" cy="2" r="2" transform="translate(40 52)" fill="#b4dd7f"/>
        </g>
        <g id="Grupo_1183321" data-name="Grupo 1183321">
          <path id="Trazado_1008829" data-name="Trazado 1008829" d="M10,50v8H6a4,4,0,0,1,0-8Z" fill="#aab2bd"/>
        </g>
        <g id="Grupo_1183322" data-name="Grupo 1183322">
          <path id="Trazado_1008830" data-name="Trazado 1008830" d="M35.06,52.65a1.439,1.439,0,0,1,0,2.7L28,58V50Z" fill="#aab2bd"/>
        </g>
        <g id="Grupo_1183323" data-name="Grupo 1183323">
          <path id="Trazado_1008831" data-name="Trazado 1008831" d="M14,54v4H10V50h4Z" fill="#ffeaa7"/>
        </g>
        <g id="Grupo_1183324" data-name="Grupo 1183324">
          <path id="Trazado_1008832" data-name="Trazado 1008832" d="M28,54v4H14V54Z" fill="#69d6f4"/>
        </g>
        <g id="Grupo_1183325" data-name="Grupo 1183325">
          <path id="Trazado_1008833" data-name="Trazado 1008833" d="M28,50v4H14V50H28Z" fill="#b4dd7f"/>
        </g>
        <g id="Grupo_1183326" data-name="Grupo 1183326">
          <path id="Trazado_1008834" data-name="Trazado 1008834" d="M35.95,8.05l.1.1-.07.07,1.36,2.29a11.909,11.909,0,0,0-.77,1.84L34,13v6l2.57.65a11.91,11.91,0,0,0,.77,1.84l-1.36,2.29L38.2,26H8A6,6,0,0,1,6.71,14.13a5.526,5.526,0,0,1,1.5-.12A9.52,9.52,0,0,1,8,12,10,10,0,0,1,26.86,7.36a6.992,6.992,0,0,1,9.09.69Z" fill="#e6e9ed"/>
        </g>
        <g id="Grupo_1183327" data-name="Grupo 1183327">
          <path id="Trazado_1008835" data-name="Trazado 1008835" d="M62,13v6l-2.57.65a11.91,11.91,0,0,1-.77,1.84l1.36,2.29L58,25.8l-2.22,2.22-2.29-1.36a11.91,11.91,0,0,1-1.84.77L51,30H45l-.65-2.57a11.909,11.909,0,0,1-1.84-.77l-2.29,1.36L38.2,26l-2.22-2.22,1.36-2.29a11.91,11.91,0,0,1-.77-1.84L34,19V13l2.57-.65a11.909,11.909,0,0,1,.77-1.84L35.98,8.22l.07-.07,4.17-4.17,2.29,1.36a11.909,11.909,0,0,1,1.84-.77L45,2h6l.65,2.57a11.909,11.909,0,0,1,1.84.77l2.29-1.36,4.24,4.24-1.36,2.29a11.909,11.909,0,0,1,.77,1.84Zm-6,3a8,8,0,1,0-8,8A8,8,0,0,0,56,16Z" fill="#ffc729"/>
        </g>
        <g id="Grupo_1183328" data-name="Grupo 1183328">
          <path id="Trazado_1008836" data-name="Trazado 1008836" d="M48,8a8,8,0,1,1-8,8A8,8,0,0,1,48,8Zm4,8a4,4,0,1,0-4,4A4,4,0,0,0,52,16Z" fill="#fcd770"/>
        </g>
      </g>
      <g id="Grupo_1183330" data-name="Grupo 1183330">
        <path id="Trazado_1008837" data-name="Trazado 1008837" d="M63,19.777V12.222l-2.8-.713c-.119-.319-.253-.639-.4-.957l1.479-2.489L55.935,2.721,53.446,4.2c-.317-.147-.638-.281-.956-.4L51.777,1H44.222L43.51,3.8c-.318.119-.639.252-.956.4l-2.489-1.48L36.017,6.77a7.993,7.993,0,0,0-8.838-.8A10.985,10.985,0,0,0,7,12c0,.358.025.715.06,1.071-.185.024-.37.046-.555.085A7,7,0,0,0,8,27h8a1,1,0,0,1,1,1v2a1,1,0,0,1-1,1H9a3,3,0,1,0,0,6h9a1,1,0,0,1,1,1V49H6A5,5,0,0,0,6,59H23v4H59V26.213l2.277-2.278L59.8,21.446c.147-.317.281-.637.4-.956ZM18,35H9a1,1,0,0,1,0-2h7a3,3,0,0,0,3-3V28a3,3,0,0,0-3-3H8a4.983,4.983,0,0,1-3.882-1.849,5.051,5.051,0,0,1-1.005-4.238,4.968,4.968,0,0,1,3.8-3.8,5.042,5.042,0,0,1,4.238,1A4.983,4.983,0,0,1,13,20h2a6.974,6.974,0,0,0-5.93-6.908A8.985,8.985,0,0,1,25.56,7.151,7.971,7.971,0,0,0,23,13h2A5.992,5.992,0,0,1,35.008,8.545L36.2,10.554q-.22.477-.4.957l-2.8.712v7.555l2.8.713c.119.319.253.639.4.956l-1.479,2.489L35.787,25H21v2h2V49H21V38a3,3,0,0,0-3-3ZM13,57H11V51h2Zm2-2H27v2H15Zm14-3.557,5.713,2.142a.443.443,0,0,1,0,.83L29,56.557ZM27,53H15V51H27ZM3,54a3,3,0,0,1,3-3H9v6H6A3,3,0,0,1,3,54Zm54,7H25V59h3.182l7.232-2.712a2.444,2.444,0,0,0,0-4.576L28.182,49H25V27H37.787l2.278,2.278,2.489-1.48c.317.147.638.281.956.4l.713,2.8h7.555l.713-2.8c.318-.119.639-.252.956-.4l2.489,1.48L57,28.213Zm1.646-42.179-.168.528a11.006,11.006,0,0,1-.7,1.683l-.256.493,1.246,2.1-3.143,3.143-2.1-1.246-.492.254a10.978,10.978,0,0,1-1.686.7l-.528.169L50.223,29H45.778l-.6-2.354-.528-.169a10.978,10.978,0,0,1-1.686-.7l-.492-.254-2.1,1.246-3.143-3.143,1.246-2.1-.256-.493a11.006,11.006,0,0,1-.7-1.683l-.168-.528L35,18.223V13.778l2.354-.6.168-.528a10.955,10.955,0,0,1,.705-1.683l.255-.493-1.246-2.1,3.143-3.143,2.1,1.246.492-.254a10.978,10.978,0,0,1,1.686-.7l.528-.169L45.777,3h4.445l.6,2.354.528.169a10.978,10.978,0,0,1,1.686.7l.492.254,2.1-1.246,3.143,3.143-1.246,2.1.255.493a11,11,0,0,1,.705,1.683l.168.528,2.354.6v4.445Z"/>
        <path id="Trazado_1008838" data-name="Trazado 1008838" d="M48,7a9,9,0,1,0,9,9A9.01,9.01,0,0,0,48,7Zm0,16a7,7,0,1,1,7-7A7.008,7.008,0,0,1,48,23Z"/>
        <path id="Trazado_1008839" data-name="Trazado 1008839" d="M48,11a5,5,0,1,0,5,5A5.006,5.006,0,0,0,48,11Zm0,8a3,3,0,1,1,3-3A3,3,0,0,1,48,19Z"/>
        <path id="Trazado_1008840" data-name="Trazado 1008840" d="M29,44.586l-1.293-1.293-1.414,1.414L29,47.414l5.707-5.707-1.414-1.414Z"/>
        <path id="Trazado_1008841" data-name="Trazado 1008841" d="M29,36.586l-1.293-1.293-1.414,1.414L29,39.414l5.707-5.707-1.414-1.414Z"/>
        <path id="Trazado_1008842" data-name="Trazado 1008842" d="M37,33H55v2H37Z"/>
        <path id="Trazado_1008843" data-name="Trazado 1008843" d="M41,37H55v2H41Z"/>
        <path id="Trazado_1008844" data-name="Trazado 1008844" d="M37,37h2v2H37Z"/>
        <path id="Trazado_1008845" data-name="Trazado 1008845" d="M37,41H55v2H37Z"/>
        <path id="Trazado_1008846" data-name="Trazado 1008846" d="M53,45h2v2H53Z"/>
        <path id="Trazado_1008847" data-name="Trazado 1008847" d="M37,45H51v2H37Z"/>
        <path id="Trazado_1008848" data-name="Trazado 1008848" d="M42,51a3,3,0,1,0,3,3A3,3,0,0,0,42,51Zm0,4a1,1,0,1,1,1-1A1,1,0,0,1,42,55Z"/>
        <path id="Trazado_1008849" data-name="Trazado 1008849" d="M50,51a3,3,0,1,0,3,3A3,3,0,0,0,50,51Zm0,4a1,1,0,1,1,1-1A1,1,0,0,1,50,55Z"/>
      </g>
    </g>
  </g>
</svg>
