<svg xmlns="http://www.w3.org/2000/svg" width="128" height="128" viewBox="0 0 128 128">
  <g id="Grupo_1182453" data-name="Grupo 1182453" transform="translate(-72.746 -7992)">
    <g id="Elipse_13628" data-name="Elipse 13628" transform="translate(72.746 7992)" fill="#fdf3e6" stroke="#ff984a" stroke-width="6">
      <circle cx="64" cy="64" r="64" stroke="none"/>
      <circle cx="64" cy="64" r="61" fill="none"/>
    </g>
    <g id="Grupo_1183337" data-name="Grupo 1183337" transform="translate(95.91 8019.489)">
      <path id="Trazado_1008920" data-name="Trazado 1008920" d="M15.989,232.07h66.89v36.79H15.989Z" transform="translate(-8.6 -198.575)" fill="#85caff"/>
      <path id="Trazado_1008921" data-name="Trazado 1008921" d="M75.13,266.592l-1.687,2.267-1.687-2.267a3.893,3.893,0,0,0-3.151-1.62H43.886v-32.9H103v32.9H78.281A3.893,3.893,0,0,0,75.13,266.592Z" transform="translate(-32.609 -198.575)" fill="#4eb1fc" fill-rule="evenodd"/>
      <path id="Trazado_1008922" data-name="Trazado 1008922" d="M266.772,192.07h22.3v36.79H266.035a5.558,5.558,0,0,0-3.994,1.7v-35.85A5.583,5.583,0,0,1,266.772,192.07Z" transform="translate(-220.363 -164.149)" fill="#eceff1" fill-rule="evenodd"/>
      <path id="Trazado_1008923" data-name="Trazado 1008923" d="M78.286,192.07h-22.3v36.79H79.022a5.558,5.558,0,0,1,3.994,1.7V194.706A5.584,5.584,0,0,0,78.286,192.07Z" transform="translate(-43.025 -164.149)" fill="#eceff1" fill-rule="evenodd"/>
      <circle id="Elipse_16099" data-name="Elipse 16099" cx="13.464" cy="13.464" r="13.464" transform="translate(15.939 20.381) rotate(-45)" fill="#90ef90"/>
      <g id="Grupo_1183336" data-name="Grupo 1183336" transform="translate(5.997 1.981)">
        <path id="Trazado_1008924" data-name="Trazado 1008924" d="M129.876,68.441a13.464,13.464,0,0,1,0-26.859,13.464,13.464,0,0,1,0,26.859Z" transform="translate(-101.853 -36.613)" fill="#adffad" fill-rule="evenodd"/>
        <path id="Trazado_1008925" data-name="Trazado 1008925" d="M227.453,137.95a13.422,13.422,0,0,1-3.943,9.52l-9.52-9.52Z" transform="translate(-185.005 -119.552)" fill="#ff5471" fill-rule="evenodd"/>
        <path id="Trazado_1008926" data-name="Trazado 1008926" d="M222.5,146.461l-8.51-8.51h11.541a13.407,13.407,0,0,1-3.031,8.51Z" transform="translate(-185.005 -119.553)" fill="#ff6b84" fill-rule="evenodd"/>
        <path id="Trazado_1008927" data-name="Trazado 1008927" d="M213.99,41.334A13.464,13.464,0,0,1,227.454,54.8H213.99Z" transform="translate(-185.005 -36.4)" fill="#fcdb35" fill-rule="evenodd"/>
        <path id="Trazado_1008928" data-name="Trazado 1008928" d="M225.531,55.646H213.99V42.32A13.466,13.466,0,0,1,225.531,55.646Z" transform="translate(-185.005 -37.248)" fill="#ffeb87" fill-rule="evenodd"/>
        <path id="Trazado_1008929" data-name="Trazado 1008929" d="M354.682,16.346a3.634,3.634,0,0,1,3.623,3.623v30.61l-3.623,7.881-3.623-7.881V19.969A3.634,3.634,0,0,1,354.682,16.346Z" transform="translate(-302.973 -14.894)" fill="#e6d6d1" fill-rule="evenodd"/>
        <path id="Trazado_1008930" data-name="Trazado 1008930" d="M353.917,57.3l-2.858-6.217V20.476a2.924,2.924,0,1,1,5.716,0v30.61L353.917,57.3Z" transform="translate(-302.973 -15.401)" fill="#f0e3df" fill-rule="evenodd"/>
        <path id="Trazado_1008931" data-name="Trazado 1008931" d="M358.305,262l-3.623,7.881L351.059,262Z" transform="translate(-302.973 -226.315)" fill="#ae958d" fill-rule="evenodd"/>
        <path id="Trazado_1008932" data-name="Trazado 1008932" d="M353.917,268.217,351.059,262h5.716Z" transform="translate(-302.973 -226.315)" fill="#c2a9a1" fill-rule="evenodd"/>
        <path id="Trazado_1008933" data-name="Trazado 1008933" d="M354.683,16.346a3.634,3.634,0,0,1,3.623,3.623V22.8H351.06V19.969a3.634,3.634,0,0,1,3.623-3.623Z" transform="translate(-302.974 -14.894)" fill="#ae958d" fill-rule="evenodd"/>
        <path id="Trazado_1008934" data-name="Trazado 1008934" d="M356.775,23.3h-5.716V20.476a2.924,2.924,0,1,1,5.716,0Z" transform="translate(-302.973 -15.401)" fill="#c2a9a1" fill-rule="evenodd"/>
        <path id="Trazado_1008935" data-name="Trazado 1008935" d="M36.093,62.078A1.394,1.394,0,0,1,34.7,63.472H19.1a1.394,1.394,0,1,1,0-2.787H34.7A1.394,1.394,0,0,1,36.093,62.078ZM17.706,55.137a1.4,1.4,0,0,1,1.4-1.393H34.7a1.393,1.393,0,0,1,0,2.787H19.1A1.394,1.394,0,0,1,17.706,55.137Zm0-6.94A1.394,1.394,0,0,1,19.1,46.8h9.049a1.394,1.394,0,1,1,0,2.787H19.1A1.4,1.4,0,0,1,17.706,48.2ZM63.965,62.078a1.4,1.4,0,0,1-1.4,1.394h-15.6a1.394,1.394,0,0,1,0-2.787h15.6A1.4,1.4,0,0,1,63.965,62.078Zm0-6.941a1.394,1.394,0,0,1-1.4,1.393h-15.6a1.393,1.393,0,0,1,0-2.787h15.6A1.4,1.4,0,0,1,63.965,55.137Zm8.921,17.7v-34H70.1v6.257a1.394,1.394,0,0,1-2.788,0V33.26H62.736v8.388a1.448,1.448,0,0,1-.128.582l-3.634,7.9a1.393,1.393,0,0,1-2.533,0l-3.634-7.9a1.449,1.449,0,0,1-.128-.582V33.26H46.842a14.884,14.884,0,0,1-4.615,4.03V68.182a6.967,6.967,0,0,1,3.446-.92H67.311V50.108a1.394,1.394,0,0,1,2.788,0V68.655a1.394,1.394,0,0,1-1.391,1.394H45.673a4.193,4.193,0,0,0-3.628,2.114,1.405,1.405,0,0,1-.954.673Zm-64.1-34v34h31.8a1.405,1.405,0,0,1-.954-.673A4.193,4.193,0,0,0,36,70.049H12.964a1.394,1.394,0,0,1-1.391-1.394V38.834H8.785Zm5.576-5.574v34H36a6.967,6.967,0,0,1,3.446.92V38.5a14.854,14.854,0,0,1-16.324-5.237h-8.76ZM33.587,12.334v11.99a1.393,1.393,0,0,0,.41.985l8.478,8.474a12.069,12.069,0,1,1-8.888-21.449Zm13.389,10.6a12.1,12.1,0,0,0-10.6-10.6v10.6Zm-2.533,8.881a12.09,12.09,0,0,0,2.533-6.094H38.344ZM57.7,8.712a2.245,2.245,0,0,1,2.244,2.24v1.441H55.467V10.952A2.244,2.244,0,0,1,57.7,8.712Zm1.464,34.329L57.7,46.215l-1.458-3.174Zm.779-2.787H55.467V15.18h4.481V40.254Zm14.329-4.207H70.1V31.866a1.393,1.393,0,0,0-1.391-1.394H62.736V10.952a5.028,5.028,0,0,0-10.057,0V30.472H48.508a14.86,14.86,0,1,0-27.046,0h-8.5a1.393,1.393,0,0,0-1.391,1.394v4.181H7.388A1.393,1.393,0,0,0,6,37.44V74.23a1.394,1.394,0,0,0,1.391,1.393h66.89a1.4,1.4,0,0,0,1.4-1.393V37.44A1.394,1.394,0,0,0,74.277,36.047Z" transform="translate(-5.997 -5.925)" fill-rule="evenodd"/>
      </g>
    </g>
  </g>
</svg>
