<svg xmlns="http://www.w3.org/2000/svg" width="150" height="150" viewBox="0 0 150 150">
  <g id="Grupo_1177471" data-name="Grupo 1177471" transform="translate(-383.746 -8400)">
    <circle id="Elipse_13609" data-name="Elipse 13609" cx="75" cy="75" r="75" transform="translate(383.746 8400)" fill="#fff"/>
    <g id="Grupo_1184395" data-name="Grupo 1184395" transform="translate(401.735 8429.782)">
      <path id="Trazado_1011278" data-name="Trazado 1011278" d="M99.575,117.1a5.865,5.865,0,0,0-7.541-4.381l-.164-.134a6.309,6.309,0,0,0-6.074-1.1,61.454,61.454,0,0,0-8.252-14.207l1.671.579a1.325,1.325,0,0,0,.867-2.5l-2.265-.784,2.265-.784a1.325,1.325,0,0,0-.867-2.5l-3.44,1.191,1.508-5.064A3.593,3.593,0,0,0,73.84,82.8H59.187a3.592,3.592,0,0,0-3.443,4.617l2.045,6.872c-6.3,7.889-10.665,15.64-11.425,20.337-.051.317-.089.638-.116.96L41.8,118.6a13.645,13.645,0,0,0-4.42,4.95l-.776,1.527a12.775,12.775,0,1,0-17.278,18.673H18.7a4.375,4.375,0,0,0-3.133,7.431,4.375,4.375,0,0,0,3.133,7.431H48.79a5.33,5.33,0,0,0,5.105-3.853l2.42-8.491a1.325,1.325,0,1,0-2.548-.726l-2.42,8.492a2.67,2.67,0,0,1-2.557,1.93H39.53a4.368,4.368,0,0,0-.888-4.782,4.375,4.375,0,0,0-3.133-7.431h-.626a12.762,12.762,0,0,0,3.452-16.231l1.4-2.753a10.976,10.976,0,0,1,3.552-3.973l12.452-8.437a2.73,2.73,0,0,1,3.761,3.836l-7.069,10-.011.015-3.259,4.75a1.325,1.325,0,1,0,2.185,1.5l2.721-3.966a12.9,12.9,0,0,0,4.968,1H73.992a12.873,12.873,0,0,0,11.937-8.131l5.677-5.372a3.215,3.215,0,0,1,4.8,4.244l-10.781,14.4a11.239,11.239,0,0,1-6.4,4.195l-18.47,4.363a1.325,1.325,0,1,0,.609,2.578l18.47-4.363a13.893,13.893,0,0,0,7.912-5.185l10.781-14.4a5.867,5.867,0,0,0,1.045-4.715ZM18.7,155.959a1.728,1.728,0,0,1,0-3.457H35.509a1.728,1.728,0,0,1,0,3.457ZM35.509,146.4a1.728,1.728,0,0,1,0,3.457H18.7a1.728,1.728,0,1,1,0-3.457Zm-8.4-2.649a10.132,10.132,0,1,1,10.132-10.132A10.144,10.144,0,0,1,27.1,143.746Zm62.491-29.5-2.775,2.626a12.4,12.4,0,0,0-.271-2.829A3.661,3.661,0,0,1,89.6,114.242ZM58.43,85.827a.935.935,0,0,1,.756-.379H73.84a.944.944,0,0,1,.9,1.211L72.78,93.251H60.245l-1.962-6.592A.933.933,0,0,1,58.43,85.827Zm15.562,41.014H59.034a10.233,10.233,0,0,1-3.4-.588l6.032-8.534c.088-.125.17-.253.246-.383a1.323,1.323,0,0,0,.6,1.071,5.747,5.747,0,0,0,2.681,1.044v.489a1.362,1.362,0,0,0,1.284,1.38A1.325,1.325,0,0,0,67.838,120v-.676a4.829,4.829,0,0,0,3.374-3.8,4.26,4.26,0,0,0-2.894-4.821,12.39,12.39,0,0,1-3.142-1.459,1.017,1.017,0,0,1-.226-.964,1.4,1.4,0,0,1,.923-1.107,2.51,2.51,0,0,1,2.309.364l.118.11a1.306,1.306,0,1,0,1.708-1.974,4.949,4.949,0,0,0-2.168-1.147v-.427a1.362,1.362,0,0,0-1.284-1.38,1.325,1.325,0,0,0-1.365,1.324v.571c-.027.008-.054.013-.081.021a4.024,4.024,0,0,0-2.762,3.153,3.6,3.6,0,0,0,1.195,3.539,13.552,13.552,0,0,0,3.894,1.873,1.606,1.606,0,0,1,1.164,1.883,2.111,2.111,0,0,1-2.095,1.78,3.54,3.54,0,0,1-2.547-.667,1.325,1.325,0,0,0-1.573.091,5.38,5.38,0,0,0-8.132-6.121l-4.908,3.325c1.511-5.108,6.383-12.37,10.547-17.585H73.134c4.61,5.774,10.089,14.057,10.913,19.147a10.249,10.249,0,0,1-10.054,11.794Z" transform="translate(0 -68.173)" fill="#53435c"/>
      <path id="Trazado_1011279" data-name="Trazado 1011279" d="M288.839,26.012H290.2v1.364a1.325,1.325,0,1,0,2.649,0V26.012h1.364a1.325,1.325,0,0,0,0-2.649h-1.364V22a1.325,1.325,0,1,0-2.649,0v1.364h-1.364a1.325,1.325,0,0,0,0,2.649Z" transform="translate(-224.937 -17.022)" fill="#53435c"/>
      <path id="Trazado_1011280" data-name="Trazado 1011280" d="M69.889,334.388a9.318,9.318,0,0,1-2.332-1.075.535.535,0,0,1-.063-.445.779.779,0,0,1,.5-.616,1.615,1.615,0,0,1,1.491.221l.192.171a1.314,1.314,0,1,0,1.7-2,4.365,4.365,0,0,0-1.656-.957v-.079a1.361,1.361,0,0,0-1.284-1.38,1.325,1.325,0,0,0-1.365,1.324v.216a3.409,3.409,0,0,0-2.182,2.609,3.07,3.07,0,0,0,1.031,3.021,11.17,11.17,0,0,0,3.084,1.489A.929.929,0,0,1,69.7,338a1.323,1.323,0,0,1-1.313,1.116,2.4,2.4,0,0,1-1.746-.434,1.364,1.364,0,0,0-1.853.315,1.325,1.325,0,0,0,.357,1.873,4.865,4.865,0,0,0,1.925.813v.1a1.362,1.362,0,0,0,1.284,1.38,1.325,1.325,0,0,0,1.365-1.324v-.3a4.035,4.035,0,0,0,2.592-3.1A3.576,3.576,0,0,0,69.889,334.388Z" transform="translate(-41.354 -270.251)" fill="#53435c"/>
      <path id="Trazado_1011281" data-name="Trazado 1011281" d="M434.036,26.145a1.335,1.335,0,0,0,1.873,0l4.636-4.636a1.325,1.325,0,0,0-1.874-1.873L436.3,22.01V1.325a1.325,1.325,0,1,0-2.649,0V22.01l-2.374-2.374a1.325,1.325,0,0,0-1.874,1.873Z" transform="translate(-341.442)" fill="#53435c"/>
    </g>
  </g>
</svg>
