<svg xmlns="http://www.w3.org/2000/svg" width="128" height="128" viewBox="0 0 128 128">
  <g id="Grupo_1184381" data-name="Grupo 1184381" transform="translate(-384.199 -8399.752)">
    <circle id="Elipse_13609" data-name="Elipse 13609" cx="64" cy="64" r="64" transform="translate(384.199 8399.752)" fill="#7be888"/>
    <g id="Grupo_1184343" data-name="Grupo 1184343" transform="translate(348.12 8429.752)">
      <path id="Trazado_1011132" data-name="Trazado 1011132" d="M225.915,176.226a1,1,0,0,0,1-1v-2.445a1,1,0,1,0-2.008,0v2.445A1,1,0,0,0,225.915,176.226Z" transform="translate(-129.776 -148.78)" fill="#53435c"/>
      <path id="Trazado_1011133" data-name="Trazado 1011133" d="M273.094,176.226a1,1,0,0,0,1-1v-2.445a1,1,0,1,0-2.008,0v2.445A1,1,0,0,0,273.094,176.226Z" transform="translate(-170.639 -148.78)" fill="#53435c"/>
      <path id="Trazado_1011134" data-name="Trazado 1011134" d="M218.956,249.6a7.63,7.63,0,0,0,5.431-2.25,1,1,0,1,0-1.42-1.42,5.673,5.673,0,0,1-8.023,0,1,1,0,0,0-1.42,1.42A7.63,7.63,0,0,0,218.956,249.6Z" transform="translate(-119.658 -212.759)" fill="#53435c"/>
      <path id="Trazado_1011140" data-name="Trazado 1011140" d="M121.045,55.55a4.12,4.12,0,0,0-4.024-3.262h-1.183a14.952,14.952,0,0,0-7.479-8.1,13.3,13.3,0,0,0,4.044-9.559V34.3h1.269a5.18,5.18,0,0,0,3.144-9.3V14.846A14.734,14.734,0,0,0,114.038,6.2a1,1,0,0,0-1.631,1.171,12.736,12.736,0,0,1,2.4,7.475v9.218a5.175,5.175,0,0,0-1.136-.127H112.4v-6a1,1,0,0,0-1.311-.956A21.6,21.6,0,0,1,94.258,15.8a22.319,22.319,0,0,1-6.3-4.641,1,1,0,0,0-1.765.647c0,.04,0,6.064,0,6.125v6H84.923a5.233,5.233,0,0,0-1.136.125V14.846A12.854,12.854,0,0,1,96.627,2.008h5.341a12.707,12.707,0,0,1,7.85,2.681,1,1,0,0,0,1.23-1.587,14.7,14.7,0,0,0-9.08-3.1H96.626A14.864,14.864,0,0,0,81.779,14.846V25a5.236,5.236,0,0,0-.523.456A5.184,5.184,0,0,0,84.923,34.3h1.269v.475a13.015,13.015,0,0,0,3.873,9.3c.043.043.086.084.13.126a14.949,14.949,0,0,0-7.438,8.082H81.574A4.12,4.12,0,0,0,77.55,55.55a3.48,3.48,0,0,0-2.471,3.326v3.071a3.48,3.48,0,0,0,2.47,3.326,4.121,4.121,0,0,0,4.025,3.262h5.4a1,1,0,1,0,0-2.008h-5.4a2.109,2.109,0,0,1-1.937-1.28,3.48,3.48,0,0,0,2.391-3.3V58.876a3.48,3.48,0,0,0-2.39-3.3,2.109,2.109,0,0,1,1.937-1.28H117.02a2.107,2.107,0,0,1,1.936,1.28,3.48,3.48,0,0,0-2.39,3.3v3.071a3.48,3.48,0,0,0,2.391,3.3,2.108,2.108,0,0,1-1.937,1.28H90.988a1,1,0,1,0,0,2.008H117.02a4.12,4.12,0,0,0,4.024-3.262,3.48,3.48,0,0,0,2.47-3.326V58.876A3.48,3.48,0,0,0,121.045,55.55Zm-7.373-29.6a3.175,3.175,0,1,1,0,6.35H112.4v-6.35ZM84.923,32.3a3.175,3.175,0,1,1,0-6.35h1.269V32.3Zm-4.9,29.651a1.467,1.467,0,0,1-2.933,0V58.876a1.467,1.467,0,0,1,2.933,0ZM88.2,34.779V17.933c0-.019,0-2.045,0-3.759a25.784,25.784,0,0,0,5.08,3.383,23.711,23.711,0,0,0,17.115,1.717V34.627A11.2,11.2,0,0,1,99.382,45.876,11.1,11.1,0,0,1,88.2,34.779Zm3.746,10.853a13.006,13.006,0,0,0,7.35,2.252h.1a12.9,12.9,0,0,0,7.213-2.269,12.929,12.929,0,0,1,7.053,6.673H84.932a12.926,12.926,0,0,1,7.014-6.656Zm29.561,16.315a1.467,1.467,0,0,1-2.933,0V58.876a1.467,1.467,0,0,1,2.933,0Z" transform="translate(0)" fill="#53435c"/>
    </g>
  </g>
</svg>
