<svg xmlns="http://www.w3.org/2000/svg" width="50" height="50" viewBox="0 0 50 50">
  <g id="Grupo_1182514" data-name="Grupo 1182514" transform="translate(-186.371 -923)">
    <rect id="Rectángulo_456586" data-name="Rectángulo 456586" width="50" height="50" rx="25" transform="translate(186.371 923)" fill="#ffe0c8"/>
    <path id="circle-dollar-to-slot-solid-full" d="M37.356,106.712a10.712,10.712,0,1,1,10.712,10.712A10.715,10.715,0,0,1,37.356,106.712Zm9.82-5.133v.223a2.929,2.929,0,0,0-.452,5.819l2.327.391a.7.7,0,0,1-.117,1.384l-3.1-.006a1.116,1.116,0,0,0,0,2.232h1.339v.223a1.116,1.116,0,0,0,2.232,0v-.262a2.929,2.929,0,0,0,.006-5.78l-2.327-.391a.7.7,0,0,1,.117-1.384h2.65a1.116,1.116,0,1,0,0-2.232h-.446v-.223a1.116,1.116,0,0,0-2.232,0Zm-12.5,11.828v5.8a.9.9,0,0,0,.893.893h25a.9.9,0,0,0,.893-.893v-5.8a1.339,1.339,0,1,1,2.678,0v5.8a3.574,3.574,0,0,1-3.571,3.571h-25A3.574,3.574,0,0,1,32,119.21v-5.8a1.339,1.339,0,1,1,2.678,0Z" transform="translate(163.303 838.609)" fill="#645956"/>
  </g>
</svg>
